<svg width="35" height="24" viewBox="0 0 35 24" fill="none" xmlns="http://www.w3.org/2000/svg">
<path d="M0 3.25C0 1.45508 1.45507 0 3.25 0H31.75C33.5449 0 35 1.45507 35 3.25V20.75C35 22.5449 33.5449 24 31.75 24H3.25C1.45507 24 0 22.5449 0 20.75V3.25Z" fill="white"/>
<path fill-rule="evenodd" clip-rule="evenodd" d="M25.2428 5.78164C25.6878 5.89302 26 6.29295 26 6.75173V9.50002C26 10.0523 25.5523 10.5 25 10.5H11C10.4477 10.5 10 10.0523 10 9.50002V6.75173C10 6.29295 10.3122 5.89302 10.7572 5.78164L17.029 4.21218C17.6665 4.05264 18.3335 4.05265 18.971 4.21218L25.2428 5.78164ZM11 17V11.5H13V17H11ZM15 11.5H17V17H15V11.5ZM21 11.5H19V17H21V11.5ZM23 17V11.5H25V17H23ZM11 18C10.4477 18 10 18.4477 10 19C10 19.5523 10.4477 20 11 20H25C25.5523 20 26 19.5523 26 19C26 18.4477 25.5523 18 25 18H11ZM24 7.53232V8.50002H12V7.53232L17.029 6.27385C17.6665 6.11432 18.3335 6.11432 18.971 6.27385L24 7.53232Z" fill="#6C747F"/>
<path d="M3.25 1H31.75V-1H3.25V1ZM34 3.25V20.75H36V3.25H34ZM31.75 23H3.25V25H31.75V23ZM1 20.75V3.25H-1V20.75H1ZM3.25 23C2.00736 23 1 21.9926 1 20.75H-1C-1 23.0972 0.902789 25 3.25 25V23ZM34 20.75C34 21.9926 32.9926 23 31.75 23V25C34.0972 25 36 23.0972 36 20.75H34ZM31.75 1C32.9926 1 34 2.00736 34 3.25H36C36 0.90279 34.0972 -1 31.75 -1V1ZM3.25 -1C0.90279 -1 -1 0.90279 -1 3.25H1C1 2.00736 2.00736 1 3.25 1V-1Z" fill="#F6F7F8"/>
</svg>
