<svg width="30" height="20" viewBox="0 0 30 20" fill="none" xmlns="http://www.w3.org/2000/svg">
<rect width="30" height="20" rx="3" fill="#B2FCE4"/>
<path d="M21.9275 5.73377L19.8099 4.51865L17.6616 3.28637C16.2383 2.46959 14.4638 3.49727 14.4638 5.13855V5.41514C14.4638 5.56649 14.5447 5.70625 14.6758 5.78156L15.6721 6.35324C15.949 6.51188 16.2934 6.31231 16.2934 5.99363V5.33849C16.2934 5.01417 16.6439 4.81111 16.9257 4.9725L18.8883 6.09877L20.8454 7.22162C21.1279 7.38387 21.1279 7.79158 20.8454 7.95372L18.8883 9.07662L16.9257 10.2029C16.6439 10.3643 16.2934 10.1612 16.2934 9.83684V9.51142C16.2934 7.87014 14.5189 6.84245 13.0953 7.65923L10.9476 8.89157L8.82977 10.1066C7.39952 10.9273 7.39952 12.9903 8.82977 13.811L10.9476 15.026L13.0953 16.2583C14.5189 17.0752 16.2934 16.0474 16.2934 14.4062V14.1289C16.2934 13.9776 16.2125 13.8378 16.0814 13.7625L15.0851 13.1908C14.8081 13.0321 14.4638 13.2317 14.4638 13.5504V14.2062C14.4638 14.5305 14.1133 14.7337 13.8317 14.5722L11.8687 13.4459L9.91162 12.3231C9.62903 12.1609 9.62903 11.7532 9.91162 11.591L11.8687 10.4681L13.8317 9.34181C14.1133 9.18042 14.4638 9.38348 14.4638 9.70786V10.0333C14.4638 11.6746 16.2383 12.7022 17.6616 11.8855L19.8099 10.6532L21.9275 9.43807C23.3577 8.61749 23.3577 6.55435 21.9275 5.73377Z" fill="#100F0D"/>
</svg>
