<svg width="35" height="24" viewBox="0 0 35 24" fill="none" xmlns="http://www.w3.org/2000/svg">
<path d="M9.24737 23.9997C8.38883 23.9991 7.55684 23.7019 6.89219 23.1585C6.22754 22.615 5.77104 21.8587 5.59993 21.0173L5.11933 18.625C5.00552 18.0603 5.12071 17.4734 5.43959 16.9936C5.75847 16.5138 6.25489 16.1803 6.81966 16.0665C7.38443 15.9527 7.97129 16.0679 8.45112 16.3867C8.93095 16.7056 9.26444 17.2021 9.37825 17.7668L9.73654 19.5412L28.4716 15.7693L26.193 4.44507L7.45584 8.2191L7.84202 10.1501C7.95583 10.7149 7.84061 11.3017 7.52174 11.7816C7.20286 12.2614 6.70646 12.5949 6.14169 12.7087C5.57692 12.8225 4.99006 12.7073 4.51023 12.3884C4.0304 12.0695 3.69691 11.5731 3.5831 11.0083L3.07246 8.47014C2.87897 7.50402 3.07661 6.50061 3.62205 5.68005C4.16748 4.85949 5.01613 4.2888 5.98182 4.09319L25.9527 0.0724233C26.9185 -0.121022 27.9217 0.0766736 28.7419 0.622144C29.5621 1.16761 30.1324 2.01627 30.3275 2.98178L32.8571 15.5397C33.0506 16.5058 32.8529 17.5093 32.3075 18.3298C31.762 19.1504 30.9134 19.7211 29.9477 19.9167L9.97687 23.9374C9.73633 23.9821 9.49199 24.0029 9.24737 23.9997Z" fill="url(#paint0_linear_3744_20357)"/>
<defs>
<linearGradient id="paint0_linear_3744_20357" x1="8.27114" y1="2.46472" x2="27.6713" y2="21.5237" gradientUnits="userSpaceOnUse">
<stop stop-color="#F05248"/>
<stop offset="1" stop-color="#F68E41"/>
</linearGradient>
</defs>
</svg>
