<svg width="35" height="24" viewBox="0 0 35 24" fill="none" xmlns="http://www.w3.org/2000/svg">
<rect x="0.416667" y="0.416667" width="34.1667" height="23.1667" rx="2.2901" fill="white" stroke="#F6F7F8" stroke-width="0.833333"/>
<path d="M9.10644 8.02246C8.72844 8.02246 8.50793 8.31496 8.50793 8.73346V9.00346V11.6585V11.9375C8.50793 12.347 8.72844 12.644 9.10644 12.644C9.47994 12.644 9.70944 12.347 9.70944 11.9375V11.6585V9.00346V8.73346C9.70944 8.31496 9.47994 8.02246 9.10644 8.02246Z" fill="#1756C2"/>
<path d="M11.9235 9.29156H11.64V9.11606C11.64 8.91806 11.757 8.83706 12.0585 8.86856C12.3825 8.90006 12.4545 8.69306 12.4545 8.52656C12.4545 8.40056 12.4185 8.33306 12.3195 8.22056C12.108 8.01356 11.5815 8.01806 11.5815 8.01806C11.5815 8.01806 11.1 7.99556 10.776 8.25656C10.452 8.50856 10.479 8.96756 10.479 8.96756V9.28706H10.425C10.209 9.28706 9.97949 9.42206 9.97949 9.69656C9.97949 9.97556 10.2405 10.1016 10.4475 10.1016H10.4745V12.0141C10.4745 12.3426 10.677 12.6396 11.073 12.6396C11.478 12.6396 11.6355 12.3516 11.6355 12.0321V10.1061H11.919C12.0765 10.1061 12.387 10.0296 12.387 9.71906C12.3915 9.39056 12.1485 9.29156 11.9235 9.29156Z" fill="#1756C2"/>
<path d="M15.3164 9.18359C15.1229 9.18359 14.9654 9.26909 14.8664 9.40409C14.6774 9.27359 14.4344 9.18359 14.1464 9.18359C12.9224 9.18359 12.3779 10.1061 12.3779 10.9926C12.3779 11.9421 13.0349 12.6801 14.1464 12.6801C14.4074 12.6801 14.6639 12.5946 14.8664 12.4596C14.9654 12.5946 15.1229 12.6801 15.3209 12.6801C15.7034 12.6801 15.9194 12.3876 15.9194 11.9736V9.89459C15.9149 9.48509 15.6989 9.18359 15.3164 9.18359ZM13.5659 10.9476C13.5659 10.1916 13.9349 10.0566 14.1779 10.0566C14.1869 10.0566 14.2004 10.0566 14.2094 10.0566C14.4929 10.0791 14.7179 10.2681 14.7179 10.9791C14.7179 11.6811 14.4749 11.8206 14.2229 11.8341C14.2094 11.8341 14.2004 11.8341 14.1869 11.8341C13.9034 11.8341 13.5659 11.7036 13.5659 10.9476Z" fill="#1756C2"/>
<path d="M8.04438 11.7304C7.98138 11.5414 6.96888 8.65695 6.91938 8.52195C6.86538 8.38695 6.81138 8.28795 6.68988 8.20245C6.48738 8.04945 6.05538 8.05845 6.05538 8.05845C6.05538 8.05845 5.62788 8.04945 5.42088 8.20245C5.29938 8.28795 5.24988 8.38695 5.19588 8.52195C5.14638 8.65695 4.13388 11.5414 4.06188 11.7304C4.00338 11.9149 3.95838 12.1399 4.06188 12.3199C4.17888 12.4909 4.36788 12.6394 4.61538 12.6394C4.86738 12.6394 5.08788 12.5314 5.18688 12.2254C5.28138 11.9149 5.33088 11.7619 5.33088 11.7619H6.05088H6.77988C6.77988 11.7619 6.82488 11.9149 6.92388 12.2254C7.01838 12.5314 7.24788 12.6394 7.49088 12.6394C7.74738 12.6394 7.94538 12.4909 8.04438 12.3199C8.15238 12.1399 8.11188 11.9149 8.04438 11.7304ZM5.60538 10.7674L6.05538 9.30495L6.50538 10.7674H5.60538Z" fill="#1756C2"/>
<path d="M29.4283 16.1135H4.0033V16.6625H29.4283C30.2068 16.6625 30.8638 16.091 30.9808 15.344C30.6298 15.8165 30.0628 16.1135 29.4283 16.1135Z" fill="#EFCF00"/>
<path d="M30.9988 14.1651V13.7241H5.5783C4.7098 13.7241 4.0033 14.4351 4.0033 15.3036V15.7446H29.4283C30.2968 15.7446 30.9988 15.0336 30.9988 14.1651Z" fill="#D60F27"/>
<path d="M21.1078 9.14771C20.4643 9.14771 19.8388 10.0072 19.6183 10.3402C19.6273 10.2637 19.6453 10.1467 19.6813 10.0162C19.7263 9.7957 19.7668 9.48521 19.6183 9.30521C19.5328 9.19721 19.4023 9.14771 19.2268 9.14771C18.6328 9.14771 18.0433 9.90821 17.7913 10.2772C17.8228 10.1692 17.8588 10.0342 17.8813 9.9532C17.9218 9.7687 17.9983 9.4852 17.8723 9.31871C17.8003 9.21521 17.6788 9.17021 17.5078 9.17021C17.2288 9.17021 16.9138 9.30071 16.9048 9.30071L16.8418 9.32771L16.9003 9.36371C16.9003 9.36371 16.9858 9.4492 16.9183 9.9037C16.8058 10.7002 16.5448 11.6542 16.4413 12.0322C16.3828 12.2257 16.3918 12.3832 16.4683 12.4867C16.5493 12.5947 16.6978 12.6532 16.8823 12.6532C17.1388 12.6532 17.3728 12.5677 17.3863 12.5542L17.4223 12.5452L17.3908 12.5047C17.3908 12.5002 17.2558 12.3022 17.4313 11.9152C18.0253 10.5922 18.5068 10.0657 18.6418 9.9757C18.6733 9.9622 18.6913 9.9442 18.7138 9.9442C18.7273 9.9442 18.7363 9.95321 18.7363 9.96221C18.7498 9.97121 18.7543 10.0027 18.7498 10.0297C18.7003 10.4887 18.5068 11.2582 18.3808 11.7712C18.3538 11.8882 18.3268 11.9827 18.3088 12.0637C18.2638 12.2617 18.2773 12.4147 18.3538 12.5137C18.4303 12.5992 18.5473 12.6442 18.7183 12.6442C18.9838 12.6442 19.2223 12.5452 19.2313 12.5452L19.2808 12.5272L19.2448 12.4957C19.2448 12.4822 19.1143 12.3157 19.2988 11.9062C19.7398 10.8892 20.3338 10.0927 20.4868 9.9757C20.5408 9.9397 20.5678 9.93521 20.5813 9.93521C20.5858 9.93521 20.5903 9.9352 20.5993 9.9487C20.6128 9.9622 20.6173 10.0027 20.6128 10.0567C20.6083 10.0747 20.5948 10.1377 20.5813 10.2322C20.4913 10.5832 20.3383 11.3122 20.2528 11.8207C20.2033 12.1222 20.2258 12.3517 20.3383 12.4777C20.4283 12.5812 20.5723 12.6442 20.7433 12.6442C21.0448 12.6442 21.3238 12.4552 21.3373 12.4507L21.3823 12.4192L21.3418 12.3922C21.3418 12.3922 21.1258 12.1897 21.2338 11.5957C21.3103 11.1952 21.4048 10.7407 21.4768 10.4077C21.5128 10.2412 21.5353 10.1017 21.5533 10.0252L21.5578 9.9937C21.5983 9.8092 21.6568 9.47621 21.4948 9.28721C21.4138 9.18821 21.2878 9.14771 21.1078 9.14771Z" fill="#D60F27"/>
<path d="M24.8698 9.18371C24.6853 9.18371 24.5368 9.23321 24.4378 9.33221C24.3613 9.28721 24.1093 9.14771 23.7763 9.14771C23.5873 9.14771 23.3083 9.18371 22.9933 9.38171C22.6468 9.59771 22.3498 9.93971 22.1113 10.4122C21.5713 11.4697 21.8278 12.2392 21.9673 12.4282C22.0843 12.5947 22.2508 12.6667 22.4848 12.6667C22.8178 12.6667 23.2633 12.5362 23.9428 11.4697C23.9248 11.6182 23.9023 11.8297 23.9023 12.0097C23.9023 12.5902 24.3118 12.6532 24.4828 12.6532C24.9193 12.6532 25.0723 12.4507 25.0723 12.4417L25.0903 12.4192L25.0723 12.3967C25.0678 12.3877 24.8698 12.1852 25.0003 11.1052C25.1263 10.0747 25.4818 9.36371 25.4818 9.35471L25.4998 9.32771L25.4683 9.30971C25.4548 9.30521 25.1623 9.18371 24.8698 9.18371ZM22.9798 11.8792C22.8898 11.8792 22.8448 11.7262 22.8448 11.5687C22.8448 11.3977 22.9303 10.3987 23.3533 9.8857C23.4478 9.7867 23.5603 9.7237 23.6683 9.7237C23.9383 9.7237 24.1903 10.0117 24.2533 10.0882C23.9248 10.7542 23.4658 11.4427 23.1373 11.7802C23.0788 11.8477 23.0203 11.8792 22.9798 11.8792Z" fill="#D60F27"/>
<path d="M28.2224 9.14771C27.7499 9.14771 27.1829 9.93071 26.9399 10.2952C26.9804 10.1377 27.0389 9.90821 27.0839 9.69221C27.1154 9.53471 27.0929 9.40871 27.0299 9.32321C26.9489 9.23321 26.8139 9.18371 26.6249 9.18371C26.3549 9.18371 26.0309 9.30071 26.0219 9.30521L25.9769 9.32321L26.0174 9.35921C26.0174 9.36371 26.1029 9.48971 26.0489 9.92171C25.9724 10.3942 25.6709 11.5777 25.5449 12.0592C25.4864 12.2527 25.4999 12.3922 25.5719 12.4912C25.6799 12.6352 25.8869 12.6532 26.0354 12.6532C26.2784 12.6532 26.5259 12.5677 26.5349 12.5542L26.5799 12.5452L26.5529 12.5047C26.5529 12.5002 26.4359 12.3202 26.5709 11.9647C26.9309 11.0512 27.3314 10.5202 27.5744 10.3357C27.6284 10.2952 27.6869 10.2727 27.7409 10.2727C27.8714 10.2727 27.9569 10.4212 27.9569 10.4212L27.9749 10.4572L28.0064 10.4257C28.1324 10.2997 28.3574 10.0342 28.4384 9.7957C28.4969 9.6517 28.5689 9.39521 28.4564 9.24671C28.4204 9.18371 28.3394 9.14771 28.2224 9.14771Z" fill="#D60F27"/>
<path d="M30.9539 9.57518C30.8234 9.62018 30.4949 9.65168 30.0584 9.65168C30.0089 9.65168 29.9684 9.65168 29.9414 9.65168C29.9594 9.53918 30.0404 9.21968 30.1259 8.91368C30.1799 8.72918 30.1754 8.58068 30.0944 8.48168C30.0179 8.38718 29.8919 8.34668 29.7029 8.34668C29.4374 8.34668 29.0549 8.46368 29.0414 8.47268L28.9829 8.49068L29.0324 8.53568C29.1809 8.68418 29.0189 9.40868 28.9514 9.67418C28.9424 9.68768 28.5734 11.1232 28.5734 11.8072C28.5734 12.3832 28.8884 12.6667 29.4914 12.6667C29.7704 12.6667 30.1844 12.5902 30.4589 12.3517C30.5804 12.2482 30.6299 12.0997 30.5984 11.9422C30.5804 11.8297 30.5264 11.7397 30.5264 11.7352L30.5084 11.6947L30.4724 11.7262C30.4679 11.7262 30.3419 11.8477 30.0944 11.9332C29.9999 11.9602 29.9279 11.9782 29.8514 11.9782C29.7704 11.9782 29.7029 11.9467 29.6399 11.8927C29.5004 11.7487 29.5904 11.2402 29.6219 11.0737C29.6669 10.8127 29.7839 10.3312 29.8064 10.2097C29.8514 10.2097 29.9414 10.2097 30.0584 10.2097C30.1574 10.2097 30.2429 10.2097 30.3284 10.2097C30.8459 10.2187 30.9899 9.81818 30.9989 9.60218V9.54818L30.9539 9.57518Z" fill="#D60F27"/>
</svg>
