<svg width="35" height="24" viewBox="0 0 35 24" fill="none" xmlns="http://www.w3.org/2000/svg">
<rect x="0.5" y="0.5" width="34" height="23" rx="2.74812" fill="white" stroke="#F6F7F8"/>
<path fill-rule="evenodd" clip-rule="evenodd" d="M6.26088 10.4483L7.20364 12.4376H5.28041L6.26088 10.4483ZM7.72216 13.5594H8.87233L6.71341 8.94934H6.44C6.39374 8.93648 6.34485 8.93648 6.29859 8.94934C6.25237 8.97443 6.21587 9.01425 6.19489 9.06247L3.96997 13.5594H4.74304L5.12957 12.8052H7.38277L7.72216 13.5594Z" fill="#373530"/>
<path fill-rule="evenodd" clip-rule="evenodd" d="M10.3618 13.5594H9.31533V9.14732C9.31421 9.12018 9.31962 9.09318 9.33111 9.06857C9.34259 9.04397 9.35981 9.02247 9.38132 9.0059C9.39967 8.98716 9.42172 8.97244 9.44607 8.9627C9.47042 8.95296 9.49653 8.94841 9.52274 8.94934H10.3618V13.5594Z" fill="#373530"/>
<path fill-rule="evenodd" clip-rule="evenodd" d="M11.2859 10.3541C11.2943 10.3148 11.3139 10.2788 11.3425 10.2504C11.3845 10.2144 11.4379 10.1944 11.4933 10.1938H12.3418V13.5595H11.2859V10.3541Z" fill="#35322C"/>
<path fill-rule="evenodd" clip-rule="evenodd" d="M14.2837 12.6167C14.2836 12.6946 14.2997 12.7716 14.3308 12.843C14.3636 12.9158 14.4082 12.9827 14.4628 13.041C14.5249 13.0927 14.595 13.1341 14.6702 13.1635C14.758 13.1945 14.8505 13.2104 14.9436 13.2107C15.0353 13.21 15.1244 13.1803 15.1982 13.1258C15.2841 13.06 15.3548 12.9764 15.4056 12.8807C15.4735 12.7638 15.5213 12.6363 15.547 12.5036C15.5854 12.3463 15.6044 12.1848 15.6035 12.0228C15.6199 11.8315 15.6199 11.6391 15.6035 11.4477C15.5809 11.3005 15.5364 11.1576 15.4716 11.0235C15.426 10.9272 15.3581 10.8431 15.2736 10.7784C15.1993 10.725 15.1105 10.6954 15.019 10.6935C14.9534 10.6837 14.8867 10.6837 14.821 10.6935L14.6419 10.7878L14.4722 10.9198L14.3308 11.0895L14.2837 12.6167ZM13.2278 10.3541C13.2371 10.3152 13.2566 10.2794 13.2843 10.2504C13.3226 10.2143 13.3732 10.1941 13.4258 10.1938H14.2837V10.4578C14.414 10.3608 14.5567 10.2815 14.7079 10.2221C14.882 10.1542 15.068 10.1221 15.2547 10.1279C15.4656 10.1225 15.6749 10.1644 15.8675 10.2504C16.0446 10.3369 16.2044 10.4551 16.3389 10.5992C16.4679 10.7504 16.5699 10.9226 16.6406 11.1083C16.7085 11.3088 16.7435 11.5189 16.7443 11.7305C16.7434 11.993 16.702 12.2537 16.6217 12.5036C16.5402 12.7278 16.4188 12.9354 16.2635 13.1164C16.1017 13.2855 15.9099 13.4229 15.6978 13.5218C15.4617 13.6189 15.2083 13.667 14.953 13.6632H14.5948C14.492 13.6481 14.3909 13.6228 14.2931 13.5878V14.9077H13.2278V10.3541Z" fill="#332D28"/>
<path fill-rule="evenodd" clip-rule="evenodd" d="M17.9605 12.4377C17.9677 12.2458 18.0477 12.0639 18.1844 11.929C18.321 11.7941 18.504 11.7164 18.6959 11.7118C18.8662 11.691 19.039 11.7171 19.1956 11.7872V12.9562C19.06 13.0829 18.8815 13.1536 18.6959 13.1542C18.6006 13.1554 18.5059 13.1379 18.4174 13.1026C18.3288 13.0672 18.2481 13.0148 18.1798 12.9483C18.1115 12.8817 18.057 12.8024 18.0194 12.7148C17.9818 12.6272 17.9618 12.533 17.9605 12.4377ZM19.469 10.1939C18.8038 10.0291 18.1063 10.0487 17.4515 10.2505C17.4515 10.3353 17.5174 10.4862 17.5457 10.5805C18.9222 10.3353 19.1956 10.5239 19.1956 11.1084V11.297C18.941 11.297 18.6393 11.231 18.3942 11.231C18.2308 11.2194 18.0667 11.2414 17.9121 11.2958C17.7576 11.3501 17.6158 11.4356 17.4956 11.547C17.3754 11.6583 17.2794 11.7931 17.2134 11.9431C17.1474 12.0931 17.1129 12.255 17.1121 12.4188C17.1121 13.2296 17.904 13.9933 19.1956 13.4276V13.5596H20.2797V11.0801C20.2589 10.8645 20.1686 10.6615 20.0223 10.5016C19.8761 10.3418 19.6819 10.2338 19.469 10.1939Z" fill="#332D28"/>
<path fill-rule="evenodd" clip-rule="evenodd" d="M20.5815 10.0901H21.694L22.797 12.1924L23.6927 10.2504C23.7125 10.2097 23.7416 10.1742 23.7775 10.1467C23.821 10.1372 23.866 10.1372 23.9095 10.1467H24.5034L22.7499 13.9177C22.6153 14.2279 22.3805 14.4839 22.083 14.6446C21.7855 14.8053 21.4427 14.8614 21.1095 14.8039V14.2382C21.4 14.2659 21.6908 14.189 21.9297 14.0214C21.9814 13.9593 22.0228 13.8892 22.0523 13.814C22.0523 13.748 22.1088 13.6914 22.1371 13.6349L22.2597 13.3709L20.5815 10.0901Z" fill="#332D28"/>
<path fill-rule="evenodd" clip-rule="evenodd" d="M12.3795 9.14735C12.3616 9.286 12.2939 9.4134 12.1889 9.50572C12.0839 9.59804 11.9489 9.64896 11.8091 9.64896C11.6693 9.64896 11.5343 9.59804 11.4294 9.50572C11.3244 9.4134 11.2566 9.286 11.2388 9.14735C11.2566 9.00871 11.3244 8.88131 11.4294 8.78899C11.5343 8.69667 11.6693 8.64575 11.8091 8.64575C11.9489 8.64575 12.0839 8.69667 12.1889 8.78899C12.2939 8.88131 12.3616 9.00871 12.3795 9.14735Z" fill="#00AEEF"/>
<path fill-rule="evenodd" clip-rule="evenodd" d="M31.97 13.5971H31.1969C31.1864 13.6015 31.1752 13.6038 31.1639 13.6038C31.1526 13.6038 31.1413 13.6015 31.1309 13.5971L30.2353 12.0415L29.7639 12.5789V13.5971H29.1417C29.1232 13.5972 29.1053 13.5906 29.0914 13.5784C29.0775 13.5663 29.0686 13.5494 29.0662 13.5311V10.1749C29.0686 10.1566 29.0775 10.1397 29.0914 10.1275C29.1053 10.1154 29.1232 10.1087 29.1417 10.1089H29.7639V11.5325L30.9423 10.1183C30.9606 10.1118 30.9806 10.1118 30.9989 10.1183H31.8945L30.6972 11.4947L31.97 13.5971ZM28.1989 13.5971H27.5578C27.5394 13.5972 27.5215 13.5906 27.5076 13.5784C27.4937 13.5663 27.4847 13.5494 27.4824 13.5311V12.2112C27.4843 12.1963 27.4818 12.1812 27.4751 12.1678C27.4684 12.1543 27.4578 12.1432 27.4447 12.1358H26.2851V13.5971H25.644C25.6256 13.5972 25.6077 13.5906 25.5938 13.5784C25.5799 13.5663 25.5709 13.5494 25.5686 13.5311V10.1749C25.5709 10.1566 25.5799 10.1397 25.5938 10.1275C25.6077 10.1154 25.6256 10.1087 25.644 10.1089H26.2851V11.5325H27.4447C27.4534 11.5325 27.4619 11.5308 27.47 11.5274C27.478 11.5241 27.4852 11.5193 27.4914 11.5131C27.4975 11.507 27.5024 11.4997 27.5057 11.4917C27.509 11.4837 27.5107 11.4751 27.5107 11.4665V10.1749C27.513 10.1566 27.522 10.1397 27.5359 10.1275C27.5498 10.1154 27.5676 10.1087 27.5861 10.1089H28.2272L28.1989 13.5971Z" fill="#00AEEF"/>
</svg>
