<svg width="35" height="24" viewBox="0 0 35 24" fill="none" xmlns="http://www.w3.org/2000/svg">
<rect width="35" height="24" rx="3.24812" fill="#00A0E9"/>
<path fill-rule="evenodd" clip-rule="evenodd" d="M27.9984 20H27.9986L27.9986 16.3948C27.8891 16.3819 27.04 16.258 24.0106 15.2443C23.4243 15.0479 22.7087 14.7842 21.9098 14.4898C21.4711 14.3282 21.0073 14.1573 20.5261 13.9832C21.342 12.5662 21.9919 10.9521 22.4199 9.19842H17.9467V7.5865H23.4269V6.68676H17.9467V4.00001H15.7092C15.3167 4.00001 15.3167 4.38734 15.3167 4.38734V6.68684H9.77328V7.58635H15.3167V9.19842H10.7398V10.0973H19.616C19.2914 11.2165 18.8555 12.2677 18.3374 13.2221C15.4571 12.2716 12.384 11.5009 10.453 11.9754C9.21856 12.2795 8.42322 12.8229 7.95569 13.3917C5.81142 16.0006 7.34925 19.964 11.8778 19.964C14.5559 19.964 17.1352 18.471 19.135 16.01C22.0991 17.4353 27.9308 19.8679 27.9984 19.896V20ZM27.9986 4.62035C27.9982 4.40883 27.9798 4.20156 27.9447 4H27.9986V4.62035ZM10.8382 13.3217C11.0331 13.3025 11.2287 13.2917 11.4245 13.2895C13.3036 13.2677 15.0926 14.0198 17.1698 15.0333C15.5586 17.1347 13.5077 18.4469 11.455 18.4469C7.9239 18.4469 6.87969 15.6654 8.62434 14.1438C9.20642 13.6289 10.2711 13.3787 10.8382 13.3217Z" fill="white"/>
</svg>
