<svg xmlns="http://www.w3.org/2000/svg" width="35" height="24" viewBox="0 0 35 24">
    <g fill="none" fill-rule="evenodd">
        <path fill="#007ECD" d="M0 3.25C0 1.454 1.46 0 3.246 0h28.508C33.547 0 35 1.447 35 3.25v17.5c0 1.795-1.46 3.25-3.246 3.25H3.246C1.453 24 0 22.553 0 20.75V3.25z"/>
        <path fill="#FFF" d="M30.118 16.31h-1.505v-.744h1.313s.48.055.48-.255c0-.29-.717-.268-.717-.268s-1.167.098-1.167-.96c0-1.055 1.054-.994 1.054-.994h1.62v.753h-1.304s-.45-.088-.45.23c0 .266.614.228.614.228s1.29-.092 1.29.88c0 1.04-.83 1.133-1.126 1.133-.063 0-.102-.004-.102-.004zm-7.51.004v-3.22h2.638v.748H23.46v.496h1.743v.732h-1.743v.546h1.787v.698h-2.638zm4.528-.005H25.63v-.743h1.32s.473.055.473-.255c0-.29-.716-.268-.716-.268s-1.167.098-1.167-.96c0-1.055 1.054-.994 1.054-.994h1.625v.753H26.91s-.452-.088-.452.23c0 .266.614.228.614.228s1.292-.092 1.292.88c0 1.04-.832 1.133-1.127 1.133-.064 0-.102-.004-.102-.004zm-11.406.006h-.739l-.896-.956-.902.956h-3.146v-3.232h3.078l.97 1.027.975-1.021h.649v-.006h2.052s1.071-.114 1.071.95c0 .95-.356 1.245-1.449 1.245h-.829v1.037h-.834zm-1.06-1.588l1.049 1.124v-2.244l-1.049 1.12zm-3.772.89h1.782l.834-.89-.834-.885h-1.782v.496h1.737v.732h-1.737v.546zm5.666-1.18h.874c.254 0 .463-.137.463-.306 0-.169-.209-.306-.463-.306h-.874v.611zm4.804 1.883v-.628s-.034-.491-.565-.491h-.822v1.119h-.846v-3.226h2.053s1.07-.125 1.07.944c0 .557-.473.754-.473.754s.406.185.406.73v.798h-.823zm-1.387-1.878h.874c.254 0 .462-.136.462-.305 0-.17-.208-.306-.462-.306h-.874v.611zm-.637-2.538h.85V8.668h-.85v3.236zm-6.552-.01V8.667h2.64v.753h-1.788v.496h1.742v.732h-1.742v.546h1.787v.698h-2.639zm-1.324 0V9.666l-1.06 2.228h-.694L8.65 9.677v2.217H6.98l-.294-.677H5.142l-.299.677h-.925l1.404-3.227h1.19l1.285 2.964V8.667h1.337l.93 2.004.924-2.004h1.336v3.227h-.856zm-5.965-1.502h.823l-.412-.96-.411.96zm22.58 1.502L26.74 9.737v2.157h-1.657l-.3-.677H23.24l-.294.677h-1.325s-1.138-.159-1.138-1.523c0-1.79 1.291-1.72 1.336-1.73l1.043.026v.726l-.857.011s-.558 0-.626.705c-.008.08-.012.155-.01.224.002 1.09.976.752 1.009.742l1.048-2.408h1.183l1.269 2.926V8.667h1.195l1.325 2.124V8.667h.852v3.227h-1.168zM23.6 10.392h.823l-.406-.96-.417.96zm-5.498 1.502v-.628s-.033-.491-.563-.491h-.823v1.119h-.846V8.667h2.052s1.071-.125 1.071.945c0 .557-.473.753-.473.753s.411.186.411.731v.798h-.829zm-1.386-1.878h.873c.254 0 .463-.137.463-.306 0-.17-.209-.306-.463-.306h-.873v.612z"/>
    </g>
</svg>
