<svg width="35" height="24" viewBox="0 0 35 24" fill="none" xmlns="http://www.w3.org/2000/svg">
<rect x="0.5" y="0.5" width="34" height="23" rx="2.75" fill="white"/>
<path d="M17.227 8.97261C18.0388 8.97261 18.9627 9.66646 18.9627 10.6247C18.9627 11.1648 18.7878 11.5819 18.5304 11.9628C18.3656 12.2057 18.24 12.4849 18.1881 12.6875C18.1322 12.916 18.01 13.469 18.6967 13.4784C19.1434 13.4897 20.2428 13.1095 21.131 12.0518C21.8139 11.2048 22.2203 10.1307 22.2203 8.95872C22.2203 6.22026 19.9874 4 17.2267 4C14.4659 4 12.2285 6.22111 12.2285 8.95927C12.2285 10.1313 12.6339 11.2051 13.3178 12.0525C14.2074 13.1069 15.3062 13.49 15.7521 13.479C16.4388 13.4699 16.3146 12.9165 16.2613 12.6881C16.2109 12.4858 16.0843 12.2062 15.9154 11.9633C15.6561 11.5825 15.4832 11.1653 15.4832 10.6253C15.4852 9.66701 16.4054 8.97316 17.2238 8.97316L17.227 8.97261ZM26.0571 13.9847C25.8554 13.8178 25.4934 13.5743 24.7563 13.4625C23.7332 13.3121 22.8203 13.5482 22.2707 13.7633C21.5482 14.0448 20.6581 14.685 20.0431 15.519C19.3947 16.4001 19.0587 17.7305 19.3803 19.1167C19.4713 19.5069 19.5696 19.7269 19.7165 20.0004C19.9088 20.3694 20.4151 20.8915 20.8586 20.9851C21.209 21.0561 21.4828 20.858 21.6171 20.7082L26.2629 15.2384C26.6231 14.7375 26.388 14.2565 26.0568 13.9855L26.0571 13.9847ZM12.1746 13.7636C11.6247 13.5488 10.7129 13.3096 9.68959 13.4628C8.95243 13.5749 8.5902 13.8184 8.3879 13.985C8.05649 14.256 7.81961 14.7369 8.18185 15.2378C8.54668 15.7418 11.9317 19.6885 12.8253 20.7076C12.9596 20.8574 13.2334 21.0558 13.5843 20.9845C14.0305 20.8909 14.5354 20.3716 14.7264 19.9999C14.8828 19.7233 14.997 19.4255 15.0653 19.1162C15.3863 17.7297 15.0452 16.3996 14.4025 15.5185C13.787 14.6842 12.8953 14.0442 12.174 13.7628" fill="#007DBA"/>
<rect x="0.5" y="0.5" width="34" height="23" rx="2.75" stroke="#F6F7F8"/>
</svg>
