<svg width="35" height="24" viewBox="0 0 35 24" fill="none" xmlns="http://www.w3.org/2000/svg">
<path d="M0 3.25C0 1.45508 1.45507 0 3.25 0H31.75C33.5449 0 35 1.45507 35 3.25V20.75C35 22.5449 33.5449 24 31.75 24H3.25C1.45507 24 0 22.5449 0 20.75V3.25Z" fill="white"/>
<g clip-path="url(#clip0_1247_49429)">
<path d="M31.8656 1H3.13441C3.01475 1 2.89488 1 2.77543 1.0007C2.67446 1.00142 2.57372 1.00254 2.47299 1.00529C2.25329 1.01123 2.0317 1.02419 1.81475 1.06318C1.59433 1.10285 1.38922 1.16756 1.18912 1.26943C0.99241 1.36947 0.812315 1.50032 0.656243 1.65646C0.500104 1.81259 0.369256 1.99239 0.269239 2.18932C0.167339 2.38942 0.102592 2.59459 0.0631984 2.81518C0.023997 3.03219 0.0109482 3.25373 0.00502752 3.4732C0.00232091 3.57394 0.00116003 3.67467 0.000502413 3.77539C-0.000195383 3.89509 3.72158e-05 4.01471 3.72158e-05 4.13463V20.2723C3.72158e-05 20.3922 -0.000195383 20.5116 0.000502413 20.6316C0.00116003 20.7323 0.00232091 20.833 0.00502752 20.9337C0.0109482 21.153 0.023997 21.3746 0.0631984 21.5915C0.102592 21.8122 0.167339 22.0173 0.269239 22.2174C0.369256 22.4143 0.500104 22.5943 0.656243 22.7502C0.812315 22.9066 0.99241 23.0375 1.18912 23.1373C1.38922 23.2394 1.59433 23.3041 1.81475 23.3438C2.0317 23.3825 2.25329 23.3957 2.47299 23.4017C2.57372 23.4039 2.67446 23.4053 2.77543 23.4058C2.89488 23.4067 3.01475 23.4067 3.13441 23.4067H31.8656C31.9851 23.4067 32.105 23.4067 32.2244 23.4058C32.3251 23.4053 32.4259 23.4039 32.5271 23.4017C32.7463 23.3957 32.9678 23.3825 33.1853 23.3438C33.4054 23.3041 33.6106 23.2394 33.8107 23.1373C34.0076 23.0375 34.1872 22.9066 34.3436 22.7502C34.4995 22.5943 34.6303 22.4143 34.7306 22.2174C34.8327 22.0173 34.8974 21.8122 34.9366 21.5915C34.9758 21.3746 34.9886 21.153 34.9945 20.9337C34.9973 20.833 34.9986 20.7323 34.9991 20.6316C35 20.5116 35 20.3922 35 20.2723V4.13463C35 4.01471 35 3.89509 34.9991 3.77539C34.9986 3.67467 34.9973 3.57394 34.9945 3.4732C34.9886 3.25373 34.9758 3.03219 34.9366 2.81518C34.8974 2.59459 34.8327 2.38942 34.7306 2.18932C34.6303 1.99239 34.4995 1.81259 34.3436 1.65646C34.1872 1.50032 34.0076 1.36947 33.8107 1.26943C33.6106 1.16756 33.4054 1.10285 33.1853 1.06318C32.9678 1.02419 32.7463 1.01123 32.5271 1.00529C32.4259 1.00254 32.3251 1.00142 32.2244 1.0007C32.105 1 31.9851 1 31.8656 1Z" fill="black"/>
<path d="M31.8648 1.74707L32.2183 1.74775C32.314 1.74842 32.4098 1.74946 32.5061 1.75208C32.6735 1.75661 32.8694 1.76568 33.0521 1.79841C33.2108 1.827 33.3439 1.87047 33.4717 1.93552C33.5978 1.99961 33.7134 2.0836 33.8143 2.18436C33.9156 2.28579 33.9997 2.40154 34.0646 2.52907C34.1293 2.65583 34.1725 2.78833 34.2009 2.94823C34.2335 3.12886 34.2426 3.3253 34.2472 3.4938C34.2497 3.58891 34.251 3.68403 34.2515 3.7814C34.2524 3.89916 34.2524 4.01685 34.2524 4.13485V20.2725C34.2524 20.3905 34.2524 20.508 34.2515 20.6283C34.251 20.7233 34.2497 20.8185 34.2471 20.9137C34.2426 21.082 34.2335 21.2783 34.2005 21.4611C34.1725 21.6188 34.1293 21.7513 34.0643 21.8787C33.9995 22.0059 33.9155 22.1215 33.8147 22.2223C33.7132 22.3238 33.598 22.4076 33.4704 22.4723C33.3436 22.537 33.2107 22.5804 33.0535 22.6087C32.8672 22.6419 32.6631 22.651 32.5094 22.6552C32.4127 22.6574 32.3164 22.6587 32.2178 22.6592C32.1003 22.6601 31.9824 22.6601 31.8648 22.6601H3.13364C3.13207 22.6601 3.13055 22.6601 3.12896 22.6601C3.01279 22.6601 2.89638 22.6601 2.7781 22.6591C2.68165 22.6587 2.58542 22.6574 2.49238 22.6553C2.33515 22.651 2.1309 22.6419 1.94611 22.6089C1.78759 22.5804 1.65469 22.537 1.52621 22.4714C1.39978 22.4073 1.28469 22.3236 1.18317 22.222C1.08243 22.1214 0.998717 22.0061 0.933991 21.8787C0.869202 21.7515 0.825854 21.6185 0.797352 21.459C0.764406 21.2766 0.755355 21.081 0.750832 20.9139C0.748251 20.8182 0.747172 20.7225 0.746559 20.6274L0.746094 20.3466L0.746115 20.2725V4.13485L0.746094 4.06071L0.746538 3.78051C0.747172 3.68483 0.748251 3.58917 0.750832 3.49357C0.755355 3.32629 0.764406 3.13065 0.797625 2.94673C0.825875 2.78858 0.869202 2.65566 0.93433 2.52776C0.998548 2.40133 1.08241 2.28592 1.18368 2.18467C1.28454 2.08377 1.40001 1.99988 1.52725 1.93518C1.65435 1.87045 1.7875 1.827 1.94603 1.79847C2.12868 1.76566 2.32472 1.75661 2.49261 1.75206C2.58832 1.74946 2.68402 1.74842 2.77901 1.74777L3.13364 1.74707H31.8648" fill="white"/>
<path d="M9.55523 8.53648C9.85491 8.16164 10.0583 7.65835 10.0046 7.14404C9.56594 7.16586 9.03061 7.43346 8.72067 7.80859C8.44239 8.12983 8.19608 8.6542 8.26029 9.14694C8.75274 9.18966 9.24474 8.90079 9.55523 8.53648Z" fill="black"/>
<path d="M9.99868 9.24309C9.28352 9.20049 8.67546 9.64897 8.33394 9.64897C7.99223 9.64897 7.46924 9.26455 6.90359 9.27492C6.16736 9.28573 5.48422 9.702 5.11061 10.3641C4.34217 11.6885 4.90782 13.6532 5.65509 14.7319C6.01798 15.2655 6.45533 15.8531 7.0316 15.832C7.57608 15.8107 7.7895 15.4795 8.45133 15.4795C9.11269 15.4795 9.30493 15.832 9.88129 15.8213C10.479 15.8107 10.8527 15.2874 11.2156 14.7532C11.6319 14.1449 11.8023 13.5575 11.813 13.5252C11.8023 13.5145 10.6605 13.0765 10.6499 11.7631C10.6391 10.6633 11.5463 10.1402 11.589 10.1077C11.0767 9.34999 10.2762 9.26455 9.99868 9.24309Z" fill="black"/>
<path d="M16.2261 7.75488C17.7804 7.75488 18.8628 8.82634 18.8628 10.3863C18.8628 11.9518 17.7582 13.0288 16.1871 13.0288H14.4661V15.7657H13.2227V7.75488H16.2261V7.75488ZM14.4661 11.9851H15.8928C16.9754 11.9851 17.5916 11.4023 17.5916 10.3919C17.5916 9.38155 16.9754 8.80417 15.8984 8.80417H14.4661V11.9851Z" fill="black"/>
<path d="M19.1875 14.1056C19.1875 13.0841 19.9703 12.4568 21.3582 12.3791L22.957 12.2847V11.8351C22.957 11.1855 22.5184 10.7969 21.7857 10.7969C21.0916 10.7969 20.6586 11.13 20.5532 11.6519H19.4207C19.4873 10.597 20.3866 9.81982 21.83 9.81982C23.2456 9.81982 24.1505 10.5693 24.1505 11.7406V15.7655H23.0013V14.8051H22.9737C22.6351 15.4546 21.8966 15.8654 21.1306 15.8654C19.987 15.8654 19.1875 15.1548 19.1875 14.1056ZM22.957 13.5783V13.1175L21.5191 13.2063C20.8029 13.2563 20.3977 13.5727 20.3977 14.0723C20.3977 14.583 20.8196 14.9161 21.4636 14.9161C22.3018 14.9161 22.957 14.3387 22.957 13.5783Z" fill="black"/>
<path d="M25.2356 17.914V16.9424C25.3242 16.9646 25.5241 16.9646 25.6241 16.9646C26.1792 16.9646 26.479 16.7315 26.6621 16.1319C26.6621 16.1208 26.7677 15.7766 26.7677 15.7711L24.6582 9.92529H25.9571L27.434 14.6774H27.456L28.9329 9.92529H30.1986L28.0111 16.0708C27.5117 17.4865 26.9343 17.9417 25.7241 17.9417C25.6241 17.9417 25.3242 17.9305 25.2356 17.914Z" fill="black"/>
</g>
<defs>
<clipPath id="clip0_1247_49429">
<rect width="35" height="22.4067" fill="white" transform="translate(0 1)"/>
</clipPath>
</defs>
</svg>
