<svg width="35" height="24" viewBox="0 0 35 24" fill="none" xmlns="http://www.w3.org/2000/svg">
<path d="M0 3.25C0 1.45508 1.45507 0 3.25 0H31.75C33.5449 0 35 1.45507 35 3.25V20.75C35 22.5449 33.5449 24 31.75 24H3.25C1.45507 24 0 22.5449 0 20.75V3.25Z" fill="#00A0E9"/>
<rect x="0.5" y="0.5" width="34" height="23" rx="2.75" fill="#F0FF5F"/>
<g clip-path="url(#clip0_2618_8862)">
<mask id="mask0_2618_8862" style="mask-type:alpha" maskUnits="userSpaceOnUse" x="4" y="9" width="27" height="6">
<path d="M4 9H31V14.0987H4V9Z" fill="white"/>
</mask>
<g mask="url(#mask0_2618_8862)">
<path fill-rule="evenodd" clip-rule="evenodd" d="M18.5174 10.7248C18.0856 10.7248 17.7418 10.8916 17.5228 11.2072L17.4922 11.2514L17.4622 11.2068C17.2501 10.8915 16.92 10.7248 16.5079 10.7248C16.1134 10.7248 15.7924 10.8778 15.5794 11.1676L15.5506 11.2032L15.3738 10.8055L14.3823 10.8041L14.6484 11.4025V14.0179H15.6128V12.1625C15.6128 11.7639 15.8206 11.5257 16.1686 11.5257C16.5125 11.5257 16.7177 11.7639 16.7177 12.1625V14.0179H17.6821V12.1625C17.6821 11.7639 17.8899 11.5257 18.2378 11.5257C18.5816 11.5257 18.787 11.7639 18.787 12.1625V14.0179H19.7513V12.0278C19.7513 11.2361 19.267 10.7248 18.5174 10.7248ZM22.5871 12.0785L22.5779 12.0337C22.5031 11.6692 22.2335 11.4517 21.8565 11.4517C21.4753 11.4517 21.2032 11.6692 21.1285 12.0336L21.1194 12.0785H22.5871ZM23.4233 11.9647V12.7719H21.1414L21.1559 12.8201C21.2294 13.0615 21.4034 13.2291 21.6592 13.3122C21.871 13.3743 22.1551 13.3714 22.3677 13.3057C22.5607 13.2459 22.6744 13.1815 22.6744 13.1815L23.177 13.7525C22.8579 13.9696 22.428 14.0987 22.0228 14.0987C20.9505 14.0987 20.23 13.4207 20.23 12.4117C20.23 11.4343 20.914 10.7248 21.8565 10.7248C22.6712 10.7248 23.242 11.1765 23.4233 11.9647ZM13.1415 12.4116C13.1415 11.9491 12.8154 11.6133 12.3662 11.6133C11.9169 11.6133 11.5908 11.9491 11.5908 12.4117C11.5908 12.8744 11.9169 13.2101 12.3662 13.2101C12.8154 13.2101 13.1415 12.8744 13.1415 12.4117V12.4116ZM14.1058 12.4116C14.1058 12.8888 13.9195 13.3234 13.5815 13.6352C13.2574 13.9341 12.8258 14.0987 12.3662 14.0987C11.9065 14.0987 11.475 13.9341 11.1508 13.6352C10.8126 13.3234 10.6265 12.8888 10.6265 12.4117C10.6265 11.9345 10.8128 11.4999 11.1508 11.1881C11.475 10.8893 11.9065 10.7248 12.3662 10.7248C12.8258 10.7248 13.2572 10.8893 13.5815 11.1881C13.9197 11.4999 14.1058 11.9346 14.1058 12.4117V12.4116ZM9.48181 10.0109H8.51737V10.8056H8.05837V11.6067H8.51737V12.9574C8.51737 13.7008 8.86459 14.0181 9.67837 14.0181H10.1405V13.216L9.86454 13.2117C9.60345 13.2117 9.48181 13.0731 9.48181 12.7753V11.6064H10.1534L10.5065 10.8054H9.48181V10.0107V10.0109ZM6.51505 12.378C6.49453 11.9342 6.16851 11.6133 5.73975 11.6133C5.29046 11.6133 4.96431 11.9491 4.96431 12.4117C4.96431 12.8744 5.29046 13.2101 5.73975 13.2101C6.16878 13.2101 6.4948 12.8892 6.51505 12.4471V12.378ZM7.47936 13.3192L7.66755 14.0179H6.79896L6.6757 13.5704L6.63102 13.6188C6.34482 13.9283 5.95737 14.0987 5.54022 14.0987C5.13441 14.0987 4.7529 13.9347 4.46616 13.6368C4.16551 13.3247 4 12.8896 4 12.4117C4 11.9338 4.16551 11.4987 4.46616 11.1866C4.7529 10.8888 5.13441 10.7248 5.54008 10.7248C5.93793 10.7248 6.30904 10.8787 6.58525 11.1582L6.64816 11.222V10.8055H7.47936V13.3192ZM31 14.0545H29.9181L29.3002 13.0181C28.8873 13.303 28.4578 13.4464 28.0142 13.4464C27.9967 13.4464 27.9791 13.4462 27.9616 13.4457C27.4807 13.4335 27.0503 13.2506 26.6836 13.0014L26.0559 14.0545H24.9739L27.9871 9L29.1483 10.9456C29.1483 10.9456 29.0059 11.0693 28.83 11.1889C28.7019 11.2758 28.4116 11.4623 28.1608 11.1028L27.9869 10.8151L27.163 12.1972C27.4156 12.3758 27.6963 12.5015 27.9871 12.5084C28.4839 12.52 28.9888 12.1929 29.4929 11.5349H30.6197C30.4192 11.857 30.2131 12.1387 30.0017 12.3799L31 14.0544V14.0545Z" fill="black"/>
</g>
</g>
<rect x="0.5" y="0.5" width="34" height="23" rx="2.75" stroke="#F0FF5F"/>
<defs>
<clipPath id="clip0_2618_8862">
<rect width="27" height="5.13" fill="white" transform="translate(4 9)"/>
</clipPath>
</defs>
</svg>
