<svg width="35" height="24" fill="none" xmlns="http://www.w3.org/2000/svg"><rect x=".416667" y=".416667" width="34.1667" height="23.1667" rx="2.2901" fill="#fff" stroke="#F6F7F8" stroke-width=".833333"/><path d="M6.60262 11.2179C5.17791 12.6426 4 13.8542 4 13.9103c0 .0448.29167.0785.65066.0785.59456 0 .6843-.0337 1.03207-.3927l.38142-.3926H12.1444l.46.3926.4599.3927h3.8815l-.3029-.3141-.3029-.3141.617-.6058.617-.6058.9311.9199.9311.9311 5.2165-.0337c4.577-.0336 5.2501-.056 5.6203-.2243.4487-.2019.8189-.7629.7067-1.0994-.1121-.359-1.2003-1.2564-2.2212-1.851-.5384-.3141-1.2115-.718-1.5032-.89746l-.5385-.33654 1.8286-.03366 1.8173-.02243v-.90868l-4.0834.02244-4.0722.01122L21.1526 9.681l-1.0545 1.0545-1.0657-1.06572-1.077-1.07695-1.8846.03366-1.8847.03365 1.2789 1.33497c.6955.72919 1.2789 1.39109 1.3013 1.45839.0112.0673-.2244.3814-.5385.6843l-.5609.5609-2.0529-2.0529-2.0417-2.04175H9.21646L6.60262 11.2179zM22.9251 9.79318c-.0112.32532.0561.47112.3141.68432.2917.2356 2.569 1.7612 3.4552 2.3109.1683.1122.3029.2468.3029.3029 0 .0673-.7516.1122-1.952.1122-1.6715 0-1.9632.0224-1.9968.1683-.0224.1122-.3927-.1907-1.0994-.8863l-1.0545-1.0769.9423-.9872c.5273-.54969.9872-1.00964 1.0321-1.02086.0337 0 .0673.16828.0561.39264zM10.2037 11.1618c.5384.5385.9759 1.0209.9759 1.0657 0 .0449-.9086.0786-2.01923.0786-1.1106 0-2.01928-.0337-2.01928-.0786 0-.1009 1.92953-2.0529 2.01928-2.0529.03365 0 .50482.4375 1.04333.9872z" fill="#000"/></svg>