<svg width="35" height="24" viewBox="0 0 35 24" fill="none" xmlns="http://www.w3.org/2000/svg">
<path d="M0 3.25C0 1.45508 1.45507 0 3.25 0H31.75C33.5449 0 35 1.45507 35 3.25V20.75C35 22.5449 33.5449 24 31.75 24H3.25C1.45507 24 0 22.5449 0 20.75V3.25Z" fill="white"/>
<path d="M10.65 10.7511C10.7669 11.76 9.81008 12.7428 8.82291 13.2667C9.76678 12.9896 11.9013 11.3616 10.8492 9.82891C9.79709 8.29619 8.11284 8.03208 8.11284 8.03208L8.03058 8.0061H7.8877C9.72782 8.66422 10.5375 9.78128 10.65 10.7511Z" fill="#DC0032"/>
<path d="M6.44238 13.7559C9.37792 13.4832 10.6509 11.6604 10.127 10.1753C9.60307 8.6902 7.49883 8.03208 7.49883 8.03208L7.45553 8.0061H6.72381C7.3343 8.1663 10.036 8.98894 9.81955 10.9113C9.57276 13.0848 7.69367 13.5221 6.44238 13.7559Z" fill="#DC0032"/>
<path d="M8.86616 11.0629C9.28181 8.74222 5.61889 8.0105 5.61889 8.0105H5.51497L4.49316 13.3837C5.61023 13.4096 8.45484 13.3707 8.86616 11.0629Z" fill="#DC0032"/>
<path d="M8.28207 8.0105C10.2607 8.30492 12.8023 10.552 10.5768 12.9204C8.49856 15.1372 4.77935 14.492 4.30308 14.3968L4 15.9988H8.4466C10.0226 15.9988 11.3778 14.7865 11.6766 13.2408L12.694 8.0105H8.28207Z" fill="#DC0032"/>
<path d="M16.4867 13.5915C15.9022 14.8254 15.3263 15.1545 14.482 15.2411C13.6378 15.3277 13.6767 14.3145 13.6767 14.3145C13.6421 13.6564 14.0188 12.3359 14.5816 11.76C15.1445 11.1842 15.5818 11.1235 16.084 11.2101C16.5863 11.2967 17.0755 12.3575 16.4867 13.5915ZM16.478 10.4654C15.0622 10.158 14.1703 11.4916 14.1703 11.4916L14.902 8.0105H13.9841L12.7502 14.2496C12.7502 14.2496 12.4557 15.9468 14.2656 15.9468C16.071 15.9468 16.7941 14.8947 17.305 13.8816C17.8202 12.8727 17.8939 10.7728 16.478 10.4654Z" fill="black"/>
<path d="M21.5436 13.3229C21.141 14.323 20.5045 15.2669 19.7381 15.1933C18.9674 15.1197 18.6773 14.2884 18.9544 13.115C19.2359 11.9417 20.3962 10.9632 21.9723 11.1797C21.9723 11.1797 21.9463 12.3227 21.5436 13.3229ZM23.0244 10.6991C23.0244 10.6991 22.6087 10.3787 21.483 10.3787C20.3573 10.3787 19.028 10.8896 18.2227 12.6388C17.4174 14.3836 18.2227 15.4617 18.6514 15.7042C19.08 15.9467 19.933 16.1805 20.5564 15.6046C21.1799 15.0288 21.4614 14.4789 21.4614 14.4789L21.4007 15.9423H22.2927C22.2927 15.9423 22.232 14.4139 22.3922 13.6086C22.5481 12.812 23.0244 10.6991 23.0244 10.6991Z" fill="black"/>
<path d="M27.4675 10.6384L27.173 11.3702C27.173 11.3702 26.4023 11.0627 25.7789 11.2359C25.1554 11.4091 24.2418 12.2491 24.1422 13.2709C24.0426 14.2927 24.2894 15.1413 25.242 15.1976C26.1945 15.2539 26.6232 14.8902 26.6232 14.8902L26.6838 15.6609C26.6838 15.6609 26.1469 15.9856 25.255 15.9683C24.363 15.951 23.1421 15.6089 23.1291 13.9853C23.1161 12.3617 23.8998 11.1104 25.1207 10.6428C26.3461 10.1708 27.4675 10.6384 27.4675 10.6384Z" fill="black"/>
<path d="M31.0001 10.6992L30.7187 11.3703C30.7187 11.3703 30.0692 11.0888 29.6795 11.1495C29.2899 11.2101 28.8742 11.3573 28.8612 11.9201C28.8482 12.483 30.0692 13.1758 30.0692 13.1758C30.0692 13.1758 30.6537 13.6953 30.5585 14.427C30.4589 15.1588 29.7055 15.9684 28.9348 15.9684C28.1642 15.9684 27.2246 15.622 27.2246 15.622L27.4671 14.8903C27.4671 14.8903 28.1771 15.254 28.7357 15.2497C29.2985 15.2453 29.6406 14.8427 29.6146 14.3664C29.5886 13.8901 29.1643 13.613 28.7487 13.3359C28.333 13.0588 27.8438 12.5826 27.9303 11.7989C28.0169 11.0152 28.9911 10.3225 29.8614 10.3831C30.7317 10.4437 31.0001 10.6992 31.0001 10.6992Z" fill="black"/>
<path d="M3.25 1H31.75V-1H3.25V1ZM34 3.25V20.75H36V3.25H34ZM31.75 23H3.25V25H31.75V23ZM1 20.75V3.25H-1V20.75H1ZM3.25 23C2.00736 23 1 21.9926 1 20.75H-1C-1 23.0972 0.902789 25 3.25 25V23ZM34 20.75C34 21.9926 32.9926 23 31.75 23V25C34.0972 25 36 23.0972 36 20.75H34ZM31.75 1C32.9926 1 34 2.00736 34 3.25H36C36 0.90279 34.0972 -1 31.75 -1V1ZM3.25 -1C0.90279 -1 -1 0.90279 -1 3.25H1C1 2.00736 2.00736 1 3.25 1V-1Z" fill="#F6F7F8"/>
</svg>
