<svg width="35" height="24" viewBox="0 0 35 24" fill="none" xmlns="http://www.w3.org/2000/svg">
<rect x="0.416667" y="0.416667" width="34.1667" height="23.1667" rx="2.2901" fill="white" stroke="#F6F7F8" stroke-width="0.833333"/>
<g clip-path="url(#clip0)">
<path d="M5.02637 19.9008V16.1934H6.17038C7.0019 16.1934 7.53684 16.5058 7.53684 17.152C7.53684 17.5174 7.36735 17.7717 7.12902 17.92C7.47327 18.0788 7.67453 18.386 7.67453 18.8044C7.67453 19.5512 7.12902 19.9008 6.2816 19.9008H5.02637ZM5.76256 17.7346H6.30809C6.64175 17.7346 6.78476 17.5704 6.78476 17.2685C6.78476 16.9454 6.52523 16.8395 6.17567 16.8395H5.76256L5.76256 17.7346ZM5.76256 19.2546H6.21804C6.66294 19.2546 6.92245 19.1434 6.92245 18.7939C6.92245 18.4496 6.70002 18.3066 6.2816 18.3066H5.76256L5.76256 19.2546ZM9.1022 19.9643C8.3766 19.9643 8.01114 19.6095 8.01114 19.1328C8.01114 18.6085 8.44016 18.3013 9.07572 18.296C9.23365 18.2989 9.39117 18.313 9.54709 18.3384V18.2113C9.54709 17.8882 9.36172 17.7346 9.00686 17.7346C8.76782 17.7316 8.53043 17.7748 8.30774 17.8617L8.17534 17.2897C8.40308 17.1944 8.76853 17.1308 9.09161 17.1308C9.87017 17.1308 10.2568 17.5439 10.2568 18.2589V19.7313C10.0396 19.8425 9.63183 19.9643 9.1022 19.9643H9.1022ZM9.54709 19.3659V18.7992C9.42361 18.7717 9.29755 18.7575 9.17106 18.7568C8.92741 18.7568 8.73675 18.8521 8.73675 19.1011C8.73675 19.3235 8.89564 19.44 9.17635 19.44C9.30399 19.4442 9.43087 19.4188 9.54709 19.3659H9.54709ZM10.7714 19.9008V17.3638C11.152 17.211 11.5582 17.1319 11.9684 17.1308C12.7416 17.1308 13.1865 17.5121 13.1865 18.2165V19.9008H12.4556V18.2695C12.4556 17.9041 12.2861 17.7346 11.963 17.7346C11.8026 17.7323 11.6436 17.7649 11.497 17.8299V19.9008L10.7714 19.9008ZM15.7407 17.2897L15.603 17.867C15.4138 17.785 15.2107 17.7401 15.0045 17.7346C14.5755 17.7346 14.3425 18.0365 14.3425 18.5343C14.3425 19.0799 14.5861 19.3606 15.0416 19.3606C15.2449 19.355 15.4449 19.3082 15.6295 19.2229L15.746 19.8108C15.5062 19.9175 15.2458 19.9699 14.9833 19.9643C14.1042 19.9643 13.5957 19.4188 13.5957 18.5555C13.5957 17.6975 14.0989 17.1308 14.941 17.1308C15.2155 17.1295 15.4875 17.1835 15.7407 17.2897L15.7407 17.2897ZM17.3197 19.9643C16.5041 19.9643 15.9956 19.3976 15.9956 18.5449C15.9956 17.6975 16.5041 17.1308 17.3197 17.1308C18.1406 17.1308 18.6385 17.6975 18.6385 18.5449C18.6385 19.3976 18.1406 19.9643 17.3197 19.9643ZM17.3197 19.3606C17.6957 19.3606 17.8917 19.0481 17.8917 18.5449C17.8917 18.0471 17.6957 17.7346 17.3197 17.7346C16.949 17.7346 16.7424 18.0471 16.7424 18.5449C16.7424 19.0481 16.949 19.3606 17.3197 19.3606ZM19.0614 19.9008V17.3638C19.442 17.211 19.8483 17.1319 20.2584 17.1308C21.0317 17.1308 21.4766 17.5121 21.4766 18.2165V19.9008H20.7457V18.2695C20.7457 17.9041 20.5762 17.7346 20.2531 17.7346C20.0927 17.7323 19.9337 17.7649 19.787 17.8299V19.9008L19.0614 19.9008ZM23.1249 19.9643C22.4947 19.9643 22.1716 19.6201 22.1716 18.921V17.777H21.8114V17.1944H22.1716V16.6065L22.9025 16.5694V17.1944H23.4904V17.777H22.9025V18.9104C22.9025 19.2176 23.0296 19.3606 23.2679 19.3606C23.3624 19.3603 23.4565 19.3497 23.5486 19.3288L23.5857 19.9167C23.4344 19.9502 23.2798 19.9662 23.1249 19.9643ZM24.9697 19.9643C24.2441 19.9643 23.8787 19.6095 23.8787 19.1328C23.8787 18.6085 24.3077 18.3013 24.9433 18.296C25.1012 18.2989 25.2587 18.313 25.4146 18.3384V18.2113C25.4146 17.8882 25.2293 17.7346 24.8744 17.7346C24.6354 17.7316 24.398 17.7748 24.1753 17.8617L24.0429 17.2897C24.2706 17.1944 24.6361 17.1308 24.9592 17.1308C25.7377 17.1308 26.1243 17.5439 26.1243 18.2589V19.7313C25.9072 19.8425 25.4994 19.9643 24.9697 19.9643ZM25.4146 19.3659V18.7992C25.2911 18.7717 25.1651 18.7575 25.0386 18.7568C24.795 18.7568 24.6043 18.8521 24.6043 19.1011C24.6043 19.3235 24.7632 19.44 25.0439 19.44C25.1715 19.4442 25.2984 19.4188 25.4146 19.3659ZM28.625 17.2897L28.4873 17.867C28.2981 17.785 28.0949 17.7401 27.8888 17.7346C27.4598 17.7346 27.2268 18.0365 27.2268 18.5343C27.2268 19.0799 27.4704 19.3606 27.9259 19.3606C28.1292 19.355 28.3292 19.3082 28.5138 19.2229L28.6303 19.8108C28.3905 19.9175 28.1301 19.9699 27.8676 19.9643C26.9884 19.9643 26.48 19.4188 26.48 18.5555C26.48 17.6975 26.9831 17.1308 27.8252 17.1308C28.0998 17.1295 28.3718 17.1835 28.625 17.2897ZM30.2319 19.9643C29.6017 19.9643 29.2786 19.6201 29.2786 18.921V17.777H28.9184V17.1944H29.2786V16.6065L30.0095 16.5694V17.1944H30.5974V17.777H30.0095V18.9104C30.0095 19.2176 30.1366 19.3606 30.3749 19.3606C30.4694 19.3603 30.5635 19.3497 30.6556 19.3288L30.6927 19.9167C30.5415 19.9502 30.3869 19.9662 30.2319 19.9643Z" fill="#1E3764"/>
<path d="M10.1245 14.3398C13.992 14.3398 15.9258 11.7615 17.8595 9.18311H5.02637V14.3398H10.1245Z" fill="url(#paint0_linear)"/>
<path d="M25.5947 4.02637C21.7271 4.02637 19.7934 6.60472 17.8596 9.18307H30.6928V4.02637H25.5947Z" fill="url(#paint1_linear)"/>
</g>
<defs>
<linearGradient id="paint0_linear" x1="7.62211" y1="11.9995" x2="17.0101" y2="8.51254" gradientUnits="userSpaceOnUse">
<stop stop-color="#005AB9"/>
<stop offset="1" stop-color="#1E3764"/>
</linearGradient>
<linearGradient id="paint1_linear" x1="18.6366" y1="9.63033" x2="28.6048" y2="6.22944" gradientUnits="userSpaceOnUse">
<stop stop-color="#FBA900"/>
<stop offset="1" stop-color="#FFD800"/>
</linearGradient>
<clipPath id="clip0">
<rect width="25.7325" height="16" fill="white" transform="translate(5 4)"/>
</clipPath>
</defs>
</svg>
