<svg width="35" height="24" viewBox="0 0 35 24" fill="none" xmlns="http://www.w3.org/2000/svg">
<path fill-rule="evenodd" clip-rule="evenodd" d="M27.6324 4.39676C28.0775 4.50813 28.3896 4.90806 28.3896 5.36684V9.53041C28.3896 10.0827 27.9419 10.5304 27.3896 10.5304H8.38965C7.83736 10.5304 7.38965 10.0827 7.38965 9.53041V5.36684C7.38965 4.90806 7.70183 4.50813 8.14689 4.39676L16.9186 2.20168C17.5561 2.04215 18.2232 2.04215 18.8607 2.20168L27.6324 4.39676ZM8.70215 19.0617V11.8429H11.3271V19.0617H8.70215ZM13.9521 11.8429H16.5771V19.0617H13.9521V11.8429ZM21.8271 11.8429H19.2021V19.0617H21.8271V11.8429ZM24.4521 19.0617V11.8429H27.0771V19.0617H24.4521ZM8.70215 20.3742C7.97727 20.3742 7.38965 20.9618 7.38965 21.6867C7.38965 22.4115 7.97727 22.9992 8.70215 22.9992H27.0771C27.802 22.9992 28.3896 22.4115 28.3896 21.6867C28.3896 20.9618 27.802 20.3742 27.0771 20.3742H8.70215ZM25.7646 6.6353V7.90541H10.0146V6.6353L16.9186 4.90763C17.5561 4.74809 18.2232 4.74809 18.8607 4.90763L25.7646 6.6353Z" fill="#6C747F"/>
</svg>
