<svg width="35" height="24" viewBox="0 0 35 24" fill="none" xmlns="http://www.w3.org/2000/svg">
<rect width="35" height="24" rx="2.70677" fill="#B2D235"/>
<path fill-rule="evenodd" clip-rule="evenodd" d="M17.1686 5.12791C14.1037 6.23838 11.8294 9.02789 11.3142 12.4304C10.719 16.6946 13.5085 20.026 17.8437 19.9816C18.7943 19.9727 20.8642 19.7684 21.8148 19.3597L22.7565 13.7363C21.7704 14.5625 20.6866 15.1577 19.4251 15.1666C17.7993 15.1843 16.6089 13.8784 16.8221 12.2438C17.0797 10.6092 18.5989 9.28552 20.2335 9.26775C21.4506 9.25887 22.4544 9.96957 23.2273 10.778L24.018 5.06573C24.018 5.06573 21.6815 4.55047 20.1713 4.62154C18.9898 4.66596 17.1686 5.12791 17.1686 5.12791Z" fill="white"/>
<path fill-rule="evenodd" clip-rule="evenodd" d="M20.1809 4.63949C21.6023 4.57731 23.7877 5.03926 24.0009 5.08368C23.992 5.1281 23.228 10.6449 23.2191 10.7338C22.2419 9.72101 21.2647 9.2324 20.243 9.24129C18.6084 9.25905 17.0715 10.6005 16.8139 12.2351C16.7162 13.0258 16.9294 13.7631 17.418 14.3139C17.9155 14.8736 18.6351 15.1845 19.4346 15.1756C20.5362 15.1668 21.5934 14.7137 22.7305 13.772C22.7127 13.8875 21.8066 19.3066 21.7977 19.3244C20.8294 19.7419 18.7506 19.9373 17.8444 19.9462C15.7923 19.964 13.9978 19.2178 12.7896 17.8408C11.7946 16.7037 11.2615 15.2289 11.2527 13.6032C11.2527 13.2123 11.2793 12.8214 11.3326 12.4217C11.839 9.05473 14.0777 6.26522 17.1693 5.13698C17.2137 5.13698 19.0171 4.68391 20.1809 4.63949ZM20.1809 4.59507C19.0082 4.64838 17.187 5.10145 17.1693 5.10145C14.0599 6.22969 11.8123 9.03696 11.306 12.4217C11.0039 14.5271 11.5192 16.4727 12.7629 17.8852C13.98 19.2711 15.7834 20.0173 17.8533 19.9995C18.7683 19.9907 20.8649 19.7952 21.8332 19.3688L21.8421 19.3599L22.7927 13.6654L22.7483 13.7098C21.5934 14.6693 20.5451 15.1312 19.4346 15.1401C18.644 15.149 17.9421 14.8469 17.4447 14.2962C16.956 13.7454 16.7517 13.0258 16.8494 12.2529C17.0982 10.636 18.6173 9.31236 20.2342 9.29459C21.2647 9.2857 22.233 9.7832 23.2102 10.8048L23.2369 10.8404L24.0364 5.05703L24.0098 5.04815C24.0098 5.03926 21.6733 4.53289 20.1809 4.59507Z" fill="white"/>
<path fill-rule="evenodd" clip-rule="evenodd" d="M16.7516 4.84389C13.6867 5.96324 11.4124 8.74386 10.8972 12.1463C10.302 16.4106 13.0915 19.742 17.4268 19.6976C18.3773 19.6887 20.4561 19.4843 21.3978 19.0668L22.3395 13.4434C21.3534 14.2696 20.2784 14.8648 19.0081 14.8737C17.3823 14.8914 16.1919 13.5855 16.4051 11.9509C16.6628 10.3163 18.1908 8.99261 19.8165 8.97484C21.0336 8.95707 22.0374 9.67666 22.8103 10.4851L23.601 4.77282C23.601 4.77282 21.4067 4.1776 19.9764 4.21314C18.706 4.26644 16.7516 4.84389 16.7516 4.84389Z" fill="#ED1D24"/>
<path fill-rule="evenodd" clip-rule="evenodd" d="M13.8728 5.71439L13.5264 8.16632L14.6635 8.15743L15.0011 5.70551L13.8728 5.71439Z" fill="black"/>
<path fill-rule="evenodd" clip-rule="evenodd" d="M15.1261 4.93296C15.2149 4.61315 14.984 4.39105 14.6286 4.39105C14.2644 4.39105 13.9534 4.62203 13.909 4.94185C13.8646 5.3505 14.14 5.52818 14.4598 5.52818C14.7707 5.51929 15.0817 5.34162 15.1261 4.93296Z" fill="black"/>
<path fill-rule="evenodd" clip-rule="evenodd" d="M10.7818 4.70161L10.2754 8.14852L11.9011 8.13075C12.4875 8.13075 13.1626 7.89089 13.2515 7.21572C13.2959 6.76265 13.1093 6.49613 12.7895 6.35399C13.1004 6.26516 13.2781 5.94534 13.3225 5.66994C13.4025 4.85264 12.7717 4.67496 12.141 4.68384L10.7818 4.70161ZM11.7945 6.05194H11.7057L11.7412 5.55445H11.8301C12.0077 5.55445 12.2387 5.51003 12.1943 5.77655C12.1588 5.99864 11.9722 6.05194 11.7945 6.05194ZM11.4925 7.32232L11.5724 6.78041H11.7057C11.8834 6.78041 12.2032 6.78041 12.1588 7.04693C12.1143 7.32232 11.8478 7.32232 11.6168 7.32232H11.4925Z" fill="black"/>
<path fill-rule="evenodd" clip-rule="evenodd" d="M17.8706 7.98898L18.2082 5.6792L17.08 5.68809V6.05232H17.0356C16.9379 5.78581 16.7158 5.64367 16.4404 5.65255C15.7652 5.66144 15.321 6.30107 15.2322 6.93181C15.1433 7.51814 15.4187 8.20219 16.0584 8.19331C16.3338 8.19331 16.6447 8.05117 16.8224 7.77577L16.7779 7.99787C16.7335 8.31768 16.5114 8.54866 16.2005 8.54866C15.9251 8.54866 15.6053 8.45982 15.4276 8.28215L15.0723 9.09945L15.1611 9.14387C15.4809 9.27713 15.7563 9.32155 16.1117 9.32155C16.929 9.31266 17.7374 8.93954 17.8706 7.98898ZM16.6447 7.23386C16.4581 7.23386 16.3249 7.10061 16.3693 6.92293C16.4137 6.73637 16.547 6.5587 16.7246 6.5587C16.9023 6.5587 17 6.73637 16.9556 6.92293C16.9556 7.09172 16.8224 7.22498 16.6447 7.23386Z" fill="black"/>
<path fill-rule="evenodd" clip-rule="evenodd" d="M13.5973 5.32376L13.2598 7.77569L14.3436 7.76681L14.6812 5.31488L13.5973 5.32376Z" fill="#FFDD00"/>
<path fill-rule="evenodd" clip-rule="evenodd" d="M14.8503 4.54179C14.8947 4.22197 14.6637 3.99988 14.2995 3.99988C13.9352 3.99988 13.6687 4.23086 13.6243 4.55067C13.5355 4.95933 13.8109 5.137 14.1307 5.137C14.4949 5.137 14.8147 4.95044 14.8503 4.54179Z" fill="#FFDD00"/>
<path fill-rule="evenodd" clip-rule="evenodd" d="M10.4708 4.31095L10 7.75785L11.6257 7.74008C12.2121 7.74008 12.8428 7.50022 12.9761 6.82506C13.0205 6.37199 12.8339 6.10547 12.4697 5.97222C12.7806 5.88338 12.9583 5.56356 13.0027 5.24375C13.136 4.47086 12.4963 4.29319 11.8656 4.30207L10.4708 4.31095ZM11.5191 5.66128H11.3859L11.4747 5.16379H11.5635C11.7412 5.16379 11.9722 5.11049 11.9278 5.38589C11.8834 5.60798 11.6968 5.66128 11.5191 5.66128ZM11.2171 6.93166L11.3059 6.38975H11.4392C11.6257 6.38975 11.9367 6.38087 11.8922 6.65627C11.8478 6.93166 11.5369 6.93166 11.3503 6.93166H11.2171Z" fill="#FFDD00"/>
<path fill-rule="evenodd" clip-rule="evenodd" d="M16.3698 6.84263C16.1388 6.84263 16.05 6.70937 16.0944 6.5317C16.0944 6.34514 16.2721 6.16746 16.4497 6.16746C16.6274 6.16746 16.7251 6.34514 16.6807 6.5317C16.6363 6.70049 16.5475 6.83374 16.3698 6.84263ZM17.5957 7.59775L17.8889 5.28797L16.8051 5.29685V5.66109H16.7607C16.6274 5.39457 16.4408 5.25243 16.1299 5.26132C15.4992 5.26132 15.0461 5.90095 14.9661 6.54058C14.8862 7.12691 15.1616 7.81096 15.7923 7.80207C16.0677 7.80207 16.3787 7.65993 16.5119 7.38454H16.5563L16.5119 7.61551C16.4675 7.93533 16.201 8.16631 15.8812 8.16631C15.6058 8.16631 15.3393 8.07747 15.1083 7.89979L14.7529 8.7171L14.8951 8.75264C15.206 8.84147 15.4814 8.93031 15.8456 8.92143C16.6541 8.92143 17.4625 8.54831 17.5957 7.59775Z" fill="#FFDD00"/>
</svg>
