<svg width="35" height="24" viewBox="0 0 35 24" fill="none" xmlns="http://www.w3.org/2000/svg">
<rect width="35" height="24" rx="2.70677" fill="#002855"/>
<path d="M30.9526 9.20114H29.5585L28.753 12.6113L28.6291 13.0764C28.5362 13.1074 28.4742 13.1074 28.3813 13.1384C28.2264 13.1694 28.1025 13.1694 27.9476 13.1694C27.7617 13.1694 27.6378 13.1384 27.5138 13.0764C27.4209 13.0144 27.328 12.9524 27.297 12.8594C27.266 12.7664 27.235 12.6424 27.235 12.5183C27.235 12.3943 27.266 12.2393 27.297 12.1153L27.7307 10.3482L28.0095 9.17013H26.5844L25.9339 11.8983C25.8409 12.2393 25.8099 12.5493 25.8099 12.8284C25.8099 13.1384 25.8409 13.3864 25.9339 13.6034C26.0268 13.8204 26.2127 14.0064 26.4605 14.1304C26.7084 14.2544 27.0491 14.3165 27.4829 14.3165C27.7927 14.3165 28.0715 14.2855 28.2883 14.2234H28.3193C28.2574 14.5025 28.1334 14.7195 27.9166 14.9055C27.6997 15.0915 27.4209 15.1845 27.0182 15.1845C26.8633 15.1845 26.6774 15.1845 26.5535 15.1535L26.2746 16.3006C26.4605 16.3316 26.6774 16.3316 26.8942 16.3316C27.328 16.3316 27.6997 16.2696 28.0095 16.1766C28.3193 16.0836 28.5981 15.9286 28.846 15.7425C29.0628 15.5565 29.2797 15.3085 29.4346 14.9985C29.5895 14.6885 29.7134 14.3475 29.8064 13.9444L30.7668 9.88318L30.9526 9.20114ZM25.0974 12.1153C25.0045 12.4563 24.9735 12.8284 25.0045 13.2004C25.0354 13.5724 25.1903 14.0994 25.3143 14.3785H23.9511C23.7962 14.0994 23.7962 13.9754 23.7653 13.8824C23.5794 14.0374 23.3935 14.1304 23.1766 14.2234C22.9598 14.3165 22.7429 14.3785 22.4641 14.3785C22.1543 14.3785 21.8755 14.3165 21.6586 14.2234C21.4418 14.1304 21.2559 13.9754 21.101 13.7894C20.9461 13.6034 20.8531 13.3864 20.7912 13.1384C20.7292 12.8904 20.6982 12.6424 20.6982 12.3323C20.6982 11.8983 20.7912 11.4953 20.9151 11.1233C21.07 10.7512 21.2869 10.4102 21.5657 10.1312C21.8445 9.85218 22.4951 9.20114 23.5794 9.20114H25.748L25.0974 12.1153ZM24.106 10.3792C23.4555 10.3792 23.3315 10.3792 23.0527 10.5032C22.8668 10.5962 22.7119 10.7512 22.557 10.9372C22.4331 11.0923 22.3092 11.3093 22.2163 11.5263C22.1233 11.7433 22.0923 11.9913 22.0923 12.2393C22.0923 12.5493 22.1543 12.7664 22.2472 12.9524C22.3402 13.1384 22.5261 13.2004 22.8049 13.2004C22.9598 13.2004 23.0837 13.1694 23.2076 13.1074C23.3315 13.0454 23.4555 12.9524 23.5794 12.8284C23.5794 12.6734 23.6104 12.5183 23.6413 12.3323C23.6723 12.1463 23.7033 11.9913 23.7343 11.8673L24.106 10.3792ZM20.3575 11.2473C20.3575 11.7123 20.2645 12.1153 20.1406 12.5183C19.9857 12.8904 19.7688 13.2314 19.521 13.5104C19.2422 13.7894 18.9324 14.0064 18.5606 14.1614C18.1889 14.3165 17.7861 14.4095 17.3524 14.4095C17.1355 14.4095 16.9187 14.3785 16.7018 14.3475L16.2681 16.0526H14.874L16.485 9.23214H18.3438C18.6845 9.23214 18.9943 9.29414 19.2422 9.38715C19.49 9.48015 19.7069 9.63516 19.8618 9.82117C20.0167 10.0072 20.1406 10.2242 20.2335 10.4722C20.3265 10.6892 20.3575 10.9682 20.3575 11.2473ZM16.9187 13.1694C17.0116 13.2004 17.1665 13.2004 17.3214 13.2004C17.5693 13.2004 17.7861 13.1694 18.003 13.0764C18.1889 12.9834 18.3747 12.8594 18.5296 12.7044C18.6845 12.5493 18.7775 12.3323 18.8704 12.1153C18.9634 11.8983 18.9943 11.6193 18.9943 11.3403C18.9943 11.0613 18.9324 10.8442 18.8085 10.6582C18.6845 10.4722 18.4677 10.3792 18.1889 10.3792H17.6312L16.9187 13.1694ZM14.0066 13.1694C13.8207 13.1694 13.6968 13.1384 13.5728 13.0764C13.4799 13.0144 13.387 12.9524 13.356 12.8594C13.325 12.7664 13.294 12.6424 13.294 12.5183C13.294 12.3943 13.325 12.2393 13.356 12.1153L13.7897 10.3482H15.3697L15.6485 9.17013H14.0375L14.4093 7.68204L12.9222 7.93006L11.9929 11.9293C11.8999 12.2703 11.8689 12.5803 11.8689 12.8594C11.8689 13.1694 11.8999 13.4174 11.9929 13.6344C12.0858 13.8514 12.2717 14.0374 12.5195 14.1614C12.7674 14.2855 13.1081 14.3475 13.5419 14.3475C13.8517 14.3475 14.1305 14.3165 14.3473 14.2545C14.3783 14.2545 14.4093 14.2545 14.4403 14.2234L14.7191 13.0144C14.6262 13.0454 14.5332 13.0764 14.4403 13.0764C14.2854 13.1694 14.1615 13.1694 14.0066 13.1694ZM10.4438 9.20114L9.20465 14.3785H10.5987L11.8379 9.20114H10.4438ZM11.9619 8.5811L12.1787 7.68204H10.7846L10.5678 8.5811H11.9619ZM7.34584 9.20114C7.65564 9.20114 7.90348 9.26314 8.12035 9.35615C8.33721 9.44915 8.52309 9.60416 8.67799 9.79017C8.83289 9.97618 8.92583 10.1932 8.98779 10.4412C9.04975 10.6892 9.08073 10.9372 9.08073 11.2163C9.08073 11.6503 8.98779 12.0533 8.83289 12.4563C8.67799 12.8284 8.46113 13.1694 8.18231 13.4794C7.90348 13.7894 7.59368 13.9754 7.19094 14.1614C6.81918 14.3165 6.41644 14.4095 5.98272 14.4095H5.67292C5.51802 14.4095 5.36312 14.4095 5.17724 14.3785C4.99136 14.3475 4.80548 14.3165 4.58862 14.2545C4.37176 14.1924 4.18588 14.1304 4 14.0374L5.61096 7.21701L7.06702 7L6.4784 9.41815C6.60232 9.35615 6.72624 9.32514 6.85016 9.29414C7.06702 9.20114 7.19094 9.20114 7.34584 9.20114ZM6.10664 13.2314C6.3235 13.2314 6.54036 13.1694 6.72624 13.0764C6.91212 12.9834 7.098 12.8284 7.22192 12.6423C7.37682 12.4563 7.46976 12.2703 7.5627 12.0533C7.65564 11.8363 7.68662 11.5883 7.68662 11.3403C7.68662 11.0303 7.62466 10.8132 7.53172 10.6272C7.43878 10.4722 7.22192 10.3792 6.9431 10.3792C6.85016 10.3792 6.75722 10.3792 6.6333 10.4102C6.4784 10.4412 6.38546 10.5032 6.26154 10.5962L5.64194 13.1694C5.82782 13.2004 5.88978 13.2004 5.92076 13.2004C5.98272 13.2314 6.04468 13.2314 6.10664 13.2314Z" fill="white"/>
</svg>
