<svg width="35" height="24" fill="none" xmlns="http://www.w3.org/2000/svg"><rect x=".416667" y=".416667" width="34.1667" height="23.1667" rx="2.2901" fill="#fff" stroke="#F6F7F8" stroke-width=".833333"/><path d="M28.6364 19.0329H6.36364c-1.23241 0-2.22668-1.0003-2.22668-2.2267V7.22668C4.13696 5.99427 5.13718 5 6.36364 5H28.6364c1.2324 0 2.2267 1.00022 2.2267 2.22668v9.57952c.0059 1.2324-.9943 2.2267-2.2267 2.2267z" fill="url(#paint0_linear)"/><path d="M13.9011 8.21507c-.0059.83352-.643 1.51819-1.4586 1.60154-1.0419.10717-1.9171-.82756-1.7564-1.8635.137-.8871 1.0062-1.50629 1.9231-1.31577.7501.1548 1.3038.81566 1.2919 1.57773z" fill="url(#paint1_linear)"/><path d="M13.9665 13.7698c-.0655-1.798-1.5539-3.1495-3.1019-3.2923-.91686-.0834-1.61939.2024-1.97066.3929V7.10767H7.07806V13.49c-.13693 2.2208 1.37531 3.8342 3.47694 3.864 1.8278.0238 3.477-1.6194 3.4115-3.5842zm-3.4532 1.7623c-.89301 0-1.62531-.7323-1.62531-1.6253 0-.8931.73825-1.6254 1.62531-1.6254.8871 0 1.6254.7323 1.6254 1.6254 0 .893-.7323 1.6253-1.6254 1.6253zM15.1394 7.10767h1.8099V17.2647h-1.8099V7.10767zM20.3132 10.5371h-1.8337l.0238 6.7277h1.8099v-6.7277zM21.8671 7.10767l-.0119 10.15703h1.8219V7.10767h-1.81zM25.7192 13.7045l2.5006-3.1674h-2.1374l-2.4053 3.0721v.2024l2.4053 3.4532h2.3577l-2.7209-3.5603z" fill="#fff"/><defs><linearGradient id="paint0_linear" x1="17.4541" y1="19.8081" x2="17.5569" y2="2.84004" gradientUnits="userSpaceOnUse"><stop stop-color="#3E4142"/><stop offset=".2285" stop-color="#3A3D3E"/><stop offset=".4729" stop-color="#2E3031"/><stop offset=".7238" stop-color="#1A1B1C"/><stop offset=".9631"/></linearGradient><linearGradient id="paint1_linear" x1="11.6217" y1="6.81059" x2="13.0117" y2="9.73115" gradientUnits="userSpaceOnUse"><stop offset=".00029" stop-color="#EE3231"/><stop offset=".6321" stop-color="#EB3A74"/><stop offset="1" stop-color="#E93E96"/></linearGradient></defs></svg>