<svg width="35" height="24" viewBox="0 0 35 24" fill="none" xmlns="http://www.w3.org/2000/svg">
<rect x="0.5" y="0.5" width="34" height="23" rx="2.75" fill="white"/>
<path d="M19.7524 18.7135C19.7524 18.3728 20.0164 18.0959 20.3614 18.0959C20.7065 18.0959 20.9705 18.3728 20.9705 18.7135C20.9705 19.0541 20.7065 19.3523 20.3614 19.3523C20.0164 19.3523 19.7524 19.0754 19.7524 18.7135ZM19.8743 18.7135C19.8743 18.9902 20.0976 19.2244 20.3818 19.2244C20.6457 19.2244 20.8689 19.0116 20.8689 18.7135C20.8689 18.4366 20.6457 18.2237 20.3818 18.2237C20.0773 18.2237 19.8743 18.4579 19.8743 18.7135Z" fill="#E31837"/>
<path d="M20.6659 19.0757H20.5441L20.3411 18.7564H20.2193V19.0757H20.1382V18.373H20.4426C20.5035 18.373 20.5644 18.373 20.605 18.4157C20.6659 18.4369 20.6863 18.5008 20.6863 18.5647C20.6863 18.6925 20.5848 18.7564 20.4629 18.7564L20.6659 19.0757ZM20.3411 18.6711C20.4426 18.6711 20.5644 18.6925 20.5644 18.5647C20.5644 18.4795 20.4833 18.4582 20.402 18.4582H20.2193V18.6711H20.3411Z" fill="#E31837"/>
<path d="M17.4599 19.3521C21.7229 15.5192 27.7115 11.7929 31.0001 10.4514C30.4926 10.1107 29.7009 9.62093 28.8077 9.08862C24.5649 10.5579 19.6117 13.8158 15.1863 17.4995C15.9374 18.0958 16.7291 18.7132 17.4599 19.3521Z" fill="#E31837"/>
<path d="M15.5101 8.94015C14.8807 8.62071 14.1906 8.32262 13.6627 8.06714C12.0591 8.89754 9.96812 10.1539 7.3291 12.1342C7.89752 12.4535 8.50653 12.8368 9.15612 13.2201C11.1861 11.6444 13.2365 10.1539 15.5101 8.94015Z" fill="#012169"/>
<path d="M19.3063 7.10837C18.5349 6.66119 15.8553 5.61783 14.0079 5.17065C13.4598 5.38361 12.6884 5.70305 12.1606 5.93727C12.8306 6.12888 15.3274 6.83154 17.4589 7.96011C18.007 7.68328 18.7784 7.34259 19.3063 7.10837Z" fill="#E31837"/>
<path d="M10.2321 6.83179C7.85703 7.98162 5.36011 9.55737 4 10.473C4.4872 10.7072 4.9744 10.8988 5.6443 11.2395C8.6487 9.1102 11.0036 7.81127 11.9374 7.38544C11.2675 7.12988 10.6381 6.95953 10.2321 6.83179Z" fill="#012169"/>
<path d="M21.0927 6.44876C21.6408 6.25715 22.2701 6.0868 22.8182 5.91645C21.2348 5.21379 19.2454 4.46852 17.4589 4C17.1748 4.08522 16.3222 4.31944 15.7334 4.51105C16.3424 4.70274 18.3522 5.19245 21.0927 6.44876ZM11.0847 14.4551C11.7343 14.8597 12.4245 15.4133 13.0944 15.8818C17.5401 12.2619 21.925 9.47244 26.7361 7.89677C26.0662 7.53473 25.4775 7.21537 24.7264 6.83207C21.8438 7.5986 16.9108 9.66413 11.0847 14.4551Z" fill="#E31837"/>
<rect x="0.5" y="0.5" width="34" height="23" rx="2.75" stroke="#F6F7F8"/>
</svg>
