<svg width="35" height="24" viewBox="0 0 35 24" fill="none" xmlns="http://www.w3.org/2000/svg">
<rect x="0.416667" y="0.416667" width="34.1667" height="23.1667" rx="2.2901" fill="white" stroke="#F6F7F8" stroke-width="0.833333"/>
<path d="M11.0676 12.0879C10.8749 11.7043 10.5339 11.4587 10.0582 11.3581C10.0224 11.3513 9.98146 11.3462 9.94224 11.3411L9.88938 11.3343C9.85869 11.3309 9.81266 11.3257 9.73934 11.324H9.69842L8.92601 11.3172L8.93283 10.5482C8.93624 10.4476 8.93113 10.3931 8.92601 10.3556L8.9209 10.3027C8.91749 10.2652 8.91237 10.2226 8.90555 10.1867C8.81348 9.70933 8.57477 9.3649 8.19283 9.1654C7.89956 9.01195 7.63186 9.00513 7.62845 9.00513H7.58582C7.5108 9.00513 7.45453 9.00854 7.38803 9.01706C6.13139 9.17563 6.1348 10.3828 6.1365 10.4357L6.11775 12.6745C6.11434 13.1246 6.23369 13.481 6.47411 13.735C6.72135 13.9754 7.076 14.0999 7.52444 14.1033L9.77514 14.1221C9.90303 14.1238 11.0301 14.0965 11.2023 12.8927C11.2125 12.816 11.2176 12.7512 11.2176 12.654C11.2193 12.6523 11.2159 12.3829 11.0676 12.0879Z" fill="#ED3024"/>
<path d="M11.7582 7.05121L5.42209 7.00006C4.67186 6.99324 4.05803 7.59684 4.05121 8.34707L4.00006 14.6831C3.99324 15.4351 4.59854 16.0472 5.34878 16.054L11.6849 16.1052C12.4368 16.112 13.0489 15.5084 13.0557 14.7565L13.1069 8.42039C13.1137 7.67015 12.5084 7.05632 11.7582 7.05121ZM11.8281 13.9653C11.4308 14.6985 10.626 14.9526 10.389 15.0139C10.2509 15.0497 10.1281 15.0651 9.90305 15.077H9.89963L7.2022 15.0549C7.20049 15.0549 7.01805 15.0532 6.8339 15.0054C6.70431 14.973 6.54063 14.9185 6.40763 14.8571C6.24906 14.7837 6.06832 14.6797 5.81938 14.4325L5.78016 14.3916C5.58408 14.1904 5.39652 13.9039 5.30274 13.6635C5.24988 13.5271 5.23454 13.4606 5.20214 13.331C5.15781 13.152 5.16122 12.9627 5.16122 12.9491L5.18338 10.2892C5.19873 10.059 5.21748 9.93621 5.255 9.79809C5.31979 9.56279 5.58578 8.76141 6.3292 8.37435C6.74694 8.14246 7.17662 8.02652 7.6046 8.02993C8.26446 8.03504 8.69073 8.32661 8.70778 8.34025C9.86383 9.04786 9.8894 10.209 9.88599 10.3727C10.0565 10.3693 11.2074 10.4119 11.9048 11.5918C11.9116 11.5987 12.5988 12.6251 11.8281 13.9653Z" fill="#ED3024"/>
<path d="M15.8929 15.2715C15.5348 15.2681 15.2092 15.2016 14.9227 15.072C14.638 14.9425 14.3907 14.7668 14.1895 14.552C13.9883 14.3372 13.8315 14.0814 13.724 13.7932C13.6166 13.5068 13.5638 13.2033 13.5655 12.8895C13.5689 12.5775 13.6269 12.274 13.7377 11.9893C13.8502 11.7045 14.0122 11.4522 14.2185 11.239C14.4265 11.0276 14.6772 10.8554 14.9636 10.7309C15.2518 10.6064 15.5758 10.5434 15.9287 10.5468C16.2817 10.5502 16.6039 10.6167 16.8904 10.7463C17.1751 10.8758 17.4241 11.0515 17.627 11.2663C17.8316 11.4829 17.9884 11.7369 18.0959 12.0251C18.2033 12.3132 18.2561 12.6167 18.2544 12.9288C18.251 13.2408 18.1931 13.5426 18.0822 13.829C17.9697 14.1155 17.8077 14.3678 17.6014 14.5793C17.3934 14.7924 17.1427 14.9629 16.8563 15.0874C16.5698 15.2136 16.2442 15.2749 15.8929 15.2715ZM15.9236 11.4027C15.7429 11.401 15.5706 11.4402 15.4104 11.517C15.2484 11.5954 15.1069 11.7028 14.9875 11.8358C14.8682 11.9705 14.771 12.1325 14.6976 12.3149C14.626 12.4974 14.5885 12.6969 14.5868 12.9066C14.5851 13.1214 14.6175 13.3226 14.684 13.5051C14.7505 13.6875 14.8426 13.8461 14.9602 13.9791C15.0779 14.1121 15.2177 14.2195 15.378 14.2962C15.5382 14.373 15.7139 14.4139 15.8997 14.4156C16.0856 14.4173 16.2612 14.3798 16.4232 14.3048C16.5852 14.2297 16.7267 14.124 16.846 13.9893C16.9654 13.8546 17.0609 13.6943 17.1308 13.5153C17.2007 13.3346 17.2365 13.1334 17.2382 12.9185C17.2399 12.7088 17.2075 12.5093 17.141 12.3252C17.0745 12.141 16.9807 11.979 16.8648 11.8426C16.7471 11.7062 16.6073 11.5971 16.4471 11.5204C16.2851 11.4436 16.1094 11.4044 15.9236 11.4027Z" fill="#ED3024"/>
<path d="M21.0696 15.314C20.7116 15.3106 20.3859 15.2441 20.0995 15.1145C19.8147 14.9849 19.5675 14.8093 19.3663 14.5945C19.1651 14.3796 19.0099 14.1239 18.9008 13.8357C18.7934 13.5493 18.7405 13.2458 18.7422 12.9337C18.7456 12.6217 18.8036 12.3182 18.9144 12.0334C19.027 11.7487 19.189 11.4963 19.3953 11.2832C19.6033 11.0718 19.8539 10.8996 20.1404 10.7751C20.4285 10.6506 20.7525 10.5875 21.1054 10.591C21.4584 10.5944 21.7806 10.6609 22.0671 10.7904C22.3518 10.92 22.6008 11.0957 22.8037 11.3105C23.0066 11.527 23.1651 11.7811 23.2726 12.0693C23.38 12.3574 23.4328 12.6609 23.4311 12.9729C23.4277 13.285 23.3698 13.5868 23.2589 13.8732C23.1464 14.158 22.9844 14.412 22.7781 14.6235C22.5701 14.8366 22.3194 15.0071 22.033 15.1316C21.7465 15.2543 21.4226 15.3174 21.0696 15.314ZM21.102 11.4452C20.9213 11.4435 20.7491 11.4827 20.5888 11.5594C20.4268 11.6379 20.2853 11.7453 20.1659 11.8783C20.0466 12.013 19.9494 12.175 19.8761 12.3574C19.8045 12.5399 19.767 12.7394 19.7653 12.9491C19.7636 13.1639 19.796 13.3651 19.8624 13.5476C19.9289 13.7283 20.021 13.8886 20.1387 14.0216C20.2563 14.1546 20.3961 14.262 20.5564 14.3387C20.7167 14.4154 20.8906 14.4564 21.0765 14.4581C21.2623 14.4598 21.4379 14.4223 21.5999 14.3472C21.7619 14.2722 21.9034 14.1665 22.0228 14.0318C22.1421 13.8971 22.2376 13.7368 22.3075 13.5578C22.3774 13.3771 22.4132 13.1759 22.4149 12.961C22.4166 12.7513 22.3842 12.5518 22.3177 12.3676C22.2512 12.1835 22.1575 12.0215 22.0415 11.8834C21.9239 11.747 21.784 11.6396 21.6238 11.5611C21.4618 11.4861 21.2879 11.4469 21.102 11.4452Z" fill="#ED3024"/>
<path d="M25.8419 15.353C25.6578 15.3513 25.4685 15.336 25.2826 15.3053C25.0934 15.2746 24.9075 15.2302 24.7285 15.1757C24.5478 15.1194 24.3721 15.0512 24.2084 14.9711C24.043 14.8909 23.8964 14.8006 23.7702 14.7017L23.7549 14.6897L24.1795 14.0179L24.1982 14.0316C24.7421 14.4169 25.2912 14.6147 25.83 14.6198C26.113 14.6215 26.3381 14.5704 26.5018 14.4647C26.6655 14.3607 26.7439 14.214 26.7456 14.0179C26.7473 13.8355 26.6604 13.7042 26.4813 13.6155C26.2972 13.5252 25.9988 13.4297 25.5947 13.3291C25.3133 13.2575 25.0695 13.1842 24.8683 13.1108C24.6671 13.0375 24.5 12.954 24.3721 12.8619C24.2425 12.7698 24.1488 12.659 24.0908 12.5311C24.0328 12.4049 24.0055 12.2515 24.0055 12.0759C24.0072 11.844 24.0567 11.6342 24.1505 11.4535C24.2442 11.2745 24.3755 11.1193 24.5358 10.9965C24.6961 10.8738 24.8888 10.7783 25.107 10.7169C25.3253 10.6555 25.5606 10.6248 25.8095 10.6265C26.1386 10.6299 26.4592 10.6845 26.7644 10.7902C27.0696 10.8959 27.3458 11.0426 27.5879 11.2233L27.605 11.2352L27.1685 11.8457L27.1514 11.832C26.7269 11.5115 26.2682 11.3461 25.7856 11.341C25.5486 11.3393 25.3457 11.387 25.182 11.4842C25.0201 11.5797 24.9399 11.7297 24.9382 11.9429C24.9382 12.0315 24.9536 12.1065 24.986 12.1662C25.0184 12.2259 25.0712 12.2788 25.1445 12.3231C25.2196 12.3691 25.3219 12.41 25.4446 12.4493C25.5691 12.4868 25.726 12.5311 25.9084 12.5771C26.217 12.6539 26.4881 12.7323 26.7115 12.809C26.9366 12.8858 27.1241 12.9761 27.2725 13.0801C27.4208 13.1842 27.5317 13.3069 27.5999 13.445C27.6698 13.5831 27.7039 13.7519 27.7022 13.9429C27.7005 14.1578 27.6544 14.3555 27.5658 14.5295C27.4771 14.7034 27.3509 14.8534 27.1889 14.9745C27.0287 15.0955 26.8309 15.1893 26.6007 15.2541C26.3756 15.3223 26.1198 15.3547 25.8419 15.353Z" fill="#ED3024"/>
<path d="M29.7808 15.3668C29.6308 15.3651 29.4875 15.3447 29.3562 15.302C29.225 15.2594 29.1073 15.1963 29.005 15.1145C28.9027 15.0309 28.8209 14.9218 28.7646 14.7888C28.7066 14.6575 28.6793 14.4955 28.6793 14.308L28.7015 11.5048L28.0979 11.4997L28.1047 10.7222L28.7083 10.7273L28.7203 9.24219L29.7126 9.25071L29.7007 10.7358L30.6845 10.7444L30.6777 11.5219L29.6939 11.5134L29.6734 14.013C29.6717 14.1665 29.7143 14.279 29.8013 14.3472C29.8882 14.4171 29.9974 14.4529 30.1235 14.4529C30.2531 14.4546 30.3793 14.4325 30.4969 14.3881C30.618 14.3438 30.7067 14.3063 30.7629 14.279L30.7868 14.2671L30.9999 15.0633L30.9829 15.0702C30.855 15.1264 30.6845 15.1912 30.4731 15.2611C30.2616 15.3344 30.0281 15.3702 29.7808 15.3668Z" fill="#ED3024"/>
</svg>
