<svg width="35" height="24" viewBox="0 0 35 24" fill="none" xmlns="http://www.w3.org/2000/svg">
<g id="payment methods=bql">
<rect x="0.5" y="0.5" width="34" height="23" rx="2.75" fill="white"/>
<g id="Group 6672">
<path id="Vector" d="M25.1287 21H11.0108V17.1487H9V3.05205L10.0533 3.00949C10.5214 2.98822 11.3938 2.9563 12.1385 3.48825L12.2342 3.56272C12.2768 3.59464 12.3087 3.62655 12.3406 3.65847C12.5321 3.83933 23.9265 14.1272 24.0329 14.2336C24.6287 14.7656 24.9904 15.3188 25.0755 15.8614C25.118 16.1167 25.1181 16.3401 25.1181 16.4359V21H25.1287Z" fill="white"/>
<path id="Vector_2" d="M12.1172 16.0529V6.20124C12.1172 5.27565 11.9151 4.75434 11.6065 4.46709C11.5853 4.44581 11.564 4.42454 11.5427 4.4139C11.5321 4.40326 11.5214 4.39262 11.5108 4.39262C11.4895 4.37134 11.4576 4.3607 11.4363 4.33942C11.4363 4.33942 11.4257 4.32879 11.415 4.32879C11.3831 4.31815 11.3618 4.29687 11.3299 4.28623C11.3193 4.28623 11.3193 4.28623 11.3087 4.27559C11.2767 4.26495 11.2448 4.24367 11.2129 4.23303H11.2023C11.1703 4.2224 11.1278 4.21176 11.0959 4.20112C11.0533 4.19048 11.0214 4.17984 10.9788 4.1692H10.9682C10.9256 4.15856 10.8831 4.15856 10.8405 4.14792C10.798 4.13728 10.7554 4.13728 10.7022 4.12664C10.4363 4.10537 10.149 4.12664 10.1064 4.12664V16.0636H12.1172V16.0529Z" fill="#FEBD36"/>
<path id="Vector_3" d="M24.0115 16.0422C23.9796 15.8614 23.8413 15.5103 23.3093 15.0422L11.6064 4.46704C11.915 4.76493 12.1065 5.2756 12.1065 6.20119V17.1061V19.9042H24.0328V16.5104V16.4359V16.404C24.0328 16.404 24.0434 16.2337 24.0115 16.0422Z" fill="#1C75BC"/>
</g>
<rect x="0.5" y="0.5" width="34" height="23" rx="2.75" stroke="#F6F7F8"/>
</g>
</svg>
