<svg width="30" height="20" viewBox="0 0 30 20" fill="none" xmlns="http://www.w3.org/2000/svg">
<g clip-path="url(#clip0_9498_1843)">
<rect width="30" height="20" rx="3" fill="#00D64F"/>
<path fill-rule="evenodd" clip-rule="evenodd" d="M15.5573 6.35011C16.6714 6.35011 17.7392 6.79073 18.437 7.39555C18.6134 7.54856 18.8776 7.54763 19.0433 7.38371L19.8733 6.56138C20.0486 6.38781 20.0422 6.10363 19.853 5.94502C19.2959 5.47729 18.548 5.01736 17.6276 4.72289L17.888 3.51197C17.9444 3.24805 17.7386 3 17.4624 3H15.8582C15.653 3 15.4756 3.14023 15.4328 3.33623L15.1983 4.41315C13.0658 4.51723 11.2584 5.55645 11.2584 7.68878C11.2584 9.53475 12.7538 10.3259 14.3322 10.8734C15.8276 11.4209 16.6166 11.6241 16.6166 12.3947C16.6166 13.1859 15.8276 13.6524 14.6643 13.6524C13.6037 13.6524 12.4928 13.3105 11.6308 12.4804C11.4617 12.3174 11.1911 12.3162 11.022 12.4791L10.1299 13.3385C9.95542 13.5065 9.95701 13.7826 10.1328 13.9489C10.8283 14.6083 11.7089 15.0858 12.714 15.3532L12.4692 16.4749C12.4121 16.738 12.616 16.9859 12.8916 16.9882L14.4983 17C14.7051 17.0015 14.8847 16.8604 14.9269 16.6625L15.1588 15.5841C17.7121 15.43 19.2748 14.0746 19.2748 12.0906C19.2748 10.2652 17.7176 9.49424 15.8276 8.86541C14.7475 8.47964 13.8127 8.21633 13.8127 7.42547C13.8127 6.65486 14.6854 6.35011 15.5573 6.35011Z" fill="white"/>
</g>
<defs>
<clipPath id="clip0_9498_1843">
<rect width="30" height="20" rx="3" fill="white"/>
</clipPath>
</defs>
</svg>
