<svg width="35" height="24" viewBox="0 0 35 24" fill="none" xmlns="http://www.w3.org/2000/svg">
<rect x="0.5" y="0.5" width="34" height="23" rx="2.75" fill="white"/>
<path d="M15.0715 4C14.7143 4 14.5 4.28573 14.5 4.57146V8.78581H25.6431L20.5716 4H15.0715Z" fill="#126BC5"/>
<path d="M25.9999 10.0715C25.9999 9.71427 25.7142 9.5 25.4285 9.5H21.2141V20.6431L25.9999 15.5716V10.0715Z" fill="#126BC5"/>
<path d="M19.9286 20.9999C20.2858 20.9999 20.5001 20.7142 20.5001 20.4285V16.2141H9.35693L14.4285 20.9999H19.9286Z" fill="#126BC5"/>
<path d="M9 14.9287C9 15.2859 9.28573 15.5001 9.57146 15.5001H13.7858V4.42847L9 9.5V14.9287Z" fill="#126BC5"/>
<rect x="0.5" y="0.5" width="34" height="23" rx="2.75" stroke="#F6F7F8"/>
</svg>
