<svg width="35" height="24" viewBox="0 0 35 24" fill="none" xmlns="http://www.w3.org/2000/svg">
<rect x="0.5" y="0.5" width="34" height="23" rx="2.75" fill="white"/>
<path d="M11.32 16.5245C10.9274 17.0195 10.3918 17.3815 9.78609 17.5613C9.18037 17.7411 8.53398 17.7298 7.93495 17.529C7.33583 17.3283 6.81323 16.9478 6.43813 16.4394C6.06303 15.931 5.85372 15.3193 5.83865 14.6876C5.82367 14.056 6.00364 13.435 6.35412 12.9093C6.7046 12.3837 7.20857 11.9787 7.79743 11.7497C8.3863 11.5207 9.03135 11.4787 9.64492 11.6295C10.2585 11.7802 10.8108 12.1163 11.2265 12.5922L12.3776 11.1265C11.6883 10.4422 10.8118 9.97748 9.85859 9.79092C8.90542 9.60444 7.91827 9.7045 7.02191 10.0786C6.12555 10.4527 5.36019 11.084 4.82233 11.8927C4.28449 12.7015 3.99834 13.6515 4.00001 14.6228C4.00167 15.594 4.29109 16.543 4.83171 17.3499C5.37232 18.1568 6.13991 18.7855 7.03752 19.1565C7.93522 19.5275 8.92263 19.6242 9.87518 19.4345C10.8277 19.2447 11.7027 18.7769 12.3896 18.0902L11.32 16.5245Z" fill="#21254F"/>
<path d="M15.4495 9.89551H13.3745V19.4227H15.4495V9.89551Z" fill="#21254F"/>
<path d="M26.7622 9.94604H24.6873V19.4733H26.7622V9.94604Z" fill="#21254F"/>
<path d="M21.1376 19.5197C19.3543 19.5197 18.9277 17.9964 18.8842 17.1379H18.8712V11.6975H17.0476V9.95658H18.8712V8.10687L20.7209 6.98291L20.6709 8.39742V9.95337H22.5434V11.6943H20.6698V16.5264C20.6465 16.664 20.6465 16.8045 20.6698 16.9421V17.0509C20.7098 17.2864 20.8169 17.5055 20.978 17.6819C21.1392 17.8583 21.3477 17.9847 21.5786 18.046C21.8096 18.1072 22.0534 18.1007 22.2807 18.0273C22.5081 17.9539 22.7096 17.8167 22.8612 17.6319C22.9125 17.5689 22.9578 17.5011 22.9961 17.4295C22.9961 17.4295 23.0352 19.5197 21.1376 19.5197Z" fill="#21254F"/>
<path d="M20.6707 16.5259V16.9415C20.6475 16.8039 20.6475 16.6634 20.6707 16.5259Z" fill="#21254F"/>
<path d="M20.4114 4.00001C18.7407 3.99831 17.0954 4.4097 15.6221 5.19744C14.1488 5.98527 12.8931 7.12519 11.9668 8.51553H14.9046C16.3757 7.07667 18.3518 6.27101 20.4097 6.27101C22.4676 6.27101 24.4436 7.07667 25.9149 8.51553H28.8527C27.9266 7.12563 26.6715 5.98607 25.1988 5.19825C23.7261 4.41051 22.0815 3.99885 20.4114 4.00001Z" fill="#E30613"/>
<path d="M29.5317 8.34752V7.29206H30.0388C30.1122 7.28912 30.1857 7.29786 30.2564 7.31819C30.3063 7.33567 30.3487 7.36938 30.3772 7.41397C30.4085 7.46534 30.4243 7.52465 30.4228 7.58475C30.4243 7.63746 30.4119 7.68954 30.387 7.73601C30.3646 7.7797 30.3317 7.81707 30.2912 7.84481C30.2574 7.86425 30.2207 7.87825 30.1824 7.88619C30.2106 7.89537 30.2373 7.90857 30.2619 7.92534C30.2802 7.94166 30.2963 7.9603 30.3098 7.98081C30.3262 8.00123 30.3407 8.02308 30.3533 8.04609L30.5002 8.35189H30.1563L29.9931 8.0254C29.9807 7.99517 29.9622 7.9677 29.9387 7.94487C29.9172 7.92846 29.8907 7.91963 29.8636 7.9199H29.8364V8.34859L29.5317 8.34752ZM29.8364 7.71968H29.9648C29.9924 7.71772 30.0197 7.713 30.0464 7.70551C30.0665 7.70105 30.084 7.68901 30.0954 7.67179C30.1085 7.65423 30.1153 7.63282 30.115 7.61088C30.1153 7.59644 30.1128 7.58208 30.1076 7.56861C30.1023 7.55523 30.0945 7.54293 30.0845 7.53249C30.0507 7.51055 30.0103 7.50101 29.9702 7.50529H29.8364V7.71968Z" fill="#21254F"/>
<path d="M29.9349 6.76758C29.7241 6.76758 29.518 6.83009 29.3428 6.94719C29.1676 7.06437 29.031 7.23088 28.9505 7.42565C28.87 7.62042 28.849 7.83472 28.8902 8.04136C28.9315 8.24808 29.0332 8.43786 29.1824 8.58679C29.3316 8.73563 29.5216 8.83694 29.7283 8.87779C29.9351 8.91863 30.1494 8.89723 30.344 8.81625C30.5386 8.73537 30.7048 8.59847 30.8216 8.42296C30.9384 8.24754 31.0005 8.04136 31.0001 7.83062C30.9995 7.54845 30.887 7.27805 30.6873 7.07873C30.4876 6.8795 30.217 6.76758 29.9349 6.76758ZM29.9349 8.7021C29.7627 8.7021 29.5944 8.65109 29.4512 8.5554C29.3081 8.4598 29.1965 8.32388 29.1306 8.16478C29.0647 8.00577 29.0475 7.83071 29.0811 7.66189C29.1147 7.49298 29.1976 7.33789 29.3193 7.21616C29.4411 7.09443 29.5962 7.01149 29.765 6.97796C29.9339 6.94434 30.1089 6.96164 30.268 7.02745C30.427 7.09336 30.563 7.20492 30.6586 7.34806C30.7543 7.4912 30.8053 7.65948 30.8053 7.83169C30.805 8.06232 30.7132 8.28348 30.55 8.44651C30.3868 8.60953 30.1655 8.70103 29.9349 8.70103V8.7021Z" fill="#21254F"/>
<path d="M20.6707 16.5259V16.9415C20.6475 16.8039 20.6475 16.6634 20.6707 16.5259Z" fill="#21254F"/>
<rect x="0.5" y="0.5" width="34" height="23" rx="2.75" stroke="#F6F7F8"/>
</svg>
