<svg width="35" height="24" viewBox="0 0 35 24" fill="none" xmlns="http://www.w3.org/2000/svg">
<rect width="35" height="24" rx="3.24812" fill="#108DE9"/>
<path fill-rule="evenodd" clip-rule="evenodd" d="M11.7244 12.2841C11.8326 11.0851 11.3097 10.0078 10.7508 9.37678C10.1964 8.75475 9.36697 8.17779 8.14995 8.07412C7.55496 8.02453 6.96448 8.13271 6.47767 8.32654C5.9503 8.53388 5.39137 8.908 5.03077 9.32269C4.79638 9.59314 4.60256 9.84106 4.43578 10.1836C3.93996 11.2023 3.84981 12.3247 4.25548 13.402C4.4493 13.9203 4.65214 14.2178 4.98569 14.6235C5.24713 14.9435 5.69788 15.2861 6.072 15.489C6.51373 15.7233 6.99153 15.8811 7.58651 15.9262C8.1815 15.9758 8.78551 15.8631 9.26781 15.6738C9.77715 15.4709 10.1242 15.2185 10.4668 14.921C10.5434 14.8534 10.6426 14.7497 10.7102 14.6731C11.3142 13.9744 11.6342 13.2713 11.7244 12.2841Z" fill="#FEFEFE"/>
<path fill-rule="evenodd" clip-rule="evenodd" d="M5.63479 10.8463C5.80156 10.8372 6.13963 11.3691 7.27552 11.0085C7.53696 10.9274 7.78036 10.8237 8.02827 10.7291C8.58721 10.5217 9.11008 10.3099 9.69605 10.5397C9.80423 10.5803 9.95749 10.6614 10.0296 10.7245C10.1513 10.8282 10.1198 10.9544 10.1198 11.1483V12.7034C10.1198 12.7935 10.1378 13.1361 10.0927 13.1902C10.0431 13.1947 9.85833 13.0775 9.74564 13.0324C9.32193 12.8611 8.85766 12.9197 8.44297 13.0369C7.67669 13.2533 6.82477 13.7491 6.0044 13.4471C5.53562 13.2758 5.59873 13.1947 5.59873 12.8431V11.3195C5.60774 11.1978 5.5852 10.9319 5.63479 10.8463Z" fill="#108DE8"/>
<path fill-rule="evenodd" clip-rule="evenodd" d="M28.4833 12.2931C28.4653 12.1444 28.4788 11.8875 28.4788 11.7297C28.4788 11.5629 28.5284 11.4097 28.6005 11.2925C28.925 10.7426 29.7184 10.7471 30.0384 11.297C30.1105 11.4277 30.1556 11.5584 30.1556 11.7387C30.1556 11.8784 30.1691 12.1669 30.1511 12.2931H28.4833ZM28.4833 13.1496H30.1556V14.0015L30.994 13.997C31.0075 13.5282 30.994 13.0459 30.994 12.5771C30.994 12.1579 31.0301 11.6125 30.9219 11.2384C30.7326 10.5893 30.1286 10.0214 29.3082 10.0214C28.4923 10.0214 27.8838 10.6028 27.7035 11.2474C27.5998 11.6215 27.6359 12.1624 27.6359 12.5861C27.6359 13.0549 27.6314 13.5282 27.6359 13.997H28.4788L28.4833 13.1496Z" fill="#FEFEFE"/>
<path fill-rule="evenodd" clip-rule="evenodd" d="M18.8553 12.2886C18.8418 12.1399 18.8508 11.8829 18.8553 11.7252C18.8688 11.2789 19.2069 10.8778 19.6937 10.8778C20.1805 10.8778 20.5231 11.2789 20.5321 11.7342C20.5366 11.9055 20.5411 12.1218 20.5321 12.2931L18.8553 12.2886ZM18.8508 13.1495L20.5276 13.154V14.0015H21.366C21.3795 13.5372 21.366 13.0459 21.366 12.5816C21.366 12.1624 21.402 11.617 21.2938 11.2429C21.109 10.6028 20.5095 10.0258 19.6892 10.0258C18.8688 10.0258 18.2693 10.5983 18.08 11.2474C17.9718 11.6125 18.0079 12.1759 18.0079 12.5906C18.0079 12.8295 18.0079 13.0639 18.0079 13.3028C18.0079 13.5282 17.9943 13.7851 18.0079 14.006H18.8463L18.8508 13.1495Z" fill="#FEFEFE"/>
<path fill-rule="evenodd" clip-rule="evenodd" d="M14.0413 10.8823C14.2261 10.8733 14.5552 10.8688 14.7355 10.8913C15.7407 11.0085 16.0832 12.3517 15.2358 12.9467C14.8978 13.1856 14.465 13.1676 14.0413 13.1451V10.8823ZM13.2029 14.0015C13.6492 14.006 14.0954 14.0015 14.5417 14.0015C14.9834 14.0015 15.2854 13.9023 15.6009 13.722C16.827 13.0143 16.9261 11.0987 15.6009 10.3008C15.3079 10.1251 14.9609 10.0214 14.5462 10.0214C14.0999 10.0214 13.6537 10.0169 13.2074 10.0214L13.2029 14.0015Z" fill="#FEFEFE"/>
<path fill-rule="evenodd" clip-rule="evenodd" d="M23.6693 14.0015C23.6693 13.3434 23.6693 12.6808 23.6693 12.0227C23.6693 11.6485 23.6603 11.4547 23.8496 11.2068C23.9758 11.0445 24.2057 10.8778 24.5122 10.8823C24.8322 10.8868 25.0441 11.049 25.1748 11.2203C25.3596 11.4637 25.3461 11.6756 25.3461 12.0362V14.006L26.189 14.0015C26.198 13.5327 26.189 13.0549 26.189 12.5816C26.189 12.1669 26.2251 11.617 26.1169 11.2429C25.9276 10.5938 25.3281 10.0258 24.5032 10.0258C23.6828 10.0258 23.0833 10.6028 22.8985 11.2519C22.7904 11.6215 22.8264 12.1759 22.8264 12.5906V14.0015H23.6693Z" fill="#FEFEFE"/>
</svg>
