<svg width="40" height="41" viewBox="0 0 40 41" fill="none" xmlns="http://www.w3.org/2000/svg">
<rect x="0.5" y="0.910645" width="39" height="39" rx="19.5" fill="#F6F7F8"/>
<rect x="0.5" y="0.910645" width="39" height="39" rx="19.5" stroke="#F6F7F8"/>
<path fill-rule="evenodd" clip-rule="evenodd" d="M19.3376 9.35065C19.7429 9.09731 20.2573 9.09731 20.6626 9.35065L30.6626 15.6006C31.1355 15.8962 31.3554 16.4692 31.2017 17.0052C31.0479 17.5413 30.5577 17.9106 30.0001 17.9106H10.0001C9.44247 17.9106 8.95227 17.5413 8.79854 17.0052C8.64481 16.4692 8.86473 15.8962 9.33761 15.6006L19.3376 9.35065Z" fill="#B0B6BF"/>
<rect x="8.75" y="27.4941" width="22.5" height="1.66667" rx="0.833333" fill="#B0B6BF"/>
<path fill-rule="evenodd" clip-rule="evenodd" d="M27.5 19.1606C28.1904 19.1606 28.75 19.7203 28.75 20.4106V27.494H26.25V20.4106C26.25 19.7203 26.8096 19.1606 27.5 19.1606Z" fill="#B0B6BF"/>
<path fill-rule="evenodd" clip-rule="evenodd" d="M17.5 19.1606C18.1904 19.1606 18.75 19.7203 18.75 20.4106V27.494H16.25V20.4106C16.25 19.7203 16.8096 19.1606 17.5 19.1606Z" fill="#B0B6BF"/>
<path fill-rule="evenodd" clip-rule="evenodd" d="M12.5 19.1606C13.1904 19.1606 13.75 19.7203 13.75 20.4106V27.494H11.25V20.4106C11.25 19.7203 11.8096 19.1606 12.5 19.1606Z" fill="#B0B6BF"/>
<path fill-rule="evenodd" clip-rule="evenodd" d="M22.5 19.1606C23.1904 19.1606 23.75 19.7203 23.75 20.4106V27.494H21.25V20.4106C21.25 19.7203 21.8096 19.1606 22.5 19.1606Z" fill="#B0B6BF"/>
</svg>
