<svg width="31" height="22" viewBox="0 0 31 22" fill="none" xmlns="http://www.w3.org/2000/svg">
<g clip-path="url(#clip0_3117_57082)">
<path d="M0.411683 2.13567V19.8643C0.411683 20.8507 1.23079 21.6612 2.25145 21.6612H27.901C28.9216 21.6612 29.7407 20.855 29.7407 19.8643V2.13567C29.7407 1.14503 28.9173 0.338791 27.901 0.338791H2.25145C1.23079 0.34308 0.411683 1.14932 0.411683 2.13567ZM2.25145 22C1.05067 22 0.0686035 21.048 0.0686035 19.8643V2.13567C0.072892 0.952047 1.05067 0 2.25145 0H27.901C29.1017 0 30.0838 0.952047 30.0838 2.13567V19.8643C30.0838 21.048 29.1017 22 27.901 22H2.25145Z" fill="white"/>
<path d="M29.9766 19.8643C29.9766 20.9493 29.0717 21.8285 27.9567 21.8285H2.19142C1.07641 21.8285 0.171539 20.9493 0.171539 19.8643V2.13996C0.171539 1.05497 1.07641 0.175827 2.19142 0.175827H27.9567C29.0717 0.175827 29.9766 1.05497 29.9766 2.13996V19.8643Z" fill="white"/>
<path d="M0.34308 2.13996V19.8643C0.34308 20.8507 1.16647 21.6569 2.19142 21.6612H27.9567C28.9817 21.6612 29.8051 20.855 29.8051 19.8643V2.13996C29.8051 1.14932 28.9817 0.343079 27.9567 0.343079H2.19142C1.16647 0.343079 0.34308 1.14932 0.34308 2.13996ZM2.19142 22C0.986355 22 0 21.048 0 19.8643V2.13996C0 0.956334 0.986355 0.00428772 2.19142 0.00428772H27.9567C29.1661 0.00428772 30.1481 0.956334 30.1481 2.13996V19.8643C30.1481 21.048 29.1618 22 27.9567 22H2.19142Z" fill="#006AAB"/>
<path d="M3.538 15.8117C3.538 16.2277 3.8339 16.2749 4.09979 16.2749C5.26626 16.2749 5.64794 15.3957 5.64794 14.5895C5.64794 13.5774 5.00038 12.8483 3.95827 12.8483C3.73527 12.8483 3.63235 12.8655 3.538 12.8698V15.8117ZM3.00622 13.2772C3.00622 12.7926 2.7532 12.8226 2.50876 12.8183V12.6768C2.7189 12.6854 2.93332 12.6854 3.14775 12.6854C3.37504 12.6854 3.68381 12.6768 4.08264 12.6768C5.48069 12.6768 6.24404 13.6117 6.24404 14.568C6.24404 15.1041 5.93098 16.4464 4.01831 16.4464C3.74385 16.4464 3.49082 16.4378 3.23351 16.4378C2.98907 16.4378 2.7532 16.4421 2.50876 16.4464V16.3049C2.8304 16.2706 2.98907 16.262 3.00622 15.8932V13.2772Z" fill="#231F20"/>
<path d="M7.01169 13.1485C6.87017 13.1485 6.7458 13.0199 6.7458 12.8784C6.7458 12.7411 6.87445 12.6168 7.01169 12.6168C7.15321 12.6168 7.27757 12.7326 7.27757 12.8784C7.27757 13.0242 7.1575 13.1485 7.01169 13.1485ZM6.43274 16.3092H6.53566C6.68576 16.3092 6.79297 16.3092 6.79297 16.129V14.6667C6.79297 14.4308 6.71149 14.3965 6.50993 14.2893V14.2035C6.76295 14.1263 7.06744 14.0234 7.08888 14.0105C7.12748 13.9891 7.1575 13.9848 7.18752 13.9848C7.21325 13.9848 7.22611 14.0191 7.22611 14.062V16.1376C7.22611 16.3177 7.34619 16.3177 7.49629 16.3177H7.58635V16.4593C7.40194 16.4593 7.21325 16.4507 7.02026 16.4507C6.82728 16.4507 6.63001 16.455 6.43274 16.4593V16.3092Z" fill="#231F20"/>
<path d="M8.10096 14.6967C8.10096 14.4951 8.04092 14.4437 7.7879 14.3407V14.2378C8.01948 14.1606 8.24248 14.092 8.49979 13.9762C8.51694 13.9762 8.52981 13.9891 8.52981 14.032V14.3836C8.83858 14.1606 9.10447 13.9805 9.4647 13.9805C9.92357 13.9805 10.0865 14.315 10.0865 14.7353V16.129C10.0865 16.3092 10.2066 16.3092 10.3567 16.3092H10.4553V16.4507C10.2666 16.4507 10.078 16.4421 9.88068 16.4421C9.6877 16.4421 9.49043 16.4464 9.29745 16.4507V16.3092H9.39608C9.54618 16.3092 9.65339 16.3092 9.65339 16.129V14.731C9.65339 14.4222 9.4647 14.2721 9.15593 14.2721C8.98439 14.2721 8.70564 14.4136 8.52981 14.5337V16.1333C8.52981 16.3135 8.64988 16.3135 8.79998 16.3135H8.89862V16.455C8.70992 16.455 8.52123 16.4464 8.32396 16.4464C8.13098 16.4464 7.93371 16.4507 7.74072 16.455V16.3135H7.83936C7.98946 16.3135 8.09667 16.3135 8.09667 16.1333V14.6967H8.10096Z" fill="#231F20"/>
<path d="M11.8234 14.7825C11.9563 14.7825 11.9735 14.7138 11.9735 14.6452C11.9735 14.3708 11.8062 14.1478 11.5017 14.1478C11.1715 14.1478 10.9442 14.3922 10.8799 14.7782H11.8234V14.7825ZM10.867 14.9583C10.8542 15.0055 10.8542 15.0869 10.867 15.2713C10.8971 15.786 11.2273 16.2062 11.6604 16.2062C11.9563 16.2062 12.1922 16.0433 12.3895 15.846L12.4666 15.9232C12.2179 16.2534 11.9091 16.5322 11.4674 16.5322C10.6097 16.5322 10.4339 15.7002 10.4339 15.3528C10.4339 14.2936 11.1458 13.9805 11.5232 13.9805C11.9606 13.9805 12.4323 14.255 12.4366 14.8296C12.4366 14.8639 12.4366 14.894 12.4323 14.9283L12.3852 14.9626H10.867V14.9583Z" fill="#231F20"/>
<path d="M12.5653 16.3092H12.7111C12.8612 16.3092 12.9684 16.3092 12.9684 16.129V14.6109C12.9684 14.4437 12.7668 14.4094 12.6896 14.3665V14.285C13.0842 14.1177 13.2986 13.9762 13.3501 13.9762C13.3801 13.9762 13.3972 13.9934 13.3972 14.0448V14.5294H13.4101C13.5431 14.3193 13.7703 13.9719 14.1006 13.9719C14.2335 13.9719 14.4093 14.062 14.4093 14.2593C14.4093 14.4051 14.3064 14.5337 14.1563 14.5337C13.9891 14.5337 13.9891 14.4051 13.8004 14.4051C13.7103 14.4051 13.4058 14.5294 13.4058 14.8554V16.1248C13.4058 16.3049 13.513 16.3049 13.6631 16.3049H13.9633V16.4464C13.6674 16.4421 13.4401 16.4378 13.2086 16.4378C12.9856 16.4378 12.7583 16.4421 12.5653 16.4464V16.3092Z" fill="#231F20"/>
<path d="M14.6452 15.6959C14.7138 16.0519 14.9326 16.3563 15.3271 16.3563C15.6444 16.3563 15.7645 16.1634 15.7645 15.9747C15.7645 15.3357 14.5895 15.5415 14.5895 14.671C14.5895 14.3665 14.8339 13.9805 15.4257 13.9805C15.5973 13.9805 15.8288 14.0277 16.039 14.1392L16.0776 14.6881H15.9532C15.8975 14.345 15.7088 14.152 15.3614 14.152C15.147 14.152 14.9411 14.2764 14.9411 14.508C14.9411 15.1384 16.1934 14.9454 16.1934 15.7945C16.1934 16.1505 15.906 16.5279 15.2628 16.5279C15.0483 16.5279 14.791 16.4507 14.6023 16.3435L14.5423 15.7216L14.6452 15.6959Z" fill="#231F20"/>
<path d="M21.0694 13.6546H20.9364C20.8335 13.0242 20.3832 12.7711 19.7828 12.7711C19.161 12.7711 18.2604 13.1871 18.2604 14.4823C18.2604 15.5758 19.0366 16.3563 19.8686 16.3563C20.4047 16.3563 20.8464 15.9875 20.9536 15.4214L21.078 15.4558L20.9536 16.2448C20.7263 16.3864 20.1173 16.5322 19.7571 16.5322C18.492 16.5322 17.6943 15.7173 17.6943 14.4994C17.6943 13.393 18.6807 12.5996 19.74 12.5996C20.1774 12.5996 20.5977 12.7411 21.0136 12.8869L21.0694 13.6546Z" fill="#231F20"/>
<path d="M21.2667 16.3092H21.3696C21.5197 16.3092 21.6312 16.3092 21.6312 16.129V13.1228C21.6312 12.7711 21.5497 12.7626 21.3439 12.7025V12.6168C21.5583 12.5481 21.7856 12.4495 21.9014 12.3852C21.9614 12.3552 22.0043 12.3251 22.0214 12.3251C22.0557 12.3251 22.0643 12.3595 22.0643 12.4023V16.1333C22.0643 16.3134 22.1844 16.3135 22.3345 16.3135H22.4246V16.455C22.2402 16.455 22.0515 16.4464 21.8585 16.4464C21.6655 16.4464 21.4682 16.4507 21.271 16.455V16.3092H21.2667Z" fill="#231F20"/>
<path d="M24.736 16.1505C24.736 16.2491 24.7961 16.2534 24.8861 16.2534C24.9505 16.2534 25.032 16.2491 25.1006 16.2491V16.3649C24.869 16.3864 24.423 16.4979 24.3244 16.5322L24.2986 16.515V16.0776C23.977 16.3435 23.724 16.5322 23.3423 16.5322C23.0507 16.5322 22.7505 16.3435 22.7505 15.8889V14.5037C22.7505 14.3622 22.729 14.2292 22.4288 14.1992V14.0963C22.6218 14.092 23.055 14.0577 23.1236 14.0577C23.1836 14.0577 23.1836 14.0963 23.1836 14.2164V15.6101C23.1836 15.7731 23.1836 16.2363 23.6553 16.2363C23.8397 16.2363 24.0799 16.0947 24.3072 15.906V14.4522C24.3072 14.345 24.0499 14.285 23.8526 14.2292V14.1306C24.3372 14.0963 24.6417 14.0534 24.6932 14.0534C24.736 14.0534 24.736 14.092 24.736 14.152V16.1505Z" fill="#231F20"/>
<path d="M25.8082 15.8374C25.8082 16.0433 26.0012 16.3906 26.3657 16.3906C26.9446 16.3906 27.1848 15.8246 27.1848 15.3442C27.1848 14.761 26.7431 14.2764 26.3228 14.2764C26.1213 14.2764 25.954 14.4051 25.8082 14.5294V15.8374ZM25.8082 14.3665C26.0226 14.1821 26.3142 13.9762 26.6144 13.9762C27.2405 13.9762 27.6179 14.5209 27.6179 15.1127C27.6179 15.8203 27.099 16.5279 26.3271 16.5279C25.9283 16.5279 25.7181 16.3992 25.5766 16.3392L25.4136 16.4635L25.3021 16.4035C25.3493 16.0862 25.3793 15.7731 25.3793 15.4429V13.1185C25.3793 12.7669 25.2979 12.7583 25.092 12.6982V12.6125C25.3064 12.5439 25.5337 12.4452 25.6495 12.3809C25.7096 12.3509 25.7524 12.3209 25.7696 12.3209C25.7996 12.3209 25.8125 12.3552 25.8125 12.3981V14.3665H25.8082Z" fill="#231F20"/>
<path d="M2.50449 19.5899H2.54737C2.65458 19.5899 2.76608 19.577 2.76608 19.4226V17.883C2.76608 17.7287 2.65458 17.7158 2.54737 17.7158H2.50449V17.6257C2.62028 17.6257 2.7961 17.6386 2.94191 17.6386C3.08772 17.6386 3.26355 17.6257 3.40507 17.6257V17.7158H3.36219C3.25497 17.7158 3.14347 17.7287 3.14347 17.883V19.4226C3.14347 19.577 3.25497 19.5899 3.36219 19.5899H3.40507V19.6799C3.26355 19.6799 3.08772 19.6671 2.94191 19.6671C2.7961 19.6671 2.62456 19.6799 2.50877 19.6799V19.5899H2.50449Z" fill="#231F20"/>
<path d="M3.3879 19.6628V19.5984H3.36217C3.25496 19.5984 3.13059 19.5813 3.13059 19.4183V17.883C3.13059 17.7201 3.25496 17.7029 3.36217 17.7029H3.3879V17.6386C3.25067 17.6386 3.08342 17.6515 2.93761 17.6515C2.79609 17.6515 2.62884 17.6386 2.51305 17.6386V17.7029H2.54307C2.64599 17.7029 2.77465 17.7201 2.77465 17.883V19.4226C2.77465 19.5856 2.65028 19.6027 2.54307 19.6027H2.51734V19.6671C2.63313 19.6671 2.79609 19.6542 2.93761 19.6542C3.07913 19.6542 3.25067 19.6628 3.3879 19.6628ZM3.40077 19.6885C3.25925 19.6885 3.08342 19.6756 2.93761 19.6756C2.7918 19.6756 2.62026 19.6885 2.50447 19.6885H2.49161V19.6756V19.5856V19.5727H2.50447H2.54736C2.65457 19.5684 2.74892 19.5598 2.75321 19.4183V17.883C2.75321 17.7372 2.65457 17.7287 2.54736 17.7287H2.49161V17.7115V17.6086H2.50447C2.62026 17.6086 2.79609 17.6214 2.9419 17.6214C3.08771 17.6214 3.26354 17.6086 3.40506 17.6086H3.41792V17.6214V17.7201H3.40077H3.35788C3.25067 17.7201 3.15204 17.7329 3.15204 17.8745V19.414C3.15204 19.5556 3.25067 19.5641 3.35788 19.5684H3.41364V19.5813V19.6799H3.40077V19.6885Z" fill="#231F20"/>
<path d="M5.42065 19.0967L5.42494 19.0924V17.9903C5.42494 17.7501 5.25769 17.7158 5.16763 17.7158H5.1033V17.6257C5.24053 17.6257 5.37777 17.6386 5.515 17.6386C5.63508 17.6386 5.75515 17.6257 5.87523 17.6257V17.7158H5.83235C5.70798 17.7158 5.57075 17.7372 5.57075 18.0889V19.4269C5.57075 19.5298 5.57504 19.6328 5.5879 19.7228H5.4764L3.96256 18.0374V19.2468C3.96256 19.5041 4.01402 19.5899 4.23702 19.5899H4.28849V19.6799C4.16412 19.6799 4.03547 19.6671 3.9111 19.6671C3.77816 19.6671 3.64521 19.6799 3.51227 19.6799V19.5899H3.55515C3.75671 19.5899 3.82104 19.4526 3.82104 19.2168V17.9774C3.82104 17.8144 3.68381 17.7115 3.55515 17.7115H3.51227V17.6257C3.62377 17.6257 3.73956 17.6386 3.85106 17.6386C3.94112 17.6386 4.02689 17.6257 4.11266 17.6257L5.42065 19.0967Z" fill="#231F20"/>
<path d="M5.48068 19.7057H5.57502C5.56216 19.6156 5.55787 19.5212 5.55787 19.4226V18.0846C5.55787 17.7329 5.70368 17.6986 5.83233 17.6986H5.86235V17.6343C5.74656 17.6343 5.63077 17.6472 5.51498 17.6472C5.38204 17.6472 5.2491 17.6386 5.11615 17.6343V17.6986H5.16762C5.25767 17.6986 5.43779 17.7372 5.43779 17.9903L5.4335 19.101L5.42921 19.1053L5.42064 19.1138L4.11265 17.6343C4.02688 17.6343 3.9411 17.6472 3.85105 17.6472C3.74383 17.6472 3.63233 17.6386 3.52512 17.6343V17.6986H3.55085C3.68808 17.6986 3.8296 17.8058 3.8296 17.9774V19.2168C3.8296 19.4526 3.76528 19.6027 3.55085 19.6027H3.52083V19.6671C3.64949 19.6671 3.77814 19.6542 3.9068 19.6542C4.03116 19.6542 4.15124 19.6671 4.27132 19.6671V19.6027H4.2413C4.00972 19.6027 3.95397 19.4998 3.95397 19.2468V18.0031L5.48068 19.7057ZM5.59218 19.7314L5.4721 19.7271L3.9797 18.0632V19.2425C3.98399 19.4998 4.02259 19.5727 4.2413 19.5727H4.30563V19.5856V19.6885H4.29276C4.16411 19.6885 4.03974 19.6756 3.91537 19.6756C3.78243 19.6756 3.64949 19.6885 3.51654 19.6885H3.49939V19.6756V19.5727H3.51226H3.55514C3.74812 19.5727 3.80387 19.4483 3.80816 19.2125V17.9731C3.80816 17.8144 3.67951 17.7201 3.55514 17.7201H3.49939V17.7115V17.6129H3.51226C3.62376 17.6129 3.73955 17.6257 3.85105 17.6257C3.93682 17.6257 4.02259 17.6129 4.12122 17.6172L5.41206 19.071V17.9903C5.41206 17.7587 5.25339 17.7287 5.16762 17.7287H5.09042V17.7115V17.6129H5.10329C5.24052 17.6129 5.37775 17.6257 5.51498 17.6257C5.63506 17.6257 5.75514 17.6129 5.87522 17.6129H5.88808V17.6257V17.7287H5.87522H5.83233C5.71226 17.7329 5.58789 17.7415 5.5836 18.0889V19.4269C5.5836 19.5298 5.58789 19.6327 5.60075 19.7228L5.60504 19.7357H5.59218V19.7314Z" fill="#231F20"/>
<path d="M6.32125 17.7715C6.10253 17.7715 6.09396 17.823 6.04678 18.0374H5.95673C5.96959 17.9559 5.98246 17.8745 5.99103 17.7887C6.0039 17.7072 6.00819 17.6257 6.00819 17.54H6.0768C6.10253 17.63 6.17544 17.6257 6.25263 17.6257H7.76647C7.84795 17.6257 7.92086 17.6214 7.92515 17.5357L7.99376 17.5485C7.9809 17.6257 7.97232 17.7072 7.96374 17.7887C7.95945 17.8659 7.95945 17.9474 7.95945 18.0246L7.8694 18.0589C7.86511 17.9517 7.84795 17.7758 7.65068 17.7758H7.17037V19.3411C7.17037 19.5684 7.2733 19.5942 7.41482 19.5942H7.47057V19.6842C7.35478 19.6842 7.14893 19.6713 6.99025 19.6713C6.81443 19.6713 6.60858 19.6842 6.49279 19.6842V19.5942H6.54854C6.7115 19.5942 6.79298 19.5813 6.79298 19.3454V17.7758H6.32125V17.7715Z" fill="#231F20"/>
<path d="M7.47913 19.6885C7.36334 19.6885 7.15749 19.6756 6.99882 19.6756C6.82299 19.6756 6.61714 19.6885 6.50135 19.6885H6.48849V19.6756V19.5727H6.50135H6.5571C6.72007 19.5684 6.78439 19.5684 6.78868 19.3368V17.7801H6.32124V17.7673V17.7544H6.81441V19.3368C6.81441 19.5727 6.72007 19.5984 6.5571 19.5984H6.51422V19.6585C6.63001 19.6585 6.82728 19.6456 6.99882 19.6456C7.1532 19.6456 7.34619 19.6585 7.46626 19.6585V19.5984H7.42338C7.28186 19.5984 7.16607 19.5641 7.16607 19.3326V17.7544H7.65925C7.85652 17.7544 7.88225 17.9216 7.88654 18.0331L7.95515 18.0117C7.95515 17.9345 7.95515 17.8573 7.95944 17.7801C7.96802 17.7029 7.98088 17.63 7.98946 17.5528L7.94658 17.5442C7.93371 17.63 7.85223 17.6343 7.77504 17.6343H6.2612H6.24404C6.17543 17.6343 6.09823 17.63 6.0725 17.5485H6.02533C6.02533 17.63 6.02104 17.7072 6.00818 17.7887C5.9996 17.8702 5.98673 17.9474 5.97387 18.0246H6.03819C6.07679 17.8187 6.10252 17.7544 6.32124 17.7544V17.7673V17.7801C6.10252 17.7844 6.10681 17.8187 6.05964 18.0374V18.046H6.04677H5.94385V18.0288C5.95671 17.9474 5.96958 17.8659 5.97816 17.7801C5.99102 17.6986 5.99531 17.6172 5.99531 17.5314V17.5185H6.00818H6.08966L6.09395 17.5271C6.11539 17.6 6.16685 17.6 6.24404 17.6043H6.2612H7.77504C7.85652 17.6043 7.91656 17.6 7.92085 17.5271V17.5142L7.93371 17.5185L8.01519 17.5314V17.5442C8.00233 17.6214 7.99375 17.7029 7.98517 17.7801C7.98089 17.8573 7.98089 17.9388 7.98089 18.016V18.0246L7.97231 18.0288L7.86938 18.0674V18.0503C7.86081 17.9388 7.84794 17.7801 7.66354 17.7801H7.19609V19.3326C7.20038 19.5556 7.28615 19.5684 7.42767 19.5727H7.49628V19.5856V19.6885H7.47913Z" fill="#231F20"/>
<path d="M8.09668 19.5899H8.13956C8.24678 19.5899 8.35828 19.577 8.35828 19.4226V17.883C8.35828 17.7287 8.24678 17.7158 8.13956 17.7158H8.09668V17.6257C8.2768 17.6257 8.58128 17.6386 8.83001 17.6386C9.07875 17.6386 9.38323 17.6257 9.5805 17.6257C9.57621 17.7501 9.57621 17.9474 9.58479 18.076L9.49473 18.0975C9.48186 17.9045 9.44327 17.7544 9.1345 17.7544H8.72709V18.522H9.07446C9.25029 18.522 9.28888 18.4234 9.30604 18.2647H9.3961C9.39181 18.3805 9.38752 18.4963 9.38752 18.6078C9.38752 18.7193 9.39181 18.8308 9.3961 18.9423L9.30604 18.9595C9.28888 18.7836 9.28031 18.6678 9.07875 18.6678H8.72709V19.354C8.72709 19.547 8.89863 19.547 9.08732 19.547C9.43898 19.547 9.59765 19.5213 9.68342 19.1867L9.76491 19.2082C9.72631 19.3626 9.692 19.5213 9.66627 19.6756C9.47758 19.6756 9.13879 19.6628 8.87719 19.6628C8.6113 19.6628 8.26393 19.6756 8.09668 19.6756V19.5899Z" fill="#231F20"/>
<path d="M9.65769 19.6628C9.68343 19.5127 9.71773 19.3669 9.75204 19.2168L9.69629 19.2039C9.60623 19.5341 9.43898 19.5641 9.09161 19.5598C8.90721 19.5598 8.7228 19.5598 8.71851 19.354V18.655H9.08304C9.28888 18.655 9.31033 18.775 9.32319 18.9423L9.38752 18.9294C9.38323 18.8222 9.37894 18.7107 9.37894 18.6035C9.37894 18.492 9.38323 18.3848 9.38752 18.2733H9.32319C9.30604 18.4277 9.25886 18.5349 9.07875 18.5306H8.71422V17.7329H9.1345C9.43898 17.7287 9.49044 17.8873 9.50331 18.0717L9.56764 18.0546C9.56335 17.9731 9.55906 17.8659 9.55906 17.7673C9.55906 17.7158 9.55906 17.6686 9.56335 17.6257C9.36179 17.6257 9.06588 17.6386 8.82573 17.6386C8.58557 17.6386 8.28537 17.63 8.10526 17.6257V17.6901H8.13528C8.2382 17.6901 8.36686 17.7072 8.36686 17.8702V19.4097C8.36686 19.5727 8.24249 19.5899 8.13528 19.5899H8.10526V19.6499C8.2768 19.6499 8.61559 19.637 8.8729 19.637C9.13879 19.6542 9.469 19.6628 9.65769 19.6628ZM9.67056 19.6885C9.48187 19.6885 9.14307 19.6756 8.88148 19.6756C8.61559 19.6756 8.26822 19.6885 8.10097 19.6885H8.0881V19.6756V19.5856V19.5727H8.10097H8.14385C8.25107 19.5727 8.34541 19.5598 8.3497 19.4183V17.883C8.3497 17.7415 8.25107 17.7287 8.14385 17.7287H8.0881V17.7115V17.6086H8.10097C8.28109 17.6086 8.58557 17.6214 8.8343 17.6214C9.08304 17.6214 9.38752 17.6086 9.58479 17.6086H9.59766V17.6214C9.59766 17.6643 9.59337 17.7158 9.59337 17.7715C9.59337 17.8745 9.59766 17.986 9.60194 18.0674V18.076L9.59337 18.0803L9.49044 18.106V18.0889C9.47329 17.9002 9.44756 17.7587 9.14307 17.7587H8.74853V18.5049H9.08732C9.25458 18.5049 9.28888 18.4148 9.30604 18.2561V18.2433H9.3189H9.42183V18.2561C9.41754 18.3719 9.41325 18.4834 9.41325 18.5992C9.41325 18.7107 9.41754 18.8222 9.42183 18.9337V18.9423L9.41325 18.9466L9.31033 18.968V18.9552C9.28888 18.775 9.28888 18.6764 9.09161 18.6764H8.75282V19.3497C8.75282 19.5298 8.90721 19.5255 9.10019 19.5298C9.45613 19.5298 9.59766 19.5084 9.68343 19.1825L9.68771 19.1696H9.70058L9.79493 19.1953L9.79064 19.2082C9.75204 19.3626 9.71773 19.5212 9.692 19.6756L9.68771 19.6842H9.67056V19.6885Z" fill="#231F20"/>
<path d="M10.5454 18.6164H10.6869C10.9828 18.6164 11.1415 18.5049 11.1415 18.1575C11.1415 17.8959 10.9743 17.7287 10.7127 17.7287C10.6226 17.7287 10.5883 17.7372 10.5454 17.7415V18.6164ZM10.168 17.9345C10.168 17.7201 10.0522 17.7115 9.95789 17.7115H9.90643V17.6257C10.0008 17.6257 10.1809 17.6386 10.361 17.6386C10.5368 17.6386 10.6784 17.6257 10.8327 17.6257C11.2016 17.6257 11.5318 17.7244 11.5318 18.1446C11.5318 18.4105 11.3559 18.5692 11.1244 18.6636L11.6261 19.414C11.7076 19.5384 11.7676 19.5727 11.9135 19.5899V19.6799C11.8148 19.6799 11.7205 19.6671 11.6261 19.6671C11.5361 19.6671 11.4417 19.6799 11.3517 19.6799C11.1244 19.384 10.9314 19.0667 10.7384 18.7279H10.5454V19.3583C10.5454 19.5856 10.6526 19.5942 10.7856 19.5942H10.837V19.6842C10.6698 19.6842 10.4982 19.6713 10.331 19.6713C10.1895 19.6713 10.0522 19.6842 9.90643 19.6842V19.5942H9.95789C10.0651 19.5942 10.168 19.5427 10.168 19.4355V17.9345Z" fill="#231F20"/>
<path d="M10.6869 18.6078C10.9785 18.6035 11.1244 18.5049 11.1286 18.1618C11.1286 17.9045 10.9657 17.7458 10.7127 17.7458C10.6355 17.7458 10.5969 17.7544 10.5583 17.7587V18.6121H10.6869V18.6078ZM10.5411 18.6292H10.5283V17.7287H10.5411C10.5797 17.7244 10.6226 17.7158 10.7084 17.7158C10.9743 17.7158 11.1501 17.8916 11.1501 18.1575C11.1501 18.5092 10.9828 18.6292 10.6826 18.6292H10.5411ZM10.5411 18.7107H10.7427L10.747 18.7193C10.9399 19.0581 11.1329 19.3754 11.3474 19.6671C11.4374 19.6671 11.5318 19.6542 11.6218 19.6542C11.7162 19.6542 11.8062 19.6628 11.8963 19.6671V19.5984C11.7591 19.5813 11.6947 19.5384 11.6132 19.4183L11.1072 18.655L11.1201 18.6507C11.3516 18.5606 11.5189 18.402 11.5189 18.1446C11.5189 17.7372 11.2015 17.6429 10.8327 17.6386C10.6784 17.6386 10.5368 17.6515 10.361 17.6515C10.1895 17.6515 10.0136 17.6386 9.91929 17.6386V17.7029H9.95788C10.0479 17.7029 10.1809 17.7201 10.1809 17.9388V19.4312C10.1809 19.5513 10.0694 19.6027 9.95788 19.6027H9.91929V19.6628C10.0608 19.6628 10.1937 19.6499 10.331 19.6499C10.4939 19.6499 10.6612 19.6628 10.8242 19.6628V19.6027H10.7856C10.6526 19.6027 10.5325 19.5856 10.5325 19.354V18.7107H10.5411ZM11.9134 19.6885C11.8148 19.6885 11.7205 19.6756 11.6261 19.6756C11.5361 19.6756 11.4417 19.6885 11.3388 19.6842C11.1115 19.3883 10.9185 19.071 10.7298 18.7365H10.5583V19.354C10.5626 19.577 10.6483 19.5727 10.7856 19.577H10.8499V19.5899V19.6928H10.837C10.6698 19.6928 10.4982 19.6799 10.331 19.6799C10.1895 19.6799 10.0522 19.6928 9.90642 19.6928H9.89355V19.6799V19.577H9.90642H9.95788C10.0651 19.577 10.1509 19.5298 10.1552 19.4312V17.9388C10.1509 17.7287 10.0522 17.7329 9.95788 17.7287H9.89355V17.7115V17.6086H9.90642C10.0008 17.6086 10.1852 17.6214 10.361 17.6214C10.5368 17.6214 10.6784 17.6086 10.8327 17.6086C11.2015 17.6086 11.5446 17.7115 11.5446 18.1404C11.5446 18.4062 11.3688 18.5735 11.1415 18.6635L11.6347 19.4012C11.7162 19.5212 11.7676 19.5556 11.9091 19.5727H11.9177V19.5856V19.6885H11.9134Z" fill="#231F20"/>
<path d="M13.9076 19.0967L13.9119 19.0924V17.9903C13.9119 17.7501 13.7446 17.7158 13.6546 17.7158H13.5945V17.6257C13.7318 17.6257 13.869 17.6386 14.0062 17.6386C14.1263 17.6386 14.2464 17.6257 14.3665 17.6257V17.7158H14.3236C14.1992 17.7158 14.062 17.7372 14.062 18.0889V19.4269C14.062 19.5298 14.0663 19.6328 14.0791 19.7228H13.9676L12.4538 18.0374V19.2468C12.4538 19.5041 12.5053 19.5899 12.7283 19.5899H12.7797V19.6799C12.6554 19.6799 12.5267 19.6671 12.4023 19.6671C12.2694 19.6671 12.1365 19.6799 12.0035 19.6799V19.5899H12.0464C12.248 19.5899 12.3123 19.4526 12.3123 19.2168V17.9774C12.3123 17.8144 12.175 17.7115 12.0464 17.7115H12.0078V17.6257C12.1193 17.6257 12.2351 17.6386 12.3466 17.6386C12.4324 17.6386 12.5181 17.6257 12.6082 17.6257L13.9076 19.0967Z" fill="#231F20"/>
<path d="M13.9676 19.7057H14.062C14.0491 19.6199 14.0448 19.5212 14.0448 19.4226V18.0846C14.0448 17.7329 14.1949 17.6986 14.3193 17.6986H14.3493V17.6343C14.2335 17.6343 14.1177 17.6472 14.0019 17.6472C13.869 17.6472 13.7361 17.6386 13.6031 17.6343V17.6986H13.6546C13.7446 17.6986 13.9247 17.7372 13.9247 17.9903L13.9205 19.101L13.9162 19.1053L13.9076 19.1138L12.5996 17.6343C12.5138 17.6343 12.4281 17.6472 12.338 17.6472C12.2308 17.6472 12.1193 17.6386 12.0121 17.6343V17.6986H12.0378C12.175 17.6986 12.3166 17.8016 12.3166 17.9774V19.2168C12.3166 19.4526 12.2479 19.6027 12.0378 19.6027H12.0078V19.6671C12.1364 19.6671 12.2651 19.6542 12.3938 19.6542C12.5181 19.6542 12.6382 19.6671 12.7626 19.6671V19.607H12.724C12.4924 19.607 12.4366 19.5041 12.4323 19.2511V18.0074L13.9676 19.7057ZM14.0791 19.7314L13.9591 19.7271L12.4667 18.0632V19.2425C12.4709 19.4998 12.5095 19.5727 12.7325 19.5727H12.7969V19.5856V19.6885H12.7797C12.6511 19.6885 12.5267 19.6756 12.4023 19.6756C12.2694 19.6756 12.1364 19.6885 12.0035 19.6885H11.9906V19.6756V19.5727H12.0035H12.0464C12.2394 19.5727 12.2951 19.4483 12.2994 19.2125V17.9731C12.2994 17.8144 12.1707 17.7201 12.0464 17.7201H11.9949V17.7115V17.6086H12.0078C12.1193 17.6086 12.2351 17.6214 12.3466 17.6214C12.4323 17.6214 12.5181 17.6086 12.6168 17.6129L13.9076 19.0667V17.986C13.9076 17.7544 13.7489 17.7244 13.6631 17.7244H13.586V17.7115V17.6086H13.5988C13.7361 17.6086 13.8733 17.6214 14.0105 17.6214C14.1306 17.6214 14.2507 17.6086 14.3707 17.6086H14.3836V17.6214V17.7201H14.3665H14.3236C14.2035 17.7244 14.0791 17.7329 14.0748 18.0803V19.4183C14.0748 19.5212 14.0791 19.6242 14.092 19.7142V19.7271H14.0791V19.7314Z" fill="#231F20"/>
<path d="M15.2671 17.9559H15.2628L14.9883 18.7879H15.5372L15.2671 17.9559ZM14.8382 19.2554C14.8082 19.354 14.7739 19.4312 14.7739 19.4827C14.7739 19.5727 14.8982 19.5856 14.9926 19.5856H15.0269V19.6756C14.9068 19.6713 14.791 19.6628 14.671 19.6628C14.5637 19.6628 14.4608 19.6671 14.3536 19.6756V19.5856H14.3708C14.4865 19.5856 14.5809 19.517 14.6281 19.3926L15.0998 18.046C15.1384 17.9388 15.1899 17.7887 15.207 17.6815C15.3014 17.6515 15.4172 17.5914 15.4729 17.5571C15.4815 17.5528 15.4858 17.5528 15.4943 17.5528C15.5029 17.5528 15.5072 17.5528 15.5158 17.5614C15.5244 17.5828 15.5329 17.6129 15.5415 17.6343L16.0819 19.1739C16.1162 19.2768 16.1505 19.384 16.1891 19.4741C16.2234 19.5556 16.2877 19.5899 16.3821 19.5899H16.3992V19.6799C16.2663 19.6756 16.1333 19.6671 15.9918 19.6671C15.846 19.6671 15.7002 19.6713 15.5501 19.6799V19.5899H15.5844C15.653 19.5899 15.7688 19.577 15.7688 19.5041C15.7688 19.4655 15.7431 19.3883 15.7088 19.294L15.593 18.9552H14.924L14.8382 19.2554Z" fill="#231F20"/>
<path d="M15.0055 18.775H15.5201L15.2628 17.986L15.0055 18.775ZM14.9712 18.8008L15.2542 17.9431H15.2628H15.2671H15.2756L15.5544 18.8008H14.9712ZM15.5715 19.6628C15.7174 19.6585 15.8589 19.6499 16.0004 19.6499C16.1376 19.6499 16.2663 19.6542 16.3906 19.6628V19.6027H16.3864C16.2834 19.6027 16.2148 19.5641 16.1805 19.4784C16.1419 19.3883 16.1076 19.2811 16.0733 19.1782L15.5329 17.6429C15.5244 17.6214 15.5158 17.5914 15.5072 17.5743C15.5029 17.57 15.5029 17.57 15.5029 17.57H15.4986C15.4943 17.57 15.4901 17.57 15.4815 17.5743C15.4257 17.6129 15.3057 17.6686 15.2199 17.6901C15.2027 17.8016 15.147 17.9474 15.1127 18.0589L14.6409 19.4097C14.5981 19.5384 14.4908 19.6113 14.3751 19.6113H14.3665V19.6713C14.4694 19.6671 14.568 19.6585 14.671 19.6585C14.7825 19.6585 14.9025 19.6628 15.014 19.6713V19.6113H14.9969C14.9025 19.6113 14.7653 19.5984 14.7653 19.4955C14.7653 19.4355 14.7996 19.3626 14.8296 19.2639L14.9283 18.9509H15.6144L15.7302 19.2982C15.7645 19.3926 15.7903 19.4698 15.7903 19.5127C15.786 19.6027 15.6616 19.6113 15.5973 19.6113H15.5758V19.6628H15.5715ZM16.4035 19.6885C16.2706 19.6842 16.1376 19.6756 16.0004 19.6756C15.8546 19.6756 15.7088 19.6842 15.5587 19.6885H15.5458V19.6756V19.5727H15.5587H15.593C15.6616 19.5727 15.7602 19.5556 15.7602 19.4998C15.7602 19.4655 15.7345 19.384 15.7002 19.294L15.5887 18.9595H14.9411L14.8511 19.2554C14.8211 19.354 14.7867 19.4312 14.7867 19.4827C14.7867 19.5556 14.8982 19.5727 14.9969 19.5727H15.0441V19.5856V19.6885H15.0312C14.9154 19.6842 14.7953 19.6756 14.6752 19.6756C14.5723 19.6756 14.4651 19.6842 14.3579 19.6885H14.345V19.6756V19.5727H14.3579H14.3751C14.4823 19.5727 14.5766 19.5084 14.6195 19.3926L15.0912 18.0417C15.1298 17.9345 15.1813 17.7887 15.207 17.6686C15.3014 17.6386 15.4172 17.5786 15.4729 17.5442C15.4815 17.54 15.4901 17.5357 15.5029 17.5357C15.5115 17.5357 15.5244 17.5357 15.5372 17.5528C15.5458 17.5786 15.5544 17.6043 15.563 17.6257L16.1033 19.161C16.1376 19.2639 16.1719 19.3711 16.2105 19.4612C16.2448 19.5384 16.3006 19.5684 16.3949 19.5727H16.425V19.5856V19.6885H16.4035Z" fill="#231F20"/>
<path d="M16.5364 17.7715C16.3177 17.7715 16.3091 17.823 16.262 18.0374H16.1719C16.1848 17.9559 16.1976 17.8745 16.2062 17.7887C16.2191 17.7072 16.2234 17.6257 16.2234 17.54H16.2963C16.3177 17.63 16.3949 17.6257 16.4721 17.6257H17.9902C18.0674 17.6257 18.1446 17.6214 18.1489 17.5357L18.2175 17.5485C18.2047 17.6257 18.1961 17.7072 18.1875 17.7887C18.1789 17.8659 18.1789 17.9474 18.1789 18.0246L18.0932 18.0589C18.0889 17.9517 18.0717 17.7758 17.8744 17.7758H17.3941V19.3411C17.3941 19.5684 17.4971 19.5942 17.6386 19.5942H17.6943V19.6842C17.5785 19.6842 17.3727 19.6713 17.214 19.6713C17.0382 19.6713 16.8323 19.6842 16.7165 19.6842V19.5942H16.7723C16.9353 19.5942 17.0167 19.5813 17.0167 19.3454V17.7758H16.5364V17.7715Z" fill="#231F20"/>
<path d="M17.6943 19.6885C17.5785 19.6885 17.3727 19.6756 17.214 19.6756C17.0382 19.6756 16.8324 19.6885 16.7166 19.6885H16.7037V19.6756V19.5727H16.7166H16.7723C16.9353 19.5684 16.9996 19.5684 17.0039 19.3368V17.7801H16.5364V17.7673V17.7544H17.0296V19.3368C17.0296 19.5727 16.9353 19.5942 16.7723 19.5984H16.7294V19.6628C16.8452 19.6628 17.0425 19.6499 17.214 19.6499C17.3684 19.6499 17.5657 19.6628 17.6815 19.6628V19.5984H17.6386C17.4971 19.5984 17.3813 19.5641 17.3813 19.3326V17.7544H17.8745C18.0717 17.7544 18.0975 17.9216 18.1017 18.0331L18.1661 18.0117C18.1661 17.9345 18.1661 17.8573 18.1704 17.7801C18.1789 17.7029 18.1875 17.63 18.2004 17.5528L18.1575 17.5442C18.1446 17.63 18.0632 17.6343 17.986 17.6343H16.4678H16.455C16.3863 17.6343 16.3092 17.63 16.2834 17.5485H16.2363C16.2363 17.63 16.2277 17.7072 16.2191 17.7887C16.2105 17.8702 16.1977 17.9474 16.1848 18.0246H16.2491C16.2877 17.8187 16.3134 17.7544 16.5322 17.7544V17.7673V17.7801C16.3134 17.7844 16.3177 17.8187 16.2706 18.0374V18.046H16.262H16.1591V18.0331C16.1719 17.9517 16.1848 17.8659 16.1934 17.7844C16.2062 17.7029 16.2105 17.6214 16.2105 17.5357V17.5228H16.2234H16.3049L16.3092 17.5314C16.3306 17.6043 16.3821 17.6043 16.4593 17.6086H16.4721H17.9902C18.0717 17.6086 18.1318 17.6043 18.1361 17.5314V17.5185L18.1489 17.5228L18.2304 17.5357V17.5485C18.2175 17.6257 18.209 17.7072 18.2004 17.7844C18.1961 17.8616 18.1961 17.9431 18.1961 18.0203V18.0288L18.1875 18.0331L18.0846 18.0717V18.0546C18.076 17.9431 18.0632 17.7844 17.8787 17.7844H17.4113V19.3368C17.4156 19.5598 17.5014 19.5727 17.6429 19.577H17.7115V19.5899V19.6928H17.6943V19.6885Z" fill="#231F20"/>
<path d="M18.329 19.5899H18.3719C18.4791 19.5899 18.5906 19.577 18.5906 19.4226V17.883C18.5906 17.7287 18.4791 17.7158 18.3719 17.7158H18.329V17.6257C18.4448 17.6257 18.6207 17.6386 18.7622 17.6386C18.908 17.6386 19.0838 17.6257 19.2253 17.6257V17.7158H19.1825C19.0752 17.7158 18.9637 17.7287 18.9637 17.883V19.4226C18.9637 19.577 19.0752 19.5899 19.1825 19.5899H19.2253V19.6799C19.0838 19.6799 18.908 19.6671 18.7622 19.6671C18.6164 19.6671 18.4448 19.6799 18.329 19.6799V19.5899Z" fill="#231F20"/>
<path d="M19.2125 19.6628V19.5984H19.1867C19.0795 19.5984 18.9551 19.5813 18.9551 19.4183V17.883C18.9551 17.7201 19.0795 17.7029 19.1867 17.7029H19.2125V17.6386C19.0752 17.6386 18.908 17.6515 18.7622 17.6515C18.6206 17.6515 18.4534 17.6429 18.3419 17.6386V17.7029H18.3719C18.4748 17.7029 18.6035 17.7201 18.6035 17.883V19.4226C18.6035 19.5856 18.4791 19.6027 18.3719 19.6027H18.3419V19.6671C18.4534 19.6671 18.6206 19.6542 18.7622 19.6542C18.9037 19.6542 19.0709 19.6628 19.2125 19.6628ZM19.2253 19.6885C19.0838 19.6885 18.908 19.6756 18.7622 19.6756C18.6164 19.6756 18.4448 19.6885 18.329 19.6885H18.3162V19.6756V19.5856V19.5727H18.329H18.3719C18.4791 19.5727 18.5735 19.5598 18.5778 19.4183V17.883C18.5778 17.7415 18.4791 17.7287 18.3719 17.7287H18.3162V17.7115V17.6086H18.329C18.4448 17.6086 18.6206 17.6214 18.7622 17.6214C18.908 17.6214 19.0838 17.6086 19.2253 17.6086H19.2382V17.6214V17.7244H19.2253H19.1824C19.0752 17.7244 18.9766 17.7372 18.9766 17.8788V19.4183C18.9766 19.5641 19.0752 19.5727 19.1824 19.5727H19.2339V19.5856V19.6885H19.2253Z" fill="#231F20"/>
<path d="M20.439 19.5899C21.0094 19.5899 21.108 19.0881 21.108 18.6593C21.108 18.2304 20.8764 17.7115 20.3875 17.7115C19.8729 17.7115 19.7185 18.1704 19.7185 18.5649C19.7228 19.0881 19.963 19.5899 20.439 19.5899ZM20.3961 17.5828C21.0222 17.5828 21.524 17.9731 21.524 18.5992C21.524 19.2768 21.0394 19.7228 20.4133 19.7228C19.7914 19.7228 19.3154 19.2982 19.3154 18.6678C19.3111 18.0546 19.7871 17.5828 20.3961 17.5828Z" fill="#231F20"/>
<path d="M19.7099 18.5606C19.7099 18.1661 19.8643 17.6943 20.3918 17.6943C20.8893 17.6943 21.1251 18.2261 21.1251 18.655C21.1251 19.0838 21.0222 19.5984 20.4433 19.5984V19.5856V19.5727C21.0008 19.5727 21.0994 19.0838 21.0994 18.655C21.0994 18.2304 20.8721 17.7201 20.3918 17.7201C19.8858 17.7201 19.74 18.1661 19.7357 18.5606C19.7357 19.0838 19.9758 19.577 20.439 19.577V19.5899V19.6027C19.9544 19.6027 19.7099 19.0924 19.7099 18.5606ZM19.2982 18.6635C19.2982 18.046 19.7786 17.5657 20.3961 17.5657V17.5828V17.5957C19.7914 17.5957 19.324 18.0632 19.324 18.6678C19.324 19.294 19.7957 19.7099 20.4133 19.7099C21.0308 19.7099 21.5111 19.2682 21.5111 18.5992C21.5111 17.9817 21.0179 17.6 20.3961 17.6V17.5828V17.57C21.0265 17.57 21.5326 17.9645 21.5368 18.5949C21.5368 19.2768 21.0437 19.7314 20.4133 19.7314C19.7828 19.7314 19.2982 19.3025 19.2982 18.6635Z" fill="#231F20"/>
<path d="M23.501 19.0967L23.5053 19.0924V17.9903C23.5053 17.7501 23.338 17.7158 23.248 17.7158H23.1836V17.6257C23.3209 17.6257 23.4581 17.6386 23.5953 17.6386C23.7154 17.6386 23.8355 17.6257 23.9556 17.6257V17.7158H23.9127C23.7883 17.7158 23.6511 17.7372 23.6511 18.0889V19.4269C23.6511 19.5298 23.6554 19.6328 23.6682 19.7228H23.5567L22.0429 18.0374V19.2468C22.0429 19.5041 22.0943 19.5899 22.3173 19.5899H22.3688V19.6799C22.2444 19.6799 22.1158 19.6671 21.9914 19.6671C21.8585 19.6671 21.7255 19.6799 21.5926 19.6799V19.5899H21.6355C21.837 19.5899 21.9014 19.4526 21.9014 19.2168V17.9774C21.9014 17.8144 21.7684 17.7115 21.6355 17.7115H21.5969V17.6257C21.7084 17.6257 21.8242 17.6386 21.9357 17.6386C22.0257 17.6386 22.1072 17.6257 22.1973 17.6257L23.501 19.0967Z" fill="#231F20"/>
<path d="M23.561 19.7057H23.6554C23.6425 19.6156 23.6382 19.5212 23.6382 19.4226V18.0846C23.6382 17.7329 23.7883 17.6986 23.9127 17.6986H23.9427V17.6343C23.8269 17.6343 23.7111 17.6472 23.591 17.6472C23.4581 17.6472 23.3251 17.6386 23.1922 17.6343V17.6986H23.2437C23.3337 17.6986 23.5138 17.7415 23.5138 17.9903L23.5096 19.101L23.5053 19.1053L23.4967 19.1138L22.1887 17.6343C22.1029 17.6343 22.0172 17.6472 21.9271 17.6472C21.8199 17.6472 21.7084 17.6386 21.6012 17.6343V17.6986H21.6269C21.7641 17.6986 21.9057 17.8016 21.9057 17.9774V19.2168C21.9057 19.4526 21.8413 19.6027 21.6269 19.6027H21.5969V19.6671C21.7255 19.6671 21.8542 19.6542 21.9828 19.6542C22.1072 19.6542 22.2273 19.6671 22.3474 19.6671V19.607H22.3088C22.0772 19.607 22.0214 19.5041 22.0214 19.2511V18.0074L23.561 19.7057ZM23.6725 19.7314L23.5524 19.7271L22.06 18.0632V19.2425C22.0643 19.4998 22.1029 19.5684 22.3216 19.5727H22.386V19.5856V19.6842H22.3731C22.2444 19.6842 22.1201 19.6713 21.9957 19.6713C21.8628 19.6713 21.7298 19.6842 21.5969 19.6842H21.584V19.6713V19.5684H21.5969H21.6398C21.8327 19.5684 21.8885 19.4441 21.8928 19.2082V17.9688C21.8928 17.8101 21.7641 17.7158 21.6398 17.7158H21.5883V17.7115V17.6086H21.6012C21.7127 17.6086 21.8285 17.6214 21.94 17.6214C22.0257 17.6214 22.1115 17.6086 22.2101 17.6129L23.501 19.0667V17.986C23.501 17.7544 23.3423 17.7244 23.2565 17.7244H23.1793V17.7115V17.6086H23.1922C23.3294 17.6086 23.4667 17.6214 23.6039 17.6214C23.724 17.6214 23.8441 17.6086 23.9684 17.6086H23.9813V17.6214V17.7244H23.9684H23.9255C23.8055 17.7287 23.6811 17.7372 23.6768 18.0846V19.4226C23.6768 19.5255 23.6811 19.6285 23.694 19.7185L23.6982 19.7314H23.6725Z" fill="#231F20"/>
<path d="M24.8647 17.9559H24.8604L24.5859 18.7879H25.1349L24.8647 17.9559ZM24.4316 19.2554C24.4015 19.354 24.3672 19.4312 24.3672 19.4827C24.3672 19.5727 24.4916 19.5856 24.5859 19.5856H24.6203V19.6756C24.5045 19.6713 24.3801 19.6628 24.2643 19.6628C24.1571 19.6628 24.0542 19.6671 23.947 19.6756V19.5856H23.9641C24.0799 19.5856 24.1785 19.517 24.2214 19.3926L24.6932 18.046C24.7318 17.9388 24.7832 17.7887 24.8004 17.6815C24.8947 17.6515 25.0105 17.5914 25.0705 17.5571C25.0791 17.5528 25.0834 17.5528 25.092 17.5528C25.1006 17.5528 25.1049 17.5528 25.1134 17.5614C25.122 17.5828 25.1306 17.6129 25.1392 17.6343L25.6795 19.1739C25.7138 19.2768 25.7481 19.384 25.7867 19.4741C25.821 19.5556 25.8854 19.5899 25.9797 19.5899H25.9969V19.6799C25.8639 19.6756 25.731 19.6671 25.5895 19.6671C25.4436 19.6671 25.2978 19.6713 25.1477 19.6799V19.5899H25.182C25.2507 19.5899 25.3665 19.577 25.3665 19.5041C25.3665 19.4655 25.3407 19.3883 25.3064 19.294L25.1906 18.9552H24.5302L24.4316 19.2554Z" fill="#231F20"/>
<path d="M24.6031 18.775H25.1177L24.8604 17.986L24.6031 18.775ZM24.5645 18.8008L24.8475 17.9431H24.8561H24.8604H24.8733L25.152 18.8008H24.5645ZM25.1649 19.6628C25.3107 19.6585 25.4522 19.6499 25.5937 19.6499C25.731 19.6499 25.8596 19.6542 25.9883 19.6628V19.6027H25.984C25.8854 19.6027 25.8167 19.5641 25.7782 19.4784C25.7396 19.3883 25.7052 19.2811 25.6709 19.1782L25.1306 17.6386C25.122 17.6172 25.1134 17.5871 25.1049 17.57C25.1006 17.5657 25.1006 17.5657 25.1006 17.5657H25.0963C25.092 17.5657 25.0877 17.5657 25.0791 17.57C25.0234 17.6043 24.9033 17.6643 24.8175 17.6858C24.8004 17.7973 24.7446 17.9431 24.706 18.0546L24.2343 19.4055C24.1914 19.5341 24.0885 19.607 23.9684 19.607H23.9641V19.6671C24.067 19.6628 24.1657 19.6542 24.2686 19.6542C24.3844 19.6542 24.5002 19.6585 24.6117 19.6671V19.607H24.5902C24.4959 19.607 24.3587 19.5942 24.3587 19.4912C24.3587 19.4312 24.3973 19.3583 24.423 19.2596L24.5216 18.9466H25.2078L25.3279 19.294C25.3622 19.3883 25.3879 19.4655 25.3879 19.5084C25.3836 19.5984 25.2592 19.607 25.1949 19.607H25.1735V19.6628H25.1649ZM26.0012 19.6885C25.8682 19.6842 25.7353 19.6756 25.598 19.6756C25.4565 19.6756 25.3064 19.6842 25.1563 19.6885H25.1435V19.6756V19.5727H25.1563H25.1863C25.255 19.5727 25.3579 19.5556 25.3579 19.4998C25.3579 19.4655 25.3321 19.384 25.2978 19.294L25.1863 18.9595H24.5388L24.4444 19.2596C24.4144 19.3583 24.3801 19.4355 24.3801 19.4827C24.3801 19.5556 24.4916 19.5727 24.586 19.5727H24.6288V19.5856V19.6885H24.616C24.5002 19.6842 24.3801 19.6756 24.26 19.6756C24.1528 19.6756 24.0499 19.6842 23.9427 19.6885H23.9298V19.6756V19.5727H23.9427H23.9598C24.0713 19.5727 24.1614 19.5084 24.2043 19.3883L24.676 18.0374C24.7146 17.9302 24.7661 17.7844 24.7918 17.6643C24.8861 17.6343 25.0019 17.5743 25.0577 17.54C25.0663 17.5357 25.0748 17.5357 25.0877 17.5357C25.0963 17.5357 25.1091 17.5357 25.1177 17.5528C25.1263 17.5743 25.1349 17.6043 25.1435 17.6257L25.6838 19.161C25.7181 19.2639 25.7524 19.3711 25.791 19.4612C25.8253 19.5384 25.8768 19.5684 25.9711 19.5727H26.0012V19.5856V19.6885Z" fill="#231F20"/>
<path d="M26.7431 19.3883C26.7431 19.5084 26.8245 19.5427 26.9189 19.5556C27.039 19.5641 27.1719 19.5641 27.3091 19.5513C27.4335 19.5384 27.5364 19.4655 27.5922 19.3926C27.6394 19.3283 27.6651 19.2468 27.6822 19.1825H27.768C27.7337 19.3497 27.6951 19.5127 27.6608 19.6842C27.4035 19.6842 27.1419 19.6713 26.8846 19.6713C26.6273 19.6713 26.3657 19.6842 26.1084 19.6842V19.5942H26.147C26.2542 19.5942 26.37 19.5813 26.37 19.3969V17.883C26.37 17.7287 26.2542 17.7158 26.147 17.7158H26.1084V17.6257C26.2628 17.6257 26.4171 17.6386 26.5715 17.6386C26.7216 17.6386 26.8674 17.6257 27.0175 17.6257V17.7158H26.9446C26.8331 17.7158 26.7474 17.7201 26.7474 17.8745V19.3883H26.7431Z" fill="#231F20"/>
<path d="M27.6437 19.6628C27.678 19.5041 27.7166 19.3454 27.7466 19.1867H27.6865C27.6694 19.2511 27.6437 19.3283 27.5965 19.3926C27.5407 19.4698 27.4335 19.5427 27.3049 19.5556C27.2277 19.5641 27.1505 19.5684 27.0776 19.5684C27.0218 19.5684 26.9661 19.5641 26.9103 19.5641C26.816 19.5556 26.7216 19.5127 26.7216 19.3883V17.8702C26.7216 17.7072 26.8246 17.6986 26.9361 17.6986H26.9961V17.6343C26.8503 17.6343 26.7088 17.6472 26.563 17.6472C26.4129 17.6472 26.2628 17.6343 26.1127 17.6343V17.6986H26.1427C26.2456 17.6986 26.3743 17.7158 26.3743 17.8788V19.3883C26.3743 19.577 26.2456 19.5984 26.1427 19.5984H26.1169V19.6628C26.37 19.6628 26.623 19.6499 26.8803 19.6499C27.1333 19.6542 27.3906 19.6628 27.6437 19.6628ZM27.6565 19.6885C27.3992 19.6885 27.1376 19.6756 26.8803 19.6756C26.623 19.6756 26.3614 19.6885 26.1041 19.6885H26.0912V19.6756V19.5727H26.1041H26.147C26.2542 19.5684 26.3528 19.5641 26.3571 19.3883V17.8788C26.3571 17.7372 26.2542 17.7244 26.147 17.7244H26.0955V17.7115V17.6086H26.1084C26.267 17.6086 26.4171 17.6214 26.5715 17.6214C26.7216 17.6214 26.8674 17.6086 27.0175 17.6086H27.0304V17.6214V17.7244H27.0175H26.9446C26.8288 17.7287 26.7602 17.7201 26.7559 17.8702V19.3883C26.7559 19.4998 26.8288 19.5298 26.9189 19.5427C26.9704 19.547 27.0261 19.547 27.0819 19.547C27.1548 19.547 27.2277 19.5427 27.3049 19.5341C27.4249 19.5212 27.5279 19.4526 27.5793 19.3797C27.6265 19.3154 27.6522 19.2382 27.6694 19.1739L27.6737 19.1653H27.6823H27.7852L27.7809 19.1825C27.7466 19.3497 27.708 19.5127 27.6737 19.6799L27.6694 19.6885H27.6565Z" fill="#231F20"/>
<path d="M27.678 17.853H27.7166C27.7552 17.853 27.7766 17.823 27.7766 17.7758C27.7766 17.7287 27.7466 17.7072 27.7166 17.7072H27.6823V17.853H27.678ZM27.5751 18.016V18.0031C27.6136 17.9988 27.6179 17.9988 27.6179 17.9774V17.7501C27.6179 17.7158 27.6136 17.7072 27.5751 17.7072V17.6901H27.7337C27.7895 17.6901 27.8367 17.7158 27.8367 17.7715C27.8367 17.8187 27.8066 17.853 27.7637 17.8659L27.8152 17.9388C27.8409 17.9688 27.8667 18.0031 27.8838 18.0117V18.0203H27.8238C27.7938 18.0203 27.768 17.9602 27.7123 17.8788H27.678V17.9817C27.678 18.0031 27.6866 17.9988 27.7251 18.0074V18.0203H27.5751V18.016ZM27.7294 18.1018C27.8667 18.1018 27.9739 17.9817 27.9739 17.8487C27.9739 17.7158 27.871 17.5957 27.7294 17.5957C27.5922 17.5957 27.485 17.7158 27.485 17.8487C27.4807 17.986 27.5879 18.1018 27.7294 18.1018ZM27.7294 17.54C27.9053 17.54 28.0382 17.6772 28.0382 17.8487C28.0382 18.0246 27.9053 18.1575 27.7294 18.1575C27.5536 18.1575 27.4207 18.0246 27.4207 17.8487C27.4164 17.6772 27.5493 17.54 27.7294 17.54Z" fill="#231F20"/>
<path d="M9.37039 7.24756C9.37039 4.49864 11.6004 2.26862 14.3493 2.26862C17.0983 2.26862 19.3283 4.49864 19.3283 7.24756C19.3283 9.99649 17.0983 12.2265 14.3493 12.2265C11.6004 12.2265 9.37039 9.99649 9.37039 7.24756Z" fill="white"/>
<path d="M14.3536 12.3166C11.5018 12.3294 9.15167 10.0179 9.15167 7.20468C9.15167 4.12982 11.4975 2.00273 14.3536 2.00273H15.6916C18.5092 2.00273 21.0823 4.12982 21.0823 7.20468C21.0823 10.0179 18.5092 12.3166 15.6916 12.3166H14.3536ZM14.3665 2.43158C11.7591 2.43158 9.64914 4.54581 9.64914 7.15321C9.64914 9.76062 11.7634 11.8706 14.3665 11.8706C16.9739 11.8706 19.0838 9.75633 19.0881 7.15321C19.0838 4.54581 16.9739 2.43158 14.3665 2.43158ZM13.2944 9.94074V4.35711C12.1708 4.79025 11.3774 5.87524 11.3731 7.14893C11.3774 8.42261 12.1751 9.51189 13.2944 9.94074ZM17.3599 7.14893C17.3599 5.87524 16.5622 4.78596 15.4386 4.35711V9.94074C16.5579 9.51189 17.3556 8.4269 17.3599 7.14893Z" fill="#006AAB"/>
</g>
<defs>
<clipPath id="clip0_3117_57082">
<rect width="30.1481" height="22" fill="white"/>
</clipPath>
</defs>
</svg>
