<svg width="35" height="24" fill="none" xmlns="http://www.w3.org/2000/svg"><rect x=".416667" y=".416667" width="34.1667" height="23.1667" rx="2.2901" fill="#fff" stroke="#F6F7F8" stroke-width=".833333"/><path d="M21.9596 14.1337c.1066-.0861.2195-.164.3378-.2331.1851-.1.3994-.1321.6058-.0908.1285.0213.2483.0789.3452.1659.097.0871.167.2.202.3255.0409.1204.0617.2468.0614.3741v1.5898c0 .1271 0 .1145-.1215.1145H23.16c-.0461 0-.067-.0167-.0656-.0628.0014-.0461 0-.0726 0-.1089 0-.5067.0154-1.0148-.0153-1.5215-.0037-.0722-.0154-.1439-.0349-.2135-.0181-.0732-.0595-.1384-.1179-.186-.0584-.0476-.1307-.0749-.206-.0778-.1586-.0185-.3191.0127-.4592.0893-.2987.1577-.3029.1633-.3029.4969v1.4671c0 .1186 0 .1228-.1159.1186-.1158-.0042-.2219.0433-.2791-.0223-.0573-.0656-.0182-.1815-.0182-.2792v-2.038-.0949c0-.0614.0154-.0921.0838-.0879.086.0053.1722.0053.2582 0 .0712 0 .0851.0293.081.0893-.0042.06-.0084.1075-.0084.1857z" fill="#790208"/><path d="M29.2069 17.3065c.1312-.3057.2442-.5849.3754-.864.0289-.0572.0444-.1202.0457-.1842.0012-.064-.012-.1275-.0387-.1857-.2708-.6896-.5318-1.3833-.7956-2.0757-.0227-.0398-.0334-.0854-.0307-.1312h.3852c.0545 0 .0642.0377.0796.0768.0782.2122.1563.4188.2345.6365l.4188 1.1237c.0502-.0321.0516-.0852.0683-.1271.1941-.5262.3853-1.0524.5793-1.5787.0559-.1521.0238-.1284.1899-.1298h.2791c.007.0428-.0024.0867-.0265.1229-.4197 1.0682-.8384 2.1384-1.2563 3.2104-.046.1173-.046.1173-.1716.1173l-.3364-.0112z" fill="#212121"/><path d="M12.9214 14.2256c.0893-.067.1549-.1186.2233-.1689.1433-.1124.3168-.1794.4984-.1926.0362-.0021.0726-.0021.1088 0 .0517 0 .081.0223.0782.0838v.2987c0 .0516-.0154.074-.0712.067-.0552-.0056-.1106-.0079-.1661-.007-.2285.0005-.4488.0855-.6184.2387-.0218.0192-.0384.0436-.0484.0709-.01.0273-.013.0567-.0088.0854v1.5746c0 .1005 0 .1018-.1075.1032h-.2442c-.0531 0-.074-.0195-.0712-.0711v-.081-2.2138-.081c0-.0516.0167-.074.0698-.0726h.2582c.0865 0 .0991.0168.0949.0908-.0042.0739.0042.1675.0042.2749z" fill="#790208"/><path d="M5.56522 7.64851c-.00145-.00087-.00264-.0021-.00347-.00357s-.00127-.00312-.00127-.00481.00044-.00334.00127-.00481.00202-.0027.00347-.00356c.02512-.02653.00837-.06421.02373-.09353.01613-.11624.05151-.22899.10469-.33361.14435-.35879.36266-.68315.6407-.95197.10728-.10556.23255-.19112.3699-.25265-.03211.5402-.07817 1.07202.13958 1.57732.0335.06421-.01814.08933-.05862.09212-.12703 0-.26103.04328-.37828-.04606-.01901-.02009-.03373-.04383-.04327-.06979-.02792-.07817 0-.16192-.02792-.26661-.06046.07427-.11639.15211-.1675.23311-.02931.03629-.04746.07956-.07817.11446-.01622.01613-.03072.03391-.04327.05304-.00634.01066-.01334.02091-.02094.03071-.01575.02233-.03906.03819-.0656.04467-.09911 0-.19682-.00698-.29593 0-.0991.00698-.13121-.01815-.0991-.11446z" fill="#AD2229"/><path d="M9.21403 14.04c.04371.1331.0677.2718.07119.4118.03395.397.01706.7966-.05025 1.1893-.0057.0215-.01317.0425-.02234.0628-.01814.0544-.02652.1173-.10469.1173-.07816 0-.15773.0195-.19542-.0754-.00871-.0405-.00871-.0824 0-.1229.02726-.1722.04173-.3462.04327-.5206v-.3601c.00698-.1857-.06281-.3602-.067-.5444.00265-.0141.00837-.0275.01675-.0391.01299-.0087.0277-.0144.04313-.0168.01543-.0025.0312-.0015.04621.0028.04299.0104.08824.0056.12815-.0134.03991-.0191.07204-.0513.091-.0913z" fill="#FCC734"/><path d="M7.19841 10.4612c.05994.0445.1318.0702.20639.0736.0746.0035.14853-.0153.21236-.0541.17728-.0167.35455-.0097.53322-.0097.02851-.0048.05772-.0034.08565.004.02793.0075.05394.0209.07627.0392-.01744.1057-.05589.2068-.11307.2973-.07537.0726-.17169-.0265-.24985.0294-.32943.0153-.65885 0-.98827.0083-.04586.0025-.09103-.0119-.12702-.0405-.03529-.0387-.05949-.0862-.07005-.1376-.01056-.0513-.0071-.1045.01003-.1541.00998-.0123.02295-.0219.03768-.0279.13121-.0265.26103-.0028.38666-.0279z" fill="#E22437"/><path d="M5.35732 9.79676c.02093.01675.04048.0349.06281.04885.0241.01996.05229.03437.08258.04222.03029.00785.06193.00896.09269.00323.03076-.00573.05988-.01814.08532-.03636.02543-.01823.04654-.04182.06185-.06911.01536-.02094.02792-.04467.04188-.0656.05005.02218.10496.03113.15947.02599.0545-.00513.10677-.02417.1518-.05531.00729.00024.01438.00244.02053.00637.00614.00393.01111.00945.01437.01597.02349.08252.02967.16902.01815.25404-.01815.07675-.01675.16195-.09632.21215-.3364-.0209-.6742.0349-1.0106 0-.06421-.0125-.07956-.0642-.09491-.1144 0 .0809-.04188.1172-.11586.1298-.07398.0125-.11446.0111-.13959-.0642-.02931-.0419.00698-.0963-.02652-.13962-.00144-.00103-.00261-.00239-.00342-.00397-.00081-.00158-.00123-.00333-.00123-.0051 0-.00177.00042-.00352.00123-.0051.00081-.00158.00198-.00294.00342-.00397-.01081-.0459-.01081-.09369 0-.13959.12614-.02971.25634-.0382.38526-.02512.10209.01659.20647.0128.30709-.01117z" fill="#D62333"/><path d="M4.04797 15.2712c-.03821-.1475-.05374-.3-.04606-.4522-.00798-.2235.01456-.4471.067-.6645.10973-.0328.22667-.0328.3364 0 .04188.067 0 .1312 0 .1954-.02297.101-.03699.2037-.04187.3071-.01941.2225-.01941.4462 0 .6687-.00537.0296-.01877.0572-.03875.0798-.01998.0226-.04577.0392-.07457.0482-.02879.0089-.05948.0098-.08873.0024-.02925-.0073-.05592-.0225-.07713-.0439-.04048-.0461-.00558-.0991-.03629-.141z" fill="#FCC733"/><path d="M7.09371 7.92773c.12238.13929.20612.30822.24288.48995.04048.13959-.07119.13959-.14796.13959h-.31965c-.0312-.00791-.06044-.02215-.08589-.04184-.02546-.01969-.04659-.04441-.06208-.07262-.06363-.0728-.11975-.15183-.1675-.2359-.02652-.06701-.07817-.12424-.07537-.20101.00163-.00667.00474-.01288.00908-.0182.00435-.00531.00983-.00958.01604-.01251.19682-.01954.39782.02373.59045-.04746z" fill="#B8222C"/><path d="M7.76934 11.9018c.11167.1521.24846.1298.37967.0223.19109-.0283.38583-.0198.5737.0251.01481.0831.01481.1682 0 .2513-.05623.0463-.12837.0689-.201.0628-.30151 0-.60301.0111-.90591 0-.05433.0048-.10863-.0096-.15355-.0405-.03172-.0424-.05241-.092-.06021-.1444-.00779-.0524-.00245-.1059.01555-.1557.00298-.0067.0074-.0127.01295-.0175.00555-.0049.01208-.0084.01915-.0104.10375.0325.21458.0349.31965.007z" fill="#F0733A"/><path d="M7.47338 12.199c.08605.0196.17419.0285.26242.0265h.74538c.08236 0 .15774-.0363.24009-.0293.0349.0405 0 .0949.02652.1396v.0488c-.06141.1005-.15633.1173-.29731.0517-.00674-.0054-.01232-.0121-.01641-.0197-.00408-.0076-.00659-.016-.00737-.0246-.00079-.0086.00017-.0173.00282-.0255.00265-.0082.00693-.0158.01258-.0223-.30011.3754-.8096.2791-.96035-.0196-.00902-.0176-.01695-.0358-.02373-.0544-.00213-.0125-.00213-.0252 0-.0377.00107-.0126.0065-.0245.01536-.0335z" fill="#F17E39"/><path d="M4.50994 12.3344c-.01811-.0716-.02703-.1453-.02652-.2191.05165-.0489.11725-.0377.17867-.0391.30011 0 .60022.0097.90033 0 .07677 0 .13958-.014.13958-.1047.00381-.0151.01044-.0293.01954-.0419.00488-.0057.01134-.0098.01854-.0117.00721-.002.01485-.0018.02194.0005.05444.0726.03071.1536.02932.2331-.0019.0143-.00517.0283-.00978.0419-.00837.0265-.01814.0531-.02791.0796-.00728.0209-.01943.0398-.03545.0551-.01602.0153-.03545.0265-.05668.0328-.27.0143-.5407.0073-.8096-.0209-.01346-.0033-.02656-.008-.03908-.014-.01815 0-.01815-.0377-.05583 0-.03234.0327-.07594.0518-.12187.0533-.04594.0016-.09073-.0145-.1252-.0449z" fill="#F17939"/><path d="M4.69697 9.068c.07408-.33019.26997-.62029.54857-.81238-.05125.27866-.0788.56117-.08235.84449-.14649.03865-.30005.042-.44807.00977-.02094-.00279-.02653-.02094-.01815-.04188z" fill="#C3242F"/><path d="M4.69704 9.06812c.01457.01351.03231.02315.05158.02803.01926.00488.03945.00484.0587-.00012.11775-.01429.23679-.01429.35454 0l.05584.37688c.00837.06003-.03769.08096-.07957.08794-.12725.02536-.25692.0366-.38665.0335-.067 0-.13958-.02791-.11306-.12562-.01041-.13624.00962-.27308.05862-.40061z" fill="#CB2331"/><path d="M6.84526 8.53065c.10948-.01188.21993-.01188.32942 0 .09492.01954.13959-.02373.16192-.10609.05551.14431.0839.29764.08375.45226.02792.22752.02233.2345-.19682.24706-.03946.00755-.08028.00317-.11725-.01256-.02526-.01682-.04513-.04057-.05723-.0684-.00616-.01211-.0113-.02471-.01535-.03768-.02549-.10526-.06792-.20568-.12563-.29732-.01535-.06281-.08375-.10469-.06281-.17727z" fill="#C2242E"/><path d="M4.07178 15.4064c.07817.0489.15075 0 .22473-.0139.02652 0 .01954-.0433.02233-.0684.00506-.0043.0115-.0067.01815-.0067s.01309.0024.01815.0067c.03271.0722.05436.1489.06421.2275.00473.0184.00846.037.01116.0558.00381.0237.00941.047.01675.0698.00838.028.01815.0559.02792.0838.01675.0502.03071.1005.05165.1493.02093.0489.0335.074.05025.1103.00664.0166.01132.034.01396.0517.00497.0239.00824.0482.00977.0725-.00245.0129-.00823.025-.01675.0349-.0382.0284-.08405.0447-.13159.0467-.04754.0019-.09459-.0104-.13502-.0355-.00844-.0081-.01551-.0175-.02094-.0279.00159-.0028.00243-.0059.00243-.0091 0-.0032-.00084-.0063-.00243-.0091-.01675-.0153-.00837-.0404-.02513-.0558-.06973-.1824-.12846-.3689-.17587-.5583-.01403-.04-.02203-.0819-.02373-.1243z" fill="#FBCC37"/><path d="M8.31792 10.5156h-.55834c-.04885 0-.1005.0111-.13958-.0322.02093 0 .02652-.0153.0335-.0307.08963-.111.15437-.24.18983-.3782.17309.1395.36013.0614.54439.0335.00421.1391-.01952.2777-.0698.4076z" fill="#DC2436"/><path d="M7.87964 9.80651V9.3724c.06352-.03247.13385-.0494.20519-.0494.07134 0 .14167.01693.20519.0494.04963.08053.07841.17216.08375.2666.03071.22195.01815.2387-.20379.2373-.1033.00558-.21217.02233-.29034-.06979z" fill="#CF2332"/><path d="M8.93906 15.7318c.02094.0879.09213.0419.13959.0544.07119.0168.0991-.0363.13121-.0823-.0089.1014-.0324.2011-.06979.2959l-.04048.1396c-.01024.0096-.01828.0213-.02358.0343-.0053.013-.00773.027-.00713.041-.00838.0182 0 .0391-.00838.0587-.00837.0195-.01256.0279-.01814.0418l-.01257.028-.02791.0586c-.01012.0224-.02432.0428-.04188.06-.01.0088-.02074.0168-.0321.0237-.10609.0447-.21217.0922-.30849-.0195-.00264-.0138-.00264-.028 0-.0419.02575-.0617.05512-.1218.08794-.18.04461-.076.08111-.1565.10888-.2401.01954-.0531.03629-.1075.05304-.162.00865-.0381.02275-.0747.04188-.1088.00412-.0027.00887-.0042.01377-.0045.0049-.0002.00978.0008.01414.0031z" fill="#FBD03B"/><path d="M4.64125 9.46313c.00077.01378.00446.02724.01081.03949.00636.01224.01523.02301.02604.03158.01082.00857.02332.01476.0367.01815.01337.00338.02732.0039.04091.00152.12981 0 .25962-.01955.38944-.0349.01596-.00196.03119-.00782.04434-.01708.01314-.00925.02381-.0216.03104-.03596.03738.11166.08408.21998.13958.32384 0 .02652-.01256.05443-.04467.06002a.31114393.31114393 0 01-.05443 0c-.16032-.01168-.32126-.01168-.48157 0-.03639.00244-.07259-.00685-.1033-.02652-.01954-.01257-.00837-.04048-.02652-.05444-.0246-.10013-.02745-.20437-.00837-.3057z" fill="#D02332"/><path d="M7.09375 7.92772c-.06002.08933-.16192.05583-.24428.08235-.02212.00429-.04487.00429-.067 0l-.28754-.02652c-.06003-.03908-.06282-.10609-.08236-.16471-.00471-.02405-.01077-.04782-.01815-.07119-.00423-.01181-.0075-.02395-.00977-.03629-.00491-.01848-.00505-.03791-.00041-.05646.00463-.01856.0139-.03563.02693-.04963.11446.067.24288.02513.36293.04327.00908.00059.01818-.00072.02672-.00385.00855-.00312.01635-.00799.02291-.01429.00657-.0063.01175-.0139.01522-.02231.00347-.00841.00515-.01745.00494-.02655l.18844.2708c.01815.01117.00977.04187.03629.04746.00074.00734.00347.01434.0079.02025.00442.0059.01038.01049.01723.01325v-.00558z" fill="#B2222B"/><path d="M5.73142 11.9534v.1731c-.21497-.0335-.41876.0069-.62814 0-.20938-.007-.41876 0-.61976 0-.0245-.0499-.03648-.105-.03489-.1606.11864-.0795.24985-.0279.37548-.0404.06979 0 .13959.0097.2024-.0447.02931.0279.05723.0572.08654.0837.02103.0257.04841.0454.07942.0572.03101.0118.06457.0152.09733.01s.06358-.0189.08939-.0398c.02581-.0208.0457-.0481.0577-.079l.02233-.0335c.07817.06.19124.0126.2722.074z" fill="#F0713A"/><path d="M7.8796 9.80642c.13752.02939.27863.03833.41876.02652.05025 0 .07398-.02233.07398-.07258v-.12144c.04177.15229.04987.31186.02373.46758-.02932.0503-.05444.1047-.12982.0614-.02373-.0139-.05164.0084-.07677.0126-.09325.0146-.18859.0084-.27917-.0181-.05444-.014-.05444-.0503-.05863-.0894l.02792-.26658z" fill="#D62333"/><path d="M5.56524 7.64868c0 .05444.01815.11027.08236.08934.11745-.01865.2371-.01865.35455 0l.01256.01395c.00256.01197.00256.02434 0 .0363-.01536.05862-.05025.11027-.067.1689-.00363.01137-.00782.02255-.01257.0335-.00832.02509-.01485.05075-.01954.07677-.00742.04574-.02202.09003-.04327.13121-.01448.01685-.03331.0294-.05444.03629-.04594.01447-.09432.01959-.14227.01503-.04795-.00456-.0945-.01868-.1369-.04155-.03587-.18603-.02678-.37793.02652-.55974z" fill="#B4222B"/><path d="M7.0937 9.07356a.9897313.9897313 0 00.27917 0c.03211 0 .0349-.03489.03629-.06142.0014-.02652 0-.08933 0-.13958.05009.28421.0008.57699-.13958.82914-.1033.05444-.16192.02373-.17728-.09213.00189-.09345-.00465-.18689-.01954-.27917 0-.07398-.02233-.14657-.01954-.22194.00392-.00833.00955-.01575.01652-.02176.00698-.00601.01514-.01049.02396-.01314z" fill="#CB2331"/><path d="M8.7185 11.9535h-.44388c-.04327 0-.09212.0139-.12423-.0293l.16471-.296c.10948-.0169.22072-.0192.33082-.0069.02222-.002.0445.003.06376.0142.01926.0113.03454.0282.04372.0486v.0809c-.01675.0224-.00977.0503-.01117.0754-.00139.0251.00698.0796-.02373.1131z" fill="#EE643A"/><path d="M4.18059 13.6896c.0189-.1147.05416-.2261.10469-.3308.1193-.0223.24234-.0137.35734.0251.04885.0754-.00977.1396-.02234.208-.02247.0788-.06202.1518-.11585.2136-.03932.02-.08254.0313-.12665.033-.04411.0017-.08805-.0063-.12879-.0233-.06421-.0181-.1005-.0544-.0684-.1256z" fill="#F7AF37"/><path d="M8.28861 9.37255h-.41876c-.02931-.17588-.04048-.35175-.05723-.55834.21336.13152.37989.32686.47599.55834z" fill="#C82532"/><path d="M5.54297 8.20679h.29871c.05025.05304.0335.11446.02233.17448-.01792.06817-.01792.13981 0 .20798.01016.05584.01016.11306 0 .1689-.05443.10888-.12004.1005-.19402.02094-.07651-.18155-.11955-.37544-.12702-.5723z" fill="#BC232D"/><path d="M4.18055 13.6897c0 .0335 0 .0726.04607.0837.08948.0365.18968.0365.27917 0 .05583.1117-.03211.1983-.04886.2974-.00944.0341-.03071.0638-.06002.0837-.11027 0-.22194.0461-.33221 0 .01791-.1594.05686-.3157.11585-.4648z" fill="#FABD35"/><path d="M4.70404 11.1562c.0504.0576.08587.1266.10329.2011.00613.0079.01035.0172.01234.027.00199.0099.00169.02-.00088.0297-.00256.0097-.00731.0187-.0139.0263-.00658.0076-.01482.0136-.02408.0175-.08711.0235-.17812.0289-.26742.0159-.0893-.0129-.175-.044-.25184-.0913-.03747-.0585-.06527-.1226-.08235-.1899.17396-.0236.34928-.0357.52484-.0363z" fill="#EC453A"/><path d="M9.21406 14.0402c-.01395.1396-.01535.1396-.14796.1396-.05281.006-.10623-.0037-.15354-.028-.04571-.0515-.07953-.1125-.09907-.1786-.01954-.0661-.02432-.1357-.01399-.2038.11864.0237.24567-.0433.36152.0279.03571.0759.05384.159.05304.2429z" fill="#FABD35"/><path d="M4.2616 11.3839c.15773.0922.32942.0433.49553.0503.05025 0 .04885-.0419.05025-.0768.04493.0727.07395.154.08514.2387v.0265c-.09771.1173-.46621.1033-.54996-.0209-.03661-.0686-.06384-.1419-.08096-.2178z" fill="#EE543A"/><path d="M4.64401 13.3954c-.10135-.0056-.20294-.0056-.30429 0-.02234 0-.04188-.0126-.05444-.0335.0242-.1203.06214-.2374.11306-.349.10609.0433.2359-.0139.33222.074.01285.0181.02057.0393.02233.0614-.01675.0838-.01815.1871-.10888.2471z" fill="#F6A238"/><path d="M6.08587 9.6962c0 .01675 0 .03909-.00837.05165-.05025.06142-.12144.02512-.18426.0321-.06281.00698-.10189.01117-.11027-.06002-.00238-.00297-.00367-.00666-.00367-.01047 0-.0038.00129-.0075.00367-.01047.01954-.02791.00698-.06421.02094-.09352v-.23171c.05304-.06142.13121-.06421.201-.08934.05584.02513.05165.08236.07119.12703.02792.09352.07817.19123.00977.28475z" fill="#CF2332"/><path d="M7.19843 10.4612c0 .0475-.03908.0531-.07677.0517h-.30569c-.06421-.1033 0-.1926.03071-.2876.02512-.0474.04048-.1019.09491-.127.0684.0168.11726-.0377.17867-.0461 0 .0349 0 .0698-.01256.1047-.00924.0543-.00587.11.00987.1628.01573.0527.0434.1012.08086.1415z" fill="#DC2536"/><path d="M6.00351 9.2901c0 .02932-.01535.05444-.04746.05305-.04723.00608-.0939.01588-.13958.02931-.03227-.20221-.07891-.40186-.13959-.59743.11027.04328.12144.04188.16471-.02791.00247-.00249.0054-.00447.00864-.00582.00323-.00135.0067-.00204.01021-.00204.0035 0 .00697.00069.0102.00204.00324.00135.00617.00333.00864.00582.04327.09492.04467.2024.09492.29592.01396.08375.08096.15773.02931.24706z" fill="#C82530"/><path d="M4.34241 11.6016c.00972.009.01997.0174.03071.0251.17069.0515.35406.0411.51786-.0293.0275.0422.0456.0898.05304.1396.01396.0167.00698.0447.02931.0572-.04187.1033-.13958.0754-.21496.0824-.07537.007-.15913-.0084-.24008 0-.01318.0028-.0268.0028-.03998 0-.01319-.0027-.02564-.0083-.03656-.0162-.01092-.0078-.02006-.0179-.02683-.0296-.00678-.0116-.01103-.0246-.01249-.038-.03138-.0596-.05171-.1244-.06002-.1912z" fill="#EE613A"/><path d="M4.10096 11.0307c-.0335-.0502-.1005-.1046-.06979-.1591.03071-.0544.11585-.0586.18425-.06.06746-.0026.13456.0111.19556.0401.06101.0289.11412.0721.1548.126.00914.0081.01755.017.02512.0265 0 .014 0 .0279-.01116.0363-.07568.0334-.15776.0499-.24047.0482-.08272-.0017-.16406-.0215-.23831-.058z" fill="#EA283B"/><path d="M8.91539 13.0085c.03895.077.06623.1593.08096.2443.02652.0866-.02932.1131-.09632.1215-.0828.0182-.16925.0099-.24706-.0238-.0448-.035-.07631-.0842-.08934-.1396-.00837-.0251-.01535-.0516-.02233-.0781-.00233-.0129-.00233-.0262 0-.0391.00445-.0122.01345-.0222.02512-.0279.11307-.0545.24148.0195.34897-.0573z" fill="#F6A239"/><path d="M8.7799 12.5439c.03728.0975.06441.1985.08096.3016.00377.007.0057.0148.00563.0228-.00008.008-.00216.0158-.00605.0228-.0039.0069-.00948.0128-.01624.017-.00675.0042-.01446.0067-.02242.0071-.11167 0-.22892.0461-.33361-.0307-.03617-.0695-.0589-.1453-.067-.2233-.00656-.0343-.00114-.0698.01535-.1005.05389.0268.11376.0394.17388.0364.06012-.0029.11848-.0212.1695-.0532z" fill="#F3913A"/><path d="M4.69702 10.1345c.02513.0098.0335.0475.06421.0433.04412-.0048.08762-.0142.12982-.0279.02931-.0098.02372-.0433.02652-.0698-.00382-.0495-.00053-.09937.00977-.14797.04885.02233.04327.06002.04467.09357-.00011.1282.01157.2563.03489.3824.00037.0356.00364.0711.00977.1061.00294.0143.00294.029 0 .0433-.05444.0698-.11306.0893-.17867.0125-.01256-.0167-.00837-.0404-.02373-.0572-.06017-.1186-.09982-.2465-.11725-.3783z" fill="#DA2635"/><path d="M9.161 13.8015c-.0831-.0057-.16658.0023-.24706.0237-.05165.0224-.07957-.0209-.11167-.0488-.07957-.0433-.07677-.1256-.09911-.1968-.00121-.0106.00033-.0213.00449-.0311.00416-.0098.01079-.0183.01924-.0248.11684.005.23387-.003.34897-.0237.0436.0956.07232.1972.08514.3015z" fill="#F7B336"/><path d="M4.10095 11.0306c.02094.007.04746.028.06282.021.12981-.0573.268.0516.39502-.0238.01083-.0091.02109-.0189.03071-.0293.05173.0389.09141.0917.11446.1522 0 .0405-.02233.067-.07119.0558-.05464-.0189-.11262-.0264-.17028-.0218-.05765.0046-.11374.021-.16472.0483-.04746.0294-.07677-.0335-.11865-.0446-.03561-.0473-.06212-.1008-.07817-.1578z" fill="#EB363A"/><path d="M8.75345 11.6838c-.08794-.0488-.18285-.0195-.27917-.0293-.05583 0-.11585.0223-.16471-.0265.01377-.0686.04028-.1339.07817-.1926.07817-.0126.15773-.0168.23729-.0266.02825-.0069.05797-.0049.085.0059.02703.0107.05002.0297.06576.0542.00597.0724-.0016.1453-.02234.2149z" fill="#EE563B"/><path d="M4.45139 12.813c.01009-.1021.02782-.2034.05305-.3029.15633.0824.15633.0824.29452-.0768.07677.0782.03909.1759.04607.2667.0016.0572-.01832.113-.05584.1563-.09381.0401-.19904.0446-.29592.0126-.0069.0004-.01379-.001-.02006-.0039-.00626-.0029-.01171-.0073-.01586-.0128-.00415-.0056-.00686-.012-.0079-.0189-.00104-.0068-.00037-.0138.00194-.0203z" fill="#F38F39"/><path d="M9.07731 13.4998c0 .0279-.01535.0558-.04885.0558-.10282.0159-.20793.0078-.30709-.0237-.03855-.0193-.06835-.0526-.08338-.093-.01502-.0404-.01416-.085.00242-.1248.09212.033.19128.0412.28755.0237.04746 0 .06281-.0418.06839-.0851.04008.0775.06742.1609.08096.2471z" fill="#F6AB38"/><path d="M4.8324 10.5687c.0128.009.02727.0155.04258.0189.0153.0034.03114.0038.04659.0011.01544-.0028.0302-.0085.0434-.017.01321-.0085.02461-.0195.03353-.0324.00462-.0035.01026-.0054.01606-.0054.00579 0 .01143.0019.01605.0054.00783.0091.01398.0195.01815.0308.00626.0286.01514.0567.02652.0837.02652.0586.04327.1214.07537.1787.0161.033.03008.0671.04188.1019.00727.018.01288.0367.01675.0558.0025.0134.0025.0271 0 .0405-.04327.0809-.08934.0349-.13959 0 0-.0182-.01256-.0251-.02373-.0335-.09415-.1302-.1663-.275-.21356-.4285z" fill="#E42739"/><path d="M8.77989 11.4687c-.07062-.0305-.14974-.0349-.22333-.0126-.02645.0132-.05622.0183-.08554.0146-.02932-.0038-.05687-.0161-.07917-.0355.02233-.0154.01675-.0419.02652-.0628.01243-.0668.04174-.1293.08514-.1815.10609.0363.21776 0 .32384.0279.00209.048-.00699.0958-.02652.1396-.02792.0335 0 .0782-.02373.1117l.00279-.0014z" fill="#EC473B"/><path d="M4.40259 11.7915c.01307.024.03468.0422.06054.051.02585.0087.05406.0075.07904-.0035.05916-.0145.12092-.0145.18007 0 .08694.0106.17506-.0054.25265-.0461.02524.0215.04327.0503.05165.0824 0 .0418.02373.0865-.05444.0851h-.52345c-.02855-.0518-.04434-.1097-.04606-.1689z" fill="#EF693B"/><path d="M4.45141 12.8132c.10493.0401.21873.0512.32942.0321.05025.0559.01675.1117 0 .1689-.00848.0243-.02177.0466-.03908.0656l-.01675.0098c-.07176-.0285-.14973-.0376-.22613-.0265-.04467 0-.09492 0-.1019-.0586.005-.0668.02353-.1319.05444-.1913z" fill="#F59839"/><path d="M4.78077 12.4434c0 .1703-.01675.1814-.18146.1647-.02457.0004-.0483-.0089-.06606-.0259-.01776-.017-.02812-.0403-.02886-.0648v-.1815c.09213 0 .19263.0377.26382-.06 0 0 .02652.0181.03211.0349.00813.0219.0106.0456.00718.0688-.00341.0232-.0126.0451-.02673.0638z" fill="#F28539"/><path d="M8.50498 12.8792c.10329.0335.20938-.0126.31267.014.01815 0 .0335-.0266.04327-.0475.03032.0496.04894.1055.05444.1633-.00698.0489-.02652.0977-.08235.081-.07293-.0213-.15041-.0213-.22334 0-.01396 0-.0335-.0112-.04886-.0182-.01653-.0087-.03113-.0207-.04294-.0352-.0118-.0145-.02057-.0313-.02578-.0493-.00521-.0179-.00675-.0368-.00454-.0553.00222-.0186.00814-.0366.01743-.0528z" fill="#F59938"/><path d="M7.76929 11.9015c0 .0168 0 .0391-.02512.0433-.08202.0163-.16644.0163-.24846 0-.01815 0-.01955-.0265-.02373-.0447-.04327-.0488-.02234-.0991 0-.1493l.03071-.0698c.00548-.0111.01307-.0211.02233-.0293.01182-.0037.02447-.0037.03629 0 .05584.0363.12702.0237.18425.0586l.02373.1912z" fill="#EE653A"/><path d="M5.73142 11.9534h-.19821c-.06561 0-.07398-.0349-.07398-.0838v-.1577c.04187-.0712.12004-.0377.17867-.0642.01287.0012.02482.0072.0335.0168.04467.0823.11167.1577.06142.2624l-.0014.0265z" fill="#EF663A"/><path d="M8.77994 12.5437c0 .0502 0 .1089-.08375.0768-.0335-.014-.06142 0-.09073.0111-.10888.0168-.10888.0168-.15355-.0795-.01003-.0087-.01809-.0194-.02361-.0314-.00552-.0121-.00838-.0252-.00838-.0384 0-.0133.00286-.0264.00838-.0384.00552-.0121.01358-.0228.02361-.0314.04904.0209.10261.0289.15563.0233.05301-.0056.10371-.0247.14727-.0554.02194.0514.03058.1076.02513.1633z" fill="#F2853A"/><path d="M7.12021 10.0522c-.0684.0949-.0684.0949-.16611.0544v-.0153c.00126-.01.0036-.0199.00698-.0293l.01256-.0294c0-.0153.00977-.0307.01396-.04742.01351-.05117.03125-.10112.05304-.14935.00976-.02212.01769-.04499.02373-.0684 0-.01256 0-.02512.00978-.03629.02372-.04746-.01117-.12423.06979-.13959.00977.10748.00977.10748.13958.11307-.04826.11865-.10278.23467-.16331.34758z" fill="#D42635"/><path d="M8.82884 11.2204c-.09234.032-.19137.0397-.28754.0223-.02373 0-.03211-.0265-.0363-.0502.00673-.0046.01235-.0106.01645-.0176.00411-.007.0066-.0148.00728-.0229.01404-.0492.04337-.0927.08376-.1242.0858-.009.17218.0106.24567.0558.00377.0475-.00642.095-.02932.1368z" fill="#EB383D"/><path d="M8.85675 11.0852c-.08568.007-.17145-.0125-.24567-.0559.01256-.0063.0221-.0173.02653-.0307.00746-.0024.01413-.0068.01929-.0127.00516-.0059.00863-.0131.01002-.0208.06895-.0846.16432-.1436.27079-.1675-.01073.0691-.02995.1366-.05723.201-.00868.0202-.01523.0413-.01954.0628.00315.0006.00595.0024.00778.005.00183.0026.00255.0058.00199.009-.00055.0031-.00233.0059-.00495.0078-.00262.0018-.00586.0025-.00901.002z" fill="#EA2B3D"/><path d="M7.98713 10.8129c.01256-.0224.02931-.0545.05723-.0321.04805.0292.1049.0406.16052.0321-.02017.0682-.0544.1314-.1005.1856-.02373.0098-.01954.0377-.0335.0544-.00558.0111-.01335.021-.02283.029-.00948.008-.02049.014-.03235.0177-.01187.0036-.02434.0048-.03669.0035-.01234-.0013-.0243-.005-.03515-.0111-.0092-.0071-.01602-.0168-.01954-.0279.00078-.0227.00454-.0452.01116-.067.0025-.0109.00576-.0216.00977-.0321l.01536-.0461c.00977-.0307.01535-.0628.02373-.0949l.00279-.0111z" fill="#E92439"/><path d="M7.74281 11.7104c-.11166.014-.14935 0-.18983-.0544v-.0167c.00032-.0171.00314-.034.00837-.0503.00861-.0275.02081-.0538.0363-.0782.00714-.0091.01561-.0171.02512-.0237l.01675-.007c.01156-.0018.02334-.0018.0349 0 .04187.0154.08933-.0125.13121.014l-.06282.2163z" fill="#EF5B3C"/><path d="M7.80426 11.494c-.04885.0126-.09771.0544-.13958 0l-.00977-.0154v-.0181c.0027-.0119.00644-.0236.01116-.0349l.00838-.0168.00837-.0167c.04328-.0572.06003-.1396.14936-.1535.03886-.0008.07647.0137.10469.0404-.03772.0755-.0821.1474-.13261.215z" fill="#ED4C3C"/><path d="M5.07104 11.0347c.04188 0 .1019.0614.11865-.0335.07677 0 .07538.081.11446.1187.00848.0149.01504.0309.01954.0474l.01117.0307.01256.0307c.00546.0158.00875.0322.00978.0489-.00158.0117-.00698.0225-.01536.0307-.04885.0335-.07817 0-.10888-.0321-.00457-.0132-.01341-.0245-.02512-.0321l-.02233-.0279c-.04928-.0527-.08812-.1143-.11447-.1815z" fill="#EC3A3C"/><path d="M5.2373 11.2778c.03909 0 .07957.0489.11586 0 .07677 0 .08515.067.12144.1089l.02233.0307c.00574.0104.01087.0211.01536.0321.00789.0163.01308.0337.01535.0517-.00186.0122-.00775.0235-.01675.0321-.05583.0349-.09631 0-.13958-.0349-.0061-.0108-.0131-.0211-.02094-.0307-.04439-.0591-.08229-.1227-.11307-.1899z" fill="#ED4D3E"/><path d="M5.37402 11.4941c.04746.0126.09492.0516.13959 0 .06421-.0098.07398.0433.09631.0824.00763.021.01187.0432.01257.0656v.0167c0 .0168-.00838.0433-.02653.0363-.05164-.0195-.09212.0181-.13958.0209-.02094-.0237 0-.0614-.02513-.0837-.02795-.0419-.0474-.0888-.05723-.1382z" fill="#EE593B"/><path d="M7.934 11.2778c-.03908 0-.08236.0125-.11027-.0307-.00232-.0043-.00354-.0091-.00354-.014s.00122-.0097.00354-.014c.00427-.0093.00941-.0181.01535-.0265l.00838-.0125c.00702-.0145.01309-.0294.01814-.0447.01815-.0321.01955-.081.07538-.0754.04606.0544.09213.0182.13959 0-.02197.0618-.05723.118-.1033.1647-.02512.0084-.01954.0377-.0349.0531H7.934z" fill="#EC3A3D"/><path d="M8.7186 11.9533v-.1395c.00744-.0121.01442-.0121.02093 0v.515c-.04327-.0391-.01814-.0907-.02652-.1396.00466-.0753.00652-.154.00559-.2359z" fill="#F2853A"/><path d="M4.64535 9.78003c.00907.00569.01636.0138.02105.02342.00469.00963.00658.02037.00547.03102v.13958c-.02618-.0611-.03534-.12814-.02652-.19402z" fill="#DA2635"/><path d="M4.04792 15.2715c.04327.0391.02094.0907.02512.1396-.0253-.0419-.03425-.0916-.02512-.1396z" fill="#FBCC37"/><path d="M4.6719 9.99805c.04606.03905.02233.09075.02652.13955-.0241-.0423-.03343-.0914-.02652-.13955z" fill="#DA2635"/><path d="M8.77849 11.4691c0-.0391-.01536-.081.02372-.1117.00414.0193.00417.0391.00008.0584-.00409.0192-.0122.0374-.0238.0533z" fill="#EE563B"/><path d="M5.59176 7.53955c0 .0335.01116.06979-.02373.09352-.00309-.01637-.00257-.03323.00153-.04938.00409-.01615.01167-.03122.0222-.04414z" fill="#B4222B"/><path d="M5.43263 11.6279c.0321.021.02652.0531.02512.0838-.01031-.0111-.01794-.0245-.0223-.039-.00435-.0145-.00532-.0298-.00282-.0448z" fill="#EF663A"/><path d="M5.80952 9.60254c0 .0335.01116.0684-.02094.09352-.00304-.01619-.00275-.03283.00085-.04891.0036-.01608.01044-.03126.02009-.04461z" fill="#D62333"/><path d="M8.86091 11.067c-.00339-.0113-.00335-.0232.00014-.0344.00348-.0112.01024-.0211.01941-.0284.00242.0112.00189.0229-.00154.0339-.00342.011-.00962.021-.01801.0289z" fill="#EB383D"/><path d="M8.0708 11.0601c0-.0252 0-.0461.0335-.0545-.0002.0113-.00341.0222-.00931.0318-.00589.0096-.01424.0174-.02419.0227z" fill="#EC3A3D"/><path d="M4.9734 11.7901c-.02652-.0111-.02931-.0335-.02931-.0572.00896.0067.01626.0153.02134.0252.00508.0099.00781.0209.00797.032z" fill="#EF693B"/><path d="M8.74361 11.8193h-.02094c-.00174-.0104-.00042-.021.00379-.0307s.01114-.0179.01994-.0237l-.00279.0544z" fill="#F0733A"/><path d="M7.93408 11.2777c0-.0252 0-.0461.0349-.0531-.00121.011-.005.0215-.01107.0307-.00606.0092-.01423.0169-.02383.0224z" fill="#ED4C3C"/><path d="M4.80872 10.5142c.0093.006.01656.0146.0208.0249.00424.0102.00526.0215.00293.0323-.00931-.006-.01656-.0147-.0208-.0249-.00424-.0102-.00527-.0215-.00293-.0323z" fill="#E42739"/><path d="M4.26428 16.085c.00893.006.016.0145.02043.0243.00444.0099.00606.0208.0047.0315h-.02513v-.0558z" fill="#FAFAFA"/><path d="M8.41973 11.374c0 .0265 0 .0503-.02652.0628-.00146-.0118.00022-.0239.00488-.0349.00465-.011.01211-.0206.02164-.0279z" fill="#EE563B"/><path d="M7.07133 7.89975c-.02792 0-.0335-.02373-.0363-.04746.00959.00417.01796.01072.02431.01902.00635.00831.01048.0181.01199.02844z" fill="#B8222C"/><path d="M5.35729 11.4663l.02094.0307c-.00665-.0016-.01246-.0057-.01632-.0113-.00386-.0057-.00551-.0126-.00462-.0194z" fill="#EE593B"/><path d="M5.21765 11.2483c.00692.0022.01302.0065.0175.0122.00448.0057.00714.0126.00763.0199-.00714-.0018-.01347-.006-.01801-.0118-.00454-.0058-.00705-.0129-.00712-.0203zM5.19255 11.2207l.02234.0279c-.00331-.0003-.00652-.0013-.00943-.0029-.00292-.0016-.00549-.0038-.00757-.0064-.00208-.0026-.00362-.0056-.00454-.0087-.00091-.0032-.00118-.0066-.0008-.0099z" fill="#ED4D3E"/><path d="M8.52719 11.1536c.00019.0082-.00193.0164-.00612.0236-.0042.0071-.01029.013-.01761.0168-.00036-.0083.00169-.0165.0059-.0237.00421-.0072.0104-.013.01783-.0167z" fill="#EC473B"/><path d="M7.65899 10.4514c-.00126.0082-.00526.0157-.01135.0213-.00609.0055-.01391.0089-.02215.0094.00203-.0078.00628-.0148.01222-.0203.00594-.0054.01333-.009.02128-.0104z" fill="#E22437"/><path d="M4.5892 10.9997l-.02609-.0275c.00693.0007.01339.0038.01818.0089.00479.005.0076.0116.00791.0186z" fill="#EB363A"/><path d="M8.66408 10.9663c-.0007.008-.00391.0155-.00918.0215-.00527.0061-.01232.0103-.02013.012.00124-.0078.00465-.015.00983-.021.00519-.0059.01194-.0102.01948-.0125z" fill="#EB383D"/><path d="M5.0502 10.9985c.00711.0022.0133.0067.0176.0127.0043.0061.00645.0134.00613.0208-.00711-.0021-.0133-.0066-.0176-.0127-.00429-.006-.00645-.0133-.00613-.0208z" fill="#EC3A3C"/><path d="M8.63761 10.9985c-.00104.0072-.00408.0138-.00878.0193-.0047.0054-.01086.0094-.01775.0114.00067-.0072.00359-.0141.00834-.0196.00476-.0055.01112-.0093.01819-.0111z" fill="#EB383D"/><path d="M7.09373 7.92779c-.00725-.00212-.01362-.00652-.01815-.01257-.00453-.00604-.00698-.01338-.00698-.02093.00714.0023.01339.00676.01789.01276.00449.006.00702.01324.00724.02074z" fill="#B8222C"/><path d="M18.4281 14.0067v-.081c0-.0265-.0182-.0656-.0642-.0642h-.2038c-.0358-.0024-.0717-.0024-.1075 0-.0475 0-.0153.0782-.0642.0894l-.0991-.0475c-.127-.0666-.2664-.1061-.4094-.1158-.1431-.0098-.2866.0103-.4214.059-.1349.0487-.2581.125-.3619.2239-.1037.0989-.1858.2184-.2409.3508-.1328.3247-.1706.6805-.1088 1.0259.0162.1464.0597.2885.1284.4188.0545.1151.1353.2158.2359.2939.1007.0781.2183.1314.3434.1555.1419.0326.2892.0346.4319.0057.1428-.0289.2777-.0879.3958-.1732.0363-.0265.0656-.0739.1242-.067.0065.1287.0009.2577-.0167.3853-.0086.1166-.0574.2265-.1381.3111-.0807.0845-.1883.1384-.3044.1523-.1771.0283-.3579.0236-.5332-.0139-.1536-.0308-.2122-.0838-.4914-.1396v.402c0 .0502.0629.0544.095.0628.323.089.6612.109.9924.0586.1752-.0224.3397-.0967.4722-.2134.1326-.1167.2273-.2703.2718-.4412.0475-.1657.071-.3372.0698-.5095.0014-.7063.0042-1.4168.0042-2.1287zm-.4983 1.7462c-.2049.1467-.458.2096-.7077.1759-.0793-.0114-.1542-.043-.2176-.092-.0633-.0489-.1129-.1134-.144-.1872-.0348-.0735-.0593-.1515-.0725-.2317-.0414-.2181-.0414-.4421 0-.6602.0865-.4188.3615-.6184.7816-.5751.1258.0159.2486.0502.3644.1019.0233.0073.0433.0227.0563.0434.013.0207.0183.0454.0148.0696v1.1949c.0046.0312-.0001.063-.0135.0916-.0134.0285-.0349.0525-.0618.0689zM11.6387 12.8789c-.2192 0-.2792 0-.2792.2206v.8375c0 .0083-.0377-.0266-.0782-.0447-.2052-.1006-.4386-.1282-.6616-.0782-.1418.0325-.2745.0965-.3881.1874-.1136.0909-.2052.2062-.26796.3375-.16527.3244-.22482.6924-.17029 1.0524.01662.2312.08687.4554.20519.6547.05826.1024.13856.1904.23516.2578.0966.0674.207.1124.3232.1316.1342.0249.2721.0207.4046-.0123.1324-.033.2562-.094.3631-.1789l.1396-.1117v.1675c0 .0475.0139.0838.0754.081.0614-.0028.1535 0 .2303 0 .1172 0 .1298 0 .1312-.1186 0-.0224.0126-.0447.0126-.0684v-3.1016c.0041-.2136-.0629-.2136-.275-.2136zm-.1689 2.1678v.6239c.0028.0288-.0023.0579-.0149.084-.0125.0261-.032.0482-.0563.064-.1686.1395-.3787.219-.5974.2261-.1049.0045-.2085-.0248-.2954-.0836-.087-.0589-.1527-.144-.1876-.243-.0472-.1222-.0763-.2505-.0866-.3811-.0244-.2069-.0107-.4164.0405-.6184.0304-.1696.1264-.3204.2672-.4197.1409-.0993.3152-.1391.4852-.1107.1261.0125.2495.0445.3657.0949.0257.0069.0481.0228.0629.0449.0149.0221.0213.0488.0181.0752-.0042.2163-.0014.4327-.0014.6435z" fill="#790208"/><path d="M26.1876 14.7003c-.0262-.2216-.1121-.4319-.2484-.6086-.0595-.0765-.1336-.1406-.2179-.1885-.0843-.0479-.1772-.0787-.2735-.0906-.2259-.0354-.4571.0095-.6532.127-.0838.0516-.162.1103-.2513.1717-.0166-.059-.0219-.1206-.0154-.1815 0-.046-.0209-.0642-.067-.0628h-.2037c-.1689 0-.1508-.0195-.1508.1522v3.1378c.0012.0228.0012.0456 0 .0684 0 .0614.0112.0922.081.088.086-.0052.1722-.0052.2582 0 .0684 0 .0837-.0266.0837-.088v-.8012c-.0052-.0472.0005-.095.0168-.1396.0572.0265.1061.0517.1549.0712.4509.1787 1.0051.1187 1.3275-.4536.0506-.0908.09-.1873.1172-.2876.0783-.2984.0926-.61.0419-.9143zm-.4774.871c-.0356.1472-.1235.2764-.2472.3637-.1238.0873-.275.1267-.4256.1109-.1441-.006-.286-.0382-.4187-.0949-.0293-.0087-.0544-.0275-.0711-.0531-.0166-.0256-.0236-.0562-.0197-.0865V15.2v-.5974c-.0032-.0379.0045-.076.0224-.1097.0178-.0337.0449-.0615.0782-.0801.179-.1404.4021-.2126.6295-.2038.0819.0034.1615.0286.2305.073.0689.0444.1248.1064.1617.1796.0516.096.0851.2005.0991.3085.0474.2666.0345.5403-.0377.8012h-.0014zM28.4685 16.2274V14.678c0-.0586 0-.1172-.0083-.1759-.0053-.1557-.0635-.305-.165-.4233-.1015-.1182-.2402-.1983-.3934-.2271-.3876-.0796-.7889-.0624-1.1683.0502-.0335.0084-.0586.0196-.0586.0614v.3672c.0195.0083.0237.0125.0265.0125l.1158-.0377c.2744-.1098.5728-.1459.8655-.1047.0534.004.1055.0187.153.0434.0476.0246.0897.0587.1237.1.0341.0414.0594.0892.0744.1406.0151.0514.0196.1053.0132.1585 0 .0684-.0251.0838-.0852.0852-.113 0-.2261.0153-.3378.0265-.2444.0133-.4847.0686-.7105.1633-.1031.0427-.1947.109-.2674.1937-.0727.0846-.1246.1851-.1513.2935-.026.1106-.0336.2247-.0223.3378.0141.191.1005.3695.2416.4991.141.1297.3261.2007.5177.1988.2465.0062.4873-.0748.6798-.2289.0402-.0383.0877-.0682.1396-.088v.1857c0 .0572.0195.0642.0656.0628h.2791c.0531 0 .074-.0195.0712-.0712 0-.0195.0014-.0461.0014-.074zm-.3587-.663c0 .2136-.0321.2136-.2136.335-.0941.0676-.2013.1149-.3147.1389-.1135.0241-.2306.0243-.3441.0007-.0731-.0101-.1414-.0422-.1957-.0921-.0544-.0499-.0923-.1151-.1086-.1871-.0264-.0774-.0303-.1607-.0113-.2403.019-.0795.0602-.1521.1188-.2092.0887-.0686.1917-.1163.3015-.1395.2519-.0557.5084-.0874.7663-.095l.0014.4886z" fill="#212121"/><path d="M15.8959 14.5763c.0084-.1793-.0512-.3551-.1669-.4922-.1157-.1372-.2789-.2256-.457-.2476-.3679-.0593-.7443-.0374-1.1028.0642-.046.0112-.0684.0307-.067.0824v.3531c.0224 0 .0279.0098.0321.0084l.1159-.0391c.2706-.1075.5643-.1436.8529-.1047.2624.0461.3601.1675.3713.4355 0 .0726-.0168.0921-.088.0963-.18.0112-.3601.0307-.5402.0517-.1948.0191-.3843.075-.5583.1647-.0954.048-.1784.1173-.2428.2025-.0644.0852-.1083.184-.1285.2888-.0253.1295-.0253.2627 0 .3923.032.169.1212.3219.2526.433.1314.1111.297.1735.469.177.2601.0118.5152-.0733.7161-.2387.0321-.0266.06-.067.1089-.0629.0307.0768-.0293.1815.0363.222.0656.0405.1493.0112.2261.0126.027-.0015.054-.0015.081 0 .074.0097.0907-.0252.0907-.0936 0-.5639.0056-1.1348-.0014-1.7057zm-.5709 1.3079c-.0963.0753-.2081.1283-.3273.1554-.1192.027-.2429.0273-.3623.0009-.0834-.0151-.1587-.0593-.2126-.1247-.0539-.0654-.0829-.1478-.0819-.2326-.0165-.0971.0017-.197.0515-.282.0497-.085.1279-.1497.2207-.1828.0864-.0399.1781-.0672.2722-.081.1689-.0279.3406-.0446.5109-.0586.06 0 .0823.0112.0796.0726v.2708c-.0051.0585-.0051.1173 0 .1759.0099.0576.0005.1169-.0268.1687-.0272.0517-.0708.093-.124.1174zM21.0621 14.685c-.0401-.2589-.1748-.4936-.378-.6589-.2031-.1653-.4604-.2493-.722-.2359-.2235-.0047-.4426.0628-.6247.1926-.1821.1298-.3174.3148-.3859.5277-.1326.3891-.1326.8113 0 1.2004.0458.1598.1304.3058.2464.4249.1159.1191.2595.2076.418.2577.1434.0426.2934.0586.4425.0474.2009-.0011.3967-.0626.562-.1767.1654-.114.2925-.2752.3649-.4626.0858-.215.1267-.4455.12-.6769.0002-.1477-.0143-.295-.0432-.4397zm-.4677.9505c-.0238.0803-.0635.1551-.1167.2198-.0531.0648-.1187.1182-.1928.1573-.0742.039-.1554.0628-.2389.0699-.0834.0072-.1675-.0024-.2472-.0282-.0986-.0264-.1889-.0776-.2622-.1487-.0733-.0711-.1272-.1597-.1566-.2575-.08-.2408-.1044-.4966-.0711-.7482.009-.131.0406-.2594.0935-.3797.0478-.1134.1296-.2093.234-.2745.1045-.0652.2265-.0966.3494-.0898.1231-.0065.2452.0257.3491.092.1038.0663.1844.1635.2302.2779.0759.1847.1093.3841.0977.5835.0094.1781-.0138.3564-.0684.5262z" fill="#790208"/><path d="M6.41123 7.60508v.13958c-.05347.04264-.1192.067-.18754.06951-.06834.00252-.13568-.01695-.19214-.05555-.00725-.00966-.01116-.02142-.01116-.0335s.00391-.02383.01116-.0335c.01675-.01396.01257-.03908.02792-.05444l.08096-.10887c.03985-.0178.08371-.02472.12711-.02006.0434.00466.08479.02073.11996.04658.00746.00606.01347.01373.01758.02242.00411.0087.00621.01821.00615.02783z" fill="#EB3F31"/><path d="M6.38598 7.55074c-.08314.00147-.16613-.00744-.24706-.02652.04401-.08259.09392-.1619.14935-.2373.01536-.02512.0349-.06002.07119-.04746.03629.01256.02233.05304.02373.08236.0014.07677.0014.15215.00279.22892z" fill="#E93531"/><path d="M6.05521 7.63306c.00115.0108-.00088.02171-.00584.03138-.00496.00967-.01263.01768-.02208.02306-.00115-.01081.00088-.02172.00584-.03139.00496-.00967.01263-.01768.02208-.02305zM6.03005 7.6875v.05304l-.01256.01117-.01396-.00977c-.00095-.01063.00101-.02132.00569-.03091.00467-.00959.01187-.01773.02083-.02353z" fill="#B4222B"/><path d="M8.72129 13.5849c.04886.0545.04467.1312.08096.1899l.10888.381v.0279c-.12842.0643-.26102-.0083-.39084.0098-.09489-.1633-.16542-.3397-.20938-.5234.04592-.0623.11319-.1054.18891-.1211.07573-.0157.15459-.0029.22147.0359z" fill="#FBD43F"/><path d="M8.53006 14.1852c.00451-.0076.01081-.014.01835-.0186.00754-.0046.01609-.0073.02492-.0079l.33779.0251c.03627.1793.06145.3606.07538.543-.08031-.0448-.17215-.0648-.26382-.0572-.07118 0-.07677.046-.07816.0977.00348.1164.00022.2329-.00977.3489-.01396.0252-.02094.0643-.06561.0377-.02675-.0479-.03751-.1032-.03071-.1577.00627-.2213-.00212-.4428-.02512-.663.00215-.0363.00215-.0726 0-.1089.00035-.0147.00635-.0287.01675-.0391z" fill="#FBDB45"/><path d="M8.58725 15.1625c.00896-.0058.01616-.0139.02083-.0235.00468-.0096.00664-.0203.00569-.0309.05998-.0257.12457-.039.18984-.039.06526 0 .12985.0133.18983.039.01675.1591-.0321.3127-.02931.4704 0 .0153-.01535.0307-.02373.0461-.13959-.0405-.30988.0097-.44528-.088-.01464-.1317.01801-.2643.09213-.3741z" fill="#FBE852"/><path d="M8.99344 15.108h-.37967v-.3531c0-.1396 0-.1494.13959-.1215.03021.0095.062.0128.09352.0098.01465-.0054.03032-.0074.04586-.0059.01553.0015.03054.0064.04392.0145.01338.008.02479.0189.03341.0319.00862.013.01422.0278.01639.0432 0 .1266.00233.2536.00698.3811z" fill="#FAE04B"/><path d="M8.50633 15.5421c.02094-.007.04327-.0307.06142-.0168.08235.0642.17867.0391.2694.0433.04327 0 .09352-.0098.1019.0558v.1075h-.02652c-.11426-.053-.24284-.0668-.36572-.0391-.0349 0-.067.0293-.10329.0098-.0127-.0297-.01323-.0631-.00148-.0931.01175-.0301.03484-.0543.06429-.0674z" fill="#FBEC5D"/><path d="M5.02502 10.569c-.00147-.0073-.00147-.0149 0-.0223-.02931-.0614.01256-.0768.05723-.0866.03828-.0068.07699-.011.11586-.0125.01297-.0017.02611-.0017.03908 0 .01258.0033.02475.008.03629.0139l.01675.0084c.02327.0096.04766.0162.07259.0196.13115.0278.26667.0278.39782 0l.08235-.0098c.01389-.002.02799-.002.04188 0 .26526.0378.53456.0378.79982 0 .04048 0 .09632-.0447.11167.0363-.00293.0928.0157.185.05444.2694.00178.0038.00272.0079.00275.0122.00003.0042-.00084.0083-.00256.0122-.00172.0038-.00425.0072-.00742.01-.00316.0028-.00688.0049-.01092.0061-.05468.021-.11322.03-.17169.0265H5.22742c-.03153-.0009-.06288-.0051-.09352-.0126-.04134-.057-.06861-.123-.07957-.1926-.02652-.0182-.00279-.0558-.02931-.0782z" fill="#F59834"/><path d="M6.79356 10.517c-.01116-.0069-.02373-.0237-.0321-.0209-.25544.0698-.51786.0335-.7761.0475-.05431-.0021-.10638-.0223-.14796-.0573.052-.1156.12984-.2178.22753-.2987.23869-.0167.47738-.007.71607-.0125.01803-.0013.03608.0019.05262.0092.01653.0073.03105.0185.0423.0326-.01256.1005-.07538.1913-.06142.2974l-.02094.0027z" fill="#F49134"/><path d="M6.84383 10.8129v-.0265c.08043.0309.16771.0396.25265.0251h.88777c.02792.0558-.0335.0851-.04048.1312-.01406.0254-.03414.047-.05848.0628-.02434.0158-.05219.0254-.08111.0279-.2359.014-.47319-.0083-.7077.014-.01434.0021-.02892.0021-.04327 0-.02066-.0048-.04045-.0128-.05862-.0237-.07119-.0545-.16192-.0977-.15076-.2108z" fill="#E92439"/><path d="M7.14403 9.58753c-.05164.04467 0 .12284-.05164.1675-.06935-.03241-.14546-.04773-.22195-.04466-.25265 0-.50529.00977-.75794-.00977h-.02513c-.00213-.10077-.01287-.20118-.03211-.30011-.03908-.13121.06282-.12005.13959-.12284.22613-.00837.45226 0 .67978 0 .08533-.01599.17357-.00063.24846.04327.0241.08669.03121.17722.02094.26661z" fill="#F17A33"/><path d="M6.05523 10.2154c-.05835.1008-.13232.1917-.21915.2694-.01396.0181-.04048.0139-.05723.0279-.14965.0425-.30819.0425-.45784 0-.01536-.0153-.04048-.0098-.05584-.0279l-.02931-.0237c-.06337-.0197-.11842-.0599-.15656-.1142-.03814-.0543-.0572-.1197-.05422-.1859.07137-.0259.1491-.0283.22195-.007.06142.0151.12561.0151.18704 0 .20579-.035.4162-.0326.62116.007.00386.0034.00695.0075.00907.0122.00212.0047.00321.0098.00321.015 0 .0051-.00109.0102-.00321.0149-.00212.0047-.00521.0089-.00907.0123z" fill="#DB2435"/><path d="M6.11108 9.70052c0-.01675 0-.04048.02932-.03908.28754.02093.57509 0 .86264.00837.06281 0 .09352.02094.08933.08515.00095.00835.00095.01678 0 .02512-.01675.01536-.01117.04048-.02373.05723l-.06002.18429c-.00372.0059-.00934.0103-.01594.0126s-.01378.0023-.02035-.0001c-.21078-.03626-.41876.0154-.63512-.0069-.07817-.0084-.16471.0237-.22473-.05449l-.0014-.27219z" fill="#F28433"/><path d="M6.11241 9.96982c.05203.02504.11055.03338.1675.02373.20124.00545.40263-.00155.60301-.02094.01999-.00543.04128-.00313.05965.00644.01837.00957.03246.02575.03945.04525.00291.0019.00514.0047.0064.0079.00125.0033.00145.0068.00058.0102v.0098c-.01675.0139-.01256.0391-.02791.0544l-.07817.1089c-.13386-.0089-.26815-.0089-.40201 0h-.42573v-.0545c.02532-.0617.04449-.1257.05723-.19118z" fill="#F38A33"/><path d="M5.02501 10.161c.03872.1204.11443.2254.21635.3001-.04315.0216-.09161.0304-.13958.0252-.04188 0-.06979.0139-.07398.0586h-.02513c.00126-.0088.00126-.0177 0-.0265-.02093-.0238 0-.06-.02373-.0824-.02095-.1031-.03447-.2076-.04048-.3127 0-.0349-.00977-.0739.02932-.0977.00622.0496.02603.0964.05723.1354z" fill="#F38F34"/><path d="M4.39963 14.156l.02792-.081c.05532-.0428.12246-.0677.19235-.0712.06989-.0034.13917.0146.19849.0517.02792.1396-.05025.2624-.067.395-.00838.0684 0 .148-.06002.201-.12284-.0544-.24847.0279-.3713 0 .00482-.1404.02495-.2799.06002-.4159.01396-.0266.01535-.0531.01954-.0796z" fill="#FBD944"/><path d="M4.3187 14.646c.08646-.0319.17733-.0503.2694-.0544.04327 0 .07956 0 .08515.0586.05394.1432.05933.3001.01535.4467-.0078.0135-.01927.0247-.03309.0321-.01382.0074-.02943.0108-.04508.0097-.02984-.0069-.0608-.0074-.09086-.0015-.03005.0059-.05853.0181-.08355.0358-.02503.0176-.04606.0404-.0617.0667-.01565.0263-.02556.0556-.0291.0861H4.3187c.00458-.1071-.00291-.2143-.02234-.3197-.0182-.0605-.0182-.1251 0-.1856.01631-.0567.02384-.1155.02234-.1745z" fill="#FBE04B"/><path d="M5.86676 8.74984h-.02513v-.16471c-.02094-.14935-.01535-.15494.12144-.17029.10888-.01117.21496.02373.32384.02094.11713.00775.23477-.00213.34896-.02932.01697-.00676.03539-.00902.05348-.00658.0181.00245.03526.00952.04982.02054.04187.03071.05723.08794.10887.10888.01955.05862.07678.09771.08655.16192-.05444.05444-.12563.04048-.19123.04327-.29453.00698-.58626-.01396-.8766.01535z" fill="#EE5F32"/><path d="M6.73637 8.42175c-.14876.04916-.30592.06768-.46203.05444-.06264.0044-.12556-.0027-.18565-.02094-.06979-.02791-.13958.02513-.21077 0-.01675 0-.0335.01117-.0335.03211v.09352c-.01724-.02923-.0278-.0619-.03093-.09568-.00314-.03378.00122-.06784.01278-.09974.01004-.05901.01471-.11881.01396-.17867l.02512-.02792c.14546-.03703.29685-.04463.44528-.02233.08794.00838.19123-.03629.26522.05025l.16052.21496z" fill="#EE5832"/><path d="M6.57592 8.20683c-.04057-.01877-.08619-.02367-.12982-.01396-.04216.01385-.08765.01385-.12981 0-.0294-.01103-.06123-.01393-.09213-.00838-.11834.01918-.239.01918-.35734 0-.00554-.04847.00474-.09743.02931-.13958.01675-.01396.01117-.03909.02513-.05444.19402-.05304.38665-.09213.5723.02792.03498.05925.06263.12252.08236.18844z" fill="#ED4F31"/><path d="M6.49341 8.01291c-.04304-.02205-.09137-.03172-.13958-.02791h-.4383c.01152-.07744.04013-.15135.08375-.21636l.02652-.02792c.12394.04254.25852.04254.38246 0 .01396.01536.00978.03909.02513.05444l.05723.18984.00279.02791z" fill="#EC4831"/><path d="M5.75793 12.1975v-.2694c.00978-.0768.07538-.0545.11586-.0572.23874-.0199.47873-.0199.71747 0 .20938.0167.41876-.007.62116 0 .07956 0 .16331-.0238.2331.0362-.01129.1004-.00227.202.02653.2988v.0279c-.03609.028-.08159.041-.12703.0363-.47319.0097-.94778 0-1.42098 0-.06421-.0042-.13121 0-.16611-.0726z" fill="#FABE33"/><path d="M7.45101 11.9002c-.18644-.0048-.37298.0031-.55834.0237-.0712.0139-.14479.0091-.21357-.014-.0123-.0054-.02561-.0083-.03908-.0083-.25405.0139-.51089-.021-.76354.0153-.03769 0-.07956-.0377-.11167.0126h-.02512c-.01661-.0931-.04523-.1837-.08515-.2694.02082-.0325.05114-.0579.08684-.0726.0357-.0147.07507-.0181.11277-.0098.49553.0252.99106 0 1.48659.014.06839 0 .15773-.0321.19262.0712.00076.0083.00076.0167 0 .0251-.01675.014-.00977.0405-.02512.0544-.01757.0523-.02699.1069-.02792.162l-.02931-.0042z" fill="#F8B533"/><path d="M5.75795 12.1975c.04294.0224.09135.032.13959.0279h1.56894c.00075.0084.00075.0168 0 .0252l.02512.0279c.0404.0861.10518.1584.18632.2081.08115.0496.17507.0743.27013.071.09264-.0005.18396-.022.26712-.0629.08316-.0408.15599-.1.21305-.173.03211.0335.01675.0656.02234.095v.2442c-.02185.0323-.05319.0571-.08969.0708-.0365.0138-.07637.0159-.11411.006-.26102-.0321-.52344.0544-.78168 0-.18704-.0405-.37548.0503-.55834-.0126-.06281-.0223-.0684.0405-.1005.0656-.10557.0287-.21687.0287-.32244 0-.08616-.044-.1855-.055-.27918-.0307-.25254.0392-.50998.034-.76074-.0153-.03068-.0078-.06283-.0078-.09352 0-.18425.0572-.36432 0-.54438-.0237-.01257-.0908.02652-.1857-.02652-.2792.00697-.0447-.02094-.0949.02512-.1326.05723.0446.10888.0949.1689.1396.08978.0712.20271.1067.3171.0998.11438-.007.22217-.0559.30266-.1375.02792-.0238.05723-.0447.08235-.0698.02513-.0251.0363-.0545.05444-.0824.01815-.0279.01117-.0391.02513-.0544l.00279-.007z" fill="#FCC733"/><path d="M7.49705 12.2804l-.02513-.028.02513.028z" fill="#FABE33"/><path d="M5.67837 12.3358c-.03562.0707-.08975.1303-.15662.1726-.06686.0423-.14396.0656-.22305.0675-.09857.0032-.19622-.0198-.28302-.0666-.08679-.0469-.15964-.1159-.21111-.2.29173.0224.58346.0224.8738.0265z" fill="#F28239"/><path d="M5.75793 12.199c.00142.0105-.00019.0212-.00464.0309-.00445.0096-.01156.0178-.02049.0235-.00142-.0105.00019-.0212.00464-.0309.00445-.0096.01156-.0178.02049-.0235z" fill="#FABE33"/><path d="M7.11902 9.32344h-.95756c-.06002 0-.11027 0-.10329.08375-.04048-.02652-.01256-.08515-.05304-.11167 0-.08515-.05863-.15494-.05723-.24009-.02792-.0656.02093-.08654.06421-.08794.33222-.02247.66548-.02527.99803-.00837.01109.00196.02155.00653.03053.01333.00898.00679.01621.01562.02112.02575.00108.00834.00108.01679 0 .02513.02233.02373 0 .06002.02512.08375.02574.06907.03668.14279.03211.21636z" fill="#F07133"/><path d="M7.06298 8.99118c-.11865.00837-.2359-.01396-.35455-.01117-.11042.01037-.22133.01456-.33221.01256-.10748-.00837-.21636 0-.32524 0-.04466 0-.09491-.00837-.10329.05723-.05847-.08876-.08686-.19398-.08096-.30011.01256-.07398.07119-.05583.11725-.05583h.94639c.06951.08576.11524.1883.13261.29732zM7.08949 9.10035c-.03211-.02093-.02513-.05304-.02513-.08375.00844.00671.01531.01519.02014.02483.00482.00964.00748.02023.00778.03101l-.00279.02791z" fill="#EF6732"/><path d="M4.32153 16.2148v-.0475c.04225.0247.09127.0354.13997.0304.04869-.0051.09452-.0255.13083-.0583.08654.0112.08235.1005.12702.148.04327.0739.1005.1396.14936.2066.0141.018.02671.0371.03769.0572l.02373.0433.01535.0279.01815.0279.00837.0153c.00519.0104.00759.022.00698.0335l-.00698.0168c-.04752.0322-.10329.0501-.16069.0516-.0574.0015-.11402-.0135-.16315-.0432l-.02931-.0182-.02652-.0209-.01256-.0112c-.01156-.0119-.02185-.025-.03071-.0391-.01117-.0181-.02094-.0363-.0335-.0544-.01257-.0182-.0349-.053-.05305-.0782-.01551-.0218-.0295-.0446-.04187-.0684-.00977-.0181-.01815-.0363-.02652-.0544l-.01396-.0265-.01954-.0391c0-.014 0-.0279-.00977-.0433-.00005-.011-.00274-.0218-.00784-.0315s-.01247-.018-.02148-.0243z" fill="#FBD43E"/><path d="M4.34521 15.3258c0-.2233-.01256-.2205.21915-.2178h.10609c.08511.1503.11475.3257.08375.4956-.11911.0264-.24348.0152-.35594-.0321-.03451-.0774-.05257-.161-.05305-.2457z" fill="#FAE852"/><path d="M4.6999 16.3026c-.05443-.0419-.05583-.1201-.10887-.162-.01675-.0153-.01117-.0404-.02792-.0558v-.0516c0-.0657.05723-.0601.09771-.0643.07575-.0092.15248-.0069.22752.007.05412.0286.10076.0696.13615.1195.0354.05.05857.1075.06765.1681-.03211.046-.07538.0167-.11167.0097-.09453-.0117-.1905-.0017-.28057.0294z" fill="#FBF088"/><path d="M4.91475 16.0042H4.6593c-.03489 0-.07258 0-.09771.0279-.03118-.0286-.05017-.0681-.05304-.1103-.03489-.0823.00977-.1186.08236-.1214.07936-.006.15918-.0013.23729.014.07398.0432.12284.0977.08655.1898z" fill="#FAEE79"/><path d="M4.83665 15.8408c-.07677 0-.15354 0-.23031-.0084-.07678-.0084-.1005.0224-.09771.0894-.03514-.0467-.05424-.1035-.05444-.162-.03071-.0781.03071-.0809.07677-.0879.0662-.0095.13341-.0095.19961 0 .01458.0025.0287.0072.04187.014.02311.0158.04222.0369.05584.0614.01535.0307.03489.06.00837.0935z" fill="#FAED6E"/><path d="M4.78352 15.7026h-.25405c-.04048 0-.07119.0098-.07677.0559-.03071-.0196-.02652-.0517-.02792-.081-.00139-.0293-.00837-.0405-.02512-.0558v-.0545c.11835-.0125.23799-.0035.35315.0266.01133.0025.02177.008.0302.016.00844.008.01455.0181.0177.0292.00315.0112.00322.023.00019.0342-.00303.0112-.00903.0214-.01738.0294z" fill="#FAEC62"/><path d="M4.56309 16.085c.00944.0057.01707.014.022.0239.00494.0098.00699.0209.00591.0319-.00981-.0053-.01776-.0135-.02275-.0235-.005-.01-.0068-.0213-.00516-.0323z" fill="#FBD43E"/><path d="M4.40108 15.6245c.00917.0059.01644.0143.0209.0242.00446.0099.00593.0209.00423.0316-.00917-.0058-.01644-.0142-.0209-.0241-.00447-.0099-.00593-.0209-.00423-.0317z" fill="#FAE852"/><path d="M8.83287 16.004c-.01415.0909-.05167.1765-.10888.2485-.25265.0189-.50611.0245-.75935.0168-.64209 0-1.28558-.0112-1.92767.0083-.15773 0-.31547-.0195-.47459-.0139-.13959-.0349-.19822-.0991-.19263-.2262.15341-.0727.32599-.0947.49273-.0628.07119 0 .13959.0224.21217.0224.179.0633.36872.0909.55835.0809.03016.0031.06056.0031.09073 0l.0321-.0084.04467-.0181.02931-.0154.04746-.0209c.0118-.0037.02398-.006.03629-.007.0987.006.19648.0224.29174.0489l.04048.0153c.29871.014.59603 0 .89474 0 .02712-.0005.0536-.0082.07677-.0223.02612-.018.05366-.0339.08236-.0475.1727-.0603.36083-.0598.53322.0014z" fill="#FCF18A"/><path d="M8.63885 16.4102v.0266c-.02512.0418-.0335.1032-.10469.0963-.5025.0293-1.00641.0279-1.50892.0223h-.90311c-.03576-.0056-.0723.0029-.1019.0237-.07398.0405-.12842 0-.18286-.0446l-.02652-.028-.01256-.0139c-.01536-.0126-.03071-.0237-.04607-.0363-.0115-.0084-.02182-.0182-.03071-.0293-.00897-.0125-.01516-.0268-.01814-.0419v-.0237c.04746-.0475.10888-.0363.1675-.0377.39363-.0084.78866-.014 1.1809 0 .46063.0139.92126-.0084 1.38189 0 .0496-.0031.0994.0006.14796.0112.04327.0041.08515.0181.05723.0753z" fill="#FBF299"/><path d="M8.63891 16.4103c-.00698-.0586-.05165-.0544-.09213-.0516-.18948-.0062-.37916-.0016-.56811.0139-.04442-.0014-.08871-.0056-.13261-.0125-.11261-.0099-.22607-.0023-.3364.0223-.03522.0093-.07226.0093-.10748 0-.20514-.03-.41292-.038-.61976-.0237h-.98687c-.03908 0-.08934-.0126-.06979.0586-.07678.0265-.1033-.0377-.13959-.0796l-.01954-.0349-.00838-.0139c-.00618-.0085-.01178-.0173-.01675-.0265v-.0154c.01235-.0134.02802-.0233.04542-.0287.01741-.0054.03593-.0061.05369-.002.11679-.0094.23432-.0018.34896.0223.05305.0182.1033-.0153.15774-.0167.55834-.014 1.11668 0 1.67502 0h.76772c.04746 0 .10051-.0182.13959.0293-.01452.0606-.04599.1158-.09073.1591z" fill="#FCF291"/><path d="M8.94042 16.4424l-.00838.0516c.00318.0179-.0003.0362-.00977.0517-.01954.0363-.04327.0712-.0656.1061-.00943.0144-.02018.028-.03211.0404l-.0335.0349-.03071.0363c-.01535.0224-.02931.0447-.04606.0656-.01046.0128-.02164.0249-.0335.0363l-.05863.06c-.0279.0321-.06035.0598-.09631.0824-.01164.0058-.02379.0104-.03629.014-.12284-.0098-.25544.0446-.36432-.0573-.00257-.0059-.0039-.0123-.0039-.0188 0-.0065.00133-.0129.0039-.0189.00737-.0105.01579-.0204.02513-.0293l.01395-.0125.02653-.0252c.05778-.0591.11883-.1151.18285-.1675.03035-.0231.05634-.0515.07677-.0837l.02094-.0237.01117-.0112.02233-.0209.01117-.0098c.00766-.0066.0161-.0122.02512-.0168h.01536c.0349-.0195.04187-.0684.08096-.0823 0 .0279.01535.053.04885.0544.04387.0097.0893.0097.13317 0 .04386-.0096.08511-.0287.12088-.0558z" fill="#FBD843"/><path d="M8.83314 16.004c-.18143-.0093-.36333-.0005-.54299.0265-.00912-.0455-.0016-.0928.0212-.1333.0228-.0404.05936-.0714.10304-.0872.11864-.0167.24008-.0112.35873-.0279.04188 0 .10329-.0154.11167.0586.00032.0585-.01774.1156-.05165.1633z" fill="#FBEF7A"/><path d="M8.88604 15.8421c-.01544-.0162-.03558-.0273-.05761-.0315-.02203-.0043-.04484-.0015-.06523.0078-.12133.0235-.24522.0311-.3685.0223-.03071-.0656 0-.106.05723-.1395.13958-.1019.29173-.0405.4383-.0405.02791 0 .01954.0447.02373.0698.00418.0251.00977.0823-.02792.1116z" fill="#FBED6B"/><path d="M6.43762 7.79516c-.00894-.00574-.01604-.01392-.02049-.02356-.00445-.00964-.00606-.02035-.00464-.03088.00906.00562.01627.01377.02073.02345.00447.00968.006.02045.0044.03099z" fill="#EB3F31"/><path d="M5.91564 7.98486c.0016.01054.00008.02132-.00439.03099-.00447.00968-.01167.01783-.02073.02345-.00142-.01052.00018-.02123.00463-.03088.00445-.00964.01156-.01781.02049-.02356z" fill="#EC4831"/><path d="M6.03006 7.74072l-.02652.02792v-.02652l.02652-.0014z" fill="#EB3F31"/><path d="M4.64392 13.3951l.08235-.2443c.23032 0 .46063-.0502.69095.0098.01179.009.02016.0218.02373.0363.00004.0143-.00281.0286-.00838.0418-.08654.1396-.22054.2304-.31685.3574-.01002.0122-.02358.0211-.03882.0253-.01524.0043-.03142.0037-.04633-.0016-.13959-.0544-.29592 0-.44109-.0349l.05444-.1898z" fill="#FBCF39"/><path d="M4.591 13.5852c.13364-.0338.27272-.0405.40898-.0195.02792 0 .04327.0279.05584.053.00813.0134.01171.0291.0102.0447-.00151.0156-.00803.0303-.01858.0419-.067.1051-.1267.2147-.17867.328-.01116.0237-.02373.0488-.05862.0419-.12326-.0438-.25782-.0438-.38107 0 .0331-.0979.06013-.1976.08096-.2988l.08096-.1912z" fill="#FBD33D"/><path d="M5.43545 13.2083c-.06556-.0387-.14251-.0535-.21775-.0419-.1646.0282-.33322.0225-.49553-.0168v-.0572c.01675-.0139.01116-.0391.02652-.0544 0-.0656.03908-.1243.02792-.1899-.01117-.0656.0335-.0879.02791-.1396.02094-.0083.04188-.0251.06282-.0237.08814.0024.17592.0122.26242.0293.02699.0103.0558.0148.08462.0133.02883-.0014.05705-.0088.08288-.0216.02559-.0192.05668-.0295.08864-.0295.03195 0 .06305.0103.08863.0295.03909.0307.08515.0209.12982.0237.14827-.0099.2972-.0029.44388.0209.01083.0033.02228.004.03343.0021.01115-.002.02169-.0065.03078-.0132.09492-.0712.2024-.0126.3029-.0335.03211 0 .04327.0251.04746.0544l-.01396.0126c-.04599.0118-.09259.0211-.13958.0279l-.0335.0084c-.02747.0036-.05455.0097-.08096.0181l-.03211.0084c-.02668.0037-.05288.0102-.07817.0195l-.03071.0112c-.02136.0079-.04155.0187-.06002.0321-.16517.0806-.32384.174-.47459.2792-.00995.0121-.02297.0213-.03769.0267-.01473.0054-.03063.0068-.04606.004zM6.81871 12.7684c-.01117-.0265-.06421-.0321-.03769-.0739.00886-.0133.02225-.0229.03766-.027.01542-.0041.0318-.0025.04609.0046.04327.0126.08655.0252.12982.0349.06502.0203.1353.0153.19681-.0139.0257-.0187.05699-.028.08872-.0265.03172.0015.06197.0138.08576.0348.00521.0043.01124.0075.01771.0095.00648.0019.01327.0025.01998.0017.18565-.0335.3727.0405.55835-.0181.06583-.0178.13517-.0178.201 0 .0965.0165.19572.0054.28615-.0321.03629.0684.02512.1479.05444.2177.01132.065.02957.1287.05444.1898v.0224c-.11167.1075-.24707.0516-.3727.0474-.08883-.0108-.17893-.0042-.26521.0196-.01742.0049-.03577.0056-.0535.0019-.01773-.0036-.03433-.0115-.0484-.0229-.15631-.1077-.32684-.1932-.50669-.254-.02065-.013-.04265-.0238-.06561-.0321l-.0335-.0112c-.03466-.0096-.0702-.0157-.10608-.0181l-.0335-.0098c-.05187-.0106-.1049-.0143-.15774-.0112-.01752.0018-.03521-.0003-.05184-.0061-.01663-.0058-.03181-.0151-.04447-.0274z" fill="#FBCA35"/><path d="M7.90051 13.1553c.07538-.0837.1703-.0642.26242-.0502.13106.0242.26578.0199.39503-.0126v.0266c.01675.0153.00977.0404.02652.0544l.05584.1396c.01537.0764.04269.1499.08096.2177v.0545c-.10718-.0046-.21452.0038-.31966.0251-.05443.0126-.06141.0419-.06141.0851-.0335.0084-.05025-.0167-.06282-.039-.09493-.15-.20433-.2902-.32663-.4188l-.01814-.0293-.00977-.014c-.00672-.0088-.01278-.0182-.01815-.0279l-.00419-.0112z" fill="#FBCE39"/><path d="M8.58588 13.1775c-.00919-.0056-.01658-.0137-.02128-.0233-.0047-.0097-.00652-.0205-.00524-.0312.00907.0057.01636.0138.02105.0235.00469.0096.00658.0203.00547.031z" fill="#FBCA35"/><path d="M4.972 10.4304c.01088.0104.01881.0235.02298.038.00417.0145.00442.0298.00074.0444-.0307-.021-.02372-.0531-.02372-.0824z" fill="#E42739"/><path d="M6.84403 10.8127c.03746.075.09373.139.16331.1857l.03071.0251c.02233.021.08515.021.03769.0754-.11605.0497-.24327.0675-.36851.0516h-.92964c-.16144.013-.32381.0088-.48436-.0125-.05444-.0321-.05723-.1047-.10469-.1396.00121-.0088.00121-.0177 0-.0265-.00647-.0101-.01395-.0194-.02233-.0279l-.03071-.1033c.03769-.0475.09073-.0308.13958-.0308h1.36236c.06854-.0104.13835-.0095.20659.0028z" fill="#F6A034"/><path d="M5.02504 10.5686c.0321.0195.02652.0517.02652.0824-.02792-.021-.02652-.0517-.02652-.0824z" fill="#F38F34"/><path d="M5.16187 10.9468l.02233.0279-.02233-.0279z" fill="#EC3A3C"/><path d="M4.75287 13.042c.00147.0107-.00027.0215-.00499.0312-.00472.0097-.01221.0178-.02153.0232-.00128-.0106.00054-.0214.00524-.0311.00471-.0097.0121-.0177.02128-.0233z" fill="#F6A238"/><path d="M7.52784 11.6589c-.03908-.0475-.09213-.0294-.13959-.0294H6.01613c-.10083-.0208-.20486-.0208-.30569 0l-.06282.0266H5.6225c-.01536-.014-.00977-.0405-.02792-.0531-.02094-.0405-.0335-.0879-.07956-.1103-.01675-.0139-.01117-.039-.02932-.0516-.00336-.0072-.00511-.0151-.00511-.023 0-.008.00175-.0158.00511-.0231.03885-.0269.08269-.0459.12894-.0557.04626-.0098.09401-.0103.14046-.0015h1.79787c.05304 0 .12283-.0181.13958.0656-.00739.0071-.01229.0164-.01396.0265-.00201.0099-.00579.0194-.01116.028-.00617.0102-.01422.0192-.02373.0265-.00946.0093-.01788.0196-.02513.0307l-.02792.0795c-.01675.014-.01116.0391-.02791.0545l-.0349.0098zM7.49855 11.7371c-.00142-.0106.00019-.0213.00464-.0309.00445-.0097.01155-.0178.02049-.0236.00142.0105-.00019.0213-.00464.0309-.00445.0096-.01156.0178-.02049.0236z" fill="#F7AF34"/><path d="M7.06576 9.83726c-.00214-.01082-.00103-.02202.0032-.03221.00422-.01018.01136-.01889.02053-.02502.00162.01079.00027.02183-.00391.03191-.00419.01009-.01104.01884-.01982.02532z" fill="#F17A33"/><path d="M6.95549 10.1067c-.00081-.0108.00137-.0216.00629-.0312.00493-.0096.01241-.0176.02163-.0233.00114.0109-.00089.0218-.00584.0314-.00496.0097-.01264.0177-.02208.0231zM6.98206 10.0522v-.0307h.02652l-.02652.0307z" fill="#DC2536"/><path d="M7.68974 11.4173c-.04048-.0446-.09352-.0265-.13959-.0265h-.83751c-.09352 0-.18705-.0111-.27917-.0111-.19542 0-.38945.0153-.58347.0069h-.27917c-.03211 0-.06421 0-.08515.0293-.00361.0034-.00834.0052-.01326.0052-.00491 0-.00965-.0018-.01326-.0052-.0349-.046-.05444-.1046-.10748-.1395-.01815-.014-.01256-.0391-.02931-.0531-.00931-.0094-.01772-.0197-.02513-.0307v-.0461c.12206-.0348.25046-.0415.37549-.0195.03853.0127.08011.0127.11864 0 .0384-.0139.07961-.0182.12005-.0126.13958.0084.27917.0112.41875.0154.10672-.0099.21389-.014.32105-.0126.10469.014.20519-.0125.30709 0 .04746 0 .08654-.0251.13121-.0279h.01815c.02504-.0028.05033-.0028.07537 0 .10712.0344.22046.045.3321.031.11164-.0139.21887-.0522.31418-.1119.04886-.0098.07398-.0489.1033-.0838.02233-.0112.03071 0 .03769.0195.00072.012-.00273.0238-.00978.0335-.0015.0079-.0015.0159 0 .0238-.01395.0167-.00977.0418-.02652.0572-.03056.0271-.05037.0642-.05583.1047-.00591.0124-.01449.0234-.02513.0321-.00868.0086-.01662.018-.02373.0279-.00082.0084-.00082.0168 0 .0251-.06839.0377-.08375.1173-.13958.1689z" fill="#F6A734"/><path d="M7.96334 10.9511l-.02792-.0279c.01117-.0391.05444-.0615.05444-.1075.05723.0446-.01116.0879 0 .1312-.00121.0023-.00295.0043-.00507.0058-.00212.0015-.00456.0025-.00714.0029-.00257.0004-.00521.0002-.00769-.0006-.00249-.0007-.00475-.0021-.00662-.0039z" fill="#F27A35"/><path d="M7.9327 11.0572c-.00088-.011.0011-.022.00575-.0321.00464-.01.0118-.0186.02077-.0251.00278.0111.00166.0229-.00316.0333-.00483.0104-.01307.0189-.02336.0239zM7.96333 10.9512h.02512l-.02373.0279c-.00217-.0092-.00264-.0186-.00139-.0279z" fill="#EC3A3D"/><path d="M7.55293 11.656c-.00115-.0108.00087-.0217.00583-.0314.00496-.0097.01264-.0177.02208-.023.00115.0108-.00088.0217-.00584.0313-.00496.0097-.01263.0177-.02207.0231z" fill="#EE653A"/><path d="M7.60876 11.5222l.02513-.0307-.02513.0307zM7.63391 11.4924l.02464-.0276c.00079.0087.00079.0175 0 .0261l-.02464.0015zM7.66321 11.4412l.02652-.0293v.0265c-.00325.0037-.00779.0061-.01271.0066-.00492.0005-.00986-.0008-.01381-.0038z" fill="#F6A734"/><path d="M7.66321 11.4409h.02652l-.02373.0279c-.00167-.0092-.00261-.0185-.00279-.0279z" fill="#EF5B3C"/><path d="M5.32372 11.2207c.01097.0047.02014.0128.02617.0231.00603.0103.0086.0223.00733.0341-.01141-.0041-.02102-.012-.02715-.0225-.00612-.0105-.00837-.0227-.00635-.0347zM5.29871 11.1897l.02512.0307-.02512-.0307z" fill="#ED4D3E"/><path d="M5.48576 11.4397c.00936.0048.01711.0123.02232.0215.0052.0091.00763.0196.00699.0301-.00948-.0047-.01734-.0121-.02256-.0213-.00523-.0092-.00758-.0198-.00675-.0303z" fill="#EE593B"/><path d="M5.46057 11.4172h.02754v.0261l-.02754-.0261z" fill="#EE593B"/><path d="M5.59601 11.6016c.00934.0051.01696.0129.02192.0223.00496.0094.00705.0201.006.0307-.00921-.0053-.01673-.0131-.02168-.0225-.00494-.0093-.00711-.02-.00624-.0305z" fill="#EF663A"/><path d="M7.85168 11.1925l.02513-.0321c-.00083.0071-.00361.0139-.00805.0196-.00443.0057-.01034.01-.01708.0125zM7.828 11.2205l.02373-.0279-.02373.0279z" fill="#ED4C3C"/><path d="M7.9605 13.2082c.14354.1493.27124.313.38107.4886.07119.1605.13958.3238.18984.4899-.00197.0039-.00299.0082-.00299.0126 0 .0044.00102.0087.00299.0126.01814.0265 0 .0614.02093.0879.03776.2859.04851.5747.03211.8626l-.08096.3811c-.02797.0508-.04687.1061-.05584.1633-.02948.0416-.04906.0893-.05723.1396-.04127.0576-.07548.1199-.10189.1857-.00818.0059-.0151.0134-.02037.022-.00527.0086-.00878.0182-.01034.0282-.10488.0236-.21312.0283-.31965.014-.24663.0109-.49369.0067-.73981-.0126-.05025-.0488-.0321-.1493-.09352-.1689-.06142-.0195-.09771.0698-.15913.0879-.02686.0037-.05259.0133-.07537.028-.01396.0153-.04048.0097-.05305.0279-.01675.0139-.04048.0098-.05583.0251-.02513.0251-.06281.0084-.09073.0251-.19815.0249-.39934-.0045-.58207-.0851-.10609-.021-.16471-.1061-.2373-.1731-.03516-.0369-.06478-.0788-.08794-.1242-.02931-.0601-.06141-.1173-.08794-.1787-.04504-.1234-.07503-.2519-.08933-.3825-.00989-.1636-.00989-.3277 0-.4913.02376-.1449.06745-.2858.12981-.4188.01117-.0223.02513-.0432.0363-.0642.00585-.0102.01238-.02.01954-.0293l.02094-.0293.00977-.0154c.00977-.0167.01814-.0349.02931-.0502.00819-.0121.01704-.0238.02652-.0349.3364-.349.71747-.4481 1.17392-.2499.03908.0168.07537.0294.11306 0 .0248-.0198.0549-.032.08654-.0349.27918-.0502.3392 0 .3378.2792v1.5997c0 .0446-.00977.0907.02652.1284.1703.0237.34199.0782.49832-.0405.01765-.0285.03083-.0596.03909-.0921.01396-.0391.01814-.081.02931-.1215.02577-.1223.04257-.2464.05025-.3713.0259-.181.0259-.3647 0-.5457-.01334-.1853-.05475-.3674-.12283-.5402-.08517-.2311-.2314-.4348-.42311-.5894-.19172-.1546-.42177-.2544-.66566-.2886-.23415-.0462-.47569-.039-.70669.0209-.23101.0599-.44556.1711-.62775.3252-.05722.0444-.10796.0966-.15075.155-.10567.1148-.19449.2441-.26382.3838-.00503.0106-.01062.0208-.01675.0308-.00837.0153-.01675.0293-.02373.0446l-.01396.0321c-.00837.0224-.01396.0461-.02094.0698-.04878.1352-.08111.2758-.09631.4188-.02084.1776-.02084.357 0 .5346.01425.1241.03853.2469.07258.3671.01536.053.02792.1061.04746.1577l.01257.0321c.00837.0205.01768.041.02791.0615.01675.0348.0335.0711.05444.1046.03875.0508.0672.1087.08375.1703.03847.0739.09339.1379.16053.1871.00678.0023.01295.0062.01802.0113.00508.005.00894.0112.01129.018.00704.0026.01344.0067.01874.012.0053.0053.00939.0117.01197.0187.0346.0491.08327.0866.13958.1075.01225.0062.02316.0147.03211.0251.01396.0168.04187.0098.05304.0321.01396 0 .02094.0154.03211.0223.04609.0405.10187.0684.16191.081.0256-.0099.05397-.0099.07957 0 .4058.1203.83665.128 1.2465.0223.17308-.0376.20379-.0139.20519.1592.01089.0674.00267.1366-.02373.1996-.02573.0253-.05908.0415-.09492.046-.53461.1033-1.06364.1257-1.57871-.0921-.04863-.0199-.09535-.0442-.13959-.0726-.16582-.0974-.31991-.2136-.45923-.3461-.06165-.0621-.11133-.135-.14657-.215l-.17169-.2694c-.01601-.0587-.04249-.114-.07817-.1633.00006-.0299-.01087-.0587-.03071-.081-.01395-.0167-.00977-.0405-.02233-.0572.00132-.0377-.00944-.0749-.03071-.1061l-.08235-.4885v-.4579c.0354-.1942.08201-.3862.13958-.5751.07398-.1563.15773-.3085.24707-.4578l.32802-.402c.00845-.0106.01831-.02.02932-.0279.17639-.1309.36696-.2414.56811-.3295.01815-.0153.04327-.0139.06421-.0237.00263.0019.00581.003.00907.003.00327 0 .00644-.0011.00908-.003.02373-.0223.06141 0 .08514-.0251.00369.0018.00775.0028.01187.0028s.00818-.001.01186-.0028c.02652-.0182.06142 0 .08794-.0224.00306.0022.00672.0034.01047.0034s.00741-.0012.01047-.0034c.05165-.0321.11446 0 .16471-.0251h.45226c.05444.0293.11725 0 .17029.0237.00319.0019.0068.0029.01047.0029.00368 0 .00729-.001.01047-.0029.0349.0252.08096 0 .11446.0252.00253.0021.00575.0033.00907.0033.00333 0 .00655-.0012.00908-.0033.02137.0056.04235.0126.06281.0209.21183.0725.41174.176.59324.3071.01283.006.02354.0157.03071.0279.01128.0064.02123.015.02931.0251z" fill="#9B0F16"/><path d="M8.55662 14.2984c-.00984-.0122-.01682-.0264-.02045-.0416-.00362-.0152-.00379-.0311-.00049-.0464.03211.0238.02234.0573.02094.088z" fill="#FBD43F"/><path d="M5.776 10.5128c.00648-.009.0151-.0163.02509-.0212.00999-.0048.02104-.0071.03214-.0067-.00419.0251-.02652.0279-.05723.0279z" fill="#F49134"/><path d="M5.27075 10.485c.01093-.0007.02184.0016.03163.0065.0098.0049.01814.0123.02421.0214-.01107.0018-.02243.0001-.03246-.0049-.01003-.005-.01822-.0131-.02338-.023zM5.24146 10.4612c.00664.0007.01294.0033.01813.0075.0052.0043.00908.0099.01118.0162l-.02931-.0237z" fill="#F38F34"/><path d="M7.83217 11.007c-.06725.0665-.15032.1149-.24139.1405-.09107.0257-.18717.0277-.27926.0061-.05723-.0098-.11167-.028-.1689-.0419-.01396-.0168-.04048-.0112-.05444-.0279l-.05583-.0545c.06866-.0211.14038-.0305.21217-.0279.19961.0042.39363-.0028.58765.0056zM7.03233 11.0292l-.02513-.0307.02513.0307z" fill="#EB3139"/><path d="M5.24983 16.4634c.13169.1194.27162.2295.41875.3294-.08514.0865-.19681.0698-.3015.0768-.04746 0-.09771-.0154-.13959.0097-.0558-.0089-.10845-.0317-.15309-.0664-.04465-.0346-.07984-.08-.10235-.1318-.01085-.0076-.0203-.0171-.02792-.0279-.01107-.0081-.02015-.0186-.02652-.0307.00128-.0074.00128-.015 0-.0223-.00646-.0093-.01449-.0173-.02373-.0238l-.02791-.0544c.05178-.0453.11539-.0749.18339-.0852.06799-.0104.13753-.0012.20047.0266z" fill="#FBF2A0"/><path d="M4.97335 16.6826l.24427.1912h.01396l.02652.007.02513.0126.02233.0181.00977.0098.02234.0196.01256.0083.05723.0293c.02768.015.04863.04.05863.0698.01116.067-.04188.0684-.08376.0796-.0827.0185-.1667.0306-.25125.0363-.02608.0012-.05191-.0056-.07398-.0196-.03034-.0189-.05969-.0394-.08794-.0614-.02094-.0181-.04048-.0391-.06002-.0586l-.0349-.0349-.04606-.0461-.05723-.0572-.05723-.0572c-.01579-.015-.0307-.0308-.04467-.0475-.00553-.0062-.00964-.0135-.01206-.0215-.00241-.0079-.00305-.0163-.0019-.0245l-.01395-.0252c-.00285-.0033-.00442-.0075-.00442-.0118 0-.0044.00157-.0086.00442-.0119.10887.0349.22194.0907.33221-.0042z" fill="#FBDB46"/><path d="M5.2498 16.4634c-.13181.0026-.26272.0223-.38945.0586-.06708-.062-.12158-.1364-.16052-.2191.04048-.0893.12842-.067.19542-.0698.06658-.0069.13361.0078.19123.0419.06018.0576.11485.1207.16332.1884z" fill="#FBF194"/><path d="M4.39972 16.3573c-.00899-.0052-.01637-.0127-.0213-.0218-.00493-.0092-.00722-.0195-.00662-.0298.00888.0052.01617.0128.02108.0219.00492.0091.00728.0194.00684.0297z" fill="#EDEDED"/><path d="M4.63842 16.6867c.00126.0079.00126.0159 0 .0237l-.02233-.0251.02233.0014z" fill="#D3D3D3"/><path d="M4.93848 16.6545l.02791.028-.02791-.028zM4.9176 16.6252l.02652.0308c-.0068-.0022-.01288-.0063-.01755-.0117-.00468-.0054-.00778-.012-.00897-.0191z" fill="#FBDB46"/><path d="M4.59232 16.656c-.00731-.0027-.01369-.0074-.0184-.0136-.0047-.0061-.00752-.0136-.00812-.0213l.02652.0349z" fill="#D8D8D8"/><path d="M4.88818 16.582l.02373.0238-.02373-.0238z" fill="#FBDB46"/><path d="M4.78357 15.7026c.00878.0065.01554.0153.0195.0254s.00494.0212.00284.0319c-.0092-.0061-.0163-.0148-.0203-.0251-.004-.0102-.00471-.0215-.00204-.0322z" fill="#FAEC62"/><path d="M5.86676 15.842l.22194.1815c-.13959.0139-.27917-.0433-.43132-.0266-.0963.001-.19135.0219-.27917.0615-.04907-.0454-.08561-.1026-.10609-.1662-.00624-.0084-.0099-.0185-.01054-.029-.00065-.0105.00176-.0209.00693-.0301.00516-.0091.01286-.0166.02218-.0214.00931-.0049.01983-.007.03029-.006.18205-.0345.3699-.022.54578.0363z" fill="#FBEF7B"/><path d="M6.87317 16.032l.26242-.1983c.03768.0788.05995.1641.0656.2513-.10738-.0282-.21723-.046-.32802-.053z" fill="#FAEC81"/><path d="M7.19983 16.0834c.04544.0123.09268.0166.13958.0126h.76633c.04699.0039.09429-.0009.13959-.014-.02373.0377-.06142.0307-.09632.0307h-.85147c-.0349 0-.07259.0084-.09771-.0293zM6.67358 16.1102c.02585-.0199.05838-.0289.09073-.0252-.02233.0349-.05723.0266-.09073.0252zM6.82153 16.0599c.00582-.0087.01372-.0158.02298-.0207.00926-.0049.0196-.0073.03007-.0072-.00514.0093-.01291.0169-.02234.0219-.00943.005-.0201.0071-.03071.006z" fill="#FAEC81"/><path d="M6.76294 16.0852c.00639-.0086.01487-.0155.02465-.0199.00977-.0044.02051-.0062.03118-.0053-.00584.0092-.01424.0165-.02416.0209-.00992.0045-.02093.006-.03167.0043z" fill="#FAEC81"/><path d="M7.49292 16.9547c.01115-.1141.01395-.2289.00837-.3434-.05903-.0013-.11777.0087-.17308.0293-.36064.0856-.73566.0908-1.09854.0154-.07974-.0143-.1563-.0427-.22613-.0838-.02652-.0753.04606-.0837.07258-.0725.13959.0614.27917-.0238.41876.0125.06281.0168.13958-.0363.21217-.0181.14589.0305.29566.038.44388.0223.20659-.0112.41178.0098.61697 0 .07657.0073.15384-.0002.22752-.0223.00864-.0027.01789-.0027.02652 0 .1647.0178.33084.0178.49553 0 .00904.0006.01783.0032.02578.0075.00796.0043.01488.0103.02029.0176-.00951.0086-.01838.018-.02652.0279-.01009.008-.01902.0174-.02653.0279-.01114.008-.02023.0185-.02652.0307-.02373.0377-.03768.0838-.08514.1005-.21497-.0153-.42993-.0111-.64349-.0111-.17448 0-.17448 0-.18844.1786-.01536.0391-.01396.0866-.07398.081z" fill="#FAF29D"/><path d="M5.81098 16.4718c-.01093 0-.02164-.003-.03099-.0087-.00935-.0056-.01697-.0137-.02206-.0234.01815.0028.04607.0028.05305.0321z" fill="#FCF291"/><path d="M5.84155 16.4913c-.00711.0006-.01421-.0013-.02006-.0054-.00586-.004-.01012-.01-.01204-.0169l.0321.0223zM5.75928 16.4426c-.00744.0002-.0147-.0022-.02055-.0068-.00586-.0046-.00994-.0111-.01156-.0183.0071.001.01381.0038.01945.0082.00564.0044.01001.0103.01266.0169z" fill="#FCF291"/><path d="M5.5652 16.2818c-.00729-.0014-.01401-.0049-.01925-.0101s-.00875-.012-.01006-.0193c.00738.0012.0142.0046.01948.0099.00528.0052.00872.0121.00983.0195zM5.59467 16.3029c-.00758-.0015-.01454-.0052-.02001-.0107-.00546-.0054-.00919-.0124-.0107-.02.00767.0013.01473.005.02023.0105.00549.0055.00916.0126.01048.0202z" fill="#FCF18A"/><path d="M8.50352 16.9826l-.05165.06c-.01255.0241-.02854.0462-.04746.0656-.02309.0234-.04886.0441-.07677.0614-.02792.0168-.05304.0377-.08236.0531-.02899.0138-.05697.0297-.08375.0474-.02628.0186-.05379.0354-.08235.0503l-.05863.0293-.03211.0154c-.01707.0076-.03576.011-.05443.0097-.01306-.0025-.02573-.0067-.03769-.0125-.12702-.0614-.25963-.0084-.38805-.0196-.0656 0-.13959.0126-.17867-.0656-.00152-.0065-.00128-.0133.00068-.0196.00196-.0064.00558-.0121.01049-.0167.02818-.0147.05824-.0255.08933-.0321l.0349-.0111c.02299-.0066.0454-.015.067-.0252l.30709-.1242.04467-.0195.02791-.0126.03769-.0181.02373-.0112.02373-.0112.02373-.0111c.01175-.0055.02297-.012.0335-.0196l.02094-.0167c.00757-.0054.0161-.0092.02512-.0112h.01396l.00698.0112c.01536.0223.0349.046.06281.046.10623.0103.21304.0131.31966.0084z" fill="#FADF4A"/><path d="M7.52786 16.875c0-.2596-.01675-.2136.21356-.2178h.46203c.06768-.0041.13486.014.19123.0517l-.18983.1675-.02652.0251c-.00902.0102-.01935.0191-.03071.0265-.00779-.0019-.01594-.0019-.02373 0v-.0097c-.13959-.0224-.26801 0-.40061-.014-.06661.01-.13469-.0002-.19542-.0293z" fill="#FBF3A3"/><path d="M8.14893 16.9267l.0307-.0266-.0307.0266zM8.17822 16.9028l.02754-.0261-.02754.0261z" fill="#FADF4A"/><path d="M8.47839 16.6074c.00133-.007.00448-.0136.00914-.0189.00466-.0054.01065-.0095.01739-.0118l-.02653.0307zM8.505 16.5819l.02653-.0279-.02653.0279zM8.53149 16.5484l.02653-.0279-.02653.0279z" fill="#FBF299"/><path d="M5.43544 13.2053c-.00172.007-.0054.0133-.01059.0183-.00519.0049-.01169.0083-.01872.0096l.02931-.0279z" fill="#FBCA35"/><path d="M6.47392 12.7713c-.05141.0238-.10854.0325-.16472.0251.04188-.0489.1033-.0195.16472-.0251zM6.17108 12.8256c-.01143.0103-.025.0178-.03973.0222-.01473.0043-.03024.0053-.04541.0029.02094-.0377.05304-.0265.08514-.0251zM6.28276 12.7993c-.01199.0101-.02614.0174-.04138.0213-.01524.0039-.03116.0042-.04656.001.02373-.0307.05584-.0237.08794-.0223zM6.06775 12.8549c-.00793.0089-.01793.0158-.02913.0199-.0112.0041-.02325.0054-.03508.0038.00672-.0103.0166-.0182.02817-.0225.01157-.0043.02421-.0047.03604-.0012zM7.09095 12.7965c-.05787.0072-.11661-.0009-.1703-.0237.05723.0042.11865-.0252.1703.0237zM7.2264 12.8243c-.03995.006-.08073-.0029-.11446-.0251.04048.0013.08375-.0154.11446.0251zM7.31147 12.8481c-.01139.0022-.02312.0013-.03411-.0023-.01099-.0037-.02086-.0101-.0287-.0186.01136-.0032.02343-.003.03464.0008.01121.0037.02103.0107.02817.0201z" fill="#FCC733"/><path d="M7.93269 13.1803c-.00736-.001-.01425-.0042-.01974-.0092s-.00932-.0115-.01097-.0188c.00729.0012.01408.0044.01954.0094.00546.005.00934.0114.01117.0186zM7.96047 13.2083c-.00704-.0013-.01354-.0047-.01873-.0097-.00519-.0049-.00886-.0112-.01059-.0182.00691.0017.01325.0052.0184.0101.00514.0049.00891.011.01092.0178z" fill="#FBCA35"/><path d="M7.09094 11.0836c.01075-.0006.02147.0016.03105.0065.00957.0049.01765.0123.02339.0214-.01083.0014-.0218-.0006-.03151-.0056-.00971-.0049-.0177-.0127-.02293-.0223z" fill="#F6A034"/><path d="M5.21765 14.0693c.05739-.1537.14794-.2928.26521-.4075.09911-.1396.2359-.1396.39364-.1396.26521 0 .53042.0209.79563 0 .13935-.0117.27942-.0117.41876 0 .19821.0181.39503-.021.59324 0 .04524-.002.09027.0071.13121.0265.13389.1284.23367.2882.29034.4648-.08794.1019-.20799.0628-.31547.0656-.18983 0-.18983 0-.18983.1912V15.669c.00425.0247.00295.05-.00381.0742-.00676.0241-.01881.0465-.03528.0654-.04048-.0419-.01954-.0949-.01954-.1396V13.92c0-.1591.01117-.148-.13958-.1494-.05394.0027-.10799.0027-.16192 0-.0684-.007-.08794.0279-.08515.0852-.04467.0167-.07259-.014-.10329-.0279-.18234-.0977-.39264-.1299-.59584-.0913-.2032.0386-.38703.1457-.52085.3034-.02233.0224-.04467.0433-.067.0656-.1592-.0259-.32114-.0306-.48157-.0139-.07258.0028-.12702.0195-.1689-.0224z" fill="#FBD33D"/><path d="M7.52779 16.8749h.5067c.01797-.001.03586.003.05165.0117.01579.0086.02884.0215.03768.0372-.00777.002-.01595.002-.02373 0-.01088.0075-.02114.0159-.03071.0251-.01395.0167-.03908.0112-.05304.0279l-.02652.0237H7.9647l-.02932.0238h-.02512c-.01034.0071-.02014.0151-.02932.0237-.11375.0571-.23241.1038-.35454.1396-.01536.0125-.04048.007-.05444.0237h-.02652c-.02373.0209-.06002 0-.08236.0251h-.02512c-.03483.0364-.08233.0579-.13261.0601-.34263.0626-.69352.0654-1.03712.0083-.02123-.0038-.0422-.0089-.06281-.0153-.03099-.0111-.0627-.0199-.09492-.0265l-.03909.0167c-.03071-.0098-.06141-.0167-.09352-.0237-.16196-.0394-.31373-.1126-.44528-.215l-.05443-.0516c-.01257-.0182-.03909-.0126-.05165-.0293l-.02792-.0252c-.00814-.011-.01863-.02-.03071-.0265-.00785.0014-.01588.0014-.02373 0l-.02652-.0349c.00302-.0096.00791-.0186.01438-.0263.00648-.0077.01442-.0141.02336-.0188.00895-.0046.01872-.0075.02878-.0084.01005-.0009.02017.0002.0298.0033.1211.0196.24517.0096.36152-.0294.55834.2918 1.14321.2792 1.73924.1717l.07956-.0111c.03769-.0154.02932-.0503.0335-.0796z" fill="#FCF4AA"/><path d="M7.80836 13.5544c-.06998.0129-.1415.0152-.21217.007-.0714-.0151-.14551-.0113-.21496.0111-.0297.0118-.06204.0152-.09353.0098-.17339-.0239-.3486-.0318-.52344-.0237-.06303-.007-.12683-.0004-.18705.0195-.03041.0097-.0631.0097-.09352 0-.16706-.0332-.33878-.0356-.50669-.007-.07817 0-.14797-.0237-.22613-.0195-.04231-.005-.0852.0002-.12504.0153-.03985.015-.07548.0395-.10388.0712-.00977.0126-.03071.0154-.04746.0238.19132-.2506.4628-.428.76911-.5026.34806-.0941.71674-.078 1.05527.0461.20024.0641.37734.1854.50949.349z" fill="#FBCF39"/><path d="M6.05518 14.699c.00247-.1501.05614-.2949.15214-.4104.17728-.208.4062-.2191.64908-.1773l.02652.0084c.25823.0698.25823.0698.25963.3336v.9073c0 .0419.01954.0908-.02373.1271-.04188-.0391-.0349-.0908-.03909-.1396v-.2666c-.00413-.0763-.00413-.1527 0-.229 0-.106-.04187-.1395-.13958-.1395-.29592-.0028-.58905.0139-.88497-.014z" fill="#FBDB45"/><path d="M6.05529 14.6991c.01954-.0084.02652-.0391.05304-.0363.30011.0223.60022 0 .90173.0097.09631 0 .1005 0 .10189.0978.0014.0977 0 .2065 0 .3098-.02469.0233-.05395.0411-.08592.0524-.03196.0113-.06592.0158-.09972.0132-.29077.0102-.58189-.001-.87102-.0335-.03336-.1357-.03336-.2774 0-.4131z" fill="#FBE14B"/><path d="M7.55713 15.0534v-.4885c.12004-.074.25265-.021.37828-.0279.09631 0 .20519-.0433.29871.0279.0372.1913.0372.3879 0 .5792-.05315-.0234-.11262-.0283-.1689-.0139-.17169.0126-.35594.067-.50809-.0768z" fill="#FBE04B"/><path d="M5.21777 14.0695c.17618-.0241.35416-.0326.53183-.0251.04745 0 .09073 0 .10329.06-.02513.0084-.01675.0377-.0335.0516-.01065.0084-.01885.0195-.02373.0321-.02373.0112-.01675.0391-.03071.0573-.05477.1331-.0991.2703-.13261.4103-.15874-.0156-.31864-.0156-.47738 0-.01767.0033-.03587.002-.05294-.0036-.01707-.0056-.03246-.0154-.04477-.0285.00571-.1513.04329-.2997.11027-.4355.01536-.0153.01117-.0391.02513-.0558.01954-.014.01535-.0391.02652-.0572l-.0014-.0056z" fill="#FBDA44"/><path d="M8.23278 14.5636c-.22613 0-.45087.0195-.67699 0v-.4592c0-.0545.00837-.074.07677-.0684.15554.0248.31446.0187.46761-.0182.08262.1704.12784.3565.13261.5458z" fill="#FBD943"/><path d="M5.05305 14.6181c.067 0 .13959 0 .201-.0139.12665-.0262.25841-.0089.37409.0488v.536c-.19123-.0237-.38107-.0907-.5709 0-.04052-.188-.04194-.3823-.00419-.5709z" fill="#FAE04B"/><path d="M6.0552 15.1121c.03118-.0223.06745-.0365.1055-.0411.03804-.0046.07664.0004.11226.0145.15115.0214.30397.0284.45644.021.12949.0101.25976.0011.38665-.0265v.2791c-.01317.0212-.03177.0384-.05386.05-.02209.0115-.04687.0169-.07176.0156h-.77051c-.04089-.0007-.08048-.0144-.11307-.0391-.04207-.0847-.05994-.1793-.05165-.2735z" fill="#FBE650"/><path d="M5.05017 15.1945c0-.0474.01117-.0893.07398-.0865.07513-.0066.15081-.0024.22473.0126.01832.0078.03803.0118.05793.0118.01991 0 .03961-.004.05793-.0118.07817-.0349.12423 0 .15634.0698l.08654.3796c-.1877.0674-.39297.0674-.58068 0-.05074-.1186-.07686-.2464-.07677-.3755z" fill="#FAE852"/><path d="M7.55713 15.0535c.10224.0397.21138.0587.32105.0558.08866.0031.17714-.0102.26102-.0391.07817-.0363.09352.0084.09631.0712.00485.1293-.01359.2583-.05443.3811-.01732-.03-.0424-.0548-.07262-.0718-.03021-.0169-.06444-.0254-.09907-.0245-.1033 0-.20799 0-.31128-.0084-.04953.0044-.09901-.009-.13959-.0377l-.00139-.3266z" fill="#FBE650"/><path d="M6.10681 15.3815h.85147c.05404.0067.10887-.0025.15773-.0265v.1396c-.04198.0525-.09748.0925-.16052.1158-.24507.0164-.49106.0132-.73561-.0097-.06342-.0567-.10369-.1347-.11307-.2192z" fill="#FAEB54"/><path d="M7.55715 15.3803c.15479-.0074.30994-.0004.46342.021.00878.0015.01775.0015.02653 0 .12702-.0112.12702-.0112.13958.1228.005.0381-.00501.0766-.02792.1075-.14134-.0254-.28514-.0343-.42852-.0265-.06561 0-.13959.0097-.18007-.0656l.00698-.1592z" fill="#FBEB55"/><path d="M6.22278 15.5938c.00969-.0094.0214-.0164.03423-.0205.01282-.0041.02642-.0052.03975-.0033h.56532c.03629 0 .07259 0 .09631.0335-.06906.0547-.14896.094-.2344.1155-.08543.0214-.17444.0244-.26112.0088-.04731-.0038-.09326-.0177-.1347-.0408-.04143-.0231-.07739-.0549-.10539-.0932z" fill="#FAEA5E"/><path d="M7.55151 15.8101v-.1326c.0111-.0173.02639-.0315.04445-.0413.01807-.0097.03831-.0148.05885-.0146.11725.0112.2331-.0111.35036 0 .05723 0 .12144.0112.11725.095.00151.0176-.00134.0353-.0083.0515-.00697.0163-.01784.0306-.03164.0416-.01381.011-.03012.0185-.04751.0217-.01738.0033-.03529.0022-.05214-.0032-.1354-.0167-.28475.007-.43132-.0181z" fill="#FBEE6A"/><path d="M5.12695 15.5713h.58068c.03415.0506.06138.1055.08096.1633-.20015.0177-.40147.0177-.60162 0-.03404-.0482-.05474-.1045-.06002-.1633z" fill="#FAEC62"/><path d="M5.18701 15.7334c.01536-.0084.02931-.0252.04467-.0252.18638-.0149.3739-.0069.55834.0238.03312.031.06011.0679.07957.1089h-.49972c-.04467 0-.09352 0-.1019.0586-.03023-.0283-.04951-.0664-.05444-.1075-.01256-.0181 0-.0447-.02652-.06v.0014z" fill="#FAED70"/><path d="M8.12664 15.711c-.04607-.0935-.13959-.0614-.2038-.0572-.07767.0173-.15822.0173-.2359 0-.04466-.0168-.08514.0209-.12981.0251v-.1396c.04306.0219.09148.0311.13958.0265h.35176c.04606 0 .09352 0 .1005.0614.0032.0148.00284.0301-.00105.0446-.00388.0146-.01118.028-.02128.0392z" fill="#FAEC5D"/><path d="M5.76062 14.2425c0-.0251 0-.0474.03071-.0572.00002.0113-.00277.0225-.00813.0325-.00536.01-.01312.0185-.02258.0247zM5.2176 14.0693c.00305.0112.00207.023-.00279.0335-.00485.0105-.01326.0189-.02373.0238-.0015-.0111.00021-.0224.00491-.0325.00469-.0102.01219-.0187.02161-.0248zM5.81372 14.1559c0-.0237 0-.0447.0335-.0517-.00054.0108-.00393.0213-.00981.0304-.00588.009-.01405.0164-.02369.0213zM5.18707 14.1267c.0019.0108.00052.0218-.00396.0318-.00448.0099-.01186.0183-.02116.024-.00153-.0107.00002-.0216.00447-.0315.00445-.0099.01161-.0183.02065-.0243z" fill="#FBD33D"/><path d="M5.18703 15.7334c.01051.0056.01884.0145.02365.0254.00481.0109.00582.0231.00287.0346-.0093-.0068-.01665-.0159-.02131-.0264-.00465-.0106-.00645-.0221-.00521-.0336z" fill="#FAEC62"/><path d="M5.78857 14.1881c.00071-.007.00329-.0137.00746-.0193.00418-.0057.0098-.0101.01627-.0128.00002.0072-.00228.0142-.00656.02-.00427.0058-.01029.01-.01717.0121z" fill="#FBD33D"/><path d="M5.13115 17.1794l-.02373-.0391c.09862-.0271.19957-.0448.30151-.053.04466-.0112.03071-.0321.02512-.0573.15634.0587.30151.1396.46203.1927.02233.0251.06002 0 .08236.0251h.02652c.02373.0237.06002 0 .08235.0251h.05165c0 .081-.0684.0712-.11725.0796-.11221.0114-.22508.0151-.3378.0111-.0474-.0039-.09509.0028-.13959.0196-.01506.0071-.0315.0107-.04815.0107-.01665 0-.0331-.0036-.04816-.0107l-.10888-.0559-.04327-.0237-.02791-.0153-.03909-.028c-.02268-.014-.04416-.0298-.06421-.0474-.01814-.0056-.02094-.0237-.0335-.0335z" fill="#FAE04B"/><path d="M5.32666 16.9547c.01052-.0006.021.0018.03017.007.00917.0052.01663.0129.02148.0223-.0105.0005-.02091-.002-.03005-.0072-.00913-.0052-.01662-.0129-.0216-.0221z" fill="#FBF2A0"/><path d="M4.88977 17.0105v-.0251c.00657.001.01268.004.01763.0084.00494.0045.00851.0103.01029.0167 0 .0037-.00147.0072-.00409.0098-.00262.0027-.00617.0041-.00987.0041s-.00725-.0014-.00987-.0041c-.00262-.0026-.00409-.0061-.00409-.0098z" fill="#B8B8B8"/><path d="M5.21765 16.8738l.02754.0246-.02754-.0246zM5.2959 16.9297l.02792.0251-.02792-.0251zM5.26514 16.9031c.007.0013.01352.0045.01891.0091.0054.0047.00946.0107.0118.0174l-.03071-.0265z" fill="#FBF2A0"/><path d="M5.51501 17.386c.00698-.0475.04188-.0503.08096-.0503h.33641c.07342.008.14716-.012.20658-.0558.16793.0246.33709.0399.5067.046.20537-.0006.41017-.0216.61138-.0628.02652 0 .05305-.007.07957-.0111.0101.0203.02676.0365.04729.0462.02053.0096.0437.012.06577.0068.09327.0022.18659-.0024.27917-.014.03664-.0101.07541-.0096.11176.0015.03635.0112.06876.0324.09343.0614-.00084.0047-.00263.0093-.00527.0134-.00264.004-.00607.0076-.01008.0103l-.03769.0237-.02652.014-.04048.0223c-.01893.0105-.03851.0199-.05863.0279-.04885.0168-.09771.0321-.14656.0503l-.08515.0279c-.0349.0098-.07119.0167-.10608.0279l-.03769.0084c-.03876.0046-.07706.0125-.11446.0237-.05548.0062-.1105.016-.16471.0293-.11865.0224-.24149-.0097-.36013.0251-.04608.0093-.09352.0093-.13959 0-.12044-.0148-.24159-.0232-.36292-.0251-.05604-.0139-.11292-.0242-.1703-.0307-.07119-.0209-.13958-.0363-.21775-.0558l-.16611-.0559c-.04841-.0153-.09517-.0354-.13958-.06-.00781-.0049-.01447-.0114-.01953-.0191-.00505-.0077-.00839-.0164-.00979-.0255z" fill="#FBE44F"/><path d="M7.36169 17.2547c.02094-.0293.05165-.0266.08236-.0252-.02094.0308-.05304.0238-.08236.0252z" fill="#FBE44F"/><path d="M8.00952 16.984c.00514-.0093.01291-.017.02233-.0219.00943-.005.02011-.0071.03071-.006-.00527.0092-.01306.0167-.02245.0217-.0094.0049-.02001.0071-.03059.0062z" fill="#FBF3A3"/><path d="M7.4707 17.227c.00567-.0089.01389-.016.02359-.0202.0097-.0042.02045-.0054.03085-.0035-.00592.0087-.01417.0155-.0238.0197-.00963.0042-.02025.0056-.03064.004z" fill="#FBE44F"/><path d="M7.9884 17.0017l.02754-.0246-.02754.0246zM8.06946 16.9548l.03071-.0251-.03071.0251z" fill="#FBF3A3"/><path d="M7.98847 17.3638h-.03071c.00269-.0059.00702-.0109.01247-.0143.00545-.0035.01179-.0053.01824-.0053v.0196z" fill="#A3A3A3"/><path d="M7.87964 17.0621l.02931-.0238-.02931.0238zM7.93408 17.0342l.02931-.0237-.02931.0237z" fill="#FBF3A3"/><path d="M6.08724 17.28c-.03071 0-.06282 0-.08236-.0251.02932 0 .06003-.0014.08236.0251zM5.97701 17.2547c-.02931 0-.06142 0-.08236-.0252.03071-.0014.06142-.0041.08236.0252z" fill="#FBE44F"/><path d="M5.29724 17.3093V17.28l.02931.0224-.02931.0069z" fill="#A6A6A6"/><path d="M7.9018 17.3889h-.02094l.02792-.0195-.00698.0195zM7.84475 17.4196l-.01675-.007.02373-.0154c-.00176.0076-.0041.0151-.00698.0224z" fill="#FADF4A"/></svg>