<svg width="35" height="24" viewBox="0 0 35 24" fill="none" xmlns="http://www.w3.org/2000/svg">
<path d="M0 3.25C0 1.45508 1.45507 0 3.25 0H31.75C33.5449 0 35 1.45507 35 3.25V20.75C35 22.5449 33.5449 24 31.75 24H3.25C1.45507 24 0 22.5449 0 20.75V3.25Z" fill="white"/>
<path d="M16.8556 8.30225C16.1019 8.30225 15.4896 8.91461 15.4739 9.68399V11.0657H16.8556C17.6093 11.0657 18.2374 10.4534 18.2374 9.68399C18.2374 8.91461 17.6093 8.30225 16.8556 8.30225Z" fill="#EC2F67"/>
<path d="M16.8556 4C13.7153 4 11.1873 6.54367 11.1716 9.684V15.368H16.8556C19.996 15.3209 22.4925 12.7301 22.4454 9.58979C22.3826 6.51226 19.9175 4.0471 16.8556 4ZM16.8556 12.7772H13.7467V9.6683C13.7624 7.95682 15.1441 6.57507 16.8399 6.57507C18.5514 6.54367 19.9646 7.89401 20.0117 9.60549C20.0431 11.317 18.6927 12.7301 16.9812 12.7772C16.9498 12.7772 16.9027 12.7772 16.8556 12.7772Z" fill="#EC2F67"/>
<path d="M8 17.1894C8 17.0009 8.14131 16.8596 8.32973 16.8596H9.19333C10.1511 16.8596 10.8106 17.5191 10.8106 18.367V18.3827C10.8106 19.2463 10.1511 19.9057 9.19333 19.9057H8.32973C8.14131 19.9057 8 19.7644 8 19.576V17.1894ZM9.19333 19.2934C9.66438 19.3248 10.0883 18.9479 10.104 18.4769C10.104 18.4455 10.104 18.4141 10.104 18.3827C10.1354 17.8959 9.75859 17.4877 9.28754 17.4563C9.25613 17.4563 9.22473 17.4563 9.19333 17.4563H8.67517V19.2934H9.19333Z" fill="#231F20"/>
<path d="M13.3386 19.5918C13.3228 19.7802 13.1658 19.9058 12.9774 19.9058C12.8047 19.8901 12.6791 19.7645 12.6634 19.5918V19.5603C12.5064 19.7959 12.2551 19.9372 11.9882 19.9372C11.4858 19.9372 11.2031 19.6075 11.2031 19.0736V17.8646C11.2188 17.6762 11.3758 17.5505 11.5643 17.5505C11.737 17.5662 11.8626 17.6919 11.8783 17.8646V18.8538C11.8783 19.1678 12.0353 19.3248 12.2708 19.3248C12.5064 19.3248 12.6791 19.1678 12.6791 18.8538V17.8646C12.6948 17.6762 12.8518 17.5505 13.0402 17.5505C13.2129 17.5662 13.3385 17.6919 13.3543 17.8646L13.3386 19.5918Z" fill="#231F20"/>
<path d="M13.8252 17.0168C13.8252 16.8441 13.9822 16.687 14.1549 16.7027C14.1706 16.7027 14.1706 16.7027 14.1863 16.7027C14.3591 16.687 14.5318 16.8127 14.5475 16.9854C14.5475 17.0011 14.5475 17.0011 14.5475 17.0168C14.5161 17.2209 14.3119 17.3622 14.1078 17.3151C13.9665 17.2994 13.8566 17.1738 13.8252 17.0168ZM13.8566 17.8804C13.8566 17.6919 13.9979 17.5506 14.1863 17.5506C14.3748 17.5506 14.5161 17.6919 14.5161 17.8804V19.6075C14.5161 19.796 14.3748 19.9373 14.1863 19.9373C13.9979 19.9373 13.8566 19.796 13.8566 19.6075V17.8804Z" fill="#231F20"/>
<path d="M15.1442 19.2464V18.1473H15.1285C14.9715 18.1316 14.8616 18.006 14.8616 17.849C14.8773 17.7077 14.9872 17.5977 15.1285 17.582H15.1442V17.2837C15.1285 17.0953 15.2698 16.9383 15.4582 16.9226C15.6467 16.9069 15.8037 17.0482 15.8194 17.2366C15.8194 17.2523 15.8194 17.268 15.8194 17.2837V17.5663H16.102C16.259 17.582 16.3689 17.7077 16.3689 17.8647C16.3532 18.006 16.2433 18.1159 16.102 18.1316H15.8037V19.1208C15.8037 19.2778 15.8665 19.3406 16.0235 19.3406H16.102C16.259 19.3406 16.3689 19.4662 16.3689 19.6076C16.3689 19.7175 16.3061 19.8117 16.1962 19.8588C16.0706 19.9059 15.945 19.9216 15.8194 19.9216C15.4268 19.9373 15.1442 19.7803 15.1442 19.2464Z" fill="#231F20"/>
<path d="M16.793 17.1737C16.793 16.9853 16.95 16.844 17.1227 16.844H17.2012C17.3425 16.844 17.4681 16.9225 17.5466 17.0324L18.8499 18.7281V17.158C18.8342 16.9696 18.9755 16.8125 19.1639 16.7968C19.3523 16.7811 19.5094 16.9225 19.5251 17.1109C19.5251 17.1266 19.5251 17.1423 19.5251 17.158V19.576C19.5251 19.7645 19.3837 19.9058 19.1953 19.9058H19.1796C19.0383 19.9058 18.9127 19.8273 18.8342 19.7017L17.4995 17.9431V19.576C17.4838 19.7645 17.3268 19.8901 17.1384 19.8901C16.9657 19.8744 16.8401 19.7488 16.8244 19.576V17.1737H16.793Z" fill="#EC2F67"/>
<path d="M19.949 18.7438C19.949 18.0529 20.5142 17.4719 21.2051 17.4719C21.896 17.4719 22.4769 18.0372 22.4769 18.7281V18.7438C22.4769 19.4346 21.9117 19.9999 21.2208 19.9999C20.5299 19.9999 19.949 19.4503 19.949 18.7438ZM21.8175 18.7438C21.8332 18.3983 21.5505 18.1 21.2051 18.1C20.8754 18.1 20.6084 18.3512 20.5927 18.681C20.5927 18.6967 20.5927 18.7124 20.5927 18.7281V18.7438C20.577 19.0892 20.8597 19.3718 21.2051 19.3875C21.5348 19.3875 21.8018 19.1206 21.8175 18.7909C21.8175 18.7752 21.8175 18.7595 21.8175 18.7438Z" fill="#EC2F67"/>
<path d="M23.2148 19.6546L22.6496 18.006C22.6339 17.9589 22.6182 17.8961 22.6182 17.8489C22.6182 17.6762 22.7595 17.5506 22.9322 17.5506C23.0892 17.5506 23.2148 17.6605 23.2462 17.8018L23.6074 18.9795L23.9685 17.8018C23.9999 17.6448 24.1412 17.5349 24.3139 17.5349H24.361C24.5181 17.5349 24.6594 17.6448 24.7065 17.8018L25.0676 18.9795L25.4288 17.7861C25.4602 17.6448 25.5858 17.5349 25.7428 17.5349C25.9155 17.5349 26.0411 17.6605 26.0568 17.8175V17.8332C26.0568 17.8803 26.0411 17.9275 26.0411 17.9746L25.4602 19.6389C25.4288 19.8117 25.2717 19.9373 25.099 19.9373H25.0519C24.8792 19.9373 24.7379 19.8117 24.6908 19.6546L24.3139 18.477L23.9528 19.6703C23.9214 19.8431 23.7644 19.953 23.5917 19.953H23.576C23.4032 19.953 23.2462 19.8274 23.2148 19.6546Z" fill="#EC2F67"/>
<path d="M3.25 1H31.75V-1H3.25V1ZM34 3.25V20.75H36V3.25H34ZM31.75 23H3.25V25H31.75V23ZM1 20.75V3.25H-1V20.75H1ZM3.25 23C2.00736 23 1 21.9926 1 20.75H-1C-1 23.0972 0.902789 25 3.25 25V23ZM34 20.75C34 21.9926 32.9926 23 31.75 23V25C34.0972 25 36 23.0972 36 20.75H34ZM31.75 1C32.9926 1 34 2.00736 34 3.25H36C36 0.90279 34.0972 -1 31.75 -1V1ZM3.25 -1C0.90279 -1 -1 0.90279 -1 3.25H1C1 2.00736 2.00736 1 3.25 1V-1Z" fill="#F6F7F8"/>
</svg>
