<svg width="36" height="24" viewBox="0 0 36 24" fill="none" xmlns="http://www.w3.org/2000/svg">
<rect x="0.0898438" width="30" height="20.5714" rx="3.25" fill="white"/>
<path d="M0.589844 3.24812C0.589844 1.73038 1.82022 0.5 3.33796 0.5H26.8417C28.3595 0.5 29.5898 1.73038 29.5898 3.24812V17.3233C29.5898 18.841 28.3595 20.0714 26.8417 20.0714H3.33796C1.82022 20.0714 0.589844 18.8411 0.589844 17.3233V3.24812Z" stroke="#868E98"/>
<path d="M8.66113 8.57136H22.3754L15.5183 4.28564L8.66113 8.57136Z" fill="#868E98" stroke="#868E98" stroke-width="2" stroke-linecap="round" stroke-linejoin="round"/>
<path d="M23.0898 16.2856H7.08984H23.0898Z" fill="#868E98"/>
<path d="M23.0898 16.2856H7.08984" stroke="#868E98" stroke-linecap="round" stroke-linejoin="round"/>
<path fill-rule="evenodd" clip-rule="evenodd" d="M20.6613 10.2856C21.1347 10.2856 21.5185 10.6694 21.5185 11.1428V16.2856H19.8042V11.1428C19.8042 10.6694 20.188 10.2856 20.6613 10.2856Z" fill="#868E98"/>
<path fill-rule="evenodd" clip-rule="evenodd" d="M13.8039 10.2856C14.2773 10.2856 14.6611 10.6694 14.6611 11.1428V16.2856H12.9468V11.1428C12.9468 10.6694 13.3305 10.2856 13.8039 10.2856Z" fill="#868E98"/>
<path fill-rule="evenodd" clip-rule="evenodd" d="M10.3757 10.2856C10.8491 10.2856 11.2328 10.6694 11.2328 11.1428V16.2856H9.51855V11.1428C9.51855 10.6694 9.90231 10.2856 10.3757 10.2856Z" fill="#868E98"/>
<path fill-rule="evenodd" clip-rule="evenodd" d="M17.2326 10.2856C17.706 10.2856 18.0898 10.6694 18.0898 11.1428V16.2856H16.3755V11.1428C16.3755 10.6694 16.7592 10.2856 17.2326 10.2856Z" fill="#868E98"/>
<rect x="17.0898" y="11" width="16.8" height="12" rx="2" stroke="#B0B6BF"/>
<rect x="17.0898" y="11" width="16.8" height="12" rx="2" fill="white"/>
<rect x="17.3398" y="11.25" width="16.3" height="11.5" rx="1.75" fill="white" stroke="#F5F5F5" stroke-width="0.5"/>
<mask id="mask0_424_10200" style="mask-type:luminance" maskUnits="userSpaceOnUse" x="17" y="11" width="17" height="12">
<rect x="17.3398" y="11.25" width="16.3" height="11.5" rx="1.75" fill="white" stroke="white" stroke-width="0.5"/>
</mask>
<g mask="url(#mask0_424_10200)">
<rect x="29.0898" y="11" width="4.8" height="12" fill="#FF3131"/>
<path fill-rule="evenodd" clip-rule="evenodd" d="M17.0898 23H21.8898V11H17.0898V23Z" fill="#FF3131"/>
<path fill-rule="evenodd" clip-rule="evenodd" d="M26.904 16.3859C26.7201 16.5698 26.4092 16.4035 26.4603 16.1484L26.6899 15L25.8899 15.4L25.4899 14.2L25.0899 15.4L24.2899 15L24.5196 16.1484C24.5706 16.4035 24.2598 16.5698 24.0759 16.3859C23.9732 16.2832 23.8067 16.2832 23.704 16.3859L23.4899 16.6L22.6899 16.2L23.0899 17L22.9256 17.1642C22.7955 17.2944 22.7955 17.5055 22.9256 17.6357L23.8899 18.6H25.0899L25.2899 19.8H25.6899L25.8899 18.6H27.0899L28.0542 17.6357C28.1844 17.5055 28.1844 17.2944 28.0542 17.1642L27.8899 17L28.2899 16.2L27.4899 16.6L27.2759 16.3859C27.1732 16.2832 27.0067 16.2832 26.904 16.3859Z" fill="#FF3131"/>
</g>
</svg>
