<svg width="35" height="24" viewBox="0 0 35 24" fill="none" xmlns="http://www.w3.org/2000/svg">
<rect x="0.416667" y="0.416667" width="34.1667" height="23.1667" rx="2.2901" fill="white" stroke="#F6F7F8" stroke-width="0.833333"/>
<path d="M6.28164 14.5466C5.40585 14.605 4.53006 14.0795 4.17974 13.2621C3.82943 12.5031 4.00458 11.6273 4.58844 11.0434C5.34746 10.226 6.63195 10.1676 7.50775 10.9266C7.74129 11.1602 7.74129 11.3937 7.56613 11.5689C7.44936 11.6857 7.21582 11.6857 7.04066 11.5689C6.80711 11.3937 6.57357 11.2186 6.28164 11.2186C5.58101 11.1602 4.88038 11.6273 4.82199 12.3863C4.7636 13.0869 5.23069 13.7876 5.98971 13.8459C6.0481 13.8459 6.10648 13.8459 6.16487 13.8459C6.4568 13.8459 6.74873 13.7292 6.98227 13.554C7.04066 13.4956 7.09904 13.4956 7.09904 13.4372C7.2742 13.3205 7.50775 13.3205 7.62452 13.4372C7.6829 13.4956 7.6829 13.554 7.6829 13.6124C7.74129 13.7292 7.6829 13.9043 7.56613 13.9627C7.2742 14.313 6.80711 14.5466 6.28164 14.5466Z" fill="#2E50A0"/>
<path d="M6.39833 12.8535C6.04802 12.8535 5.6977 12.8535 5.34739 12.8535C5.17223 12.8535 4.99707 12.7367 4.99707 12.5615V12.5032C4.99707 12.328 5.11384 12.1528 5.289 12.0945H5.34739C6.04802 12.0945 6.74865 12.0945 7.44928 12.0945C7.62444 12.0945 7.7996 12.2696 7.7996 12.4448C7.7996 12.4448 7.7996 12.4448 7.7996 12.5032C7.7996 12.6783 7.68283 12.8535 7.50767 12.8535H7.44928C7.09897 12.8535 6.74865 12.8535 6.39833 12.8535Z" fill="#2E50A0"/>
<path d="M30.9789 12.5616C30.9206 12.0361 30.5702 11.569 29.9864 11.3355C29.5777 11.2187 29.1106 11.1019 28.7019 11.1603C28.118 11.1603 27.5926 11.1603 27.0087 11.1603C26.7168 11.1603 26.4248 11.1603 26.1329 11.0435C25.8994 10.9851 25.7826 10.81 25.841 10.5764C25.841 10.2845 25.8994 10.2261 26.1913 10.2261C26.2497 10.2261 26.3665 10.2261 26.4248 10.2261C27.1839 10.2261 27.9429 10.2261 28.7019 10.2261C28.8771 10.2261 29.0522 10.2261 29.2274 10.2261C29.5777 10.2845 29.6945 10.4013 29.6945 10.7516C29.6945 10.9267 29.8112 11.0435 29.9864 11.1019C30.1615 11.1019 30.3951 11.1019 30.5702 11.1019C30.687 11.1019 30.8038 10.9851 30.8038 10.81C30.8622 10.2261 30.6286 9.70064 30.1032 9.35033C29.6945 9.11678 29.2274 9.00001 28.7603 9.0584C24.4397 9.0584 20.1191 9.0584 15.7986 9.0584V10.2845C17.4918 10.2845 19.185 10.2845 20.8782 10.2845C21.0533 10.2845 21.0533 10.2845 21.0533 10.4597C21.0533 11.6858 21.0533 12.9119 21.0533 14.138C21.0533 14.1964 21.0533 14.2548 21.0533 14.3131C21.0533 14.4883 21.1701 14.6051 21.3453 14.6635C21.5204 14.6635 21.6372 14.6635 21.8123 14.6635C22.1043 14.6635 22.2794 14.5467 22.2794 14.1964C22.2794 12.9703 22.2794 11.7442 22.2794 10.518C22.2794 10.4597 22.2794 10.4013 22.2794 10.4013C22.2794 10.3429 22.3378 10.2845 22.3962 10.2845C23.0968 10.2845 23.7391 10.2845 24.4397 10.2845C24.4981 10.2845 24.5565 10.3429 24.5565 10.4013C24.5565 10.518 24.5565 10.6348 24.5565 10.81C24.5565 11.4522 24.9652 12.0361 25.6074 12.2696C25.9578 12.3864 26.3081 12.4448 26.7168 12.4448C27.4758 12.4448 28.1764 12.4448 28.9354 12.4448C29.1106 12.4448 29.2274 12.4448 29.4025 12.5032C29.6361 12.5616 29.7528 12.7367 29.7528 12.9703C29.7528 13.2622 29.6361 13.379 29.3441 13.4373C29.2274 13.4373 29.169 13.4957 29.0522 13.4957C28.2348 13.4957 27.359 13.4957 26.5416 13.4957C26.4248 13.4957 26.3081 13.4957 26.1913 13.4373C25.8994 13.379 25.7826 13.2622 25.7826 12.9119C25.7826 12.7367 25.6658 12.6199 25.4907 12.6199C25.3155 12.6199 25.1403 12.6199 24.9652 12.6199C24.79 12.6199 24.6733 12.7367 24.6733 12.8535C24.6733 12.9703 24.6733 13.087 24.6733 13.1454C24.7316 13.7293 25.082 14.2548 25.6074 14.4883C25.9578 14.6051 26.2497 14.6635 26.6 14.6635C27.5926 14.6635 28.5851 14.6635 29.5777 14.6635C30.1032 14.6635 30.5702 14.3131 30.7454 13.846C30.9789 13.379 31.0373 12.9703 30.9789 12.5616Z" fill="#E5212B"/>
<path d="M18.8932 9.46709V9.75902C18.8932 9.99256 18.718 10.2261 18.4261 10.2261H14.5142C14.2807 10.2261 14.0471 10.0509 14.0471 9.75902V9.46709C14.0471 9.23354 14.2223 9 14.5142 9H18.4261C18.6596 9 18.8932 9.23354 18.8932 9.46709Z" fill="#2E50A0"/>
<path d="M18.8932 13.7876V14.0795C18.8932 14.313 18.718 14.5466 18.4261 14.5466H14.5142C14.2807 14.5466 14.0471 14.3714 14.0471 14.0795V13.7876C14.0471 13.554 14.2223 13.3205 14.5142 13.3205H18.4261C18.6596 13.3205 18.8932 13.554 18.8932 13.7876Z" fill="#2E50A0"/>
<path d="M18.8932 11.6274V11.9193C18.8932 12.1529 18.718 12.3864 18.4261 12.3864H14.5142C14.2807 12.3864 14.0471 12.2112 14.0471 11.9193V11.6274C14.0471 11.3938 14.2223 11.1603 14.5142 11.1603H18.4261C18.6596 11.2187 18.8932 11.3938 18.8932 11.6274Z" fill="#2E50A0"/>
<path d="M14.6893 14.2547V9.29193C14.6893 9.11677 14.5725 9 14.3974 9C14.2222 9 13.9303 9 13.7551 9C13.58 9 13.4632 9.11677 13.4632 9.29193V12.7367C13.4048 12.6783 13.4048 12.6783 13.4048 12.6783C12.529 11.5106 11.6532 10.4013 10.7774 9.23354C10.6607 9.11677 10.5439 9 10.3687 9.05839C10.0768 9.05839 9.78486 9.05839 9.55132 9.05839C9.201 9.05839 9.08423 9.17516 9.08423 9.52547C9.08423 11.1019 9.08423 12.6199 9.08423 14.1964C9.08423 14.2547 9.08423 14.2547 9.08423 14.3131C9.08423 14.4883 9.201 14.6634 9.37616 14.6634C9.55132 14.6634 9.72647 14.6634 9.84325 14.6634C10.0184 14.6634 10.1936 14.5467 10.1936 14.3715C10.1936 14.3131 10.1936 14.2547 10.1936 14.138C10.1936 13.0286 10.1936 11.8609 10.1936 10.7516C10.1936 10.6932 10.1936 10.6348 10.2519 10.6348C10.3103 10.6348 10.3103 10.6932 10.3103 10.6932C11.2445 11.9193 12.0619 13.087 13.0545 14.2547C13.1712 14.4299 13.288 14.6051 13.58 14.6051H14.2806C14.5725 14.5467 14.6893 14.4299 14.6893 14.2547Z" fill="#E5212B"/>
</svg>
