<svg width="35" height="24" viewBox="0 0 35 24" fill="none" xmlns="http://www.w3.org/2000/svg">
<rect x="0.416667" y="0.416667" width="34.1667" height="23.1667" rx="2.2901" fill="white" stroke="#F6F7F8" stroke-width="0.833333"/>
<path fill-rule="evenodd" clip-rule="evenodd" d="M25.1865 12.0035H23.1361C22.9088 12.0035 22.7243 11.819 22.7243 11.5917C22.7243 11.36 22.9088 11.1584 23.1361 11.1584H26.2589V9.60132H23.1361C22.0466 9.60132 21.1586 10.4978 21.1586 11.596C21.1586 12.6941 22.0466 13.5906 23.1361 13.5906H25.1608C25.3881 13.5906 25.5726 13.775 25.5726 14.0024C25.5726 14.234 25.3881 14.4013 25.1608 14.4013H20.8198C20.4509 15.1134 20.0948 15.7225 19.3656 16.0271H25.1822C26.2546 16.0099 27.1297 15.0962 27.1297 14.0067C27.134 12.9171 26.2589 12.0163 25.1865 12.0035Z" fill="#71706F"/>
<path fill-rule="evenodd" clip-rule="evenodd" d="M17.3281 14.4056H15.7496V12.8013C15.7496 11.9048 16.453 11.1756 17.3281 11.1756C18.2032 11.1756 18.9152 11.9048 18.9152 12.8013C18.9109 13.6978 18.1989 14.4056 17.3281 14.4056ZM17.3281 9.60132C15.5908 9.60132 14.1753 11.0383 14.1753 12.8099V12.8785V19.4844H15.7496V16.0356H17.3281C19.0654 16.0356 20.4766 14.5772 20.4766 12.8099C20.4723 11.034 19.0654 9.60132 17.3281 9.60132Z" fill="#71706F"/>
<path fill-rule="evenodd" clip-rule="evenodd" d="M9.19088 16.0271C7.70241 16.0271 6.45416 14.9547 6.11528 13.5563C6.11528 13.5563 6.01662 13.093 6.01662 12.7885C6.01662 12.4839 6.11099 12.0163 6.11099 12.0163C6.44987 10.6222 7.70241 9.57989 9.18659 9.57989C10.9324 9.57989 12.3651 11.0169 12.3651 12.7799V13.5563H7.72386C7.99839 14.0968 8.55174 14.4013 9.19088 14.4013H13.3646L13.3689 9.82439C13.3689 9.14236 12.8155 8.58472 12.1421 8.58472H6.22681C5.55335 8.58472 5 9.1252 5 9.80724V15.7826C5 16.4646 5.55335 17.0394 6.22681 17.0394H12.1421C12.7469 17.0394 13.2531 16.5976 13.3517 16.0228L9.19088 16.0271Z" fill="#C8036F"/>
<path fill-rule="evenodd" clip-rule="evenodd" d="M9.18662 11.0984C8.55177 11.0984 7.99413 11.493 7.7196 11.9992H10.6494C10.3748 11.493 9.82148 11.0984 9.18662 11.0984Z" fill="#C8036F"/>
<mask id="mask0" mask-type="alpha" maskUnits="userSpaceOnUse" x="6" y="4" width="6" height="4">
<path fill-rule="evenodd" clip-rule="evenodd" d="M6.50537 4H11.863V7.5689H6.50537V4Z" fill="white"/>
</mask>
<g mask="url(#mask0)">
<path fill-rule="evenodd" clip-rule="evenodd" d="M11.863 6.64236C11.863 5.18391 10.6619 4 9.18205 4C7.72789 4 6.54398 5.14531 6.50537 6.56944C6.50537 6.57373 6.50537 6.58231 6.50537 6.5866V7.38016C6.50537 7.47453 6.58258 7.5689 6.67695 7.5689H7.66355C7.75792 7.5689 7.84371 7.47453 7.84371 7.38016V6.64236C7.84371 5.91314 8.44424 5.32118 9.18205 5.32118C9.91985 5.32118 10.5204 5.91314 10.5204 6.64236V7.38016C10.5204 7.47453 10.5976 7.5689 10.6963 7.5689H11.6829C11.7772 7.5689 11.863 7.47453 11.863 7.38016V6.64236Z" fill="#C8036F"/>
</g>
<path fill-rule="evenodd" clip-rule="evenodd" d="M18.7051 17.833C18.7051 17.9016 18.7566 17.9359 18.8166 17.9359C18.8767 17.9359 18.9582 17.8844 18.9582 17.7944C18.9582 17.73 18.911 17.6914 18.8553 17.6914C18.7866 17.6914 18.7051 17.7386 18.7051 17.833ZM18.229 17.8373C18.229 17.9059 18.2805 17.9359 18.3362 17.9359C18.4048 17.9359 18.4821 17.8844 18.4821 17.7901C18.4821 17.7257 18.4392 17.6914 18.3791 17.6914C18.3062 17.6914 18.229 17.7386 18.229 17.8373ZM19.0912 18.0903L18.9496 18.9053C18.8767 19.3171 18.6107 19.5059 18.2504 19.5059C17.9416 19.5059 17.7057 19.3043 17.7743 18.9053L17.9158 18.0903H18.1346L17.9931 18.9053C17.9502 19.1584 18.0617 19.3043 18.2762 19.3043C18.4949 19.3043 18.6837 19.1713 18.7309 18.9053L18.8724 18.0903H19.0912Z" fill="#71706F"/>
<path fill-rule="evenodd" clip-rule="evenodd" d="M19.4686 19.0426C19.46 19.2056 19.5672 19.3129 19.7174 19.3129C19.9104 19.3129 20.0949 19.1627 20.1077 18.9354C20.1163 18.7681 20.0091 18.6694 19.8589 18.6694C19.6702 18.6694 19.4815 18.8238 19.4686 19.0426ZM19.623 18.0903L19.5244 18.6523C19.6101 18.5364 19.7774 18.4764 19.8975 18.4764C20.142 18.4764 20.3136 18.6222 20.3136 18.8925C20.3136 19.2742 20.052 19.5059 19.7131 19.5059C19.5844 19.5059 19.4729 19.4587 19.4042 19.3343L19.3656 19.4801H19.1726L19.4171 18.0946L19.623 18.0903Z" fill="#71706F"/>
<path fill-rule="evenodd" clip-rule="evenodd" d="M21.3389 18.9052C21.3561 18.7379 21.2574 18.6692 21.0901 18.6692C20.94 18.6692 20.807 18.7379 20.7469 18.9052H21.3389ZM20.7126 19.0725C20.7041 19.2097 20.8113 19.317 20.9872 19.317C21.0858 19.317 21.2145 19.2784 21.2874 19.2097L21.399 19.3384C21.2789 19.4499 21.0987 19.5057 20.9486 19.5057C20.6654 19.5057 20.5024 19.3341 20.5024 19.0767C20.5024 18.7293 20.7727 18.4719 21.1159 18.4719C21.429 18.4719 21.6092 18.665 21.5019 19.0682H20.7126V19.0725Z" fill="#71706F"/>
<path fill-rule="evenodd" clip-rule="evenodd" d="M22.0509 18.498L22.0423 18.6267C22.1367 18.5023 22.2525 18.4766 22.3554 18.4766C22.4498 18.4766 22.5356 18.5109 22.5828 18.5624L22.4584 18.7425C22.4155 18.7039 22.3726 18.6825 22.2954 18.6825C22.1538 18.6825 22.0166 18.7683 21.9865 18.9484L21.8922 19.4803H21.6863L21.8579 18.498H22.0509Z" fill="#71706F"/>
<path fill-rule="evenodd" clip-rule="evenodd" d="M23.5609 18.4978L23.6638 19.2742L24.037 18.4978H24.2644L23.7539 19.4801H23.5137L23.415 18.8324L23.2606 19.1541L23.089 19.4801H22.8531L22.6815 18.4978H22.9089L23.0118 19.2742L23.385 18.4978H23.5609Z" fill="#71706F"/>
<path fill-rule="evenodd" clip-rule="evenodd" d="M25.1523 18.9052C25.1694 18.7379 25.0708 18.6692 24.9035 18.6692C24.7533 18.6692 24.6204 18.7379 24.5603 18.9052H25.1523ZM24.526 19.0725C24.5174 19.2097 24.6246 19.317 24.8005 19.317C24.8992 19.317 25.0279 19.2784 25.1008 19.2097L25.2123 19.3384C25.0922 19.4499 24.9121 19.5057 24.7619 19.5057C24.4788 19.5057 24.3158 19.3341 24.3158 19.0767C24.3158 18.7293 24.586 18.4719 24.9292 18.4719C25.2424 18.4719 25.4225 18.665 25.3153 19.0682H24.526V19.0725Z" fill="#71706F"/>
<path fill-rule="evenodd" clip-rule="evenodd" d="M25.6971 18.2318C25.6971 18.3004 25.7486 18.339 25.8043 18.339C25.8815 18.339 25.9587 18.2876 25.9587 18.1889C25.9587 18.1246 25.9073 18.086 25.8558 18.086C25.7786 18.0817 25.6971 18.1289 25.6971 18.2318ZM25.8772 18.4978L25.7057 19.4801H25.4998L25.6713 18.4978H25.8772Z" fill="#71706F"/>
<path fill-rule="evenodd" clip-rule="evenodd" d="M26.7824 18.7424C26.718 18.6695 26.6365 18.6523 26.5421 18.6523C26.4092 18.6523 26.3105 18.6995 26.3105 18.7853C26.3105 18.8582 26.3877 18.8882 26.5035 18.8968C26.6794 18.914 26.911 18.974 26.8639 19.2271C26.8295 19.4115 26.6494 19.5188 26.3963 19.5188C26.2376 19.5188 26.0874 19.4845 25.9845 19.3386L26.1175 19.1928C26.1904 19.2957 26.3191 19.3386 26.4349 19.3386C26.5336 19.3386 26.6451 19.3043 26.6665 19.2099C26.6837 19.1199 26.6065 19.0898 26.4649 19.0727C26.2976 19.0555 26.1175 18.9955 26.1175 18.811C26.1175 18.5665 26.3791 18.4807 26.5765 18.4807C26.7266 18.4807 26.8381 18.515 26.9282 18.6137L26.7824 18.7424Z" fill="#71706F"/>
<path fill-rule="evenodd" clip-rule="evenodd" d="M27.4258 18.4977L27.3314 19.0253C27.3014 19.1926 27.3786 19.3084 27.5459 19.3084C27.7046 19.3084 27.8419 19.1754 27.8719 19.0082L27.962 18.4934H28.1679L27.9963 19.4757H27.8118L27.8247 19.3342C27.7089 19.4457 27.5974 19.4972 27.4601 19.4972C27.2199 19.4972 27.0783 19.3256 27.1298 19.0253L27.2199 18.4977H27.4258Z" fill="#71706F"/>
<path fill-rule="evenodd" clip-rule="evenodd" d="M29.0601 19.48L29.1544 18.9567C29.1845 18.7851 29.1287 18.6736 28.94 18.6736C28.777 18.6736 28.6397 18.8066 28.614 18.9696L28.5239 19.4843H28.318L28.4896 18.502H28.674L28.6612 18.6436C28.7727 18.5363 28.8928 18.4849 29.0172 18.4849C29.2531 18.4849 29.4075 18.6522 29.3561 18.9524L29.2617 19.48H29.0601Z" fill="#71706F"/>
<path fill-rule="evenodd" clip-rule="evenodd" d="M29.8065 19.0471C29.8065 19.2144 29.9137 19.3173 30.0724 19.3173C30.4928 19.3173 30.6086 18.6653 30.1839 18.6653C29.9866 18.6653 29.8065 18.8154 29.8065 19.0471ZM29.7507 19.6133C29.7378 19.7506 29.8408 19.802 30.0124 19.802C30.1625 19.802 30.3255 19.7162 30.3641 19.5018L30.3941 19.3345C30.3041 19.4589 30.1411 19.5103 30.0209 19.5103C29.7722 19.5103 29.5963 19.3602 29.5963 19.09C29.5963 18.7039 29.8794 18.4766 30.2054 18.4766C30.3427 18.4766 30.4628 18.5409 30.51 18.6524L30.5443 18.498H30.7416L30.57 19.5103C30.5057 19.8835 30.2311 19.9994 29.9823 19.9994C29.6821 19.9994 29.5148 19.8535 29.5577 19.6176L29.7507 19.6133Z" fill="#71706F"/>
</svg>
