<svg width="35" height="24" viewBox="0 0 35 24" fill="none" xmlns="http://www.w3.org/2000/svg">
<rect width="35" height="24" rx="2.70677" fill="#138F75"/>
<path d="M24.6458 9.0651C24.0759 7.67439 23.068 6.33472 21.8134 5.47988C19.5172 3.73618 15.7444 3.50227 13.231 4.94401C10.4836 6.43253 8.84194 9.26499 9.01205 12.3998C9.17792 15.7167 11.3724 18.5491 14.5068 19.5864C17.3053 20.5263 20.4397 19.8208 22.5491 17.9112C24.9946 15.7503 25.8494 12.1315 24.6458 9.0651ZM20.4397 9.68603V9.72005L20.3716 9.50315L20.4397 9.68603ZM16.3143 10.8258C16.3484 10.7408 16.4164 10.7408 16.5015 10.6897C16.4827 10.7251 16.456 10.7558 16.4236 10.7794C16.3912 10.803 16.3538 10.8188 16.3143 10.8258ZM16.6333 10.7578L16.7694 10.6557L16.7864 10.7067C16.8119 10.6812 16.8757 10.677 16.9183 10.6599C16.8502 10.7025 16.7779 10.745 16.7694 10.8088C16.6163 10.7918 16.5185 10.9406 16.3994 10.9406C16.4164 10.8088 16.6163 10.8939 16.6333 10.7578ZM22.3322 12.6503L22.4641 12.7184L22.5321 12.803L22.3322 12.6503ZM24.2631 13.1607C24.135 13.1309 24.0164 13.207 23.9394 13.0543C23.3865 12.82 22.8851 12.4845 22.3999 12.1825L22.3828 12.1995C22.7656 12.5695 23.3015 12.8332 23.7395 13.0841C23.8884 13.1692 24.1053 13.2202 24.1903 13.3737C24.1397 13.3912 24.0585 13.3912 24.0415 13.4541L23.9224 13.3912C23.8884 13.4031 23.9224 13.4371 23.9054 13.4541L23.9904 13.5222C23.4206 13.2878 22.7826 12.9348 22.2638 12.5185C22.0128 12.3488 21.7615 12.2165 21.5106 12.0336C21.4765 12.0336 21.4255 12.0124 21.4089 12.0634C21.6939 12.2803 21.9958 12.4168 22.2808 12.6159C21.7615 12.3649 21.1406 11.9954 20.7242 11.4935C20.5371 11.3106 20.2691 10.9236 19.9502 10.9917C19.8353 11.0597 19.6525 11.0427 19.5164 11.1108C19.4143 11.1108 19.3331 10.9917 19.2314 11.0767C19.1464 11.2596 18.8784 11.1108 18.8274 11.3106C18.6611 11.3787 18.3591 11.3277 18.3085 11.5275L18.3255 11.6126C17.9896 11.7657 17.5383 11.7147 17.3048 12.0336C17.2368 12.0974 17.105 12.0124 17.0369 12.0974C17.0539 12.0634 17.0199 12.0336 16.9859 12.0336C16.9008 11.9954 16.8498 12.0804 16.786 12.0974C16.7349 12.0124 16.8494 11.9954 16.8323 11.9486C16.6835 11.8805 16.6154 12.0804 16.501 12.1485C16.518 12.0124 16.6669 11.9954 16.7179 11.8805C16.6329 11.8338 16.5648 11.9146 16.501 11.9316C16.5304 11.9146 16.5984 11.7955 16.501 11.7955C16.5857 11.6636 16.769 11.7147 16.8153 11.5616H16.6835C16.8153 11.4637 16.9684 11.3447 17.0875 11.2426C17.0365 11.2426 16.9344 11.1108 16.8489 11.2256C16.8489 11.2086 16.883 11.1916 16.8659 11.1788C16.8026 11.1108 16.7171 11.2256 16.632 11.2256C16.6363 11.2167 16.6363 11.1746 16.598 11.1618H16.547C16.598 11.1278 16.6661 11.0427 16.7341 10.9917L16.7001 10.9577C16.951 10.8088 17.2019 10.6387 17.4528 10.5239L17.5039 10.4728C17.4847 10.4484 17.4587 10.4301 17.4293 10.4203C17.3998 10.4104 17.368 10.4095 17.338 10.4175C17.3253 10.4473 17.2951 10.4686 17.2359 10.4728C17.2476 10.4564 17.2629 10.4429 17.2806 10.4333C17.2983 10.4238 17.3179 10.4183 17.338 10.4175C17.3763 10.341 17.3121 10.2134 17.4699 10.1879C17.5039 10.005 17.6702 9.8689 17.8058 9.7881C17.5889 9.58395 17.5039 9.21395 17.253 9.09912C17.2359 8.95027 17.0871 9.09912 17.0701 8.95027C16.7681 8.929 16.4151 9.08211 16.2106 8.81418C16.0617 8.76314 15.8622 8.78015 15.713 8.79716C15.5769 8.91625 15.5263 9.08211 15.445 9.21395C15.3089 9.31602 15.2413 9.48614 15.1431 9.63499C14.99 9.83488 14.8071 10.0858 14.5392 10.1709V10.1368C14.352 10.3878 13.9523 10.2899 13.7183 10.5579L13.7013 10.4898C13.6163 10.4728 13.5482 10.5239 13.5312 10.5919V10.6217C13.4164 10.5919 13.3313 10.7237 13.2803 10.7918C12.9953 11.0937 12.5271 11.0937 12.2256 11.3447C12.2267 11.3436 12.2276 11.3422 12.2282 11.3408C12.2288 11.3393 12.2291 11.3377 12.2291 11.3362C12.2291 11.3346 12.2288 11.333 12.2282 11.3315C12.2276 11.3301 12.2267 11.3288 12.2256 11.3277C11.6727 11.4467 11.4048 11.8635 11.0347 12.2633C10.9374 12.433 10.7668 12.5312 10.6354 12.6673C10.6694 12.8034 10.4653 12.8536 10.4011 12.9183C10.4649 12.8034 10.6184 12.7014 10.6354 12.5695C10.4993 12.6333 10.4653 12.7873 10.3164 12.8545C10.2314 12.7873 10.4011 12.7358 10.3505 12.6678L10.1501 12.8204L10.3334 12.5695C10.2314 12.5823 10.1293 12.7532 10.0145 12.7698C9.98045 12.8204 9.92941 12.8204 9.86519 12.8204V12.8034C9.92899 12.7528 10.0481 12.6333 10.1501 12.5308C10.0315 12.4679 9.89496 12.6154 9.81416 12.6031C9.78013 12.5818 9.79714 12.501 9.71251 12.5308C9.79714 12.4679 9.87838 12.416 9.9124 12.3139C9.84861 12.2965 9.76312 12.3479 9.6955 12.382C9.71251 12.2965 9.87838 12.2493 9.83117 12.114C9.61427 12.08 9.64446 12.2965 9.46116 12.3479C9.64446 12.097 9.9124 11.9482 10.0991 11.6802L10.0821 11.6632C10.4308 11.2762 10.8693 11.0423 11.3027 10.7914C11.6557 10.5915 12.1239 10.4894 12.3787 10.1534C12.4765 10.0216 12.5786 9.9025 12.6424 9.76641C12.6934 9.78767 12.7104 9.73664 12.7274 9.70261C12.9783 9.54951 13.2501 9.45169 13.5482 9.45169C13.6843 9.3156 13.9352 9.40065 14.0373 9.21352C14.3856 8.79674 14.5221 8.27788 14.8241 7.85684C14.9219 7.725 15.041 7.5081 15.2409 7.45707C15.7427 7.5081 16.2314 7.58891 16.6996 7.725C16.9846 7.63994 17.3503 7.42304 17.6395 7.63994C17.8394 7.9419 18.3923 8.04397 18.2392 8.46076C18.5242 8.81375 18.8431 9.21353 19.2131 9.48571C19.2978 9.50272 19.3318 9.45169 19.362 9.40065L19.2646 9.34962C19.3794 9.24755 19.6639 9.41767 19.8515 9.3156C19.9663 9.3156 20.1364 9.34962 20.2168 9.4687C20.3019 9.60054 20.3189 9.76641 20.4384 9.9025L20.5018 9.86848C20.5868 10.0216 20.6209 10.1534 20.7233 10.2895C21.323 10.4894 21.608 11.2081 22.1481 11.5101C22.7988 11.9949 23.4878 12.4845 24.2575 12.769C24.2235 12.8702 24.3426 12.8702 24.3898 12.9008V12.9178C24.292 12.871 24.1559 12.82 24.0581 12.854C24.1559 13.0037 24.4068 12.9344 24.4578 13.1058H24.1895C24.1908 13.139 24.229 13.1479 24.2631 13.1607ZM16.9523 10.5579L17.0373 10.5919C17.0114 10.6132 16.9774 10.6302 16.9395 10.6472C16.9608 10.6302 16.9693 10.6047 16.9523 10.5579Z" fill="white"/>
</svg>
