<svg width="35" height="24" viewBox="0 0 35 24" fill="none" xmlns="http://www.w3.org/2000/svg">
<rect width="35" height="24" rx="2.70677" fill="white"/>
<mask id="mask0" mask-type="alpha" maskUnits="userSpaceOnUse" x="0" y="0" width="35" height="24">
<rect width="35" height="24" rx="2.70677" fill="white"/>
</mask>
<g mask="url(#mask0)">
<path d="M4.36192 10.7712H4V14.7469H4.80486V12.9967H6.59824V12.2459H4.80486V11.5167H6.59824V10.7712H4.80486H4.36192Z" fill="#0082CA"/>
<path d="M8.98004 12.8292C8.98004 12.8292 9.02866 12.3377 8.48848 12.0892C7.98612 11.8569 7.21907 11.9704 6.95438 12.1V12.8076C6.95438 12.8076 7.18126 12.5699 7.72143 12.5699C8.26161 12.5699 8.2346 12.9589 8.2346 12.9589C8.2346 12.9589 7.72143 12.8346 7.32711 12.9805C6.93278 13.1209 6.64648 13.5045 6.64648 13.9096C6.64648 14.3633 7.04081 14.7523 7.53237 14.7523C8.02393 14.7523 8.08335 14.655 8.16978 14.6064C8.25081 14.5632 8.31023 14.5362 8.31023 14.7523H9.06647C9.06647 14.7523 8.98004 14.6172 8.98004 14.4228C8.98004 14.2283 8.98004 12.8292 8.98004 12.8292ZM8.24 14.0284C8.24 14.0284 7.90509 14.2607 7.53237 14.077C7.26769 13.9474 7.36492 13.4288 7.80786 13.4288C8.05094 13.4288 8.24 13.5153 8.24 13.5153V14.0284Z" fill="#0082CA"/>
<path d="M25.8072 12.8292C25.8072 12.8292 25.8558 12.3377 25.3156 12.0892C24.8133 11.8569 24.0462 11.9704 23.7815 12.1V12.8076C23.7815 12.8076 24.0084 12.5699 24.5486 12.5699C25.0888 12.5699 25.0618 12.9589 25.0618 12.9589C25.0618 12.9589 24.5486 12.8346 24.1543 12.9805C23.7599 13.1209 23.4736 13.5045 23.4736 13.9096C23.4736 14.3633 23.868 14.7523 24.3595 14.7523C24.8511 14.7523 24.9105 14.655 24.9915 14.6064C25.078 14.5632 25.1374 14.5362 25.1374 14.7523H25.8936C25.8936 14.7523 25.8072 14.6172 25.8072 14.4228C25.8072 14.2283 25.8072 12.8292 25.8072 12.8292ZM25.0672 14.0284C25.0672 14.0284 24.7268 14.2607 24.3595 14.077C24.0948 13.9474 24.1921 13.4288 24.635 13.4288C24.8781 13.4288 25.0672 13.5153 25.0672 13.5153V14.0284Z" fill="#0082CA"/>
<path d="M12.4102 11.981C12.0969 11.981 11.7242 12.1701 11.6431 12.2889C11.6431 12.2889 11.5351 11.9648 10.8869 11.9648C10.633 11.9648 10.3953 12.0459 10.2387 12.1971V11.9756H9.48242V14.7413H10.2387V12.9534C10.2765 12.8885 10.3953 12.7049 10.6438 12.7049C10.9571 12.7049 11.0381 12.8939 11.0381 13.029C11.0381 13.1586 11.0381 14.7413 11.0381 14.7413H11.8268V13.0128C11.8268 13.0128 11.816 12.6671 12.2103 12.6671C12.6424 12.6671 12.5938 13.029 12.5938 13.029V14.7413H13.3717C13.3717 14.7413 13.3717 12.9912 13.3717 12.7373C13.3771 12.4942 13.2691 11.981 12.4102 11.981Z" fill="#0082CA"/>
<path d="M14.6951 12.0027H13.9551V14.7468H14.6951V12.0027Z" fill="#0082CA"/>
<path d="M14.3232 10.7546C14.0423 10.7546 13.8154 10.9815 13.8154 11.2462C13.8154 11.5163 14.0423 11.7377 14.3232 11.7377C14.6041 11.7377 14.831 11.5163 14.831 11.2462C14.831 10.9815 14.6041 10.7546 14.3232 10.7546Z" fill="#0082CA"/>
<path d="M16.0294 10.7712H15.2354V14.7469H16.0294V10.7712Z" fill="#0082CA"/>
<path d="M17.7367 13.5206L17.1263 12.0027H16.2998L17.3315 14.5199L16.9426 15.4814H17.7961L19.1357 12.0027H18.3093L17.7367 13.5206Z" fill="#0082CA"/>
<path d="M21.2206 11.965L20.1835 10.7712H19.3408V14.7469H20.2159V12.1325L21.2206 13.3317L22.2416 12.1325V14.7469H23.0896V10.7712H22.2794L21.2206 11.965Z" fill="#0082CA"/>
<path d="M27.028 12.2241V12.0027H26.2285V14.7468H27.028V13.0182C27.244 12.6401 27.9571 12.8886 27.9571 12.8886V12.0945C27.4223 11.9 27.1522 12.0729 27.028 12.2241Z" fill="#0082CA"/>
<path d="M29.5019 14.0229C29.3291 13.9743 29.3453 13.688 29.3453 13.688V12.7103H29.9989V12.0026H29.3453V11.1059L28.5944 11.3598V12.0026H28.1299V12.7103H28.5944V13.9797C28.5944 13.9797 28.5944 14.7467 29.3777 14.7467C29.7666 14.7467 29.9989 14.6495 29.9989 14.6495V13.9797C29.9989 13.9797 29.7612 14.0931 29.5019 14.0229Z" fill="#0082CA"/>
<path d="M35 -1.52588e-05H0V9.57356H35V-1.52588e-05Z" fill="#3FAE2A"/>
<path d="M35 16.4214H0V24H35V16.4214Z" fill="#0082CA"/>
</g>
</svg>
