<svg width="35" height="24" viewBox="0 0 35 24" fill="none" xmlns="http://www.w3.org/2000/svg">
<rect x="0.5" y="0.5" width="34" height="23" rx="2.75" fill="white"/>
<g clip-path="url(#clip0_3660_20238)">
<path d="M10.654 18.5954C10.6671 18.6086 10.6671 18.6217 10.6671 18.6348C10.6671 18.6743 10.6409 18.6874 10.6146 18.6743C10.6014 18.6611 10.5883 18.648 10.5752 18.6348C10.562 18.5954 10.5357 18.5692 10.4963 18.556C10.4701 18.5429 10.4438 18.5035 10.4306 18.4772C10.4306 18.464 10.4306 18.4509 10.4306 18.4378C10.4306 18.4378 10.4569 18.4246 10.4701 18.4378C10.5357 18.4903 10.5883 18.5429 10.654 18.5954ZM10.746 15.81C10.7722 15.8363 10.8117 15.8626 10.8642 15.8626C10.8642 15.8232 10.8117 15.7838 10.7854 15.7575C10.6409 15.6129 10.5489 15.4421 10.5226 15.4027C10.2598 14.9823 10.1941 14.3648 10.2204 14.2991C10.2204 14.2859 10.2204 13.9443 10.181 13.8918C10.1679 13.9181 10.1679 13.9443 10.1547 13.9575C10.1284 14.1283 10.1416 14.3122 10.1547 14.4962C10.1547 14.5487 10.2861 15.3633 10.746 15.81ZM9.18246 14.4962H9.1956C9.1956 14.3254 9.20874 14.0232 9.22188 13.8524C9.20874 13.8524 9.1956 13.8524 9.1956 13.8524C9.16932 14.01 9.1956 14.2991 9.18246 14.4567C9.16932 14.4699 9.16932 14.483 9.18246 14.4962ZM10.8511 16.0202C10.8511 16.0334 10.8511 16.0465 10.8511 16.0597C10.8774 16.0859 10.9036 16.0991 10.943 16.0728C10.9299 16.0334 10.9168 16.0071 10.8774 16.0071L10.8511 16.0202ZM9.47151 15.8889C9.49779 15.9677 9.51093 16.0465 9.55035 16.1254C9.57662 16.1779 9.68173 16.4538 9.72115 16.467C9.73429 16.4538 9.53721 16.0465 9.51093 15.7838C9.49779 15.7838 9.48465 15.7838 9.47151 15.7838C9.47151 15.8232 9.47151 15.8626 9.47151 15.8889ZM9.31385 14.9954C9.27443 15.1137 9.27443 15.1925 9.3664 15.337C9.32699 15.2056 9.39268 15.2056 9.31385 14.9954ZM9.78684 16.9268C9.7737 16.9137 9.7737 16.9005 9.76056 16.8874C9.73429 17.0319 9.73429 17.0319 9.86567 17.0713C9.8394 17.0188 9.81312 16.9662 9.78684 16.9268ZM9.14305 15.3765C9.12991 15.2976 9.10363 14.9166 9.10363 14.7984C9.10363 14.7721 9.10363 14.7327 9.10363 14.7064C9.07735 14.7327 9.07735 14.7458 9.07735 14.7721C9.05108 14.956 9.07735 15.3239 9.07735 15.4159C9.09049 15.6524 9.26129 16.4275 9.32699 16.6903C9.45837 17.0845 9.72115 17.5443 9.81312 17.6494C9.82626 17.6889 9.87881 17.702 9.91823 17.7151C9.7737 17.5575 9.65545 17.3078 9.65545 17.3078C9.27443 16.5327 9.16932 15.5341 9.14305 15.3765ZM19.3912 19.791C19.3649 19.7648 19.3124 19.7648 19.2992 19.8042C19.273 19.8567 19.2204 19.8699 19.181 19.8962C19.1547 19.9093 19.1416 19.9356 19.1547 19.9619C19.1679 19.975 19.1941 19.9881 19.2073 19.9881C19.2861 19.9619 19.3518 19.9487 19.3912 19.8699C19.4044 19.8436 19.4306 19.8173 19.3912 19.791ZM18.9839 20.0407C18.9971 20.0538 19.0233 20.0801 19.0365 20.067C19.0496 20.067 19.0628 20.0275 19.0759 20.0144C19.0628 20.0013 19.0365 19.9881 19.0102 19.975C18.9971 20.0144 18.9708 20.0407 18.9839 20.0407ZM10.4701 18.4378C10.4569 18.4378 10.4438 18.4378 10.4306 18.4378C10.4306 18.4509 10.4175 18.464 10.4306 18.4772C10.4569 18.5035 10.4701 18.5429 10.4963 18.556C10.5357 18.5823 10.562 18.5954 10.5752 18.6348C10.5752 18.648 10.6014 18.6611 10.6146 18.6743C10.6409 18.6874 10.6671 18.6743 10.6671 18.6348C10.6671 18.6217 10.6671 18.5954 10.654 18.5954C10.5883 18.5429 10.5357 18.4903 10.4701 18.4378ZM25.9474 11.5268C25.9474 11.54 25.9474 11.5531 25.9474 11.5662C25.9343 11.6056 25.9211 11.6451 25.908 11.6845C25.908 11.6845 24.7781 18.4378 24.5679 18.5429C24.4759 18.5035 24.0423 17.3604 24.0423 17.3604L24.0029 17.321L23.9766 17.2027L23.9503 17.1633C23.8978 17.229 23.8321 17.2816 23.7664 17.3341C23.7533 17.3473 23.7401 17.3473 23.7138 17.3604C23.7138 17.3341 23.7138 17.321 23.7138 17.2947C23.635 17.3604 23.5299 17.4655 23.3591 17.61C23.1357 17.8465 22.8073 18.1356 22.3343 18.4246C22.2949 18.4903 22.1503 18.5823 22.1635 18.5823C22.0978 18.6217 22.0452 18.6611 21.9795 18.7005C21.9533 18.7531 21.9138 18.7662 21.9007 18.7794C21.8482 18.8319 21.7825 18.8713 21.7168 18.9108C21.5591 18.9896 21.4014 19.0684 21.2306 19.1604C21.1255 19.2261 21.0073 19.2918 20.9022 19.3443C20.8628 19.3706 20.8365 19.3969 20.7971 19.41C20.4555 19.6202 20.1007 19.791 19.7065 19.9224C19.6277 19.9487 19.5489 19.975 19.4701 20.0144C19.3124 20.1327 19.1416 20.2115 18.9445 20.2509C18.7474 20.2903 18.5503 20.3823 18.3401 20.4217C17.4992 20.6582 16.7635 20.737 15.9095 20.8027C15.3576 20.8421 14.6219 20.7502 14.5036 20.737C14.543 20.6976 14.5693 20.6713 14.6219 20.6976C14.6482 20.7108 14.6876 20.7108 14.727 20.7108C14.7664 20.7108 14.819 20.6845 14.8584 20.6845C15.2788 20.7502 16.2117 20.6582 16.3825 20.6451C18.0774 20.4874 19.3124 19.594 19.3124 19.594C19.3124 19.594 17.6044 20.4217 16.2642 20.5268C15.0686 20.6188 13.9912 20.5137 13.8861 20.5005C13.8204 20.4874 13.6102 20.4611 13.3343 20.3954C13.1766 20.3823 12.9795 20.3297 12.7168 20.2378C12.6774 20.2378 12.6379 20.2378 12.6117 20.1983C12.5722 20.1852 12.5328 20.1721 12.4934 20.1589C12.4803 20.1589 12.4671 20.1589 12.454 20.1589C12.4277 20.1458 12.3883 20.1327 12.362 20.1195C12.3357 20.1064 12.3226 20.0932 12.2963 20.0801C12.1124 20.0013 11.9284 19.9093 11.7576 19.8042C11.6131 19.7122 11.4686 19.6202 11.3241 19.5151C11.2452 19.4757 11.1795 19.4363 11.1138 19.3706C11.0613 19.3049 10.9956 19.2524 10.9299 19.1867C10.3124 18.6217 9.95764 18.0567 9.93137 18.0305C9.97078 18.0042 9.98392 18.0305 9.99706 18.0436C10.0233 18.0699 10.273 18.3721 10.3255 18.3721C10.3518 18.3327 10.3255 18.3064 10.2993 18.267C10.2073 18.1619 10.273 18.2144 10.181 18.1093C10.1416 18.0699 10.1679 18.0436 10.2336 18.1093C10.3912 18.2275 10.3912 18.1881 10.4701 18.2538C10.4832 18.267 10.562 18.2932 10.6146 18.2801C10.6409 18.2407 10.5226 18.0962 10.4832 18.0436C10.4175 17.9385 10.2861 17.8202 10.2598 17.8071C10.2073 17.7808 10.2861 17.7808 10.2598 17.7283C10.2467 17.6889 10.089 17.5838 10.1022 17.5181C10.1153 17.4655 10.2204 17.6363 10.2993 17.7151C10.3255 17.7414 10.3649 17.7414 10.4044 17.7808C10.4438 17.8071 10.6934 18.2013 10.746 18.2538C10.8117 18.3064 11.127 18.6348 11.2715 18.7531C11.3503 18.8056 11.7708 19.1473 12.4277 19.3837C12.927 19.5677 14.1095 19.6334 14.1095 19.6334C14.1095 19.6334 12.9533 19.3969 12.5197 19.2261C11.3503 18.7531 10.9825 18.2275 10.9562 18.1881C10.8117 18.0305 10.1416 17.2816 10.0759 17.2027C10.0628 17.1239 9.95764 17.0056 9.95764 16.9662C9.95764 16.9268 10.0102 16.94 10.0233 16.9531C10.0496 16.9794 10.1284 17.1633 10.1679 17.1108C10.2204 17.0713 10.1153 17.0319 10.1153 16.9925C10.089 16.8611 10.0365 16.7035 9.97078 16.6509C9.91823 16.6115 9.89195 16.5327 9.82626 16.4013C9.79998 16.3619 9.79998 16.3093 9.81312 16.2699C9.82626 16.2699 9.82626 16.2699 9.8394 16.2567C9.85254 16.283 9.87881 16.3093 9.89195 16.3487C9.93137 16.4275 10.181 16.8611 10.1941 16.8743C10.2598 16.9662 10.3255 17.0451 10.3912 17.1239C10.4963 17.2684 10.6409 17.4392 10.7985 17.5706C11.0482 17.8071 11.2978 17.9122 11.2978 17.9122C10.7065 17.5049 10.5095 17.2027 10.181 16.6246C10.0496 16.3881 10.0102 16.1911 9.97078 16.1385C9.93137 16.0465 9.90509 15.9546 9.87881 15.902C9.8394 15.8232 9.7737 15.7575 9.72115 15.6786C9.68173 15.7049 9.73429 15.8494 9.74743 15.8889C9.76056 15.9283 9.78684 15.9546 9.7737 16.0071C9.74743 16.0202 9.72115 15.9808 9.72115 15.9808C9.68173 15.9151 9.6029 15.7181 9.57662 15.6655C9.40582 15.2976 9.4321 15.0086 9.4321 14.8509C9.41896 14.6538 9.4321 14.5093 9.4321 14.3779C9.4321 14.1808 9.51093 13.5108 9.53721 13.3268C9.53721 13.3005 9.55035 13.2874 9.56348 13.248C9.6029 13.34 9.58976 13.4056 9.58976 13.4845C9.58976 13.5502 9.58976 13.9312 9.58976 14.01C9.56348 14.2991 9.56348 14.5619 9.68173 14.8246C9.78684 15.0743 9.72115 15.1005 9.98392 15.7312C10.8248 17.6626 12.5065 17.8334 12.5065 17.8334C12.5065 17.8334 10.8511 17.2421 10.1416 15.8494C9.93137 15.429 10.0759 15.8232 9.89195 15.1137C9.86567 15.0086 9.8394 14.864 9.89195 14.864C9.93137 14.864 9.93137 14.7458 9.94451 14.6932C9.94451 14.6538 9.93137 14.5881 9.95764 14.5619C9.99706 14.5487 9.98392 14.7589 10.0233 14.8378C10.0628 14.9297 9.93137 14.8378 10.1284 15.2976C10.1416 15.337 10.3912 15.9414 11.0876 16.4932C11.1138 16.5064 11.1401 16.5195 11.1664 16.5327C11.2584 16.5983 11.3503 16.6772 11.4555 16.7297C11.5211 16.7692 11.6 16.7823 11.6657 16.8217C11.8102 16.8874 11.9416 16.9662 12.0861 17.0319C12.0861 17.0319 12.1518 17.0582 12.2569 17.1108C12.2963 17.1239 12.3357 17.137 12.3752 17.1502C12.454 17.1765 12.546 17.2027 12.6248 17.2159C12.6379 17.2159 12.6511 17.2159 12.6642 17.2159C12.7825 17.2421 12.8876 17.2684 13.0058 17.2816C13.0847 17.2947 13.3474 17.3078 13.4 17.3341C13.6496 17.3604 13.9124 17.3735 14.1752 17.3735C14.2277 17.3735 14.2934 17.3604 14.346 17.3604C14.3722 17.3604 14.3985 17.3473 14.4117 17.3735C14.4117 17.3735 14.4117 17.3735 14.4248 17.3735C14.7401 17.3604 15.0423 17.321 15.3314 17.2684C15.4496 17.2421 15.5941 17.229 15.6993 17.2159H15.7124C15.7518 17.2159 15.8044 17.2027 15.8175 17.2027C15.7912 17.2027 15.8832 17.1896 15.9095 17.1765C15.9489 17.1633 15.9883 17.137 16.0277 17.1239C16.1722 17.0845 16.3036 17.0188 16.4482 16.9662C16.7372 16.8611 17.0394 16.7297 17.3284 16.6246C17.3284 16.6246 17.4598 16.5721 17.6701 16.4801C17.946 16.3487 18.2087 16.2042 18.4715 16.0728C18.5109 16.0465 18.5503 16.0202 18.5898 16.0465C18.708 15.994 18.8263 15.9283 18.9445 15.8626C19.5357 15.4947 20.416 14.7852 20.4029 14.7852C20.4817 14.7327 20.6394 14.5881 20.6394 14.6013C20.7839 14.483 20.8102 14.4567 20.8102 14.4173C20.8102 14.3779 20.6263 14.3385 20.6263 14.3385C20.6263 14.3385 19.1679 14.0363 19.1679 13.9838C19.1679 13.9312 20.0087 13.6816 20.6 13.4582C20.6394 13.4319 20.6788 13.3925 20.7182 13.3794C21.2701 13.2348 22.216 12.7093 22.7679 12.5911C24.489 11.8684 25.5138 11.3429 25.6452 11.2772C25.9474 11.1327 25.9606 11.4348 25.9606 11.4348L25.9474 11.5268ZM21.0204 14.6407C20.8365 14.7983 20.6657 14.956 20.4817 15.1005C20.2978 15.2582 20.1138 15.4027 19.9299 15.5341C19.746 15.6786 19.5489 15.81 19.3518 15.9414C19.2467 16.0071 19.1547 16.0728 19.0496 16.1254C18.9445 16.1911 18.8394 16.2436 18.7343 16.2962C18.9576 16.2173 19.1679 16.1122 19.3781 15.994C19.5883 15.8757 19.7854 15.7443 19.9693 15.5998C20.1533 15.4553 20.3503 15.3108 20.5211 15.14C20.6131 15.0611 20.692 14.9692 20.7839 14.8903C20.8628 14.8115 20.9416 14.7327 21.0204 14.6407Z" fill="url(#paint0_linear_3660_20238)"/>
<path d="M23.7006 8.00575C23.7138 8.08459 23.6875 8.15028 23.6349 8.15028C23.5824 7.3751 23.267 6.82327 23.2408 6.77072C23.3065 6.75758 23.3459 6.78386 23.3722 6.82327C23.4116 6.91524 23.6218 7.38824 23.7006 8.00575ZM23.2539 6.69189C23.2539 6.57364 22.505 5.79846 22.4262 5.77218C22.413 5.77218 22.3999 5.77218 22.3736 5.78532C22.3868 5.81159 22.9911 6.33714 23.1357 6.61305C23.1619 6.66561 23.2014 6.69189 23.2539 6.69189ZM22.0583 5.53568C22.0451 5.53568 22.032 5.53568 22.0057 5.53568C22.0583 5.58824 22.2422 5.69335 22.2816 5.70649C22.2948 5.70649 22.1503 5.58824 22.0583 5.53568ZM23.6612 8.55758C23.6612 8.58386 23.6875 8.61013 23.7138 8.61013C23.7138 8.49189 23.74 8.3605 23.6875 8.26853C23.6743 8.26853 23.6612 8.28167 23.6612 8.28167C23.6612 8.37364 23.6612 8.46561 23.6612 8.55758ZM27.0247 8.89919C26.9984 9.04371 26.9722 9.1751 26.9327 9.30649C26.9196 9.43787 26.8408 9.63495 26.7488 9.81889C26.7357 9.85831 26.7225 9.88459 26.6962 9.924C26.6437 10.0291 26.6043 10.1079 26.5649 10.1474C26.5123 10.2525 26.4466 10.3444 26.4203 10.3707C26.3809 10.4364 26.3415 10.489 26.3021 10.5547C26.2889 10.5809 26.2364 10.5547 26.2495 10.5284C26.3678 10.2656 26.4203 10.0291 26.4335 9.81889C26.3678 9.97656 26.1838 10.1474 26.1576 10.2131C26.1444 10.2656 26.0262 10.4496 26.013 10.4496C25.9211 10.5152 25.8028 10.6598 25.7503 10.7649C25.7108 10.8306 25.5663 10.9094 25.5532 10.9357C25.5269 10.9751 25.4875 11.0014 25.4218 11.0145C25.4481 10.8963 25.5138 10.8963 25.5532 10.7912C25.6057 10.6992 25.6451 10.6466 25.6846 10.5415C25.632 10.5415 25.5663 10.6992 25.5138 10.7123C25.4612 10.7386 25.4218 10.6992 25.4087 10.6992C25.4349 10.6335 25.4481 10.5547 25.4875 10.5021C25.5663 10.4364 25.6846 9.95028 25.6846 9.91086C25.6846 9.80575 25.7765 9.52984 25.8028 9.45101C25.816 9.39846 25.7503 9.21451 25.7765 9.08313C25.7897 9.04371 25.7371 9.0043 25.7108 9.0043C25.6583 9.01743 25.632 9.24079 25.632 9.29335C25.632 9.29335 25.632 9.31962 25.6189 9.3459C25.632 9.39846 25.6451 9.42473 25.6451 9.43787C25.6451 9.47729 25.632 9.5824 25.6189 9.74006C25.5926 9.89773 25.4743 10.2919 25.3692 10.4233C25.2773 10.5547 25.3035 10.5021 25.1722 10.5941C25.0408 10.686 25.2904 10.5809 25.0014 10.7255C24.7123 10.87 24.6729 10.9225 24.6597 10.962C24.6466 11.0014 24.6335 10.8174 24.7123 10.7649C24.7123 10.7517 24.7254 10.7386 24.7386 10.7255L25.067 9.87145C25.1459 9.55612 25.1722 9.16196 25.1722 9.14882C25.2378 8.70211 24.9751 7.75612 24.9751 7.75612C24.9751 7.75612 25.1327 8.7678 25.0408 9.22765C25.0145 9.49043 24.9094 10.1342 24.5546 10.686C24.5284 10.7255 24.2656 11.1196 24.2524 11.1196C24.1342 11.1722 24.0028 11.5138 23.9371 11.5006C23.8977 11.4481 23.9371 11.2904 24.0291 11.2379C24.0948 11.1985 24.1868 11.1196 24.1868 11.0408C24.1868 11.0145 24.305 10.6729 24.3444 10.6335C24.3838 10.5809 24.4232 10.4101 24.3707 10.397C24.3313 10.3839 24.2919 10.4101 24.2787 10.4496C24.2524 10.5284 24.1605 10.7255 24.1342 10.7255C24.0554 10.7649 24.016 10.8306 23.9634 10.8831C23.9371 10.9094 23.5561 11.4744 23.4904 11.4744C23.451 11.4744 23.2408 11.632 23.2014 11.6714C23.1751 11.7109 23.1357 11.7503 23.0962 11.7897C23.0831 11.8028 23.0174 11.8028 22.978 11.816C22.9649 11.816 22.9386 11.816 22.9386 11.8291L22.9517 11.816C22.9517 11.816 23.0305 11.7371 23.0962 11.6189C23.0831 11.6452 23.07 11.6714 23.0568 11.6977C23.07 11.6846 23.07 11.6714 23.0831 11.6583C23.0831 11.6583 23.0831 11.6583 23.0831 11.6452C23.0962 11.632 23.0962 11.6058 23.1094 11.5926C23.1094 11.5926 23.1094 11.5926 23.1094 11.5795C23.1225 11.5663 23.1225 11.5401 23.1357 11.5269V11.5138C23.1488 11.5006 23.1488 11.4744 23.1619 11.4612C23.1751 11.4481 23.1751 11.435 23.1882 11.4087C23.1882 11.4087 23.1882 11.3955 23.2014 11.3955C23.2408 11.3167 23.2802 11.2379 23.3065 11.159C23.5561 10.6335 23.6481 10.3444 23.7795 9.77948C23.8189 9.59554 23.8846 8.87291 23.8846 8.78094C23.8846 8.63641 23.8846 8.55758 23.8714 8.50503C23.8057 6.90211 23.0962 5.95612 22.2685 5.41743C22.2422 5.4043 22.216 5.39116 22.2028 5.37802C22.0977 5.31232 22.0057 5.24663 21.9006 5.19408C21.8349 5.15466 21.7561 5.14152 21.6773 5.11524C21.5327 5.06269 21.3882 4.997 21.2437 4.9313C21.2437 4.9313 21.178 4.90503 21.0597 4.86561C20.9152 4.82619 20.7576 4.78678 20.613 4.74736C20.5999 4.74736 20.5868 4.74736 20.5868 4.73422C20.2714 4.68167 20.0087 4.65539 19.8378 4.65539C19.286 4.65539 18.6685 4.69481 18.0773 4.79992C18.0378 4.81305 17.9984 4.82619 17.959 4.82619C17.8802 4.83933 17.8145 4.87875 17.7357 4.89189C17.578 4.9313 17.4335 4.95758 17.2758 4.997C17.2758 4.997 17.2101 5.01013 17.105 5.03641C17.0919 5.03641 17.0919 5.03641 17.0787 5.04955C16.9342 5.10211 16.8028 5.15466 16.6583 5.20722C16.6451 5.20722 16.632 5.22035 16.6189 5.22035H16.6057C16.1722 5.37802 15.7911 5.53568 15.4232 5.70649C15.397 5.71962 15.3444 5.75904 15.3313 5.75904C15.1342 5.85101 14.9503 5.96926 14.7532 6.08751L15.397 6.29773C15.2787 6.35028 14.267 6.66561 13.5576 6.83641C13.4393 6.87583 13.3342 6.92838 13.216 6.94152C13.216 6.92838 13.2554 6.91524 13.2685 6.90211C13.1371 6.92838 13.032 6.95466 12.9532 6.95466C12.9138 6.95466 12.8875 6.95466 12.8743 6.94152C12.7955 6.84955 14.2933 4.83933 14.2933 4.83933L14.2802 5.45685C14.2802 5.45685 15.8305 4.30065 17.5911 3.73568C17.6174 3.72254 17.6437 3.72254 17.67 3.7094C17.6831 3.7094 17.6962 3.69627 17.6962 3.69627C17.867 3.63057 18.051 3.56488 18.2349 3.52546C18.2743 3.52546 18.3138 3.51232 18.3532 3.48605C18.432 3.44663 18.7079 3.40722 18.7605 3.40722C19.5094 3.23641 20.2714 3.14444 21.0203 3.14444C21.0992 3.14444 21.178 3.1313 21.27 3.1313C21.2962 3.1313 21.3357 3.1313 21.3619 3.1313C21.3751 3.11816 21.4014 3.11816 21.4145 3.11816C21.4276 3.11816 21.4539 3.11816 21.4802 3.1313C21.5196 3.1313 21.5459 3.1313 21.5853 3.14444C21.6116 3.1313 21.6247 3.11816 21.6378 3.11816C21.6773 3.11816 21.7035 3.11816 21.743 3.11816C21.8481 3.14444 21.9663 3.17072 22.0714 3.18386C22.124 3.197 22.1765 3.197 22.216 3.197C22.3999 3.22327 22.5838 3.24955 22.7678 3.31524C22.8072 3.32838 22.8466 3.34152 22.8992 3.34152C22.9911 3.34152 23.07 3.3678 23.1488 3.40722C23.1882 3.43349 23.2408 3.44663 23.2802 3.47291C24.2787 3.80138 25.2116 4.37948 26.013 5.28605C26.013 5.28605 26.0656 5.35174 26.1576 5.46999C26.1707 5.48313 26.1838 5.5094 26.2101 5.54882L26.2232 5.56196C26.2232 5.56196 26.2232 5.5751 26.2364 5.5751C26.2364 5.58824 26.2495 5.60138 26.2627 5.60138C26.4992 5.95612 27.0378 6.95466 26.9853 8.22911C27.051 8.50502 27.051 8.67583 27.0247 8.89919ZM25.7765 5.46999C26.013 5.71962 26.2364 6.00868 26.4203 6.33714C26.4597 6.41597 26.5123 6.48167 26.5517 6.5605C26.4992 6.37656 26.4203 6.20576 26.3415 6.03495C26.2233 5.81159 26.0919 5.60138 25.9342 5.41743C25.6977 5.12838 25.4612 4.90503 25.2773 4.7605C24.9882 4.524 24.5678 4.26123 24.1473 4.10357C24.1342 4.10357 25.0408 4.69481 25.4612 5.12838C25.5663 5.24663 25.6714 5.36488 25.7765 5.46999ZM16.8028 4.28751C16.4087 4.45831 15.5678 4.89189 15.3313 5.11524C15.5941 4.97072 16.4875 4.51086 16.8422 4.36634C17.6831 4.02473 18.2481 3.82765 18.5371 3.73568C18.0247 3.81451 17.2889 4.07729 16.8028 4.28751Z" fill="url(#paint1_linear_3660_20238)"/>
<path d="M9.30069 10.6598C9.62916 10.0949 9.89193 9.68758 10.1153 9.4248C10.3255 9.16203 10.562 8.95181 10.8116 8.78101C11.0613 8.61021 11.3503 8.47882 11.6525 8.39999C11.9547 8.32115 12.3095 8.28174 12.6905 8.28174H14.0043L13.5576 9.04378H12.1649C11.797 9.04378 11.4686 9.12261 11.2058 9.29342C10.943 9.46422 10.6934 9.74013 10.47 10.108H12.927L12.4934 10.8832H10.0365L8.9985 12.6963H8.13135L9.30069 10.6598Z" fill="#575756"/>
<path d="M14.6744 8.28174H16.5401C16.8555 8.28174 17.092 8.29488 17.2628 8.33429C17.4336 8.37371 17.5518 8.42626 17.6175 8.5051C17.7226 8.63648 17.7752 8.79415 17.7489 9.00437C17.7226 9.21459 17.6306 9.45108 17.473 9.71385C17.3153 9.97663 17.1445 10.2 16.9606 10.3971C16.7766 10.581 16.5664 10.7387 16.3299 10.8701C16.1328 10.9752 15.9489 11.0409 15.7387 11.0934C15.5416 11.1328 15.2657 11.1591 14.9109 11.1591H13.873L12.9927 12.6963H12.1387L14.6744 8.28174ZM16.0803 9.07006H15.0817L14.3328 10.3708H15.3839C15.6467 10.3708 15.8701 10.3182 16.054 10.2131C16.2379 10.108 16.3956 9.93721 16.527 9.72699C16.6584 9.4905 16.6978 9.31969 16.6321 9.22772C16.5533 9.12261 16.3825 9.07006 16.0803 9.07006Z" fill="#575756"/>
<path d="M22.0058 9.06997H19.8904C19.6671 9.06997 19.47 9.10939 19.3123 9.20136C19.1547 9.29333 19.0102 9.43785 18.905 9.63493C18.8131 9.7926 18.7868 9.91085 18.8393 9.98968C18.8788 10.0685 18.997 10.1079 19.181 10.1079H20.3109C20.7839 10.1079 21.0598 10.1999 21.1518 10.397C21.2437 10.5941 21.1518 10.9094 20.9021 11.3561C20.6393 11.816 20.3372 12.1444 19.9824 12.3546C19.6277 12.5649 19.2072 12.67 18.7211 12.67H16.4087L16.8685 11.8816H19.0233C19.2729 11.8816 19.4569 11.8422 19.6014 11.7634C19.7459 11.6846 19.8642 11.5532 19.9693 11.3824C20.0744 11.1984 20.1007 11.067 20.0612 10.9882C20.0087 10.9094 19.8773 10.87 19.6539 10.87H18.6423C18.1693 10.87 17.8934 10.7649 17.7883 10.5678C17.6831 10.3707 17.762 10.0422 18.0116 9.60866C18.2875 9.13566 18.5897 8.79406 18.9445 8.58384C19.2992 8.37362 19.7196 8.25537 20.2189 8.25537H22.4656L22.0058 9.06997Z" fill="#575756"/>
</g>
<rect x="0.5" y="0.5" width="34" height="23" rx="2.75" stroke="#F6F7F8"/>
<defs>
<linearGradient id="paint0_linear_3660_20238" x1="9.05678" y1="16.0274" x2="25.9584" y2="16.0274" gradientUnits="userSpaceOnUse">
<stop stop-color="#5BC4F1"/>
<stop offset="0.1279" stop-color="#56BBE9"/>
<stop offset="0.3366" stop-color="#47A3D3"/>
<stop offset="0.6" stop-color="#307BAE"/>
<stop offset="0.905" stop-color="#0F447D"/>
<stop offset="1" stop-color="#04326C"/>
</linearGradient>
<linearGradient id="paint1_linear_3660_20238" x1="12.9396" y1="7.50957" x2="27.0505" y2="7.50957" gradientUnits="userSpaceOnUse">
<stop stop-color="#04326C"/>
<stop offset="0.1279" stop-color="#093B74"/>
<stop offset="0.3366" stop-color="#18538A"/>
<stop offset="0.6" stop-color="#2F7BAE"/>
<stop offset="0.905" stop-color="#50B2E0"/>
<stop offset="1" stop-color="#5BC4F1"/>
</linearGradient>
<clipPath id="clip0_3660_20238">
<rect width="19.1825" height="18" fill="white" transform="translate(8 3)"/>
</clipPath>
</defs>
</svg>
