<svg width="35" height="24" viewBox="0 0 35 24" fill="none" xmlns="http://www.w3.org/2000/svg">
<rect x="0.416667" y="0.416667" width="34.1667" height="23.1667" rx="2.2901" fill="white" stroke="#F6F7F8" stroke-width="0.833333"/>
<g clip-path="url(#clip0_1259:9222)">
<path d="M8.86922 10.5207V8.96076C8.86922 8.96076 8.76484 7.62117 7.90077 8.65341L5.66231 11.669C5.66231 11.669 5.37815 11.9415 5.38975 12.4286C5.37815 12.9158 5.66231 13.1883 5.66231 13.1883L7.90657 16.2039C8.76484 17.2361 8.86922 15.8965 8.86922 15.8965V14.3365L7.92976 13.0839C7.59341 12.6954 7.60501 12.4286 7.60501 12.4286C7.60501 12.4286 7.59341 12.1561 7.92976 11.7733L8.86922 10.5207Z" fill="#0989CA"/>
<path d="M9.54761 10.5207V8.96076C9.54761 8.96076 9.65199 7.62117 10.5161 8.65341L12.7603 11.669C12.7603 11.669 13.0445 11.9415 13.0329 12.4286C13.0445 12.9158 12.7603 13.1883 12.7603 13.1883L10.5161 16.2039C9.65199 17.2361 9.54761 15.8965 9.54761 15.8965V14.3365L10.4871 13.0839C10.8234 12.6954 10.8118 12.4286 10.8118 12.4286C10.8118 12.4286 10.8234 12.1561 10.4871 11.7733L9.54761 10.5207Z" fill="#2F3C65"/>
<path d="M18.5072 10.5498V9.25659H15.8165H14.5291V10.5498V11.6806V12.968V15.2645H15.8165V12.968H18.3565V11.6806H15.8165V10.5498H18.5072Z" fill="#2F3C65"/>
<path d="M23.9467 11.0658C23.9467 11.0542 23.9467 11.0484 23.9467 11.0368C23.9467 11.031 23.9467 11.0252 23.9467 11.0252C23.9351 10.5903 23.7553 9.25068 22.0736 9.26228H20.763H19.4756V10.3931V11.7675V12.9041V15.2644H20.763V12.9041H22.0736C23.7611 12.9099 23.9351 11.5703 23.9467 11.1412C23.9467 11.1354 23.9467 11.1296 23.9467 11.1296C23.9467 11.1238 23.9467 11.1122 23.9467 11.1006C23.9467 11.0948 23.9467 11.089 23.9467 11.089C23.9467 11.0774 23.9467 11.0716 23.9467 11.0658ZM21.9692 11.7675H20.763V10.3931H21.9692C21.9692 10.3989 22.5723 10.3061 22.6013 11.0832C22.5839 11.8545 21.9924 11.7559 21.9692 11.7675Z" fill="#2F3C65"/>
<path d="M30.3028 15.2645L28.0817 12.2025L30.2158 9.25659H28.5804L27.2582 11.0775L25.9418 9.25659H24.3065L26.4405 12.2025L24.2195 15.2645H25.8606L27.2582 13.3334L28.6558 15.2645H30.3028Z" fill="#2F3C65"/>
</g>
<defs>
<clipPath id="clip0_1259:9222">
<rect width="25" height="14.7936" fill="white" transform="translate(5.38965 5)"/>
</clipPath>
</defs>
</svg>
