<svg width="35" height="24" viewBox="0 0 35 24" fill="none" xmlns="http://www.w3.org/2000/svg">
<rect width="35" height="24" rx="3.24812" fill="#007CFF"/>
<path d="M22.1654 8.87658C22.1673 9.75244 21.9617 10.6163 21.5653 11.3973C21.5014 11.5219 21.4863 11.6658 21.5232 11.8009C21.56 11.936 21.646 12.0524 21.7643 12.1273C21.83 12.1687 21.9035 12.1959 21.9803 12.2072C22.057 12.2186 22.1353 12.2139 22.2101 12.1933C22.285 12.1728 22.3547 12.1369 22.4149 12.0879C22.4751 12.039 22.5244 11.978 22.5597 11.909C23.036 10.9701 23.2844 9.93224 23.2848 8.87949C23.2852 7.82673 23.0377 6.78868 22.5622 5.84943C22.5269 5.78027 22.4777 5.71921 22.4175 5.67017C22.3573 5.62112 22.2876 5.58516 22.2127 5.56459C22.1379 5.54401 22.0596 5.53927 21.9828 5.55067C21.906 5.56206 21.8324 5.58934 21.7668 5.63077C21.6486 5.70558 21.5626 5.82187 21.5257 5.95681C21.4888 6.09176 21.5037 6.23562 21.5675 6.36015C21.9624 7.1401 22.1673 8.00236 22.1654 8.87658Z" fill="#6FB9F6"/>
<path d="M20.3558 8.87647C20.3569 9.41985 20.24 9.95699 20.013 10.4507C19.9566 10.5739 19.9468 10.7135 19.9855 10.8434C20.0242 10.9733 20.1087 11.0848 20.2234 11.157C20.2909 11.1995 20.3667 11.227 20.4457 11.2378C20.5247 11.2486 20.6051 11.2424 20.6815 11.2196C20.758 11.1969 20.8286 11.158 20.8889 11.1058C20.9491 11.0535 20.9975 10.989 21.0308 10.9166C21.3232 10.277 21.4748 9.58201 21.4752 8.87873C21.4756 8.17545 21.3249 7.4803 21.0332 6.84035C21 6.76783 20.9516 6.70325 20.8914 6.65094C20.8311 6.59862 20.7604 6.55976 20.6839 6.53697C20.6075 6.51417 20.527 6.50797 20.448 6.51877C20.3689 6.52956 20.2931 6.55712 20.2255 6.59958C20.1108 6.67181 20.0262 6.78324 19.9875 6.91316C19.9487 7.04308 19.9585 7.18264 20.0149 7.30592C20.2407 7.79863 20.357 8.33446 20.3558 8.87647Z" fill="#6FB9F6"/>
<path d="M16.5948 12.6374C15.9969 12.6372 15.4077 12.4944 14.876 12.2209C14.3443 11.9475 13.8854 11.5511 13.5375 11.0649C13.1896 10.5786 12.9627 10.0164 12.8755 9.42488C12.7883 8.83336 12.8435 8.22958 13.0363 7.66362C13.2291 7.09767 13.5541 6.58584 13.9843 6.17061C14.4145 5.75537 14.9375 5.44869 15.51 5.27601C16.0824 5.10333 16.6878 5.06961 17.2758 5.17767C17.8639 5.28572 18.4177 5.53243 18.8914 5.89733C18.9987 5.98068 19.1327 6.02211 19.2683 6.01385C19.404 6.0056 19.532 5.94824 19.6284 5.85249C19.6847 5.79644 19.7283 5.72903 19.7565 5.65475C19.7846 5.58048 19.7966 5.50106 19.7916 5.42179C19.7866 5.34253 19.7647 5.26524 19.7275 5.19509C19.6902 5.12494 19.6385 5.06355 19.5756 5.01501C18.8534 4.45818 17.9896 4.11493 17.0822 4.0242C16.1747 3.93348 15.2601 4.09892 14.4419 4.50175C13.6238 4.90458 12.9349 5.52867 12.4535 6.30321C11.9721 7.07774 11.7175 7.97169 11.7184 8.88364C11.7194 9.79558 11.976 10.689 12.4591 11.4625C12.9421 12.236 13.6323 12.8586 14.4513 13.2597C15.2703 13.6607 16.1854 13.8242 17.0926 13.7315C17.9998 13.6389 18.8629 13.2938 19.5839 12.7354C19.6452 12.6871 19.6957 12.6265 19.7319 12.5573C19.7681 12.4882 19.7893 12.4122 19.794 12.3343C19.7987 12.2564 19.7869 12.1784 19.7593 12.1054C19.7317 12.0324 19.689 11.9661 19.6339 11.9108L19.622 11.8988C19.527 11.8044 19.401 11.7476 19.2674 11.7391C19.1337 11.7306 19.0015 11.7708 18.8954 11.8524C18.2371 12.3625 17.4276 12.6387 16.5948 12.6374Z" fill="#002CB7"/>
<path d="M19.5203 8.47754C19.4143 8.37184 19.2707 8.31253 19.1211 8.31263L17.1617 8.31509C17.0145 8.31852 16.8745 8.37942 16.7715 8.48476C16.6686 8.5901 16.611 8.73152 16.611 8.87878C16.611 9.02604 16.6686 9.16746 16.7715 9.2728C16.8745 9.37814 17.0145 9.43904 17.1617 9.44248H17.1654L18.4749 9.44063C18.3566 9.83296 18.1182 10.1783 17.7933 10.4281C17.4685 10.6778 17.0735 10.8194 16.6639 10.8329C16.2543 10.8465 15.8508 10.7312 15.5102 10.5034C15.1696 10.2756 14.909 9.94668 14.7651 9.563C14.6212 9.17932 14.6012 8.76017 14.7079 8.36454C14.8147 7.96892 15.0429 7.61673 15.3603 7.35755C15.6777 7.09837 16.0684 6.94525 16.4773 6.91974C16.8863 6.89423 17.293 6.99761 17.6402 7.21534C17.7488 7.28324 17.8773 7.31217 18.0046 7.29738C18.1318 7.28259 18.2502 7.22496 18.3404 7.13395C18.3998 7.07454 18.4452 7.00253 18.4731 6.92324C18.501 6.84395 18.5107 6.75941 18.5015 6.67586C18.4924 6.59231 18.4645 6.51189 18.4201 6.44053C18.3757 6.36918 18.3158 6.30872 18.2449 6.26361C17.5751 5.83919 16.7576 5.68564 15.9293 5.85854C15.3488 5.98137 14.8167 6.27114 14.3987 6.69223C13.9806 7.11332 13.6946 7.64738 13.5759 8.22879C13.485 8.65233 13.4842 9.09025 13.5735 9.51413C13.6629 9.93801 13.8404 10.3384 14.0945 10.6892C14.3486 11.04 14.6736 11.3335 15.0485 11.5505C15.4234 11.7676 15.8397 11.9034 16.2705 11.949C16.7013 11.9947 17.1368 11.9493 17.5489 11.8157C17.961 11.6822 18.3404 11.4634 18.6624 11.1737C18.9845 10.884 19.242 10.5297 19.4182 10.134C19.5945 9.73833 19.6856 9.30997 19.6855 8.87678C19.6856 8.80264 19.671 8.72922 19.6427 8.66071C19.6143 8.5922 19.5727 8.52996 19.5203 8.47754Z" fill="white"/>
<path d="M20.0714 16.6894H19.6289C19.5864 16.6895 19.5457 16.7064 19.5157 16.7364C19.4857 16.7665 19.4689 16.8072 19.4689 16.8497V17.3103C19.4252 17.0223 19.0579 16.6378 18.4299 16.6378C17.5378 16.6378 16.8901 17.3383 16.8901 18.3032C16.8901 19.2682 17.5473 19.9975 18.4185 19.9975C18.9621 19.9975 19.2987 19.6828 19.4689 19.5062V19.7869C19.4689 19.8293 19.4858 19.8699 19.5158 19.8999C19.5458 19.9299 19.5864 19.9468 19.6289 19.9469H20.0726C20.1151 19.9469 20.1558 19.93 20.1859 19.9C20.2159 19.87 20.2329 19.8293 20.2329 19.7869V16.8497C20.2329 16.8285 20.2287 16.8076 20.2206 16.7881C20.2125 16.7685 20.2006 16.7508 20.1855 16.7359C20.1705 16.721 20.1527 16.7092 20.1331 16.7012C20.1135 16.6932 20.0926 16.6892 20.0714 16.6894ZM19.4676 18.3152C19.4676 18.9782 19.014 19.3253 18.566 19.3253C17.9803 19.3262 17.6634 18.7989 17.6634 18.3035C17.6634 17.8082 17.9732 17.3107 18.565 17.3107C19.0146 17.3107 19.4676 17.6555 19.4676 18.3152Z" fill="white"/>
<path d="M22.2287 18.0096C21.8727 17.911 21.5653 17.8254 21.5653 17.5947C21.5653 17.4031 21.7397 17.2935 22.0438 17.2935C22.3251 17.2935 22.5161 17.4163 22.5677 17.6337C22.576 17.6688 22.5959 17.7 22.6242 17.7222C22.6524 17.7445 22.6874 17.7566 22.7234 17.7566H23.1659C23.189 17.7566 23.2118 17.7516 23.2328 17.742C23.2537 17.7323 23.2723 17.7183 23.2874 17.7008C23.3024 17.6833 23.3135 17.6627 23.3198 17.6406C23.3261 17.6184 23.3276 17.5951 23.3241 17.5723C23.2338 16.9888 22.7636 16.639 22.065 16.639C21.3319 16.639 20.7997 17.0438 20.7997 17.6012C20.7997 18.3094 21.4462 18.4823 21.9667 18.6214C22.3229 18.7169 22.6307 18.7992 22.6307 19.0206C22.6307 19.2202 22.4298 19.3446 22.1064 19.3446C21.83 19.3446 21.6025 19.2043 21.5435 18.9954C21.5345 18.9614 21.5146 18.9313 21.4869 18.9097C21.4592 18.8881 21.4251 18.8761 21.3899 18.8757H20.9228C20.8994 18.8758 20.8762 18.8811 20.855 18.8911C20.8338 18.9011 20.815 18.9157 20.8 18.9337C20.7852 18.9514 20.7745 18.9721 20.7686 18.9944C20.7627 19.0167 20.7618 19.04 20.7659 19.0627C20.8673 19.6155 21.4234 20 22.119 20C22.8607 20 23.3782 19.5949 23.3782 19.0133C23.357 18.3216 22.7305 18.1484 22.2287 18.0096Z" fill="white"/>
<path d="M25.6262 16.6918C25.2628 16.6918 24.9321 16.8146 24.7018 17.0296V15.7705C24.7018 15.728 24.6849 15.6873 24.6549 15.6572C24.6249 15.6272 24.5842 15.6102 24.5418 15.6102H24.1035C24.0611 15.6102 24.0205 15.6271 23.9905 15.6571C23.9605 15.6871 23.9436 15.7278 23.9435 15.7702V19.7868C23.9436 19.8292 23.9605 19.8699 23.9905 19.8999C24.0205 19.9299 24.0611 19.9467 24.1035 19.9468H24.5418C24.5842 19.9467 24.6248 19.9299 24.6548 19.8999C24.6848 19.8699 24.7017 19.8292 24.7018 19.7868V18.1859C24.7018 17.6638 24.972 17.3106 25.4431 17.3106C25.9142 17.3106 26.1802 17.6638 26.1802 18.1859V19.7868C26.1803 19.8293 26.1972 19.87 26.2272 19.9C26.2573 19.93 26.298 19.9468 26.3405 19.9468H26.7714C26.8138 19.9468 26.8545 19.93 26.8846 19.9C26.9147 19.87 26.9316 19.8293 26.9317 19.7868V18.0885C26.9317 17.24 26.4191 16.6918 25.6262 16.6918Z" fill="white"/>
<path d="M16.4412 18.8839L16.0657 18.6689C16.0415 18.655 16.014 18.6477 15.9861 18.6477C15.9595 18.6476 15.9333 18.6542 15.91 18.6669C15.8866 18.6797 15.8669 18.6981 15.8525 18.7205C15.7549 18.8708 15.6217 18.9947 15.4646 19.081C15.2661 19.1917 15.0421 19.2486 14.8148 19.246C14.411 19.246 14.0796 19.1167 13.8305 18.8621C13.5815 18.6075 13.454 18.2786 13.454 17.8852C13.454 17.4918 13.5805 17.1635 13.8305 16.9083C14.0805 16.6531 14.411 16.5244 14.8148 16.5244C15.0412 16.5215 15.2644 16.5783 15.4619 16.689C15.6189 16.7777 15.7525 16.9027 15.8513 17.0535C15.8656 17.0756 15.8853 17.0937 15.9085 17.1062C15.9317 17.1187 15.9576 17.1252 15.984 17.1251C16.0123 17.125 16.0402 17.1175 16.0647 17.1033L16.4409 16.8849C16.46 16.8739 16.4766 16.8591 16.4897 16.8414C16.5028 16.8237 16.5121 16.8035 16.5171 16.782C16.5219 16.7611 16.5223 16.7394 16.5185 16.7183C16.5146 16.6972 16.5065 16.6771 16.4947 16.6592C16.3246 16.406 16.0963 16.1973 15.8289 16.0505C15.5192 15.8776 15.1701 15.7879 14.8154 15.7901C14.2101 15.7901 13.7009 15.9934 13.3017 16.3945C12.9025 16.7955 12.7001 17.2983 12.7001 17.8885C12.7001 18.4788 12.9031 18.9794 13.3023 19.3805C13.7015 19.7815 14.2107 19.9849 14.816 19.9849C15.1734 19.9876 15.5253 19.8968 15.8369 19.7217C16.1025 19.574 16.3286 19.3646 16.4962 19.1111C16.508 19.0932 16.5159 19.073 16.5196 19.0519C16.5232 19.0308 16.5225 19.0091 16.5174 18.9883C16.5126 18.9666 16.5034 18.9461 16.4903 18.9281C16.4771 18.9101 16.4605 18.8951 16.4412 18.8839Z" fill="white"/>
<path d="M10.3805 17.5552C10.3542 17.5552 10.3282 17.5603 10.304 17.5703C10.2797 17.5803 10.2577 17.595 10.2391 17.6136C10.2206 17.6321 10.2058 17.6541 10.1958 17.6784C10.1857 17.7026 10.1805 17.7286 10.1805 17.7548V18.0423C10.1805 18.0685 10.1857 18.0945 10.1958 18.1188C10.2058 18.143 10.2206 18.165 10.2391 18.1836C10.2577 18.2021 10.2797 18.2168 10.304 18.2268C10.3282 18.2368 10.3542 18.242 10.3805 18.2419H11.5112C11.382 19.0081 10.5779 19.2664 10.2282 19.2664C9.82154 19.2664 9.47881 19.1307 9.20917 18.8629C8.95243 18.608 8.82222 18.2812 8.82222 17.8921C8.82222 17.503 8.95151 17.1744 9.20671 16.9155C9.46192 16.6566 9.79237 16.5258 10.1895 16.5258C10.4223 16.5228 10.6521 16.5796 10.8568 16.6907C11.0065 16.7714 11.1367 16.8842 11.2379 17.0209C11.2566 17.0457 11.2808 17.0657 11.3087 17.0794C11.3365 17.0931 11.3672 17.1001 11.3982 17.0998C11.4331 17.0999 11.4674 17.0909 11.4977 17.0737L11.7996 16.8999C11.8238 16.8858 11.8449 16.8669 11.8614 16.8442C11.8779 16.8216 11.8895 16.7958 11.8954 16.7684C11.9014 16.7418 11.9017 16.7143 11.8964 16.6876C11.8912 16.6609 11.8804 16.6356 11.8647 16.6133C11.6959 16.3794 11.4768 16.1863 11.2235 16.0482C10.9068 15.8741 10.5505 15.7845 10.1891 15.7881C9.59152 15.7881 9.08356 15.9933 8.67818 16.398C8.2728 16.8028 8.06827 17.3037 8.06827 17.8866C8.06827 18.4695 8.27372 18.975 8.67849 19.3779C9.08326 19.7808 9.60288 19.9851 10.2232 19.9851C10.7398 19.9851 11.3386 19.7332 11.7133 19.3582C12.0422 19.0293 12.1872 18.5598 12.2277 18.2984L12.2345 18.237C12.2422 18.1667 12.2486 17.9803 12.2526 17.8203C12.2535 17.7859 12.2475 17.7517 12.235 17.7197C12.2225 17.6877 12.2036 17.6585 12.1797 17.6339C12.1557 17.6093 12.127 17.5897 12.0953 17.5764C12.0636 17.563 12.0296 17.5561 11.9952 17.5561L10.3805 17.5552Z" fill="white"/>
</svg>
