<svg width="35" height="24" viewBox="0 0 35 24" fill="none" xmlns="http://www.w3.org/2000/svg">
<rect x="0.416667" y="0.416667" width="34.1667" height="23.1667" rx="2.2901" fill="white" stroke="#F6F7F8" stroke-width="0.833333"/>
<path fill-rule="evenodd" clip-rule="evenodd" d="M4 8.0832C4 6.93276 4.93747 6 6.0933 6H28.9067C30.063 6 31 6.93276 31 8.0832V15.5278C31 16.6776 30.063 17.6105 28.9067 17.6105H6.0933C4.93747 17.6105 4 16.6776 4 15.5278V8.0832Z" fill="#000268"/>
<path fill-rule="evenodd" clip-rule="evenodd" d="M4.85913 8.15452V15.4573C4.85913 16.176 5.44511 16.759 6.16792 16.759H18.1201V6.85278H6.16792C5.44511 6.85278 4.85913 7.43574 4.85913 8.15452ZM21.2083 11.7694C21.2083 12.2344 20.9783 12.5539 20.5976 12.5539C20.2612 12.5539 19.9809 12.2344 19.9809 11.8086C19.9809 11.3715 20.2275 11.0466 20.5976 11.0466C20.9901 11.0466 21.2083 11.3828 21.2083 11.7694ZM18.9728 14.4361H19.9809V12.8504H19.9921C20.1831 13.1979 20.5643 13.3266 20.9172 13.3266C21.7854 13.3266 22.2503 12.6097 22.2503 11.7469C22.2503 11.0412 21.8079 10.2732 21.0009 10.2732C20.5418 10.2732 20.116 10.4583 19.9138 10.8674H19.9025V10.3409H18.9728V14.4361ZM23.6272 12.3351C23.6272 12.0552 23.8958 11.9491 24.238 11.9491C24.3892 11.9491 24.5351 11.9597 24.6638 11.9657C24.6638 12.3073 24.4229 12.6548 24.0417 12.6548C23.8064 12.6548 23.6272 12.5373 23.6272 12.3351ZM25.6606 13.2596C25.6161 13.0301 25.6048 12.8 25.6048 12.5706V11.4836C25.6048 10.5929 24.9608 10.2732 24.2155 10.2732C23.7843 10.2732 23.409 10.3349 23.0503 10.4808L23.0674 11.1646C23.3466 11.0074 23.6722 10.9457 23.9972 10.9457C24.3607 10.9457 24.6578 11.0525 24.6638 11.4504C24.5351 11.4278 24.3554 11.4107 24.193 11.4107C23.6556 11.4107 22.6862 11.5174 22.6862 12.408C22.6862 13.0414 23.2014 13.3266 23.7785 13.3266C24.193 13.3266 24.4734 13.1648 24.703 12.8H24.7143C24.7143 12.9518 24.7307 13.1024 24.7368 13.2596H25.6606ZM26.1143 14.4361C26.3217 14.4811 26.5288 14.5038 26.7416 14.5038C27.6662 14.5038 27.8844 13.7921 28.1701 13.058L29.2406 10.3409H28.2318L27.6324 12.2456H27.6211L26.9936 10.3409H25.9072L27.0891 13.3266C27.0161 13.5845 26.8259 13.7304 26.5791 13.7304C26.4386 13.7304 26.3159 13.7133 26.1812 13.6687L26.1143 14.4361Z" fill="white"/>
<path fill-rule="evenodd" clip-rule="evenodd" d="M7.32188 11.7753C7.32188 11.3774 7.51822 11.0466 7.89357 11.0466C8.34727 11.0466 8.53756 11.4107 8.53756 11.7356C8.53756 12.1839 8.25179 12.4863 7.89357 12.4863C7.59117 12.4863 7.32188 12.229 7.32188 11.7753ZM9.51251 10.3409H8.59925V10.8674H8.58865C8.37517 10.5087 8.02755 10.2732 7.59655 10.2732C6.68917 10.2732 6.28003 10.9237 6.28003 11.7919C6.28003 12.6547 6.77876 13.2596 7.57924 13.2596C7.98317 13.2596 8.31936 13.1024 8.56007 12.7608H8.57134V12.918C8.57134 13.4892 8.25767 13.7637 7.67539 13.7637C7.25498 13.7637 6.99696 13.6741 6.68917 13.523L6.63874 14.3187C6.87358 14.4029 7.27146 14.5038 7.75372 14.5038C8.93022 14.5038 9.51251 14.117 9.51251 12.918V10.3409ZM11.2168 9.12524H10.2083V9.8647H11.2168V9.12524ZM10.2088 13.2596H11.2168V10.3409H10.2088V13.2596ZM14.0247 10.307C13.9238 10.2905 13.8005 10.2732 13.6831 10.2732C13.2461 10.2732 12.9941 10.5087 12.8203 10.8786H12.809V10.3409H11.8904V13.2596H12.8986V12.0274C12.8986 11.4557 13.1624 11.1142 13.6327 11.1142C13.7507 11.1142 13.8621 11.1142 13.9743 11.1473L14.0247 10.307ZM15.761 12.621C15.296 12.621 15.1057 12.2343 15.1057 11.8032C15.1057 11.3661 15.296 10.9795 15.761 10.9795C16.2264 10.9795 16.4169 11.3661 16.4169 11.8032C16.4169 12.2343 16.2264 12.621 15.761 12.621ZM15.761 13.3266C16.7247 13.3266 17.4587 12.7669 17.4587 11.8032C17.4587 10.8336 16.7247 10.2732 15.761 10.2732C14.7974 10.2732 14.0639 10.8336 14.0639 11.8032C14.0639 12.7669 14.7974 13.3266 15.761 13.3266Z" fill="#FF0007"/>
</svg>
