<svg width="35" height="24" viewBox="0 0 35 24" fill="none" xmlns="http://www.w3.org/2000/svg">
<path d="M0 3.25C0 1.45508 1.45507 0 3.25 0H31.75C33.5449 0 35 1.45507 35 3.25V20.75C35 22.5449 33.5449 24 31.75 24H3.25C1.45507 24 0 22.5449 0 20.75V3.25Z" fill="white"/>
<path d="M17.6715 12.8149C20.1896 12.8149 22.2309 10.8416 22.2309 8.40743C22.2309 5.97327 20.1896 4 17.6715 4C15.1534 4 13.1121 5.97327 13.1121 8.40743C13.1121 10.8416 15.1534 12.8149 17.6715 12.8149Z" fill="#00AED6"/>
<path fill-rule="evenodd" clip-rule="evenodd" d="M20.3383 8.28297C20.3107 7.7165 19.8133 7.28819 19.233 7.31582H16.3453C16.2348 7.31582 16.1519 7.23292 16.1519 7.13621C16.1519 7.03949 16.2348 6.9566 16.3453 6.9566H19.2744C19.2606 6.56974 18.9843 6.25196 18.6112 6.15525C17.7546 6.00326 16.8842 6.00326 16.0414 6.15525C15.5578 6.26578 15.1986 6.65264 15.1295 7.13621C14.9913 7.99283 14.9913 8.87708 15.1295 9.74751C15.2262 10.2449 15.6407 10.6456 16.1657 10.7285C17.2158 10.8528 18.2935 10.8528 19.3435 10.7285C19.8133 10.6318 20.1725 10.2587 20.2278 9.80277C20.3107 9.27775 20.3521 8.78036 20.3383 8.28297ZM19.385 8.89089V9.05669C19.385 9.1534 19.3021 9.2363 19.1915 9.2363C19.081 9.2363 18.9981 9.1534 18.9981 9.05669V8.89089C18.9428 8.83563 18.9014 8.76654 18.9014 8.68365C18.9014 8.53167 19.0257 8.40732 19.1915 8.40732C19.3435 8.40732 19.4817 8.53167 19.4817 8.68365C19.4817 8.76654 19.454 8.83563 19.385 8.89089Z" fill="white"/>
<path fill-rule="evenodd" clip-rule="evenodd" d="M14.8808 16.9043C14.8808 16.4207 14.4801 16.02 13.9689 16.0062C13.4577 15.9924 13.0432 16.3931 13.0432 16.8904C13.0432 17.3878 13.4439 17.7747 13.9551 17.7885H13.9689C14.4525 17.8161 14.8531 17.4569 14.8808 16.9872C14.8946 16.9595 14.8946 16.9319 14.8808 16.9043ZM12.1589 16.9043C12.1589 15.9786 12.9188 15.2739 13.9689 15.2739C15.0189 15.2739 15.7788 15.9924 15.7788 16.9043C15.7788 17.8161 15.0466 18.5484 13.9827 18.5484C12.9188 18.5484 12.1589 17.83 12.1589 16.9043Z" fill="black"/>
<path fill-rule="evenodd" clip-rule="evenodd" d="M10.722 17.0702C10.722 17.4571 10.3213 17.761 9.81013 17.761C9.34038 17.8025 8.92588 17.4709 8.87062 17.0288C8.87062 16.9873 8.87062 16.932 8.87062 16.8906C8.87062 16.3794 9.25748 16.034 9.85158 16.034C10.3352 16.034 10.7358 16.3517 10.7358 16.711V17.0702H10.722ZM10.7496 15.2603V15.6333C10.4595 15.3708 10.0726 15.2464 9.67197 15.2741C8.74627 15.2741 7.98637 16.0063 8.00019 16.9182C8.014 17.8163 8.7739 18.5486 9.6996 18.5347C10.0865 18.5486 10.4595 18.4104 10.7358 18.1479V18.4657C10.7358 18.894 10.349 19.1979 9.85158 19.1979C9.46472 19.2256 9.09168 19.1012 8.81535 18.8387L8.23506 19.3775C8.67719 19.792 9.27129 20.0131 9.87922 19.9993C10.9016 19.9993 11.6063 19.3361 11.6063 18.4518V15.2603H10.7496Z" fill="black"/>
<path fill-rule="evenodd" clip-rule="evenodd" d="M16.3176 15.3571H17.1742V15.6335H17.1881C17.4644 15.3848 17.8512 15.2604 18.2243 15.2742C19.1638 15.3019 19.8961 16.0756 19.8546 16.9736C19.827 17.8303 19.1085 18.5211 18.2243 18.5487C17.8651 18.5625 17.5058 18.4382 17.2157 18.2171V19.7646H16.3176V15.3571ZM18.0999 16.0341C17.6164 16.0341 17.2295 16.3519 17.2295 16.7111V17.098C17.2295 17.471 17.6164 17.775 18.1138 17.775C18.6111 17.8026 19.0395 17.4296 19.0671 16.946C19.0947 16.4624 18.7079 16.0479 18.2105 16.0203C18.1552 16.0341 18.1276 16.0341 18.0999 16.0341Z" fill="black"/>
<path fill-rule="evenodd" clip-rule="evenodd" d="M21.5955 16.6003C22.1896 16.5174 22.3554 16.4483 22.3554 16.2825C22.3554 16.0753 22.1343 15.9509 21.7889 15.9509C21.4159 15.9233 21.0705 16.1582 20.9876 16.5174L20.1448 16.3516C20.2691 15.716 20.9461 15.2739 21.7751 15.2739C22.7146 15.2739 23.2949 15.7437 23.2949 16.4898V18.4655H22.4936V18.1201H22.4797C22.2034 18.4241 21.8027 18.576 21.3883 18.5484C20.6836 18.5484 20.1862 18.1754 20.1862 17.6227C20.1724 17.0562 20.5869 16.7385 21.5955 16.6003ZM22.4245 16.9319C22.3278 17.0424 22.1758 17.1115 21.7198 17.1806C21.1948 17.2773 21.0014 17.374 21.0014 17.5536C21.0014 17.7332 21.1534 17.8161 21.4988 17.8161C22.0238 17.8161 22.4107 17.5813 22.4107 17.2911L22.4245 16.9319Z" fill="black"/>
<path fill-rule="evenodd" clip-rule="evenodd" d="M24.9114 18.286L23.4192 15.3569H24.414L25.3811 17.3879H25.3949L26.3621 15.3569H27.3569L25.1324 19.7782H24.1515L24.9114 18.286Z" fill="black"/>
<path d="M3.25 1H31.75V-1H3.25V1ZM34 3.25V20.75H36V3.25H34ZM31.75 23H3.25V25H31.75V23ZM1 20.75V3.25H-1V20.75H1ZM3.25 23C2.00736 23 1 21.9926 1 20.75H-1C-1 23.0972 0.902789 25 3.25 25V23ZM34 20.75C34 21.9926 32.9926 23 31.75 23V25C34.0972 25 36 23.0972 36 20.75H34ZM31.75 1C32.9926 1 34 2.00736 34 3.25H36C36 0.90279 34.0972 -1 31.75 -1V1ZM3.25 -1C0.90279 -1 -1 0.90279 -1 3.25H1C1 2.00736 2.00736 1 3.25 1V-1Z" fill="#F6F7F8"/>
</svg>
