<svg width="35" height="24" viewBox="0 0 35 24" fill="none" xmlns="http://www.w3.org/2000/svg">
<path d="M25.6915 2.54941H9.30851C4.18883 2.54941 0 6.71007 0 11.7953C0 16.8806 4.18883 21.0412 9.30851 21.0412H25.6915C30.8112 21.0412 35 16.8806 35 11.7953C35 6.71007 30.8112 2.54941 25.6915 2.54941Z" fill="white"/>
<path d="M25.6915 3.29833C26.8411 3.29833 27.9581 3.52485 29.01 3.96866C30.0293 4.39859 30.9415 5.01344 31.7327 5.79472C32.5193 6.576 33.1383 7.48673 33.5711 8.49916C34.018 9.54394 34.246 10.6535 34.246 11.7953C34.246 12.9372 34.018 14.0467 33.5711 15.0915C33.1383 16.1039 32.5193 17.01 31.7327 17.7959C30.9461 18.5772 30.0293 19.1921 29.01 19.622C27.9581 20.0658 26.8411 20.2923 25.6915 20.2923H9.30851C8.15891 20.2923 7.04189 20.0658 5.99003 19.622C4.97074 19.1921 4.05851 18.5772 3.26729 17.7959C2.48072 17.0146 1.8617 16.1039 1.42886 15.0915C0.982048 14.0467 0.753989 12.9372 0.753989 11.7953C0.753989 10.6535 0.982048 9.54394 1.42886 8.49916C1.8617 7.48673 2.48072 6.58063 3.26729 5.79472C4.05386 5.01344 4.97074 4.39859 5.99003 3.96866C7.04189 3.52485 8.15891 3.29833 9.30851 3.29833H25.6915ZM25.6915 2.54941H9.30851C4.18883 2.54941 0 6.71007 0 11.7953C0 16.8806 4.18883 21.0412 9.30851 21.0412H25.6915C30.8112 21.0412 35 16.8806 35 11.7953C35 6.71007 30.8112 2.54941 25.6915 2.54941Z" fill="#3C4043"/>
<path d="M16.7278 12.4518V15.2487H15.8342V8.34198H18.2032C18.8036 8.34198 19.3156 8.54077 19.7345 8.93834C20.1627 9.33592 20.3768 9.82133 20.3768 10.3946C20.3768 10.9817 20.1627 11.4671 19.7345 11.8601C19.3203 12.253 18.8083 12.4472 18.2032 12.4472H16.7278V12.4518ZM16.7278 9.19261V11.6012H18.2219C18.5756 11.6012 18.8735 11.481 19.1062 11.2452C19.3435 11.0094 19.4645 10.7228 19.4645 10.3992C19.4645 10.0802 19.3435 9.79821 19.1062 9.56244C18.8735 9.31743 18.5802 9.19723 18.2219 9.19723H16.7278V9.19261Z" fill="#3C4043"/>
<path d="M22.7133 10.3669C23.3742 10.3669 23.8954 10.5425 24.2771 10.8939C24.6587 11.2452 24.8496 11.726 24.8496 12.3362V15.2487H23.9978V14.5922H23.9606C23.5929 15.1331 23.0996 15.4013 22.4852 15.4013C21.9593 15.4013 21.5218 15.2487 21.168 14.939C20.8143 14.6292 20.6375 14.2455 20.6375 13.7832C20.6375 13.2932 20.8236 12.9049 21.196 12.6182C21.5683 12.327 22.0663 12.1837 22.6853 12.1837C23.2159 12.1837 23.6534 12.2808 23.9932 12.4749V12.2715C23.9932 11.9618 23.8722 11.7029 23.6255 11.4856C23.3788 11.2683 23.0902 11.162 22.7598 11.162C22.2618 11.162 21.8662 11.37 21.5776 11.7907L20.791 11.3007C21.2239 10.6766 21.8662 10.3669 22.7133 10.3669ZM21.559 13.7971C21.559 14.0282 21.6567 14.2224 21.8569 14.375C22.0523 14.5275 22.2851 14.6061 22.5504 14.6061C22.9273 14.6061 23.2625 14.4674 23.5557 14.19C23.8489 13.9127 23.9978 13.5891 23.9978 13.2146C23.7186 12.9973 23.3323 12.8864 22.8343 12.8864C22.4712 12.8864 22.1687 12.9742 21.9267 13.1453C21.68 13.3255 21.559 13.5428 21.559 13.7971Z" fill="#3C4043"/>
<path d="M29.7086 10.5194L26.7298 17.3244H25.8083L26.916 14.9436L24.9519 10.5194H25.9246L27.3395 13.9127H27.3582L28.7358 10.5194H29.7086Z" fill="#3C4043"/>
<path d="M13.1732 11.8878C13.1732 11.5984 13.1472 11.3215 13.0988 11.0552H9.35303V12.5808L11.5103 12.5812C11.4228 13.0888 11.1412 13.5215 10.7097 13.81V14.7998H11.9939C12.7437 14.1105 13.1732 13.0916 13.1732 11.8878Z" fill="#4285F4"/>
<path d="M10.7103 13.81C10.3529 14.0495 9.89257 14.1896 9.35407 14.1896C8.31384 14.1896 7.4314 13.4933 7.11537 12.5549H5.79077V13.5756C6.44702 14.8691 7.79582 15.7567 9.35407 15.7567C10.4311 15.7567 11.3359 15.4049 11.9944 14.7993L10.7103 13.81Z" fill="#34A853"/>
<path d="M6.99057 11.7976C6.99057 11.5341 7.03478 11.2794 7.1153 11.0399V10.0192H5.7907C5.51936 10.5541 5.3667 11.1578 5.3667 11.7976C5.3667 12.4375 5.51982 13.0412 5.7907 13.5761L7.1153 12.5554C7.03478 12.3159 6.99057 12.0612 6.99057 11.7976Z" fill="#FABB05"/>
<path d="M9.35407 9.40526C9.9419 9.40526 10.4683 9.60636 10.8839 9.99931L12.0219 8.86992C11.3307 8.23056 10.4297 7.83807 9.35407 7.83807C7.79629 7.83807 6.44702 8.72568 5.79077 10.0192L7.11537 11.0399C7.4314 10.1015 8.31384 9.40526 9.35407 9.40526Z" fill="#E94235"/>
</svg>
