<svg width="35" height="24" viewBox="0 0 35 24" fill="none" xmlns="http://www.w3.org/2000/svg">
<rect x="0.416667" y="0.416667" width="34.1667" height="23.1667" rx="2.2901" fill="white" stroke="#F6F7F8" stroke-width="0.833333"/>
<path d="M18.6459 10.2408C18.2905 9.87956 17.8315 9.68291 17.3411 9.68291C16.9856 9.68291 16.6301 9.82011 16.4322 9.95273C16.0272 10.2271 15.6897 10.529 15.0868 11.3293V11.9009C15.6043 11.2195 16.0812 10.6844 16.4457 10.3872C16.6886 10.186 17.0306 10.0625 17.3366 10.0625C18.1375 10.0625 18.8079 10.753 18.8079 11.5671V11.9146C18.8079 12.3216 18.6504 12.6966 18.3715 12.9848C18.0925 13.2683 17.7235 13.4284 17.3366 13.4284C16.6841 13.4284 16.1037 12.971 15.9462 12.3399L15.6852 12.6692C15.8742 13.3277 16.5717 13.8171 17.3366 13.8171C17.8225 13.8171 18.286 13.6159 18.6414 13.2592C18.9969 12.8979 19.1859 12.4223 19.1859 11.9284V11.5808C19.1904 11.0686 18.9969 10.5975 18.6459 10.2408ZM10.5558 10.0625C10.8033 10.0625 11.0237 10.1219 11.2217 10.2317C11.3162 10.1128 11.4062 10.0122 11.4782 9.94358C11.2712 9.77895 10.9158 9.67834 10.5558 9.67834C10.0384 9.67834 9.5749 9.87041 9.24194 10.218C8.91347 10.5655 8.72449 11.0457 8.72449 11.5716V13.8125H9.09346V11.5716C9.09346 10.689 9.69189 10.0625 10.5558 10.0625ZM14.1329 13.8171V11.5854C14.1329 10.8948 13.6065 10.3597 12.9405 10.3597C12.6256 10.3597 12.3331 10.4878 12.0991 10.7256C11.8697 10.9588 11.7437 11.2652 11.7437 11.5854V11.9329C11.7437 12.596 12.2881 13.1585 12.936 13.1585C13.116 13.1585 13.3545 13.1128 13.503 12.9893V12.5823C13.359 12.7012 13.1475 12.7698 12.936 12.7698C12.4771 12.7698 12.1126 12.3994 12.1126 11.9284V11.5808C12.1126 11.1097 12.4726 10.7393 12.936 10.7393C13.3995 10.7393 13.7595 11.1097 13.7595 11.5808V13.8125L14.1284 13.8125V13.8171H14.1329ZM4 11.3658V11.4939C4 12.1753 4.24747 12.8064 4.69293 13.2774C5.14288 13.7485 5.74131 14.0092 6.38924 14.0092C6.90669 14.0092 7.36114 13.8857 7.7481 13.6479C8.06756 13.4467 8.20705 13.2454 8.22505 13.2317V11.1189H6.29925V11.5122H7.85159V13.1082C7.67161 13.2957 7.23965 13.6159 6.39374 13.6159C5.8448 13.6159 5.33186 13.3963 4.9584 12.9985C4.57594 12.6006 4.37346 12.0655 4.37346 11.4893V11.3613C4.37346 10.8216 4.61193 10.2729 5.02139 9.87041C5.43985 9.45882 5.98879 9.23474 6.56023 9.23474C7.09117 9.23474 7.46913 9.31705 7.7661 9.50455V9.06095C7.45113 8.92376 7.08217 8.85973 6.56023 8.85973C5.17437 8.87345 4 10.0168 4 11.3658ZM10.5558 10.7347C10.6953 10.7347 10.8168 10.7576 10.9113 10.8033C10.9563 10.6844 11.0058 10.5838 11.0732 10.4695C10.9743 10.3918 10.7313 10.3506 10.5558 10.3506C9.87637 10.346 9.36793 10.8765 9.36793 11.5762V13.8171H9.73689V11.5762C9.73689 11.0823 10.0743 10.7347 10.5558 10.7347ZM7.7706 10.2683L7.7706 9.80181C7.42863 9.61431 7.05967 9.52742 6.56473 9.52742C6.06078 9.52742 5.58383 9.7195 5.21937 10.0671C4.85491 10.4146 4.65693 10.8765 4.65693 11.3658V11.4939C4.65693 12.5046 5.43985 13.3323 6.39374 13.3323C7.17666 13.3323 7.49613 13.0671 7.57712 12.9848V11.8049H6.30375V12.1982H7.22616V12.7881H7.22166C7.10467 12.8338 6.85719 12.939 6.39374 12.939C6.02928 12.939 5.68732 12.7927 5.43085 12.5229C5.17437 12.253 5.03039 11.8872 5.03039 11.4985V11.3704C5.03039 10.5884 5.73231 9.92986 6.56023 9.92986C7.13616 9.92072 7.47363 10.0168 7.7706 10.2683ZM16.7381 11C16.9046 10.8308 17.1251 10.7302 17.3411 10.7302C17.8045 10.7302 18.1645 11.1006 18.1645 11.5716V11.9192C18.1645 12.3902 17.8045 12.7607 17.3411 12.7607C17.1161 12.7607 16.9001 12.6372 16.7336 12.4085C16.5852 12.2073 16.4862 11.9375 16.4727 11.6905L16.1712 12.0655C16.2297 12.3537 16.3782 12.6326 16.5897 12.8293C16.8056 13.0305 17.0756 13.1402 17.3501 13.1402C18.0115 13.1402 18.5469 12.5915 18.5469 11.9146V11.5671C18.5469 11.2469 18.421 10.9451 18.1915 10.7073C17.962 10.4741 17.665 10.3415 17.3501 10.3415C17.1521 10.3415 16.8416 10.41 16.4637 10.7576C16.3647 10.8582 16.1262 11.1006 15.9822 11.2744C15.7392 11.5442 15.3928 11.9512 15.0958 12.3582V12.9573C15.4243 12.5229 15.6178 12.2805 15.9282 11.9101C16.1982 11.5762 16.5402 11.1738 16.7381 11ZM11.1002 11.9329C11.1002 12.4314 11.2892 12.9024 11.6447 13.2637C12.0001 13.625 12.4546 13.8217 12.9405 13.8217C13.1475 13.8217 13.359 13.7759 13.5075 13.7028V13.3186C13.332 13.3963 13.1205 13.4375 12.9405 13.4375C12.1486 13.4375 11.4692 12.747 11.4692 11.9329V11.5854C11.4692 10.7668 12.1396 10.0808 12.9405 10.0808C13.3365 10.0808 13.7055 10.2317 13.9844 10.5152C14.2634 10.7988 14.4119 11.1738 14.4119 11.5808V13.8125H14.7808V11.503C14.7583 11.0137 14.5559 10.561 14.2094 10.218C13.8629 9.87498 13.4085 9.68748 12.9405 9.68748C12.4546 9.68748 11.9956 9.8887 11.6447 10.2454C11.2892 10.6067 11.1002 11.0732 11.1002 11.5762V11.9329ZM15.4783 10.4329C15.5953 10.2911 15.7077 10.1494 15.8472 10.0259L15.8472 7.99997H15.4783L15.4783 10.4329ZM16.1262 9.87041V8.00455H16.5042V9.60517C16.3962 9.66462 16.2522 9.76065 16.1262 9.87041Z" fill="#4BA658"/>
<path d="M20.3767 8.9219C20.5747 8.9219 20.8537 8.9219 21.1821 8.90361C21.938 8.88532 21.9875 8.88532 22.0685 8.90361C22.514 8.95392 22.9729 8.98593 23.3149 9.33807C23.6749 9.70392 23.7109 10.1887 23.7109 10.3213C23.7109 10.4402 23.7288 11.0073 23.3149 11.4555C23.0674 11.7207 22.7885 11.8213 22.658 11.8579C22.4285 11.9402 22.2305 11.9402 21.8211 11.9585C21.5736 11.9585 21.3756 11.9585 21.2316 11.9585C21.2316 12.5759 21.2316 13.1933 21.2316 13.8107C20.9526 13.8107 20.6557 13.8107 20.3767 13.8107C20.3902 12.178 20.3902 10.5591 20.3767 8.9219ZM21.2631 11.2908C21.3621 11.2908 21.5241 11.3091 21.7086 11.3091C22.1045 11.2908 22.316 11.2908 22.496 11.1582C22.676 11.0393 22.757 10.8747 22.793 10.8244C22.8244 10.742 22.8919 10.6094 22.8919 10.4402C22.8919 10.4082 22.8919 10.024 22.613 9.79081C22.415 9.62618 22.2035 9.60788 21.8436 9.58959C21.6141 9.5713 21.4161 9.58959 21.2856 9.6216C21.2631 10.1567 21.2631 10.7237 21.2631 11.2908Z" fill="#4BA658"/>
<path d="M26.3162 13.8107C26.2982 13.678 26.2847 13.5454 26.2667 13.4082C26.1677 13.5271 25.9067 13.7604 25.5108 13.861C25.4118 13.8793 24.7548 14.0439 24.3139 13.5957C24.0034 13.2802 24.0034 12.8594 24.0034 12.8137C24.0034 12.7314 24.0034 12.4981 24.1519 12.2649C24.3004 12.05 24.4984 11.9494 24.6603 11.8625C24.9213 11.7436 25.0563 11.7436 25.8437 11.6109C25.9922 11.5789 26.1047 11.5606 26.1722 11.5424C26.1722 11.4738 26.1722 11.4097 26.1722 11.3411C26.1542 11.2588 26.1227 11.0759 25.9922 10.9387C25.8302 10.7558 25.5962 10.7375 25.4028 10.7237C24.9123 10.6917 24.4984 10.8747 24.2554 11.0073C24.2554 10.7923 24.2554 10.5545 24.2554 10.3396C24.5164 10.207 24.9798 10.024 25.5513 10.0561C25.8617 10.0744 26.2892 10.1064 26.6176 10.4219C27.0631 10.8564 27.0271 11.4738 27.0136 11.5881V12.8914C27.0136 13.1933 27.0136 13.4905 27.0136 13.7924C26.8111 13.8107 26.5636 13.8107 26.3162 13.8107ZM26.2037 12.1277C25.9562 12.146 25.7447 12.178 25.5962 12.21C25.1868 12.2786 25.0698 12.3427 24.9708 12.425C24.9393 12.457 24.8403 12.5576 24.8223 12.7085C24.7908 12.8732 24.8538 13.0424 24.9708 13.1613C25.0878 13.2619 25.2318 13.2802 25.3668 13.2802C25.4163 13.2802 25.5648 13.2802 25.7267 13.2299C25.8752 13.1796 25.9742 13.0972 26.0372 13.0286C26.1047 12.9783 26.1542 12.9097 26.1992 12.8777C26.2037 12.6262 26.2037 12.3792 26.2037 12.1277Z" fill="#4BA658"/>
<path d="M28.3364 10.1567C28.5659 10.742 28.7954 11.3731 29.0114 12.0591C29.0923 12.3427 29.1733 12.6079 29.2408 12.8777C29.3893 12.393 29.5513 11.9082 29.7178 11.428C29.8663 10.9936 30.0148 10.5774 30.1632 10.175C30.4422 10.175 30.7212 10.175 31.0001 10.175C30.7032 10.957 30.3927 11.7436 30.0957 12.5439C29.8978 12.9966 29.7673 13.3625 29.6683 13.6277C29.5693 13.9296 29.5063 14.1445 29.3398 14.4463C29.1283 14.8305 28.9304 14.9814 28.8494 15.0317C28.6874 15.1506 28.5389 15.1963 28.4039 15.2329C28.1744 15.3152 27.9585 15.3335 27.8145 15.3518C27.8145 15.1186 27.8145 14.8854 27.8145 14.6521C27.9315 14.6338 28.125 14.6018 28.3229 14.4509C28.3544 14.4326 28.4534 14.3503 28.5524 14.2177C28.5839 14.1857 28.6199 14.0988 28.7009 13.9158C28.7684 13.7832 28.7819 13.7512 28.7819 13.6826C28.7819 13.6003 28.7504 13.55 28.7324 13.4997L27.4365 10.1795C27.729 10.1567 28.026 10.1567 28.3364 10.1567Z" fill="#4BA658"/>
</svg>
