<svg width="35" height="24" viewBox="0 0 35 24" fill="none" xmlns="http://www.w3.org/2000/svg">
<rect x="0.416667" y="0.416667" width="34.1667" height="23.1667" rx="2.2901" fill="white" stroke="#F6F7F8" stroke-width="0.833333"/>
<path d="M26.4335 6.56083C27.356 7.94461 27.2591 10.0397 26.3013 11.3793C24.4918 14.6958 21.2451 17.9646 17.6369 19.9996H17.5327C13.7094 17.804 10.3797 14.35 8.46062 10.8393C7.75183 9.42197 7.8471 7.48027 8.84337 6.21496C10.1238 4.48866 12.27 3.75277 14.5223 4.08803C15.651 4.28583 16.6314 4.75882 17.5045 5.5478C17.7461 5.40475 17.9842 5.15946 18.2417 4.98456C19.9029 3.81982 22.6842 3.65387 24.4918 4.67222C25.3048 5.09045 26.0016 5.82829 26.4335 6.56083Z" fill="#D61918"/>
<path d="M26.4335 6.56114C27.3557 7.94492 27.2588 10.04 26.3013 11.3796C24.4918 14.6962 21.2451 17.9649 17.6366 19.9999H17.5327C13.7091 17.8043 10.3794 14.3503 8.46062 10.8396C7.75183 9.42228 7.8471 7.48086 8.84337 6.21527C10.1238 4.48897 12.27 3.75308 14.5221 4.08834C15.6508 4.28614 16.6314 4.75914 17.5045 5.54811C17.7461 5.40506 17.9842 5.15977 18.2415 4.98515C19.9029 3.82013 22.6842 3.65418 24.4918 4.67253C25.3048 5.09104 26.0013 5.82861 26.4335 6.56114Z" stroke="white" stroke-width="2.29414"/>
<path d="M26.3828 6.70033C27.4743 8.53586 26.6842 10.8517 25.5097 12.4137C23.7108 15.3011 20.8608 18.051 17.6636 19.8673H17.5311C13.7676 17.7317 10.3144 14.2176 8.53338 10.698C7.64271 8.98958 8.14867 6.8945 9.58273 5.56884C10.9757 4.2063 13.108 3.87271 15.0497 4.32447C15.9456 4.55217 16.7869 5.0165 17.4359 5.70825C17.4711 5.74177 17.5311 5.72082 17.5683 5.72082C19.0283 4.13226 21.5327 3.73135 23.6051 4.39851C24.7936 4.77819 25.8095 5.69596 26.3828 6.70033Z" fill="white"/>
<path d="M26.3828 6.70042C27.4743 8.53595 26.6842 10.8517 25.5097 12.4138C23.7108 15.3014 20.8608 18.0511 17.6636 19.8674H17.5311C13.7676 17.7318 10.3144 14.2177 8.53338 10.6981C7.64271 8.98967 8.14867 6.89459 9.58273 5.56892C10.9757 4.20638 13.108 3.8728 15.0497 4.32484C15.9456 4.55226 16.7869 5.01659 17.4359 5.70862C17.4711 5.74186 17.5311 5.72091 17.5683 5.72091C19.0283 4.13235 21.5327 3.73172 23.6051 4.39888C24.7936 4.77828 25.8095 5.69604 26.3828 6.70042Z" stroke="white" stroke-width="2.29414"/>
<path d="M13.6594 9.60374C13.5217 9.43779 13.3032 9.34783 13.0738 9.40622C12.873 9.43779 12.707 9.61268 12.6735 9.78562L12.6612 10.8464L12.6453 10.873L12.1603 10.88L12.1516 10.2958C12.1234 10.001 12.2237 9.60374 11.8412 9.46433C11.6948 9.39728 11.4936 9.39728 11.3562 9.46433C10.9821 9.63727 11.1003 10.0485 11.081 10.3681V12.3942C11.0916 12.6255 11.0634 12.8795 11.319 13.0298C11.4654 13.1178 11.6842 13.1287 11.8412 13.0614C12.0052 12.9963 12.1234 12.8496 12.1603 12.6996V11.8276L12.6453 11.819L12.6612 11.8276L12.6735 12.6166C12.6894 12.7507 12.7266 12.8884 12.864 12.9784C13.0015 13.0879 13.2007 13.1178 13.3842 13.0614C13.5678 12.9963 13.7298 12.832 13.7404 12.6591V10.1474C13.7298 9.96554 13.7776 9.76774 13.6594 9.60374ZM15.7668 7.94114C15.6682 7.78413 15.4846 7.66037 15.303 7.64444C15.0384 7.59527 14.8004 7.70814 14.6364 7.89002C14.5534 7.80872 14.4531 7.74334 14.3612 7.69389C14.1249 7.61092 13.8214 7.61986 13.6312 7.77519C13.439 7.92354 13.3471 8.17946 13.4214 8.4105C13.6046 8.98603 14.0704 9.54563 14.6557 9.90016C14.9468 9.7113 15.2306 9.4132 15.4301 9.14137C15.631 8.77957 15.9892 8.38592 15.7668 7.94114ZM15.139 10.3927C15.0932 10.3028 15.0192 10.2058 14.9116 10.1633C14.7722 10.0804 14.5534 10.098 14.407 10.1474C14.2344 10.2304 14.1142 10.3785 14.1056 10.5603V12.4612C14.088 12.6501 14.1249 12.8144 14.2606 12.9309C14.3984 13.0614 14.6012 13.0879 14.7828 13.0614C14.982 13.0209 15.1742 12.8496 15.1742 12.6501V11.1359C15.1479 10.873 15.222 10.6592 15.139 10.3927ZM16.3982 11.7622L15.8039 11.7536C15.7316 11.7622 15.631 11.736 15.5762 11.7695C15.2661 11.893 15.4301 12.2302 15.3946 12.4526C15.55 12.7649 15.9431 12.6009 16.2448 12.6325C16.3823 12.6501 16.4812 12.5937 16.5552 12.502C16.6452 12.3291 16.5923 12.1313 16.6097 11.9511C16.5817 11.8595 16.5004 11.7854 16.3982 11.7622ZM17.7509 9.57916C17.6152 9.39728 17.3118 9.31598 17.093 9.43779C16.9203 9.53138 16.7723 9.67806 16.7915 9.86664L16.8022 12.3626L16.8284 12.7172C16.8463 12.8655 17.0313 13.0298 17.2131 13.0614C17.5322 13.0949 17.8973 13.0879 18.234 13.0544C18.3823 13.0209 18.5268 12.9219 18.5922 12.7985C18.6732 12.6166 18.645 12.3942 18.4986 12.2389C18.3452 12.0729 18.0896 12.0978 17.8691 12.0978C17.8426 11.3407 17.8602 10.6011 17.8426 9.84904C17.8426 9.75209 17.8057 9.67079 17.7509 9.57916ZM19.9254 9.01089C19.8424 8.86953 19.6787 8.74772 19.5323 8.70525C19.2959 8.64016 19.0294 8.68961 18.8567 8.86953C18.6821 9.04414 18.629 9.31598 18.7386 9.53837C18.8285 9.74315 19.0752 9.9091 19.3118 9.9091C19.5515 9.91609 19.7527 9.78562 19.8885 9.60374C20.0259 9.44673 20.0259 9.18355 19.9254 9.01089ZM22.5831 11.0456L23.4243 11.037C23.3874 10.9381 23.2673 10.873 23.1581 10.8322C22.9941 10.79 22.8231 10.8146 22.6926 10.9135C22.6571 10.9453 22.5831 11.0034 22.5831 11.0456ZM24.4474 10.8322C24.301 10.3363 23.7453 9.94095 23.1774 9.88256C22.5373 9.83507 21.9165 10.1385 21.6237 10.64C21.5514 10.7741 21.5055 10.9135 21.4687 11.0599C21.4052 11.0456 21.3329 11.0705 21.2871 11.0456V9.76774L21.3133 9.74315H21.7701C21.9623 9.71857 22.1353 9.64453 22.2356 9.48025C22.3275 9.31598 22.3116 9.10784 22.1811 8.96843C21.9799 8.68961 21.5779 8.80415 21.2516 8.77957C20.9923 8.80415 20.7015 8.73906 20.4827 8.84662C20.3098 8.93658 20.1899 9.08493 20.1899 9.26653V11.0456C20.0983 11.0951 19.9712 11.0599 19.8533 11.0705C19.8251 10.7741 19.9502 10.4687 19.7331 10.2374C19.5868 10.0804 19.3859 10.0326 19.1953 10.0804C19.0294 10.1385 18.8657 10.2709 18.8285 10.4352C18.8109 11.1429 18.8109 11.8595 18.8196 12.5602C18.8285 12.7314 18.9025 12.8795 19.0489 12.989C19.1953 13.0879 19.4228 13.0879 19.5692 12.9963C19.9502 12.8144 19.8161 12.4191 19.8533 12.0729L19.8424 12.0589H20.1899V12.1224L20.2075 14.463C20.2075 14.6253 20.2251 14.7823 20.3629 14.8899C20.4917 15.0207 20.6925 15.0542 20.8741 15.0207C21.0753 14.9799 21.2588 14.8159 21.2871 14.6184V12.3291L21.2957 12.0413H21.4687C21.5145 12.0978 21.5145 12.1894 21.5514 12.2637C21.726 12.7507 22.3116 13.1357 22.8672 13.1603C23.2673 13.1287 23.7789 13.3013 24.0557 12.9963C24.1633 12.8655 24.2111 12.6677 24.1563 12.502C24.0823 12.3291 23.8987 12.2213 23.7065 12.1967H22.7843C22.7119 12.1559 22.6379 12.0908 22.6027 12.0324H23.3238C23.6802 11.9919 24.1175 12.1402 24.3379 11.8525C24.5019 11.5558 24.5759 11.1605 24.4474 10.8322ZM26.0505 7.02338C26.9462 8.53762 26.3715 10.5022 25.4015 11.8312C23.6749 14.7117 20.7736 17.5111 17.6504 19.3891L17.4671 19.3572C13.8374 17.1526 10.7105 13.9157 8.95044 10.5215C8.15868 8.93658 8.62441 6.96862 10.014 5.75778C11.3825 4.52068 13.6348 4.12871 15.4212 4.85398C16.2342 5.13113 16.9203 5.71727 17.504 6.37745L17.5551 6.35622C18.8109 4.74642 20.9571 4.17453 23.0257 4.64054C24.2728 4.95288 25.5337 5.91312 26.0505 7.02338Z" fill="#D61918"/>
<path d="M13.6595 9.60374C13.5217 9.43779 13.3033 9.34783 13.0739 9.40622C12.8727 9.43779 12.7071 9.61268 12.6735 9.78562L12.6612 10.8464L12.6453 10.873L12.1603 10.88L12.1514 10.2958C12.1232 10.001 12.2237 9.60374 11.8413 9.46433C11.6949 9.39728 11.4937 9.39728 11.356 9.46433C10.9822 9.63727 11.1003 10.0485 11.0811 10.3681V12.3942C11.0914 12.6255 11.0632 12.8798 11.3191 13.0298C11.4655 13.1178 11.684 13.1287 11.8413 13.0614C12.005 12.9963 12.1232 12.8496 12.1603 12.6996V11.8276L12.6453 11.819L12.6612 11.8276L12.6735 12.6166C12.6895 12.751 12.7263 12.8884 12.8641 12.9784C13.0015 13.0879 13.2007 13.1178 13.3843 13.0614C13.5678 12.9963 13.7299 12.832 13.7405 12.6591V10.1474C13.7299 9.96554 13.7774 9.76802 13.6595 9.60374ZM15.7668 7.94114C15.6682 7.78413 15.4847 7.66037 15.3031 7.64472C15.0385 7.59527 14.8005 7.70814 14.6365 7.89002C14.5535 7.80872 14.4529 7.74334 14.3613 7.69389C14.1249 7.61092 13.8215 7.61986 13.631 7.77519C13.439 7.92354 13.3471 8.17946 13.4214 8.4105C13.6047 8.98603 14.0702 9.54563 14.6557 9.90016C14.9469 9.7113 15.2307 9.4132 15.4299 9.14136C15.6311 8.77957 15.9892 8.38592 15.7668 7.94114ZM15.1391 10.3927C15.0933 10.3028 15.0192 10.2058 14.9114 10.1633C14.7722 10.0804 14.5535 10.098 14.4071 10.1474C14.2344 10.2304 14.1143 10.3785 14.1056 10.5603V12.4615C14.088 12.6501 14.1249 12.8144 14.2607 12.9309C14.3982 13.0614 14.6013 13.0879 14.7829 13.0614C14.9821 13.0209 15.1743 12.8496 15.1743 12.6501V11.1359C15.148 10.873 15.222 10.6592 15.1391 10.3927ZM16.3982 11.7625L15.8037 11.7536C15.7316 11.7625 15.6311 11.736 15.5763 11.7695C15.2659 11.893 15.4299 12.2302 15.3947 12.4526C15.55 12.7649 15.9431 12.6009 16.2449 12.6325C16.3823 12.6501 16.4812 12.5937 16.5553 12.502C16.6452 12.3291 16.5921 12.1313 16.6097 11.9514C16.5818 11.8595 16.5005 11.7854 16.3982 11.7625ZM17.751 9.57915C17.6152 9.39728 17.3118 9.31598 17.0931 9.43779C16.9204 9.53138 16.7721 9.67806 16.7916 9.86664L16.8022 12.3626L16.8285 12.7172C16.8461 12.8655 17.0313 13.0298 17.2129 13.0614C17.5322 13.0949 17.8974 13.0879 18.2341 13.0544C18.3824 13.0208 18.5268 12.9219 18.5922 12.7985C18.6732 12.6166 18.645 12.3942 18.4986 12.2389C18.3452 12.0729 18.0896 12.0978 17.8692 12.0978C17.8426 11.3407 17.8602 10.6011 17.8426 9.84904C17.8426 9.75209 17.8055 9.67079 17.751 9.57915ZM19.9254 9.01089C19.8424 8.86953 19.6784 8.74772 19.5321 8.70525C19.296 8.64015 19.0294 8.6896 18.8568 8.86953C18.6822 9.04414 18.6291 9.31598 18.7386 9.53864C18.8286 9.74315 19.0753 9.9091 19.3116 9.9091C19.5516 9.91609 19.7525 9.78562 19.8885 9.60374C20.026 9.44673 20.026 9.18383 19.9254 9.01089ZM22.5832 11.0459L23.4244 11.037C23.3875 10.9381 23.2674 10.873 23.1581 10.8322C22.9941 10.79 22.8232 10.8146 22.6924 10.9135C22.6572 10.9453 22.5832 11.0034 22.5832 11.0459ZM24.4472 10.8322C24.3011 10.3363 23.7454 9.94095 23.1774 9.88284C22.5374 9.83507 21.9166 10.1385 21.6238 10.64C21.5514 10.7741 21.5056 10.9135 21.4687 11.0599C21.405 11.0459 21.3327 11.0705 21.2868 11.0459V9.76802L21.3134 9.74315H21.7702C21.9624 9.71857 22.1353 9.64453 22.2356 9.48025C22.3275 9.31598 22.3116 9.10784 22.1811 8.96843C21.98 8.68961 21.578 8.80415 21.2516 8.77957C20.9924 8.80415 20.7015 8.73906 20.4828 8.84662C20.3098 8.93658 20.19 9.08493 20.19 9.26681V11.0459C20.0984 11.0951 19.9712 11.0599 19.8531 11.0705C19.8248 10.7741 19.95 10.4687 19.7332 10.2374C19.5868 10.0804 19.3857 10.0326 19.1954 10.0804C19.0294 10.1385 18.8655 10.2709 18.8286 10.4352C18.8107 11.1428 18.8107 11.8595 18.8196 12.5602C18.8286 12.7314 18.9026 12.8798 19.049 12.989C19.1954 13.0879 19.4228 13.0879 19.5692 12.9963C19.95 12.8144 19.8162 12.4191 19.8531 12.0729L19.8424 12.0589H20.19V12.1224L20.2076 14.463C20.2076 14.6253 20.2252 14.7823 20.3627 14.8899C20.4914 15.0207 20.6926 15.0542 20.8742 15.0207C21.0754 14.9801 21.2586 14.8159 21.2868 14.6184V12.3291L21.2958 12.0413H21.4687C21.5145 12.0978 21.5145 12.1894 21.5514 12.2637C21.726 12.751 22.3116 13.1357 22.867 13.1603C23.2674 13.1287 23.7789 13.3013 24.0558 12.9963C24.1634 12.8655 24.2108 12.668 24.1564 12.502C24.0823 12.3291 23.8988 12.2213 23.7066 12.1967H22.784C22.712 12.1559 22.6377 12.0908 22.6027 12.0324H23.3238C23.68 11.9919 24.1175 12.1402 24.338 11.8525C24.502 11.5561 24.576 11.1605 24.4472 10.8322ZM26.0506 7.02338C26.9463 8.53762 26.3713 10.5022 25.4013 11.8312C23.6747 14.7117 20.7736 17.5111 17.6504 19.3891L17.4671 19.3572C13.8374 17.1526 10.7106 13.9157 8.95051 10.5218C8.15874 8.93658 8.62419 6.96862 10.0141 5.75778C11.3825 4.52068 13.6346 4.12871 15.4212 4.85426C16.2342 5.13113 16.9204 5.71727 17.504 6.37745L17.5552 6.35622C18.8107 4.74642 20.9572 4.17453 23.0257 4.64054C24.2726 4.95288 25.5337 5.91312 26.0506 7.02338Z" stroke="white" stroke-width="2.29414"/>
<path d="M26.4335 6.56083C27.356 7.94461 27.2591 10.0397 26.3013 11.3793C24.4918 14.6958 21.2451 17.9646 17.6369 19.9996H17.5327C13.7094 17.804 10.3797 14.35 8.46062 10.8393C7.75183 9.42197 7.8471 7.48027 8.84337 6.21496C10.1238 4.48866 12.27 3.75277 14.5223 4.08803C15.651 4.28583 16.6314 4.75882 17.5045 5.5478C17.7461 5.40475 17.9842 5.15946 18.2417 4.98456C19.9029 3.81982 22.6842 3.65387 24.4918 4.67222C25.3048 5.09045 26.0016 5.82829 26.4335 6.56083Z" fill="#D61918"/>
<path d="M26.3828 6.70033C27.4743 8.53586 26.6842 10.8517 25.5097 12.4137C23.7108 15.3011 20.8608 18.051 17.6636 19.8673H17.5311C13.7676 17.7317 10.3144 14.2176 8.53338 10.698C7.64271 8.98958 8.14867 6.8945 9.58273 5.56884C10.9757 4.2063 13.108 3.87271 15.0497 4.32447C15.9456 4.55217 16.7869 5.0165 17.4359 5.70825C17.4711 5.74177 17.5311 5.72082 17.5683 5.72082C19.0283 4.13226 21.5327 3.73135 23.6051 4.39851C24.7936 4.77819 25.8095 5.69596 26.3828 6.70033Z" fill="white"/>
<path d="M13.6594 9.60374C13.5217 9.43779 13.3032 9.34783 13.0738 9.40622C12.873 9.43779 12.707 9.61268 12.6735 9.78562L12.6612 10.8464L12.6453 10.873L12.1603 10.88L12.1516 10.2958C12.1234 10.001 12.2237 9.60374 11.8412 9.46433C11.6948 9.39728 11.4936 9.39728 11.3562 9.46433C10.9821 9.63727 11.1003 10.0485 11.081 10.3681V12.3942C11.0916 12.6255 11.0634 12.8795 11.319 13.0298C11.4654 13.1178 11.6842 13.1287 11.8412 13.0614C12.0052 12.9963 12.1234 12.8496 12.1603 12.6996V11.8276L12.6453 11.819L12.6612 11.8276L12.6735 12.6166C12.6894 12.7507 12.7266 12.8884 12.864 12.9784C13.0015 13.0879 13.2007 13.1178 13.3842 13.0614C13.5678 12.9963 13.7298 12.832 13.7404 12.6591V10.1474C13.7298 9.96554 13.7776 9.76774 13.6594 9.60374ZM15.7668 7.94114C15.6682 7.78413 15.4846 7.66037 15.303 7.64444C15.0384 7.59527 14.8004 7.70814 14.6364 7.89002C14.5534 7.80872 14.4531 7.74334 14.3612 7.69389C14.1249 7.61092 13.8214 7.61986 13.6312 7.77519C13.439 7.92354 13.3471 8.17946 13.4214 8.4105C13.6046 8.98603 14.0704 9.54563 14.6557 9.90016C14.9468 9.7113 15.2306 9.4132 15.4301 9.14137C15.631 8.77957 15.9892 8.38592 15.7668 7.94114ZM15.139 10.3927C15.0932 10.3028 15.0192 10.2058 14.9116 10.1633C14.7722 10.0804 14.5534 10.098 14.407 10.1474C14.2344 10.2304 14.1142 10.3785 14.1056 10.5603V12.4612C14.088 12.6501 14.1249 12.8144 14.2606 12.9309C14.3984 13.0614 14.6012 13.0879 14.7828 13.0614C14.982 13.0209 15.1742 12.8496 15.1742 12.6501V11.1359C15.1479 10.873 15.222 10.6592 15.139 10.3927ZM16.3982 11.7622L15.8039 11.7536C15.7316 11.7622 15.631 11.736 15.5762 11.7695C15.2661 11.893 15.4301 12.2302 15.3946 12.4526C15.55 12.7649 15.9431 12.6009 16.2448 12.6325C16.3823 12.6501 16.4812 12.5937 16.5552 12.502C16.6452 12.3291 16.5923 12.1313 16.6097 11.9511C16.5817 11.8595 16.5004 11.7854 16.3982 11.7622ZM17.7509 9.57916C17.6152 9.39728 17.3118 9.31598 17.093 9.43779C16.9203 9.53138 16.7723 9.67806 16.7915 9.86664L16.8022 12.3626L16.8284 12.7172C16.8463 12.8655 17.0313 13.0298 17.2131 13.0614C17.5322 13.0949 17.8973 13.0879 18.234 13.0544C18.3823 13.0209 18.5268 12.9219 18.5922 12.7985C18.6732 12.6166 18.645 12.3942 18.4986 12.2389C18.3452 12.0729 18.0896 12.0978 17.8691 12.0978C17.8426 11.3407 17.8602 10.6011 17.8426 9.84904C17.8426 9.75209 17.8057 9.67079 17.7509 9.57916ZM19.9254 9.01089C19.8424 8.86953 19.6787 8.74772 19.5323 8.70525C19.2959 8.64016 19.0294 8.68961 18.8567 8.86953C18.6821 9.04414 18.629 9.31598 18.7386 9.53837C18.8285 9.74315 19.0752 9.9091 19.3118 9.9091C19.5515 9.91609 19.7527 9.78562 19.8885 9.60374C20.0259 9.44673 20.0259 9.18355 19.9254 9.01089ZM22.5831 11.0456L23.4243 11.037C23.3874 10.9381 23.2673 10.873 23.1581 10.8322C22.9941 10.79 22.8231 10.8146 22.6926 10.9135C22.6571 10.9453 22.5831 11.0034 22.5831 11.0456ZM24.4474 10.8322C24.301 10.3363 23.7453 9.94095 23.1774 9.88256C22.5373 9.83507 21.9165 10.1385 21.6237 10.64C21.5514 10.7741 21.5055 10.9135 21.4687 11.0599C21.4052 11.0456 21.3329 11.0705 21.2871 11.0456V9.76774L21.3133 9.74315H21.7701C21.9623 9.71857 22.1353 9.64453 22.2356 9.48025C22.3275 9.31598 22.3116 9.10784 22.1811 8.96843C21.9799 8.68961 21.5779 8.80415 21.2516 8.77957C20.9923 8.80415 20.7015 8.73906 20.4827 8.84662C20.3098 8.93658 20.1899 9.08493 20.1899 9.26653V11.0456C20.0983 11.0951 19.9712 11.0599 19.8533 11.0705C19.8251 10.7741 19.9502 10.4687 19.7331 10.2374C19.5868 10.0804 19.3859 10.0326 19.1953 10.0804C19.0294 10.1385 18.8657 10.2709 18.8285 10.4352C18.8109 11.1429 18.8109 11.8595 18.8196 12.5602C18.8285 12.7314 18.9025 12.8795 19.0489 12.989C19.1953 13.0879 19.4228 13.0879 19.5692 12.9963C19.9502 12.8144 19.8161 12.4191 19.8533 12.0729L19.8424 12.0589H20.1899V12.1224L20.2075 14.463C20.2075 14.6253 20.2251 14.7823 20.3629 14.8899C20.4917 15.0207 20.6925 15.0542 20.8741 15.0207C21.0753 14.9799 21.2588 14.8159 21.2871 14.6184V12.3291L21.2957 12.0413H21.4687C21.5145 12.0978 21.5145 12.1894 21.5514 12.2637C21.726 12.7507 22.3116 13.1357 22.8672 13.1603C23.2673 13.1287 23.7789 13.3013 24.0557 12.9963C24.1633 12.8655 24.2111 12.6677 24.1563 12.502C24.0823 12.3291 23.8987 12.2213 23.7065 12.1967H22.7843C22.7119 12.1559 22.6379 12.0908 22.6027 12.0324H23.3238C23.6802 11.9919 24.1175 12.1402 24.3379 11.8525C24.5019 11.5558 24.5759 11.1605 24.4474 10.8322ZM26.0505 7.02338C26.9462 8.53762 26.3715 10.5022 25.4015 11.8312C23.6749 14.7117 20.7736 17.5111 17.6504 19.3891L17.4671 19.3572C13.8374 17.1526 10.7105 13.9157 8.95044 10.5215C8.15868 8.93658 8.62441 6.96862 10.014 5.75778C11.3825 4.52068 13.6348 4.12871 15.4212 4.85398C16.2342 5.13113 16.9203 5.71727 17.504 6.37745L17.5551 6.35622C18.8109 4.74642 20.9571 4.17453 23.0257 4.64054C24.2728 4.95288 25.5337 5.91312 26.0505 7.02338Z" fill="#D61918"/>
</svg>
