<svg width="35" height="24" viewBox="0 0 35 24" fill="none" xmlns="http://www.w3.org/2000/svg">
<rect x="0.416667" y="0.416667" width="34.1667" height="23.1667" rx="2.2901" fill="white" stroke="#F6F7F8" stroke-width="0.833333"/>
<path d="M7 4.33432V19.6657C7 20.3996 7.60044 21 8.33432 21H17.4944C24.4196 21 27.4218 17.1238 27.4218 11.98C27.4218 6.86286 24.4196 3 17.4944 3H8.33432C7.60044 3 7 3.60044 7 4.33432Z" fill="white"/>
<path d="M13.1312 6.76266V18.0911H18.0615C22.5382 18.0911 24.4796 15.5625 24.4796 11.9865C24.4796 8.56399 22.5382 5.90869 18.0615 5.90869H13.9852C13.5115 5.90869 13.1312 6.29564 13.1312 6.76266Z" fill="#CC0066"/>
<path d="M17.4945 19.7793H9.52863C8.82144 19.7793 8.24768 19.2055 8.24768 18.4984V5.50873C8.24768 4.80154 8.82144 4.22778 9.52863 4.22778H17.4945C25.0535 4.22778 26.181 9.09139 26.181 11.9869C26.181 17.0106 23.092 19.7793 17.4945 19.7793ZM9.52863 4.65477C9.05495 4.65477 8.67466 5.03505 8.67466 5.50873V18.4984C8.67466 18.972 9.05495 19.3523 9.52863 19.3523H17.4945C22.8185 19.3523 25.754 16.737 25.754 11.9869C25.754 5.60881 20.5768 4.65477 17.4945 4.65477H9.52863Z" fill="black"/>
<path d="M14.8659 10.4591C15.0393 10.4591 15.1994 10.4858 15.3529 10.5391C15.5063 10.5925 15.6331 10.6792 15.7465 10.786C15.8533 10.8994 15.94 11.0395 16.0067 11.1996C16.0668 11.3664 16.1001 11.5599 16.1001 11.7867C16.1001 11.9869 16.0734 12.167 16.0267 12.3338C15.9734 12.5006 15.9 12.6474 15.7999 12.7674C15.6998 12.8875 15.5731 12.9809 15.4196 13.0543C15.2662 13.121 15.086 13.1611 14.8792 13.1611H13.7117V10.4524H14.8659V10.4591ZM14.8258 12.6674C14.9126 12.6674 14.9926 12.654 15.0794 12.6273C15.1594 12.6007 15.2328 12.5539 15.2928 12.4872C15.3529 12.4205 15.4063 12.3405 15.4463 12.2337C15.4863 12.127 15.5063 12.0069 15.5063 11.8534C15.5063 11.72 15.493 11.5932 15.4663 11.4865C15.4396 11.3797 15.3929 11.2797 15.3329 11.2063C15.2728 11.1329 15.1928 11.0662 15.0927 11.0262C14.9926 10.9861 14.8725 10.9661 14.7258 10.9661H14.2988V12.674H14.8258V12.6674Z" fill="white"/>
<path d="M18.5086 10.4591V10.9594H17.0808V11.5399H18.3951V12.0002H17.0808V12.6607H18.5419V13.1611H16.4871V10.4524H18.5086V10.4591Z" fill="white"/>
<path d="M20.5502 10.459L21.5642 13.1677H20.9438L20.737 12.5672H19.7229L19.5094 13.1677H18.9089L19.9297 10.459H20.5502ZM20.5835 12.1202L20.2433 11.1261H20.2366L19.883 12.1202H20.5835Z" fill="white"/>
<path d="M22.5315 10.459V12.6673H23.8525V13.1677H21.9377V10.459H22.5315Z" fill="white"/>
<path d="M10.9029 13.0609C11.5919 13.0609 12.1505 12.5023 12.1505 11.8133C12.1505 11.1242 11.5919 10.5657 10.9029 10.5657C10.2138 10.5657 9.65527 11.1242 9.65527 11.8133C9.65527 12.5023 10.2138 13.0609 10.9029 13.0609Z" fill="black"/>
<path d="M11.8435 18.0911C10.7961 18.0911 9.95544 17.2438 9.95544 16.203V14.7286C9.95544 14.2082 10.3758 13.7812 10.9028 13.7812C11.4232 13.7812 11.8502 14.2016 11.8502 14.7286V18.0911H11.8435Z" fill="black"/>
</svg>
