<svg width="35" height="24" viewBox="0 0 35 24" fill="none" xmlns="http://www.w3.org/2000/svg">
<rect x="0.416667" y="0.416667" width="34.1667" height="23.1667" rx="2.2901" fill="white" stroke="#F6F7F8" stroke-width="0.833333"/>
<path fill-rule="evenodd" clip-rule="evenodd" d="M4.65654 8H30.3435C30.7047 8 31 8.30029 31 8.6674V10.7268H27.7854C27.6162 8.86202 19.151 8.46442 17.6879 8.45315C15.3295 8.43519 7.20711 8.99024 7.20711 10.6909V10.7268H4V8.6674C4 8.30029 4.29528 8 4.65654 8V8Z" fill="#FF0000"/>
<path fill-rule="evenodd" clip-rule="evenodd" d="M7.2046 13.7761H4V11.0071H7.20627C7.20377 11.8745 7.19207 12.9383 7.2046 13.7761V13.7761ZM31 11.0071V13.7761H27.7925C27.818 12.9103 27.7612 11.8804 27.7816 11.0071H31Z" fill="#0000FF"/>
<path fill-rule="evenodd" clip-rule="evenodd" d="M31 14.0557V16.1076C31 16.4743 30.7047 16.7745 30.3435 16.7745H4.65654C4.29528 16.7745 4 16.4743 4 16.1076V14.0557H7.22632C7.62225 15.7317 14.2758 16.3903 17.6044 16.4087C19.4796 16.4191 27.285 15.8227 27.7641 14.0557H31Z" fill="#F9CD09"/>
<path fill-rule="evenodd" clip-rule="evenodd" d="M17.6483 8.94275C19.4767 8.95945 27.3076 9.75549 27.2358 10.7432C27.1752 11.5727 27.298 13.181 27.2358 14.0105C27.1631 14.9715 19.4212 15.8122 17.5986 15.7967C15.6344 15.78 7.79139 15.1302 7.75923 13.9215C7.73709 13.0904 7.75923 11.6662 7.75923 10.8347C7.75923 9.60096 15.6536 8.92437 17.6483 8.94275V8.94275ZM17.6399 9.69952C15.7567 9.68532 8.30259 10.1397 8.30259 11.1007C8.30259 11.7489 8.28254 13.0282 8.30259 13.6755C8.33266 14.6419 15.7384 15.027 17.5931 15.04C19.3138 15.0517 26.6243 14.4937 26.6928 13.7448C26.7517 13.0987 26.6356 11.7005 26.6928 11.0539C26.7609 10.2842 19.3665 9.71289 17.6399 9.69952V9.69952Z" fill="#E6252D"/>
<path fill-rule="evenodd" clip-rule="evenodd" d="M14.5271 12.4769C14.6232 12.5204 14.6048 12.753 14.4862 12.9957C14.3676 13.2379 14.1926 13.3999 14.0961 13.3565C14 13.3135 14.0184 13.0804 14.137 12.8378C14.2556 12.5956 14.431 12.4335 14.5271 12.4769V12.4769ZM21.0432 12.4978C21.1393 12.5413 21.1213 12.7743 21.0023 13.0165C20.8837 13.2588 20.7083 13.4208 20.6122 13.3778C20.5157 13.3344 20.5341 13.1013 20.6531 12.8591C20.7717 12.6169 20.9467 12.4544 21.0432 12.4978ZM24.242 12.4297C24.2942 12.4694 24.247 12.6219 24.1359 12.7685C24.0252 12.9151 23.8916 13.0023 23.8394 12.9627C23.7867 12.923 23.8339 12.7705 23.945 12.624C24.0557 12.4774 24.1889 12.3901 24.242 12.4297V12.4297ZM24.3092 12.1157C23.9433 12.0881 23.6986 12.3416 23.5704 12.5922C23.4685 12.791 23.4384 13.0767 23.5111 13.3152C23.4054 13.4004 23.2739 13.4743 23.0646 13.5156C22.961 13.5365 22.9038 13.458 22.9047 13.3857C22.9072 13.1782 22.9297 13.004 22.9894 12.8094C23.0137 12.7288 23.0968 12.7563 23.1252 12.6883C23.1832 12.5471 23.1903 12.4105 23.0041 12.4327C22.8842 12.4473 22.7547 12.4652 22.7501 12.3032C22.7455 12.1453 22.9385 12.061 22.9101 12.0472C22.8032 11.9958 22.7134 12.0468 22.6019 12.0071C22.5705 11.9958 22.5964 11.9248 22.5647 11.9144C22.5221 11.9002 22.4473 11.9453 22.4227 11.9829C22.3688 12.0656 22.3734 12.1412 22.3333 12.2385C22.2999 12.3203 22.2966 12.4114 22.2778 12.4978C22.2197 12.6678 21.8514 13.1949 21.5807 13.3323C21.4287 13.4095 21.3331 13.3415 21.3803 13.1828C21.4429 12.9706 21.6517 12.4544 21.7875 12.0902C21.6546 12.0935 21.5369 12.104 21.4041 12.1069C21.3886 12.1533 21.3656 12.1846 21.3506 12.2309C21.0532 12.0405 20.8724 12.1136 20.6022 12.3078C20.4013 12.4523 20.225 12.6707 20.1302 12.9326C20.0927 13.0366 20.0722 13.1418 20.0693 13.2404C19.9051 13.3001 19.7418 13.3878 19.5952 13.3661C19.5597 13.3607 19.5351 13.306 19.5434 13.2709C19.5923 13.0591 19.6959 12.8637 19.7602 12.6557C19.8003 12.525 19.8801 12.3913 19.8554 12.2573C19.822 12.0764 19.5911 12.071 19.4653 12.1357C19.3588 12.1913 19.2774 12.2882 19.1709 12.3437C19.1496 12.355 19.1191 12.3425 19.1016 12.3266C19.0556 12.2852 19.0339 12.2213 18.9888 12.1792C18.9491 12.142 18.9036 12.1036 18.8502 12.0927C18.785 12.0793 18.7123 12.0844 18.6509 12.1098C18.5206 12.1641 18.4275 12.3124 18.2872 12.3266C18.2262 12.3329 18.2655 12.2005 18.2266 12.1533C18.1326 12.0397 18.0424 12.0793 17.9318 12.127C17.7046 12.2259 17.4803 12.3308 17.2543 12.4327C17.2769 12.4786 17.2957 12.5258 17.3111 12.5751C17.4009 12.5442 17.4941 12.5045 17.5851 12.4824C17.6273 12.4719 17.6787 12.4506 17.7154 12.4736C17.7484 12.4945 17.7618 12.5488 17.7497 12.5864C17.6265 12.9835 17.4611 13.3661 17.3166 13.7562C17.4669 13.7533 17.6168 13.7503 17.7672 13.7474C17.9029 13.3979 17.9977 13.0295 18.1744 12.6991C18.2061 12.6394 18.2989 12.6164 18.3649 12.6298C18.4104 12.639 18.4262 12.7054 18.4342 12.7509C18.4446 12.8081 18.4359 12.8691 18.4171 12.9242C18.3227 13.2032 18.2032 13.473 18.0963 13.7474C18.2613 13.7445 18.4342 13.7591 18.5987 13.7562C18.7579 13.392 18.8201 13.019 19.0147 12.6732C19.0389 12.6298 19.1667 12.616 19.2139 12.6298C19.2457 12.639 19.2816 12.6753 19.2749 12.7079C19.2327 12.9025 19.125 13.0779 19.0757 13.2709C19.0523 13.3607 19.0331 13.4592 19.0581 13.5482C19.0794 13.6234 19.1358 13.6952 19.2056 13.7299C19.2649 13.76 19.3434 13.747 19.4048 13.7215C19.6378 13.6246 19.8542 13.4918 20.0772 13.3732C20.1165 13.6238 20.2965 13.7959 20.6394 13.7194C20.7592 13.6927 20.8248 13.6146 20.9355 13.562C20.9918 13.7416 21.1159 13.8151 21.3151 13.7332C21.8071 13.5311 22.0957 13.1798 22.4595 12.6532C22.5183 12.6661 22.634 12.6331 22.6925 12.634C22.6299 12.8236 22.2419 13.5002 22.6474 13.704C22.7606 13.7608 22.8474 13.742 22.9723 13.7194C23.2526 13.6685 23.4255 13.5495 23.56 13.4379C23.6284 13.5724 23.7379 13.6793 23.8966 13.7278C24.2194 13.8268 24.5882 13.656 24.8187 13.5545C24.9415 13.7662 25.2585 13.8055 25.4435 13.7382C25.639 13.6668 25.8152 13.5424 25.9714 13.405C26.0036 13.3761 26.0003 13.3035 25.9677 13.2751C25.9376 13.2483 25.8867 13.2959 25.8541 13.3202C25.7192 13.4208 25.449 13.6748 25.2969 13.4613C25.2289 13.3657 25.2744 13.2045 25.3416 13.0216C25.4076 12.8432 25.4707 12.6123 25.5354 12.4335C25.6273 12.426 25.7309 12.4356 25.8228 12.4281C25.8624 12.3166 25.8796 12.2272 25.9192 12.1157C25.857 12.1107 25.7722 12.1169 25.71 12.1119C25.7672 11.8129 25.8908 11.5076 25.9957 11.2081C25.8545 11.2111 25.7363 11.2194 25.5947 11.2219C25.4957 11.513 25.4181 11.7987 25.2827 12.0898C25.1904 12.0927 25.0923 12.1011 25 12.1036C24.9758 12.2126 24.9511 12.3216 24.9265 12.4302C24.9975 12.4277 25.0965 12.4247 25.1671 12.4222C25.0773 12.7639 24.9799 13.0717 24.7799 13.3365C24.7089 13.4304 24.5857 13.4843 24.4704 13.5081C24.1167 13.5804 23.9805 13.4659 23.9246 13.3056C24.0737 13.1803 24.2219 13.1214 24.3564 12.9802C24.5732 12.7538 24.8392 12.1562 24.3092 12.1157V12.1157ZM12.0196 10.7859C11.4582 10.8506 10.6267 10.912 10.1514 11.2248C9.87202 11.409 9.62143 11.7623 9.87202 12.1219C10.1176 12.4732 10.5553 12.3245 10.7328 12.091C10.5298 12.0643 10.3682 12.0263 10.3552 11.881C10.2976 11.2207 10.9011 11.3572 11.48 11.1685C11.1793 11.8797 10.9086 13.1473 10.1431 13.3039C9.58593 13.4175 9.33033 13.1715 9.20045 12.8248C8.89181 13.4187 9.33326 13.6898 9.72919 13.7508C10.0955 13.8076 10.5645 13.5791 10.8234 13.3081C11.0063 13.1886 11.1893 13.0529 11.3559 12.8983C11.3994 12.8578 12.01 12.3905 11.9536 12.7772C11.9039 13.1176 11.7686 13.3661 11.6675 13.6956C11.8178 13.6981 11.9678 13.7011 12.1181 13.704C12.228 13.3778 12.3086 13.0403 12.4472 12.725C12.4715 12.6699 12.5353 12.6294 12.5947 12.621C12.6498 12.6131 12.7304 12.6298 12.7509 12.6816C12.7864 12.7735 12.7354 12.8896 12.7095 12.984C12.6673 13.1389 12.4339 13.6434 12.7375 13.6819C13.0357 13.7199 13.3706 13.5064 13.5473 13.3628C13.5719 13.5127 13.6513 13.6434 13.8092 13.7186C13.9178 13.7704 14.0531 13.737 14.17 13.7103C14.2652 13.6885 14.3438 13.6209 14.4302 13.5758C14.4148 13.7934 14.6223 13.7679 14.7614 13.7019C15.0759 13.5524 15.2513 13.4476 15.466 13.3761C15.4438 13.3377 15.4242 13.2972 15.4071 13.2559C15.2526 13.2951 15.1005 13.3699 14.9422 13.3578C14.8892 13.3536 14.875 13.2571 14.8917 13.2066C15.1135 12.5413 15.3954 11.8972 15.6472 11.2428C15.5157 11.2511 15.415 11.2511 15.2835 11.2595C15.1799 11.5393 15.0458 11.8275 14.9422 12.1073C14.4482 12.0167 13.9883 12.1549 13.6668 12.7701C13.5978 12.9017 13.5494 13.0554 13.5402 13.2032C13.4283 13.2767 13.3243 13.3519 13.1923 13.3849C13.1434 13.3974 13.1059 13.3206 13.1146 13.2709C13.143 13.1055 13.2007 12.9472 13.2562 12.7881C13.2942 12.6795 13.4354 12.3642 13.3832 12.2573C13.293 12.0718 13.161 12.0731 13.0269 12.1282C12.8548 12.1988 12.6794 12.3587 12.5859 12.3266C12.4485 12.279 12.4877 12.0668 12.281 12.091C12.2159 12.0986 12.1494 12.1249 12.0922 12.1533C11.7978 12.2982 11.518 12.5066 11.2365 12.6853C11.5067 12.1658 11.7631 11.4733 12.0196 10.7859V10.7859Z" fill="#0000FF"/>
<path d="M16.3445 11.8623H16.3449C16.6235 11.8623 16.8766 11.9759 17.0599 12.1593V12.1597C17.2428 12.3426 17.3564 12.5953 17.3564 12.8738V12.8743C17.3564 13.1532 17.2428 13.4063 17.0595 13.5893C16.8761 13.7726 16.6235 13.8862 16.3449 13.8862H16.3445C16.0659 13.8862 15.8128 13.7726 15.6295 13.5893C15.4461 13.4059 15.3325 13.1532 15.3325 12.8747V12.8738C15.3325 12.5953 15.4461 12.3422 15.6295 12.1593C15.8128 11.9759 16.0655 11.8623 16.3441 11.8623H16.3445V11.8623ZM16.3449 11.9855H16.3441C16.0997 11.9855 15.8775 12.0853 15.7168 12.2465C15.556 12.4073 15.4557 12.6295 15.4557 12.8738V12.8747C15.4561 13.119 15.556 13.3412 15.7168 13.502C15.8775 13.6628 16.0997 13.763 16.3445 13.763H16.3449C16.5896 13.7626 16.8114 13.6632 16.9722 13.502C17.1334 13.3412 17.2332 13.119 17.2332 12.8743V12.8738C17.2332 12.6295 17.1334 12.4073 16.9726 12.2465H16.9722C16.8114 12.0853 16.5892 11.9855 16.3449 11.9855V11.9855Z" fill="#FF0000"/>
<path fill-rule="evenodd" clip-rule="evenodd" d="M16.3443 12.1086C16.7669 12.1086 17.1098 12.4515 17.1098 12.8742C17.1098 13.2968 16.7669 13.6397 16.3443 13.6397C15.9216 13.6397 15.5787 13.2968 15.5787 12.8742C15.5787 12.4515 15.9216 12.1086 16.3443 12.1086V12.1086ZM16.3443 12.2661C16.6801 12.2661 16.9524 12.5384 16.9524 12.8742C16.9524 13.21 16.6801 13.4823 16.3443 13.4823C16.0085 13.4823 15.7366 13.21 15.7366 12.8742C15.7366 12.5384 16.0085 12.2661 16.3443 12.2661V12.2661Z" fill="#FF0000"/>
<path fill-rule="evenodd" clip-rule="evenodd" d="M16.3444 12.4153C16.5979 12.4153 16.8034 12.6208 16.8034 12.8743C16.8034 13.1278 16.5979 13.3333 16.3444 13.3333C16.0909 13.3333 15.8854 13.1278 15.8854 12.8743C15.8854 12.6208 16.0909 12.4153 16.3444 12.4153V12.4153Z" fill="#FF0000"/>
</svg>
