<svg width="35" height="24" viewBox="0 0 35 24" fill="none" xmlns="http://www.w3.org/2000/svg">
<rect x="0.5" y="0.5" width="34" height="23" rx="2.75" fill="white"/>
<path d="M22.6289 12.3239C23.1911 12.3364 23.7566 12.2983 24.3166 12.3437C24.8837 12.4526 25.0204 13.3364 24.5166 13.6259C24.1728 13.8166 23.7644 13.6969 23.3917 13.7305H22.6289V12.3239ZM24.6417 10.7317C24.7666 11.1856 24.3416 11.5931 23.9169 11.5306H22.6289C22.6379 11.1026 22.6112 10.638 22.642 10.2325C23.1579 10.2475 23.6787 10.202 24.1917 10.2563C24.4121 10.3133 24.5966 10.4998 24.6417 10.7317ZM27.7415 4.00052C27.7655 4.86735 27.745 5.78 27.7519 6.66442C27.7503 10.2601 27.7552 13.8557 27.7491 17.4517C27.7265 18.7992 26.5664 19.9702 25.2664 19.9971C23.9651 20.0025 22.6636 19.9979 21.3621 19.9994V14.5634C22.7801 14.5559 24.1989 14.5787 25.6163 14.552C26.2738 14.5095 26.9941 14.0629 27.0247 13.318C27.1021 12.5699 26.4169 12.0525 25.7664 11.9708C25.5164 11.9641 25.5237 11.8957 25.7664 11.8659C26.3869 11.7279 26.8741 11.0668 26.6915 10.4048C26.536 9.70851 25.7884 9.43901 25.1665 9.44035C23.8986 9.43149 22.6304 9.43911 21.3624 9.43654C21.3706 8.42171 21.3454 7.40579 21.3761 6.3917C21.4765 5.06845 22.6659 3.97719 23.9476 4.00087C25.2124 4.00067 26.477 4.00067 27.7415 4.00062V4.00052Z" fill="url(#paint0_linear_2804_18387)"/>
<path d="M7.03373 6.52876C7.06611 5.18331 8.23122 4.02197 9.52956 4.00231C10.826 3.99819 12.1227 4.00171 13.4192 4.00052C13.4156 8.5021 13.4262 13.0042 13.4138 17.5055C13.3639 18.8346 12.2115 19.9738 10.9273 19.9973C9.62834 20.0022 8.32928 19.998 7.03031 19.9994V14.3801C8.29204 14.687 9.61516 14.8176 10.9023 14.6141C11.6718 14.4866 12.5136 14.0977 12.7741 13.2759C12.9658 12.5731 12.8578 11.8333 12.8864 11.1119V9.43654H10.6588C10.6488 10.5446 10.6793 11.6546 10.6427 12.7613C10.5826 13.4415 9.9282 13.8737 9.30496 13.8506C8.53204 13.8591 7.00038 13.274 7.00038 13.274C6.99653 11.198 7.0228 8.59809 7.03373 6.52895V6.52876Z" fill="url(#paint1_linear_2804_18387)"/>
<path d="M14.2499 10.1123C14.1326 10.1379 14.2263 9.70116 14.1963 9.53548C14.2043 8.48791 14.1796 7.4392 14.2099 6.39237C14.3101 5.06352 15.5086 3.96954 16.7955 4.00065H20.5855C20.5819 8.50222 20.5924 13.0043 20.5801 17.5056C20.5301 18.8347 19.3776 19.9739 18.0934 19.9975C16.7944 20.0025 15.4953 19.9982 14.1963 19.9995V13.8429C15.0835 14.5922 16.2893 14.7089 17.3946 14.7109C18.2278 14.7106 19.0562 14.5784 19.8654 14.3806V13.2526C18.9535 13.7205 17.8815 14.0177 16.8706 13.7489C16.1654 13.5682 15.6535 12.8667 15.6649 12.1175C15.5832 11.3384 16.0269 10.5159 16.7706 10.2843C17.6939 9.98675 18.7003 10.2143 19.5659 10.6012C19.7513 10.7012 19.9395 10.8252 19.8654 10.5061V9.61953C18.4178 9.26499 16.8772 9.13453 15.4229 9.52022C15.002 9.64247 14.5918 9.82786 14.2499 10.1124V10.1123Z" fill="url(#paint2_linear_2804_18387)"/>
<rect x="0.5" y="0.5" width="34" height="23" rx="2.75" stroke="#F6F7F8"/>
<defs>
<linearGradient id="paint0_linear_2804_18387" x1="21.3185" y1="11.6579" x2="27.7116" y2="11.6579" gradientUnits="userSpaceOnUse">
<stop stop-color="#007B40"/>
<stop offset="1" stop-color="#55B330"/>
</linearGradient>
<linearGradient id="paint1_linear_2804_18387" x1="6.89438" y1="12.1531" x2="13.3144" y2="12.1531" gradientUnits="userSpaceOnUse">
<stop stop-color="#1D2970"/>
<stop offset="1" stop-color="#006DBA"/>
</linearGradient>
<linearGradient id="paint2_linear_2804_18387" x1="14.1869" y1="11.813" x2="20.5843" y2="11.813" gradientUnits="userSpaceOnUse">
<stop stop-color="#6E2B2F"/>
<stop offset="1" stop-color="#E30138"/>
</linearGradient>
</defs>
</svg>
