<svg width="35" height="24" viewBox="0 0 35 24" fill="none" xmlns="http://www.w3.org/2000/svg">
<path d="M0 3.25C0 1.45508 1.45507 0 3.25 0H31.75C33.5449 0 35 1.45507 35 3.25V20.75C35 22.5449 33.5449 24 31.75 24H3.25C1.45507 24 0 22.5449 0 20.75V3.25Z" fill="#009BD2"/>
<path fill-rule="evenodd" clip-rule="evenodd" d="M7.32505 17.8596C7.32505 18.5443 6.90129 18.9287 6 18.9576V20C7.02434 20 8.32092 19.4307 8.32092 17.8596V12.7498H7.32505V17.8587V17.8596Z" fill="white"/>
<path fill-rule="evenodd" clip-rule="evenodd" d="M13.2139 14.9508C13.2139 15.6066 12.9229 15.8591 12.3 15.8591H10.201C10.2873 16.4165 10.6426 16.9582 11.417 16.9582C11.8666 16.9409 12.3015 16.7932 12.6687 16.5332L13.1769 17.3439C12.6742 17.7379 12.0557 17.9552 11.417 17.9622C9.67436 17.9622 9.14795 16.6584 9.14795 15.3078C9.14795 13.9572 9.6648 12.6543 11.1809 12.6543C12.7818 12.6543 13.2139 14.1409 13.2139 14.9508ZM10.1925 14.8564H12.1676C12.1039 14.2174 11.8384 13.6589 11.1809 13.6589C10.5234 13.6589 10.2577 14.2174 10.1923 14.8564H10.1925Z" fill="white"/>
<path fill-rule="evenodd" clip-rule="evenodd" d="M15.9274 12.6553C14.6844 12.6553 14.0435 13.7066 14.0435 13.7066V17.9034H15.0423V14.0447C15.1544 13.9219 15.2911 13.8241 15.4436 13.7577C15.596 13.6912 15.7607 13.6576 15.927 13.659C16.0574 13.6596 16.1864 13.6861 16.3065 13.737C16.4266 13.7879 16.5353 13.8621 16.6264 13.9555C16.7175 14.0488 16.7891 14.1593 16.8371 14.2806C16.8851 14.4019 16.9085 14.5315 16.9059 14.6619V17.9034H17.9047V14.6625C17.9047 13.6877 17.2372 12.6561 15.9283 12.6561" fill="white"/>
<path fill-rule="evenodd" clip-rule="evenodd" d="M19.0122 17.9031H20.011V12.7136H19.0122V17.9031Z" fill="white"/>
<path fill-rule="evenodd" clip-rule="evenodd" d="M27.5579 14.7579H27.567C27.227 14.6614 26.7849 14.4887 26.7849 14.1319C26.7849 13.8724 27.0502 13.6588 27.5485 13.6588C27.9938 13.6844 28.4295 13.7986 28.83 13.9948L29.1505 13.0786C28.6533 12.8237 28.1069 12.6793 27.5487 12.6553C26.6833 12.6553 25.7782 13.1084 25.7782 14.1321C25.7782 15.0771 26.5883 15.5491 27.3898 15.7538C27.8207 15.8492 28.3673 16.0341 28.3673 16.3977C28.3673 16.7854 27.9232 16.9571 27.4926 16.9571C27.0676 16.9571 26.4872 16.6778 26.0439 16.4364L25.6545 17.3927C26.2139 17.7243 26.8436 17.9193 27.4924 17.9621C28.4028 17.9621 29.3649 17.5169 29.3649 16.3979C29.3649 15.3198 28.3114 14.9509 27.5585 14.7581" fill="white"/>
<path fill-rule="evenodd" clip-rule="evenodd" d="M24.0079 15.9554C24.0118 16.0857 23.9895 16.2154 23.9423 16.3368C23.8951 16.4583 23.824 16.5691 23.7332 16.6626C23.6424 16.7561 23.5338 16.8304 23.4138 16.8812C23.2937 16.932 23.1647 16.9581 23.0344 16.9581C22.9041 16.9581 22.7751 16.932 22.655 16.8812C22.535 16.8304 22.4264 16.7561 22.3356 16.6626C22.2448 16.5691 22.1737 16.4583 22.1265 16.3368C22.0793 16.2154 22.057 16.0857 22.0609 15.9554V12.7136H21.062V15.9554C21.062 16.9264 21.7272 17.9569 23.0265 17.9618H23.0382C24.3395 17.9567 25.0027 16.9262 25.0027 15.9554V12.7136H24.0079V15.9554Z" fill="white"/>
<path fill-rule="evenodd" clip-rule="evenodd" d="M22.2539 7.62192C22.2539 9.56641 20.7218 11.055 18.9801 11.055C18.7729 11.0551 18.5661 11.0384 18.3617 11.0051C18.0821 11.0905 17.7925 11.1384 17.5004 11.1476C15.6564 11.1475 14.127 10.0152 14.127 8.12038C14.1424 7.51859 14.3265 6.93321 14.6583 6.43092C14.9901 5.92863 15.4563 5.5296 16.0037 5.27928C16.6905 4.37411 17.8531 4 18.6697 4C20.7414 4 22.2539 5.61544 22.2539 7.62192ZM18.9316 4.3563C18.266 4.36316 17.6218 4.59193 17.101 5.00636C17.1389 5.00529 17.2039 5.00333 17.2415 5.00333C17.7035 4.99442 18.1587 5.11547 18.5552 5.35268C18.5552 5.35268 20.5426 6.12228 20.5426 8.26985C20.5392 8.74535 20.4149 9.21217 20.1814 9.62639C19.9479 10.0406 19.6128 10.3886 19.2077 10.6376C20.5244 10.3736 21.6601 9.06065 21.6601 7.36593C21.6601 5.91099 20.4868 4.3563 18.9316 4.3563ZM17.4227 5.45208C16.5911 5.45208 15.9492 6.20957 15.9492 7.12044C15.9492 8.2262 16.6584 9.004 17.454 9.004C18.3409 9.004 18.977 8.26985 18.977 7.17317C18.9777 6.36082 18.2988 5.45208 17.4227 5.45208ZM17.3053 10.8061C17.4042 10.8063 17.5031 10.7999 17.6012 10.7869C16.2556 10.2314 15.3957 8.8597 15.3957 7.20452C15.3957 7.08178 15.4036 6.96492 15.415 6.84823C15.4356 6.57203 15.5019 6.30115 15.6109 6.04656C15.0489 6.55126 14.8271 7.29752 14.8271 8.04592C14.8287 9.57745 16.0999 10.8061 17.306 10.8061H17.3053ZM18.2076 10.6326C19.2293 10.2355 20.0128 9.20744 20.0128 8.10417C20.0303 7.40827 19.7798 6.73223 19.313 6.2158C19.4525 6.53086 19.5218 6.87249 19.5161 7.21699C19.5202 7.62459 19.4021 8.02408 19.1772 8.364C18.9522 8.70391 18.6306 8.9687 18.2539 9.12426C17.8771 9.27982 17.4624 9.31902 17.0631 9.23681C16.6639 9.15461 16.2984 8.95477 16.0137 8.66302C16.3716 9.61825 17.1991 10.4244 18.2083 10.6326H18.2076Z" fill="white"/>
</svg>
