<svg width="35" height="24" viewBox="0 0 35 24" fill="none" xmlns="http://www.w3.org/2000/svg">
<rect width="35" height="24" rx="3.24812" fill="#FAE100"/>
<path fill-rule="evenodd" clip-rule="evenodd" d="M8.2016 7.76456C5.8805 7.76456 4 9.2541 4 11.0932C4 12.1956 4.67871 13.172 5.72208 13.7772L5.22711 15.6305C5.18024 15.8081 5.37804 15.949 5.5299 15.8466L7.6757 14.3937C7.84913 14.4106 8.02349 14.421 8.2016 14.421C10.5227 14.421 12.4041 12.9305 12.4041 11.0932C12.4041 9.2541 10.5227 7.76456 8.2016 7.76456Z" fill="#1E1E1E"/>
<path fill-rule="evenodd" clip-rule="evenodd" d="M16.3663 9.65659V12.9261C16.446 12.9364 16.6457 12.9561 16.835 12.9561C17.8718 12.9561 18.2712 12.2259 18.2712 11.0766C18.2712 10.0663 18.0021 9.45642 17.1744 9.45642C16.9053 9.45642 16.6054 9.53724 16.3663 9.65659ZM16.3663 13.9457V15.9963H14.9105V8.43677H15.937L16.1169 8.91699C16.4263 8.60687 16.895 8.27701 17.6534 8.27701C19.0793 8.27701 19.758 9.34647 19.7476 11.0766C19.7476 12.8866 18.7005 14.0463 17.2044 14.0463C16.9147 14.0463 16.6953 14.0256 16.3663 13.9457Z" fill="#1E1E1E"/>
<path fill-rule="evenodd" clip-rule="evenodd" d="M23.6612 12.4961V11.4962H22.9928C22.2447 11.4962 21.866 11.7668 21.866 12.3063C21.866 12.716 22.076 12.9162 22.5044 12.9162C22.9028 12.9162 23.4119 12.716 23.6612 12.4961ZM22.8335 10.5667H23.6612V10.3863C23.6612 9.78674 23.3219 9.50668 22.7341 9.50668C22.2851 9.50668 21.7067 9.63637 21.2379 9.86662L20.8386 8.88643C21.357 8.5265 22.1557 8.27652 22.8635 8.27652C24.2602 8.27652 25.0177 9.01612 25.0177 10.4267V13.8964H23.9903L23.8403 13.4359C23.2525 13.8663 22.7135 14.0458 22.2251 14.0458C21.1583 14.0458 20.5592 13.4058 20.5592 12.326C20.5592 11.1767 21.357 10.5667 22.8335 10.5667Z" fill="#1E1E1E"/>
<path fill-rule="evenodd" clip-rule="evenodd" d="M29.2948 13.3362C28.7858 14.6961 28.1774 15.6857 27.2896 16.2354L26.3925 15.4056C26.9109 14.9564 27.2802 14.5157 27.599 13.9255L25.6641 8.63644L27.1106 8.24644L28.347 12.5365L29.5742 8.2267L31 8.62704L29.2948 13.3362Z" fill="#1E1E1E"/>
</svg>
