<svg width="35" height="24" viewBox="0 0 35 24" fill="none" xmlns="http://www.w3.org/2000/svg">
<rect x="0.5" y="0.5" width="34" height="23" rx="2.75" fill="#FFB3C7"/>
<g clip-path="url(#clip0_4642_21494)">
<path d="M30.8916 5H4.10844C1.83941 5 0 6.83941 0 9.10844V15.0489C0 17.3179 1.83941 19.1573 4.10844 19.1573H30.8916C33.1606 19.1573 35 17.3179 35 15.0489V9.10844C35 6.83941 33.1606 5 30.8916 5Z" fill="#FFB3C7"/>
<path d="M28.0271 11.2033C27.7013 10.9813 27.3211 10.8523 26.9275 10.8303C26.5338 10.8083 26.1416 10.894 25.7931 11.0783C25.4445 11.2625 25.1528 11.5384 24.9494 11.8761C24.7459 12.2138 24.6384 12.6006 24.6384 12.9948C24.6384 13.3891 24.7459 13.7758 24.9494 14.1135C25.1528 14.4512 25.4445 14.7271 25.7931 14.9113C26.1416 15.0956 26.5338 15.1813 26.9275 15.1593C27.3211 15.1373 27.7013 15.0083 28.0271 14.7863V15.0488H29.2571V10.9405H28.0271V11.2033ZM26.9083 14.0519C26.7017 14.0409 26.5028 13.9695 26.3362 13.8467C26.1697 13.7238 26.0428 13.5548 25.9713 13.3606C25.8997 13.1664 25.8867 12.9555 25.9338 12.754C25.9809 12.5525 26.086 12.3692 26.2362 12.2267C26.3864 12.0843 26.575 11.9891 26.7788 11.9528C26.9825 11.9164 27.1924 11.9407 27.3826 12.0224C27.5727 12.1041 27.7347 12.2398 27.8485 12.4126C27.9624 12.5855 28.023 12.7879 28.023 12.9949C28.0152 13.2828 27.8934 13.5558 27.6844 13.754C27.4754 13.9522 27.1963 14.0593 26.9083 14.0519Z" fill="black"/>
<path d="M11.1581 9.10962H9.87085V15.0489H11.1581V9.10962Z" fill="black"/>
<path d="M22.4539 10.83C22.2121 10.8157 21.9704 10.8604 21.7496 10.9603C21.5289 11.0602 21.3358 11.2123 21.1869 11.4034V10.9407H19.9619V15.0489H21.2017V12.8899C21.1921 12.7659 21.2094 12.6413 21.2524 12.5245C21.2953 12.4078 21.3629 12.3017 21.4505 12.2134C21.5381 12.1251 21.6437 12.0567 21.7601 12.0128C21.8765 11.969 22.001 11.9507 22.1251 11.9592C22.6657 11.9592 22.9764 12.2822 22.9764 12.8814V15.0489H24.2052V12.4363C24.2051 11.4802 23.4449 10.83 22.4539 10.83Z" fill="black"/>
<path d="M15.05 11.2033C14.7242 10.9813 14.344 10.8523 13.9504 10.8303C13.5568 10.8083 13.1646 10.894 12.816 11.0783C12.4675 11.2625 12.1758 11.5384 11.9723 11.8761C11.7689 12.2138 11.6614 12.6006 11.6614 12.9948C11.6614 13.3891 11.7689 13.7758 11.9723 14.1135C12.1758 14.4512 12.4675 14.7271 12.816 14.9113C13.1646 15.0956 13.5568 15.1813 13.9504 15.1593C14.344 15.1373 14.7242 15.0083 15.05 14.7863V15.0488H16.2801V10.9405H15.05V11.2033ZM13.9312 14.0519C13.7246 14.0409 13.5256 13.9696 13.3591 13.8467C13.1925 13.7239 13.0656 13.5549 12.9941 13.3607C12.9225 13.1665 12.9095 12.9556 12.9566 12.7541C13.0036 12.5525 13.1088 12.3692 13.2589 12.2268C13.4091 12.0844 13.5977 11.9891 13.8015 11.9528C14.0052 11.9164 14.2152 11.9406 14.4053 12.0224C14.5955 12.1041 14.7575 12.2398 14.8713 12.4126C14.9852 12.5855 15.0458 12.7879 15.0458 12.9949C15.038 13.2828 14.9162 13.5558 14.7072 13.7539C14.4982 13.9521 14.2192 14.0593 13.9312 14.0519Z" fill="black"/>
<path d="M18.183 11.4756V10.9405H16.9236V15.0489H18.1857V13.1309C18.1857 12.4837 18.8872 12.1358 19.3739 12.1358C19.3788 12.1358 19.3836 12.1363 19.3885 12.1364V10.9407C19.1604 10.9346 18.9339 10.9795 18.7253 11.072C18.5168 11.1645 18.3315 11.3024 18.183 11.4756Z" fill="black"/>
<path d="M30.563 13.5916C30.4103 13.5916 30.2611 13.6368 30.1341 13.7217C30.0072 13.8065 29.9082 13.9271 29.8498 14.0682C29.7913 14.2093 29.7761 14.3645 29.8059 14.5143C29.8356 14.664 29.9092 14.8016 30.0172 14.9096C30.1251 15.0175 30.2627 15.0911 30.4125 15.1209C30.5622 15.1506 30.7175 15.1353 30.8585 15.0769C30.9996 15.0185 31.1202 14.9195 31.205 14.7926C31.2899 14.6656 31.3351 14.5163 31.3351 14.3636C31.3352 14.2622 31.3152 14.1618 31.2764 14.0681C31.2376 13.9745 31.1807 13.8893 31.109 13.8177C31.0373 13.746 30.9522 13.6891 30.8585 13.6503C30.7648 13.6115 30.6644 13.5915 30.563 13.5916Z" fill="black"/>
<path d="M8.98371 9.1084H7.64962C7.65168 9.64341 7.52791 10.1714 7.28829 10.6498C7.04867 11.1281 6.69992 11.5434 6.2702 11.8621L5.7417 12.258L7.78965 15.0507H9.47336L7.58907 12.481C8.03346 12.0393 8.3856 11.5137 8.62502 10.9347C8.86445 10.3557 8.98638 9.73493 8.98371 9.1084Z" fill="black"/>
<path d="M5.57866 9.1084H4.24219V15.0505H5.57866V9.1084Z" fill="black"/>
</g>
<rect x="0.5" y="0.5" width="34" height="23" rx="2.75" stroke="#FFB3C7"/>
<defs>
<clipPath id="clip0_4642_21494">
<rect width="35" height="14.1573" fill="white" transform="translate(0 5)"/>
</clipPath>
</defs>
</svg>
