<svg width="30" height="20" viewBox="0 0 30 20" fill="none" xmlns="http://www.w3.org/2000/svg">
<rect width="30" height="20" rx="3" fill="#545B63" />
<g id="konbini" transform="translate(7,2)">
<path id="Glyph" fill-rule="evenodd" clip-rule="evenodd" d="M0 3C0 1.89543 0.89543 1 2 1H14C15.1046 1 16 1.89543 16 3V4.5C15.928 5.32155 15.5601 6.05773 15 6.59521V14C15 14.5523 14.5523 15 14 15H2C1.44772 15 1 14.5523 1 14V6.59521C0.439915 6.05773 0.0719692 5.32155 0.00947241 4.5L0 3ZM2 3V4.25C2 4.94036 2.55964 5.5 3.25 5.5C3.94036 5.5 4.5 4.94036 4.5 4.25V3H2ZM6.5 3V4.59424C6.58091 5.04406 7.16733 5.5 8 5.5C8.89098 5.5 9.5 4.97798 9.5 4.5C9.5032 4.41749 9.5 4.33412 9.5 4.25V3H6.5ZM11.5 3V4.25C11.5 4.94036 12.0596 5.5 12.75 5.5C13.4404 5.5 14 4.94036 14 4.25V3H11.5ZM5.49763 6.59749C4.91391 7.15653 4.12206 7.5 3.25 7.5C3.16588 7.5 3.08251 7.4968 3 7.49053V13H5V10C5 9.44771 5.44772 9 6 9H10C10.5523 9 11 9.44771 11 10V13H13V7.49053C12.9175 7.4968 12.8341 7.5 12.75 7.5C11.8779 7.5 11.0861 7.15653 10.5024 6.59749C9.86695 7.15437 8.98056 7.5 8 7.5C7.01944 7.5 6.13305 7.15437 5.49763 6.59749ZM7 11V13H9V11H7Z" fill="white"/>
</g>
</svg>
