<svg width="35" height="24" viewBox="0 0 35 24" fill="none" xmlns="http://www.w3.org/2000/svg">
<g clip-path="url(#clip0_5231_22594)">
<path d="M0.5 3.24812C0.5 1.73038 1.73038 0.5 3.24812 0.5H26.7519C28.2696 0.5 29.5 1.73038 29.5 3.24812V17.3233C29.5 18.841 28.2696 20.0714 26.7519 20.0714H3.24812C1.73037 20.0714 0.5 18.8411 0.5 17.3233V3.24812Z" stroke="#6C747F"/>
<rect y="4.28516" width="30" height="4.28571" fill="#6C747F"/>
<rect x="4.28564" y="12" width="4.28571" height="4.28571" rx="1" fill="#6C747F"/>
<rect x="17" y="11" width="16.8" height="12" rx="2" fill="white"/>
<rect x="17.25" y="11.25" width="16.3" height="11.5" rx="1.75" fill="white" stroke="#F5F5F5" stroke-width="0.5"/>
<mask id="mask0_5231_22594" style="mask-type:luminance" maskUnits="userSpaceOnUse" x="17" y="11" width="17" height="12">
<rect x="17.25" y="11.25" width="16.3" height="11.5" rx="1.75" fill="white" stroke="white" stroke-width="0.5"/>
</mask>
<g mask="url(#mask0_5231_22594)">
<ellipse cx="25.4001" cy="16.9992" rx="2.8" ry="2.8" fill="#E01B41"/>
<mask id="mask1_5231_22594" style="mask-type:luminance" maskUnits="userSpaceOnUse" x="22" y="14" width="7" height="6">
<ellipse cx="25.4001" cy="16.9992" rx="2.8" ry="2.8" fill="white"/>
</mask>
<g mask="url(#mask1_5231_22594)">
<path fill-rule="evenodd" clip-rule="evenodd" d="M22.6002 17.4C23.4002 18.15 24.6002 18.6 25.4002 17.4C26.2002 16.2 27.8002 16.2 28.2002 17.4C28.6002 18.6 28.2002 19.8 28.2002 19.8H22.6002C22.6002 19.8 21.8002 16.65 22.6002 17.4Z" fill="#0E4B9C"/>
</g>
<path opacity="0.75" fill-rule="evenodd" clip-rule="evenodd" d="M20.637 13.2488C20.729 13.0893 20.9329 13.0347 21.0923 13.1267L21.2078 13.1934C21.3672 13.2855 21.4218 13.4893 21.3298 13.6488L20.4631 15.1499C20.3711 15.3093 20.1672 15.3639 20.0078 15.2719L19.8923 15.2052C19.7329 15.1132 19.6783 14.9093 19.7703 14.7499L20.637 13.2488ZM29.5918 13.1934C29.4324 13.2855 29.3777 13.4893 29.4698 13.6488L30.3364 15.1499C30.4285 15.3093 30.6324 15.3639 30.7918 15.2719L30.9073 15.2052C31.0667 15.1132 31.1213 14.9093 31.0293 14.7499L30.1626 13.2488C30.0706 13.0893 29.8667 13.0347 29.7073 13.1267L29.5918 13.1934ZM28.5526 13.7934C28.3931 13.8855 28.3385 14.0893 28.4306 14.2488L29.2972 15.7499C29.3893 15.9093 29.5931 15.9639 29.7526 15.8719L29.868 15.8052C30.0275 15.7132 30.0821 15.5093 29.99 15.3499L29.1234 13.8488C29.0313 13.6893 28.8275 13.6347 28.668 13.7267L28.5526 13.7934ZM19.7703 19.2488C19.6783 19.0893 19.7329 18.8855 19.8923 18.7934L20.0078 18.7267C20.1672 18.6347 20.3711 18.6893 20.4631 18.8488L21.3298 20.3499C21.4218 20.5093 21.3672 20.7132 21.2078 20.8052L21.0923 20.8719C20.9329 20.9639 20.729 20.9093 20.637 20.7499L19.7703 19.2488ZM20.9315 18.1934C20.7721 18.2855 20.7175 18.4893 20.8095 18.6488L21.6762 20.1499C21.7682 20.3093 21.9721 20.3639 22.1315 20.2719L22.247 20.2052C22.4064 20.1132 22.4611 19.9093 22.369 19.7499L21.5024 18.2488C21.4103 18.0893 21.2064 18.0347 21.047 18.1267L20.9315 18.1934ZM29.2972 18.2488C29.3893 18.0893 29.5931 18.0347 29.7526 18.1267L29.868 18.1934C30.0275 18.2855 30.0821 18.4893 29.99 18.6488L29.1234 20.1499C29.0313 20.3093 28.8275 20.3639 28.668 20.2719L28.5526 20.2052C28.3931 20.1132 28.3385 19.9093 28.4306 19.7499L29.2972 18.2488ZM30.7918 18.7267C30.6324 18.6347 30.4285 18.6893 30.3364 18.8488L29.4698 20.3499C29.3777 20.5093 29.4324 20.7132 29.5918 20.8052L29.7073 20.8719C29.8667 20.9639 30.0706 20.9093 30.1626 20.7499L31.0293 19.2488C31.1213 19.0893 31.0667 18.8855 30.9073 18.7934L30.7918 18.7267ZM22.1315 13.7267C21.9721 13.6347 21.7682 13.6893 21.6762 13.8488L20.8095 15.3499C20.7175 15.5093 20.7721 15.7132 20.9315 15.8052L21.047 15.8719C21.2064 15.9639 21.4103 15.9093 21.5024 15.7499L22.369 14.2488C22.4611 14.0893 22.4064 13.8855 22.247 13.7934L22.1315 13.7267Z" fill="#262626"/>
</g>
<rect x="17" y="11" width="16.8" height="12" rx="2" stroke="#6C747F" stroke-width="2"/>
</g>
<defs>
<clipPath id="clip0_5231_22594">
<rect width="35" height="24" fill="white"/>
</clipPath>
</defs>
</svg>
