<svg xmlns="http://www.w3.org/2000/svg" width="30" height="20" viewBox="0 0 30 20" fill="none">
  <rect width="30" height="20" rx="3" fill="#007BC2" />
  <g clip-path="url(#clip0_1870_1685)" transform="translate(2,8)">
    <path d="M15.0169 2.21311C15.5275 2.21311 16.6732 2.21311 16.7582 2.21311C16.9076 2.21311 16.9076 2.26063 16.9076 2.33877C16.9076 2.41691 16.9076 2.81923 16.9076 2.98132C16.9076 3.14394 16.8818 3.19832 16.6458 3.19832C16.4092 3.19832 15.1019 3.19832 15.0402 3.19832C14.9779 3.19832 14.8934 3.22314 14.8934 3.09854C14.8934 2.97288 14.8934 2.68724 14.8934 2.60171C14.8934 2.5167 14.8749 2.48608 14.7815 2.48608C14.6885 2.48608 14.4721 2.48608 14.4182 2.48608C14.3638 2.48608 14.31 2.48608 14.31 2.60171C14.31 2.71839 14.31 3.18248 14.31 3.47763C14.31 3.77171 14.433 3.95703 14.8126 3.95703C15.1917 3.95703 16.6019 3.95703 16.9113 3.95703C17.2213 3.95703 17.4963 3.79441 17.4963 3.40001C17.4963 3.00455 17.4963 2.40055 17.4963 2.1223C17.4963 1.843 17.2867 1.626 16.9076 1.626C16.528 1.626 15.1616 1.626 15.0676 1.626C14.9747 1.626 14.8934 1.61121 14.8934 1.47922C14.8934 1.34775 14.8934 0.960742 14.8934 0.889993C14.8934 0.820828 14.9309 0.767502 15.0476 0.767502C15.1637 0.767502 16.6167 0.767502 16.7793 0.767502C16.9425 0.767502 16.9076 0.804988 16.9076 0.921144C16.9076 1.0373 16.9076 1.16982 16.9076 1.26169C16.9076 1.35514 16.981 1.35514 17.0655 1.35514C17.151 1.35514 17.2989 1.35514 17.3907 1.35514C17.4847 1.35514 17.4963 1.30868 17.4963 1.23899C17.4963 1.16982 17.4963 0.714704 17.4963 0.714704C17.4963 0.196227 17.3142 0.00773787 16.8802 0.00773787C16.4462 0.00773787 15.5275 0.00773787 15.0476 0.00773787C14.5676 0.00773787 14.31 0.0161858 14.3047 0.714704C14.3047 1.07479 14.3047 1.15979 14.3047 1.17721V1.18091C14.3047 1.2015 14.3047 1.42484 14.3047 1.73371C14.3047 2.06053 14.5058 2.21311 15.0169 2.21311Z" fill="white"/>
    <path d="M18.7045 2.05261C18.7045 2.05261 18.7045 1.09907 18.7045 0.952823C18.7045 0.804988 18.7858 0.767502 18.8792 0.767502C18.9252 0.767502 20.451 0.767502 20.5672 0.767502C20.6839 0.767502 20.7176 0.797597 20.7176 0.889993C20.7176 0.982918 20.7176 2.93486 20.7176 3.06738C20.7176 3.19832 20.6448 3.19832 20.5672 3.19832C20.4906 3.19832 18.9869 3.19832 18.8713 3.19832C18.7546 3.19832 18.7045 3.17509 18.7045 3.05999C18.7045 2.94278 18.7045 2.05261 18.7045 2.05261ZM18.7113 3.95703C19.1522 3.95703 20.224 3.95703 20.6575 3.95703C21.0909 3.95703 21.3069 3.81236 21.3069 3.30075C21.3069 2.78914 21.3069 1.18725 21.3069 0.714704C21.3069 0.240049 21.1089 0.00773787 20.6807 0.00773787C20.2773 0.00773787 19.158 0.00773787 18.7546 0.00773787C18.3523 0.00773787 18.1152 0.172468 18.1152 0.714704C18.1152 1.25694 18.1152 2.19991 18.1152 2.19991C18.1152 2.19991 18.1152 3.05313 18.1152 3.38576C18.1152 3.71891 18.2699 3.95703 18.7113 3.95703Z" fill="white"/>
    <path d="M0.0925673 0.767502H0.615796V3.19832H0.107879C0.0587765 3.19832 0.019706 3.23792 0.019706 3.2865V3.86991C0.019706 3.91902 0.0587765 3.95703 0.107879 3.95703H3.18442C3.233 3.95703 3.27207 3.91902 3.27207 3.86991V2.53518C3.27207 2.48661 3.23352 2.44701 3.18495 2.44701H2.76837C2.7198 2.44701 2.6802 2.48661 2.6802 2.53518V3.19832H1.20449V0.767502H1.6971C1.74673 0.767502 1.7858 0.727903 1.7858 0.678273V0.0959108C1.7858 0.0473366 1.74673 0.00773787 1.6971 0.00773787H0.0925673C0.0439931 0.00773787 0.00439453 0.0473366 0.00439453 0.0959108V0.678273C0.00439453 0.727903 0.0439931 0.767502 0.0925673 0.767502Z" fill="white"/>
    <path d="M5.85069 1.39052L6.3 2.19991H6.30475L6.30053 2.2015L6.3 2.19991H5.39451L5.39134 2.19886L5.85069 1.39052ZM3.71659 3.95703H5.32112C5.3697 3.95703 5.40982 3.91902 5.40982 3.86991V3.2865C5.40982 3.23792 5.3697 3.19832 5.32112 3.19832H4.82535L4.82218 3.19674L5.05397 2.78755H6.62629L6.62471 2.78914L6.85227 3.19991L6.85015 3.19832H6.36547C6.31689 3.19832 6.27677 3.23792 6.27677 3.2865V3.86991C6.27677 3.91902 6.31689 3.95703 6.36547 3.95703H7.97158C8.0191 3.95703 8.0587 3.91902 8.0587 3.86991V3.2865C8.0587 3.23792 8.0191 3.19832 7.97158 3.19832H7.52386V3.19991L6.1812 0.767502H6.68542C6.73453 0.767502 6.7736 0.727903 6.7736 0.678273V0.0959108C6.7736 0.0473366 6.73453 0.00773787 6.68542 0.00773787H5.07984C5.03126 0.00773787 4.99219 0.0473366 4.99219 0.0959108V0.678273C4.99219 0.727903 5.03126 0.767502 5.07984 0.767502H5.52704L4.14584 3.19674L4.14742 3.19832H3.71659C3.66802 3.19832 3.62842 3.23792 3.62842 3.2865V3.86991C3.62842 3.91902 3.66802 3.95703 3.71659 3.95703Z" fill="white"/>
    <path d="M7.41817 0.767502H7.89969L9.10401 3.19832H8.61141C8.56283 3.19832 8.52376 3.23792 8.52376 3.2865V3.86991C8.52376 3.91902 8.56283 3.95703 8.61141 3.95703H10.2175C10.2656 3.95703 10.3057 3.91902 10.3057 3.86991V3.2865C10.3057 3.23792 10.2656 3.19832 10.2175 3.19832H9.77032L10.6415 1.42114L11.5211 3.19832H11.0438C10.9952 3.19832 10.9556 3.23792 10.9556 3.2865V3.86991C10.9556 3.91902 10.9952 3.95703 11.0438 3.95703H12.6489C12.698 3.95703 12.737 3.91902 12.737 3.86991V3.2865C12.737 3.23792 12.698 3.19832 12.6489 3.19832H12.1985L13.3865 0.767502H13.8579C13.9065 0.767502 13.9451 0.727903 13.9451 0.678273V0.0959108C13.9451 0.0473366 13.9065 0.00773787 13.8579 0.00773787H12.2518C12.2033 0.00773787 12.1637 0.0473366 12.1637 0.0959108V0.678273C12.1637 0.727903 12.2033 0.767502 12.2518 0.767502H12.7328L11.858 2.55102L10.9746 0.767502H11.4414C11.49 0.767502 11.5285 0.727903 11.5285 0.678273V0.0959108C11.5285 0.0473366 11.49 0.00773787 11.4414 0.00773787H9.83527C9.78669 0.00773787 9.74762 0.0473366 9.74762 0.0959108V0.678273C9.74762 0.727903 9.78669 0.767502 9.83527 0.767502H10.3015L9.43558 2.53518L8.55861 0.767502H9.02429C9.07339 0.767502 9.11246 0.727903 9.11246 0.678273V0.0959108C9.11246 0.0473366 9.07339 0.00773787 9.02429 0.00773787H7.41817C7.37013 0.00773787 7.33105 0.0473366 7.33105 0.0959108V0.678273C7.33105 0.727903 7.37013 0.767502 7.41817 0.767502Z" fill="white"/>
    <path d="M21.7776 3.95703H23.3827C23.4323 3.95703 23.4703 3.91902 23.4703 3.86991V3.2865C23.4703 3.23792 23.4323 3.19832 23.3827 3.19832H22.8552V1.45916H22.8563L24.7179 3.19832H24.3019C24.2539 3.19832 24.2143 3.23792 24.2143 3.2865V3.86991C24.2143 3.91902 24.2539 3.95703 24.3019 3.95703H25.9075C25.9566 3.95703 25.9957 3.91902 25.9957 3.86991V3.2865C25.9957 3.23792 25.9566 3.19832 25.9075 3.19832H25.3964V0.767502H25.9075C25.9566 0.767502 25.9957 0.727903 25.9957 0.678273V0.0959105C25.9957 0.0473363 25.9566 0.00773787 25.9075 0.00773787H24.3019C24.2539 0.00773787 24.2143 0.0473363 24.2143 0.0959105V0.678273C24.2143 0.727903 24.2539 0.767502 24.3019 0.767502H24.8072V2.47552H24.8051L22.9783 0.767502H23.3827C23.4323 0.767502 23.4703 0.727903 23.4703 0.678273V0.0959105C23.4703 0.0473363 23.4323 0.00773787 23.3827 0.00773787H21.7776C21.7285 0.00773787 21.6895 0.0473363 21.6895 0.0959105V0.678273C21.6895 0.727903 21.7285 0.767502 21.7776 0.767502H22.2665V3.19832H21.7776C21.7285 3.19832 21.6895 3.23792 21.6895 3.2865V3.86991C21.6895 3.91902 21.7285 3.95703 21.7776 3.95703Z" fill="white"/>
  </g>
  <defs>
    <clipPath id="clip0_1870_1685">
      <rect width="26" height="3.95957" fill="white"/>
    </clipPath>
  </defs>
</svg>