<svg width="30" height="20" viewBox="0 0 30 20" fill="none" xmlns="http://www.w3.org/2000/svg">
<g clip-path="url(#clip0_4369_593)">
<rect width="30" height="20" rx="3" fill="#751DFF"/>
<g clip-path="url(#clip1_4369_593)">
<path d="M14.7846 6.65283C14.6899 6.74773 14.5558 6.65283 14.5558 6.65283C14.3823 6.47489 12.9961 5.05932 12.8226 4.88138C12.2625 4.32385 11.3574 4.32385 10.7955 4.88138C10.5274 5.15131 10.3769 5.51669 10.3769 5.89759C10.3769 6.27849 10.5274 6.64388 10.7955 6.9138C11.0834 7.20246 13.3806 9.51166 13.6685 9.80032C14.2285 10.3598 15.1336 10.3598 15.6956 9.80032C15.8553 9.64017 16.6579 8.83353 18.1032 7.38632C18.3576 7.12535 18.4976 6.98103 18.5252 6.95137C18.6639 6.812 18.852 6.73351 19.0483 6.73314C19.2447 6.73277 19.4331 6.81055 19.5723 6.94939V6.95137C19.8543 7.22816 19.8582 7.6809 19.5821 7.96165C19.5782 7.96758 19.5723 7.97154 19.5664 7.97747C19.5368 8.00712 19.3928 8.15342 19.1326 8.41637C16.508 11.0498 15.0508 12.5129 14.7589 12.8055C14.6899 12.8786 14.5756 12.8826 14.5026 12.8134C14.5006 12.8114 14.4987 12.8074 14.4947 12.8055C14.0195 12.329 10.2118 8.51127 9.73657 8.03282C9.46651 7.76491 9.10194 7.61464 8.72204 7.61464C8.34213 7.61464 7.97756 7.76491 7.7075 8.03282C7.15143 8.59629 7.15143 9.50376 7.7075 10.0652L13.6429 16.0162C13.6231 15.9984 13.6133 15.9905 13.6113 15.9885C14.1713 16.5461 15.0764 16.5461 15.6384 15.9885L21.1636 10.4488C21.1991 10.4132 21.2168 10.3934 21.2208 10.3895C22.6484 9.00554 22.6839 6.72401 21.3036 5.29459C19.9233 3.86517 17.6477 3.8276 16.2221 5.21155L16.1393 5.29459L14.7846 6.65283Z" fill="white"/>
</g>
</g>
<defs>
<clipPath id="clip0_4369_593">
<rect width="30" height="20" rx="3" fill="white"/>
</clipPath>
<clipPath id="clip1_4369_593">
<rect width="16" height="13" fill="white" transform="translate(7 4)"/>
</clipPath>
</defs>
</svg>
