<svg width="35" height="24" viewBox="0 0 35 24" fill="none" xmlns="http://www.w3.org/2000/svg">
<path d="M0 3.25C0 1.45508 1.45507 0 3.25 0H31.75C33.5449 0 35 1.45507 35 3.25V20.75C35 22.5449 33.5449 24 31.75 24H3.25C1.45507 24 0 22.5449 0 20.75V3.25Z" fill="#E82529"/>
<path fill-rule="evenodd" clip-rule="evenodd" d="M10.7775 4.43335H11.9116C11.9979 4.43335 12.0643 4.50963 12.052 4.59478L11.5253 8.23586C11.505 8.376 11.6141 8.50148 11.7562 8.50148H13.7457C13.8022 8.50148 13.8455 8.55151 13.8372 8.60717L13.6829 9.65295C13.6749 9.70728 13.6281 9.74762 13.5729 9.74762H11.3234C10.6542 9.74762 10.0125 9.20071 10.1069 8.5405L10.637 4.5561C10.6463 4.48586 10.7064 4.43335 10.7775 4.43335Z" fill="#FEFEFE"/>
<path fill-rule="evenodd" clip-rule="evenodd" d="M14.5591 5.8864L14.04 9.5997C14.0318 9.65859 14.0777 9.71118 14.1373 9.71118H15.2348C15.3128 9.71118 15.379 9.65387 15.3898 9.57684L15.9038 5.92392C15.9148 5.83976 15.8491 5.76514 15.7639 5.76514H14.6989C14.6285 5.76514 14.5689 5.8169 14.5591 5.8864Z" fill="#FEFEFE"/>
<path fill-rule="evenodd" clip-rule="evenodd" d="M16.8228 9.42599C16.4842 9.41381 16.3258 9.51958 16.126 9.63836C16.1742 9.30357 16.5523 6.6946 16.5868 6.53433C16.6232 6.36346 16.6564 6.07837 16.8072 5.93458C16.9839 5.76578 17.2574 5.6692 18.6183 5.66481C20.0075 5.66034 20.2766 6.65666 20.2029 7.30404C20.14 7.85815 19.9333 9.2272 19.875 9.6097C19.8661 9.66784 19.8162 9.71066 19.7575 9.71066H18.6844C18.6058 9.71066 18.5453 9.64159 18.5563 9.56406C18.6106 9.18156 18.7561 8.16188 18.8055 7.86577C18.8667 7.49951 18.9158 7.09648 18.8177 6.93737C18.7196 6.77859 18.4254 6.65666 17.8616 6.7544L17.4447 9.69252C17.4447 9.69252 17.1764 9.43874 16.8228 9.42599Z" fill="#FEFEFE"/>
<path fill-rule="evenodd" clip-rule="evenodd" d="M21.3668 4.22217H22.5571C22.6014 4.22217 22.6355 4.26118 22.6294 4.30491L21.8887 9.65223C21.8832 9.6919 21.8492 9.72147 21.8089 9.72147H20.6337C20.5848 9.72147 20.5473 9.67848 20.554 9.63028L21.2945 4.28503C21.2995 4.249 21.3303 4.22217 21.3668 4.22217Z" fill="#FEFEFE"/>
<path fill-rule="evenodd" clip-rule="evenodd" d="M22.2876 7.44407L23.6329 5.87408C23.6753 5.82463 23.7373 5.79614 23.8026 5.79614H24.9836C25.0688 5.79614 25.1137 5.89678 25.0567 5.95981L23.6812 7.48109L24.9386 10.1761C24.9847 10.275 24.9122 10.3882 24.8029 10.3882H23.7354C23.6797 10.3882 23.6291 10.3558 23.6058 10.3053L22.2876 7.44407Z" fill="#FEFEFE"/>
<path fill-rule="evenodd" clip-rule="evenodd" d="M16.1338 4.75944C16.0375 5.16405 15.6719 5.46513 15.2891 5.46513C14.9064 5.46513 14.6128 5.13713 14.7091 4.73261C14.8054 4.328 15.1223 4 15.5765 4C15.9592 4 16.23 4.35483 16.1338 4.75944Z" fill="#FEFEFE"/>
<path fill-rule="evenodd" clip-rule="evenodd" d="M17.3437 10.6574C17.2475 11.062 16.8819 11.3631 16.4991 11.3631C16.1163 11.3631 15.8228 11.0351 15.9191 10.6306C16.0153 10.2259 16.3323 9.89795 16.7865 9.89795C17.1692 9.89795 17.44 10.2528 17.3437 10.6574Z" fill="#FEFEFE"/>
<path fill-rule="evenodd" clip-rule="evenodd" d="M23.1016 15.4925C23.0205 15.8923 22.6511 16.1898 22.2486 16.1895C21.8461 16.1894 21.5212 15.865 21.6023 15.4653C21.6835 15.0655 22.0004 14.7415 22.4779 14.7417C22.8804 14.7419 23.1828 15.0927 23.1016 15.4925Z" fill="#FEFEFE"/>
<path fill-rule="evenodd" clip-rule="evenodd" d="M12.9696 13.5011H12.2489C12.2222 13.5011 12.2038 13.4743 12.2136 13.4495L12.8408 11.863C12.8528 11.8328 12.8975 11.8392 12.9004 11.8715L13.0414 13.4229C13.0452 13.4649 13.012 13.5011 12.9696 13.5011ZM14.7155 15.4934L13.9113 10.6964C13.8761 10.4867 13.694 10.333 13.4806 10.333H12.6737C12.4276 10.333 12.2041 10.4762 12.1023 10.6994L9.93589 15.4993C9.90448 15.569 9.95584 15.6476 10.0324 15.6472L11.158 15.6406C11.235 15.6402 11.3044 15.5942 11.3344 15.5236L11.7086 14.6464C11.7188 14.6225 11.7423 14.607 11.7684 14.607H13.1306C13.164 14.607 13.192 14.6322 13.1953 14.6654L13.2766 15.4955C13.286 15.592 13.3675 15.6657 13.4649 15.6657H14.569C14.6608 15.6657 14.7306 15.5836 14.7155 15.4934Z" fill="#FEFEFE"/>
<path fill-rule="evenodd" clip-rule="evenodd" d="M14.1783 16.3628L14.4383 17.1631C14.485 17.2948 14.5203 17.3241 14.6116 17.3048C14.94 17.2359 15.7335 17.0022 16.1217 16.4788C16.6278 15.7965 16.6972 14.5902 16.7865 13.9771C16.8601 13.4721 17.0212 12.229 17.0757 11.8065C17.0855 11.7305 17.0261 11.6633 16.9491 11.6633H15.94C15.8508 11.6633 15.7755 11.7289 15.7635 11.817C15.6821 12.4137 15.3891 14.5597 15.3379 14.8571C15.2784 15.2033 15.2665 15.7018 14.7527 15.9994C14.4963 16.1478 14.3648 16.1762 14.2633 16.2234C14.2117 16.2474 14.1533 16.2732 14.1783 16.3628Z" fill="#FEFEFE"/>
<path fill-rule="evenodd" clip-rule="evenodd" d="M19.7318 14.5147C19.7318 14.5147 19.2056 14.6931 18.9531 14.5042C18.7004 14.3154 18.6794 13.9274 18.8267 13.3715C18.9741 12.8156 19.3424 12.7213 19.5003 12.7108C19.6582 12.7002 19.955 12.7747 19.955 12.7747L19.7318 14.5147ZM21.1889 11.8067C20.8486 11.7219 20.2766 11.5355 19.3569 11.6027C18.5084 11.6646 17.5503 12.0558 17.3708 13.725C17.1914 15.3942 17.9571 15.7161 19.0578 15.7638C19.8644 15.7988 20.4975 15.5776 20.7782 15.457C20.876 15.415 20.944 15.3249 20.9583 15.2198L21.365 12.0061C21.381 11.8785 21.317 11.8386 21.1889 11.8067Z" fill="#FEFEFE"/>
<path fill-rule="evenodd" clip-rule="evenodd" d="M21.9735 14.2097L22.2696 11.1323C22.2803 11.022 22.3731 10.9771 22.4842 10.9771H23.5058C23.601 10.9771 23.6413 11.049 23.615 11.1669L22.9915 14.2485C22.9789 14.3081 22.9262 14.3508 22.865 14.3508H22.1021C22.0259 14.3508 21.9662 14.2853 21.9735 14.2097Z" fill="#FEFEFE"/>
<path fill-rule="evenodd" clip-rule="evenodd" d="M10.0194 19.8842C10.2217 19.9956 10.458 20.028 10.6829 19.9749C11.5788 19.7634 13.5614 19.194 17.7552 18.5898C23.0241 17.8308 26.9143 17.8339 26.9143 17.8339L26.9245 17.8277C26.9245 17.8277 23.4765 17.3556 17.8175 17.9064C12.1585 18.4572 9 19.3228 9 19.3228L10.0194 19.8842Z" fill="#FEFEFE"/>
</svg>
