<svg width="35" height="24" viewBox="0 0 35 24" fill="none" xmlns="http://www.w3.org/2000/svg">
<rect width="35" height="24" rx="3.24812" fill="#E8EAED"/>
<path fill-rule="evenodd" clip-rule="evenodd" d="M17.173 17.157C15.9896 18.1852 14.4545 18.806 12.7771 18.806C9.03421 18.806 6 15.7154 6 11.903C6 8.09057 9.03421 5 12.7771 5C14.4545 5 15.9896 5.62073 17.173 6.64899C18.3564 5.62073 19.8915 5 21.5689 5C25.3118 5 28.346 8.09057 28.346 11.903C28.346 15.7154 25.3118 18.806 21.5689 18.806C19.8915 18.806 18.3564 18.1852 17.173 17.157Z" fill="#7375CF"/>
<path fill-rule="evenodd" clip-rule="evenodd" d="M17.173 6.64899C15.7158 7.91513 14.7918 9.79915 14.7918 11.903C14.7918 14.0068 15.7158 15.8908 17.173 17.157C15.9896 18.1852 14.4545 18.806 12.7771 18.806C9.03421 18.806 6 15.7154 6 11.903C6 8.09057 9.03421 5 12.7771 5C14.4545 5 15.9896 5.62073 17.173 6.64899Z" fill="#ED0006"/>
<path fill-rule="evenodd" clip-rule="evenodd" d="M17.173 17.157C18.6302 15.8908 19.5542 14.0068 19.5542 11.903C19.5542 9.79914 18.6302 7.91512 17.173 6.64899C18.3564 5.62073 19.8915 5 21.5689 5C25.3118 5 28.346 8.09057 28.346 11.903C28.346 15.7154 25.3118 18.806 21.5689 18.806C19.8915 18.806 18.3564 18.1852 17.173 17.157Z" fill="#00A2E5"/>
</svg>
