<svg xmlns="http://www.w3.org/2000/svg" width="35" height="24" viewBox="0 0 35 24">
    <g fill="none" fill-rule="evenodd">
        <rect width="35" height="24" fill="#E8EAED" rx="3.248"/>
        <g>
            <path fill="#FF5E00" d="M15.519.122c3.687 0 6.676 2.967 6.676 6.627 0 3.66-2.989 6.627-6.676 6.627-1.653 0-3.166-.596-4.332-1.584-1.164.988-2.677 1.584-4.33 1.584C3.17 13.376.18 10.409.18 6.749.18 3.089 3.17.122 6.857.122c1.653 0 3.166.596 4.332 1.583C12.353.718 13.866.122 15.519.122z" transform="translate(6 5)"/>
            <path fill="#ED0006" d="M6.857.122c1.653 0 3.166.596 4.332 1.583C9.752 2.921 8.842 4.73 8.842 6.75c0 2.02.91 3.828 2.345 5.043-1.164.988-2.677 1.584-4.33 1.584C3.17 13.376.18 10.409.18 6.749.18 3.089 3.17.122 6.857.122z" transform="translate(6 5)"/>
            <path fill="#F9A000" d="M15.519.122c3.687 0 6.676 2.967 6.676 6.627 0 3.66-2.989 6.627-6.676 6.627-1.653 0-3.166-.597-4.332-1.584 1.436-1.215 2.347-3.023 2.347-5.043s-.91-3.828-2.345-5.044C12.354.718 13.866.122 15.519.122z" transform="translate(6 5)"/>
        </g>
    </g>
</svg>
