<svg width="35" height="24" fill="none" xmlns="http://www.w3.org/2000/svg"><rect x=".416667" y=".416667" width="34.1667" height="23.1667" rx="2.2901" fill="#fff" stroke="#F6F7F8" stroke-width=".833333"/><path fill-rule="evenodd" clip-rule="evenodd" d="M11.5981 11.9139h.7265l-.2894-.9682-.4371.9682zm-.4073-2.03084h1.8361c.1503.44474.3039.88234.4607 1.31094.2007.5586.3628.9974.4843 1.3167.044.1147.0883.2301.1326.3446l-.041.972h-1.1957c-.0388-.1502-.085-.3038-.1359-.4609-.0707-.2007-.122-.3508-.1534-.4484h-1.4113l-.4012.9093H9.08313c.35073-.5943.71447-1.2461 1.09217-1.9545.339-.634.677-1.2965 1.0155-1.98974zM28.1189 11.9139h.7255l-.2888-.9682-.4367.9682zm-.4075-2.03084h1.8362c.15.44474.3032.88234.4604 1.31094.201.5586.3623.9974.4844 1.3167.1686.4405.3388.8793.5076 1.3166h-1.6122c-.0393-.1502-.0846-.3038-.136-.4609-.07-.2007-.1213-.3508-.1532-.4484h-1.4107l-.402.9093h-1.6824c.3504-.5943.7143-1.2461 1.0924-1.9545.3389-.634.6762-1.2965 1.0155-1.98974z" fill="#004A91"/><path fill-rule="evenodd" clip-rule="evenodd" d="M20.9209 9.8833h1.9486c.0204.1338.0747.4779.1652 1.033.0752.4525.1243.8056.1483 1.0569.0784-.3305.1946-.7673.348-1.3106.1264-.4449.1983-.70499.2181-.7793h1.996c0 .425-.011.8613-.0326 1.308-.0209.446-.0436.9151-.0644 1.4049-.0218.4899-.0327.9004-.0327 1.231h-1.311c0-.2796.0093-.5943.0292-.9447.0476-.8416.0711-1.3696.0711-1.5825l-.714 2.5272h-1.2935L21.9846 11.3c-.0439.4017-.081.8293-.1126 1.2815-.0318.4526-.0476.8681-.0476 1.2457h-1.2453c.0508-.4371.1038-.8856.1593-1.3459.055-.4606.0992-.9058.1322-1.3346.0335-.4286.0503-.8501.0503-1.2634zM18.5422 9.8833h1.5876c-.1142 1.3262-.1709 2.6415-.1709 3.9439h-1.4065l-.1928-.1772c.0041-.3228.0188-.6837.0435-1.0831.0297-.4748.06-.9654.0915-1.4731.0314-.5079.0476-.9114.0476-1.2105zM4.34184 9.8833h1.94877c.02.1338.07446.4779.16512 1.033.07462.4525.12384.8056.14766 1.0569.07906-.3305.19497-.7673.3485-1.3106.12638-.4449.19831-.70499.21831-.7793h1.99577c0 .425-.01112.8613-.03271 1.308-.02096.446-.0435.9151-.06478 1.4049-.02159.4899-.03239.9004-.03239 1.231H7.72495c0-.2796.00953-.5943.02969-.9447.04716-.8416.07082-1.3696.07082-1.5825l-.71416 2.5272H5.81794L5.40482 11.3c-.04351.4017-.08066.8293-.11226 1.2815-.03191.4526-.04699.8681-.04699 1.2457H4c.05049-.4371.10368-.8856.15893-1.3459.05525-.4606.09955-.9058.13305-1.3346.03319-.4286.04986-.8501.04986-1.2634z" fill="#004A91"/><path d="M18.2715 13.8654l-.1384.1378c-.0334-.0071-.0626-.0098-.0888-.0098-.0532 0-.0989.0298-.1383.0891-.0195.0392.0042.0909.0694.1578.0259.0262.0989.0814.2171.168v.0196c0 .0194.0101.0888.0295.2072-.4012 0-.76-.079-1.0757-.237-.1969-.0984-.5033-.3098-.9179-.6318-.1836-.1573-.3365-.3019-.4585-.4339-.1227-.1322-.2486-.2964-.3801-.4934l-1.145.9473.0298-.7106.7497-.908c-.1378-.1515-.2602-.3154-.3647-.4935-.073-.1516-.1322-.2972-.1778-.439-.0457-.1421-.0791-.2874-.0988-.4393.0332-.0651.0494-.112.0494-.1378l-.0297-.1283 1.0657-1.08587.8491 1.39147 1.6181-1.7765c.0335-.03937.0597-.0589.079-.0589.0458 0 .0694.08891.0694.26626 0 .14448-.0097.29595-.0295.45393-.0199.15814-.0335.26674-.0399.32611-.059.3017-.2862.6145-.6809.9374-.2628.2172-.4538.4049-.5721.5624.0391.0909.0724.164.0983.2172.1578.3278.2928.5882.4047.7795.1642.2761.3196.5095.4638.7005.1443.1901.3261.3971.5431.6221z" fill="#ED1921" stroke="#ED1921" stroke-width=".267997" stroke-miterlimit="2.613"/></svg>