<svg xmlns="http://www.w3.org/2000/svg" width="30" height="20" viewBox="0 0 30 20" fill="none">
  <mask id="mask0_1870_3430" style="mask-type:alpha" maskUnits="userSpaceOnUse" x="0" y="0" width="30" height="20">
    <rect width="30" height="20" rx="3" fill="#D9D9D9"/>
  </mask>
  <g mask="url(#mask0_1870_3430)">
    <path fill-rule="evenodd" clip-rule="evenodd" d="M0 0H30V20H0V0Z" fill="#FFF200"/>
    <path fill-rule="evenodd" clip-rule="evenodd" d="M25.8212 11.924C25.8205 11.8374 25.7897 9.97973 24.1776 9.09552C24.1237 8.35607 23.7924 6.75397 21.9938 5.78863C21.9188 5.49447 21.7631 5.02422 21.4587 4.55626C20.9969 3.84649 20.1035 3.00017 18.4675 3.00017H18.4752C18.3273 2.99801 17.018 3.00381 16.2092 3.82855C16.0948 3.93285 15.9982 4.07831 15.9437 4.24941L12.6492 4.24914L11.7448 3.33778C11.6389 3.23226 11.5165 3.1513 11.3792 3.09719C11.2597 3.04551 11.1379 3.01704 11.0175 3.01231C10.8748 3.00044 10.5009 3.00813 10.1701 3.33873C10.1697 3.3394 4.31663 9.20063 4.31663 9.20063C4.11264 9.40398 4 9.67628 4 9.96481C4 10.2538 4.11264 10.5252 4.31663 10.7298C4.53516 10.9476 4.83392 11.0613 5.14179 11.0444H6.12663L6.12752 15.8487C6.12752 16.1741 6.24337 16.4695 6.4531 16.6796C6.66251 16.8887 6.94626 17 7.27279 17L22.6033 16.999C22.9158 16.999 23.2159 16.8782 23.4252 16.668C23.631 16.4632 23.7443 16.1809 23.7443 15.8744C23.7443 15.8738 23.7433 15.3301 23.7426 14.935C24.6317 14.5777 25.8212 13.6582 25.8212 11.924Z" fill="white"/>
    <path fill-rule="evenodd" clip-rule="evenodd" d="M25.2679 11.9239C25.2679 11.9239 25.2571 10.1106 23.6313 9.4468C23.6313 9.4468 23.7969 7.23533 21.5082 6.16245C21.5082 6.16218 21.1545 3.55318 18.4674 3.55318C18.4674 3.55318 17.2504 3.53564 16.5876 4.23245C16.5876 4.23245 16.3333 4.44795 16.5102 4.80229C16.5099 4.80229 16.7645 5.22208 17.2731 4.92468C17.2731 4.92468 17.9034 4.5254 18.4561 4.5478C18.4561 4.5478 20.5242 4.45942 20.5242 6.89259C20.5242 6.89259 22.8796 7.32317 22.6255 10.1765C22.6255 10.1765 24.2504 10.3646 24.2504 11.9571C24.2504 11.9571 24.2396 13.4273 22.6915 13.6154C22.6915 13.6154 22.4289 13.659 22.3265 13.7545C22.3265 13.7545 22.1664 13.8719 22.1494 14.1497V15.4407H7.74127L7.74189 10.1342C7.74189 9.8058 7.54708 9.53546 7.14875 9.53546H6.26134L10.946 4.81538L12.3016 6.17136C12.5076 6.377 12.8422 6.377 13.0489 6.17136C13.2553 5.96463 13.2553 5.62999 13.0489 5.42327L11.3521 3.72671C11.2972 3.67193 11.2325 3.63199 11.1643 3.60621C11.1108 3.5826 11.0476 3.56398 10.9809 3.56398C10.9809 3.56398 10.7595 3.53119 10.561 3.72981L4.70799 9.59118C4.50163 9.79737 4.50163 10.1319 4.70799 10.3386C4.82294 10.4537 4.97796 10.504 5.12851 10.4909H6.67926L6.68028 15.8486C6.68028 16.1775 6.87445 16.4468 7.27267 16.4468L22.6032 16.4457C22.9052 16.4457 23.1911 16.2469 23.1911 15.8744L23.1894 14.5333C23.1894 14.5333 25.2679 14.0583 25.2679 11.9239Z" fill="#245EB1"/>
    <path fill-rule="evenodd" clip-rule="evenodd" d="M14.5607 10.7495C14.9068 10.7495 15.188 10.4685 15.188 10.1224V7.73994C15.188 7.39424 14.9068 7.11343 14.5607 7.11343C14.2146 7.11343 13.9336 7.39424 13.9336 7.73994V10.1224C13.9336 10.4685 14.2146 10.7495 14.5607 10.7495Z" fill="#245EB1"/>
    <path fill-rule="evenodd" clip-rule="evenodd" d="M18.7702 10.1107V7.74015C18.7702 7.39444 18.4898 7.11364 18.1433 7.11364C17.7969 7.11364 17.5161 7.39444 17.5161 7.74015V8.27342L16.8208 7.36503C16.8185 7.36165 16.8155 7.35761 16.8127 7.35491C16.6977 7.20796 16.5195 7.11364 16.3184 7.11364C15.9727 7.11364 15.6919 7.39444 15.6919 7.74015V10.1226C15.6919 10.4687 15.9727 10.7497 16.3184 10.7497C16.6652 10.7497 16.9457 10.4687 16.9457 10.1226V9.5904L17.6477 10.5083C17.8598 10.7812 18.2539 10.8314 18.5277 10.6196C18.6906 10.4933 18.7738 10.3022 18.7702 10.1107Z" fill="#245EB1"/>
    <path fill-rule="evenodd" clip-rule="evenodd" d="M19.9232 10.7495C20.2697 10.7495 20.5505 10.4685 20.5505 10.1224V7.73994C20.5505 7.39424 20.2697 7.11343 19.9232 7.11343C19.5772 7.11343 19.2964 7.39424 19.2964 7.73994V10.1224C19.2964 10.4685 19.5772 10.7495 19.9232 10.7495Z" fill="#245EB1"/>
    <path fill-rule="evenodd" clip-rule="evenodd" d="M13.7703 11.1668H12.1751C11.8805 11.1668 11.6416 11.4057 11.6416 11.7003C11.6416 11.995 11.8805 12.2335 12.1751 12.2335H12.4076V14.1694C12.4076 14.5154 12.688 14.7966 13.0348 14.7966C13.3805 14.7966 13.661 14.5154 13.661 14.1694V12.2335H13.7703C14.0646 12.2335 14.3034 11.995 14.3034 11.7003C14.3034 11.4057 14.0646 11.1668 13.7703 11.1668Z" fill="#245EB1"/>
    <path fill-rule="evenodd" clip-rule="evenodd" d="M16.0457 14.9233C17.125 14.9233 17.9997 14.0654 17.9997 13.0075C17.9997 11.9496 17.125 11.0917 16.0457 11.0917C14.9665 11.0917 14.0913 11.9496 14.0913 13.0075C14.0913 14.0654 14.9665 14.9233 16.0457 14.9233Z" fill="#245EB1"/>
    <path fill-rule="evenodd" clip-rule="evenodd" d="M12.835 7.11343C12.6764 7.11343 12.5319 7.17267 12.4214 7.27009C12.3881 7.29209 12.3574 7.31786 12.3279 7.34687L11.5302 8.14435L10.7446 7.35861C10.63 7.20951 10.4504 7.11343 10.2477 7.11343C9.99503 7.11343 9.7774 7.26335 9.67868 7.47844C9.6763 7.48222 9.67461 7.48599 9.67293 7.48991C9.67198 7.49342 9.67024 7.49611 9.66918 7.49922C9.6286 7.59421 9.61241 7.69703 9.6208 7.79851V10.1224C9.6208 10.4685 9.90163 10.7495 10.2477 10.7495C10.5941 10.7495 10.8746 10.4685 10.8746 10.1224V9.26176L11.4862 9.87301L11.5302 9.91739L12.2085 9.23936V10.1224C12.2085 10.4685 12.4887 10.7495 12.835 10.7495C13.1815 10.7495 13.462 10.4685 13.462 10.1224V7.73994C13.462 7.39424 13.1815 7.11343 12.835 7.11343Z" fill="#245EB1"/>
    <path fill-rule="evenodd" clip-rule="evenodd" d="M11.5392 11.8154C11.5253 11.4513 10.9735 11.0873 10.3246 11.0873C9.67608 11.0873 9.12194 11.6174 9.12194 12.245C9.12194 12.7041 9.41385 13.0448 9.68388 13.2528C9.78271 13.329 9.88518 13.3838 9.95992 13.4224C10.3006 13.5966 10.3794 13.6473 10.3166 13.7688C10.2654 13.8672 10.1359 13.8047 10.0699 13.7678C10.0035 13.7309 9.81608 13.5976 9.6074 13.5976C9.36452 13.5976 9.02344 13.7163 9.02344 14.0758C9.02344 14.3026 9.14693 14.4653 9.30153 14.5817C9.56213 14.7769 9.82968 14.9277 10.3091 14.9277C11.0019 14.9277 11.6071 14.3449 11.5771 13.6378C11.548 12.9416 11.0046 12.6273 10.8206 12.5468C10.7123 12.4998 10.5587 12.431 10.4612 12.3601C10.3568 12.2846 10.3111 12.2047 10.3595 12.1385C10.4802 11.9733 10.7557 12.2563 10.9502 12.2992C11.1713 12.3469 11.5551 12.2277 11.5392 11.8154Z" fill="#245EB1"/>
    <path fill-rule="evenodd" clip-rule="evenodd" d="M18.3379 11.5251C18.3379 11.2917 18.4966 11.1854 18.6892 11.1854H20.093C20.7451 11.1854 21.2731 11.7141 21.2731 12.3661C21.2731 13.0187 20.7451 13.5472 20.093 13.5472H19.5884V14.1916C19.5884 14.538 19.3076 14.8188 18.9615 14.8188C18.615 14.8188 18.335 14.538 18.335 14.1916L18.3379 11.5251Z" fill="#245EB1"/>
    <path fill-rule="evenodd" clip-rule="evenodd" d="M15.2339 13.0076C15.2339 12.5714 15.5876 12.218 16.0239 12.218C16.4597 12.218 16.8135 12.5714 16.8135 13.0076C16.8135 13.4437 16.4597 13.7969 16.0239 13.7969C15.5876 13.7969 15.2339 13.4437 15.2339 13.0076Z" fill="white"/>
    <path fill-rule="evenodd" clip-rule="evenodd" d="M19.5889 12.6785H20.0097C20.1729 12.6785 20.3051 12.5462 20.3051 12.3828C20.3051 12.2201 20.1729 12.0878 20.0097 12.0878H19.5889V12.6785Z" fill="white"/>
  </g>
</svg>