<svg width="35" height="24" viewBox="0 0 35 24" fill="none" xmlns="http://www.w3.org/2000/svg">
<rect x="0.416667" y="0.416667" width="34.1667" height="23.1667" rx="2.2901" fill="white" stroke="#F6F7F8" stroke-width="0.833333"/>
<g clip-path="url(#clip0)">
<path fill-rule="evenodd" clip-rule="evenodd" d="M17.7033 16.8937H23.2507C24.5166 16.8937 24.5298 15.5477 24.4005 14.8836C24.3301 14.4367 23.5709 14.4437 23.4874 14.8836V15.4017C23.4871 15.516 23.4416 15.6255 23.3608 15.7063C23.2801 15.787 23.1706 15.8325 23.0563 15.8328H12.4225C12.3082 15.8325 12.1987 15.787 12.1179 15.7063C12.0371 15.6255 11.9917 15.516 11.9914 15.4017V14.8836C11.9079 14.4437 11.1487 14.4367 11.0783 14.8836C10.949 15.5477 10.9622 16.8937 12.2281 16.8937H17.7033ZM13.7825 3.99902H22.335C22.9358 3.99902 23.4275 4.51981 23.4275 5.15583V5.70828C23.4275 6.48946 22.3719 6.48594 22.3719 5.71356V5.4127C22.3719 5.31938 22.3348 5.22988 22.2688 5.16389C22.2028 5.0979 22.1133 5.06082 22.02 5.06082H13.45C13.3566 5.06082 13.2671 5.0979 13.2012 5.16389C13.1352 5.22988 13.0981 5.31938 13.0981 5.4127V5.70828C13.0981 6.48506 12.09 6.47978 12.09 5.725V5.15671C12.0926 4.52069 12.5835 3.99902 13.1843 3.99902H13.7825Z" fill="#3D73B9"/>
<path fill-rule="evenodd" clip-rule="evenodd" d="M23.2121 10.3516C23.5057 10.4827 23.7559 10.6949 23.9332 10.9632C24.1105 11.2315 24.2076 11.5449 24.2132 11.8664C24.2132 12.7972 23.4003 13.559 22.4071 13.559H19.6211C19.5002 13.5626 19.3828 13.5184 19.2943 13.4361C19.2057 13.3538 19.1531 13.2399 19.1478 13.1191V7.81629C19.1483 7.6931 19.1975 7.57509 19.2847 7.48806C19.3719 7.40103 19.49 7.35204 19.6132 7.35181H21.933C22.2808 7.351 22.6211 7.45264 22.9116 7.64404C23.202 7.83544 23.4296 8.10813 23.566 8.42808C23.7024 8.74802 23.7416 9.10106 23.6787 9.44314C23.6157 9.78521 23.4534 10.1012 23.2121 10.3516ZM21.1333 9.92054H22.0174V9.91086C22.2158 9.87973 22.3967 9.77897 22.5275 9.62665C22.6584 9.47432 22.7308 9.28038 22.7317 9.07955C22.731 8.85671 22.6422 8.64321 22.4846 8.48564C22.3271 8.32807 22.1136 8.23925 21.8907 8.23855H20.1093V12.6371H22.3675C22.4839 12.6408 22.5999 12.621 22.7085 12.579C22.8172 12.5371 22.9163 12.4737 22.9999 12.3926C23.0836 12.3116 23.1501 12.2146 23.1955 12.1073C23.2409 12.0001 23.2643 11.8848 23.2643 11.7684C23.2643 11.6519 23.2409 11.5366 23.1955 11.4294C23.1501 11.3221 23.0836 11.2251 22.9999 11.1441C22.9163 11.063 22.8172 10.9997 22.7085 10.9577C22.5999 10.9157 22.4839 10.8959 22.3675 10.8996H22.0157H21.1333C21.0692 10.8996 21.0057 10.887 20.9465 10.8625C20.8872 10.8379 20.8334 10.802 20.7881 10.7566C20.7427 10.7113 20.7068 10.6575 20.6822 10.5983C20.6577 10.539 20.6451 10.4755 20.6451 10.4114C20.6451 10.3473 20.6577 10.2838 20.6822 10.2246C20.7068 10.1653 20.7427 10.1115 20.7881 10.0662C20.8334 10.0208 20.8872 9.98488 20.9465 9.96034C21.0057 9.93581 21.0692 9.92318 21.1333 9.92318" fill="#1D1D1B"/>
<path d="M14.1352 18.5212C14.1352 18.4816 14.151 18.4435 14.179 18.4155C14.2071 18.3874 14.2451 18.3717 14.2848 18.3717C14.3245 18.3717 14.3625 18.3874 14.3905 18.4155C14.4186 18.4435 14.4343 18.4816 14.4343 18.5212V19.3288C14.4341 19.5063 14.3635 19.6766 14.2381 19.8022C14.1126 19.9278 13.9424 19.9986 13.7649 19.9991C13.5873 19.9989 13.4171 19.9283 13.2915 19.8028C13.1658 19.6774 13.095 19.5072 13.0946 19.3297V18.5221C13.093 18.5016 13.0957 18.4809 13.1024 18.4614C13.1092 18.442 13.1199 18.4241 13.1339 18.409C13.1479 18.3939 13.1649 18.3818 13.1838 18.3736C13.2027 18.3653 13.2231 18.3611 13.2437 18.3611C13.2643 18.3611 13.2847 18.3653 13.3035 18.3736C13.3224 18.3818 13.3394 18.3939 13.3534 18.409C13.3674 18.4241 13.3781 18.442 13.3849 18.4614C13.3917 18.4809 13.3944 18.5016 13.3928 18.5221V19.3297C13.3937 19.4282 13.4333 19.5225 13.5031 19.5921C13.5729 19.6617 13.6672 19.7011 13.7658 19.7018C13.8645 19.7013 13.959 19.6618 14.0287 19.592C14.0984 19.5221 14.1376 19.4275 14.1379 19.3288L14.1352 18.5212Z" fill="#1D1D1B"/>
<path d="M15.5498 19.7009C15.5895 19.7009 15.6275 19.7167 15.6556 19.7447C15.6836 19.7728 15.6994 19.8108 15.6994 19.8505C15.6994 19.8901 15.6836 19.9282 15.6556 19.9562C15.6275 19.9842 15.5895 20 15.5498 20H15.1346C14.986 20 14.8434 19.941 14.7383 19.8359C14.6333 19.7308 14.5742 19.5883 14.5742 19.4396V18.5212C14.5742 18.4818 14.5899 18.444 14.6178 18.4161C14.6456 18.3882 14.6835 18.3726 14.7229 18.3726C14.7623 18.3726 14.8001 18.3882 14.828 18.4161C14.8559 18.444 14.8716 18.4818 14.8716 18.5212V19.4379C14.8716 19.5079 14.8994 19.575 14.9489 19.6245C14.9983 19.674 15.0655 19.7018 15.1355 19.7018H15.5498V19.7009Z" fill="#1D1D1B"/>
<path d="M18.7054 13.0302C18.7161 13.1047 18.7118 13.1806 18.6925 13.2533C18.6733 13.3261 18.6395 13.3942 18.5934 13.4536C18.5472 13.513 18.4895 13.5625 18.4237 13.5991C18.3579 13.6357 18.2855 13.6587 18.2106 13.6666C18.1358 13.6745 18.0601 13.6673 17.9881 13.6453C17.9162 13.6233 17.8494 13.587 17.7917 13.5386C17.7341 13.4902 17.6868 13.4306 17.6528 13.3635C17.6187 13.2964 17.5985 13.2231 17.5934 13.1481L17.1333 8.93341L15.5138 13.0548V13.0654V13.0742V13.083V13.0882V13.0962V13.105C15.4783 13.1671 15.4307 13.2215 15.3739 13.2651L15.3651 13.2721C15.3357 13.2987 15.3032 13.3217 15.2684 13.3407L15.2578 13.346L15.2481 13.3513H15.242H15.2349H15.2288H15.2218H15.2165H15.2103H15.205H15.1998H15.1927C15.1401 13.3701 15.0849 13.3804 15.0291 13.3821H14.9886C14.9259 13.3803 14.864 13.3675 14.8057 13.3442H14.7977H14.7898H14.7828H14.7775H14.7705H14.7643H14.7599L14.7502 13.339L14.7414 13.3337H14.7362C14.7049 13.317 14.6755 13.2973 14.6482 13.2747L14.6297 13.258L14.6156 13.2448L14.5822 13.236L14.5655 13.2176C14.5429 13.1903 14.5232 13.1608 14.5066 13.1296V13.1243L14.5013 13.1155L14.496 13.1058V13.0997V13.0926V13.0874V13.0794V13.0724V13.0645L12.8466 8.93341L12.3882 13.1481C12.3726 13.2954 12.2991 13.4305 12.1838 13.5236C12.0686 13.6167 11.9211 13.6603 11.7738 13.6446C11.6264 13.629 11.4913 13.5555 11.3982 13.4403C11.3051 13.325 11.2615 13.1775 11.2772 13.0302L11.8173 8.06163C11.8303 7.94461 11.8656 7.83116 11.9211 7.72734C11.9904 7.59763 12.0896 7.48626 12.2104 7.40244C12.3313 7.31862 12.4703 7.26474 12.6161 7.24526H12.646C12.6931 7.24176 12.7405 7.24176 12.7876 7.24526C12.8445 7.24753 12.9011 7.25518 12.9565 7.26814C13.1024 7.30155 13.238 7.37017 13.3513 7.468C13.4646 7.56583 13.5523 7.6899 13.6066 7.82938L14.9913 11.3288L16.3733 7.81795C16.4383 7.65153 16.5503 7.50766 16.6958 7.40392C16.8412 7.30018 17.0138 7.24108 17.1923 7.23383C17.2394 7.23033 17.2868 7.23033 17.3339 7.23383H17.3638C17.5095 7.25345 17.6485 7.30738 17.7694 7.39118C17.8902 7.47499 17.9894 7.58628 18.0588 7.7159C18.0858 7.76791 18.1084 7.82205 18.1265 7.87777C18.1443 7.93508 18.1564 7.99402 18.1626 8.05371L18.7054 13.0302Z" fill="#1D1D1B"/>
<path d="M13.0364 19.8338C13.0401 19.8539 13.0396 19.8745 13.0349 19.8944C13.0303 19.9143 13.0217 19.933 13.0095 19.9494C12.9974 19.9658 12.982 19.9795 12.9644 19.9898C12.9467 20 12.9272 20.0066 12.9069 20.009C12.8866 20.0114 12.8661 20.0096 12.8465 20.0038C12.827 19.9979 12.8088 19.9882 12.7932 19.9751C12.7776 19.9619 12.7648 19.9458 12.7556 19.9275C12.7465 19.9093 12.7411 19.8894 12.74 19.869L12.6124 18.7931L12.1559 19.8488C12.1402 19.8851 12.1107 19.9138 12.074 19.9285C12.0372 19.9431 11.9961 19.9426 11.9597 19.9271C11.9247 19.912 11.8969 19.8839 11.8823 19.8488L11.4257 18.7931L11.2973 19.869C11.2961 19.8894 11.2908 19.9093 11.2816 19.9275C11.2725 19.9458 11.2597 19.9619 11.2441 19.9751C11.2284 19.9882 11.2103 19.9979 11.1907 20.0038C11.1711 20.0096 11.1506 20.0114 11.1303 20.009C11.1101 20.0066 11.0905 20 11.0729 19.9898C11.0552 19.9795 11.0398 19.9658 11.0277 19.9494C11.0156 19.933 11.0069 19.9143 11.0023 19.8944C10.9977 19.8745 10.9972 19.8539 11.0008 19.8338L11.1512 18.5846C11.1561 18.5453 11.1706 18.5077 11.1934 18.4753C11.2163 18.4429 11.2468 18.4167 11.2823 18.399C11.2917 18.3939 11.3014 18.3895 11.3113 18.3858H11.3228C11.337 18.3809 11.3518 18.3776 11.3668 18.3761C11.4042 18.3709 11.4424 18.3741 11.4785 18.3856C11.5145 18.397 11.5476 18.4163 11.5753 18.4421C11.5864 18.4525 11.5964 18.464 11.6052 18.4764C11.6117 18.4854 11.6175 18.4948 11.6228 18.5046C11.626 18.51 11.629 18.5155 11.6316 18.5213L12.0186 19.4186L12.4057 18.5142C12.4216 18.4783 12.4459 18.4467 12.4765 18.4221C12.5071 18.3974 12.5431 18.3805 12.5816 18.3726C12.5961 18.3696 12.6108 18.3676 12.6256 18.3665H12.6714C12.7094 18.3707 12.746 18.3837 12.7784 18.4043C12.8107 18.4248 12.8379 18.4525 12.8579 18.4852C12.8662 18.4988 12.873 18.5132 12.8781 18.5283C12.8818 18.5377 12.8844 18.5474 12.886 18.5574C12.8864 18.5638 12.8864 18.5703 12.886 18.5767L13.0364 19.8338Z" fill="#1D1D1B"/>
<path d="M16.2008 19.8504C16.2008 19.89 16.1851 19.9281 16.157 19.9561C16.129 19.9842 16.0909 19.9999 16.0513 19.9999C16.0116 19.9999 15.9736 19.9842 15.9455 19.9561C15.9175 19.9281 15.9017 19.89 15.9017 19.8504V18.6707H15.4768C15.4372 18.6707 15.3991 18.6549 15.3711 18.6269C15.343 18.5988 15.3273 18.5608 15.3273 18.5211C15.3273 18.4815 15.343 18.4434 15.3711 18.4154C15.3991 18.3873 15.4372 18.3716 15.4768 18.3716H16.6257C16.6654 18.3716 16.7034 18.3873 16.7315 18.4154C16.7595 18.4434 16.7753 18.4815 16.7753 18.5211C16.7753 18.5608 16.7595 18.5988 16.7315 18.6269C16.7034 18.6549 16.6654 18.6707 16.6257 18.6707H16.2008V19.8504Z" fill="#1D1D1B"/>
<path d="M17.1333 19.8504C17.1333 19.89 17.1176 19.9281 17.0895 19.9561C17.0615 19.9842 17.0234 19.9999 16.9838 19.9999C16.9441 19.9999 16.9061 19.9842 16.878 19.9561C16.85 19.9281 16.8342 19.89 16.8342 19.8504V18.5211C16.8342 18.4815 16.85 18.4434 16.878 18.4154C16.9061 18.3873 16.9441 18.3716 16.9838 18.3716C17.0234 18.3716 17.0615 18.3873 17.0895 18.4154C17.1176 18.4434 17.1333 18.4815 17.1333 18.5211V19.8504Z" fill="#1D1D1B"/>
<path d="M20.1954 19.8338C20.198 19.8719 20.1858 19.9096 20.1614 19.9391C20.137 19.9685 20.1022 19.9875 20.0643 19.9921C20.0263 19.9967 19.988 19.9866 19.9573 19.9639C19.9266 19.9411 19.9057 19.9075 19.899 19.8699L19.8462 19.4476H19.3325C19.3119 19.4492 19.2913 19.4465 19.2718 19.4397C19.2524 19.4329 19.2345 19.4222 19.2194 19.4082C19.2043 19.3942 19.1922 19.3772 19.184 19.3584C19.1757 19.3395 19.1715 19.3191 19.1715 19.2985C19.1715 19.2779 19.1757 19.2575 19.184 19.2386C19.1922 19.2197 19.2043 19.2028 19.2194 19.1888C19.2345 19.1748 19.2524 19.164 19.2718 19.1573C19.2913 19.1505 19.3119 19.1478 19.3325 19.1494H19.8128L19.7987 19.0394C19.7987 19.0394 19.7987 19.0324 19.7987 19.0289C19.7948 19.003 19.7892 18.9774 19.782 18.9523C19.7739 18.9254 19.7636 18.8992 19.7512 18.874C19.725 18.8152 19.6827 18.7651 19.6291 18.7294C19.5755 18.6937 19.5129 18.674 19.4486 18.6726C19.4231 18.6728 19.3978 18.6757 19.3729 18.6814C19.3497 18.6872 19.3272 18.6957 19.3061 18.7069C19.2469 18.7411 19.197 18.7893 19.1609 18.8473C19.1247 18.9053 19.1032 18.9712 19.0985 19.0394L19.0052 19.8699C19.0031 19.8893 18.9971 19.9081 18.9877 19.9252C18.9783 19.9423 18.9657 19.9574 18.9504 19.9696C18.9352 19.9818 18.9177 19.9909 18.8989 19.9963C18.8802 20.0018 18.8606 20.0035 18.8411 20.0014C18.8217 19.9992 18.8029 19.9933 18.7858 19.9839C18.7687 19.9745 18.7536 19.9618 18.7414 19.9466C18.7292 19.9313 18.7201 19.9138 18.7147 19.8951C18.7092 19.8763 18.7075 19.8567 18.7096 19.8373L18.8029 19.0069C18.8128 18.8893 18.8516 18.7761 18.9159 18.6773C18.9803 18.5784 19.068 18.497 19.1715 18.4403C19.2135 18.4192 19.2577 18.403 19.3034 18.392C19.351 18.3809 19.3997 18.3753 19.4486 18.3752C19.5684 18.3759 19.6856 18.4108 19.7862 18.4758C19.8869 18.5408 19.9669 18.6332 20.0169 18.7421C20.0373 18.7829 20.0543 18.8252 20.0679 18.8688C20.0794 18.9088 20.0879 18.9497 20.0934 18.991C20.0942 18.9954 20.0942 18.9999 20.0934 19.0042L20.1954 19.8338Z" fill="#1D1D1B"/>
<path d="M20.6522 19.8504C20.6537 19.8709 20.6511 19.8916 20.6443 19.911C20.6375 19.9305 20.6268 19.9483 20.6128 19.9634C20.5988 19.9786 20.5818 19.9906 20.5629 19.9989C20.544 20.0071 20.5237 20.0114 20.5031 20.0114C20.4825 20.0114 20.4621 20.0071 20.4432 19.9989C20.4243 19.9906 20.4073 19.9786 20.3933 19.9634C20.3793 19.9483 20.3686 19.9305 20.3618 19.911C20.3551 19.8916 20.3524 19.8709 20.3539 19.8504V18.6188C20.353 18.6103 20.353 18.6017 20.3539 18.5933C20.3559 18.5768 20.3597 18.5605 20.3654 18.5449L20.3777 18.5185C20.4034 18.4727 20.4451 18.438 20.4947 18.4208L20.5149 18.4156H20.5308H20.566H20.5704C20.6009 18.4169 20.6308 18.4248 20.658 18.4387C20.6852 18.4527 20.709 18.4724 20.7278 18.4965L21.5195 19.5108V18.5211C21.5195 18.4815 21.5353 18.4434 21.5634 18.4154C21.5914 18.3873 21.6294 18.3716 21.6691 18.3716C21.7088 18.3716 21.7468 18.3873 21.7748 18.4154C21.8029 18.4434 21.8186 18.4815 21.8186 18.5211V19.7527C21.8185 19.784 21.8114 19.8148 21.7979 19.8429C21.7843 19.8711 21.7647 19.8958 21.7404 19.9155C21.7308 19.9235 21.7205 19.9306 21.7096 19.9366C21.7037 19.94 21.6975 19.943 21.6911 19.9454L21.6788 19.9506C21.6263 19.969 21.5688 19.9658 21.5187 19.9418L21.4993 19.9322C21.4889 19.9256 21.4791 19.9179 21.4703 19.9093C21.4634 19.9033 21.4569 19.8968 21.4509 19.8899L21.4457 19.8838L20.6522 18.866V19.8504Z" fill="#1D1D1B"/>
<path d="M22.985 19.701C23.0247 19.701 23.0627 19.7168 23.0908 19.7448C23.1188 19.7729 23.1346 19.8109 23.1346 19.8506C23.1346 19.8902 23.1188 19.9283 23.0908 19.9563C23.0627 19.9843 23.0247 20.0001 22.985 20.0001H22.5452C22.3891 20.0001 22.2394 19.9381 22.129 19.8277C22.0187 19.7174 21.9567 19.5677 21.9567 19.4116V18.9621C21.9571 18.8061 22.0193 18.6567 22.1296 18.5464C22.2398 18.4362 22.3892 18.374 22.5452 18.3735H22.985C23.0247 18.3735 23.0627 18.3893 23.0908 18.4173C23.1188 18.4454 23.1346 18.4834 23.1346 18.5231C23.1346 18.5627 23.1188 18.6008 23.0908 18.6288C23.0627 18.6569 23.0247 18.6726 22.985 18.6726H22.5452C22.4676 18.6735 22.3936 18.7052 22.3393 18.7606C22.3118 18.7872 22.2898 18.8191 22.2747 18.8542C22.2596 18.8894 22.2517 18.9273 22.2514 18.9656V19.4151C22.2518 19.4922 22.2827 19.566 22.3372 19.6205C22.3917 19.675 22.4655 19.7058 22.5425 19.7063H22.9824L22.985 19.701Z" fill="#1D1D1B"/>
<path d="M23.8498 18.67C23.7446 18.6696 23.6434 18.71 23.5674 18.7827C23.5313 18.8166 23.5025 18.8574 23.4827 18.9028C23.4629 18.9482 23.4525 18.9971 23.4521 19.0466V19.3254C23.4523 19.3749 23.4626 19.4238 23.4822 19.4691C23.5019 19.5145 23.5306 19.5554 23.5665 19.5893C23.6425 19.662 23.7437 19.7023 23.8489 19.7019C23.954 19.7023 24.0553 19.662 24.1313 19.5893C24.1673 19.5554 24.1961 19.5146 24.2159 19.4692C24.2358 19.4238 24.2462 19.3749 24.2465 19.3254V19.0466C24.2461 18.9972 24.2358 18.9483 24.2161 18.903C24.1965 18.8577 24.1679 18.8167 24.1322 18.7827C24.0557 18.7102 23.9543 18.6699 23.8489 18.67H23.8498ZM23.8489 18.3718C24.0311 18.3712 24.2064 18.4412 24.338 18.5671C24.403 18.6288 24.4549 18.703 24.4904 18.7852C24.526 18.8675 24.5444 18.9561 24.5447 19.0457V19.3245C24.5444 19.4141 24.526 19.5028 24.4904 19.585C24.4549 19.6673 24.403 19.7415 24.338 19.8031C24.2064 19.9291 24.0311 19.9991 23.8489 19.9984C23.6667 19.9991 23.4914 19.9291 23.3598 19.8031C23.295 19.7413 23.2434 19.667 23.208 19.5848C23.1727 19.5026 23.1543 19.4141 23.1539 19.3245V19.0457C23.1543 18.9562 23.1727 18.8676 23.208 18.7854C23.2434 18.7032 23.295 18.6289 23.3598 18.5671C23.4914 18.4412 23.6667 18.3712 23.8489 18.3718Z" fill="#1D1D1B"/>
<path d="M17.5564 18.671V19.7011H18.1335C18.1582 19.7011 18.1826 19.6962 18.2054 19.6868C18.2282 19.6773 18.2489 19.6634 18.2663 19.6459C18.2837 19.6284 18.2975 19.6077 18.3069 19.5848C18.3162 19.562 18.321 19.5375 18.3209 19.5128C18.321 19.4659 18.3034 19.4207 18.2716 19.3862L18.2655 19.3809C18.2484 19.3631 18.2279 19.349 18.2052 19.3393C18.1825 19.3297 18.1582 19.3247 18.1335 19.3246H17.9347C17.895 19.3246 17.857 19.3088 17.8289 19.2808C17.8009 19.2527 17.7851 19.2147 17.7851 19.175C17.7851 19.1354 17.8009 19.0973 17.8289 19.0693C17.857 19.0412 17.895 19.0255 17.9347 19.0255H18.0024C18.0448 19.0217 18.0846 19.0034 18.115 18.9736C18.1318 18.9572 18.1451 18.9376 18.1541 18.916C18.1632 18.8944 18.1678 18.8712 18.1678 18.8478C18.1678 18.8011 18.1493 18.7564 18.1163 18.7234C18.0833 18.6904 18.0385 18.6718 17.9919 18.6718H17.5564V18.671ZM17.2573 19.1768V18.5276C17.2572 18.5073 17.2614 18.4872 17.2696 18.4686C17.2779 18.4494 17.2895 18.4319 17.3039 18.4167C17.3306 18.3912 17.3656 18.3763 17.4025 18.3745H17.9875C18.1137 18.3745 18.2348 18.4247 18.324 18.5139C18.4133 18.6032 18.4634 18.7242 18.4634 18.8504C18.4631 18.94 18.4378 19.0278 18.3904 19.1038C18.4222 19.1226 18.4517 19.145 18.4784 19.1706L18.488 19.1812C18.5734 19.2712 18.621 19.3905 18.6209 19.5146C18.6206 19.6433 18.5694 19.7667 18.4784 19.8577C18.3874 19.9487 18.264 20 18.1353 20.0002H17.4069C17.3672 20.0002 17.3292 19.9844 17.3011 19.9564C17.2731 19.9283 17.2573 19.8903 17.2573 19.8506V19.1768Z" fill="#1D1D1B"/>
</g>
<defs>
<clipPath id="clip0">
<rect width="13.5456" height="16" fill="white" transform="translate(11 4)"/>
</clipPath>
</defs>
</svg>
