<svg width="35" height="24" fill="none" xmlns="http://www.w3.org/2000/svg"><rect x=".416667" y=".416667" width="34.1667" height="23.1667" rx="2.2901" fill="#fff" stroke="#F6F7F8" stroke-width=".833333"/><path d="M22.5942 10.1713c-1.0382-.0106-1.5283.5902-1.5283.5902-.3162.3373-.1107.7905.195.8222.4427.0474.4426-.3268 1.1225-.4902.6008-.1475.6271.4111.6271.4111-2.556-.0632-2.4347 2.0817-1.5652 2.5349.8327.4374 1.6127-.1159 1.6127-.1159s.0316.2951.4426.2951c.4744 0 .4744-.469.4744-.469v-2.087c-.0317-1.5336-1.3808-1.4914-1.3808-1.4914zm-.2003 3.0197s-.6693.1371-.664-.3425c.0053-.4796 1.2174-.448 1.3439-.4111 0 0 .0369.5428-.6799.7536zM30.8473 13.3756l-1.0435-1.5705.7642-.722s.3531-.3267.0632-.6535c-.3215-.3583-.7062-.0052-.7062-.0052l-.9644.8959V9.52846c0-.25823-.2108-.46376-.4638-.46376-.2582 0-.4637.2108-.4637.46376v4.22134c0 .2582.2108.4637.4637.4637.2583 0 .4638-.2108.4638-.4637V12.622l.1739-.1739.9434 1.4756s.3056.5112.7588.1844c.3479-.2424.0106-.7325.0106-.7325zM27.5218 11.6573c0-1.5231-1.27-1.73917-2.1343-1.2543v.0052c-.0844-.2476-.3531-.3794-.6008-.2951-.195.0685-.3215.2477-.3215.4532v3.1779c0 .2635.2108.4743.4743.4743s.4743-.2108.4743-.4743l-.0052-2.1449c.0895-.1001.1897-.1897.3003-.2688.448-.3162.8696-.2055.8696.332l.0105 2.0922c.0106.2583.2267.4638.4849.4533.2477-.0106.4427-.2056.4532-.4533l-.0053-2.0974z" fill="#334B66"/><path d="M13.8407 14.2765c.0632-.0949.1054-.2003.1264-.311l-1.075-2.8089s-.195-.5428.2371-.7062c.4532-.1687.6219.2635.6535.3531l.6798 1.8076.6219-1.8023s.1792-.5587.6746-.3637c.411.1634.2002.7167.2002.7167s-.6377 1.8815-1.1699 3.2411c-.3162.8169-.5903.896-.9012.9697-.4163.1002-1.2016.0527-1.2016-.4637 0-.4058.4164-.4322.6061-.4269.0105.0105.4005.0421.5481-.2055zM11.3426 9.55451l-.9802 2.70879-1.06981-2.69298s-.1581-.5112-.60606-.5112c-.51646 0-.50065.41107-.51119.5112-.01054.10013 0 4.21078 0 4.21078s-.00527.4321.46903.4321c.48485 0 .46377-.4374.46377-.4374v-2.1712l.79051 2.1712s.11595.4269.47955.4216c.3637-.0052.4691-.4216.4691-.4216l.6587-2.166v2.166s0 .4374.4796.4374c.4638 0 .4638-.4374.4638-.4374V9.57032s0-.51647-.5007-.5112c-.4163.00527-.5744.4058-.6061.49539v.01581-.01581z" fill="#2ABAEA"/><path d="M31 15.8733H16.6233l.0052.0053c-2.3504 2.7562-6.4927 3.0829-9.24891.7325-2.75624-2.3505-3.08826-6.4875-.73781-9.2437 2.35045-2.75624 6.49272-3.08825 9.24892-.73253.2688.23188.5218.47957.7484.75361h1.3175C15.622 3.88916 10.8842 2.94582 7.38486 5.28573 3.88554 7.62564 2.94747 12.3634 5.28737 15.8627c2.33991 3.4994 7.07243 4.4374 10.57173 2.0975.4954-.332.9486-.7167 1.3544-1.1541l13.1594-.0106.6271-.9222z" fill="#2ABAEA"/><path d="M19.9698 11.4518c.0264-.0369.3426-.2899.3162-.975-.0527-1.38077-1.249-1.36496-1.5177-1.3755-.4269-.01054-.6851-.00527-1.4704 0-.664.00527-.6587.61133-.6587.61133v4.50067h2.2345c1.1963 0 1.6389-.6588 1.6389-1.5811 0-.9222-.5428-1.1804-.5428-1.1804zm-2.3662-1.3966h1.2332c.2477.0053.5059.137.5059.5059 0 .3847-.2266.5059-.5059.5059h-1.2332v-1.0118zm1.3228 3.2411h-1.3228v-1.2648h1.3228c.3214.0158.6324.1791.6324.6324 0 .4637-.2846.6324-.6324.6324z" fill="#334B66"/></svg>