<svg width="35" height="24" viewBox="0 0 35 24" fill="none" xmlns="http://www.w3.org/2000/svg">
<rect x="0.5" y="0.5" width="34" height="23" rx="2.75" fill="white"/>
<path d="M19.4758 4.21415L16.5882 7.62873L12.5649 5.73706C12.4682 5.73706 12.3836 5.64186 12.287 5.73706C12.1903 5.73706 12.1903 5.83219 12.287 6.01068L13.2173 10.377L9.19395 12.2687C9.09727 12.2687 9.0127 12.3639 9.0127 12.4472C9.0127 12.5305 9.10935 12.6256 9.19395 12.6256L13.2173 14.6126L12.2628 18.9789C12.2628 19.0741 12.2628 19.1574 12.2628 19.2526C12.2628 19.2526 12.444 19.2526 12.5407 19.2526L16.564 17.3608L19.355 20.8706C19.4517 20.9658 19.5362 21.0491 19.6329 20.9658C19.7296 20.9658 19.7296 20.8706 19.8141 20.7873L20.8653 16.5161H25.4202C25.5169 16.5161 25.6015 16.5161 25.6981 16.4209C25.6981 16.3257 25.6981 16.2425 25.6015 16.1473L22.8226 12.6256L25.7343 9.11592C25.831 9.02072 25.831 8.93743 25.831 8.84229C25.831 8.7471 25.7343 8.7471 25.5531 8.7471H24.4053C24.3087 8.7471 24.2241 8.7471 24.2241 8.84229L19.947 13.2919H19.8503C19.8503 13.2919 19.8503 13.2919 19.8503 13.1968C19.947 13.1016 22.2668 10.2699 23.5112 8.83039V8.73519C23.5112 8.63999 23.5112 8.63999 23.4146 8.63999H21.9527C21.856 8.63999 21.6748 8.73519 21.6748 8.81848C20.9982 9.57993 17.5185 13.1848 17.4339 13.1848H17.3735C17.3735 13.1848 17.3735 13.1848 17.3735 13.0897L20.9377 8.81848C21.0344 8.72328 21.0344 8.63999 21.0344 8.54485C21.0344 8.54485 20.08 4.27362 20.08 4.17846C20.08 4.08328 19.9833 4 19.8987 4C19.5604 4.11898 19.4758 4.11898 19.4758 4.21415Z" fill="#A91F23"/>
<path d="M11.8755 12.8997C10.8244 12.8997 9.85781 12.7212 9 12.3167C9 12.3167 9.09666 12.3167 9.09666 12.2216L13.12 10.3298L12.1655 5.96345C12.1655 5.86832 12.1655 5.78503 12.1655 5.68983C12.1655 5.68983 12.3467 5.68983 12.4434 5.68983L16.4668 7.5815L19.3423 4.16696C19.439 4.07178 19.5236 4.07178 19.5236 4.07178C19.5236 4.4406 19.6202 4.73804 19.6202 5.10686C19.7531 9.42566 16.1889 12.8997 11.8755 12.8997ZM22.8461 9.11632C22.9428 9.02112 23.0273 8.84263 23.124 8.7475H21.795C21.6983 8.7475 21.6137 8.84263 21.5171 8.84263C21.5171 9.02112 21.5171 9.33046 21.6983 9.42566C21.8916 9.69928 22.4474 9.5208 22.8461 9.11632ZM24.1752 8.66421C24.0785 8.66421 23.9939 8.66421 23.9939 8.7594L23.8973 8.85454C23.8973 9.03303 23.9939 9.12822 24.0785 9.22336C24.3564 9.49704 24.9484 9.31856 25.2263 8.94974C25.323 8.85454 25.323 8.77125 25.4076 8.67611H25.3109H24.1752C24.1752 8.7594 24.1752 8.66421 24.1752 8.66421Z" fill="#EC2024"/>
<path d="M24.9604 9.03184C24.9604 9.03184 24.3684 9.03184 24.1871 9.03184C24.0059 9.03184 23.9092 9.12704 23.8126 9.21033C22.3507 10.7332 19.9704 13.1722 19.8738 13.1722C19.5959 13.4458 19.3784 13.2673 19.6926 12.9937C19.7892 12.8985 21.7103 10.6142 22.8581 9.21033C22.8581 9.11513 22.9548 9.03184 22.8581 9.03184C22.7614 9.03184 21.807 9.03184 21.7103 9.03184C21.6136 9.03184 21.5291 9.03184 21.4324 9.12704C19.9704 10.6499 17.4936 13.2198 17.409 13.2198C17.1311 13.4934 16.9137 13.3149 17.2278 13.0413C17.3245 12.9461 19.4267 10.3882 20.5141 8.94855C20.6108 8.85341 20.6108 8.77012 20.6108 8.57973L19.6805 4.76067C19.6805 4.66547 19.5838 4.58218 19.4993 4.76067L16.8653 7.8659C16.7687 7.9611 16.5874 8.04433 16.4908 7.9611L12.8299 6.16457C12.7332 6.16457 12.6487 6.16457 12.6487 6.25976L13.5186 10.2216C13.5186 10.3168 13.5186 10.4952 13.3374 10.5904L9.6523 12.3631C9.55568 12.3631 9.55568 12.5416 9.6523 12.5416L13.3132 14.3381C13.4099 14.3381 13.4945 14.5166 13.4945 14.7069L12.5399 18.6093C12.5399 18.7045 12.5399 18.7877 12.7212 18.7045L16.4666 16.9913C16.5633 16.9913 16.7445 16.9913 16.8412 17.0864L19.3543 20.2036C19.4509 20.2987 19.5355 20.2987 19.5355 20.2036L20.49 16.325C20.49 16.2298 20.6712 16.1465 20.7679 16.1465H24.7912C24.8879 16.1465 24.9724 16.0513 24.8879 15.968L22.3748 12.7319C22.2781 12.6368 22.2781 12.4583 22.3748 12.3631L24.9724 9.24599C25.1416 9.11513 25.0449 9.03184 24.9604 9.03184Z" fill="url(#paint0_radial_3579_20384)"/>
<rect x="0.5" y="0.5" width="34" height="23" rx="2.75" stroke="#F6F7F8"/>
<defs>
<radialGradient id="paint0_radial_3579_20384" cx="0" cy="0" r="1" gradientUnits="userSpaceOnUse" gradientTransform="translate(19.4913 18.4934) scale(14.0168 13.8026)">
<stop offset="0.4905" stop-color="#DE1F26"/>
<stop offset="0.7361" stop-color="#E84B4F"/>
<stop offset="1" stop-color="#F27778"/>
</radialGradient>
</defs>
</svg>
