<svg width="35" height="24" fill="none" xmlns="http://www.w3.org/2000/svg"><rect x=".416667" y=".416667" width="34.1667" height="23.1667" rx="2.2901" fill="#fff" stroke="#F6F7F8" stroke-width=".833333"/><path fill-rule="evenodd" clip-rule="evenodd" d="M4 11.9202c0-1.6037 5.29821-2.91996 13.4834-2.91996C25.7019 9.00024 31 10.3165 31 11.9202c0 1.6483-5.2981 2.9535-13.5166 2.9535C9.29821 14.8735 4 13.5683 4 11.9202z" fill="#335BA5"/><path fill-rule="evenodd" clip-rule="evenodd" d="M8.64574 14.2209c0-.0333-.03318-.0333-.07743-.0333C5.68132 13.6345 4 12.8272 4 11.92 4 10.3163 9.29821 9 17.4834 9h.6637c0 .06637-.0774.1438-.2211.1438h-.4424c-6.9796 0-11.47029 1.2389-11.47029 2.7762 0 .9845.87384 1.6037 2.48864 2.0794.06636.0001.17682.0779.14379.2215z" fill="#8FBB4F"/><path fill-rule="evenodd" clip-rule="evenodd" d="M26.3322 9.65283h.0664c2.9202.55307 4.6013 1.34947 4.6013 2.26747 0 1.6483-5.298 2.9536-13.5166 2.9536h-.6194c0-.0996.0774-.177.2212-.177h.3982c7.0126 0 11.5147-1.2389 11.5147-2.7765 0-.9844-.8849-1.5705-2.4887-2.07937-.0774-.00015-.1771-.07758-.1771-.1882z" fill="#E0A138"/><path fill-rule="evenodd" clip-rule="evenodd" d="M21.6536 11.0024s-.0444.0774-.0444.1549c-.033.0995-.0993.1769-.3208.1438h-.2985c-.0333.0331-.1108.0665-.1438.1106v.1438c.1105.1438.3649.1438.5531.2212.1438.0332.2874.177.3208.3208.044.2211 0 .4426-.1438.5862-.3319.2544-.8075.2211-1.2722.0441.0666-.1879.0995-.3318.3207-.2653.1882.0774.3652.1105.5534 0 .033-.0333.0664-.0667.033-.1441 0-.1105-.1104-.177-.221-.2211-.2211-.0663-.5419-.1107-.6193-.3648-.0667-.2102-.0334-.4316.0774-.5752.2873-.2987.8402-.2655 1.2054-.1549zm-6.9132-.0332c.1549 0 .4093.0774.4756.3319.0775.2544.0443.3982-.1438.542-.1106.0444-.1438.0772-.2212.0772.1881.0334.2212.1108.2987.2211.0663.2878.1438.5088.2212.7301h-.4425c-.1437-.2211-.1106-.5087-.2875-.6967-.1107-.0775-.2985-.0775-.4093-.0775v.7742h-.2212c-.177 0-.2545-.1438-.2545-.3316v-1.5708h.9845v.0001zm-.5088.365v.4425h.2986c.0664-.0442.1438-.0442.177-.1106.0332-.0443.0332-.1438.0332-.1881-.0332-.1106-.0995-.1438-.2102-.1438h-.2986zm5.409-.365v.365h-.8075v.3983h.7741v.3316h-.7741v.4427h.8405v.3648h-1.0175c-.1882 0-.3318-.1438-.3318-.3648v-1.5376h1.3163zm4.1257 0v.365h-.8408v.3983h.7741v.3316h-.7741v.4427h.8408v.3648h-1.0178c-.1438 0-.3318-.1438-.3318-.3648v-1.5376h1.3496zm-6.681 1.9024h-.3319c-.3318 0-.365-.2541-.4756-.4756-.0664-.1879-.4314-1.4268-.4314-1.4268h.5088c.1438.4757.2544.9511.3982 1.4268h.0774c0-.0774.2876-1.1392.2876-1.1392l.0775-.2876h.542l-.6526 1.9024zm-7.057-.7741v-1.1283h.4756v1.9024h-.2876c-.22121 0-.39819-.1104-.47562-.2985-.11061-.1438-.36502-.6856-.47563-.8738 0 0-.07743 0-.07743.0332v1.1391h-.43139v-1.9024h.25441c.14379 0 .3982 0 .50882.2544.14379.3319.25441.5531.44245.8739 0 .0441.06639.0441.06639 0zm15.784 0v-1.1283h.4426v1.9024h-.2877c-.2211 0-.3759-.1104-.4756-.2985-.0775-.1438-.3649-.6856-.4423-.8738-.0334 0-.0775 0-.0775.0332v1.1391h-.4759v-1.9024h.2988c.1105 0 .3649 0 .4756.2544.177.3319.2875.5531.4316.8739.0442.0441.1104.0441.1104 0zm-13.2178-.7633c.0664.2213.5752 1.5374.5752 1.5374h-.542l-.1438-.4089h-.7301l-.0442.1548s-.0664.2541-.2544.2541h-.365l.73-1.9024h.3319c.2544 0 .365.1438.4424.365zm-.5199.1107c0 .0331-.177.6526-.177.6526h.4757c-.0774-.21-.1438-.4314-.2212-.6526h-.0775z" fill="#fff"/></svg>