<svg width="35" height="24" viewBox="0 0 35 24" fill="none" xmlns="http://www.w3.org/2000/svg">
<path fill-rule="evenodd" clip-rule="evenodd" d="M9.3584 2H26.4209C27.5082 2 28.3896 2.88144 28.3896 3.96875V17.0938C28.3896 18.1811 27.5082 19.0625 26.4209 19.0625H9.3584C8.27109 19.0625 7.38965 18.1811 7.38965 17.0938V3.96875C7.38965 2.88144 8.27109 2 9.3584 2ZM13.9521 21.6875C13.9521 20.9626 14.5398 20.375 15.2646 20.375H20.5146C21.2395 20.375 21.8271 20.9626 21.8271 21.6875C21.8271 22.4124 21.2395 23 20.5146 23H15.2646C14.5398 23 13.9521 22.4124 13.9521 21.6875ZM10.0146 16.4375V4.625H25.7646V16.4375H10.0146Z" fill="#6C747F"/>
<path fill-rule="evenodd" clip-rule="evenodd" d="M17.9463 11.2029L17.096 11.0841C16.4732 10.995 15.9986 10.7871 15.6822 10.4604C15.3559 10.1238 15.1977 9.64857 15.1977 9.04465C15.1977 7.99522 15.8404 7.17349 16.9527 6.91113V6.81708C16.9527 6.50027 16.9626 6.38147 17.0417 6.22801C17.1405 6.03495 17.3531 5.90625 17.625 5.90625C17.8969 5.90625 18.1095 6.03495 18.2083 6.22801C18.2874 6.38147 18.2973 6.50027 18.2973 6.81708V6.84678C18.6681 6.88638 18.9845 6.97053 19.2811 7.08439C19.7161 7.25764 20.0028 7.5596 20.0028 7.93582C20.0028 8.10412 19.9287 8.31203 19.7952 8.47043C19.6815 8.60904 19.5085 8.70804 19.291 8.70804C19.0932 8.70804 18.8658 8.61894 18.678 8.53974C18.3764 8.41103 18.0353 8.34173 17.7189 8.34173C17.1158 8.34173 16.8686 8.67834 16.8686 8.93575C16.8686 9.07435 16.8983 9.20306 17.0071 9.31196C17.096 9.40106 17.2444 9.48522 17.4915 9.51987L18.3418 9.63867C18.9746 9.72777 19.4294 9.92578 19.726 10.2228C20.1017 10.5891 20.25 11.1138 20.25 11.7672C20.25 12.9454 19.4145 13.6879 18.2973 13.9107V14.1829C18.2973 14.4997 18.2874 14.6185 18.2083 14.772C18.1095 14.965 17.8969 15.0938 17.625 15.0938C17.3531 15.0938 17.1405 14.965 17.0417 14.772C16.9626 14.6185 16.9527 14.4997 16.9527 14.1829V13.9651C16.5819 13.9354 16.2359 13.876 15.9195 13.7473C15.346 13.5196 15 13.2523 15 12.7375C15 12.5494 15.089 12.3217 15.2373 12.1732C15.3757 12.0346 15.5339 11.985 15.7119 11.985C15.8948 11.985 16.0431 12.0494 16.3842 12.193C16.7302 12.3415 17.1109 12.4504 17.541 12.4504C18.2232 12.4504 18.5494 12.2128 18.5494 11.8068C18.5494 11.6385 18.5099 11.4999 18.411 11.391C18.322 11.3019 18.1737 11.2326 17.9463 11.2029Z" fill="#6C747F"/>
</svg>
