<svg width="35" height="24" viewBox="0 0 35 24" fill="none" xmlns="http://www.w3.org/2000/svg">
<rect width="35" height="24" rx="2.70677" fill="#4C2A86"/>
<g clip-path="url(#clip0)">
<path fill-rule="evenodd" clip-rule="evenodd" d="M11.4302 15.0972C10.5988 15.8875 9.4915 16.3216 8.34451 16.3069C7.19182 16.3243 6.07804 15.8901 5.24126 15.0972C4.84754 14.7154 4.53451 14.2584 4.32074 13.7533C4.10698 13.2483 3.99683 12.7054 3.99683 12.157C3.99683 11.6086 4.10698 11.0657 4.32074 10.5606C4.53451 10.0556 4.84754 9.59859 5.24126 9.2168C6.07698 8.41913 7.19286 7.9821 8.34801 8.00004C9.495 7.98537 10.6023 8.41949 11.4337 9.20978C11.8279 9.59133 12.1413 10.0482 12.3553 10.5533C12.5694 11.0584 12.6797 11.6014 12.6797 12.15C12.6797 12.6986 12.5694 13.2415 12.3553 13.7466C12.1413 14.2517 11.8279 14.7086 11.4337 15.0902L11.4302 15.0972ZM8.34801 9.35355C7.98189 9.35001 7.61885 9.42068 7.2808 9.5613C6.94274 9.70192 6.63668 9.90957 6.38108 10.1717C6.12548 10.4339 5.92564 10.7451 5.79362 11.0866C5.6616 11.4281 5.60014 11.7928 5.61295 12.1587C5.61295 12.517 5.68351 12.8717 5.82061 13.2027C5.95771 13.5337 6.15865 13.8344 6.41198 14.0878C6.6653 14.3411 6.96604 14.542 7.29702 14.6791C7.628 14.8162 7.98275 14.8868 8.341 14.8868C8.69925 14.8868 9.054 14.8162 9.38498 14.6791C9.71596 14.542 10.0167 14.3411 10.27 14.0878C10.5233 13.8344 10.7243 13.5337 10.8614 13.2027C10.9985 12.8717 11.0691 12.517 11.0691 12.1587C11.0818 11.794 11.0208 11.4305 10.8896 11.0899C10.7585 10.7493 10.5599 10.4388 10.3058 10.1768C10.0517 9.91487 9.7473 9.70692 9.41088 9.56545C9.07447 9.42399 8.71296 9.35191 8.34801 9.35355ZM21.6727 8.97835L18.338 16.4156L18.1487 16.3806C17.1949 16.2087 17.002 15.9703 16.5567 15.0025L14.0566 9.55693H13.1168V8.23498H16.6689V9.55693H15.8203L17.8296 14.0628L19.7792 9.55693H18.7272V8.23498H21.6727V8.97835ZM29.7376 15.0972C28.8955 15.8749 27.7912 16.3068 26.6449 16.3068C25.4986 16.3068 24.3943 15.8749 23.5522 15.0972C23.1584 14.7154 22.8454 14.2584 22.6317 13.7533C22.4179 13.2483 22.3077 12.7054 22.3077 12.157C22.3077 11.6086 22.4179 11.0657 22.6317 10.5606C22.8454 10.0556 23.1584 9.59859 23.5522 9.2168C24.3943 8.43905 25.4986 8.00715 26.6449 8.00715C27.7912 8.00715 28.8955 8.43905 29.7376 9.2168C30.1327 9.59784 30.4469 10.0546 30.6615 10.5597C30.8761 11.0649 30.9867 11.6081 30.9867 12.157C30.9867 12.7058 30.8761 13.2491 30.6615 13.7542C30.4469 14.2594 30.1327 14.7161 29.7376 15.0972ZM26.6694 9.35355C26.3032 9.35003 25.94 9.42069 25.6017 9.56127C25.2635 9.70185 24.9572 9.90944 24.7013 10.1715C24.4455 10.4336 24.2453 10.7448 24.1129 11.0863C23.9805 11.4279 23.9185 11.7927 23.9309 12.1587C23.9309 12.517 24.0014 12.8717 24.1385 13.2027C24.2756 13.5337 24.4766 13.8344 24.7299 14.0878C24.9832 14.3411 25.284 14.542 25.6149 14.6791C25.9459 14.8162 26.3007 14.8868 26.6589 14.8868C27.0172 14.8868 27.3719 14.8162 27.7029 14.6791C28.0339 14.542 28.3346 14.3411 28.5879 14.0878C28.8413 13.8344 29.0422 13.5337 29.1793 13.2027C29.3164 12.8717 29.387 12.517 29.387 12.1587C29.4002 11.7942 29.3396 11.4307 29.2089 11.0902C29.0781 10.7496 28.8798 10.439 28.626 10.177C28.3722 9.915 28.068 9.707 27.7318 9.56549C27.3956 9.42398 27.0342 9.35189 26.6694 9.35355Z" fill="white"/>
</g>
<defs>
<clipPath id="clip0">
<rect width="27" height="8.41558" fill="white" transform="translate(4 8)"/>
</clipPath>
</defs>
</svg>
