<svg width="35" height="24" viewBox="0 0 35 24" fill="none" xmlns="http://www.w3.org/2000/svg">
<rect x="0.416667" y="0.416667" width="34.1667" height="23.1667" rx="2.2901" fill="white" stroke="#F6F7F8" stroke-width="0.833333"/>
<g clip-path="url(#clip0)">
<path fill-rule="evenodd" clip-rule="evenodd" d="M9.75997 12.4127L11.9593 12.4099L11.8792 12.9105L10.0398 14.6669L11.5839 14.6641L11.4939 15.2041L9.21997 15.2055L9.3156 14.6473L11.079 12.9583H9.67138L9.75997 12.4127Z" fill="#D13239"/>
<path fill-rule="evenodd" clip-rule="evenodd" d="M7.35392 11.5561C7.3061 11.5055 7.2372 11.4661 7.16126 11.4352C7.0811 11.4042 6.99251 11.3817 6.90532 11.3663C6.79563 11.3466 6.68876 11.3381 6.61282 11.3353C6.54251 11.3325 6.49751 11.3325 6.49751 11.3325H5.53563H4.81984L4.17859 15.2053H4.77765L5.01391 13.7709L6.17547 13.7766C6.17547 13.7766 6.62829 13.7948 6.94891 13.6247C7.26954 13.4545 7.35532 13.0678 7.35532 13.0678C7.35532 13.0678 7.39048 12.9244 7.42001 12.75C7.45235 12.5574 7.4847 12.3267 7.50157 12.2044C7.5086 12.151 7.51282 12.1172 7.51282 12.1172C7.51282 12.1172 7.52126 12.0778 7.52126 12.016C7.52267 11.9302 7.51001 11.8008 7.44251 11.677C7.4186 11.6335 7.39048 11.5941 7.35392 11.5561ZM6.89266 12.2395C6.89266 12.2466 6.83923 12.5574 6.76891 12.9258C6.74219 13.0664 6.63391 13.1423 6.51016 13.1691C6.30485 13.2127 6.08407 13.2042 6.08407 13.2042L5.11375 13.2014L5.3275 11.9147L6.20641 11.9175C6.20641 11.9175 6.26547 11.9161 6.34844 11.9175C6.44266 11.9189 6.56782 11.9231 6.67048 11.9372C6.75907 11.9485 6.82938 11.9667 6.85188 11.9949C6.88141 12.0314 6.89266 12.0792 6.89688 12.1214C6.90251 12.1833 6.89266 12.2353 6.89266 12.2395Z" fill="#D13239"/>
<path fill-rule="evenodd" clip-rule="evenodd" d="M14.942 11.3325H15.5186L14.8731 15.2053L14.2952 15.2039L14.942 11.3325Z" fill="#D13239"/>
<path fill-rule="evenodd" clip-rule="evenodd" d="M18.0189 12.4124L18.5716 12.411L18.767 14.3769L19.6178 12.4082L20.2998 12.4096L20.5009 14.384L21.3503 12.411H21.924L20.7062 15.2024H20.0256L19.8287 13.2477L18.9695 15.2024L18.3002 15.2052L18.0189 12.4124Z" fill="#D13239"/>
<path d="M13.8775 12.4351C13.7157 12.3831 13.4359 12.3719 13.1982 12.3747C12.969 12.3775 12.8636 12.3887 12.7778 12.407C12.7778 12.407 12.37 12.4661 12.1379 12.7529C11.9059 13.0398 11.837 13.667 11.837 13.667C11.837 13.667 11.6992 14.3603 11.74 14.5923C11.7807 14.8229 11.8525 15.0381 12.114 15.1379C12.3756 15.2392 12.5978 15.2336 12.5978 15.2336C12.5978 15.2336 13.0646 15.2701 13.4162 15.1872C13.7678 15.1042 13.9534 14.8567 13.9534 14.8567C13.9534 14.8567 14.0364 14.7498 14.0954 14.6233C14.1545 14.4967 14.1728 14.4081 14.1756 14.3969L14.2121 14.2464L13.6145 14.2478C13.6145 14.2478 13.5821 14.6429 13.2587 14.6795C12.9367 14.7161 12.7637 14.702 12.7004 14.6992C12.6386 14.6964 12.2926 14.7119 12.3207 14.4222C12.3207 14.4179 12.3207 14.4123 12.3222 14.4039C12.3376 14.0748 12.3742 13.989 12.3742 13.989L14.2515 13.9834L14.3317 13.5194C14.4245 12.9934 14.3584 12.5926 13.8775 12.4351ZM13.7523 13.4533L12.4656 13.4519L12.5162 13.2479C12.5162 13.2479 12.5612 13.0876 12.6498 13.0201C12.7398 12.9526 12.8537 12.94 12.9606 12.9301C13.0675 12.9203 13.3529 12.8992 13.585 12.947C13.6623 12.9625 13.7354 13.0061 13.7551 13.0708C13.8001 13.2226 13.7523 13.4533 13.7523 13.4533Z" fill="#D13239"/>
<path d="M12.3249 14.4095C12.3249 14.4137 12.3235 14.4179 12.3235 14.4221C12.3221 14.4447 12.3249 14.4081 12.3249 14.4095Z" fill="#D13239"/>
<path d="M15.8659 14.4107C15.8659 14.4149 15.8645 14.4191 15.8645 14.4233C15.8645 14.4459 15.8659 14.4093 15.8659 14.4107Z" fill="#D13239"/>
<path d="M17.4198 12.4364C17.2581 12.3843 16.9783 12.3731 16.7406 12.3759C16.5114 12.3787 16.4059 12.3899 16.3201 12.4082C16.3201 12.4082 15.9123 12.4673 15.6803 12.7542C15.4483 13.041 15.3794 13.6682 15.3794 13.6682C15.3794 13.6682 15.2415 14.3615 15.2823 14.5935C15.3231 14.8242 15.3948 15.0393 15.6564 15.1392C15.9179 15.2404 16.1401 15.2348 16.1401 15.2348C16.1401 15.2348 16.607 15.2714 16.9586 15.1884C17.3101 15.1054 17.4958 14.8579 17.4958 14.8579C17.4958 14.8579 17.5787 14.751 17.6378 14.6245C17.6968 14.4979 17.7151 14.4093 17.7179 14.3981L17.7545 14.2476L17.1568 14.249C17.1568 14.249 17.1245 14.6442 16.8011 14.6807C16.479 14.7173 16.3061 14.7032 16.2428 14.7018C16.1809 14.699 15.835 14.7131 15.8631 14.4248C15.8631 14.4206 15.8631 14.4149 15.8645 14.4065C15.88 14.0774 15.9165 13.9917 15.9165 13.9917L17.7939 13.986L17.874 13.522C17.9668 12.9946 17.9007 12.5924 17.4198 12.4364ZM17.289 13.4531L16.0023 13.4517L16.0529 13.2478C16.0529 13.2478 16.0979 13.0874 16.1865 13.0199C16.2751 12.9524 16.3904 12.9398 16.4973 12.9299C16.6042 12.9201 16.8897 12.899 17.1217 12.9468C17.199 12.9623 17.2722 13.0059 17.2918 13.0706C17.3368 13.221 17.289 13.4531 17.289 13.4531Z" fill="#D13239"/>
<path fill-rule="evenodd" clip-rule="evenodd" d="M22.5878 12.4125L22.9576 14.4544L24.0025 12.4111L24.5903 12.4168L23.0842 15.3347C23.0842 15.3347 22.8114 15.8635 22.6426 15.9971C22.4739 16.1307 22.3698 16.1911 22.232 16.2052C22.0942 16.2193 22.0379 16.2291 21.9058 16.2052L21.7651 16.1799L21.8523 15.6582C21.8523 15.6582 22.0858 15.7018 22.2236 15.6469C22.3628 15.5921 22.4739 15.3558 22.4739 15.3558L22.5442 15.2377L22 12.4111L22.5878 12.4125Z" fill="#D13239"/>
<path fill-rule="evenodd" clip-rule="evenodd" d="M24.8041 12.6896L25.4101 12.691L25.4467 12.4561C25.4467 12.4561 25.5114 12.0314 25.6562 11.9499C25.7026 11.9232 25.7772 11.8992 25.863 11.8838C26.0219 11.8557 26.2229 11.8528 26.3875 11.8585C26.6392 11.8669 26.7348 11.8697 26.9907 11.8992C27.2467 11.9288 27.182 12.1763 27.182 12.1763L27.1314 12.5461C27.1314 12.5461 27.1089 12.7121 27.0498 12.8147C26.9978 12.9061 26.8543 12.968 26.7714 12.9947C26.5717 13.0594 25.8883 13.2338 25.8883 13.2338L25.3511 13.3885C25.3511 13.3885 25.0206 13.4841 24.8364 13.688C24.6508 13.8933 24.5777 14.1254 24.5524 14.2463C24.527 14.3672 24.385 15.204 24.385 15.204L27.2846 15.2054L27.3817 14.626L25.0881 14.6288L25.1289 14.3925C25.1289 14.3925 25.1556 14.1493 25.2541 14.0691C25.285 14.0438 25.3005 14.01 25.4833 13.9454C25.593 13.906 25.967 13.8061 25.967 13.8061L26.8318 13.5699C26.8318 13.5699 27.3043 13.4489 27.49 13.1902C27.6756 12.9329 27.7473 12.4393 27.7473 12.4393C27.7473 12.4393 27.7979 11.9597 27.7585 11.8092C27.7206 11.6588 27.5785 11.4788 27.4056 11.4014C27.2326 11.3241 27.0526 11.2791 26.5309 11.2861C26.0092 11.2932 25.7505 11.3171 25.4861 11.4155C25.2217 11.5125 25.0684 11.6897 24.9714 11.94C24.8659 12.1777 24.8041 12.6896 24.8041 12.6896Z" fill="#B3B2B1"/>
<path fill-rule="evenodd" clip-rule="evenodd" d="M30.2632 13.7669L30.6696 11.3313H29.9496L27.7081 13.7388L27.6068 14.3491H29.5671L29.4237 15.2041L30.0256 15.2055L30.1676 14.3491L30.7231 14.3505L30.8229 13.7669H30.2632ZM29.6642 13.7683L28.3971 13.7669L29.9398 12.123L29.6642 13.7683Z" fill="#B3B2B1"/>
<path fill-rule="evenodd" clip-rule="evenodd" d="M8.62512 11.6517H10.4715C10.4715 11.6517 10.885 11.317 11.1789 11.1019C11.4728 10.8867 12.0072 10.5478 12.0072 10.5478L10.9637 10.0598C10.9637 10.0598 10.082 10.6054 9.70793 10.8628C9.34512 11.1004 8.62512 11.6517 8.62512 11.6517Z" fill="#B3B2B1"/>
<path fill-rule="evenodd" clip-rule="evenodd" d="M12.5936 10.2031L11.7372 9.62658C11.7372 9.62658 12.512 9.18642 13.5428 8.77579C14.5722 8.36517 15.122 8.1936 15.122 8.1936L15.2964 9.01064C15.2964 9.01064 14.305 9.34251 13.7369 9.61111C13.1491 9.86142 12.5936 10.2031 12.5936 10.2031Z" fill="#B3B2B1"/>
<path fill-rule="evenodd" clip-rule="evenodd" d="M15.9292 8.83231L15.7802 7.99559C15.7802 7.99559 16.8377 7.71434 17.8052 7.53434C18.7741 7.35434 20.058 7.26855 20.058 7.26855L19.6333 8.5609C19.6333 8.5609 18.5041 8.40622 17.4437 8.55106C16.6183 8.6495 15.9292 8.83231 15.9292 8.83231Z" fill="#B3B2B1"/>
<path fill-rule="evenodd" clip-rule="evenodd" d="M20.3055 8.67055L21.0199 7.23476C21.0199 7.23476 22.5851 7.20382 23.9351 7.41336C25.2851 7.62148 26.5198 7.94211 26.493 7.95617L23.0702 9.74634C23.0702 9.74634 22.2701 9.24009 21.2773 8.9293C20.7148 8.76337 20.3055 8.67055 20.3055 8.67055Z" fill="#B3B2B1"/>
<path fill-rule="evenodd" clip-rule="evenodd" d="M23.6833 10.1357L24.4357 10.7066H30.619C30.619 10.7066 30.6063 10.5069 30.4418 10.2229C30.3391 10.0457 30.1521 9.85725 29.9566 9.66178C29.8849 9.59146 29.6008 9.36928 29.3871 9.23006C28.8415 8.87568 28.5363 8.73928 27.9696 8.48193L23.6833 10.1357Z" fill="#B3B2B1"/>
<path d="M9.02592 12.4099C8.79389 12.4099 8.57452 12.5013 8.38749 12.604L8.41983 12.4099H7.8053L7.31311 15.1901H7.92905L8.20186 13.6502C8.25811 13.338 8.49155 12.9513 8.94717 12.9513L9.26499 12.9499L9.36061 12.4099H9.02592Z" fill="#D13239"/>
</g>
<defs>
<clipPath id="clip0">
<rect width="27" height="9.45" fill="white" transform="translate(4 7)"/>
</clipPath>
</defs>
</svg>
