<svg width="35" height="24" fill="none" xmlns="http://www.w3.org/2000/svg"><rect x=".416667" y=".416667" width="34.1667" height="23.1667" rx="2.2901" fill="#fff" stroke="#F6F7F8" stroke-width=".833333"/><g clip-path="url(#clip0)"><path d="M9.40921 8.57628c.06013-.00023.11972.01141.17535.03426.05562.02286.10619.05647.14879.09891s.07641.09287.09947.14841c.02307.05554.03494.11508.03494.17522-.0002.02117-.00184.0423-.00492.06325.00031.08891-.02533.17598-.07379.25053L7.71062 12.549h3.53248c.012 0 .0239-.0023.0351-.007.0111-.0046.0212-.0113.0297-.0198.0085-.0086.0153-.0187.0199-.0298.0046-.0111.007-.023.007-.0351V7.13982c0-.02432-.0097-.04765-.0269-.06485-.0172-.0172-.0405-.02686-.0648-.02686H8.67587c-.02432 0-.04765.00966-.06485.02686-.0172.0172-.02686.04053-.02686.06485v.64163c0 .04864-.01933.0953-.05373.1297-.03439.03439-.08105.05372-.1297.05372h-.54991c-.0241.00005-.04797-.00467-.07025-.01387-.02227-.0092-.04251-.02271-.05955-.03975-.01705-.01704-.03055-.03728-.03976-.05956-.0092-.02227-.01391-.04614-.01386-.07024V6.62012c0-.12963.05149-.25395.14315-.34561.09167-.09167.21599-.14316.34562-.14316h3.60623c.1297 0 .254.05148.3458.14314.0917.09165.1433.21597.1434.34563V12.977c-.0001.1297-.0517.254-.1434.3456-.0918.0917-.2161.1432-.3458.1432H6.90314c-.12116 0-.23734-.0481-.32301-.1338-.08567-.0857-.13379-.2019-.13379-.323.00022-.0213.00187-.0425.00492-.0636-.00053-.0888.02513-.1759.07379-.2502l2.07808-3.20216H5.00847c-.0242 0-.04742.00956-.0646.02661-.01718.01705-.02692.0402-.02711.0644v5.01245c0 .0244.00966.0477.02686.0649s.04053.0269.06485.0269h2.56721c.02433 0 .04765-.0097.06485-.0269.0172-.0172.02687-.0405.02687-.0649v-.3359c0-.0486.01932-.0953.05372-.1297.0344-.0344.08105-.0537.1297-.0537h.54991c.04865 0 .09531.0193.1297.0537.0344.0344.05373.0811.05373.1297v1.1596c-.0001.1296-.05167.254-.14339.3456-.09172.0917-.21608.1432-.34574.1432h-3.6059c-.12936 0-.25346-.0513-.34512-.1426-.09167-.0912-.14345-.2151-.14401-.3445V9.06505c.00009-.12966.05167-.25398.14339-.34563.09171-.09166.21607-.14314.34574-.14314h4.92008zM6.29032 15.5411c.04798-.0006.09473-.0153.13435-.0424.03963-.0271.07036-.0653.08832-.1098.01796-.0445.02236-.0933.01263-.1403-.00972-.047-.03314-.09-.06729-.1237-.03415-.0337-.07751-.0566-.12462-.0657-.04711-.0091-.09587-.0041-.14013.0144-.04426.0186-.08205.0498-.10861.0898-.02655.0399-.04068.0869-.04062.1349.00009.0321.00654.0639.01897.0935.01244.0296.03061.0565.05347.0791.02287.0225.04997.0404.07975.0524.02978.0121.06166.0181.09378.0178zM14.9002 6.13184c.6634 0 1.0767.39987 1.0767 1.05415s-.4087 1.05028-1.0767 1.05028h-.6399v.83595c0 .13598-.0439.17991-.1802.17991h-.3577c-.1364 0-.1803-.04393-.1803-.17991V6.3121c0-.13634.0439-.18026.1803-.18026h1.1778zm-.0748 1.44946c.2593 0 .4086-.14513.4086-.39566 0-.25054-.1493-.40445-.4086-.40445h-.5651v.80011h.5651zM17.1899 6.90112c.6546 0 .98.30746.98.92731v1.11634c0 .15391-.0351.20205-.1627.25476-.1757.07917-.4526.11876-.8307.11876-.3823 0-.6416-.05727-.7867-.17569-.1451-.11841-.2196-.29903-.2196-.54956 0-.54043.2856-.72069 1.0239-.72069.1142 0 .2196.00457.312.00878V7.7845c0-.2154-.1142-.32538-.3384-.32538-.1626 0-.2811.05271-.3647.16269-.0748.1012-.1012.11877-.2242.07028l-.2417-.1012c-.11-.04814-.1406-.12298-.0879-.23262.1627-.30324.4747-.4568.9407-.4568v-.00035zm.3162 1.48565c-.0263 0-.0836 0-.1714-.00421-.0879-.00422-.1536-.00457-.1975-.00457-.233 0-.3033.07484-.3033.21083s.0657.2154.2945.2154c.116.00287.232-.00301.3472-.01757.0217-.00457.0305-.01757.0305-.03092v-.36896zM20.4508 6.96704c.1184 0 .1581.03936.1581.16234v2.15785c0 .61106-.3163.97577-1.0021.97577-.4568 0-.7692-.1363-.9403-.40863-.0749-.10998-.0531-.19783.0657-.25932l.2505-.12756c.123-.0657.1803-.04814.2551.05728.0749.10542.1975.16691.356.16691.2329 0 .3513-.11877.3513-.35595v-.18027c-.1348.02377-.2717.03412-.4086.03093-.6325 0-.9487-.30325-.9487-.90974V7.12938c0-.12298.0397-.16234.1627-.16234h.3383c.1234 0 .1627.03936.1627.16234v1.12443c0 .21962.123.3296.3735.3296.1077.00003.2151-.01021.3208-.03057V7.12938c0-.12298.0397-.16234.1627-.16234h.3423zM22.4104 6c.1188 0 .1581.03936.1581.16269v.78218c.1357-.02972.2743-.04445.4133-.04392.6324 0 .9487.32503.9487.90973v.54922c0 .63741-.343.95822-1.0331.95822-.3425 0-.6193-.04837-.8306-.14512-.1406-.07028-.1624-.10542-.1624-.24597V6.16269c0-.12333.0394-.16269.1624-.16269h.3436zm.8525 1.8149c0-.21505-.123-.32081-.369-.32081-.1102.00095-.2197.01728-.3254.04849v1.12443c-.0006.00461.0003.00932.0028.01329.0024.00398.0062.00698.0106.00849.0915.02512.1862.03696.2811.03514.2681 0 .3999-.12299.3999-.36474V7.8149zM26.1812 6.96704c.1184 0 .1581.03936.1581.16234v2.15785c0 .61106-.3163.97577-1.0022.97577-.4568 0-.7688-.1363-.9403-.40863-.0748-.10998-.0527-.19783.0661-.25932l.2502-.12756c.1233-.0657.1802-.04814.2551.05728.0748.10542.1978.16691.3559.16691.233 0 .3514-.11877.3514-.35595v-.18027c-.1349.02377-.2717.03412-.4086.03093-.6325 0-.9488-.30325-.9488-.90974V7.12938c0-.12298.0394-.16234.1627-.16234h.3384c.123 0 .1623.03936.1623.16234v1.12443c0 .21962.1234.3296.3735.3296.1077.00003.2151-.01021.3209-.03057V7.12938c0-.12298.0397-.16234.1627-.16234h.3426zM17.3066 11.1001c.6546 0 .98.3075.98.9273v1.1163c0 .1536-.0351.2021-.1627.2548-.1757.0792-.4526.1188-.8307.1188-.3823 0-.6416-.0573-.7867-.1757s-.2196-.2991-.2196-.5496c0-.5408.2856-.7207 1.0239-.7207.1142 0 .2196.0042.312.0088v-.0966c0-.2154-.1142-.3254-.3384-.3254-.1626 0-.2811.0527-.3647.1627-.0748.1012-.1012.1188-.2242.0703l-.2417-.1012c-.11-.0482-.1406-.123-.0879-.233.1627-.3032.4744-.4568.9407-.4568zm.3162 1.4853c-.0263 0-.0836 0-.1714-.0042-.0879-.0042-.1536-.0046-.1979-.0046-.2326 0-.3032.0749-.3032.2108 0 .136.066.2154.2944.2154.116.0031.2321-.0028.3472-.0175.0221-.0042.0309-.0176.0309-.0306v-.3693zM19.7586 11.1001c.6325 0 .9487.3032.9487.9097v1.2787c0 .1234-.0394.1627-.1581.1627h-.3426c-.123 0-.1627-.0393-.1627-.1627v-1.2569c0-.2196-.123-.3296-.3735-.3296-.104-.0012-.2076.0122-.3078.0397-.0088 0-.013.0042-.013.0176v1.5292c0 .1234-.0398.1627-.1627.1627h-.3384c-.123 0-.1627-.0393-.1627-.1627V11.513c0-.1448.0351-.1975.1757-.2548.2551-.1054.554-.1581.8967-.1581M23.1687 13.2532c.0748.1406.0485.1978-.1097.1978h-.3036c-.189 0-.2329-.0221-.2899-.1493l-.2329-.5408c-.0482-.1184-.1452-.1757-.2811-.1757h-.1539v.6989c0 .1276-.0398.1669-.1673.1669h-.3296c-.1272 0-.1669-.0393-.1669-.1669v-2.9182c0-.1276.0397-.1669.1669-.1669h.3296c.1275 0 .1673.0393.1673.1669v1.6304h.1184l.4965-.6989c.0745-.1184.123-.1318.312-.1318h.2945c.1623 0 .202.0661.1096.1936l-.5886.804c.0882.0619.1715.1673.246.3163l.3827.7737zM25.199 11.1001c.6547 0 .98.3075.98.9273v1.1163c0 .1536-.0351.2021-.1626.2548-.1757.0792-.4526.1188-.8307.1188-.3823 0-.6413-.0573-.7864-.1757s-.22-.2991-.22-.5496c0-.5408.2857-.7207 1.024-.7207.1142 0 .2199.0042.312.0088v-.0966c0-.2154-.1142-.3254-.3384-.3254-.1623 0-.2811.0527-.3647.1627-.0745.1012-.1009.1188-.2242.0703l-.2428-.1012c-.11-.0482-.1406-.123-.0882-.233.1627-.3032.4747-.4568.9406-.4568h.0014zm.3149 1.4853c-.0264 0-.0833 0-.1711-.0042-.0879-.0042-.154-.0046-.1979-.0046-.2329 0-.3032.0749-.3032.2108 0 .136.066.2154.2944.2154.116.0031.2321-.0028.3472-.0175.0218-.0042.0306-.0176.0306-.0306v-.3693zM27.6481 11.1001c.6462 0 .9582.325.9582.9097v.5538c0 .6195-.3429.9537-1.0155.9537-.1167-.0019-.233-.0152-.3471-.0397v.7779c0 .123-.0394.1627-.1581.1627h-.3441c-.1233 0-.1626-.0397-.1626-.1627v-2.7643c0-.1451.0351-.1978.1756-.2548.2376-.0924.5363-.1363.8922-.1363h.0014zm.2885.9136c0-.2154-.123-.3208-.3689-.3208-.1019-.0007-.2036.0097-.3033.0309-.0067.0016-.0127.0055-.0168.0112-.004.0056-.0059.0125-.0053.0194v1.1427c.0973.0163.1957.0251.2944.0263.2681 0 .3999-.1184.3999-.3601v-.5496zM30.0417 11.1001c.6462 0 .9583.325.9583.9097v.5538c0 .6195-.343.9537-1.0155.9537-.1167-.0019-.2328-.0152-.3469-.0397v.7779c0 .123-.0397.1627-.1584.1627h-.343c-.123 0-.1623-.0397-.1623-.1627v-2.7643c0-.1451.0351-.1978.1757-.2548.2375-.0924.5362-.1363.8921-.1363zm.2903.9136c0-.2154-.1234-.3208-.3693-.3208-.1019-.0007-.2036.0097-.3033.0309-.0067.0017-.0125.0056-.0165.0113-.004.0056-.0059.0124-.0053.0193v1.1427c.0974.016.1958.0245.2945.0253.2681 0 .4002-.1184.4002-.3602l-.0003-.5485zM14.955 10.3284c.5875 0 .941.3046.941.8345 0 .2959-.1019.5123-.3046.6539v.0176c.2811.1191.4237.3756.4237.7597 0 .2737-.0969.486-.287.6402-.1901.1543-.446.2298-.7552.2298h-1.259c-.1367 0-.1809-.0443-.1809-.1809v-2.7739c0-.137.0442-.1809.1809-.1809h1.2411zm-.1103 1.2365c.2164 0 .3225-.1016.3225-.3004 0-.1989-.1054-.3001-.3225-.3001h-.5918v.6005h.5918zm.0833.623h-.6751v.6402h.6751c.2206 0 .3311-.1054.3313-.3162 0-.2165-.1107-.3223-.3313-.3223" fill="#130F10"/><path d="M16.5992 15.2456h-1.3461v2.4193h1.3461v-2.4193z" fill="#FF5F00"/><path d="M15.3385 16.4554c-.0002-.2331.0526-.4631.1544-.6727.1019-.2096.2501-.3933.4335-.5371-.227-.1785-.4996-.2895-.7867-.3203-.2871-.0308-.5771.0197-.8368.1459-.2597.1262-.4786.3229-.6318.5676-.1532.2448-.2345.5277-.2345.8164 0 .2887.0813.5716.2345.8164.1532.2447.3721.4414.6318.5676.2597.1262.5497.1768.8368.1459.2871-.0308.5597-.1418.7867-.3203-.1834-.1437-.3316-.3274-.4334-.5369-.1019-.2096-.1547-.4395-.1545-.6725z" fill="#EB001B"/><path d="M18.4156 16.4553c.0002.2888-.0808.5718-.2339.8166-.1531.2449-.372.4418-.6317.568-.2597.1263-.5497.177-.8368.1462-.2871-.0308-.5598-.1418-.7868-.3203.1831-.144.3311-.3277.4328-.5372.1018-.2096.1547-.4395.1547-.6724 0-.233-.0529-.4629-.1547-.6724-.1017-.2095-.2497-.3933-.4328-.5373.227-.1784.4996-.2894.7866-.3202.2871-.0308.577.0197.8367.1459.2597.1262.4786.323.6317.5677.1531.2448.2343.5277.2342.8164v-.001zm-.1469.9533v-.0495h.0201v-.0095h-.051v.0102h.02v.0495l.0109-.0007zm.0988 0v-.059h-.0155l-.0179.0411-.0179-.0411h-.0148v.0597h.0113v-.0457l.0165.0387h.0116l.0168-.0387v.045h.0099z" fill="#F79E1B"/><path d="M21.0622 16.9737v-.6431c0-.2417-.1539-.4044-.4024-.4065-.0707-.0047-.1413.0097-.2045.0417-.0633.0319-.1167.0803-.1549.1399-.0349-.0578-.0848-.1052-.1443-.1372-.0596-.032-.1266-.0473-.1941-.0444-.0589-.003-.1175.0094-.1701.036-.0525.0267-.0972.0666-.1297.1158v-.1262h-.2224v1.024h.2246v-.5675c0-.1757.0987-.2716.2505-.2716s.2228.0962.2228.2695v.5696h.2245v-.5675c0-.1757.103-.2716.2505-.2716.1476 0 .2249.0962.2249.2695v.5696h.2246zm3.3265-1.0233h-.3637v-.3106h-.2249v.3106h-.2076v.2045h.2076v.4667c0 .2379.0921.3791.3553.3791.0984.0003.1949-.0273.2783-.0794l-.064-.1904c-.0597.0357-.1275.0556-.1971.0579-.1114 0-.1476-.0685-.1476-.1714v-.4625h.3637v-.2045zm1.8975-.0256c-.0543-.0017-.108.0114-.1555.0377-.0475.0264-.087.065-.1144.112v-.1241h-.2203v1.0233h.2224v-.5728c0-.169.0731-.2632.2186-.2632.0481-.0009.0959.0079.1405.0257l.0686-.2109c-.0509-.0182-.1045-.0276-.1585-.0277h-.0014zm-2.8705.1054c-.1262-.0744-.271-.1109-.4174-.1054-.259 0-.4262.124-.4262.3275 0 .1669.1243.2695.3534.3018l.1055.0148c.1219.0172.1799.0492.1799.1071 0 .0791-.0815.1241-.2333.1241-.1221.0039-.242-.0332-.3405-.1054l-.1055.1732c.13.0897.2853.1354.4431.1304.2952 0 .4667-.1406.4667-.3342 0-.1796-.135-.2737-.3577-.3061l-.1054-.0147c-.0963-.013-.1736-.0324-.1736-.1009 0-.0748.0731-.1198.195-.1198.112.0016.2217.0319.3187.0878l.0973-.1802zm5.9637-.1054c-.0543-.0017-.108.0114-.1555.0377-.0475.0264-.087.065-.1143.112v-.1241h-.2204v1.0233h.2225v-.5728c0-.169.0731-.2632.2185-.2632.0481-.0009.0959.0079.1406.0257l.0703-.2109c-.0509-.0182-.1045-.0276-.1585-.0277h-.0032zm-2.8683.5372c0 .3103.2161.5373.5457.5373.1336.0066.2649-.0368.3682-.1219l-.1071-.1799c-.077.0586-.1707.0908-.2675.092-.1778-.0021-.3081-.1307-.3081-.3275 0-.1967.1303-.3253.3081-.3274.0968.001.1906.0333.2675.092l.1071-.1799c-.1032-.0852-.2346-.1287-.3682-.1219-.3296 0-.5457.2266-.5457.5372zm2.0847 0v-.5116h-.2224v.1241c-.0379-.0491-.0871-.0883-.1434-.1143-.0562-.0261-.1179-.0382-.1799-.0354-.287 0-.5116.2245-.5116.5372 0 .3128.226.5363.513.5363.062.0026.1237-.0097.1799-.0358.0563-.0261.1054-.0653.1434-.1143v.1244h.2221l-.0011-.5106zm-.8282 0c0-.1799.1177-.3274.3103-.3274.1841 0 .3082.1405.3082.3274 0 .187-.1241.3275-.3082.3275-.1926 0-.3103-.1479-.3103-.3275zm-2.6846-.5372c-.2997 0-.5095.2182-.5095.5372 0 .3254.2186.5373.5247.5373.1522.0056.3012-.0448.4188-.1416l-.1093-.1648c-.0848.0671-.1895.1042-.2976.1054-.1434 0-.2737-.0664-.3061-.2505h.7601c.0021-.0278.0042-.0555.0042-.0854-.0021-.3191-.1989-.5373-.486-.5373l.0007-.0003zm-.0042.1989c.1434 0 .2355.0899.259.2484h-.5316c.0235-.1479.1135-.2484.2719-.2484h.0007zm5.5849.3383v-.9227h-.2227v.5352c-.0379-.049-.0871-.0882-.1433-.1143-.0561-.026-.1178-.0382-.1797-.0354-.287 0-.5116.2245-.5116.5372 0 .3128.2238.5363.5109.5363.0619.0027.1236-.0096.1798-.0357.0562-.0261.1053-.0653.1432-.1144v.1244h.2227l.0007-.5106zm.2601.4171c.0089 0 .0177.0017.026.005.0077.0034.0147.0081.0207.014.0062.0059.0112.0131.0145.021.0033.0079.005.0164.0048.025 0 .0086-.0017.0171-.0049.025-.0034.0078-.0083.0148-.0144.0207-.006.0059-.013.0107-.0207.0141-.0083.0035-.0171.0052-.026.0052-.009 0-.0178-.0017-.026-.0052-.0079-.0033-.0151-.0081-.0211-.0141-.006-.0059-.0108-.013-.0141-.0207-.0035-.0079-.0053-.0165-.0053-.0251 0-.0087.0018-.0172.0053-.0252.0033-.0077.0081-.0147.0141-.0207s.0132-.0107.0211-.014c.008-.0032.0166-.0049.0253-.005h.0007zm0 .1156c.0067.0001.0135-.0013.0196-.0042.006-.0024.0113-.006.0158-.0105.0047-.0046.0084-.0101.0109-.0162.0026-.0062.0039-.0129.0039-.0197 0-.0067-.0013-.0134-.0039-.0196-.0024-.0061-.0061-.0116-.0109-.0162-.0045-.0045-.0099-.0082-.0158-.0109-.0126-.0051-.0267-.0051-.0393 0-.006.0026-.0115.0063-.0162.0109-.0047.0046-.0084.0101-.0109.0162-.0025.0062-.0039.0129-.0038.0196 0 .0068.0013.0135.0038.0197.0026.0061.0063.0116.0109.0162.0096.009.022.0142.0352.0147h.0007zm.0038-.0811c.0064-.0004.0128.0014.0179.0052.0021.0017.0038.0039.0049.0063.0011.0025.0016.0051.0015.0078 0 .0023-.0004.0045-.0012.0066-.0009.0022-.0021.0041-.0038.0057-.004.0035-.009.0056-.0144.006l.0197.0228h-.0151l-.0186-.0225h-.0056v.0225h-.013v-.0604h.0277zm-.0147.0112v.0162h.0147c.0029.0001.0057-.0006.0081-.0021.001-.0006.0019-.0015.0024-.0026.0006-.001.0009-.0022.0008-.0034 0-.0012-.0002-.0024-.0008-.0034-.0006-.0011-.0014-.002-.0024-.0026-.0024-.0015-.0052-.0022-.0081-.0021h-.0147zm-1.0777-.4628c0-.1799.1177-.3274.3106-.3274.1841 0 .3082.1405.3082.3274 0 .187-.1241.3275-.3082.3275-.1929 0-.3106-.1479-.3106-.3275zm-7.5197 0v-.5116h-.2224v.1241c-.0379-.0491-.0871-.0883-.1433-.1143-.0563-.0261-.118-.0382-.18-.0354-.2867 0-.5116.2245-.5116.5372 0 .3128.226.5363.5127.5363.062.0026.1236-.0097.1799-.0358.0562-.0261.1054-.0653.1434-.1143v.1244h.2224l-.0011-.5106zm-.8282 0c0-.1799.1177-.3274.3103-.3274.1841 0 .3082.1405.3082.3274 0 .187-.1241.3275-.3082.3275-.1915 0-.3092-.1479-.3092-.3275h-.0011z" fill="#1E1A1B"/></g><defs><clipPath id="clip0"><path fill="#fff" transform="translate(4 6)" d="M0 0h27v11.9938H0z"/></clipPath></defs></svg>