<svg width="35" height="24" viewBox="0 0 35 24" fill="none" xmlns="http://www.w3.org/2000/svg">
<rect x="0.416667" y="0.416667" width="34.1667" height="23.1667" rx="2.2901" fill="white" stroke="#F6F7F8" stroke-width="0.833333"/>
<path d="M20.1848 15.9764H19.9417V15.3013C19.8162 15.3781 19.6854 15.4458 19.5502 15.5039C19.5047 15.4261 19.4452 15.3574 19.3746 15.3013C19.572 15.2437 19.7589 15.1548 19.9282 15.038C20.0836 14.9256 20.2242 14.794 20.3468 14.6465L20.5426 14.8018C20.4443 14.9064 20.3382 15.0034 20.2253 15.0921L20.1848 15.9764Z" fill="black"/>
<path d="M21.238 14.7004C21.3604 14.7419 21.4781 14.7962 21.5891 14.8625C21.5425 14.9228 21.4996 14.9859 21.4608 15.0515C21.3524 14.9771 21.2343 14.918 21.1097 14.876L21.238 14.7004Z" fill="black"/>
<path d="M21.8523 14.741L22.0143 14.876L21.9063 14.984L21.7443 14.8355L21.8523 14.741Z" fill="black"/>
<path d="M22.0144 14.5789L22.1764 14.7139L22.0751 14.8219L21.9131 14.7004L22.0144 14.5789Z" fill="black"/>
<path d="M21.0962 14.9976C21.2132 15.0548 21.326 15.1202 21.4337 15.1933C21.3825 15.2533 21.3352 15.3164 21.2919 15.3824C21.1921 15.3044 21.0833 15.2387 20.9679 15.1866L21.0962 14.9976Z" fill="black"/>
<path d="M21.0557 15.7671C21.3056 15.6755 21.535 15.5356 21.7308 15.3553C21.8408 15.2505 21.9403 15.1352 22.0278 15.011C22.0575 15.0855 22.1093 15.1492 22.1763 15.1933C22.0951 15.3082 22.0023 15.4145 21.8995 15.5106C21.7012 15.6978 21.473 15.8506 21.2244 15.9629V15.9966L21.0557 15.7671Z" fill="black"/>
<path d="M23.8169 15.2336H22.5814V15.4767H23.8169V15.2336Z" fill="black"/>
<path d="M18.7536 15.0854C18.7093 15.0867 18.6655 15.0748 18.628 15.0511C18.5905 15.0275 18.5609 14.9932 18.543 14.9526C18.5251 14.912 18.5197 14.8671 18.5275 14.8234C18.5354 14.7797 18.556 14.7394 18.5869 14.7076C18.6178 14.6758 18.6574 14.6539 18.7008 14.6447C18.7442 14.6355 18.7894 14.6395 18.8305 14.6562C18.8716 14.6728 18.9068 14.7014 18.9316 14.7381C18.9563 14.7749 18.9696 14.8182 18.9696 14.8626C18.9696 14.9205 18.9471 14.9762 18.9068 15.0178C18.8664 15.0594 18.8115 15.0836 18.7536 15.0854ZM18.7536 14.7546C18.7249 14.7546 18.6975 14.7659 18.6772 14.7862C18.6569 14.8065 18.6456 14.8339 18.6456 14.8626C18.6473 14.89 18.6594 14.9158 18.6795 14.9346C18.6996 14.9534 18.7261 14.9639 18.7536 14.9638C18.7804 14.9638 18.8062 14.9532 18.8252 14.9342C18.8442 14.9152 18.8549 14.8894 18.8549 14.8626C18.8549 14.8351 18.8445 14.8086 18.8256 14.7885C18.8068 14.7684 18.781 14.7563 18.7536 14.7546Z" fill="black"/>
<path d="M19.5906 18.5215C19.7562 18.6496 19.9622 18.7143 20.1712 18.7038C20.5059 18.6992 20.8284 18.5773 21.0826 18.3595V18.8321C20.762 19.0594 20.3748 19.1734 19.9822 19.1561C19.7709 19.1582 19.5608 19.124 19.3611 19.0549C19.1885 18.9932 19.0318 18.894 18.902 18.7646C18.79 18.6483 18.7024 18.5107 18.6444 18.3599C18.5864 18.2092 18.5592 18.0484 18.5645 17.8869C18.5605 17.7113 18.5927 17.5366 18.659 17.3739C18.7176 17.222 18.8072 17.084 18.9223 16.9688C19.0384 16.8501 19.1789 16.7579 19.3341 16.6988C19.5025 16.6358 19.6809 16.6038 19.8607 16.6042C20.0311 16.5995 20.2006 16.63 20.3586 16.6939C20.5166 16.7578 20.6597 16.8537 20.7788 16.9756C20.9051 17.113 21.0015 17.2752 21.0619 17.4518C21.1223 17.6285 21.1455 17.8157 21.1299 18.0017H19.3544C19.3565 18.0989 19.3785 18.1945 19.4192 18.2828C19.4598 18.3711 19.5182 18.45 19.5906 18.5148V18.5215ZM20.448 17.5967C20.4384 17.4466 20.379 17.304 20.2792 17.1916C20.1768 17.1009 20.0447 17.0509 19.9079 17.0509C19.7711 17.0509 19.6391 17.1009 19.5366 17.1916C19.4354 17.3026 19.3779 17.4465 19.3746 17.5967H20.448Z" fill="#0F298F"/>
<path d="M25.6127 18.9941C25.39 19.1499 25.1212 19.226 24.8498 19.2102C24.5384 19.2107 24.2303 19.1463 23.9452 19.0211V18.4676C24.2005 18.592 24.4784 18.6632 24.7621 18.6768C24.8229 18.6845 24.8846 18.6801 24.9436 18.6639C25.0027 18.6477 25.058 18.6199 25.1064 18.5823C25.121 18.5716 25.1324 18.5572 25.1395 18.5406C25.1467 18.524 25.1492 18.5057 25.1469 18.4878C25.1469 18.3393 24.9444 18.2583 24.7013 18.1638C24.3435 18.0287 23.8912 17.8532 23.8912 17.3536C23.8898 17.2637 23.9064 17.1743 23.94 17.0908C23.9736 17.0074 24.0236 16.9314 24.087 16.8676C24.3216 16.6631 24.627 16.5589 24.9376 16.5773C25.2207 16.5702 25.5012 16.6328 25.7545 16.7595V17.3199C25.5001 17.16 25.2103 17.0649 24.9106 17.0431C24.7756 17.0431 24.6203 17.0768 24.6203 17.2456C24.6203 17.4144 24.7891 17.4144 25.0051 17.5022C25.3764 17.6507 25.8828 17.8465 25.8828 18.3865C25.8875 18.5018 25.8657 18.6165 25.8188 18.7219C25.772 18.8273 25.7014 18.9205 25.6127 18.9941Z" fill="#0F298F"/>
<path d="M16.0802 19.9999H15.2633L15.8506 18.7172V18.7104L14.892 16.6514H15.7088L16.2287 17.9138L16.2354 17.9206L16.789 16.6514H17.5924L16.0802 19.9999Z" fill="#0F298F"/>
<path d="M27.0844 19.9999H26.2743L26.8616 18.7172V18.7104L25.8962 16.6514H26.7199L27.2397 17.9138V17.9206H27.2465L27.8 16.6514H28.6034L27.0844 19.9999Z" fill="#0F298F"/>
<path d="M22.9189 19.0954C22.8464 19.0435 22.7959 18.9665 22.7772 18.8793C22.5425 19.0584 22.2555 19.1557 21.9603 19.1561C21.7714 19.1581 21.5894 19.0853 21.454 18.9536C21.3999 18.902 21.3566 18.8403 21.3265 18.772C21.2963 18.7036 21.28 18.63 21.2784 18.5553C21.2784 17.9882 21.6835 17.8802 22.6287 17.5629H22.7097C22.7168 17.51 22.7127 17.4562 22.6976 17.405C22.6825 17.3538 22.6567 17.3063 22.6219 17.2658C22.5758 17.2236 22.5213 17.1916 22.462 17.1718C22.4026 17.152 22.3398 17.145 22.2776 17.1511C22.1119 17.152 21.9484 17.1889 21.7983 17.2591C21.6399 17.3319 21.4958 17.4325 21.373 17.5561V16.935C21.694 16.7389 22.0634 16.636 22.4396 16.638C22.7479 16.6092 23.0552 16.7012 23.297 16.8945C23.358 16.9595 23.4055 17.0359 23.4367 17.1193C23.468 17.2028 23.4825 17.2916 23.4793 17.3806V18.508C23.4751 18.5586 23.4895 18.609 23.5198 18.6498C23.5437 18.6718 23.5751 18.6838 23.6076 18.6836C23.6707 18.6809 23.7318 18.6597 23.7831 18.6228V19.0279C23.5941 19.1238 23.3871 19.179 23.1755 19.1899C23.075 19.1961 22.9747 19.1751 22.8852 19.1291L22.9189 19.0954ZM22.7029 17.9477C22.5245 18.0066 22.3526 18.0835 22.1898 18.1772C22.1392 18.2087 22.0972 18.2524 22.0677 18.3043C22.0382 18.3562 22.0222 18.4146 22.0211 18.4743C22.0208 18.5097 22.0279 18.5447 22.0418 18.5773C22.0557 18.6098 22.0763 18.6391 22.1021 18.6633C22.1248 18.6869 22.1521 18.7056 22.1822 18.7184C22.2124 18.7311 22.2448 18.7377 22.2776 18.7376C22.4397 18.7285 22.593 18.6614 22.7097 18.5485V17.9544L22.7029 17.9477Z" fill="#0F298F"/>
<path d="M18.2877 17.8396H17.3088V18.3122H18.2877V17.8396Z" fill="#0F298F"/>
<path d="M14.2574 19.0954C14.1849 19.0436 14.1343 18.9665 14.1156 18.8794C13.8828 19.0571 13.5984 19.1542 13.3055 19.1562C13.1148 19.157 12.9311 19.0845 12.7924 18.9536C12.6875 18.8472 12.6272 18.7047 12.6237 18.5553C12.6237 17.9882 13.0287 17.8802 13.9739 17.5629H14.0549C14.0621 17.51 14.0579 17.4562 14.0428 17.405C14.0277 17.3538 14.0019 17.3064 13.9671 17.2659C13.921 17.2236 13.8665 17.1916 13.8072 17.1718C13.7479 17.1521 13.685 17.145 13.6228 17.1511C13.4571 17.1521 13.2936 17.1889 13.1435 17.2591C12.9851 17.3319 12.841 17.4325 12.7182 17.5562V16.9351C13.0392 16.7389 13.4086 16.636 13.7848 16.638C14.093 16.6099 14.4001 16.7018 14.6422 16.8946C14.702 16.9601 14.7482 17.0367 14.7783 17.1201C14.8085 17.2035 14.8218 17.292 14.8177 17.3806V18.5081C14.8152 18.5337 14.818 18.5596 14.8262 18.584C14.8343 18.6084 14.8476 18.6309 14.865 18.6498C14.8889 18.6718 14.9203 18.6838 14.9528 18.6836C15.016 18.6809 15.077 18.6598 15.1283 18.6228V19.0279C14.9394 19.1239 14.7323 19.1791 14.5207 19.1899C14.4202 19.1961 14.32 19.1751 14.2304 19.1292L14.2574 19.0954ZM14.0481 17.9477C13.8697 18.0066 13.6978 18.0835 13.535 18.1773C13.4844 18.2088 13.4424 18.2524 13.4129 18.3043C13.3834 18.3562 13.3674 18.4146 13.3663 18.4743C13.366 18.5097 13.3731 18.5448 13.387 18.5773C13.401 18.6098 13.4215 18.6391 13.4473 18.6633C13.47 18.6869 13.4973 18.7056 13.5275 18.7184C13.5576 18.7311 13.5901 18.7377 13.6228 18.7376C13.7849 18.7286 13.9383 18.6615 14.0549 18.5486V17.9545L14.0481 17.9477Z" fill="#0F298F"/>
<path d="M13.076 4C12.5274 4.00324 11.9868 4.1326 11.4962 4.37806C10.9832 4.64292 10.5251 5.00256 10.146 5.43797L11.6447 5.63375C12.0585 5.13478 12.5681 4.72387 13.1435 4.42532C13.6685 4.14974 14.2518 4.0039 14.8447 4H13.076Z" fill="url(#paint0_linear)"/>
<path d="M15.8304 5.69458C15.5997 5.70367 15.3718 5.74924 15.1553 5.8296C15.5553 6.10512 15.879 6.47746 16.0962 6.91189C16.3134 7.34632 16.4171 7.82868 16.3975 8.31399C16.3975 9.90049 15.3511 11.352 14.0009 11.568C13.8818 11.5778 13.7621 11.5778 13.6431 11.568C13.7006 11.6467 13.7638 11.7212 13.8321 11.7908C14.0847 12.0659 14.4031 12.2722 14.7574 12.3903C15.1117 12.5085 15.4903 12.5345 15.8574 12.4659C16.6188 12.294 17.2812 11.8281 17.7004 11.1697C18.174 10.4653 18.4256 9.63527 18.4228 8.78656C18.4251 7.99409 18.1612 7.22382 17.6734 6.59922C17.4666 6.32725 17.2003 6.10617 16.8949 5.95289C16.5895 5.79961 16.2531 5.71818 15.9114 5.71483H15.8304" fill="url(#paint1_linear)"/>
<path d="M8.5662 14.0928C8.70839 15.6401 9.19759 17.1354 9.99742 18.4675L11.3949 19.5004C10.5344 17.9963 10.0179 16.3201 9.88266 14.5924C9.59981 11.3444 10.1239 8.0768 11.4084 5.08017L9.91641 4.9519C8.6986 7.83512 8.23397 10.9807 8.5662 14.0928Z" fill="url(#paint2_linear)"/>
<path d="M13.8185 11.8177C13.2257 11.1601 12.909 10.2994 12.9341 9.41435C12.93 8.47137 13.2413 7.55408 13.8185 6.80844C14.0568 6.48875 14.3609 6.22388 14.7103 6.03172C15.0597 5.83956 15.4462 5.72457 15.8439 5.69452C16.1986 5.68973 16.5495 5.76924 16.8676 5.92651C17.1856 6.08378 17.4618 6.31432 17.6734 6.59916C18.1601 7.23822 18.4149 8.02391 18.3958 8.82701C18.3985 9.67572 18.1469 10.5058 17.6734 11.2101C17.2542 11.8685 16.5917 12.3344 15.8304 12.5063C15.6941 12.5273 15.5564 12.5386 15.4185 12.5401C15.12 12.542 14.8242 12.4831 14.5491 12.367C14.2741 12.251 14.0255 12.0801 13.8185 11.865V11.8177ZM14.8447 4C14.2518 4.00391 13.6684 4.14975 13.1434 4.42532C12.5687 4.72189 12.0591 5.13047 11.6447 5.62701C11.5704 5.44473 11.4962 5.2557 11.4152 5.07342C10.1307 8.07005 9.60658 11.3376 9.88942 14.5857C10.0235 16.284 10.5183 17.9343 11.3409 19.4262C11.3545 19.4426 11.3659 19.4607 11.3747 19.4802C11.8412 18.2835 12.2004 17.0477 12.4481 15.7873C12.5561 15.2608 12.6371 14.7274 12.6979 14.1941C12.8329 14.2481 12.9679 14.2954 13.1029 14.3359C13.6623 14.4915 14.2516 14.5054 14.8177 14.3764C15.4084 14.2537 15.9657 14.005 16.4514 13.6473C16.9327 13.284 17.3483 12.841 17.6801 12.3376C18.3805 11.2782 18.7538 10.0362 18.7536 8.76625C18.7763 7.56618 18.3986 6.39274 17.6801 5.43123C17.3501 5.00035 16.931 4.64573 16.4514 4.39157C15.9577 4.13351 15.4086 3.99914 14.8514 4H14.8447Z" fill="url(#paint3_linear)"/>
<path d="M7 9.17803C7 9.31156 7.03959 9.44208 7.11378 9.5531C7.18796 9.66412 7.29339 9.75065 7.41675 9.80175C7.54011 9.85285 7.67585 9.86622 7.80681 9.84017C7.93777 9.81412 8.05806 9.74982 8.15248 9.65541C8.24689 9.56099 8.31119 9.4407 8.33724 9.30974C8.36329 9.17878 8.34992 9.04304 8.29882 8.91968C8.24772 8.79632 8.16119 8.69089 8.05017 8.61671C7.93915 8.54252 7.80863 8.50293 7.67511 8.50293C7.49606 8.50293 7.32434 8.57406 7.19773 8.70066C7.07113 8.82727 7 8.99899 7 9.17803Z" fill="url(#paint4_radial)"/>
<path d="M20.3266 9.17821C20.3199 9.56279 20.4278 9.94066 20.6366 10.2637C20.8454 10.5867 21.1456 10.8403 21.499 10.9922C21.8524 11.144 22.243 11.1872 22.621 11.1163C22.9991 11.0454 23.3475 10.8636 23.6218 10.594C23.8962 10.3244 24.0841 9.97929 24.1616 9.60255C24.2392 9.22581 24.2028 8.83452 24.0572 8.47851C23.9116 8.12249 23.6633 7.81787 23.344 7.60344C23.0247 7.38901 22.6488 7.27447 22.2641 7.27441C21.7508 7.27619 21.259 7.4809 20.896 7.84388C20.5331 8.20685 20.3284 8.69864 20.3266 9.21197" fill="url(#paint5_radial)"/>
<path d="M16.5325 9.17809C16.5312 9.48576 16.6213 9.7869 16.7914 10.0433C16.9615 10.2997 17.2039 10.4997 17.4879 10.6181C17.7719 10.7364 18.0847 10.7678 18.3865 10.7081C18.6883 10.6484 18.9656 10.5003 19.1832 10.2828C19.4007 10.0652 19.5487 9.78793 19.6084 9.4861C19.6681 9.18427 19.6368 8.8715 19.5185 8.5875C19.4001 8.3035 19.2 8.06107 18.9437 7.89096C18.6873 7.72086 18.3862 7.63076 18.0785 7.63209C17.6685 7.63209 17.2752 7.79498 16.9853 8.08491C16.6954 8.37483 16.5325 8.76806 16.5325 9.17809Z" fill="url(#paint6_radial)"/>
<path d="M13.3864 9.17817C13.3837 9.42441 13.4543 9.66589 13.5892 9.87194C13.724 10.078 13.9171 10.2393 14.1438 10.3354C14.3706 10.4315 14.6207 10.458 14.8626 10.4116C15.1044 10.3652 15.327 10.248 15.5021 10.0748C15.6772 9.90165 15.7968 9.68035 15.8459 9.43902C15.8949 9.1977 15.8711 8.94725 15.7775 8.71948C15.6839 8.49171 15.5247 8.2969 15.3201 8.1598C15.1156 8.0227 14.8749 7.9495 14.6286 7.94948C14.4658 7.94859 14.3044 7.97989 14.1538 8.04158C14.0031 8.10327 13.8661 8.19413 13.7507 8.30894C13.6352 8.42375 13.5436 8.56024 13.4811 8.71058C13.4186 8.86091 13.3864 9.02211 13.3864 9.18492" fill="url(#paint7_radial)"/>
<defs>
<linearGradient id="paint0_linear" x1="12.4819" y1="5.64726" x2="12.5156" y2="3.95949" gradientUnits="userSpaceOnUse">
<stop stop-color="#0A50A1"/>
<stop offset="0.2" stop-color="#0A50A1"/>
<stop offset="0.7" stop-color="#1D88BC"/>
<stop offset="0.74" stop-color="#258DBF"/>
<stop offset="0.81" stop-color="#3C9CC7"/>
<stop offset="0.89" stop-color="#60B4D4"/>
<stop offset="0.99" stop-color="#92D5E6"/>
<stop offset="1" stop-color="#99D9E8"/>
</linearGradient>
<linearGradient id="paint1_linear" x1="15.6211" y1="12.5942" x2="16.8161" y2="5.82285" gradientUnits="userSpaceOnUse">
<stop stop-color="#3690C0"/>
<stop offset="0.02" stop-color="#3690C0"/>
<stop offset="0.3" stop-color="#67A9CF"/>
<stop offset="0.7" stop-color="#B2D7E8"/>
<stop offset="0.78" stop-color="#7AAAD0"/>
<stop offset="0.9" stop-color="#2A6AAE"/>
<stop offset="0.95" stop-color="#0A50A1"/>
<stop offset="1" stop-color="#0A50A1"/>
</linearGradient>
<linearGradient id="paint2_linear" x1="9.36282" y1="19.2101" x2="11.3476" y2="5.07342" gradientUnits="userSpaceOnUse">
<stop stop-color="#0670B0"/>
<stop offset="0.05" stop-color="#0670B0"/>
<stop offset="0.16" stop-color="#378EC0"/>
<stop offset="0.4" stop-color="#AFD6E7"/>
<stop offset="0.72" stop-color="#5DAACF"/>
<stop offset="0.98" stop-color="#1D88BC"/>
<stop offset="1" stop-color="#1D88BC"/>
</linearGradient>
<linearGradient id="paint3_linear" x1="9.61263" y1="6.59241" x2="16.7147" y2="15.0515" gradientUnits="userSpaceOnUse">
<stop stop-color="#0290BE"/>
<stop offset="0.44" stop-color="#0859A5"/>
<stop offset="0.81" stop-color="#0D3092"/>
<stop offset="1" stop-color="#0F218B"/>
</linearGradient>
<radialGradient id="paint4_radial" cx="0" cy="0" r="1" gradientUnits="userSpaceOnUse" gradientTransform="translate(7.65485 9.17804) scale(0.654852)">
<stop stop-color="#CCE70B"/>
<stop offset="0.15" stop-color="#CCE70B"/>
<stop offset="0.24" stop-color="#C6E40C"/>
<stop offset="0.36" stop-color="#B6DD10"/>
<stop offset="0.5" stop-color="#9CD115"/>
<stop offset="0.64" stop-color="#77C01D"/>
<stop offset="0.79" stop-color="#48AA27"/>
<stop offset="0.95" stop-color="#0F8F34"/>
<stop offset="0.99" stop-color="#008837"/>
<stop offset="1" stop-color="#008837"/>
</radialGradient>
<radialGradient id="paint5_radial" cx="0" cy="0" r="1" gradientUnits="userSpaceOnUse" gradientTransform="translate(169.944 68.5786) scale(11.1216)">
<stop stop-color="#CCE70B"/>
<stop offset="0.15" stop-color="#CCE70B"/>
<stop offset="0.24" stop-color="#C6E40C"/>
<stop offset="0.36" stop-color="#B6DD10"/>
<stop offset="0.5" stop-color="#9CD115"/>
<stop offset="0.64" stop-color="#77C01D"/>
<stop offset="0.79" stop-color="#48AA27"/>
<stop offset="0.95" stop-color="#0F8F34"/>
<stop offset="0.99" stop-color="#008837"/>
<stop offset="1" stop-color="#008837"/>
</radialGradient>
<radialGradient id="paint6_radial" cx="0" cy="0" r="1" gradientUnits="userSpaceOnUse" gradientTransform="translate(117.181 56.7609) scale(7.11156)">
<stop stop-color="#CCE70B"/>
<stop offset="0.15" stop-color="#CCE70B"/>
<stop offset="0.24" stop-color="#C6E40C"/>
<stop offset="0.36" stop-color="#B6DD10"/>
<stop offset="0.5" stop-color="#9CD115"/>
<stop offset="0.64" stop-color="#77C01D"/>
<stop offset="0.79" stop-color="#48AA27"/>
<stop offset="0.95" stop-color="#0F8F34"/>
<stop offset="0.99" stop-color="#008837"/>
<stop offset="1" stop-color="#008837"/>
</radialGradient>
<radialGradient id="paint7_radial" cx="0" cy="0" r="1" gradientUnits="userSpaceOnUse" gradientTransform="translate(81.2102 47.2528) scale(4.54643)">
<stop stop-color="#CCE70B"/>
<stop offset="0.15" stop-color="#CCE70B"/>
<stop offset="0.24" stop-color="#C6E40C"/>
<stop offset="0.36" stop-color="#B6DD10"/>
<stop offset="0.5" stop-color="#9CD115"/>
<stop offset="0.64" stop-color="#77C01D"/>
<stop offset="0.79" stop-color="#48AA27"/>
<stop offset="0.95" stop-color="#0F8F34"/>
<stop offset="0.99" stop-color="#008837"/>
<stop offset="1" stop-color="#008837"/>
</radialGradient>
</defs>
</svg>
