<svg width="35" height="24" viewBox="0 0 35 24" fill="none" xmlns="http://www.w3.org/2000/svg">
<rect x="0.416667" y="0.416667" width="34.1667" height="23.1667" rx="2.2901" fill="white" stroke="#F6F7F8" stroke-width="0.833333"/>
<path fill-rule="evenodd" clip-rule="evenodd" d="M8.85703 14.0457C9.58638 14.0457 10.2594 14.4413 10.1673 15.4274C10.0557 16.5992 9.4279 17.2477 8.43738 17.2505H7.57186C7.44742 17.2505 7.38715 17.352 7.35478 17.5602L7.18737 18.6244C7.16226 18.7851 7.07967 18.8643 6.95802 18.8643H6.15277C6.02442 18.8643 5.97977 18.7823 6.00823 18.5987L6.67286 14.3336C6.70578 14.1238 6.78447 14.0457 6.92788 14.0457H8.85535H8.85703ZM7.54563 16.3292H8.20133C8.61149 16.3135 8.88381 16.0295 8.91115 15.5172C8.92789 15.2008 8.71417 14.9742 8.37432 14.9759L7.75713 14.9787L7.54563 16.3292ZM12.3565 18.5379C12.4302 18.4709 12.5049 18.4363 12.4943 18.5189L12.4681 18.7164C12.4547 18.8197 12.4954 18.8744 12.5914 18.8744H13.3068C13.4274 18.8744 13.486 18.8258 13.5155 18.6394L13.9564 15.8727C13.9787 15.7337 13.9447 15.6656 13.8392 15.6656H13.0524C12.9815 15.6656 12.9469 15.7053 12.9285 15.8135L12.8995 15.9837C12.8844 16.0725 12.8437 16.0881 12.8057 15.9988C12.6723 15.6829 12.3319 15.5412 11.857 15.5524C10.7538 15.5752 10.0099 16.4129 9.93013 17.4865C9.86875 18.3169 10.4636 18.9692 11.2482 18.9692C11.8174 18.9692 12.0719 18.8018 12.3587 18.5396L12.3565 18.5379ZM11.7572 18.1121C11.2823 18.1121 10.9513 17.7332 11.02 17.2689C11.0886 16.8046 11.5328 16.4257 12.0077 16.4257C12.4826 16.4257 12.8135 16.8046 12.7449 17.2689C12.6762 17.7332 12.2326 18.1121 11.7572 18.1121ZM15.3565 15.6567H14.6311C14.4815 15.6567 14.4207 15.7683 14.4681 15.9056L15.3688 18.5429L14.4854 19.7979C14.4112 19.9028 14.4687 19.9983 14.573 19.9983H15.3883C15.4358 20.0038 15.4839 19.9955 15.5269 19.9744C15.5698 19.9533 15.6058 19.9204 15.6305 19.8794L18.4006 15.9062C18.486 15.7839 18.4458 15.6556 18.3057 15.6556H17.534C17.4017 15.6556 17.3487 15.7081 17.2728 15.818L16.1177 17.4921L15.6015 15.8141C15.5714 15.7125 15.4955 15.6567 15.3565 15.6567Z" fill="#113984"/>
<path fill-rule="evenodd" clip-rule="evenodd" d="M21.2818 14.0456C22.0111 14.0456 22.6841 14.4412 22.592 15.4273C22.4804 16.5991 21.8526 17.2476 20.8621 17.2504H19.9972C19.8727 17.2504 19.8124 17.3519 19.7801 17.5601L19.6127 18.6243C19.5876 18.785 19.505 18.8642 19.3833 18.8642H18.5781C18.4497 18.8642 18.4051 18.7822 18.4335 18.5986L19.0993 14.3324C19.1322 14.1226 19.2109 14.0444 19.3543 14.0444H21.2818V14.0456ZM19.9704 16.329H20.6261C21.0362 16.3134 21.3085 16.0294 21.3359 15.5171C21.3526 15.2007 21.1389 14.9741 20.7991 14.9758L20.1819 14.9786L19.9704 16.329ZM24.7812 18.5378C24.8549 18.4708 24.9297 18.4362 24.9191 18.5188L24.8928 18.7163C24.8794 18.8196 24.9202 18.8743 25.0162 18.8743H25.7316C25.8521 18.8743 25.9107 18.8257 25.9403 18.6393L26.3811 15.8726C26.4034 15.7336 26.3694 15.6655 26.2639 15.6655H25.4782C25.4073 15.6655 25.3727 15.7052 25.3543 15.8134L25.3253 15.9836C25.3102 16.0724 25.2695 16.088 25.2316 15.9987C25.0982 15.6828 24.7578 15.5411 24.2829 15.5523C23.1796 15.5751 22.4358 16.4128 22.356 17.4864C22.2946 18.3168 22.8895 18.9691 23.6741 18.9691C24.2433 18.9691 24.4977 18.8017 24.7846 18.5394L24.7812 18.5378ZM24.1824 18.112C23.7076 18.112 23.3766 17.7331 23.4453 17.2688C23.5139 16.8045 23.9581 16.4256 24.433 16.4256C24.9079 16.4256 25.2388 16.8045 25.1702 17.2688C25.1015 17.7331 24.6573 18.112 24.1824 18.112ZM27.4821 18.8787H26.6562C26.6419 18.8794 26.6275 18.8768 26.6143 18.8713C26.601 18.8658 26.5891 18.8574 26.5795 18.8467C26.5698 18.836 26.5626 18.8234 26.5584 18.8096C26.5543 18.7959 26.5532 18.7814 26.5552 18.7671L27.2807 14.1711C27.2876 14.1397 27.3049 14.1116 27.3299 14.0914C27.3548 14.0711 27.3858 14.0599 27.418 14.0595H28.2439C28.2582 14.0589 28.2725 14.0614 28.2858 14.0669C28.2991 14.0725 28.311 14.0809 28.3206 14.0915C28.3303 14.1022 28.3374 14.1149 28.3416 14.1286C28.3458 14.1424 28.3469 14.1569 28.3449 14.1711L27.6194 18.7671C27.6127 18.7987 27.5955 18.8271 27.5705 18.8475C27.5456 18.868 27.5144 18.8794 27.4821 18.8799V18.8787Z" fill="#009EE3"/>
<path fill-rule="evenodd" clip-rule="evenodd" d="M16.5791 6.09204H19.0862C20.4323 6.09204 20.9391 6.77351 20.8608 7.77468C20.7313 9.42754 19.7321 10.342 18.4067 10.342H17.7375C17.5557 10.342 17.4334 10.4624 17.3842 10.7885L17.1001 12.6847C17.0813 12.8077 17.0166 12.8789 16.9195 12.8886H15.3443C15.1961 12.8886 15.1437 12.7753 15.1825 12.5301L16.1429 6.45122C16.1804 6.20789 16.3138 6.09204 16.5791 6.09204Z" fill="#009EE3"/>
<path fill-rule="evenodd" clip-rule="evenodd" d="M15.011 4H17.5207C18.2274 4 19.0662 4.02265 19.6266 4.51773C20.0013 4.84844 20.1981 5.37458 20.1528 5.9415C19.9987 7.85776 18.8526 8.93141 17.3149 8.93141H16.0776C15.8666 8.93141 15.7274 9.0712 15.6679 9.44915L15.3223 11.6495C15.2997 11.7919 15.2382 11.876 15.1282 11.8864H13.5795C13.408 11.8864 13.3472 11.7569 13.3918 11.4709L14.5049 4.41807C14.5496 4.13461 14.7056 4 15.011 4Z" fill="#113984"/>
<path fill-rule="evenodd" clip-rule="evenodd" d="M15.7043 9.22554L16.1425 6.45114C16.1807 6.2078 16.314 6.09131 16.5793 6.09131H19.0864C19.5013 6.09131 19.8372 6.15603 20.0999 6.27575C19.8482 7.98168 18.7447 8.92914 17.3003 8.92914H16.0648C15.8991 8.92978 15.7775 9.01262 15.7043 9.22554Z" fill="#172C70"/>
</svg>
