<svg width="35" height="24" fill="none" xmlns="http://www.w3.org/2000/svg"><rect x=".416667" y=".416667" width="34.1667" height="23.1667" rx="2.2901" fill="#fff" stroke="#F6F7F8" stroke-width=".833333"/><path d="M7.5166 11.9261c.00382-.2059.04577-.3623.13731-.4729.04577-.042.10679-.0839.17545-.1144.07628-.0306.14493-.0458.2174-.0458h.8391c.36997.0038.55686.2059.56449.6102v1.2396c-.00382.1411-.05721.267-.16782.37-.1068.1106-.23648.164-.38523.1678h-.79333v.8963H7.5166v-2.6508zm1.34638.1183c-.00382-.0954-.04577-.1412-.1335-.145h-.45769c-.11061.0077-.164.0687-.16782.1755v.8238c.00382.1144.06103.1717.18308.1755h.41955c.04195 0 .0801-.0153.11061-.0496.03051-.0229.04195-.0534.04195-.0954v-.8848h.00382zm2.41432-.0153c.0038-.0915-.0496-.1335-.1564-.1297H9.93474v-.6026h1.33496c.389.0076.5835.1907.5912.5645v1.2624c-.0039.1602-.0496.2899-.145.3967-.0991.1106-.2288.164-.3852.164h-.8048c-.3928-.0038-.59116-.1792-.59498-.5378v-.4882c.00382-.3738.19068-.5606.56828-.5683h.7819v-.061h-.0038zm-.7666.9268c0 .0344.0152.0611.0457.0839.0305.0267.0687.0382.1068.0382h.4501c.103 0 .1564-.0382.1564-.1183v-.1678c0-.0915-.0534-.1373-.1602-.1373h-.4463c-.0572 0-.0991.0076-.122.0267-.0191.0229-.0305.0649-.0305.1297v.1449zm3.0017 1.0184c.0457-.0038.0877-.0191.1182-.0496.0305-.0267.0458-.0572.0458-.0992v-.1411h-.7552c-.0992 0-.1755-.0114-.2365-.0381-.061-.0229-.122-.0687-.1831-.1259-.0572-.061-.103-.1297-.1258-.1983-.0267-.061-.0382-.145-.0382-.2441v-1.7812h.5874v1.5905c0 .1297.0496.1907.1564.1907h.4157c.0496 0 .0954-.0153.1297-.0496.0343-.0267.0496-.061.0496-.103v-1.6362h.5835v2.6317c-.0038.1945-.0534.3509-.1487.4653-.0992.1183-.2327.1793-.4005.1793h-1.3731v-.6026h1.1709l.0039.0114zm1.2128-.8963h1.0489c.0954-.0038.145-.042.1488-.1144v-.0534c0-.0153-.0038-.0306-.0153-.0496-.0229-.0458-.0496-.0687-.0877-.0687h-.5187c-.1526-.0038-.2861-.0534-.3967-.1564-.1106-.0953-.1678-.2135-.1716-.3509v-.4538c.0076-.3547.1945-.5302.5721-.5378h1.2167v.6026h-1.0298c-.1221 0-.1793.0343-.1793.1106v.061c0 .0801.061.1145.1831.1145h.5187c.1373.0038.2556.0534.3547.1602.0992.1029.1488.2288.1526.3699v.4386c-.0038.1259-.0572.248-.1678.37-.0534.0572-.1106.103-.164.1259-.0534.0229-.1335.0305-.2327.0305h-1.2281l-.0039-.5988zm3.5624-1.0489c.0038-.0915-.0496-.1335-.1564-.1297H16.945v-.6026h1.335c.389.0076.5835.1907.5912.5645v1.2624c-.0038.1602-.0496.2899-.145.3967-.0991.1106-.2288.164-.3852.164h-.801c-.3928-.0038-.5911-.1792-.595-.5378v-.4882c.0039-.3738.1908-.5606.5683-.5683h.7819v-.061h-.0076zm-.7666.9268c0 .0344.0152.0611.0457.0839.0306.0267.0687.0382.1068.0382h.4501c.103 0 .1526-.0382.1564-.1183v-.1678c0-.0915-.0534-.1373-.1602-.1373h-.4463c-.0572 0-.0991.0076-.122.0267-.0191.0229-.0305.0649-.0305.1297v.1449zm1.8269-2.0062c.0038-.164.0611-.2937.1793-.3928.1144-.0992.2632-.1488.4501-.1526h.3737v.5836h-.2288c-.1259.0038-.1869.061-.1869.1754v.1335h.4157v.6026h-.4157v1.7812h-.5874v-2.7309zm1.9452 1.9185v.0381c0 .0458.0115.0878.0382.1145.019.0343.0419.0534.0762.0534h1.2091v.6026h-1.2853c-.1183 0-.2098-.0114-.2747-.0305-.0724-.0229-.1335-.061-.1868-.1144-.0611-.0611-.1107-.1297-.1297-.1946-.0229-.0724-.0344-.1602-.0344-.2784l-.0038-1.2091c.0077-.3661.1946-.5492.5721-.5568h.7934c.3661.0076.553.1983.5568.5759v.4806l-1.3311.5187zm.7323-.8505v-.0153c0-.0305-.0114-.0572-.0381-.0801-.0267-.0191-.061-.0267-.103-.0267h-.4081c-.0496 0-.0954.0153-.1297.042-.0381.0267-.061.061-.061.1106v.2441l.7399-.2746zm1.8422 1.6629c-.0915 0-.1678-.0076-.2441-.0229-.0801-.0114-.1525-.0457-.2326-.1106-.0839-.0725-.1373-.1487-.1679-.2365-.0305-.0877-.0457-.1792-.0457-.2898v-1.1252c-.0038-.0915.0076-.1716.0267-.2441.019-.0725.061-.1373.1258-.206.0725-.0724.145-.1182.2213-.1411.0762-.019.1563-.0267.2517-.0267h.9039v.1411h-.881c-.1564 0-.2785.0306-.3662.0954-.0915.0725-.1373.1869-.1373.3623v1.1252c0 .0801.0115.1564.0343.2327.0229.0762.0649.1373.1259.1907.061.0457.1297.0801.1869.0915.0648.0153.1335.0191.2098.0191h.8391v.1411h-.8506v.0038zm3.2916-.6484c0 .0915-.0076.1678-.0191.2403-.019.0763-.0572.1487-.1182.2212-.1221.1297-.2746.1907-.4577.1869h-.7018c-.1793 0-.328-.0534-.4424-.164-.1183-.1068-.1755-.2555-.1755-.4462v-.3662c.0076-.4081.2136-.6217.6141-.6293h1.1709v-.1602c0-.1297-.0381-.2479-.1144-.3471-.0458-.061-.1068-.1068-.1678-.1297-.0687-.0152-.1373-.0267-.2212-.0267h-1.2816v-.1411h1.2091c.1106 0 .2136.0076.3013.0229.0458.0076.0915.0267.1297.0534.0419.0229.0801.061.1182.1106.1106.1411.1602.3013.1602.4844v1.0908h-.0038zm-.1411-.8162h-1.1824c-.1411.0038-.2517.0458-.3318.1297-.0839.0877-.1221.2059-.1221.3547v.3623c0 .0725.0077.1335.0229.1907.0153.0572.0496.1145.1106.1602.103.0877.2174.1259.3395.1259h.7132c.2975-.0038.4501-.1602.4501-.4768v-.8467zm1.4608-.7933c-.3242.0076-.492.183-.4844.5377v1.724h-.1411v-1.724c-.0077-.45.2097-.6789.6484-.6789h.1563v.1412h-.1792zM31 13.0131c-.0114.4539-.2556.6789-.7209.6675h-.5225c-.1106 0-.2098-.0076-.2937-.0267-.0915-.0229-.1754-.0801-.2593-.164-.0611-.0801-.103-.1526-.1183-.2327-.0229-.0877-.0305-.1754-.0267-.2631v-1.0298c.0076-.4615.2403-.6904.698-.6866h1.1023v-.7781H31v2.5135zm-.1373-1.5904h-1.1175c-.0801 0-.1526.0076-.2174.0267-.0687.0152-.1335.0534-.1946.122-.0572.061-.0953.1221-.1106.1793-.019.061-.0305.1335-.0267.2212v1.0985c0 .183.0496.3051.1602.3737.0496.0305.1106.0534.1755.0725.0686.0153.1373.0267.2174.0267h.4882c.1792 0 .328-.042.4424-.1259.1144-.0801.1716-.2174.1755-.4119v-1.5828h.0076z" fill="#128AC7"/><path d="M4.2515 11.2053c.04577-.0191.09153-.0344.1373-.0458.08773-.4043.44625-.7094.87725-.7094.43099 0 .78951.3051.87724.7094.13349.0229.24029.0801.3242.1564.00381-.0801 0-.1526-.00763-.2251C6.40265 10.4806 5.88774 10 5.26223 10c-.64077 0-1.16711.5111-1.19762 1.1519-.00382.0534-.00382.1144-.00382.1716.05721-.0496.12205-.0877.19071-.1182z" fill="#E00D1D"/><path d="M5.96426 11.2969h-1.4341c-.07247 0-.14112.0152-.2174.0457-.07247.0306-.12968.0649-.17545.1145-.09154.1068-.1335.2631-.13731.4691v1.1252c.00381.2097.04577.3623.13731.4691.04577.0458.10679.0839.17545.1144.07628.0305.14493.0458.2174.0458h1.43791c.36997-.0038.56068-.2098.56449-.6103v-1.1671c-.00763-.4043-.19833-.6026-.5683-.6064z" fill="#E00D1D"/></svg>