<svg width="35" height="24" fill="none" xmlns="http://www.w3.org/2000/svg"><rect x=".416667" y=".416667" width="34.1667" height="23.1667" rx="2.2901" fill="#fff" stroke="#F6F7F8" stroke-width=".833333"/><path fill-rule="evenodd" clip-rule="evenodd" d="M7.59375 11.3769c-.03838-.1048-.09369-.1985-.1651-.2807-.073-.0849-.15996-.1568-.25714-.2125-.13125-.0768-.29552-.1292-.49322-.1573-.19771-.0264-.4792-.0392-.84447-.0392-.21339 0-.39789.0062-.55349.0182-.16097.014-.28314.0342-.36734.0602-.09617.0297-.18202.0727-.25714.1288-.01734.014-.03509.0297-.05242.0471v-.1313c0-.0243-.00867-.0454-.02642-.0627-.01733-.0174-.03756-.0264-.06026-.0264h-.4276c-.02435 0-.04622.0086-.06562.0264-.01569.0157-.02353.0367-.02353.0627v3.6932c0 .0264.00784.0475.02353.0632.0194.0173.04086.0264.06562.0264h.4276c.0227 0 .04293-.0087.06026-.0264.01734-.0174.02642-.0384.02642-.0632v-1.0991c.0908.0768.1977.1329.31988.168.08585.0264.20389.0454.35413.0578.14322.0123.31286.0185.50891.0185.27117 0 .5019-.0078.69258-.0235.19771-.0157.35042-.04.45897-.0735.11722-.035.22288-.0883.3174-.1601.09617-.0735.17748-.1626.24393-.2675.0681-.1031.11887-.2377.1523-.404.03302-.1556.04995-.3393.04995-.551-.00042-.3377-.03591-.6014-.10773-.7921zm-.59022 1.3274c-.03839.1172-.10071.2026-.18615.2571-.07677.0508-.18697.085-.33061.1024-.15023.021-.38632.0314-.70826.0314-.23774 0-.43297-.0095-.58486-.0289-.14322-.019-.25095-.0479-.32276-.0867-.05077-.0297-.09287-.0648-.12589-.1049-.03508-.0421-.06315-.0928-.08379-.1523-.0454-.1242-.0681-.3182-.0681-.5823 0-.2221.02105-.3926.06274-.5114.04045-.1139.10153-.1994.18367-.2572.07347-.0491.18615-.0829.33845-.1023.17129-.0211.42306-.0314.75532-.0314.21173 0 .3954.0103.55101.0314.14157.021.24393.0499.30708.0867.05077.0297.09287.0639.12588.1023.03674.0438.06481.0937.08379.1494.0454.1243.0681.3149.0681.5721 0 .227-.02187.402-.06562.5246zm4.67427-1.031c-.0053-.1049-.0165-.1986-.0342-.2807-.0314-.1453-.1007-.2728-.2072-.383-.1259-.1296-.3009-.2176-.5246-.265-.1048-.0211-.2423-.0368-.4119-.0471-.18-.0124-.3806-.0185-.60057-.0185-.30089 0-.55266.0132-.75532.0392-.20637.028-.36899.0697-.48786.1259-.12424.061-.21669.1477-.27819.2596-.06108.1102-.09163.2439-.09163.4012l.00537.1283c.00371.0211.01321.0392.02889.0553.01734.0157.03756.0235.06026.0235h.44576c.02642 0 .04706-.0078.06315-.0235.01734-.0173.02642-.0392.02642-.0656v-.0367c0-.0789.01321-.1408.03921-.1862.0227-.04.05943-.071.1102-.0916.02435-.0103.06315-.0211.11557-.0314l.18615-.0264c.14693-.0124.33473-.0182.5638-.0182.17669 0 .32689.0046.45109.0133.1206.0086.2196.0202.2964.0342.0751.0173.1345.0392.1783.0656.0508.0281.09.0603.118.097.0351.0421.0611.0995.0789.173.0194.0805.0289.1774.0289.291v.1102c-.0227-.019-.0463-.0368-.071-.0525-.0772-.0454-.1626-.078-.2572-.097-.0875-.014-.2257-.0264-.4144-.0367-.1853-.0087-.41724-.0132-.69502-.0132-.21174 0-.38633.0045-.52459.0132-.14158.0087-.26333.0227-.36446.0421-.06108.0103-.11639.0264-.16509.0471v.0024c-.07677.0314-.14157.0702-.19399.1156-.05407.0491-.09865.1077-.13373.1758-.06315.1276-.09452.3026-.09452.5246 0 .18.02105.3244.06315.433.0421.1102.11804.2039.22825.2807.05242.0421.11969.0767.20183.1048.07512.0264.16179.0454.25961.0578h.00248c.08915.0103.2204.0194.39334.0264.22041.0054.42224.0078.60591.0078.19933 0 .37683-.0053.53243-.0156.1556-.0141.2691-.0306.3409-.05.1086-.0314.2056-.085.291-.1601l-.0053.0994c0 .0227.0086.0446.0264.0657.0194.0173.0412.0264.0656.0264h.4276c.0227 0 .0429-.0087.0603-.0264.0194-.0174.0288-.0384.0288-.0628V12.093c0-.1626-.0041-.3025-.0132-.4197zm-.6637 1.2431c-.0264.0421-.0681.0743-.1258.097-.0632.0281-.1672.0491-.3121.0628-.1399.0123-.3269.0185-.5613.0185-.4144 0-.70909-.0103-.8841-.0313-.06108-.0054-.10772-.0132-.13909-.0236l-.03673-.0103c-.05077-.0243-.08833-.0586-.11268-.1023-.02435-.0475-.03674-.1078-.03674-.1812 0-.0768.01032-.1408.03137-.1915.0227-.0454.05324-.0797.09204-.1024.02997-.0146.06176-.0252.09452-.0314.0454-.0103.10236-.0194.17046-.026.13456-.0124.37931-.0181.73469-.0181.25176 0 .45026.0078.59556.0235.154.014.2683.0351.3438.0627.0632.0244.1102.0586.1416.1024.0297.0421.0446.099.0446.1705-.0004.0718-.0136.132-.0401.1807zm1.5792-2.1508l1.2642 2.2742 1.1673-2.2717c.0173-.0314.0437-.047.0788-.047h.5035c.0331 0 .0587.014.076.0421.0173.0313.0182.0602.0025.0866l-1.322 2.526v.0025c-.1627.3062-.2886.5229-.3777.6505-.0962.1345-.2039.2439-.3228.3277-.111.0765-.2357.1309-.3673.1601-.1242.0265-.3026.0401-.5349.0421-.0962 0-.1792-.0016-.2493-.0053-.0218-.0013-.0424-.0105-.0578-.026-.0173-.0174-.0264-.0384-.0264-.0632v-.3933c0-.0264.0095-.0483.0289-.0657.0194-.0156.0429-.0227.071-.021.0718.007.1345.0103.189.0103.1366 0 .2518-.0087.3463-.026.0929-.0157.1634-.0375.2126-.0656v-.0025c.0454-.0243.0969-.0718.1547-.1416.0331-.0421.0681-.0916.1049-.1494-.0281-.0033-.0516-.0185-.071-.0445l-1.5268-2.7097c-.0173-.0297-.0173-.0603 0-.092.0174-.0281.043-.0421.076-.0421h.5035c.0343 0 .0595.0148.0768.0445z" fill="#0080C4"/><path d="M14.2133 15.3174h.0979c1.1804 0 2.1825-.1085 3.006-.3252.0594-.0173.118-.0338.1758-.0499 1.1259-.3307 1.7496-.8598 1.8701-1.587.0401-.2361-.0507-.4887-.2728-.7582-.1052-.1276-.2563-.2741-.4507-.4384-.0941-.0734-.1981-.1515-.312-.234-.4268-.3096-.6968-.5168-.8107-.6216-.2377-.2204-.3438-.4103-.3174-.5692.0999-.5997.7999-1.05287 2.1013-1.35872.1399-.03302.2869-.0648.4408-.09451.0231-.00455.0458-.00785.0689-.01239.1177-.02187.2353-.04292.3525-.06191.0916-.01486.1829-.02765.2741-.04045.0437-.00619.0871-.01279.1308-.01857.1152-.01527.2299-.02889.3447-.04128.014-.00165.028-.0033.0421-.00454.1267-.0132.253-.02517.3789-.03508v-.00082c.0004 0-.0005.00123 0 .00123.0181 0 .0338-.01568.0338-.03384C21.3682 9.01486 21.3534 9 21.3352 9c-.0004 0 .0004 0 0 0h-.0995c-.0181 0-.0355.00041-.0536.00083-.1284.00041-.2555.00165-.3793.00454-.0714.00165-.1404.00495-.2105.00784-.0685.00247-.1387.00413-.2064.00743-.8185.04045-1.5366.14239-2.1541.30501-.0594.01734-.118.03385-.1758.04995-1.126.3306-1.7496.8597-1.8702 1.587-.04.2361.0508.4887.2729.7582.1052.1275.2563.2741.4507.4383.0941.0735.1981.1515.312.2341.4268.3095.6967.5167.8106.6215.2378.2205.3438.4103.3174.5692-.0999.5997-.7999 1.0529-2.1012 1.3588-.14.033-.2869.0648-.4409.0945-.0231.0045-.0458.0078-.0689.0124-.1176.0218-.2352.0429-.3525.0619-.0916.0148-.1828.0276-.274.0404-.0438.0062-.0871.0128-.1309.0186-.1151.0153-.2299.0289-.3446.0413-.014.0016-.0281.0033-.0425.0045-.1267.0132-.3789.0351-.3797.0351-.0182 0-.0326.0157-.0326.0338-.0009.0174.0136.0322.0317.0322z" fill="#F47521"/><path d="M23.4822 12.3262c.0194-.0173.0289-.0384.0289-.0627-.0053-.3269-.0272-.5729-.0656-.7372-.04-.1659-.118-.3157-.2336-.4486-.1383-.1573-.3199-.2621-.5457-.315-.1048-.0264-.2447-.0454-.4197-.0577-.1734-.0124-.3768-.0182-.6113-.0182-.2534 0-.466.0087-.6373.0264-.1783.0157-.3244.0421-.4379.0788-.1188.0384-.2204.0937-.3042.1651-.0875.0702-.1618.1581-.2229.265-.0631.1082-.1102.244-.1415.4066-.0297.1539-.0446.3355-.0446.5456 0 .2955.0351.5457.1048.7504.0772.2097.1916.369.3439.4775.1329.0929.3235.1573.572.194.2485.0351.5981.0524 1.0492.0524.2782 0 .5159-.0156.7136-.0474.2064-.0368.369-.0892.4879-.1573.1259-.0751.2204-.1766.2836-.3042.0648-.1242.0986-.2744.1023-.4511 0-.0264-.0087-.0475-.0264-.0632-.0173-.0173-.0376-.026-.0603-.026h-.4519c-.0244 0-.0446.0071-.0603.0211-.0157.0173-.0252.0367-.0289.0578-.007.0648-.0173.1172-.0313.1572-.0124.0401-.0273.0698-.0446.0892 0 .0016-.0008.0025-.0025.0025-.0297.0297-.0648.054-.1048.0734-.0471.0244-.1024.043-.1651.0553-.1362.0265-.3558.0393-.6583.0393-.187 0-.3612-.0029-.5222-.0079-.1382-.0087-.2534-.021-.3463-.0367h.0025c-.0768-.0124-.1477-.0322-.2125-.0603-.0611-.0297-.1057-.0602-.1338-.0916-.0524-.0524-.0928-.1296-.1205-.2307-.0243-.0859-.0413-.1907-.0499-.315h2.9325c.026-.0004.0471-.009.0627-.0268zm-2.9771-.5192c.012-.0859.0322-.1618.0603-.2283.0314-.0788.0751-.1399.1312-.1836l.0025-.0025c.0718-.0561.1721-.0945.3017-.1156.1437-.0264.3509-.0392.6216-.0392.3149 0 .5519.0132.7108.0392.1539.0264.2691.0702.3463.1313.0561.0437.0986.1032.1283.1783.0244.0648.0405.1382.0475.2204h-2.3502zm6.327-.8944c-.0999-.0859-.2246-.1461-.3752-.1812-.1399-.0297-.3455-.0446-.6163-.0446-.0945 0-.1799.0008-.2571.0025-.1453.0033-.2641.0103-.3566.021-.1453.0157-.2642.0479-.3566.097-.0788.0401-.1469.0883-.2047.1441v-.1416c0-.0244-.0087-.0454-.0264-.0627-.019-.0174-.0409-.0265-.0657-.0265h-.4276c-.0227 0-.0429.0087-.0602.0265-.0174.0173-.026.0383-.026.0627v2.715c0 .0244.0086.0454.026.0628.0173.0173.0375.0264.0602.0264h.4276c.0244 0 .0463-.0087.0657-.0264.0173-.0174.0264-.0384.0264-.0628v-1.2535c0-.1713.0095-.3219.0289-.4511.0194-.1242.047-.2229.0838-.2964.0227-.0454.0478-.0804.0763-.1048.0297-.026.0698-.0508.1205-.0735.0562-.0227.1218-.0421.1969-.0577.1172-.0244.2547-.0405.4119-.0471.0648-.0017.1338-.0025.2072-.0025.161 0 .298.0124.4119.0368.0979.021.168.0515.2101.0916.0384.0367.0657.0858.0813.1469v.0025c.0194.0768.0289.1837.0289.3199v.194c0 .0227.0087.0437.0264.0627.0174.0173.0384.0264.0632.0264h.4379c.0244 0 .0454-.0087.0627-.0264.0194-.0194.0289-.04.0289-.0627v-.2807c-.0033-.194-.0289-.3566-.0759-.4879-.052-.1415-.1296-.2579-.2344-.3487zm4.155.7607c-.0049-.1049-.0156-.1986-.0313-.2807-.0335-.1469-.104-.2745-.2126-.383h.0025c-.128-.1296-.3017-.2176-.5221-.265-.1065-.0227-.2448-.0384-.4144-.0471-.1783-.0124-.3785-.0185-.6006-.0185-.3009 0-.5518.0132-.7528.0392-.2064.028-.369.0697-.4879.1259-.1242.061-.2175.1477-.2806.2596-.0611.1102-.0917.2439-.0917.4012l.0079.1283c.0016.0227.0115.0413.0289.0553.0157.0157.035.0235.0577.0235h.4487c.0244 0 .0454-.0078.0632-.0235.0156-.0173.0235-.0392.0235-.0656v-.0367c0-.0789.0132-.1408.0392-.1862.0243-.0421.0611-.0726.1102-.0916.021-.0087.0594-.019.1156-.0314l.1861-.0264c.1469-.0124.336-.0182.5667-.0182.175 0 .3252.0046.4511.0133.121.0086.218.0202.2914.0342h.0025c.0735.0173.1329.0392.1783.0656.0508.0281.09.0603.1181.097.0334.0401.0602.0978.0813.1734.0194.0805.0289.1775.0289.291v.1102c-.0244-.019-.0488-.0368-.0735-.0525-.0768-.0454-.1626-.078-.2572-.0969-.0908-.0141-.229-.0265-.4143-.0368-.1837-.0086-.4161-.0132-.6976-.0132-.2101 0-.3838.0046-.5221.0132-.1416.0087-.2633.0227-.3649.0421-.0594.0103-.1135.0264-.1626.0471v.0024c-.0768.0298-.1416.0682-.194.1156-.054.0491-.0994.1077-.1362.1758-.0611.1276-.0916.3026-.0916.5246 0 .1804.0198.3245.0602.433.0421.1102.1189.2047.2308.2831.0524.0405.1188.0743.1993.1024.0735.0264.1602.0454.2596.0578.0929.0103.225.0194.3963.0264.222.0054.4251.0079.6088.0079.1993 0 .376-.0054.5299-.0157.1573-.0141.2712-.0306.341-.05.1069-.0313.2034-.085.2909-.1601l-.0024.0995c0 .026.0078.0482.0235.0656.021.0173.0421.0264.0627.0264h.4293c.0243 0 .0454-.0087.0627-.0264.0174-.0174.0264-.0384.0264-.0628v-1.4322c.0004-.163-.0041-.3029-.0128-.4201zm-.6665 1.2431c-.0244.0421-.0657.0743-.1234.097-.0649.0281-.168.0491-.3096.0628-.1416.0123-.329.0185-.5613.0185-.4161 0-.7116-.0103-.8866-.0313-.0578-.0054-.104-.0132-.1391-.0236l-.0392-.0103c-.0508-.0264-.0875-.0602-.1102-.1023-.0264-.0508-.0392-.1111-.0392-.1812 0-.0735.0115-.1371.0338-.1915.0227-.0454.0545-.0797.0945-.1024.0211-.0124.0525-.0227.0946-.0314.0437-.0124.0998-.021.1679-.026.1383-.0124.3831-.0181.7347-.0181.2534 0 .452.0078.5956.0235.1556.014.2704.0351.3438.0627.0648.0244.1127.0586.1441.1024.0297.0421.0445.0986.0445.1705 0 .0734-.0152.1337-.0449.1807z" fill="#F47521"/></svg>