<svg width="35" height="24" fill="none" xmlns="http://www.w3.org/2000/svg"><rect x=".416667" y=".416667" width="34.1667" height="23.1667" rx="2.2901" fill="#fff" stroke="#F6F7F8" stroke-width=".833333"/><g clip-path="url(#clip0)"><path d="M20.6124 11.9653c.2713 0 .4913-.22.4913-.4913 0-.2714-.22-.4913-.4913-.4913s-.4913.2199-.4913.4913c0 .2713.22.4913.4913.4913z" fill="#7887E6"/><path d="M20.6124 13.5007c.2713 0 .4913-.22.4913-.4913 0-.2714-.22-.4913-.4913-.4913s-.4913.2199-.4913.4913c0 .2713.22.4913.4913.4913z" fill="#FF5073"/><path d="M19.6341 12.3907v-.1886c0-.7019-.4913-1.2195-1.1625-1.2195-.6667 0-1.1844.5308-1.1844 1.2722 0 .7588.4914 1.2414 1.2722 1.2414.2193 0 .6492-.0395.9826-.2676l-.2106-.465c-.2237.1272-.4518.1842-.658.1842h-.0658c-.0175 0-.0307-.0043-.0482-.0043h-.0088c-.0132 0-.0263-.0044-.0395-.0088-.0044 0-.0087 0-.0131-.0044-.0132-.0044-.0263-.0044-.0395-.0088-.0088 0-.0132-.0044-.0219-.0044-.0088-.0043-.0176-.0043-.0264-.0087-.0087-.0044-.0175-.0088-.0307-.0132-.0044 0-.0044-.0044-.0087-.0044-.0132-.0088-.0308-.0131-.0439-.0219-.0307-.0176-.057-.0395-.0834-.0658l-.0307-.0307c-.0044-.0044-.0087-.0088-.0087-.0132-.0044-.0088-.0088-.0131-.0176-.0219-.0088-.0132-.0175-.0219-.0263-.0351-.0483-.079-.079-.1799-.0921-.3027h1.566v-.0088zm-1.1581-.8817c.2062 0 .3729.1667.3992.4826h-.7984c.0264-.3159.1887-.4826.3992-.4826zm-6.5493.2106c0-.1141.1141-.1843.3027-.1843.1974 0 .4036.0702.5571.136l.2106-.4957c-.1974-.1009-.5001-.193-.8028-.193-.5615 0-1.0133.2544-1.0133.7633 0 .7984 1.1274.6536 1.1274 1.0089 0 .1316-.1316.1974-.351.1974-.2237 0-.443-.0745-.6097-.1579l-.2413.4825c.2808.1492.6098.2194.9168.2194.544 0 1.0177-.2808 1.0177-.7984-.0043-.7896-1.1142-.658-1.1142-.9782zm-4.35156-.737c-.46499 0-.83347.1448-1.05719.2851l.20618.4299c.13598-.0614.4255-.171.66677-.171.17547 0 .329.0614.329.2456v.1579c-1.03964-.0745-1.33793.3817-1.33793.8028 0 .4123.35093.7589.80714.7589.17986 0 .37726-.0702.52641-.1623v.1053h.7545v-1.667c.00439-.5395-.34216-.7852-.89488-.7852zm.17108 1.9302c-.07018.0526-.17985.0921-.29829.0921-.18863 0-.31584-.1097-.31584-.2808 0-.1974.15353-.3904.60975-.3158l.00438.5045zm6.70288-1.9302c-.465 0-.8335.1448-1.0572.2851l.2062.4299c.1359-.0614.4255-.171.6667-.171.1755 0 .329.0614.329.2456v.1579c-1.0396-.0745-1.3379.3817-1.3379.8028 0 .4123.3509.7589.8071.7589.1799 0 .3773-.0702.5264-.1623v.1053h.7545v-1.667c.0044-.5395-.3377-.7852-.8948-.7852zm.1447 1.9302c-.0702.0526-.1798.0921-.2983.0921-.1886 0-.3158-.1097-.3158-.2808 0-.1974.1579-.3904.6097-.3158v.5045h.0044zm1.3687-1.9697v.1009h-.3992v.5133h.3992v1.8862h.7501v-1.8862h.5176v-.5177h-.5176v-.1272c0-.2105.0833-.3641.3158-.3641.0702 0 .158.0132.2194.0351v-.5351c-.1053-.0264-.2194-.0483-.3597-.0483-.6054 0-.9256.3729-.9256.9431zm-5.5623.0965l-.51767 1.4345-.59658-1.4345h-.77206l1.01332 2.2855-.31584.7852h.71503l1.2151-3.075-.7413.0043zm-5.15438-.8466H4v3.2462h.77206v-1.1844h.47376c.62729 0 1.09667-.3905 1.09667-1.0529 0-.5746-.35094-1.0089-1.09667-1.0089zm-.08335 1.4959h-.39041v-.93h.39041c.27636 0 .43428.193.43428.4694 0 .2983-.17547.4606-.43428.4606z" fill="#2D2341"/><path d="M25.3455 10.9827c-.465 0-.8335.1448-1.0572.2852l.2062.4299c.136-.0615.4255-.1711.6668-.1711.1754 0 .329.0614.329.2456v.1579c-1.0397-.0745-1.338.3817-1.338.8028 0 .4124.351.7589.8072.7589.1798 0 .3772-.0702.5264-.1623v.1053h.7589v-1.667c0-.5395-.3422-.7852-.8993-.7852zm.1491 1.9302c-.0701.0526-.1798.0921-.2982.0921-.1887 0-.3159-.1097-.3159-.2808 0-.1974.1579-.3904.6098-.3158l.0043.5045zm1.2941-.1229c.1711.0834.386.158.6098.158.2193 0 .3509-.0658.3509-.1974 0-.351-1.1274-.2062-1.1274-1.009 0-.5088.4519-.7633 1.0133-.7633.3071 0 .6054.0922.8028.1931l-.2105.5c-.1492-.0658-.3598-.136-.5572-.136-.1886 0-.3026.0702-.3026.1843 0 .3202 1.1098.1886 1.1098.9782 0 .5176-.4694.7984-1.0177.7984-.3071 0-.6361-.0702-.9168-.2193l.2456-.487zm3.4567.6493v-1.6056c0-.1798-.0789-.2983-.2588-.2983-.1842 0-.3772.1229-.4737.2018v1.6977h-.7546v-3.2374h.7546v1.1011c.193-.1536.4606-.3159.7676-.3159.3071 0 .7194.1579.7194.8159v1.6407h-.7545zm-7.0099-.8511c-.0614.2194-.1974.3598-.4255.3598-.3334 0-.465-.3115-.465-.7063 0-.4123.1448-.7106.465-.7106.2193 0 .3553.1359.4211.3553h.7238c-.136-.5791-.6141-.9081-1.1449-.9081-.737 0-1.2678.465-1.2678 1.2546 0 .7896.5264 1.2546 1.2678 1.2546.5352 0 1.0089-.329 1.1449-.908h-.7194v.0087z" fill="#7887E6"/></g><defs><clipPath id="clip0"><path fill="#fff" transform="translate(4 10)" d="M0 0h27v4.11032H0z"/></clipPath></defs></svg>