<svg width="30" height="21" viewBox="0 0 30 21" fill="none" xmlns="http://www.w3.org/2000/svg">
<rect y="0.5" width="30" height="20" rx="3" fill="black"/>
<g clip-path="url(#clip0_6977_9313)">
<path d="M4 8.4146H5.63988C5.90218 8.41198 6.16398 8.43884 6.42058 8.49471C6.63442 8.54038 6.83716 8.62958 7.01682 8.75704C7.18083 8.87684 7.31272 9.03717 7.4003 9.22317C7.49525 9.43802 7.54131 9.67223 7.535 9.90805C7.535 10.1945 7.48295 10.4348 7.37886 10.629C7.27853 10.8194 7.13335 10.9809 6.95655 11.0989C6.76651 11.223 6.55593 11.3104 6.33523 11.3567C6.08877 11.4121 5.83717 11.4399 5.58486 11.4397H4.8972V13.574H4V8.4146ZM5.51893 10.6656C5.65925 10.6661 5.79939 10.6552 5.938 10.6328C6.06162 10.6138 6.18142 10.5744 6.29275 10.5161C6.39365 10.4634 6.47929 10.3844 6.54112 10.287C6.60708 10.1726 6.63913 10.0409 6.63335 9.90805C6.63892 9.77878 6.60681 9.65074 6.54112 9.54029C6.48023 9.44593 6.39663 9.3693 6.29842 9.31781C6.18925 9.26235 6.07155 9.22668 5.95054 9.21238C5.81744 9.19524 5.68341 9.18679 5.54927 9.18706H4.89437V10.6656H5.51893Z" fill="white"/>
<path d="M10.0054 13.1278H9.984C9.88693 13.2944 9.74371 13.4275 9.57261 13.5101C9.37169 13.6125 9.1497 13.6638 8.9254 13.6596C8.78115 13.6585 8.63751 13.6401 8.49743 13.6048C8.35077 13.5694 8.21136 13.5077 8.08564 13.4225C7.95852 13.3362 7.85182 13.2217 7.77336 13.0876C7.68566 12.9318 7.64222 12.7539 7.64796 12.5741C7.64796 12.3118 7.7201 12.103 7.86438 11.9478C8.01989 11.785 8.21098 11.6627 8.42179 11.5908C8.66622 11.5043 8.92017 11.4492 9.17782 11.4269C9.4545 11.3992 9.72538 11.3854 9.99047 11.3854V11.2982C9.99047 11.0794 9.91362 10.9184 9.7599 10.8138C9.59592 10.7063 9.4043 10.6516 9.20977 10.6569C9.03084 10.6575 8.85418 10.698 8.692 10.7756C8.5395 10.8446 8.4002 10.9408 8.28062 11.0599L7.84051 10.5266C8.03392 10.3424 8.26223 10.2011 8.51119 10.1115C8.75777 10.0206 9.01774 9.97385 9.27975 9.97327C9.58286 9.97327 9.83244 10.017 10.0285 10.1044C10.208 10.1789 10.3675 10.2963 10.4937 10.4469C10.6058 10.5848 10.687 10.7464 10.7315 10.9201C10.776 11.0912 10.7987 11.2676 10.7991 11.4447V13.5716H10.0054V13.1278ZM9.99128 11.9768H9.79954C9.66255 11.9768 9.51828 11.9829 9.36672 11.9951C9.2245 12.0052 9.08389 12.0321 8.94765 12.0752C8.83064 12.1105 8.72189 12.17 8.62809 12.25C8.58559 12.2885 8.55207 12.3363 8.53002 12.3899C8.50796 12.4435 8.49793 12.5015 8.50067 12.5596C8.49818 12.6326 8.5166 12.7048 8.55366 12.7671C8.58878 12.8227 8.63618 12.8689 8.692 12.902C8.75156 12.937 8.81635 12.9615 8.88374 12.9747C8.95392 12.9892 9.02532 12.9966 9.09691 12.9967C9.39032 12.9967 9.61266 12.9166 9.76395 12.7564C9.91523 12.5961 9.99101 12.3775 9.99128 12.1005V11.9768Z" fill="white"/>
<path d="M11.0537 10.0758H11.9978L12.9488 12.6177H12.9634L13.808 10.0758H14.6955L13.0839 14.3224C13.0286 14.4695 12.9622 14.6118 12.8853 14.7483C12.8183 14.8671 12.7318 14.9731 12.6297 15.0617C12.5259 15.149 12.4065 15.2146 12.2782 15.2547C12.1205 15.3015 11.9568 15.3236 11.7927 15.3203C11.7216 15.3203 11.6496 15.3166 11.5763 15.3095C11.5009 15.3013 11.4261 15.2875 11.3526 15.268L11.4226 14.5113C11.4769 14.5306 11.5328 14.5445 11.5897 14.5528C11.6402 14.5597 11.6912 14.5633 11.7422 14.5636C11.8192 14.5656 11.896 14.5545 11.9695 14.5308C12.0289 14.51 12.0824 14.4749 12.1257 14.4283C12.1714 14.3773 12.2096 14.3197 12.2389 14.2573C12.2721 14.1892 12.3077 14.1091 12.3457 14.017L12.516 13.5724L11.0537 10.0758Z" fill="white"/>
<path d="M23.6523 5.5H17.9628C17.6545 5.50027 17.3492 5.56287 17.0644 5.68421C16.7796 5.80555 16.5209 5.98326 16.303 6.2072C16.0852 6.43114 15.9124 6.69691 15.7947 6.98935C15.6769 7.28179 15.6164 7.59517 15.6167 7.91159V13.7471C15.6167 14.0635 15.6775 14.3767 15.7955 14.6689C15.9135 14.9611 16.0865 15.2266 16.3046 15.4502C16.5227 15.6738 16.7815 15.8511 17.0664 15.9719C17.3513 16.0928 17.6566 16.1549 17.9649 16.1546H23.6523C24.2745 16.1546 24.8712 15.9009 25.3112 15.4495C25.7512 14.998 25.9984 14.3856 25.9984 13.7471V7.91159C25.9989 7.59509 25.9386 7.28159 25.821 6.98903C25.7033 6.69647 25.5306 6.43058 25.3127 6.20659C25.0948 5.9826 24.8359 5.8049 24.551 5.68365C24.2661 5.56241 23.9607 5.5 23.6523 5.5ZM21.652 13.452C21.1423 13.4284 20.6611 13.204 20.3086 12.8255C19.9561 12.4471 19.7594 11.9437 19.7594 11.4202C19.7594 10.8967 19.9561 10.3934 20.3086 10.0149C20.6611 9.63647 21.1423 9.41208 21.652 9.38843H23.8857V8.75752L25.0349 9.73793L23.8844 10.7204V10.0758H21.6232C20.9311 10.0758 20.3588 10.7105 20.3588 11.4202C20.3512 11.5993 20.379 11.7781 20.4406 11.9459C20.5022 12.1137 20.5962 12.2669 20.7171 12.3964C20.8379 12.5259 20.983 12.6289 21.1437 12.6993C21.3044 12.7697 21.4773 12.806 21.652 12.806C21.8267 12.806 21.9996 12.7697 22.1602 12.6993C22.3209 12.6289 22.466 12.5259 22.5869 12.3964C22.7077 12.2669 22.8017 12.1137 22.8633 11.9459C22.9249 11.7781 22.9527 11.5993 22.9452 11.4202C22.9414 11.1175 22.8533 10.8223 22.6911 10.5693H23.45C23.5697 10.8362 23.6318 11.1265 23.632 11.4202C23.6343 11.6877 23.5846 11.953 23.4859 12.2005C23.3872 12.4481 23.2415 12.673 23.0571 12.8621C22.8728 13.0512 22.6536 13.2008 22.4124 13.3021C22.1711 13.4034 21.9126 13.4544 21.652 13.452ZM18.9013 12.7464C19.0597 12.7385 19.2162 12.7074 19.3661 12.6543V13.3528C19.2181 13.4141 19.0608 13.4479 18.9013 13.4529C18.5736 13.4501 18.2603 13.3141 18.0302 13.0747C17.8 12.8353 17.6718 12.512 17.6736 12.1757V10.0758H16.8994V9.38843H17.6744V8.51677H18.3463V9.38843H20.18C19.9182 9.57272 19.6926 9.8059 19.5149 10.0758H18.3463V12.1748C18.3472 12.3259 18.406 12.4705 18.51 12.5773C18.6141 12.6841 18.7549 12.7446 18.9021 12.7456L18.9013 12.7464Z" fill="white"/>
</g>
<defs>
<clipPath id="clip0_6977_9313">
<rect width="22" height="10.6562" fill="white" transform="translate(4 5.5)"/>
</clipPath>
</defs>
</svg>