<svg width="35" height="24" viewBox="0 0 35 24" fill="none" xmlns="http://www.w3.org/2000/svg">
<rect width="35" height="24" rx="2.70677" fill="#3AAE97"/>
<g clip-path="url(#clip0)">
<path d="M29.0143 7.82211L27.4061 7.82155C27.2307 7.82155 27.0885 7.96373 27.0885 8.13914L27.0884 8.36347H27.1999C27.926 8.36347 28.1961 8.48324 28.1961 9.14466V10.0849L29.0134 10.0852C29.1888 10.0853 29.331 9.94322 29.3311 9.76781L29.3317 8.1398C29.3317 7.96438 29.1896 7.8222 29.0143 7.82211ZM20.2376 10.3497C20.1634 10.2565 20.0231 10.2436 19.8824 10.2436H19.7769C19.4264 10.2436 19.2889 10.3517 19.2113 10.6881L18.2372 14.7369C18.1157 15.2345 17.9448 15.3254 17.6526 15.3254C17.2946 15.3254 17.1513 15.24 17.0087 14.7349L15.9054 10.6861C15.8141 10.3471 15.6794 10.2436 15.3288 10.2436H15.2349C15.0933 10.2436 14.9524 10.2567 14.88 10.3511C14.8076 10.4456 14.832 10.5866 14.8694 10.7252L15.9843 14.8091C16.1934 15.5907 16.442 16.2376 17.3709 16.2376C17.5443 16.2376 17.7046 16.2136 17.838 16.1686C17.5563 17.0546 17.2697 17.4454 16.4246 17.5322C16.2531 17.5465 16.1416 17.571 16.0795 17.6543C16.015 17.7407 16.0297 17.8644 16.0527 17.9748L16.076 18.0795C16.1264 18.3217 16.2124 18.4718 16.4842 18.4718C16.5128 18.4718 16.5435 18.4703 16.5765 18.4675C17.8384 18.3849 18.5146 17.7055 18.9102 16.1224L20.2603 10.7224C20.2923 10.5838 20.3117 10.4428 20.2376 10.3497ZM13.4468 13.4603V14.2777C13.4468 14.9439 13.1998 15.3297 11.9371 15.3297C11.1029 15.3297 10.6974 15.0278 10.6974 14.4068C10.6974 13.7258 11.1042 13.4603 12.1484 13.4603H13.4468ZM11.9371 10.0718C11.2487 10.0718 10.8173 10.1581 10.6537 10.1909C10.364 10.2538 10.2428 10.3333 10.2428 10.6628V10.7567C10.2428 10.8858 10.262 10.9753 10.3029 11.0382C10.3506 11.1115 10.4276 11.1486 10.5316 11.1486C10.5823 11.1486 10.6411 11.1401 10.7112 11.1226C10.8767 11.0812 11.4056 10.9957 11.9841 10.9957C13.0231 10.9957 13.4468 11.2835 13.4468 11.989V12.6186H12.1366C10.4523 12.6186 9.66776 13.1867 9.66776 14.4068C9.66776 15.5901 10.4779 16.2418 11.9489 16.2418C13.6969 16.2418 14.4764 15.647 14.4764 14.3129V11.989C14.4764 10.6989 13.6459 10.0718 11.9371 10.0718ZM8.63516 10.8545C8.63516 11.826 8.38712 12.3525 7.07847 12.3525H5.06407V9.8451C5.06407 9.49745 5.19336 9.36815 5.54102 9.36815H7.07847C8.06439 9.36815 8.63516 9.61143 8.63516 10.8545ZM7.07847 8.36207H5.34142C4.4132 8.36207 3.99927 8.776 3.99927 9.70432V15.6664C3.99927 16.025 4.11437 16.1401 4.47304 16.1401H4.59039C4.94896 16.1401 5.06407 16.025 5.06407 15.6664V13.3468H7.07847C8.86696 13.3468 9.69996 12.5548 9.69996 10.8545C9.69996 9.154 8.86696 8.36207 7.07847 8.36207ZM29.1708 6.14192L28.3597 6.14163C28.2712 6.14154 28.1995 6.06985 28.1995 5.98135L28.1997 5.16011C28.1998 5.07161 28.2716 5 28.36 5L29.1712 5.00028C29.2597 5.00028 29.3314 5.07207 29.3314 5.16048L29.3311 5.98172C29.331 6.07022 29.2593 6.14192 29.1708 6.14192ZM30.7623 7.82314L29.568 7.82267C29.4377 7.82267 29.3321 7.71699 29.3322 7.58676L29.3326 6.37763C29.3327 6.24731 29.4384 6.14173 29.5686 6.14173L30.7629 6.14219C30.8932 6.14219 30.9988 6.24787 30.9988 6.3781L30.9983 7.58732C30.9983 7.71755 30.8927 7.82314 30.7623 7.82314ZM27.4053 10.0847C27.2299 10.0847 27.0878 9.94256 27.0879 9.76715L27.0884 8.36347H26.9713C26.2452 8.36347 25.9751 8.48334 25.9751 9.14476V10.6925C25.975 10.6957 25.9746 10.699 25.9746 10.7023V11.0415C25.9745 11.0533 25.9737 11.0642 25.9737 11.0764V13.2389C25.9737 13.503 25.9228 13.7133 25.8178 13.8767C25.6198 14.1818 25.2278 14.3204 24.6007 14.3213C23.9738 14.3204 23.5819 14.1819 23.3839 13.8771C23.2786 13.7136 23.2276 13.5032 23.2276 13.2389V11.0764C23.2276 11.0642 23.2269 11.0533 23.2268 11.0415V10.7023C23.2268 10.699 23.2264 10.6957 23.2263 10.6925V9.14476C23.2263 8.48334 22.9562 8.36347 22.2301 8.36347H22.0015C21.2753 8.36347 21.0053 8.48334 21.0053 9.14476V13.2389C21.0053 13.8975 21.1538 14.4551 21.4408 14.9046C21.995 15.7756 23.0687 16.2395 24.5951 16.2395C24.5969 16.2395 24.5988 16.2394 24.6007 16.2394C24.6026 16.2394 24.6044 16.2395 24.6063 16.2395C26.1327 16.2395 27.2064 15.7756 27.7606 14.9046C28.0476 14.4551 28.1961 13.8975 28.1961 13.2389V10.085L27.4053 10.0847Z" fill="white"/>
</g>
<defs>
<clipPath id="clip0">
<rect width="27" height="13.472" fill="white" transform="translate(4 5)"/>
</clipPath>
</defs>
</svg>
