<svg width="35" height="24" viewBox="0 0 35 24" fill="none" xmlns="http://www.w3.org/2000/svg">
<rect x="0.416667" y="0.416667" width="34.1667" height="23.1667" rx="2.2901" fill="white" stroke="#F6F7F8" stroke-width="0.833333"/>
<path fill-rule="evenodd" clip-rule="evenodd" d="M12.9606 8.20911L12.9502 8.4121L16.9053 12.9804L17.0475 13.0029L17.0654 12.9942L17.1346 12.8679L15.4478 7.30887L15.1615 7.1189L12.9606 8.20911Z" fill="#0096B8"/>
<path fill-rule="evenodd" clip-rule="evenodd" d="M16.9053 12.9805L17.0471 13.003L14.1305 8.6337L12.9502 8.4119L16.9053 12.9805Z" fill="#005675"/>
<path fill-rule="evenodd" clip-rule="evenodd" d="M15.1617 7.1189L14.1533 8.28778L14.5654 8.46486L15.4478 7.30913V7.30887L15.1617 7.1189Z" fill="#0BBBEF"/>
<path fill-rule="evenodd" clip-rule="evenodd" d="M14.5645 8.46478L17.065 12.994L17.1344 12.8676L15.448 7.30905L14.5645 8.46478Z" fill="#007290"/>
<path fill-rule="evenodd" clip-rule="evenodd" d="M19.0851 7.13067L17.3936 14.6488L17.4534 14.7897L17.4813 14.8022L17.6732 14.7528L21.8703 8.49294L21.8658 8.16642L19.3081 7.00845L19.0851 7.13067Z" fill="#81B73E"/>
<path fill-rule="evenodd" clip-rule="evenodd" d="M20.1663 8.63604L17.4814 14.8023L17.6727 14.7529L21.8701 8.49304L20.1663 8.63604Z" fill="#69931D"/>
<path fill-rule="evenodd" clip-rule="evenodd" d="M17.3936 14.648L17.4533 14.7893L19.684 8.37401L19.0854 7.1308L17.3936 14.648Z" fill="#277933"/>
<path fill-rule="evenodd" clip-rule="evenodd" d="M21.8659 8.1665L20.0703 8.18939L20.1673 8.63616L21.8711 8.49277L21.8663 8.1665H21.8659Z" fill="#AECC53"/>
<path fill-rule="evenodd" clip-rule="evenodd" d="M19.085 7.13064L19.6829 8.37386L20.0698 8.18955L19.308 7.00882L19.085 7.13064Z" fill="#69931D"/>
<path fill-rule="evenodd" clip-rule="evenodd" d="M18.7775 5L15.5033 5.03473L15.4014 5.22773L17.2105 10.3616L17.3175 10.4329L17.3209 10.4332L17.4206 10.3766L18.9892 5.21589L18.7775 5Z" fill="#E4032E"/>
<path fill-rule="evenodd" clip-rule="evenodd" d="M15.4014 5.22751L17.2105 10.3614L17.3172 10.4326L16.6698 5.84898L15.4014 5.22751Z" fill="#791B15"/>
<path fill-rule="evenodd" clip-rule="evenodd" d="M17.2852 5.8501L17.3203 10.433L17.4204 10.3759L18.9886 5.21613L17.2852 5.8501Z" fill="#B51227"/>
<mask id="mask0" mask-type="alpha" maskUnits="userSpaceOnUse" x="23" y="15" width="8" height="5">
<path d="M23.8955 15.8298H31V19.3103H23.8955V15.8298Z" fill="white"/>
</mask>
<g mask="url(#mask0)">
<path fill-rule="evenodd" clip-rule="evenodd" d="M24.2731 18.6619C24.2747 18.8176 24.3108 18.9434 24.384 19.0389C24.4571 19.1347 24.5554 19.184 24.6774 19.1863C24.8003 19.1845 24.9206 19.1502 25.026 19.0868C25.1323 19.0243 25.2205 18.9353 25.2821 18.8284C25.3199 18.7604 25.3476 18.6728 25.365 18.5658C25.3822 18.4606 25.3905 18.3288 25.3905 18.1708V17.9262C25.1699 17.9458 25.012 17.9679 24.8972 17.993C24.7819 18.0182 24.6801 18.0539 24.5913 18.1016C24.3806 18.21 24.2747 18.398 24.2729 18.662L24.2731 18.6619ZM25.4405 19.1874C25.4157 19.1359 25.3978 19.075 25.3905 18.918L25.3879 18.872L25.3583 18.9071C25.323 18.9479 25.2884 18.9842 25.2544 19.0147C25.2203 19.0454 25.1807 19.0771 25.1362 19.1085C25.0385 19.1835 24.9441 19.236 24.8542 19.2661C24.764 19.2965 24.6622 19.3115 24.5488 19.3102C24.3515 19.3115 24.2002 19.2627 24.0918 19.1673C24.031 19.1107 23.9834 19.0398 23.9488 18.9538C23.9137 18.8654 23.8956 18.7713 23.8955 18.6762C23.8977 18.3105 24.1142 18.0745 24.5576 17.97C24.6801 17.9408 24.804 17.9177 24.9288 17.9007C25.0593 17.8827 25.2077 17.8675 25.3732 17.8559L25.3905 17.5371C25.3905 17.428 25.3854 17.3395 25.3754 17.2722C25.3669 17.2109 25.3496 17.1511 25.3241 17.0948C25.2584 16.9619 25.1241 16.8981 24.9307 16.8981C24.62 16.8962 24.4513 17.0498 24.4341 17.3546C24.4321 17.4031 24.4278 17.4376 24.4215 17.4579C24.4165 17.4756 24.4058 17.4912 24.3912 17.5023C24.3603 17.524 24.311 17.5361 24.2403 17.5371C24.0881 17.5393 24.0307 17.4923 24.0335 17.4131C24.0344 17.3308 24.061 17.2508 24.1139 17.1737C24.1672 17.0963 24.2412 17.029 24.337 16.972C24.5091 16.873 24.7293 16.8226 24.9997 16.8216C25.2953 16.8226 25.4935 16.8919 25.6019 17.0246C25.6457 17.0805 25.6782 17.1499 25.6993 17.2332C25.7203 17.3164 25.7311 17.4225 25.7311 17.5511L25.7305 17.5781L25.7282 17.7027L25.722 18.0325L25.7173 18.4853L25.7126 18.7045C25.7128 18.8076 25.7173 18.8863 25.7242 18.9746C25.7307 19.0601 25.7605 19.1561 25.8269 19.1811C25.8956 19.2077 25.9621 19.2182 26.0887 19.2189C26.1814 19.2173 26.253 19.2061 26.3016 19.1849C26.3563 19.1605 26.3906 19.1086 26.4055 19.0352C26.4197 18.9641 26.4256 18.855 26.4244 18.7088V17.4308C26.4276 17.2567 26.4077 17.1342 26.3601 17.0703C26.3135 17.0081 26.2262 16.9811 26.1067 16.9827V16.9143L26.7648 16.8652V17.4081L26.7994 17.3447C26.8965 17.165 27.0071 17.0377 27.13 16.9615C27.2528 16.8853 27.4069 16.847 27.5925 16.8493C27.8718 16.8449 28.0659 16.9419 28.1797 17.1358C28.2215 17.2008 28.2518 17.2788 28.27 17.3705C28.2877 17.4622 28.2975 17.579 28.2966 17.7214V18.7088C28.295 18.8564 28.3006 18.9662 28.3142 19.0373C28.3287 19.1107 28.3621 19.1623 28.4173 19.186C28.4636 19.2057 28.5704 19.2161 28.6614 19.2185C28.7469 19.2161 28.8127 19.2048 28.8584 19.1849C28.912 19.1605 28.9448 19.1086 28.9584 19.0352C28.9719 18.9637 28.9778 18.855 28.976 18.7088V16.3871C28.9778 16.2538 28.9726 16.1553 28.9595 16.0911C28.946 16.0251 28.9132 15.9793 28.859 15.9598C28.8121 15.9423 28.7419 15.9346 28.6495 15.934V15.8661L29.3339 15.8298C29.3169 16.1408 29.3081 16.4521 29.3078 16.7635V18.3231L30.0612 17.4672C30.1682 17.345 30.2264 17.2422 30.2274 17.1594C30.2326 17.0449 30.1212 16.9932 29.9374 16.9836V16.9158H30.9171V16.9848C30.8649 16.9901 30.8134 17.0014 30.7637 17.0183C30.7161 17.0352 30.6677 17.0591 30.6181 17.0902C30.5681 17.1216 30.5255 17.1507 30.4914 17.1772C30.4476 17.2124 30.4066 17.2508 30.3688 17.2922C30.3215 17.3416 30.2531 17.4168 30.163 17.5178L29.9144 17.7957L30.5657 18.8578C30.6402 18.9835 30.7086 19.0722 30.7712 19.1224C30.8315 19.1713 30.908 19.202 31.0001 19.2166V19.2864H30.4042C30.3825 19.2412 30.36 19.1964 30.3367 19.152L30.2418 18.9727L30.1695 18.8375L29.6876 18.0236L29.3084 18.463L29.3078 18.7088C29.3059 18.8549 29.3116 18.9641 29.3251 19.0351C29.3389 19.1085 29.3725 19.1605 29.427 19.1851C29.4748 19.2061 29.5458 19.2173 29.6384 19.2189V19.2862H27.625V19.2189C27.7612 19.2151 27.8551 19.1922 27.8922 19.1402C27.9073 19.1203 27.9188 19.0976 27.9272 19.0718C27.9359 19.0394 27.941 19.0062 27.9423 18.9727C27.9446 18.9406 27.9476 18.8947 27.9505 18.8343C27.954 18.7732 27.9559 18.7317 27.9563 18.7094V17.75C27.9568 17.5138 27.9323 17.3385 27.8806 17.2272C27.8021 17.0519 27.6603 16.9643 27.4593 16.9636C27.2352 16.9627 27.0566 17.0737 26.9242 17.2922C26.8741 17.3746 26.8357 17.4688 26.8073 17.5735C26.78 17.6745 26.7658 17.7787 26.7648 17.8833V18.7088C26.7632 18.8564 26.7691 18.9662 26.7827 19.0373C26.7969 19.1107 26.8303 19.1623 26.8858 19.186C26.9342 19.2068 27.0064 19.2173 27.1006 19.2189V19.2862H26.1104C26.0228 19.2894 25.8552 19.2937 25.7723 19.2926C25.6849 19.2912 25.6434 19.282 25.5642 19.2757C25.4937 19.2543 25.4641 19.2353 25.4406 19.1876" fill="black"/>
</g>
<path fill-rule="evenodd" clip-rule="evenodd" d="M23.2375 18.3314C23.2341 17.9997 23.1184 17.7644 22.8874 17.6329C22.8172 17.5962 22.7282 17.5677 22.6211 17.5474C22.5043 17.5261 22.3857 17.5157 22.2669 17.5164H21.8025V19.1798H22.2669C22.6035 19.1814 22.8497 19.1164 23.0011 18.9803C23.0778 18.9144 23.1361 18.8258 23.1767 18.7139C23.217 18.6026 23.2368 18.4745 23.2375 18.3314ZM21.8025 15.972V17.3969H22.2855C22.847 17.3935 23.1379 17.152 23.1407 16.6678C23.1449 16.1978 22.8382 15.9685 22.2442 15.9719H21.8025V15.972ZM21.4215 18.9544C21.4255 18.8693 21.4283 18.7841 21.4299 18.6989V16.4529L21.4227 16.2353C21.4219 16.2036 21.4199 16.172 21.4167 16.1405C21.4147 16.1249 21.4111 16.1096 21.4059 16.0948C21.3896 16.0391 21.3533 16 21.2998 15.9764C21.2498 15.9546 21.176 15.944 21.0801 15.9435V15.8672L22.3176 15.8666C22.4976 15.8676 22.6598 15.8794 22.8048 15.904C22.95 15.9278 23.0666 15.9608 23.1561 16.0035C23.4146 16.1305 23.5428 16.3447 23.5412 16.6489C23.5444 17.0841 23.2684 17.3619 22.6964 17.4334L22.6006 17.4495C22.7291 17.4545 22.9028 17.4987 22.9838 17.5182C23.0641 17.5372 23.1426 17.5679 23.2199 17.6096C23.5234 17.7678 23.6729 18.0198 23.6698 18.3699C23.6714 18.794 23.4717 19.0695 23.0667 19.2C22.9784 19.2263 22.8672 19.2466 22.733 19.2619C22.5874 19.2776 22.441 19.2853 22.2946 19.2849H21.0801V19.2085C21.2232 19.2065 21.3215 19.1839 21.3653 19.1307C21.3829 19.1129 21.3962 19.0928 21.4048 19.0704C21.4136 19.0474 21.4188 19.0076 21.4215 18.9544Z" fill="black"/>
<path fill-rule="evenodd" clip-rule="evenodd" d="M4.89683 17.7136H5.10929C5.36385 17.7127 5.55132 17.6505 5.6717 17.5262C5.73734 17.4543 5.78681 17.3599 5.82075 17.2437C5.85417 17.1274 5.87153 16.9947 5.87153 16.8448C5.87022 16.282 5.63236 16.0002 5.1581 15.9992H4.89683V17.7136ZM4.89683 17.8463V18.6964C4.89525 18.8328 4.90314 18.9341 4.91958 19.0003C4.93656 19.0666 4.97273 19.11 5.02957 19.1314C5.08561 19.1526 5.17191 19.1651 5.2886 19.1672V19.286H4V19.1672C4.10972 19.1651 4.19102 19.1526 4.24391 19.1314C4.29653 19.11 4.3306 19.0666 4.346 19.0003C4.36139 18.9341 4.36836 18.8328 4.36678 18.6964V16.4611C4.36836 16.3247 4.36178 16.2232 4.34665 16.1572C4.33179 16.0906 4.29903 16.0467 4.24838 16.0243C4.19786 16.0023 4.12077 15.9896 4.01605 15.9855V15.8668H5.24374C5.65723 15.8654 5.96033 15.9409 6.15267 16.0938C6.34553 16.247 6.44039 16.4882 6.43841 16.8177C6.43973 17.2808 6.26581 17.5841 5.91626 17.7275C5.82522 17.764 5.70893 17.7932 5.56803 17.8142C5.42661 17.8352 5.26966 17.8461 5.09706 17.8464H4.89669L4.89683 17.8463ZM7.01792 17.8578H7.95566C7.95171 17.7173 7.94422 17.6039 7.93356 17.518C7.92463 17.4399 7.90788 17.3628 7.88357 17.2881C7.80398 17.0488 7.68229 16.9302 7.5185 16.9322C7.33445 16.934 7.1971 17.0677 7.10672 17.3334C7.08247 17.4074 7.06382 17.483 7.05094 17.5597C7.03496 17.6585 7.02389 17.758 7.01779 17.8578H7.01792ZM8.51241 17.9895H7.01345C7.01503 18.1553 7.02437 18.2945 7.04147 18.4069C7.0587 18.5188 7.0862 18.6211 7.12396 18.714C7.24815 19.0153 7.44075 19.1652 7.70097 19.1652C7.8458 19.1654 7.98666 19.118 8.10182 19.0301C8.22154 18.9412 8.32178 18.8129 8.40125 18.646L8.50741 18.719C8.40309 18.9341 8.27508 19.0922 8.12484 19.1933C7.97421 19.294 7.79043 19.344 7.57362 19.3428C7.23236 19.3385 6.91846 19.2254 6.72218 19.0041C6.52563 18.7827 6.42499 18.4792 6.42092 18.0946C6.42499 17.7067 6.52221 17.4 6.71179 17.174C6.90149 16.9481 7.20473 16.8327 7.53113 16.828C7.7482 16.828 7.95777 16.8797 8.10682 16.9819C8.25587 17.0836 8.36533 17.2328 8.43624 17.4295C8.46118 17.5021 8.47881 17.5771 8.48886 17.6533C8.5007 17.7372 8.5086 17.8493 8.51254 17.9895H8.51241ZM8.60845 16.893L9.44015 16.8335C9.44449 16.9196 9.44765 16.9914 9.45028 17.0498C9.45239 17.1086 9.4537 17.1599 9.4537 17.205V17.3423C9.6342 17.0002 9.85232 16.8269 10.1082 16.8242C10.2184 16.8264 10.3086 16.8602 10.3774 16.9246C10.4463 16.9893 10.482 17.0719 10.4839 17.1725C10.4822 17.2565 10.4526 17.324 10.3943 17.3746C10.3365 17.4246 10.2601 17.4511 10.1656 17.452C10.0522 17.4561 9.98269 17.4072 9.95757 17.3057C9.94112 17.2425 9.92455 17.1999 9.90679 17.1773C9.88916 17.1545 9.86337 17.144 9.8293 17.1453H9.82075C9.73352 17.1527 9.6513 17.2242 9.57276 17.3611C9.53629 17.432 9.5096 17.5075 9.49343 17.5856C9.4758 17.6677 9.46686 17.7626 9.46686 17.8698V18.7176C9.46502 18.8531 9.47133 18.9529 9.4858 19.0172C9.50001 19.0809 9.53277 19.1229 9.58355 19.1427C9.6342 19.1627 9.713 19.1739 9.82075 19.1764V19.286H8.59082V19.1764C8.69107 19.1767 8.7654 19.1664 8.81368 19.1459C8.86222 19.1254 8.89314 19.0822 8.90761 19.0172C8.92208 18.9515 8.92866 18.8519 8.92734 18.7176V17.4476C8.93089 17.2587 8.91287 17.1358 8.87222 17.0793C8.83157 17.0224 8.74408 16.997 8.60858 17.003V16.8929L8.60845 16.893ZM11.4721 16.8334L11.4764 17.2875C11.6553 16.9819 11.9118 16.8275 12.246 16.8244C12.5857 16.8222 12.7953 16.9823 12.8741 17.3061C12.9701 17.139 13.0801 17.017 13.203 16.9397C13.3262 16.8617 13.4703 16.8234 13.6347 16.8243C13.8951 16.8259 14.0869 16.9148 14.2099 17.0901C14.258 17.1569 14.2924 17.2381 14.3129 17.3341C14.3334 17.4308 14.3432 17.5554 14.3425 17.709V18.7176C14.3409 18.8517 14.3475 18.9512 14.3621 19.0165C14.3766 19.0821 14.4078 19.1253 14.4559 19.1458C14.5046 19.1666 14.5785 19.1766 14.679 19.176V19.2863H13.48V19.1759C13.576 19.1766 13.6471 19.1667 13.6937 19.1458C13.74 19.1253 13.7702 19.0821 13.7842 19.0165C13.7982 18.9512 13.8043 18.8517 13.803 18.7176V17.7136C13.8039 17.473 13.7756 17.299 13.7173 17.192C13.6591 17.0855 13.5654 17.0332 13.4355 17.0351C13.2803 17.0324 13.1487 17.116 13.0419 17.2875C12.9516 17.4249 12.9039 17.5858 12.9048 17.7502V18.7176C12.9035 18.8517 12.91 18.9512 12.9238 19.0165C12.938 19.0821 12.9689 19.1253 13.0155 19.1458C13.0631 19.1666 13.1349 19.1766 13.2323 19.176V19.2863H12.0468V19.1759C12.1426 19.1766 12.2139 19.1667 12.2605 19.1458C12.3068 19.1253 12.337 19.0821 12.3509 19.0165C12.3648 18.9512 12.3714 18.8517 12.3698 18.7176V17.7089C12.372 17.2552 12.253 17.0307 12.0116 17.0351C11.8616 17.0407 11.7358 17.1147 11.6347 17.2561C11.5328 17.3982 11.4802 17.5752 11.4764 17.7869V18.7176C11.4751 18.8531 11.4811 18.9537 11.4953 19.0187C11.5092 19.0839 11.5394 19.1268 11.5858 19.1467C11.6324 19.167 11.7033 19.1766 11.7995 19.1759V19.2863H10.6002V19.1759C10.7007 19.1766 10.7748 19.167 10.8231 19.1467C10.8716 19.1268 10.9028 19.0839 10.9173 19.0187C10.9317 18.9537 10.9381 18.8529 10.9365 18.7174V17.4436C10.9412 17.2563 10.9233 17.1361 10.8823 17.0809C10.8416 17.0252 10.7506 16.9997 10.6094 17.0031V16.8927L11.4719 16.8335L11.4721 16.8334ZM17.8238 17.0431V18.5744C17.8229 18.6571 17.8263 18.7398 17.8342 18.8221C17.8414 18.8874 17.8527 18.9421 17.8678 18.9869C17.8865 19.0382 17.9155 19.0789 17.9545 19.1097C17.994 19.1401 18.0374 19.156 18.0844 19.1566C18.1791 19.1552 18.2822 19.1079 18.3945 19.0149L18.4563 19.1289C18.2783 19.2834 18.0766 19.3598 17.8501 19.3584C17.6062 19.3546 17.4395 19.2702 17.35 19.1063C17.3314 19.0666 17.3177 19.0247 17.3092 18.9816C17.298 18.9194 17.2914 18.8565 17.2895 18.7933C17.2854 18.7144 17.2835 18.6074 17.2839 18.4736V17.0432H17.0317V16.9061C17.1281 16.9022 17.2098 16.8813 17.2769 16.8427C17.344 16.8046 17.402 16.7449 17.4521 16.6629C17.4912 16.6007 17.5237 16.5317 17.5488 16.4556C17.5741 16.3794 17.5962 16.2852 17.6156 16.1721L17.8369 16.1497C17.8338 16.2112 17.8313 16.2727 17.8296 16.3343C17.8274 16.4092 17.8259 16.4842 17.8252 16.5592C17.8239 16.6474 17.8236 16.7599 17.8236 16.8963H18.3587V17.043H17.8236L17.8238 17.0431ZM16.2046 18.3155V17.9625C15.8878 17.9846 15.6631 18.0453 15.5305 18.1444C15.3977 18.2438 15.3334 18.3983 15.3376 18.6084C15.3389 18.7735 15.3713 18.9046 15.4356 19.0013C15.4991 19.0983 15.5858 19.1474 15.6958 19.1496C15.7853 19.1491 15.8724 19.1208 15.9451 19.0687C16.0214 19.0159 16.0809 18.9419 16.1247 18.8471C16.1531 18.7887 16.1735 18.7185 16.1861 18.6343C16.1985 18.5503 16.2048 18.444 16.2046 18.3154V18.3155ZM17.0298 19.1889V19.2856C16.9002 19.2944 16.848 19.2944 16.7118 19.2944C16.604 19.2944 16.4921 19.2929 16.3995 19.2568C16.3422 19.2344 16.3101 19.2154 16.2672 19.1688C16.2372 19.1193 16.2184 19.1166 16.2089 18.9799C16.0944 19.1079 15.9756 19.2017 15.8524 19.2621C15.7277 19.3223 15.5909 19.3528 15.4524 19.3513C15.2401 19.3486 15.0741 19.2885 14.954 19.1691C14.8343 19.0497 14.7735 18.8857 14.7712 18.6774C14.7703 18.2837 15.0063 18.0394 15.4788 17.9439C15.692 17.901 15.9338 17.8718 16.2044 17.8562V17.5587C16.2067 17.3203 16.1825 17.1549 16.1317 17.063C16.0804 16.9709 15.9899 16.9268 15.8594 16.9311C15.7207 16.9277 15.6218 16.9799 15.5632 17.0865C15.5406 17.126 15.5246 17.169 15.5159 17.2137C15.5061 17.261 15.4982 17.3271 15.4922 17.4124C15.4888 17.4939 15.4659 17.5521 15.4236 17.5863C15.3817 17.6212 15.3144 17.6376 15.2225 17.6369C15.0173 17.6354 14.9144 17.5649 14.9128 17.4263C14.9133 17.3452 14.9377 17.2674 14.9855 17.1941C15.0329 17.1201 15.1003 17.0555 15.1868 16.9994C15.3713 16.8821 15.6133 16.8239 15.9126 16.8255C16.2171 16.8239 16.4352 16.8864 16.5671 17.0136C16.6267 17.0715 16.6705 17.1456 16.6979 17.2354C16.7261 17.3255 16.7399 17.4412 16.7396 17.5822L16.7351 17.9808L16.7307 18.3795C16.7272 18.5104 16.7254 18.593 16.7263 18.6272C16.7247 18.7925 16.7297 18.9132 16.7414 18.989C16.7532 19.0651 16.7656 19.0989 16.8142 19.14C16.8984 19.19 16.9707 19.1888 17.0298 19.1892V19.1889ZM20.0131 18.3158V17.9627C19.6961 17.985 19.4716 18.046 19.339 18.1449C19.206 18.2443 19.1417 18.3988 19.1458 18.6089C19.1474 18.7743 19.1799 18.905 19.2442 19.0017C19.3077 19.0987 19.3944 19.1477 19.5041 19.15C19.5937 19.1495 19.6809 19.1213 19.7537 19.0692C19.83 19.0163 19.8895 18.9424 19.933 18.8475C19.9617 18.7891 19.9821 18.7189 19.9945 18.6347C20.0071 18.551 20.0134 18.4444 20.013 18.3158H20.0131ZM20.838 19.1892V19.2857C20.7088 19.2946 20.6565 19.2951 20.5204 19.2951C20.4125 19.2951 20.3011 19.2935 20.2077 19.2572C20.1507 19.2348 20.1186 19.2159 20.0758 19.1691C20.0458 19.1199 20.027 19.1171 20.0175 18.9803C19.903 19.108 19.7842 19.2022 19.6607 19.2625C19.536 19.3226 19.3992 19.3531 19.2608 19.3517C19.0484 19.3492 18.8827 19.2885 18.7626 19.1696C18.6428 19.0503 18.5821 18.8865 18.5796 18.6778C18.5789 18.2845 18.815 18.0398 19.2873 17.9447C19.5006 17.9015 19.7424 17.8723 20.013 17.857V17.5589C20.0152 17.3205 19.9906 17.1552 19.9399 17.063C19.8888 16.9709 19.7982 16.9271 19.6675 16.9314C19.5294 16.9284 19.4303 16.9802 19.3715 17.0869C19.3492 17.1265 19.3333 17.1694 19.3244 17.214C19.3147 17.2612 19.3068 17.3274 19.3008 17.4126C19.2973 17.4941 19.2744 17.5521 19.2318 17.5867C19.1902 17.6214 19.1232 17.638 19.0308 17.6373C18.826 17.6358 18.7226 17.5655 18.721 17.4266C18.7223 17.3438 18.7476 17.2631 18.7939 17.1944C18.8414 17.1205 18.9088 17.0557 18.9955 17.0005C19.1795 16.8827 19.4215 16.8242 19.7209 16.8258C20.0254 16.8242 20.2438 16.8867 20.3757 17.0142C20.4353 17.072 20.4791 17.146 20.5065 17.2357C20.5345 17.3262 20.5484 17.4414 20.548 17.5822L20.5437 17.9814L20.5392 18.3798C20.5358 18.5106 20.534 18.5934 20.5349 18.6276C20.5333 18.7928 20.5383 18.9134 20.5496 18.9896C20.5616 19.0658 20.5742 19.0993 20.6225 19.1404C20.707 19.1904 20.7795 19.1888 20.838 19.1891" fill="black"/>
</svg>
