<svg width="30" height="20" viewBox="0 0 30 20" fill="none" xmlns="http://www.w3.org/2000/svg">
<rect x="0.5" y="0.5" width="29" height="19" rx="2.5" fill="#32BCAD"/>
<rect x="0.5" y="0.5" width="29" height="19" rx="2.5" stroke="#32BCAD"/>
<g clip-path="url(#clip0_9973_1257)">
<path d="M19.4678 14.2274C18.8406 14.2274 18.2507 13.984 17.8071 13.5422L15.4092 11.1523C15.2409 10.9841 14.9475 10.9846 14.7792 11.1523L12.3725 13.5509C11.929 13.9928 11.339 14.2362 10.7118 14.2362H10.2393L13.2763 17.2629C14.2247 18.2082 15.7625 18.2082 16.711 17.2629L19.7567 14.2274H19.4678Z" fill="white"/>
<path d="M10.7117 5.77412C11.3389 5.77412 11.9288 6.01752 12.3724 6.45936L14.779 8.85836C14.9523 9.03118 15.2353 9.03182 15.4091 8.85816L17.807 6.46811C18.2505 6.02626 18.8405 5.78286 19.4677 5.78286H19.7565L16.7109 2.74745C15.7624 1.80212 14.2246 1.80212 13.2761 2.74745L10.2393 5.77413L10.7117 5.77412Z" fill="white"/>
<path d="M22.2758 8.29358L20.4353 6.45927C20.3948 6.47544 20.3509 6.48554 20.3046 6.48554H19.4678C19.0351 6.48554 18.6116 6.66043 18.3059 6.96533L15.9081 9.35516C15.6837 9.5788 15.3889 9.6907 15.0943 9.6907C14.7994 9.6907 14.5048 9.5788 14.2805 9.35537L11.8736 6.95659C11.5679 6.65163 11.1444 6.47681 10.7118 6.47681H9.6828C9.63892 6.47681 9.59791 6.4665 9.55919 6.45197L7.71138 8.29358C6.76287 9.2389 6.76287 10.7715 7.71138 11.7168L9.55911 13.5583C9.5979 13.5438 9.63892 13.5335 9.6828 13.5335H10.7118C11.1444 13.5335 11.5679 13.3587 11.8736 13.0538L14.2802 10.6552C14.7152 10.222 15.4735 10.2219 15.9081 10.6554L18.3059 13.045C18.6116 13.3499 19.0351 13.5248 19.4678 13.5248H20.3046C20.3509 13.5248 20.3948 13.5349 20.4353 13.5511L22.2758 11.7168C23.2242 10.7715 23.2242 9.2389 22.2758 8.29358Z" fill="white"/>
</g>
<defs>
<clipPath id="clip0_9973_1257">
<rect width="16" height="16" fill="white" transform="translate(7 2)"/>
</clipPath>
</defs>
</svg>
