<svg width="35" height="24" viewBox="0 0 35 24" fill="none" xmlns="http://www.w3.org/2000/svg">
<path d="M0 3.25C0 1.45508 1.45507 0 3.25 0H31.75C33.5449 0 35 1.45507 35 3.25V20.75C35 22.5449 33.5449 24 31.75 24H3.25C1.45507 24 0 22.5449 0 20.75V3.25Z" fill="white"/>
<rect x="0.508022" y="0.508022" width="33.984" height="22.984" rx="2.74198" fill="white"/>
<mask id="mask0_998_3765" style="mask-type:alpha" maskUnits="userSpaceOnUse" x="11" y="7" width="11" height="11">
<path fill-rule="evenodd" clip-rule="evenodd" d="M11.1565 7.00098H21.4401V17.3348H11.1565V7.00098Z" fill="white"/>
</mask>
<g mask="url(#mask0_998_3765)">
<path fill-rule="evenodd" clip-rule="evenodd" d="M18.7924 8.30891C19.0164 8.46438 19.3914 8.76616 19.556 8.91248C20.315 9.58921 20.7768 10.3208 20.8911 11.3633C21.1152 13.8279 19.3776 15.7438 17.7132 16.3931C17.6264 16.4251 17.4618 16.4891 17.3795 16.5166C17.3109 16.5348 17.2926 16.4708 17.3474 16.448C17.4755 16.3977 17.6492 16.3199 17.6995 16.2971C18.6278 15.8627 19.4005 15.282 19.9675 14.4315C20.8134 13.1649 21.0786 11.8069 20.5025 10.3528C20.2876 9.72639 19.4599 8.88962 18.7192 8.52382C18.8518 8.61527 19.3273 8.96278 19.5834 9.20969C20.1778 9.77211 20.5574 10.4306 20.6534 11.2627C20.7951 12.5613 20.4019 13.5856 19.8806 14.3492C19.4279 15.0122 19.0164 15.3826 18.582 15.6844C17.9464 16.1279 17.0731 16.4845 16.1997 16.512C16.1129 16.512 16.1083 16.4571 16.1952 16.448C17.224 16.3519 18.0333 15.9176 18.0699 15.8947C19.277 15.1814 20.411 14.0291 20.5711 12.0721C20.6397 10.9975 20.2007 9.79497 19.117 9.03594C18.9981 8.94906 18.7741 8.8256 18.6689 8.78445C18.7375 8.83018 18.8564 8.92163 18.8609 8.9262C18.9295 8.98107 19.213 9.20512 19.3502 9.33772C20.155 10.0099 20.6991 11.2353 20.3882 12.7168C20.0132 14.4955 18.4997 15.9358 16.6844 16.2376C16.1449 16.3245 15.6282 16.3474 15.0383 16.2834C14.9606 16.2696 14.9743 16.1919 15.052 16.1965C15.1252 16.2011 15.3264 16.2148 15.4041 16.2148C16.0671 16.2422 16.4832 16.2011 17.0502 16.0547C19.2268 15.4832 20.6488 13.4118 20.3059 11.2856C20.155 10.3665 19.5148 9.4749 18.5637 8.96735C18.9753 9.31029 19.2679 9.57092 19.4782 9.82241C19.9172 10.3345 20.3013 11.0844 20.2601 11.9806C20.2098 13.2655 19.6566 14.2257 18.7466 15.0305C18.2117 15.4786 17.6401 15.8032 16.9862 15.9816C16.4147 16.1325 15.8111 16.1828 15.0566 16.0593C14.9789 16.0456 14.988 15.9724 15.0749 15.9861C15.1206 15.9953 15.4178 16.0182 15.4681 16.0182C16.9999 16.0913 18.3351 15.4786 19.3045 14.276C20.1824 13.1923 20.3836 11.7063 19.8715 10.6317C19.6291 10.1105 19.1033 9.53891 18.486 9.21884C18.6049 9.31029 18.8518 9.50691 18.9707 9.62122C19.3731 10.0145 19.7617 10.426 19.9172 11.057C20.1915 12.2367 19.9263 13.3661 19.1765 14.2852C18.3214 15.3323 16.9588 16.0273 15.4133 15.9084C15.0246 15.8718 14.7091 15.7575 14.3342 15.5792C14.261 15.5426 14.293 15.474 14.3616 15.5015C14.5582 15.5838 14.7045 15.6341 14.7823 15.6615C16.6753 16.2605 19.0987 15.0671 19.7617 12.9866C20.1138 11.7337 19.9584 10.5083 18.4311 9.42917C18.7055 9.66237 18.9753 9.9733 19.0941 10.115C19.7755 10.9564 19.8623 11.7474 19.7755 12.4699C19.5377 13.9377 18.4403 15.0213 17.2789 15.4557C16.3369 15.8215 15.3035 15.8078 14.3662 15.346C14.1741 15.25 13.9775 15.1037 13.7809 14.9253C13.694 14.843 13.7443 14.779 13.8449 14.8659C14.3022 15.2545 14.7685 15.4283 15.0292 15.5015C16.9542 15.9953 19.149 14.6601 19.6108 12.7442C19.8669 11.5508 19.5194 10.6317 18.3214 9.72181C18.518 9.923 18.8015 10.2156 18.9478 10.4031C19.2268 10.7506 19.4737 11.185 19.5102 11.6651C19.6611 13.1329 18.8244 14.2806 17.7544 14.971C16.753 15.5746 15.619 15.6889 14.5125 15.1402C14.357 15.0579 14.0872 14.8979 13.7855 14.5687C13.726 14.5001 13.7855 14.4498 13.8495 14.5184C13.9546 14.6281 14.1421 14.7927 14.2336 14.8567C14.9377 15.3414 15.7242 15.4603 16.5564 15.3048C18.1614 15.0031 19.5331 13.4804 19.3959 11.8389C19.3456 11.3451 19.1307 10.682 18.2391 10.0602C18.6369 10.3894 18.8152 10.682 18.8564 10.7461C19.1673 11.1896 19.2679 11.7017 19.245 12.1772C19.1902 13.2244 18.6049 14.0931 17.7635 14.6693C17.0777 15.1402 16.1449 15.3826 15.2532 15.1814C14.133 14.9345 13.2368 13.956 13.3556 12.5248C13.4882 11.0021 14.796 9.8407 16.1815 9.66237C16.1494 9.87728 16.1403 9.96416 16.1174 10.1105C16.9085 9.68981 17.8047 9.21427 18.5089 8.83932C17.9144 8.23575 17.2331 7.60932 16.6433 7.01489C16.5747 7.3304 16.5335 7.52244 16.5335 7.52244C16.5335 7.52244 16.218 7.53159 16.0351 7.56359C14.4119 7.8288 13.1865 8.66557 12.2354 9.93215C11.3437 11.1164 10.9871 12.5248 11.2386 13.9148C11.6501 16.1553 13.5523 17.2527 15.4864 17.3442C16.3964 17.3853 17.4618 17.0927 18.262 16.672C20.0361 15.7347 21.3027 14.1023 21.4307 11.9532C21.5267 10.3391 20.7585 9.0085 19.5331 8.20832C19.3182 8.062 19.0027 7.94311 18.893 7.90653C20.2739 8.65185 21.0192 9.77211 21.2432 10.8649C21.5176 12.2138 21.1609 13.6816 20.2464 14.8796C20.0178 15.1814 19.5926 15.6203 19.4051 15.7712C19.3365 15.8261 19.2862 15.785 19.3594 15.7164C19.6657 15.4146 20.0727 15.0122 20.4385 14.4635C20.9734 13.6542 21.4124 12.5385 21.1152 10.9015C21.0009 10.1928 20.4933 9.28743 19.9081 8.79817C19.5926 8.52839 19.3091 8.28148 18.8198 8.11229C18.957 8.19003 19.1902 8.30891 19.4874 8.55125C20.2236 9.14111 20.5665 9.63494 20.8271 10.2842C21.0146 10.7461 21.1243 11.249 21.1335 11.8709C21.1655 13.5902 19.9995 15.3277 18.4494 16.2422C18.3625 16.2925 18.3168 16.2422 18.3946 16.1919C18.5592 16.0776 18.7101 15.977 18.8289 15.881C18.9524 15.785 19.0804 15.6844 19.1947 15.5792C20.5025 14.3995 21.2112 12.9866 20.9643 11.1987C20.7997 9.96416 20.0955 8.97192 18.7924 8.30891Z" fill="#30469D"/>
</g>
<path fill-rule="evenodd" clip-rule="evenodd" d="M28.1245 14.2519H25.102V8.02417H22.2168V16.904H28.1245V14.2519Z" fill="black"/>
<mask id="mask1_998_3765" style="mask-type:alpha" maskUnits="userSpaceOnUse" x="4" y="7" width="30" height="11">
<path fill-rule="evenodd" clip-rule="evenodd" d="M4 17.3338H33.7487V7H4V17.3338Z" fill="white"/>
</mask>
<g mask="url(#mask1_998_3765)">
<path fill-rule="evenodd" clip-rule="evenodd" d="M28.6641 10.4293H31.435V8.02417H28.6641V10.4293ZM28.6641 16.904H31.435V11.074H28.6641V16.904Z" fill="black"/>
</g>
<mask id="mask2_998_3765" style="mask-type:alpha" maskUnits="userSpaceOnUse" x="4" y="7" width="30" height="11">
<path fill-rule="evenodd" clip-rule="evenodd" d="M4 17.3338H33.7487V7H4V17.3338Z" fill="white"/>
</mask>
<g mask="url(#mask2_998_3765)">
<path fill-rule="evenodd" clip-rule="evenodd" d="M8.04666 11.9246C7.99179 12.2722 7.75402 12.5053 7.37908 12.5831C7.12759 12.638 6.68863 12.6151 6.58803 12.6059C6.57889 11.696 6.58803 10.6306 6.58803 9.66583C6.88982 9.68412 7.12302 9.69784 7.36993 9.74813C7.79975 9.83044 8.05581 10.2374 8.0741 10.4614C8.11068 10.9507 8.11525 11.4857 8.04666 11.9246ZM10.0586 8.87936C9.64704 8.42211 8.75997 8.07917 7.99179 8.05631C6.71607 8.01516 4.07773 8.0243 4 8.0243V16.8995H6.59261V14.1972C6.84867 14.1972 7.10015 14.1972 7.31506 14.1972C7.96436 14.1926 8.54506 14.1332 9.16692 13.932C9.92139 13.6896 10.3375 13.269 10.5661 12.5831C10.7947 11.8972 10.8176 11.193 10.7353 10.4843C10.6667 9.92646 10.4472 9.31375 10.0586 8.87936Z" fill="black"/>
</g>
<rect x="0.508022" y="0.508022" width="33.984" height="22.984" rx="2.74198" stroke="#F6F7F8" stroke-width="1.01604"/>
<path d="M3.25 1H31.75V-1H3.25V1ZM34 3.25V20.75H36V3.25H34ZM31.75 23H3.25V25H31.75V23ZM1 20.75V3.25H-1V20.75H1ZM3.25 23C2.00736 23 1 21.9926 1 20.75H-1C-1 23.0972 0.902789 25 3.25 25V23ZM34 20.75C34 21.9926 32.9926 23 31.75 23V25C34.0972 25 36 23.0972 36 20.75H34ZM31.75 1C32.9926 1 34 2.00736 34 3.25H36C36 0.90279 34.0972 -1 31.75 -1V1ZM3.25 -1C0.90279 -1 -1 0.902791 -1 3.25H1C1 2.00736 2.00736 1 3.25 1V-1Z" fill="#F6F7F8"/>
</svg>
