<svg width="35" height="24" viewBox="0 0 35 24" fill="none" xmlns="http://www.w3.org/2000/svg">
<path d="M0 3.25C0 1.45508 1.45507 0 3.25 0H31.75C33.5449 0 35 1.45507 35 3.25V20.75C35 22.5449 33.5449 24 31.75 24H3.25C1.45507 24 0 22.5449 0 20.75V3.25Z" fill="white"/>
<path d="M12.0579 8.50663C11.5156 8.50663 11.0801 8.06219 11.0801 7.51996C11.0801 6.97774 11.5156 6.5333 12.0579 6.5333C12.6001 6.5333 13.0445 6.97774 13.0445 7.51996C13.0445 8.07108 12.6001 8.50663 12.0579 8.50663ZM12.0756 5.54663C10.9467 5.54663 10.0579 6.41774 10.0579 7.53774C10.0579 8.62219 10.8934 9.50219 11.9156 9.50219C12.2623 9.50219 12.4845 9.43108 12.7779 9.21774L13.0268 9.03996V9.39552H14.0579V7.61774C14.0579 6.41774 13.2223 5.54663 12.0756 5.54663Z" fill="#08BF5B"/>
<path d="M16.6267 8.50667C16.0845 8.50667 15.64 8.06222 15.64 7.52C15.64 6.97778 16.0845 6.53333 16.6267 6.53333C17.1689 6.53333 17.6134 6.97778 17.6134 7.52C17.6045 8.07111 17.1689 8.50667 16.6267 8.50667ZM16.7512 5.53778C16.4489 5.53778 16.1912 5.61778 15.8978 5.79556L15.64 5.95556V4H14.6267V7.39556C14.6267 8.60444 15.4534 9.48444 16.6089 9.48444C17.7378 9.48444 18.6178 8.61333 18.6178 7.49333C18.6178 6.43556 17.7645 5.53778 16.7512 5.53778Z" fill="#08BF5B"/>
<path d="M21.1068 8.50667C20.5646 8.50667 20.1202 8.06222 20.1202 7.52C20.1202 6.97778 20.5646 6.53333 21.1068 6.53333C21.6491 6.53333 22.0935 6.97778 22.0935 7.52C22.0935 8.07111 21.6491 8.50667 21.1068 8.50667ZM21.2402 5.53778C20.9379 5.53778 20.6802 5.61778 20.3868 5.79556L20.1291 5.95556V4H19.1157V7.39556C19.1157 8.60444 19.9424 9.48444 21.0979 9.48444C22.2268 9.48444 23.1068 8.61333 23.1068 7.49333C23.1068 6.43556 22.2446 5.53778 21.2402 5.53778Z" fill="#08BF5B"/>
<path d="M24.6712 5.66235H23.6667V9.39569H24.6712V5.66235Z" fill="#08BF5B"/>
<path d="M27.3733 6.59569V5.7068H26.3511V4.05347H25.3467V7.9468C25.3467 8.56902 25.4622 8.88013 25.8 9.13791C26.0933 9.35124 26.3245 9.40458 26.9556 9.40458H27.3822V8.51569H27.0622C26.52 8.51569 26.36 8.36458 26.36 7.84902V6.5868L27.3733 6.59569Z" fill="#08BF5B"/>
<path d="M9.72002 5.51988C8.55557 5.51988 7.73779 6.39988 7.73779 7.61765V9.38654H8.75113V7.7421C8.75113 6.99543 9.11557 6.5421 9.7289 6.5421C9.73779 6.5421 9.75557 6.5421 9.76446 6.5421C9.77335 6.5421 9.78224 6.5421 9.79113 6.5421V5.51099H9.77335C9.75557 5.51988 9.73779 5.51988 9.72002 5.51988Z" fill="#08BF5B"/>
<path d="M27.8533 20H7.28444C7.12444 20 7 19.8756 7 19.7156V12.1511C7 11.9911 7.12444 11.8667 7.28444 11.8667H27.8533C28.0133 11.8667 28.1378 11.9911 28.1378 12.1511V19.7156C28.1378 19.8756 28.0133 20 27.8533 20Z" fill="#08BF5B"/>
<path d="M21.3824 15.4312C21.3824 16.0445 20.8846 16.5423 20.2446 16.5423H19.7557V17.4312C19.7557 17.4934 19.7112 17.5378 19.649 17.5378H19.1601C19.0979 17.5378 19.0535 17.4934 19.0535 17.4312V14.4267C19.0535 14.3645 19.1068 14.3201 19.1601 14.3201H20.2446C20.8846 14.329 21.3824 14.8178 21.3824 15.4312ZM20.6446 15.4401C20.6446 15.2178 20.4846 15.049 20.2712 15.049H19.7912V15.8312H20.2801C20.4935 15.8401 20.6446 15.6623 20.6446 15.4401Z" fill="white"/>
<path d="M23.9867 15.3068V17.4935C23.9867 17.529 23.9601 17.5468 23.9334 17.5468H23.3556C23.3201 17.5468 23.3023 17.5202 23.3023 17.4935V17.3335C23.1512 17.5113 22.9201 17.6179 22.6178 17.6179C22.0134 17.6179 21.5156 17.0846 21.5156 16.4002C21.5156 15.7157 22.0134 15.1824 22.6178 15.1824C22.929 15.1824 23.1512 15.289 23.3023 15.4668V15.3068C23.3023 15.2713 23.329 15.2535 23.3556 15.2535H23.9334C23.9601 15.2446 23.9867 15.2713 23.9867 15.3068ZM23.2667 16.4002C23.2667 16.0713 23.0445 15.8668 22.7423 15.8668C22.4401 15.8668 22.2178 16.0713 22.2178 16.4002C22.2178 16.729 22.4401 16.9335 22.7423 16.9335C23.0445 16.9335 23.2667 16.729 23.2667 16.4002Z" fill="white"/>
<path d="M26.0935 15.3067L25.5957 16.5956L25.0624 15.3067C25.0446 15.2712 25.0179 15.2445 24.9735 15.2445H24.3513C24.3157 15.2445 24.2802 15.2889 24.2979 15.3245L25.2135 17.5556L24.8757 18.4C24.8579 18.4356 24.8846 18.48 24.9291 18.48H25.5157C25.5513 18.48 25.5868 18.4534 25.6046 18.4178L26.8313 15.3156C26.8491 15.28 26.8224 15.2356 26.7779 15.2356H26.1735C26.1379 15.2445 26.1024 15.2712 26.0935 15.3067Z" fill="white"/>
<path d="M10.7511 17.4313C10.7511 17.4935 10.6977 17.5379 10.6444 17.5379H8.69773C8.67106 17.5379 8.6444 17.5291 8.61773 17.5024C8.59995 17.4846 8.59106 17.4579 8.59106 17.4224V14.4179C8.59106 14.3557 8.6444 14.3113 8.69773 14.3113H9.21329C9.27551 14.3113 9.31995 14.3646 9.31995 14.4179V16.7913H10.6355C10.6977 16.7913 10.7422 16.8446 10.7422 16.8979V17.4313H10.7511Z" fill="white"/>
<path d="M11.9066 17.4312C11.9066 17.4934 11.8533 17.5378 11.8 17.5378H11.2844C11.2222 17.5378 11.1777 17.4845 11.1777 17.4312V14.4267C11.1777 14.3645 11.2311 14.3201 11.2844 14.3201H11.7911C11.8533 14.3201 11.8977 14.3734 11.8977 14.4267L11.9066 17.4312Z" fill="white"/>
<path d="M15.2044 17.4401C15.2044 17.5023 15.1511 17.5467 15.0977 17.5467H14.5911C14.5822 17.5467 14.5733 17.5467 14.5644 17.5467H14.5555L14.5377 17.5378C14.5288 17.529 14.52 17.5201 14.5111 17.5112L13.1244 15.5823V17.4401C13.1244 17.5023 13.0711 17.5467 13.0177 17.5467H12.5022C12.44 17.5467 12.3955 17.4934 12.3955 17.4401V14.4356C12.3955 14.3734 12.4488 14.329 12.5022 14.329H13.0266H13.0355H13.0533L13.08 14.3378C13.08 14.3378 13.08 14.3378 13.0888 14.3467C13.0888 14.3467 13.0888 14.3467 13.0977 14.3556C13.0977 14.3556 13.1066 14.3556 13.1066 14.3645L13.1155 14.3734L14.4755 16.2667V14.4267C14.4755 14.3645 14.5288 14.3201 14.5822 14.3201H15.0977C15.16 14.3201 15.2044 14.3734 15.2044 14.4267V17.4401Z" fill="white"/>
<path d="M17.8533 14.9513C17.8533 15.0135 17.7999 15.0579 17.7466 15.0579H16.431V15.5646H17.7466C17.8088 15.5646 17.8533 15.6179 17.8533 15.6713V16.1868C17.8533 16.2491 17.7999 16.2935 17.7466 16.2935H16.431V16.8002H17.7466C17.8088 16.8002 17.8533 16.8535 17.8533 16.9068V17.4224C17.8533 17.4846 17.7999 17.5291 17.7466 17.5291H15.7999C15.7733 17.5291 15.7466 17.5202 15.7288 17.5024C15.711 17.4846 15.7021 17.4579 15.7021 17.4224V14.4179C15.7021 14.3913 15.711 14.3646 15.7377 14.3379C15.7555 14.3202 15.7821 14.3113 15.8177 14.3113H17.7644C17.8266 14.3113 17.871 14.3646 17.871 14.4179V14.9513H17.8533Z" fill="white"/>
<path d="M3.25 1H31.75V-1H3.25V1ZM34 3.25V20.75H36V3.25H34ZM31.75 23H3.25V25H31.75V23ZM1 20.75V3.25H-1V20.75H1ZM3.25 23C2.00736 23 1 21.9926 1 20.75H-1C-1 23.0972 0.902789 25 3.25 25V23ZM34 20.75C34 21.9926 32.9926 23 31.75 23V25C34.0972 25 36 23.0972 36 20.75H34ZM31.75 1C32.9926 1 34 2.00736 34 3.25H36C36 0.90279 34.0972 -1 31.75 -1V1ZM3.25 -1C0.90279 -1 -1 0.90279 -1 3.25H1C1 2.00736 2.00736 1 3.25 1V-1Z" fill="#F6F7F8"/>
</svg>
