<svg width="71" height="48" viewBox="0 0 71 48" fill="none" xmlns="http://www.w3.org/2000/svg">
<g id="payment logo">
<rect x="1.33398" y="1" width="68" height="46" rx="5.5" fill="white"/>
<rect x="1.33398" y="1" width="68" height="46" rx="5.5" stroke="#F6F7F8" stroke-width="2"/>
<path id="Vector" d="M64.0945 17.8949L59.3945 32.1449C58.8945 33.6649 57.7945 34.5149 56.3745 34.5149C55.4845 34.5149 54.6645 34.1849 54.0445 33.5749L54.9145 32.2249C55.3345 32.5949 55.7245 32.7649 56.2445 32.7649C56.9745 32.7649 57.3245 32.4549 57.6845 31.4749L57.9745 30.6849L53.4345 17.8849H55.3745L58.8545 28.0649L62.1445 17.8849L64.0945 17.8949ZM49.7745 29.5649C48.7546 30.7749 47.5946 31.3349 46.0746 31.3349C42.6446 31.3349 40.2946 28.5249 40.2946 24.4449C40.2946 20.3649 42.6646 17.5749 46.1246 17.5749C47.6846 17.5749 48.7645 18.0349 49.8045 19.1149L50.0746 17.8849H51.7445V30.9949H50.0746L49.7745 29.5649ZM42.2846 24.4449C42.2846 27.4249 43.9046 29.5849 46.1146 29.5849C48.3246 29.5849 49.9245 27.4449 49.9245 24.4649C49.9245 21.4649 48.3246 19.3249 46.0946 19.3249C43.9046 19.3249 42.2846 21.5149 42.2846 24.4449ZM34.4946 14.6249C37.4246 14.6249 39.5146 16.6449 39.5146 19.5349C39.5146 22.4249 37.4346 24.4649 34.4946 24.4649H30.9346V30.9949H29.0646V14.6249H34.4946ZM34.3746 22.7249C36.2046 22.7249 37.5146 21.3949 37.5146 19.5449C37.5146 17.6949 36.2246 16.3849 34.3746 16.3849H30.9446V22.7349L34.3746 22.7249ZM9.84461 35.2249L6.97461 32.8149H27.1346L9.84461 35.2249ZM13.1246 31.0049V25.6549H15.4346L19.4446 31.0049H23.5446L18.6946 24.5549C20.2046 23.4749 21.1946 21.7049 21.1946 19.7149C21.1946 16.4349 18.5246 13.7749 15.2446 13.7749H9.84461V31.0149L13.1246 31.0049ZM13.1246 17.0349H15.2646C16.7346 17.0349 17.9346 18.2349 17.9346 19.7049C17.9346 21.1849 16.7346 22.3749 15.2646 22.3749H13.1246V17.0349Z" fill="#BF0000"/>
</g>
</svg>
