<svg width="35" height="24" viewBox="0 0 35 24" fill="none" xmlns="http://www.w3.org/2000/svg">
<rect x="0.416667" y="0.416667" width="34.1667" height="23.1667" rx="2.2901" fill="white" stroke="#F6F7F8" stroke-width="0.833333"/>
<path d="M13.7423 11.0449C13.8789 11.1034 13.9766 11.2987 13.9766 11.4939V13.9147C13.9766 14.1099 13.8594 14.2075 13.7423 14.149L11.9657 13.3681C11.8291 13.3095 11.7314 13.1143 11.7314 12.919V10.4982C11.7314 10.303 11.8486 10.2054 11.9657 10.264L13.7423 11.0449Z" fill="url(#paint0_linear)"/>
<path d="M10.1301 6.59387C10.3839 6.711 10.5986 7.10146 10.5986 7.47239V12.0798C10.5986 12.4507 10.3839 12.6654 10.1301 12.5483L6.57694 10.9865C6.30363 10.8693 6.1084 10.4789 6.1084 10.108V5.50059C6.1084 5.12966 6.32315 4.91491 6.57694 5.03205L10.1301 6.59387Z" fill="url(#paint1_linear)"/>
<path d="M8.02169 10.5179C8.27548 10.6351 8.49023 11.0255 8.49023 11.3965V16.0038C8.49023 16.3748 8.27548 16.5895 8.02169 16.4724L4.46855 14.9106C4.21475 14.7934 4 14.403 4 14.032V9.42466C4 9.05373 4.21475 8.83898 4.46855 8.95612L8.02169 10.5179Z" fill="url(#paint2_linear)"/>
<path d="M11.7111 14.0128C11.9649 14.1299 12.1797 14.5203 12.1797 14.8913V19.4986C12.1797 19.8696 11.9649 20.0843 11.7111 19.9672L8.158 18.4054C7.9042 18.2882 7.68945 17.8978 7.68945 17.5268V12.9195C7.68945 12.5485 7.9042 12.3338 8.158 12.4509L11.7111 14.0128Z" fill="url(#paint3_linear)"/>
<path d="M16.5338 14.2858L16.4948 14.442C16.4557 14.6177 16.4557 14.7738 16.4753 14.9105C16.4948 15.0276 16.5534 15.1253 16.6119 15.2033C16.69 15.2814 16.7681 15.34 16.8657 15.3595C16.9633 15.3986 17.0805 15.3986 17.1781 15.3986C17.4514 15.3986 17.6857 15.34 17.9004 15.2033C18.1152 15.0667 18.2518 14.8519 18.3104 14.52C18.3495 14.3639 18.3299 14.2467 18.2909 14.1296C18.2518 14.0125 18.1737 13.9148 18.0761 13.8368C17.9785 13.7391 17.8614 13.661 17.7442 13.583C17.6076 13.5049 17.4905 13.4268 17.3538 13.3487C17.2171 13.2706 17.0805 13.1925 16.9633 13.0949C16.8462 12.9973 16.7291 12.8997 16.651 12.7825C16.5534 12.6654 16.4948 12.5287 16.4557 12.3725C16.4167 12.2164 16.4167 12.0407 16.4557 11.8454C16.5143 11.6112 16.5924 11.3964 16.7095 11.2207C16.8267 11.045 16.9633 10.8888 17.139 10.7522C17.3147 10.635 17.4905 10.5374 17.7052 10.4788C17.92 10.4203 18.1347 10.3812 18.3495 10.3812C18.8375 10.3812 19.1889 10.4984 19.4037 10.7522C19.6184 11.006 19.6575 11.3964 19.5208 11.943H18.7985C18.8375 11.7869 18.8375 11.6502 18.8375 11.5331C18.8375 11.4159 18.818 11.3183 18.779 11.2207C18.7399 11.1231 18.6618 11.0645 18.5642 11.0255C18.4666 10.9864 18.3299 10.9474 18.1737 10.9474C18.0761 10.9474 17.959 10.9669 17.8614 10.9864C17.7638 11.006 17.6662 11.0645 17.5685 11.1231C17.4709 11.1817 17.3928 11.2597 17.3343 11.3769C17.2562 11.4745 17.2171 11.6112 17.1781 11.7478C17.139 11.943 17.1586 12.1188 17.2562 12.2359C17.3538 12.3725 17.4709 12.4897 17.6271 12.5873C17.7833 12.6849 17.959 12.802 18.1347 12.8997C18.3104 12.9973 18.4861 13.1144 18.6423 13.2511C18.7985 13.3877 18.9156 13.5439 18.9937 13.7391C19.0718 13.9344 19.0913 14.1686 19.0328 14.4615C18.9742 14.7543 18.8766 14.9886 18.7399 15.1838C18.6033 15.379 18.4471 15.5352 18.2714 15.6524C18.0957 15.7695 17.9004 15.8476 17.6857 15.9062C17.4709 15.9647 17.2562 15.9843 17.0414 15.9843C16.7681 15.9843 16.5534 15.9647 16.3972 15.9062C16.2215 15.8476 16.1043 15.7695 16.0067 15.6719C15.9091 15.5743 15.8505 15.4571 15.8115 15.34C15.7725 15.2033 15.7529 15.0862 15.7529 14.9495C15.7529 14.8324 15.7529 14.6958 15.792 14.5786C15.8115 14.4615 15.831 14.3639 15.8505 14.2663H16.5338V14.2858Z" fill="#3F494F"/>
<path d="M22.4099 10.4982H23.2884L23.9132 15.8865H23.1518L23.0346 14.598H20.9457L20.2819 15.8865H19.5791L22.4099 10.4982ZM22.7027 11.1425L21.2385 14.0123H22.9565L22.7027 11.1425Z" fill="#3F494F"/>
<path d="M25.5339 15.8865H24.8896L26.0024 10.4982H27.1152L27.5252 15.0275H27.5447L29.868 10.4982H31.0003L29.8875 15.8865H29.2042L30.1998 11.1034H30.1803L27.6814 15.8865H27.0176L26.5296 11.1034H26.51L25.5339 15.8865Z" fill="#3F494F"/>
<defs>
<linearGradient id="paint0_linear" x1="12.854" y1="10.9283" x2="12.854" y2="13.6993" gradientUnits="userSpaceOnUse">
<stop stop-color="#0661AB"/>
<stop offset="1" stop-color="#1E4C9F"/>
</linearGradient>
<linearGradient id="paint1_linear" x1="8.65235" y1="6.49924" x2="7.98057" y2="11.6493" gradientUnits="userSpaceOnUse">
<stop stop-color="#119BD7"/>
<stop offset="1" stop-color="#2C81C3"/>
</linearGradient>
<linearGradient id="paint2_linear" x1="5.82626" y1="10.8155" x2="6.79054" y2="15.1868" gradientUnits="userSpaceOnUse">
<stop stop-color="#0661AB"/>
<stop offset="1" stop-color="#1E4C9F"/>
</linearGradient>
<linearGradient id="paint3_linear" x1="10.1668" y1="13.5964" x2="9.65465" y2="19.3578" gradientUnits="userSpaceOnUse">
<stop stop-color="#EC1D2F"/>
<stop offset="1" stop-color="#C3202F"/>
</linearGradient>
</defs>
</svg>
