<svg width="35" height="24" fill="none" xmlns="http://www.w3.org/2000/svg"><rect x=".416667" y=".416667" width="34.1667" height="23.1667" rx="2.2901" fill="#fff" stroke="#F6F7F8" stroke-width=".833333"/><path d="M11.9652 13.1005h.0472c.2766.0582.5238.099.7651.099.365 0 .6299-.0874.6299-.396 0-.5707-1.4304-.3436-1.4304-1.287 0-.5125.4826-.7863 1.0888-.7863.2414 0 .4827.0349.7064.1048v.4309h-.0471c-.2531-.0813-.4709-.1164-.665-.1164-.2884 0-.5886.0641-.5886.367 0 .5414 1.43.326 1.43 1.2403 0 .6641-.5412.862-1.1417.862-.2944 0-.5886-.0408-.7946-.0875v-.4308zM18.7156 13.5139c-.1648.0583-.3531.1047-.5886.1047-.2885 0-.7414-.064-.7414-.7221v-1.6772h-.3652v-.4076h.3652v-.6523l.4177-.0874h.0471v.7397h.9066v.4076h-.9066v1.6656c0 .2969.2531.3204.3707.3204.1178 0 .306-.0408.4533-.0874l.0412.396zM20.4397 13.1005h.0471c.2767.0582.524.099.7652.099.365 0 .6298-.0874.6298-.396 0-.5707-1.4303-.3436-1.4303-1.287 0-.5125.4826-.7863 1.0888-.7863.2414 0 .4828.0349.7063.1048v.4309h-.0471c-.2531-.0813-.471-.1164-.665-.1164-.2884 0-.5887.0641-.5887.367 0 .5414 1.4303.326 1.4303 1.2403 0 .6641-.5414.862-1.1418.862-.2943 0-.5886-.0408-.7946-.0875v-.4308zM23.4705 13.1411c.1826.0291.3766.0583.6239.0583.5768 0 .9417-.3612.9417-1.0659 0-.6523-.2179-.9841-.6886-.9841-.2767 0-.5829.1164-.877.3728v1.6189zm-.4709-2.3237l.4119-.0874h.059v.3553c.2766-.2038.5768-.3553.9829-.3553.6062 0 1.077.4252 1.077 1.3337 0 .891-.4708 1.5549-1.4537 1.5549-.2296 0-.4121-.0291-.6062-.0699v1.3569l-.4119.0874h-.059v-4.1756zM29.4321 13.5078l-.9489-2.6963h.5412l.6667 2.1199h.0411l.7322-2.1199h.5355l-1.038 2.8303c-.2472.6988-.5535 1.0367-1.0596 1.3511l-.2648-.3378c.5121-.361.6415-.5649.8357-1.0366M27.6018 12.2732l-.7592.1107c-.2001.0291-.4239.1107-.4239.425 0 .2273.1592.3846.4003.3846.259 0 .5533-.1632.7828-.3262v-.5941zm.4708 1.258l-.3826.0758h-.0647v-.3845h-.0118c-.2472.1864-.5474.3787-.9534.3787-.359 0-.7357-.2564-.7357-.7573 0-.6753.6122-.7686.9417-.8153l.7357-.099v-.1862c0-.4661-.2236-.5941-.6297-.5941-.1531 0-.5356.0466-.8476.1863l-.053-.4308c.2592-.0991.6652-.1748.9889-.1748.5824 0 1.0122.2387 1.0122 1.0134v1.7878zM16.0084 12.8673c-.2295.163-.5237.3262-.7828.3262-.2412 0-.4003-.1572-.4003-.3845 0-.3144.2239-.396.4239-.4251l.7592-.1107v.5941zm.4708-1.1239c0-.7747-.4296-1.0134-1.0123-1.0134-.3236 0-.7297.0758-.9888.1748l.0532.4309c.3118-.1398.6943-.1864.8475-.1864.4061 0 .6296.1282.6296.5941v.1863l-.7357.099c-.3295.0466-.9416.1399-.9416.8152 0 .5009.3766.7573.7356.7573.4061 0 .7063-.1923.9534-.3787h.0118v.3845h.0649l.3824-.0758v-1.7878zM19.2922 13.6071h.002l-.002-.0021v.0021zM19.7041 10.73l-.4119.0874v2.7876l.0018.0018h.0589l.4102-.0868v-2.79h-.059zM19.7041 9.7854l-.4119.08739V10.366l.0018.0021h.0589l.4102-.087V9.7854h-.059z" fill="#EF373F"/><path d="M23.4705 11.9685c0 .1288-.1054.233-.2355.233-.13 0-.2354-.1042-.2354-.233 0-.1286.1054-.2329.2354-.2329.1301 0 .2355.1043.2355.2329zM9.07697 9.16784C9.13955 9.10592 9.09526 9 9.00664 9H7.53223l.85733.84803.68741-.68019zM7.01658 11.2067l-1.05444-1.0434-.94886.9391-.98411.9737c-.03889.0384-.03889.1007 0 .1391l.98411.9739.94886.9389 1.05444-1.0434-.87867-.8694-.07034-.0695.07034-.0696.87867-.8694zM8.38956 14.4431l-.85367.8447h1.46739c.08846 0 .13292-.1059.07033-.1678l-.68405-.6769z" fill="#EF373F"/><path d="M10.3226 12.0761l-.98415-.9738-1.10824-1.0966-.98733-.97691c-.01784-.01766-.04196-.02735-.06712-.02821C7.17474 9.00058 7.17372 9 7.17255 9H5.34486c-.08847 0-.13278.10592-.07019.16784l.8468.83786 1.05429 1.0434 1.03806 1.027.07019.0696-.07019.0694-1.03806 1.0271-1.05429 1.0433-.8433.8344c-.06258.062-.01827.1679.07019.1679H7.1762c.02632 0 .05162-.0104.07018-.0288l.98383-.9735 1.10824-1.0965.98415-.9739c.0389-.0383.0389-.1005 0-.139z" fill="#EF373F"/></svg>