<svg xmlns="http://www.w3.org/2000/svg" width="30" height="20" viewBox="0 0 30 20" fill="none">
<rect width="30" height="20" rx="3" fill="#FF7546" />
<g xmlns="http://www.w3.org/2000/svg" width="16" height="16" viewBox="0 0 16 16" fill="none" transform="translate(7,2)">
<path d="M10.9176 12.2902L10.9923 12.2961C11.4804 12.4162 11.9437 12.5039 12.3561 12.5039C13.7647 12.5009 14.8337 11.8578 15.4862 10.9587L15.5649 10.9321L15.5898 11.008C15.1236 12.1927 14.2628 13.2681 13.9461 13.5084C13.7368 13.6846 13.3782 13.6846 13.3782 13.6846C12.2127 13.6846 11.4605 13.21 10.8528 12.5679L10.7941 12.4852L10.7881 12.3798L10.9176 12.2902Z" fill="white"/>
<path d="M11.0707 10.305C13.4178 10.305 13.7954 8.98731 14.3532 7.90009C14.3532 7.90009 14.9549 6.6297 15.9621 6.3707L16 6.29487C15.6573 4.72806 14.8533 3.34048 13.7276 2.26213L13.6758 2.24243L13.628 2.27296C13.628 2.27296 13.1847 2.86778 13.1667 3.97469C13.1528 4.78321 13.3999 5.49325 13.3969 6.29389C13.3969 6.76167 13.3222 7.26293 13.0831 7.84691C12.7334 8.69975 12.1357 9.24533 11.6097 9.54175C11.6097 9.54175 11.2789 9.76234 10.5467 9.93468L10.4302 10.1326L10.5437 10.2488C10.5437 10.2478 10.6982 10.305 11.0707 10.305Z" fill="white"/>
<path d="M5.05673 4.16372L5.08861 4.17653L5.08064 4.21001C3.49269 6.10673 4.29364 8.07337 5.63752 8.61205C5.9055 8.72136 7.28125 9.17536 8.03339 7.34265C8.44681 6.33619 8.3462 5.4154 8.78253 4.35379C9.55559 2.46889 11.03 1.59143 12.3878 1.34326L12.4316 1.3088L12.4007 1.23001C11.1535 0.452022 9.67613 0 8.08918 0C3.5 0 0 3.58171 0 8.00049C0 12.5 3.5 16 8.08918 16C9.78073 16 11.3507 15.4869 12.6488 14.6105L12.6627 14.576L12.6259 14.5632C12.6259 14.5632 9.60938 15.3796 6.52713 14.2786C1.01812 12.2056 2.82324 7.13781 2.81826 5.57297C2.81427 5.05398 2.60507 4.78218 2.42277 4.59506C2.23449 4.40204 1.94061 4.19819 1.98743 4.07115C2.03624 3.9382 2.5453 3.9126 3.01451 3.96578C3.56442 4.02585 3.90213 4.14304 4.21096 4.1913C4.50284 4.23561 4.89335 4.18834 5.05673 4.16372Z" fill="white"/>
</g>
</svg>