<svg width="35" height="24" viewBox="0 0 35 24" fill="none" xmlns="http://www.w3.org/2000/svg">
<path d="M0 3.25C0 1.45508 1.45507 0 3.25 0H31.75C33.5449 0 35 1.45507 35 3.25V20.75C35 22.5449 33.5449 24 31.75 24H3.25C1.45507 24 0 22.5449 0 20.75V3.25Z" fill="white"/>
<path d="M9.9987 10.3537H8.15131C8.15131 10.0505 8.11565 9.84711 8.04469 9.74347C7.93473 9.59029 7.63137 9.51353 7.13478 9.51353C6.65243 9.51353 6.33273 9.55762 6.17675 9.64598C6.02076 9.73469 5.9426 9.92738 5.9426 10.2241C5.9426 10.4926 6.0118 10.6697 6.1504 10.7544C6.24964 10.8146 6.38086 10.8499 6.54422 10.8605L6.91679 10.8868C7.71533 10.9397 8.21402 10.9771 8.41287 10.9984C9.04435 11.062 9.50212 11.2299 9.78616 11.502C10.0096 11.7143 10.1429 11.9919 10.1854 12.3344C10.2104 12.5394 10.2227 12.7715 10.2227 13.0291C10.2227 13.6232 10.1659 14.0581 10.0526 14.3338C9.84693 14.8396 9.38478 15.1592 8.66581 15.2934C8.36456 15.3501 7.90381 15.3784 7.28392 15.3784C6.24929 15.3784 5.5284 15.3169 5.12122 15.1931C4.62165 15.0415 4.29212 14.7343 4.1328 14.2717C4.04391 14.0142 4 13.5853 4 12.9849H5.84739C5.84739 13.0518 5.84756 13.1031 5.84756 13.1384C5.84756 13.4588 5.93961 13.6647 6.12352 13.7565C6.25087 13.8198 6.40457 13.853 6.58533 13.857H7.26459C7.61117 13.857 7.83232 13.8393 7.9277 13.8036C8.09756 13.7369 8.2091 13.6294 8.26233 13.4806C8.29061 13.3889 8.30466 13.2705 8.30466 13.1254C8.30466 12.8006 8.18609 12.603 7.94931 12.532C7.8606 12.5041 7.44886 12.4649 6.71356 12.4156C6.123 12.3734 5.71284 12.3328 5.48325 12.2935C4.87846 12.1804 4.47533 11.9476 4.2742 11.5944C4.09731 11.2943 4.00896 10.8403 4.00896 10.2327C4.00896 9.77017 4.05674 9.39918 4.15229 9.12024C4.24785 8.84112 4.4019 8.62927 4.61445 8.48435C4.92589 8.2618 5.32446 8.13128 5.80945 8.09229C6.21311 8.05698 6.66086 8.03906 7.1534 8.03906C7.92875 8.03906 8.48137 8.08368 8.81073 8.17204C9.61471 8.38809 10.0166 8.99306 10.0166 9.98728C10.0166 10.0688 10.0106 10.1907 9.9987 10.3537Z" fill="#10298E"/>
<path d="M18.123 15.3783V8H21.0174H21.4716H21.8228C22.3302 8 22.7174 8.04128 22.9835 8.12419C23.592 8.31478 24.0002 8.70526 24.2094 9.29512C24.3173 9.6048 24.3714 10.071 24.3714 10.6935C24.3714 11.442 24.3115 11.9797 24.1929 12.3073C23.9556 12.9548 23.4673 13.3279 22.7297 13.4245C22.6429 13.439 22.2738 13.4519 21.6223 13.4624L21.2928 13.4733H20.1089V15.3783H18.123ZM20.1089 11.7617H21.3467C21.7393 11.7476 21.978 11.7174 22.0639 11.6702C22.1813 11.6057 22.2601 11.4764 22.2993 11.2827C22.3244 11.1537 22.3369 10.9619 22.3369 10.7072C22.3369 10.3951 22.312 10.1637 22.2619 10.0127C22.1906 9.80101 22.0195 9.67226 21.7486 9.62536C21.6949 9.61833 21.5666 9.61446 21.3634 9.61446H20.1089V11.7617Z" fill="#10298E"/>
<path d="M28.6093 14.1032H25.9542L25.5975 15.3783H23.543L25.7599 8H28.7554L30.9994 15.3783H28.9882L28.6093 14.1032ZM28.2149 12.6658L27.2845 9.46744L26.3816 12.6658H28.2149Z" fill="#10298E"/>
<path d="M15.3818 9.03787C16.2007 9.03787 16.9318 9.41518 17.4122 10.0061L17.8403 9.08828C17.1708 8.45556 16.2597 8.06543 15.2548 8.06543C13.69 8.06543 12.3515 9.01047 11.8022 10.3483H10.9675L10.4746 11.4048H11.5484C11.5403 11.5029 11.5351 11.6009 11.5351 11.701C11.5351 11.822 11.5414 11.9418 11.5533 12.0601H11.0137L10.521 13.117H11.8279C12.3928 14.4209 13.7146 15.3362 15.2548 15.3362C16.031 15.3362 16.7512 15.1037 17.3475 14.7063V13.411C16.8673 13.9578 16.1648 14.3034 15.3818 14.3034C14.4664 14.3034 13.6612 13.8314 13.1924 13.117H15.9288L16.4216 12.0601H12.7898C12.771 11.9329 12.761 11.8029 12.761 11.6704C12.761 11.5809 12.7655 11.4923 12.7743 11.4048H16.7271L17.2198 10.3483H13.116C13.5699 9.56502 14.4144 9.03787 15.3818 9.03787Z" fill="#FFBE00"/>
<path d="M3.25 1H31.75V-1H3.25V1ZM34 3.25V20.75H36V3.25H34ZM31.75 23H3.25V25H31.75V23ZM1 20.75V3.25H-1V20.75H1ZM3.25 23C2.00736 23 1 21.9926 1 20.75H-1C-1 23.0972 0.902789 25 3.25 25V23ZM34 20.75C34 21.9926 32.9926 23 31.75 23V25C34.0972 25 36 23.0972 36 20.75H34ZM31.75 1C32.9926 1 34 2.00736 34 3.25H36C36 0.90279 34.0972 -1 31.75 -1V1ZM3.25 -1C0.90279 -1 -1 0.90279 -1 3.25H1C1 2.00736 2.00736 1 3.25 1V-1Z" fill="#F6F7F8"/>
</svg>
