<svg width="30" height="20" viewBox="0 0 30 20" fill="none" xmlns="http://www.w3.org/2000/svg">
<rect width="30" height="20" rx="3" fill="#008061"/>
<path d="M7.08093 2.12134H22.9328V17.9206H7.08093V2.12134Z" fill="white"/>
<path d="M7 2H23V18H7V2Z" fill="#008061"/>
<path d="M16.8648 16.9474V17.588H13.0273V16.9462H10.1234C9.83965 16.9462 9.60853 16.641 9.60853 16.2646L8.39343 3.61709C8.39343 3.24053 8.67717 2.93507 9.0273 2.93507H20.7618C21.1097 2.93507 21.3934 3.24053 21.3934 3.61709L20.192 16.2646C20.192 16.641 19.9609 16.9462 19.6772 16.9462L16.8648 16.9474H16.8648Z" fill="white"/>
<path d="M10.531 4.78663H18.3869C17.6134 5.08503 15.2587 6.72581 14.6706 7.82897H10.5379L10.531 4.78663H10.531Z" fill="#F5821F"/>
<path d="M16.7919 13.5042C16.6798 14.6059 16.6752 15.9476 16.6752 17.3569H13.2701C13.2701 15.9476 13.3274 14.6059 13.4395 13.5042H16.7919H16.7919Z" fill="#ED1B2D"/>
<path d="M11.5243 11.912V12.339H10.9797V12.7662H11.5243V13.2556H10.2794V10.978H11.5243V11.4853H10.9797V11.912H11.5243Z" fill="#008061"/>
<path d="M14.4187 11.912V12.339H13.8764V12.7662H14.4187V13.2556H13.1761V10.978H14.4187V11.4853H13.8764V11.912H14.4187Z" fill="#008061"/>
<path d="M17.6087 11.912V12.339H17.0641V12.7662H17.6087V13.2556H16.3639V10.978H17.6087V11.4853H17.0641V11.912H17.6087Z" fill="#008061"/>
<path d="M12.4577 10.978V12.7662H13.0023V13.2556H11.7574V10.978H12.4577Z" fill="#008061"/>
<path d="M15.4232 12.5173L15.1577 10.978H14.5468L14.8945 13.2556H15.7938L16.2149 10.978H15.6954L15.4232 12.5173Z" fill="#008061"/>
<path d="M17.9041 10.978H18.5769V13.2554H17.9041V10.978Z" fill="#008061"/>
<path d="M18.5768 11.6542C18.6134 11.4048 18.9567 11.4717 18.9567 11.6141V13.2557H19.6317V11.3252C19.6317 10.9159 19.0711 10.7512 18.5814 11.1116L18.5768 11.6542L18.5768 11.6542Z" fill="#008061"/>
<path d="M17.1078 10.6577C17.1764 9.78603 18.3366 8.36263 19.4601 7.98887V4.62624C16.3686 6.04968 14.3594 8.20248 13.9247 10.6492L17.1078 10.6577L17.1078 10.6577Z" fill="#ED1B2D"/>
</svg>
