<svg width="35" height="24" viewBox="0 0 35 24" fill="none" xmlns="http://www.w3.org/2000/svg">
<rect x="0.416667" y="0.416667" width="34.1667" height="23.1667" rx="2.2901" fill="white" stroke="#F6F7F8" stroke-width="0.833333"/>
<path d="M12.9136 4.06502V7.01074H17.4313C17.4313 7.01074 18.0899 6.08236 18.9192 5.38608C19.7873 4.65843 20.8311 4.06502 20.8311 4.06502H12.9136Z" fill="#F08300"/>
<path d="M25.105 20.0002V4.6832H24.1954L22.7113 15.1187C22.7113 15.1187 22.6009 16.1462 21.7578 16.1462H19.3754V16.7948H15.4586V16.1462H13.3484C12.5054 16.1462 12.395 15.1187 12.395 15.1187L10.9096 4.6832H10V20.0002H25.105Z" fill="#009944"/>
<path d="M22.2859 4.00007V7.36732C22.2859 7.36732 20.2773 8.19659 19.6801 10.1324H16.2175C16.2175 10.1324 17.6728 5.23707 22.2859 4.00007Z" fill="#E60012"/>
<path d="M19.2146 16.6235H15.6052L15.6491 12.9025H19.2146V16.6235Z" fill="#E60012"/>
<path d="M15.1224 12.1401V10.4352H14.3672V12.6533H15.0171H15.1224H15.6017V12.1401H15.1224Z" fill="#009944"/>
<path d="M14.1938 10.9467V10.4348H13.6983H13.608H12.9456V12.6529H13.608H13.6983H14.1938V12.1398H13.6983V11.7722H14.1938V11.2992H13.6983V10.9467H14.1938Z" fill="#009944"/>
<path d="M18.3913 10.4347L18.1316 11.6818L17.8769 10.4347H17.1467L17.5168 12.6541H17.9308H18.3298H18.5167L18.952 10.4347H18.3913Z" fill="#009944"/>
<path d="M17.0447 10.9467V10.4348H16.5491H16.4588H15.7976V12.6529H16.4588H16.5491H17.0447V12.1398H16.5491V11.7722H17.0447V11.2992H16.5491V10.9467H17.0447Z" fill="#009944"/>
<path d="M20.3281 10.9467V10.4348H19.8338H19.7422H19.0798V12.6529H19.7422H19.8338H20.3281V12.1398H19.8338V11.7722H20.3281V11.2992H19.8338V10.9467H20.3281Z" fill="#009944"/>
<path d="M21.454 12.6534V11.1103L21.2947 10.9498L21.1354 11.1103V12.6534H20.4429V10.4341H21.1304V10.5144H21.1329L21.2119 10.5245C21.2972 10.4818 21.4252 10.3651 21.6999 10.3651C22.0023 10.3651 22.1967 10.6085 22.1967 10.8782V11.3362V11.3901V12.6534H21.454Z" fill="#009944"/>
</svg>
