<svg width="35" height="24" viewBox="0 0 35 24" fill="none" xmlns="http://www.w3.org/2000/svg">
<rect x="0.416667" y="0.416667" width="34.1667" height="23.1667" rx="2.2901" fill="white" stroke="#F6F7F8" stroke-width="0.833333"/>
<path d="M4.03184 7.51147H4.08059C4.22685 7.60898 4.17809 7.75524 4.17809 7.90149V15.2631C4.17809 15.4093 4.22685 15.5556 4.08059 15.6531C3.93433 15.7506 4.03184 15.6531 4.03184 15.6531V7.51147Z" fill="#FE6C48"/>
<path d="M12.8559 6H13.1972C13.3038 6.04132 13.3945 6.11565 13.4559 6.21213C13.5172 6.3086 13.5462 6.42218 13.5385 6.53627C13.5385 7.65757 13.6847 7.51131 12.6609 7.51131H5.68938C5.54313 7.51131 5.29937 7.41381 5.25062 7.70632C5.26667 7.82212 5.31705 7.93046 5.39525 8.01735C5.47346 8.10425 5.57591 8.16572 5.68938 8.19384H14.416C14.5734 8.17875 14.7322 8.19864 14.881 8.2521C15.0298 8.30556 15.165 8.39127 15.2768 8.50308C15.3886 8.6149 15.4743 8.75005 15.5278 8.89887C15.5813 9.04769 15.6012 9.20649 15.5861 9.36389V15.3604C15.6012 15.5178 15.5813 15.6766 15.5278 15.8254C15.4743 15.9742 15.3886 16.1094 15.2768 16.2212C15.165 16.333 15.0298 16.4187 14.881 16.4722C14.7322 16.5257 14.5734 16.5455 14.416 16.5304H5.20186C4.93997 16.5467 4.68123 16.4663 4.47459 16.3046C4.26796 16.1429 4.12777 15.911 4.08057 15.6529V7.51131C4.13246 7.28674 4.25532 7.08485 4.43094 6.93558C4.60657 6.7863 4.82561 6.69757 5.05561 6.68253L10.6621 6.19501L12.8559 6Z" fill="#FE3C0F"/>
<path d="M9.8334 9.46153C10.3493 9.43956 10.8595 9.57563 11.296 9.85154C11.4422 9.90029 11.5885 9.94905 11.4422 10.1441C11.296 10.3391 11.2472 10.4366 11.0522 10.2903C10.7043 10.1045 10.3234 9.98855 9.93091 9.94905C9.76486 9.93451 9.59758 9.95286 9.43863 10.0031C9.27968 10.0532 9.1322 10.1343 9.00462 10.2416C8.89115 10.3078 8.79626 10.4016 8.72875 10.5144C8.66123 10.6271 8.62328 10.755 8.61842 10.8863C8.61356 11.0176 8.64194 11.148 8.70093 11.2654C8.75992 11.3828 8.84761 11.4834 8.95587 11.5579C9.23304 11.733 9.52701 11.88 9.8334 11.9966C10.2097 12.0919 10.5707 12.2396 10.9059 12.4354C11.2167 12.5561 11.4726 12.7864 11.6253 13.0827C11.7779 13.3791 11.8169 13.7211 11.7347 14.0442C11.6698 14.3641 11.5091 14.6566 11.274 14.883C11.0389 15.1094 10.7405 15.259 10.4184 15.3118C9.57609 15.4408 8.71697 15.2304 8.02958 14.7268C7.83457 14.5805 7.88332 14.483 7.98082 14.3367C8.07833 14.1905 8.22458 14.1905 8.37084 14.288C8.63666 14.4966 8.94295 14.6476 9.27027 14.7316C9.59758 14.8155 9.93877 14.8305 10.2722 14.7755L10.6622 14.6292C10.805 14.5632 10.9286 14.462 11.0214 14.335C11.1142 14.208 11.1731 14.0594 11.1927 13.9033C11.2122 13.7472 11.1916 13.5888 11.1329 13.4428C11.0742 13.2969 10.9793 13.1683 10.8572 13.0692C10.6259 12.8769 10.3616 12.7283 10.0772 12.6304L9.15087 12.2891C8.32209 11.9479 7.98082 11.3629 8.07833 10.6803C8.16528 10.3323 8.36604 10.0234 8.6487 9.80256C8.93135 9.58173 9.2797 9.46169 9.63839 9.46153H9.8334Z" fill="#FEFEFE"/>
<path d="M30.9 12.5585L29.1161 15.504C28.6598 16.3338 28.1619 17.1635 27.6641 17.9932C27.6353 18.0859 27.5715 18.1637 27.4864 18.2101C27.4012 18.2566 27.3012 18.2681 27.2077 18.2421C27.0418 18.2006 26.8344 18.3251 26.7514 18.1592C26.6684 17.9932 26.8344 17.8688 26.9173 17.7028L28.079 15.7115C28.1373 15.6498 28.1698 15.5682 28.1698 15.4833C28.1698 15.3984 28.1373 15.3168 28.079 15.2551L26.5025 12.7245C26.461 12.6 26.378 12.5585 26.4195 12.4341C26.461 12.3096 26.6269 12.3511 26.7099 12.3511C26.8858 12.3087 27.071 12.3316 27.2313 12.4156C27.3915 12.4995 27.5158 12.6387 27.5811 12.8074C27.913 13.4297 28.3279 14.052 28.7013 14.6743C29.1161 13.9276 29.531 13.2638 29.9458 12.5585C29.9742 12.4766 30.0335 12.4091 30.111 12.3703C30.1886 12.3315 30.2782 12.3246 30.3607 12.3511C30.5267 12.3926 30.7341 12.3096 30.9 12.3926V12.5585Z" fill="#FE3C0F"/>
<path d="M20.1551 10.0687C19.7305 9.99417 19.2975 9.9802 18.869 10.0272H17.8319C17.6245 9.9857 17.5 10.1102 17.5 10.3591V15.9597C17.5 16.2501 17.583 16.2916 17.9149 16.2916C18.2468 16.2916 18.2882 16.2501 18.2882 15.9597V14.2588C18.2882 14.0928 18.3297 14.0514 18.4957 14.0514H19.7817C20.2614 14.0339 20.7187 13.8438 21.0693 13.5161C21.42 13.1883 21.6404 12.7449 21.6901 12.2674C21.754 11.7756 21.6321 11.2776 21.3482 10.871C21.0643 10.4643 20.6388 10.1782 20.1551 10.0687ZM19.8647 13.2216H18.4542C18.2882 13.2216 18.2882 13.1387 18.2882 13.0142V10.9399C18.2882 10.7739 18.3297 10.7325 18.4542 10.7325H19.8232C20.1423 10.727 20.4505 10.8484 20.68 11.0702C20.9095 11.2919 21.0416 11.5957 21.0471 11.9148C21.0526 12.2339 20.9311 12.5421 20.7094 12.7716C20.4876 13.0011 20.1838 13.2161 19.8647 13.2216Z" fill="#FE3C0F"/>
<path d="M25.6729 12.3921C25.6088 12.3551 25.536 12.3358 25.4619 12.3364C25.3879 12.337 25.3153 12.3574 25.2518 12.3955C25.1883 12.4336 25.1362 12.4881 25.1008 12.5531C25.0654 12.6182 25.0481 12.6915 25.0506 12.7655V12.89C23.889 12.1847 22.8519 12.2262 22.1466 13.0559C21.8429 13.3972 21.6717 13.8361 21.6641 14.2928C21.6565 14.7496 21.813 15.1939 22.1051 15.5451C22.8104 16.4163 23.8061 16.4578 25.0506 15.7525V16.0429C25.0497 16.0915 25.0657 16.1388 25.0961 16.1767C25.1264 16.2146 25.169 16.2407 25.2166 16.2504C25.6729 16.3333 25.7559 16.2919 25.7559 15.8355V12.5996C25.7559 12.5166 25.7974 12.4336 25.6729 12.3921ZM23.6401 15.5451C23.3133 15.5347 23.0028 15.4003 22.7716 15.1691C22.5404 14.9379 22.4059 14.6273 22.3955 14.3005C22.4007 14.1388 22.4385 13.9798 22.5065 13.833C22.5746 13.6863 22.6715 13.5547 22.7916 13.4463C22.9116 13.3378 23.0523 13.2547 23.2053 13.2019C23.3582 13.1491 23.5202 13.1277 23.6816 13.1389C23.9936 13.1387 24.2935 13.2598 24.518 13.4765C24.7425 13.6932 24.8739 13.9887 24.8847 14.3005C24.8743 14.6273 24.7399 14.9379 24.5087 15.1691C24.2775 15.4003 23.9669 15.5347 23.6401 15.5451Z" fill="#FE3C0F"/>
<path d="M18.5491 6.0022C18.845 6.00687 19.1348 6.08658 19.3915 6.23387C19.4757 6.29705 19.4968 6.33917 19.4336 6.42341L19.3704 6.52872C19.3283 6.5919 19.2651 6.61296 19.1809 6.54978C18.9791 6.42331 18.7451 6.35752 18.5069 6.36023C18.4252 6.35837 18.3447 6.38032 18.2753 6.42341C18.1923 6.45042 18.1185 6.50034 18.0627 6.56741C18.0068 6.63448 17.971 6.71598 17.9594 6.80251C17.9383 6.971 18.0647 7.0763 18.191 7.16055C18.3144 7.23796 18.4496 7.29486 18.5912 7.32903C18.8289 7.40389 19.0555 7.51013 19.2651 7.64495C19.3897 7.71069 19.492 7.81168 19.5595 7.9353C19.6269 8.05891 19.6564 8.19967 19.6442 8.33995C19.6357 8.49194 19.5862 8.63878 19.5009 8.76486C19.4156 8.89095 19.2977 8.99157 19.1598 9.05602C18.8423 9.20147 18.4821 9.22398 18.1489 9.11921C17.9304 9.07298 17.7273 8.97146 17.5592 8.82435C17.496 8.78223 17.475 8.74011 17.5381 8.65587C17.6013 8.57162 17.6435 8.4242 17.8751 8.59269C18.013 8.69288 18.172 8.76015 18.34 8.78936C18.5079 8.81856 18.6803 8.80892 18.8439 8.76117C18.9389 8.7451 19.0268 8.70111 19.0967 8.63481C19.1403 8.60033 19.1763 8.55713 19.2023 8.50796C19.2284 8.4588 19.2439 8.40474 19.2478 8.34925C19.2518 8.29376 19.2441 8.23805 19.2254 8.18568C19.2066 8.13331 19.1771 8.08543 19.1388 8.0451C19.0221 7.91157 18.868 7.81619 18.6965 7.77131L18.1068 7.5607C17.9565 7.51592 17.8244 7.42438 17.7298 7.29939C17.6351 7.17441 17.5827 7.02248 17.5803 6.86569C17.5727 6.6645 17.6394 6.46754 17.7675 6.31223C17.8956 6.15693 18.0763 6.05409 18.2753 6.02326L18.5491 6.0022Z" fill="#FE3C0F"/>
<path d="M20.3181 7.37159C20.4276 7.28807 20.555 7.23124 20.6903 7.20565C20.8256 7.18006 20.965 7.1864 21.0974 7.22416C21.2998 7.27517 21.4797 7.3916 21.6092 7.55535C21.7387 7.71911 21.8105 7.92104 21.8134 8.12978C21.8134 8.42463 21.7924 8.74055 21.8134 9.05646C21.8345 9.37237 21.7713 9.16176 21.666 9.16176C21.5607 9.16176 21.4133 9.16176 21.4133 8.90903V8.12978C21.4133 7.98455 21.3556 7.84527 21.2529 7.74258C21.1502 7.63989 21.0109 7.5822 20.8657 7.5822C20.7205 7.5822 20.5812 7.63989 20.4785 7.74258C20.3758 7.84527 20.3181 7.98455 20.3181 8.12978C20.3181 8.42463 20.2971 8.74055 20.3181 9.0354C20.3392 9.33025 20.276 9.16176 20.1918 9.16176C20.1075 9.16176 19.918 9.16176 19.918 8.90903C19.918 7.98235 19.939 7.07674 19.918 6.17112C19.918 6.04475 19.9601 6.00263 20.0865 6.00263C20.2128 6.00263 20.3181 5.96051 20.3181 6.21324V7.37159Z" fill="#FE3C0F"/>
<path d="M26.2575 7.62421C26.1781 7.51265 26.0772 7.41803 25.9608 7.34586C25.8444 7.27369 25.7147 7.22542 25.5795 7.20385C25.4442 7.18229 25.306 7.18787 25.1729 7.22026C25.0399 7.25266 24.9146 7.31122 24.8043 7.39254C24.7833 7.18193 24.7833 7.18193 24.5937 7.18193H24.5727C24.4674 7.16087 24.4252 7.20299 24.4252 7.32936V10.0462C24.4252 10.0883 24.4042 10.1515 24.4674 10.1726C24.563 10.2047 24.6666 10.2047 24.7622 10.1726C24.8254 10.1305 24.8043 10.0462 24.8043 9.96196V8.9721C25.3519 9.26696 25.8153 9.22483 26.1522 8.84574C26.3045 8.68357 26.3977 8.47485 26.4168 8.25324C26.4359 8.03163 26.3798 7.81004 26.2575 7.62421ZM25.4151 8.80362C25.2893 8.80355 25.1663 8.7659 25.062 8.6955C24.9577 8.62509 24.8768 8.52515 24.8296 8.40846C24.7825 8.29178 24.7713 8.16368 24.7974 8.04058C24.8235 7.91747 24.8858 7.80498 24.9763 7.71751C25.0668 7.63005 25.1813 7.5716 25.3053 7.54965C25.4292 7.5277 25.5568 7.54326 25.6718 7.59432C25.7869 7.64539 25.884 7.72964 25.9508 7.83628C26.0177 7.94291 26.0511 8.06708 26.0469 8.19285C26.047 8.27486 26.0305 8.35604 25.9985 8.43155C25.9665 8.50706 25.9196 8.57535 25.8607 8.63235C25.8017 8.68935 25.7319 8.73389 25.6553 8.76331C25.5788 8.79274 25.4971 8.80644 25.4151 8.80362Z" fill="#FE3C0F"/>
<path d="M28.0265 7.2662C27.8462 7.19572 27.6486 7.18216 27.4603 7.22734C27.2721 7.27252 27.1022 7.37428 26.9735 7.51893C26.804 7.71465 26.7161 7.96792 26.7279 8.22654C26.7396 8.48515 26.8501 8.7294 27.0366 8.90894C27.4579 9.3091 28.195 9.22486 28.553 8.93001C28.5641 8.92171 28.5734 8.91131 28.5805 8.89941C28.5875 8.88751 28.5921 8.87434 28.5941 8.86065C28.596 8.84696 28.5953 8.83302 28.5919 8.81963C28.5884 8.80623 28.5824 8.79364 28.5741 8.78258C28.5414 8.73618 28.5132 8.68682 28.4898 8.63515C28.4477 8.57197 28.4056 8.57197 28.3424 8.61409C28.2029 8.73715 28.023 8.80461 27.837 8.80364C27.6959 8.82185 27.5528 8.79499 27.4279 8.7269C27.3031 8.65881 27.203 8.55297 27.1419 8.42454C27.1209 8.3403 27.1209 8.31924 27.2051 8.31924H28.4898C28.5092 8.32221 28.529 8.32129 28.548 8.31651C28.5671 8.31174 28.5849 8.30322 28.6006 8.29146C28.6163 8.27969 28.6295 8.26491 28.6394 8.24798C28.6493 8.23105 28.6558 8.21232 28.6583 8.19287C28.6591 7.99263 28.5991 7.79686 28.4863 7.63142C28.3735 7.46597 28.2132 7.33862 28.0265 7.2662ZM28.1529 7.96121H27.2473C27.163 7.96121 27.1419 7.94014 27.1841 7.8559C27.2297 7.76227 27.3021 7.68427 27.3921 7.63179C27.482 7.5793 27.5856 7.55469 27.6895 7.56105C27.7974 7.56253 27.9029 7.59254 27.9954 7.64803C28.0879 7.70352 28.164 7.78251 28.2161 7.87696C28.2371 7.94014 28.216 7.96121 28.1529 7.96121Z" fill="#FE3C0F"/>
<path d="M29.4375 8.31933H30.6801C30.8485 8.31933 30.8696 8.29827 30.8696 8.12978C30.8577 7.93507 30.7898 7.74795 30.6739 7.59099C30.5581 7.43404 30.3993 7.31396 30.2167 7.24523C30.0299 7.18498 29.8291 7.18293 29.641 7.23934C29.453 7.29576 29.2865 7.40798 29.1637 7.56114C29.0368 7.72021 28.9609 7.91386 28.9459 8.11677C28.9308 8.31968 28.9774 8.5224 29.0794 8.69843C29.4164 9.24601 30.1325 9.28813 30.6169 9.0354C31.1013 8.78267 30.8485 8.84585 30.7011 8.63525C30.5537 8.42464 30.6169 8.57206 30.5537 8.61418C30.4684 8.70173 30.358 8.76061 30.2378 8.78267C30.0773 8.83799 29.9023 8.83447 29.7442 8.77275C29.586 8.71103 29.4549 8.59512 29.3743 8.4457C29.3322 8.36145 29.3322 8.31933 29.4375 8.31933ZM29.3953 7.85599C29.445 7.76565 29.5182 7.69049 29.6072 7.63856C29.6963 7.58662 29.7977 7.55986 29.9008 7.56114C30.0096 7.55789 30.117 7.58592 30.2104 7.64192C30.3037 7.69792 30.379 7.77953 30.4273 7.87705C30.4694 7.94024 30.4273 7.9613 30.3641 7.9613H29.4585C29.3743 7.9613 29.3532 7.91918 29.3953 7.85599Z" fill="#FE3C0F"/>
<path d="M23.1193 7.20308C22.9868 7.19727 22.8545 7.21875 22.7306 7.26616C22.6068 7.31358 22.4939 7.38593 22.3992 7.47873C22.3044 7.57153 22.2297 7.68281 22.1797 7.80566C22.1296 7.92851 22.1054 8.06033 22.1084 8.19294C22.1084 8.32293 22.134 8.45164 22.1838 8.57174C22.2335 8.69184 22.3064 8.80096 22.3983 8.89287C22.4902 8.98479 22.5994 9.0577 22.7195 9.10745C22.8396 9.15719 22.9683 9.1828 23.0983 9.1828C23.3648 9.18302 23.6211 9.08009 23.8135 8.89558C24.0059 8.71106 24.1194 8.45927 24.1302 8.19294C24.1303 8.06115 24.104 7.93069 24.0529 7.8092C24.0019 7.68772 23.9271 7.57764 23.8329 7.48545C23.7388 7.39325 23.6271 7.32078 23.5046 7.27229C23.3821 7.2238 23.2511 7.20027 23.1193 7.20308ZM23.0983 8.8037C22.9343 8.80379 22.7767 8.74012 22.6588 8.62615C22.5409 8.51218 22.4719 8.35683 22.4664 8.19294C22.458 8.06145 22.4895 7.9305 22.5569 7.81727C22.6243 7.70404 22.7243 7.61385 22.8439 7.55854C22.9635 7.50323 23.097 7.4854 23.2269 7.50738C23.3568 7.52936 23.477 7.59012 23.5718 7.68169C23.6665 7.77327 23.7313 7.89135 23.7577 8.02044C23.784 8.14953 23.7707 8.28357 23.7195 8.40496C23.6683 8.52634 23.5815 8.62939 23.4706 8.70056C23.3598 8.77172 23.23 8.80768 23.0983 8.8037Z" fill="#FE3C0F"/>
</svg>
