<svg width="35" height="24" viewBox="0 0 35 24" fill="none" xmlns="http://www.w3.org/2000/svg">
<rect x="0.416667" y="0.416667" width="34.1667" height="23.1667" rx="2.2901" fill="white" stroke="#F6F7F8" stroke-width="0.833333"/>
<path d="M25.4705 7.90541L27.7185 7.50512V16.1351H25.4705V7.90541ZM28.752 7.90541V16.1304H31V7.50512L28.752 7.90541ZM22.2747 16.1304H24.5227V9.82107H22.2747V16.1304ZM7.41965 10.7122C7.13389 10.6931 6.47663 10.6502 6.47663 10.0593C6.47663 9.34454 7.42441 9.34454 7.77686 9.34454C8.40078 9.34454 9.21044 9.53039 9.78674 9.70194C9.78674 9.70194 10.1106 9.81631 10.3821 9.93067L10.4059 9.93544V9.91161V7.98166L10.3726 7.97213C9.69148 7.73386 8.90086 7.50512 7.42918 7.50512C4.8954 7.50512 4 8.98238 4 10.2452C4 10.9743 4.31434 12.6898 7.21485 12.8899C7.46252 12.9042 8.11501 12.9424 8.11501 13.5571C8.11501 14.0622 7.58158 14.3624 6.68143 14.3624C5.69554 14.3624 4.74299 14.1099 4.16193 13.8716V15.8873C5.02875 16.1161 6.00988 16.2304 7.1577 16.2304C9.63433 16.2304 10.744 14.8342 10.744 13.4475C10.744 11.8749 9.50573 10.8551 7.41965 10.7122ZM21.0078 9.73053C18.9312 9.79725 17.8786 10.7312 17.8786 12.585V16.1351H20.1457V13.2378C20.1457 12.1275 20.2886 11.651 21.6079 11.6081V9.75912C21.3793 9.71623 21.0078 9.73053 21.0078 9.73053ZM14.9114 9.81631C14.8638 9.94021 14.5019 10.96 13.6303 12.0131V7.50512L11.3108 7.9626V16.1304H13.6303V13.6047C14.3018 14.615 14.6352 16.1304 14.6352 16.1304H17.4119C17.1357 14.9867 15.9354 12.8804 15.9354 12.8804C17.0118 11.5128 17.4881 10.0546 17.5643 9.81154H14.9114V9.81631ZM23.3939 9.21588C24.0035 9.21588 24.5036 8.72028 24.5036 8.11032C24.5036 7.50036 24.0083 7 23.3939 7C22.7843 7 22.2889 7.49559 22.2889 8.11032C22.2889 8.72028 22.7843 9.21588 23.3939 9.21588Z" fill="url(#paint0_linear)"/>
<defs>
<linearGradient id="paint0_linear" x1="4.00476" y1="11.6122" x2="31.0004" y2="11.6122" gradientUnits="userSpaceOnUse">
<stop stop-color="#872166"/>
<stop offset="1" stop-color="#4F2455"/>
</linearGradient>
</defs>
</svg>
