<svg width="35" height="24" viewBox="0 0 35 24" fill="none" xmlns="http://www.w3.org/2000/svg">
<rect width="35" height="24" rx="3.25" fill="#EF809F"/>
<path d="M10.3252 21.0716C11.1184 21.0716 11.725 20.5396 11.725 19.7604C11.725 19.0372 11.2117 18.7245 10.5818 18.5379C10.1805 18.4213 9.92854 18.3326 9.92854 18.048C9.92854 17.81 10.1012 17.6234 10.3765 17.6234C10.6098 17.6234 10.7824 17.7587 10.9084 17.964L11.5663 17.5487C11.361 17.0961 10.8991 16.8628 10.3998 16.8628C9.60659 16.8628 9.10265 17.4321 9.10265 18.0946C9.10265 18.6219 9.41994 19.0278 10.1992 19.2565C10.6238 19.3778 10.8944 19.4618 10.8944 19.7977C10.8944 20.115 10.6658 20.311 10.3345 20.311C9.97987 20.311 9.70924 20.0824 9.54593 19.8724L9 20.4183C9.29396 20.8196 9.7699 21.0716 10.3252 21.0716ZM13.5307 21.0716C12.6908 21.0716 12.0096 20.3997 12.0096 19.5831C12.0096 18.7665 12.6908 18.0946 13.5307 18.0946C14.3706 18.0946 15.0519 18.7665 15.0519 19.5831C15.0519 20.3997 14.3706 21.0716 13.5307 21.0716ZM13.5307 20.325C13.9367 20.325 14.2586 20.003 14.2586 19.5831C14.2586 19.1632 13.9367 18.8412 13.5307 18.8412C13.1201 18.8412 12.8028 19.1632 12.8028 19.5831C12.8028 20.0077 13.1248 20.325 13.5307 20.325ZM17.0163 17.6607V16.9141H16.8996C15.9337 16.9141 15.4578 17.558 15.4578 18.3139V20.9969H16.251V19.8211C16.251 19.4291 16.5543 19.1492 16.9929 19.1398V18.3839C16.6803 18.3839 16.4283 18.4772 16.251 18.6639V18.3606C16.251 17.866 16.573 17.642 17.0163 17.6607ZM18.7474 21.0716C17.9075 21.0716 17.2262 20.3997 17.2262 19.5831C17.2262 18.7665 17.9075 18.0946 18.7474 18.0946C19.5873 18.0946 20.2685 18.7665 20.2685 19.5831C20.2685 20.3997 19.5873 21.0716 18.7474 21.0716ZM18.7474 20.325C19.158 20.325 19.4753 20.003 19.4753 19.5831C19.4753 19.1632 19.1533 18.8412 18.7474 18.8412C18.3414 18.8412 18.0195 19.1632 18.0195 19.5831C18.0195 20.0077 18.3414 20.325 18.7474 20.325ZM21.4677 18.4959V18.174H20.6978V20.9969H21.491V19.7091C21.491 19.2425 21.7663 18.9812 22.2422 18.9812V18.132C21.8829 18.118 21.6263 18.2393 21.4677 18.4959ZM23.4927 19.5551V18.8645C23.67 19.0512 23.9173 19.1445 24.2346 19.1445V18.3933C23.8054 18.3839 23.4927 18.0946 23.4927 17.712V17.2687H22.6995V19.6018C22.6995 20.3577 23.1708 21.0016 24.1413 21.0016H24.258V20.255C23.8147 20.269 23.4927 20.0497 23.4927 19.5551ZM25.2052 21.0436C25.4945 21.0436 25.7371 20.8056 25.7371 20.5116C25.7371 20.2223 25.4991 19.9797 25.2052 19.9797C24.9112 19.9797 24.6732 20.2177 24.6732 20.5116C24.6732 20.8056 24.9112 21.0436 25.2052 21.0436Z" fill="white"/>
<path d="M16.0643 11.0629C16.3116 11.3055 16.3162 11.7021 16.0736 11.9494L16.027 12.0007C15.7843 12.248 15.3877 12.2527 15.1404 12.0101L13.7406 10.6242C13.3533 10.237 13.302 9.76103 13.5446 9.50906L13.5913 9.45774C13.7919 9.24776 14.1232 9.2291 14.3518 9.40641C14.4592 9.4904 14.6178 9.47173 14.7065 9.36441C14.7905 9.2571 14.7718 9.09845 14.6645 9.0098C14.2305 8.66917 13.6099 8.71117 13.2273 9.10312L13.1807 9.15444C12.7281 9.62105 12.8167 10.4096 13.3813 10.9742L14.7858 12.374C15.2384 12.808 15.9523 12.7986 16.3909 12.3507L16.4422 12.2994C16.8715 11.8514 16.8622 11.1422 16.4189 10.7036C16.3209 10.6056 16.1623 10.6056 16.0643 10.7082C15.9616 10.8062 15.9616 10.9649 16.0643 11.0629ZM15.2244 3.54586L15.7983 8.25856C15.8123 8.39388 15.9383 8.49653 16.0783 8.47787C16.2136 8.46387 16.3162 8.33788 16.2976 8.1979L15.7237 3.46653L15.719 3.43854C15.621 3.04659 15.8636 2.60798 16.1903 2.53799C16.3722 2.50066 16.5635 2.53333 16.7175 2.63598C16.8715 2.73863 16.9788 2.89728 17.0162 3.07925L18.0147 7.34402C18.0473 7.47933 18.1827 7.56332 18.318 7.53066C18.4533 7.498 18.5373 7.36268 18.5046 7.22737L17.5108 2.9766C17.4501 2.66864 17.2635 2.39334 16.9975 2.21604C16.7315 2.03873 16.4002 1.97807 16.0876 2.04339C15.4717 2.17404 15.0704 2.89261 15.2244 3.54586Z" fill="white"/>
<path d="M20.4875 9.07989L21.6214 3.43398C21.752 2.82739 21.3927 2.21614 20.7908 2.03883C20.1189 1.87086 19.4423 2.2628 19.2697 2.92538L18.0145 7.22281C17.9772 7.35812 18.0518 7.4981 18.1872 7.53543C18.3225 7.57276 18.4625 7.49811 18.4998 7.36279L19.7549 3.0607C19.8623 2.66408 20.2635 2.42611 20.6555 2.5241C20.9914 2.62675 21.2014 2.97671 21.1268 3.33133L19.9929 8.98191C19.9649 9.11722 20.0536 9.25254 20.1889 9.28053C20.3289 9.30386 20.4642 9.21521 20.4875 9.07989ZM17.6366 14.5205C15.8401 14.5205 14.3423 13.2047 14.3423 11.3336C14.3423 11.1936 14.2304 11.0816 14.0904 11.0816C13.9504 11.0816 13.8384 11.1936 13.8384 11.3336C13.8384 13.4986 15.5788 15.0244 17.6366 15.0244C17.7765 15.0244 17.8885 14.9124 17.8885 14.7725C17.8885 14.6325 17.7765 14.5205 17.6366 14.5205ZM16.75 10.1204C16.7127 10.2604 16.624 10.3864 16.5027 10.4657L16.4467 10.4984C16.1574 10.6943 15.7655 10.6197 15.5695 10.3304L14.4683 8.69261C14.1697 8.23534 14.207 7.7594 14.4963 7.55876L14.5476 7.52143C14.9209 7.3068 15.2336 7.47011 15.5555 7.94138L16.4747 9.3132C16.554 9.42985 16.708 9.45784 16.8247 9.38319C16.9413 9.30853 16.9693 9.14988 16.8947 9.03323L15.9755 7.66142C15.5182 6.99884 14.9583 6.70488 14.2817 7.09682L14.2117 7.14349C13.6704 7.5121 13.6051 8.30533 14.0484 8.97257L15.1496 10.615C15.5042 11.133 16.2041 11.2683 16.722 10.9183L16.778 10.881C16.9973 10.7317 17.156 10.5077 17.2306 10.2511C17.2679 10.1158 17.1886 9.98044 17.0533 9.94311C16.9227 9.90578 16.7873 9.98511 16.75 10.1204Z" fill="white"/>
<path d="M18.4158 10.951C17.8932 11.245 17.5666 11.7909 17.5293 12.6262C17.52 12.7661 17.6273 12.8828 17.7673 12.8921C17.9072 12.8968 18.0239 12.7941 18.0332 12.6542C18.0706 11.8983 18.3645 11.4923 18.8358 11.315C19.0878 11.2217 19.363 11.203 19.6057 11.2263L19.6663 11.2357C19.9883 11.2963 20.091 10.8157 19.769 10.7411L17.8326 10.3071C16.9274 10.0598 16.7874 9.72387 16.9554 9.16395C17.03 8.92132 17.1747 8.79533 17.4033 8.74401C17.5526 8.71134 17.7159 8.71601 17.8746 8.74401C17.9212 8.75334 17.9539 8.758 17.9679 8.76267L20.9075 9.44858L20.9635 9.46724C21.0102 9.48591 21.0615 9.52323 21.1128 9.57456C21.3088 9.78453 21.4208 10.1811 21.3648 10.8344C21.1735 13.1208 20.1096 14.5392 17.5806 14.5159C17.4406 14.5159 17.3287 14.6279 17.3287 14.7632C17.3287 14.9032 17.4406 15.0152 17.576 15.0152C20.4129 15.0385 21.6541 13.3914 21.864 10.8717C21.9294 10.0878 21.7847 9.55123 21.4814 9.22927C21.3135 9.05196 21.1361 8.96798 21.0008 8.94931L18.0939 8.27274C18.0752 8.26807 18.0286 8.25407 17.9632 8.24474C17.7439 8.20741 17.5153 8.20274 17.2913 8.24941C16.8994 8.33806 16.6007 8.58536 16.4748 9.01464C16.2321 9.82186 16.4888 10.4564 17.7113 10.7877L18.4158 10.951Z" fill="white"/>
</svg>
