<svg width="70" height="48" viewBox="0 0 70 48" fill="none" xmlns="http://www.w3.org/2000/svg">
<g clip-path="url(#clip0_2900_450)">
<rect x="1" y="1" width="68" height="46" rx="5.5" fill="white"/>
<rect x="1" y="1" width="68" height="46" rx="5.5" stroke="#F6F7F8" stroke-width="2"/>
<g clip-path="url(#clip1_2900_450)">
<path fill-rule="evenodd" clip-rule="evenodd" d="M18.368 20.429C19.9903 20.3466 21.5316 20.2229 23.1296 20.152C22.6702 16.7845 21.0399 15 16.1097 15C11.2684 15 9.16631 17.4826 8.88866 19.7635C8.57624 22.3302 10.5131 23.9744 13.6097 24.8726C16.2844 25.6544 18.5259 26.1977 18.5957 27.508C18.6709 28.9172 17.0571 29.7092 16.2577 29.7092C14.829 29.7092 13.2747 28.1304 13.0887 26.6834C11.5338 26.8065 9.91963 26.8131 8.36469 26.9362C8.36469 30.867 11.5672 32.9489 15.8134 32.9489C19.7732 32.9489 23.6621 31.2878 23.6621 27.0398C23.6621 21.8823 18.068 21.8838 14.4066 20.6136C13.1262 19.9085 13.7939 18.3657 14.9989 18.2302C17.4318 17.9356 17.8495 19.3163 18.3679 20.429H18.368ZM33.6112 15.4177C36.7842 15.4177 39.031 17.1618 39.031 20.6974C39.031 23.9376 36.7955 26.0061 33.5507 26.0061H29.498V32.2108C29.498 32.6371 29.498 32.6371 29.1207 32.6371H24.8924C24.3631 32.6371 24.3631 32.6371 24.3631 32.2404V16.1543C24.3631 15.4177 24.3631 15.4177 25.1061 15.4177H33.6112ZM29.9056 22.7273C29.6058 22.7273 29.498 22.6046 29.498 22.419V19.0858C29.498 18.8414 29.698 18.704 29.8807 18.704H31.6572C33.1862 18.9291 33.7459 19.7556 33.7459 20.8332C33.7459 22.375 32.3682 22.7273 31.1714 22.7273H29.9055H29.9056Z" fill="#343084"/>
<path fill-rule="evenodd" clip-rule="evenodd" d="M40.185 15.8939C40.185 15.6779 40.3404 15.5126 40.5117 15.5126H53.9896C54.287 15.4992 54.3194 15.6212 54.3194 15.7367V18.8092C54.3333 18.9518 54.2156 19.017 54.1111 19.017H45.5768C45.3984 19.017 45.3395 19.1993 45.3395 19.3986V21.4731C45.3395 21.6968 45.4994 21.9014 45.7688 21.9014H53.32L53.4923 22.0732V24.9541C53.406 25.0777 53.3197 25.2012 53.2333 25.3248H45.624C45.448 25.3248 45.3394 25.4332 45.3394 25.6088V28.3723C45.3394 28.5247 45.5214 28.6944 45.7343 28.6944H54.1471C54.2583 28.6944 54.3193 28.8 54.3193 28.8662V32.2227C54.3193 32.3016 54.2298 32.3879 54.1537 32.3879H40.3226C40.2493 32.3879 40.185 32.3157 40.185 32.2506V15.8939V15.8939Z" fill="#FF9400"/>
<path fill-rule="evenodd" clip-rule="evenodd" d="M61.6352 25.0314V32.3879H56.836C56.7626 32.3879 56.6984 32.3157 56.6984 32.2506V25.6786C56.6984 25.5026 56.8203 25.4013 56.9113 25.4013H58.2892C58.4273 25.4013 58.4622 25.5191 58.4622 25.6231V28.6944C58.4622 29.0824 58.7882 28.9152 58.9627 28.6944C59.8536 27.4734 60.7445 26.2524 61.6353 25.0314H61.6352Z" fill="#343084"/>
<path fill-rule="evenodd" clip-rule="evenodd" d="M56.4885 15.8939C56.4885 15.6779 56.6439 15.5126 56.8152 15.5126H61.2206C61.5258 15.5126 61.6352 15.699 61.6352 15.8462V22.1279L58.9379 18.3624C58.8796 18.2809 58.7463 18.2862 58.7463 18.4549V21.1669C58.7463 21.3179 58.6715 21.6045 58.4559 21.6045H56.6981C56.6023 21.6045 56.4883 21.3889 56.4883 21.2655V15.8939H56.4885Z" fill="#FF9400"/>
</g>
</g>
<defs>
<clipPath id="clip0_2900_450">
<rect width="70" height="48" rx="6.5" fill="white"/>
</clipPath>
<clipPath id="clip1_2900_450">
<rect width="54" height="17.9489" fill="white" transform="translate(8 15)"/>
</clipPath>
</defs>
</svg>