<svg width="35" height="24" viewBox="0 0 35 24" fill="none" xmlns="http://www.w3.org/2000/svg">
<rect x="0.5" y="0.5" width="34" height="23" rx="2.75" fill="white"/>
<g clip-path="url(#clip0_998_4451)">
<path d="M10.1633 10.0284C8.73158 10.0284 7.98077 10.8313 7.98077 12.3559C7.98077 13.8357 8.65577 14.656 10.1165 14.656C11.5479 14.656 12.3077 13.8545 12.3077 12.3285C12.3077 10.8401 11.6327 10.0284 10.1633 10.0284ZM10.1633 13.5887C9.70461 13.5887 9.39775 13.3686 9.39775 12.32C9.39775 11.3414 9.68991 11.0956 10.1195 11.0956C10.6687 11.0956 10.8937 11.4213 10.8937 12.3643C10.8937 13.3073 10.6861 13.5887 10.1633 13.5887ZM7.37951 13.4014H5.67469C5.53415 13.3974 5.42113 13.2865 5.41802 13.1489V9.07149C5.41802 9.05229 5.41006 9.03378 5.39604 9.02041C5.38219 9.00704 5.36315 8.99967 5.34342 9.00002H4.08204C4.03981 8.99916 4.00398 9.03035 4 9.07149V13.5938C4.00087 14.18 4.48687 14.6551 5.08675 14.656H7.37951C7.42173 14.6568 7.45755 14.6256 7.46154 14.5845V13.4816C7.46189 13.4602 7.4534 13.4396 7.43799 13.4243C7.42242 13.4093 7.4013 13.401 7.37951 13.4014ZM20.3601 10.2001H19.1384C19.0939 10.2001 19.0577 10.2359 19.0577 10.28V13.1323C19.0577 13.4463 18.7233 13.7515 18.2788 13.7515C17.8638 13.7515 17.6817 13.5176 17.6817 13.0699V10.28C17.6817 10.2359 17.6457 10.2001 17.6013 10.2001H16.3707C16.3257 10.2001 16.2893 10.2356 16.2885 10.28V13.1772C16.2885 14.2355 16.9133 14.8274 17.9019 14.8274C18.3228 14.8334 18.7344 14.7043 19.0753 14.4596C19.0949 14.4405 19.1233 14.4333 19.1498 14.4407C19.1763 14.4484 19.1965 14.4693 19.2029 14.4959L19.2659 14.6746C19.2836 14.7197 19.3026 14.7372 19.3466 14.7372H20.3515C20.3743 14.7393 20.397 14.7317 20.4143 14.7166C20.4316 14.7015 20.4416 14.68 20.4423 14.6572V10.28C20.4416 10.2572 20.4314 10.2358 20.4143 10.2207C20.397 10.2056 20.3743 10.1981 20.3515 10.2001H20.3601ZM15.465 13.5488C15.4534 13.5214 15.43 13.5015 15.4018 13.4948C15.3738 13.4879 15.3442 13.4955 15.3222 13.5148C15.1603 13.631 14.9684 13.6944 14.7714 13.6969C14.5132 13.6969 14.3832 13.5769 14.3832 13.2735V11.285C14.3825 11.2605 14.3915 11.2367 14.4083 11.2192C14.4251 11.2019 14.4481 11.1925 14.4718 11.1933H15.4108C15.4336 11.1959 15.4565 11.1882 15.4734 11.1719C15.4904 11.1558 15.4997 11.1328 15.4992 11.109V10.2061C15.4997 10.1821 15.4904 10.1593 15.4733 10.1432C15.4565 10.1269 15.4335 10.1192 15.4108 10.1218H14.479C14.4564 10.123 14.4343 10.1148 14.4177 10.0988C14.4009 10.083 14.3912 10.0609 14.3905 10.0375V9.08451C14.3912 9.06189 14.3829 9.03995 14.3675 9.02384C14.3519 9.0079 14.331 8.99933 14.3092 9.00019H13.5954C13.5729 8.99899 13.5507 9.00704 13.5341 9.02298C13.5175 9.03892 13.5076 9.06103 13.507 9.08451C13.4599 9.74146 12.9903 10.1084 12.5623 10.1202C12.54 10.1185 12.518 10.1271 12.5022 10.1435C12.4867 10.16 12.4787 10.183 12.481 10.2061V11.1073C12.4797 11.1301 12.4879 11.1522 12.5034 11.1683C12.519 11.1844 12.5403 11.193 12.5623 11.1916H12.9562C13.0047 11.1925 13.0438 11.2331 13.0445 11.2833V13.2751C13.0445 14.2902 13.487 14.8274 14.5001 14.8274C15.1609 14.8274 15.5818 14.6364 15.7388 14.5314C15.7644 14.5091 15.775 14.4731 15.7659 14.4397L15.4648 13.5489L15.465 13.5488ZM20.8129 13.9687C20.7803 13.9361 20.7803 13.8854 20.8129 13.8528L21.3558 13.0555C21.3845 13.0068 21.4423 13.0212 21.4787 13.0411C21.9199 13.3484 22.3673 13.5728 22.8813 13.5728C23.0466 13.5728 23.3362 13.5256 23.3362 13.2869C23.3362 13.1026 22.989 12.9669 22.6129 12.8584C21.9699 12.6668 21.0964 12.3739 21.0964 11.4479C21.0964 10.7534 21.7257 10.0303 22.9466 10.0303C23.5938 10.0063 24.2263 10.2188 24.7115 10.6233C24.7434 10.6558 24.7434 10.7062 24.7115 10.739L24.067 11.4879C24.0383 11.5222 23.9808 11.5022 23.9443 11.4879C23.7927 11.392 23.3877 11.1263 22.9178 11.1263C22.6871 11.1263 22.5355 11.2219 22.5355 11.3849C22.5355 11.5764 22.8753 11.6921 23.265 11.8208C23.9077 12.0395 24.7692 12.2981 24.7692 13.2183C24.7692 13.9128 24.1626 14.656 22.81 14.656C22.0428 14.656 21.2482 14.3701 20.8068 13.9815" fill="#00BCB4"/>
<path d="M27.0435 13.9657C27.0112 13.9332 27.0112 13.8825 27.0435 13.8499L27.5854 13.0526C27.6143 13.0041 27.6718 13.0183 27.7082 13.0383C28.1425 13.3455 28.5964 13.5728 29.1081 13.5728C29.273 13.5728 29.5698 13.5256 29.5698 13.2869C29.5698 13.1026 29.2231 12.9669 28.8478 12.8584C28.206 12.6668 27.3342 12.3739 27.3342 11.4478C27.3342 10.7533 27.9624 10.0302 29.1807 10.0302C29.827 10.0062 30.4581 10.2188 30.9425 10.6233C30.9742 10.6558 30.9742 10.7062 30.9425 10.7389L30.2992 11.4879C30.2704 11.5222 30.2129 11.5022 30.1766 11.4879C30.0177 11.3919 29.6211 11.1263 29.1522 11.1263C28.9218 11.1263 28.7707 11.2219 28.7707 11.3849C28.7707 11.5764 29.1096 11.6921 29.4985 11.8208C30.1403 12.0395 31 12.2981 31 13.2183C31 13.9128 30.3946 14.6559 29.0446 14.6559C28.2787 14.6559 27.4856 14.3701 27.0452 13.9815L27.0435 13.9657ZM26.1546 9.00446C25.7826 9.00463 25.439 9.20704 25.2537 9.53543C25.0686 9.86382 25.0693 10.268 25.2564 10.5953L26.0177 11.8369C26.0474 11.8847 26.099 11.9137 26.1546 11.9137C26.2101 11.9137 26.2618 11.8845 26.2915 11.8369L27.0512 10.5909C27.2383 10.2637 27.2394 9.85987 27.0543 9.53166C26.8692 9.20327 26.5264 9.00069 26.1546 9" fill="#F9BE00"/>
</g>
<rect x="0.5" y="0.5" width="34" height="23" rx="2.75" stroke="#F6F7F8"/>
<defs>
<clipPath id="clip0_998_4451">
<rect width="27" height="5.82734" fill="white" transform="translate(4 9)"/>
</clipPath>
</defs>
</svg>
