<svg width="35" height="24" viewBox="0 0 35 24" fill="none" xmlns="http://www.w3.org/2000/svg">
<rect width="35" height="24" rx="3.24812" fill="#1947B9"/>
<path d="M14.3553 12.6187H12.7923C12.3364 12.6187 11.7339 12.9444 11.5711 13.384L11.7339 12.5536H9.81267L8.966 17.3242H10.8873L11.4246 14.312H13.4924C13.4924 14.312 13.2319 15.81 13.1179 16.4775C13.0039 17.1451 13.4598 17.3079 13.6878 17.3079H14.6973L15.3485 13.5956C15.2346 13.0583 14.8764 12.6187 14.3553 12.6187Z" fill="white"/>
<path d="M8.41244 12.5536L8.05423 14.6051L9.50333 12.5536H8.41244Z" fill="white"/>
<path d="M10.6919 5.08015H4.2768L4 6.65951H6.23063L5.33513 11.7558H7.27268L8.16819 6.65951H10.4151L10.6919 5.08015Z" fill="#FACD03"/>
<path d="M12.0107 10.1927L12.2875 8.59707H10.5616L10.2848 10.1927H12.0107ZM9.30792 11.7558C8.77062 11.7558 8.41242 11.3162 8.51011 10.7951L8.99857 8.01092C9.09626 7.47361 9.601 7.05028 10.1383 7.05028H13.2807C13.818 7.05028 14.1762 7.48989 14.0785 8.01092L13.5901 10.7951C13.4924 11.3324 12.9877 11.7558 12.4503 11.7558H9.30792Z" fill="#FACD03"/>
<path d="M21.959 10.1927L22.2358 8.59707H24.727L25.0038 7.034H21.7962C21.2589 7.034 20.7542 7.47361 20.6565 7.99463L20.168 10.7789C20.0703 11.3162 20.4285 11.7395 20.9658 11.7395H24.0757L24.3525 10.1764H21.959V10.1927Z" fill="#FACD03"/>
<path d="M18.0514 10.1927H15.951L16.5046 7.034H14.8275L14.16 10.7951C14.0623 11.3324 14.4205 11.7558 14.9578 11.7558H16.6023C17.1396 11.7558 17.5629 11.4464 17.9048 11.0231C17.9048 11.0231 18.1002 11.5767 18.3607 11.6906C18.6375 11.8209 19.4516 11.7883 19.4516 11.7883L20.2983 7.01772H18.6212L18.0514 10.1927Z" fill="#FACD03"/>
<path d="M30.1652 7.05027H28.6021C28.1462 7.05027 27.6903 7.3759 27.5275 7.81552L27.9834 5.24297H26.2249L25.0689 11.7558H26.8436L27.381 8.74359H29.3022C29.3022 8.74359 29.0417 10.2415 28.9277 10.9091C28.8138 11.5767 29.2697 11.7395 29.4813 11.7395H30.3443L30.9956 8.02718C31.0444 7.48988 30.6862 7.05027 30.1652 7.05027Z" fill="#FACD03"/>
<path d="M23.864 18.9198C23.1476 18.9198 22.6754 18.3337 22.7894 17.6173L23.4569 13.8724C23.5872 13.156 24.271 12.5699 24.9874 12.5699H28.9928C29.7092 12.5699 30.1977 13.156 30.0674 13.8724L29.3999 17.6173C29.2696 18.3337 28.5858 18.9198 27.8694 18.9198H23.864ZM27.5926 17.1614L28.0973 14.312H25.248L24.7432 17.1614H27.5926Z" fill="#FACD03"/>
<path d="M19.9726 17.1614H17.1396L17.6443 14.312H22.2521L22.5615 12.5536H17.3838C16.6674 12.5536 15.9835 13.1397 15.8533 13.8561L15.1857 17.601C15.0555 18.3174 15.5439 18.9036 16.2603 18.9036H20.2657C20.9821 18.9036 21.6659 18.3174 21.7962 17.601L22.2033 15.3052H20.3145L19.9726 17.1614Z" fill="#FACD03"/>
</svg>
