<svg width="35" height="24" viewBox="0 0 35 24" fill="none" xmlns="http://www.w3.org/2000/svg">
<rect x="0.5" y="0.5" width="34" height="23" rx="2.74812" fill="white" stroke="#F6F7F8"/>
<path d="M12.9126 5.6332C12.8126 5.29987 12.4459 5.0332 12.1126 5.0332H11.4126H6.21258C5.87924 5.0332 5.67925 5.29987 5.77925 5.6332L9.11258 16.7665C9.21258 17.0999 9.57925 17.3665 9.91258 17.3665H13.4792H14.7792C15.1126 17.3665 15.5126 17.0999 15.6459 16.7665L16.0126 15.8332L12.9126 5.6332Z" fill="#EC1C24"/>
<path d="M19.9126 8.36646H16.1459H14.0793C13.6793 8.36646 13.5126 8.63312 13.4126 8.96645L10.6793 16.7331C10.5459 17.0665 10.1793 17.3331 9.84595 17.3331H12.9793H16.746C17.0793 17.3331 17.446 17.0665 17.5793 16.7331L20.3126 8.96645C20.4459 8.63312 20.246 8.36646 19.9126 8.36646Z" fill="#9D0B0F"/>
<path d="M20.7794 8.96645C20.6794 8.63312 20.3127 8.36646 19.9794 8.36646H19.2794H14.0461C13.7127 8.36646 13.5127 8.63312 13.6127 8.96645L16.3794 18.2665C16.4794 18.5998 16.8461 18.8665 17.1794 18.8665H20.7461H22.0461C22.3794 18.8665 22.7794 18.5998 22.9127 18.2665L23.2794 17.3331L20.7794 8.96645Z" fill="#FFCE01"/>
<path d="M29.1125 6.3999H26.7125H22.8125C22.4792 6.3999 22.0792 6.66657 21.9459 6.9999L18.0459 18.2999C17.9125 18.6332 17.5459 18.8999 17.1792 18.8999H18.4125H22.3125H23.4125H24.7125C25.0459 18.8999 25.4459 18.6332 25.5792 18.2999L29.5459 7.03324C29.6459 6.66657 29.4792 6.3999 29.1125 6.3999Z" fill="#FF8300"/>
</svg>
