<svg width="35" height="24" viewBox="0 0 35 24" fill="none" xmlns="http://www.w3.org/2000/svg">
<rect x="0.416667" y="0.416667" width="34.1667" height="23.1667" rx="2.2901" fill="white" stroke="#F6F7F8" stroke-width="0.833333"/>
<path d="M13.4018 13.9067V10.259H12.0923V9.39233H15.6536V10.259H14.3441V13.9067H13.4018Z" fill="#0EE06E"/>
<path d="M15.5051 13.9069V10.6318H16.3718V11.1502C16.577 10.7101 16.8416 10.6318 17.1251 10.6318H17.4599V11.5093H17.1764C16.7687 11.5093 16.4042 11.7442 16.4042 12.4624V13.9096H15.5051V13.9069Z" fill="#0EE06E"/>
<path d="M17.8676 12.7081V10.6318H18.764V12.5056C18.764 12.889 18.9503 13.1725 19.3337 13.1725C19.7036 13.1725 19.9385 12.889 19.9385 12.511V10.6318H20.8349V13.9096H19.9817V13.4965C19.7657 13.8232 19.4444 13.9852 19.0367 13.9852C18.3185 13.9825 17.8676 13.4884 17.8676 12.7081Z" fill="#0EE06E"/>
<path d="M21.2184 12.9859L21.9987 12.8077C22.0365 13.0615 22.239 13.2532 22.6305 13.2532C22.9329 13.2532 23.1003 13.129 23.1003 12.9751C23.1003 12.8509 23.0328 12.7591 22.7223 12.6915L22.2093 12.5808C21.5532 12.4377 21.2751 12.1353 21.2751 11.5845C21.2751 11.0229 21.7395 10.5693 22.6116 10.5693C23.5377 10.5693 23.9103 11.1255 23.9481 11.49L23.1624 11.6628C23.1246 11.4711 22.9842 11.2605 22.5927 11.2605C22.3443 11.2605 22.1607 11.3712 22.1607 11.5332C22.1607 11.6682 22.2525 11.7438 22.4145 11.7816L23.1624 11.9544C23.7321 12.084 23.9967 12.4242 23.9967 12.9076C23.9967 13.426 23.5836 13.9714 22.6359 13.9714C21.5937 13.9687 21.2535 13.345 21.2184 12.9859Z" fill="#0EE06E"/>
<path d="M25.7192 13.9069C25.1387 13.9069 24.7499 13.5856 24.7499 12.9484V11.4148H24.1991V10.6291H24.7499V9.90007L25.6463 9.64087V10.6291H26.3078V11.4148H25.6463V12.7864C25.6463 13.0267 25.7705 13.1212 26.0108 13.1212H26.3564V13.9069H25.7192Z" fill="#0EE06E"/>
<path d="M26.8425 13.9067V9.39502H27.7389V13.9094H26.8425V13.9067Z" fill="#0EE06E"/>
<path d="M30.4415 10.6318H31.4001L30.0338 15.0841H29.0753L29.4533 13.9096H28.9592L28.0574 10.6318H29.0159L29.6909 13.1671L30.4415 10.6318Z" fill="#0EE06E"/>
<path d="M4.40002 11.3707H6.50332V9.69129L8.18272 11.3707L6.50332 13.0474V13.906H8.54182V11.3707H10.4129V9.39429H4.40002V11.3707Z" fill="#0EE06E"/>
</svg>
