<svg width="30" height="20" viewBox="0 0 30 20" fill="none" xmlns="http://www.w3.org/2000/svg">
<rect width="30" height="20" rx="3" fill="black"/>
<path d="M22 13.6782C22 13.8892 21.8557 14.1425 21.6754 14.245L15.3276 17.9231C15.1473 18.0256 14.8527 18.0256 14.6724 17.9231L8.3246 14.245C8.14427 14.1425 8 13.8832 8 13.6782V6.32184C8 6.11683 8.14427 5.85755 8.3246 5.75504L14.6724 2.07688C14.8527 1.97437 15.1473 1.97437 15.3276 2.07688L21.6754 5.75504C21.8557 5.85755 22 6.11683 22 6.32184V13.6782Z" fill="white"/>
<path d="M18.3512 10.0121L16.6981 12.4481L15.8445 11.1396L16.8244 9.66836C17.0047 9.40305 17.3954 8.69154 16.9446 7.70266C16.5779 6.90673 15.7904 6.52082 15.0992 6.52082C14.4079 6.52082 13.6505 6.87658 13.2477 7.70266C12.7909 8.64933 13.1876 9.39099 13.3619 9.63821C13.3619 9.63821 13.9029 10.4402 14.3598 11.1155L15.0992 12.1828L16.2112 13.8832C16.2172 13.8952 16.3976 14.1666 16.7101 14.1666C17.0047 14.1666 17.191 13.9013 17.2091 13.8651L19.8119 10.006L18.3512 10.0121ZM15.0931 10.0724C15.0931 10.0724 14.6603 9.41511 14.3778 8.95082C14.0773 8.45638 14.4139 7.71472 15.0931 7.71472C15.7724 7.71472 16.109 8.45035 15.8085 8.95082C15.532 9.41511 15.0931 10.0724 15.0931 10.0724Z" fill="url(#paint0_radial_3603_496)"/>
<path d="M13.4942 12.3697L11.8651 10.0724C11.8651 10.0724 11.4323 9.40908 11.1498 8.95082C10.8493 8.45638 11.1859 7.71472 11.8651 7.71472C11.9493 7.71472 12.0274 7.72678 12.1056 7.74486L12.6827 6.68965C12.4182 6.57509 12.1417 6.52082 11.8772 6.52082C11.1859 6.52082 10.4285 6.87658 10.0257 7.70266C9.56888 8.64933 9.96562 9.39099 10.1399 9.63821L12.9892 13.8711C13.0133 13.9073 13.1936 14.1726 13.4942 14.1726C13.8007 14.1726 13.9751 13.9133 13.9931 13.8771L14.8527 12.5627L14.1133 11.4713L13.4942 12.3697Z" fill="url(#paint1_radial_3603_496)"/>
<defs>
<radialGradient id="paint0_radial_3603_496" cx="0" cy="0" r="1" gradientUnits="userSpaceOnUse" gradientTransform="translate(14.5498 7.20068) scale(7.66185 7.68556)">
<stop stop-color="#FFCC00"/>
<stop offset="0.0915683" stop-color="#FFC800"/>
<stop offset="0.1739" stop-color="#FFBD00"/>
<stop offset="0.2528" stop-color="#FFAB00"/>
<stop offset="0.3295" stop-color="#FF9100"/>
<stop offset="0.4046" stop-color="#FF7000"/>
<stop offset="0.4786" stop-color="#FF4700"/>
<stop offset="0.5503" stop-color="#FF1800"/>
<stop offset="0.5822" stop-color="#FF0000"/>
<stop offset="1" stop-color="#FF0000"/>
</radialGradient>
<radialGradient id="paint1_radial_3603_496" cx="0" cy="0" r="1" gradientUnits="userSpaceOnUse" gradientTransform="translate(9.93123 7.64286) scale(7.0253 7.04704)">
<stop stop-color="#00B4E6"/>
<stop offset="0.201" stop-color="#00B0E3"/>
<stop offset="0.3898" stop-color="#01A5DB"/>
<stop offset="0.5737" stop-color="#0292CD"/>
<stop offset="0.7546" stop-color="#0377BA"/>
<stop offset="0.9316" stop-color="#0455A1"/>
<stop offset="1" stop-color="#054696"/>
</radialGradient>
</defs>
</svg>
