<svg width="35" height="24" viewBox="0 0 35 24" fill="none" xmlns="http://www.w3.org/2000/svg">
<rect x="0.5" y="0.5" width="34" height="23" rx="2.74812" fill="white" stroke="#F6F7F8"/>
<g clip-path="url(#clip0_1851:10858)">
<path d="M10.0044 4.00073H16.3822C17.2725 4.00073 17.8263 4.7264 17.6186 5.61964L14.6492 18.3682C14.4397 19.2583 13.5483 19.9846 12.6574 19.9846H6.28015C5.3911 19.9846 4.83612 19.2583 5.04381 18.3682L8.0144 5.61964C8.22209 4.7264 9.11301 4.00073 10.0044 4.00073Z" fill="#E21836"/>
<path d="M15.8514 4H23.1858C24.0759 4 23.6745 4.72566 23.4651 5.61891L20.4962 18.3675C20.2879 19.2576 20.3529 19.9839 19.4609 19.9839H12.1265C11.2345 19.9839 10.6825 19.2576 10.8921 18.3675L13.8608 5.61891C14.0716 4.72566 14.9606 4 15.8514 4Z" fill="#00447C"/>
<path d="M22.8948 4H29.2727C30.1642 4 30.7179 4.72566 30.5085 5.61891L27.5396 18.3675C27.3301 19.2576 26.4381 19.9839 25.5467 19.9839H19.1718C18.2798 19.9839 17.7265 19.2576 17.9355 18.3675L20.9048 5.61891C21.1125 4.72566 22.0028 4 22.8948 4Z" fill="#007B84"/>
<path d="M11.67 8.0855C11.0141 8.09218 10.8204 8.0855 10.7585 8.07089C10.7347 8.1839 10.2922 10.2255 10.2909 10.2272C10.1956 10.6402 10.1263 10.9347 9.89077 11.1248C9.75708 11.2353 9.601 11.2887 9.42005 11.2887C9.12919 11.2887 8.95975 11.1442 8.9313 10.8703L8.92586 10.7763C8.92586 10.7763 9.01447 10.223 9.01447 10.2199C9.01447 10.2199 9.47897 8.35941 9.56213 8.11348C9.56649 8.09949 9.56773 8.09218 9.56882 8.0855C8.66469 8.09343 8.50442 8.0855 8.49338 8.07089C8.48732 8.09094 8.46493 8.20629 8.46493 8.20629L7.99064 10.3032L7.94991 10.4811L7.87109 11.0628C7.87109 11.2353 7.90498 11.3762 7.97245 11.4953C8.18853 11.8729 8.80491 11.9294 9.1536 11.9294C9.60286 11.9294 10.0243 11.834 10.3091 11.6597C10.8034 11.3676 10.9328 10.9111 11.0481 10.5053L11.1016 10.2972C11.1016 10.2972 11.5801 8.36485 11.6614 8.11348C11.6645 8.09949 11.6658 8.09218 11.67 8.0855ZM13.298 9.64431C13.1826 9.64431 12.9718 9.67229 12.7825 9.7651C12.7138 9.80039 12.6488 9.84111 12.5802 9.88169L12.6421 9.6583L12.6082 9.62068C12.2067 9.70198 12.1168 9.71286 11.7459 9.7651L11.7148 9.78577C11.6718 10.1429 11.6335 10.4113 11.4739 11.1132C11.4131 11.3719 11.35 11.633 11.2867 11.8911L11.3038 11.9239C11.6839 11.9038 11.7992 11.9038 12.1296 11.9093L12.1563 11.8802C12.1983 11.6652 12.2037 11.6149 12.2967 11.1794C12.3404 10.973 12.4315 10.5194 12.4764 10.3578C12.559 10.3196 12.6404 10.282 12.7181 10.282C12.9033 10.282 12.8807 10.4435 12.8736 10.5079C12.8657 10.6159 12.7982 10.9688 12.729 11.2718L12.6829 11.4673C12.6507 11.6117 12.6154 11.7521 12.5832 11.8953L12.5972 11.9239C12.9718 11.9038 13.0861 11.9038 13.406 11.9093L13.4436 11.8802C13.5015 11.5444 13.5184 11.4546 13.621 10.9657L13.6726 10.741C13.7729 10.3014 13.8233 10.0785 13.7474 9.89692C13.6672 9.69343 13.4747 9.64431 13.298 9.64431ZM15.1167 10.1046C14.9175 10.1428 14.7905 10.1683 14.6643 10.1848C14.5392 10.2049 14.4171 10.2231 14.2247 10.2498L14.2095 10.2636L14.1955 10.2747C14.1754 10.418 14.1614 10.5419 14.1348 10.6876C14.1123 10.8382 14.0776 11.0093 14.0212 11.2553C13.9775 11.4435 13.955 11.5091 13.9301 11.5754C13.9058 11.6416 13.8791 11.7059 13.83 11.8911L13.8415 11.9082L13.8511 11.9239C14.031 11.9153 14.1487 11.9093 14.2696 11.9082C14.3904 11.9038 14.5155 11.9082 14.7092 11.9093L14.7262 11.8954L14.7444 11.8802C14.7724 11.7132 14.7766 11.6683 14.7937 11.5869C14.8106 11.4995 14.8398 11.3786 14.9115 11.0555C14.9454 10.9038 14.9832 10.7525 15.0183 10.5977C15.0548 10.4435 15.0931 10.2916 15.1294 10.1399L15.124 10.1215L15.1167 10.1046ZM15.1209 9.48399C14.94 9.37719 14.6224 9.41108 14.4086 9.55861C14.1955 9.70318 14.1713 9.90838 14.3516 10.0166C14.5294 10.1204 14.8483 10.0895 15.0601 9.94072C15.2728 9.79303 15.2994 9.5897 15.1209 9.48399ZM16.2153 11.9574C16.5814 11.9574 16.9566 11.8565 17.2391 11.5571C17.4564 11.3142 17.5561 10.953 17.5906 10.8042C17.703 10.3111 17.6154 10.0809 17.5055 9.94064C17.3386 9.72689 17.0435 9.65833 16.7374 9.65833C16.5534 9.65833 16.115 9.67652 15.7725 9.99225C15.5266 10.22 15.413 10.529 15.3444 10.8253C15.2752 11.1272 15.1956 11.6707 15.6954 11.8729C15.8496 11.9392 16.0719 11.9574 16.2153 11.9574ZM16.1867 10.8479C16.2711 10.4745 16.3707 10.1611 16.625 10.1611C16.8243 10.1611 16.8388 10.3943 16.7502 10.7689C16.7343 10.8521 16.6616 11.1613 16.5632 11.2929C16.4945 11.3901 16.4132 11.449 16.3233 11.449C16.2966 11.449 16.1375 11.449 16.135 11.2129C16.1338 11.0963 16.1576 10.9772 16.1867 10.8479ZM18.5057 11.9093L18.5343 11.8803C18.5749 11.6653 18.5816 11.6147 18.6715 11.1795C18.7164 10.973 18.8093 10.5194 18.853 10.3579C18.9357 10.3195 19.0158 10.2819 19.096 10.2819C19.2799 10.2819 19.2575 10.4434 19.2502 10.5078C19.2435 10.616 19.1761 10.9687 19.1056 11.2717L19.062 11.4672C19.0285 11.6118 18.9922 11.752 18.96 11.8953L18.974 11.9239C19.3499 11.9039 19.4598 11.9039 19.7816 11.9093L19.8204 11.8803C19.8768 11.5443 19.8921 11.4545 19.9978 10.9657L20.0482 10.7409C20.1489 10.3013 20.1999 10.0785 20.1253 9.89697C20.0427 9.69348 19.849 9.64436 19.6748 9.64436C19.5593 9.64436 19.3474 9.67218 19.1591 9.76514C19.0918 9.80043 19.0243 9.84101 18.9581 9.88174L19.0158 9.65835L18.9848 9.62057C18.5835 9.70203 18.4917 9.71291 18.1213 9.76514L18.0928 9.78582C18.0479 10.1429 18.0114 10.4112 17.8517 11.1133C17.791 11.3719 17.7278 11.6331 17.6647 11.8911L17.6817 11.9239C18.0624 11.9039 18.176 11.9039 18.5057 11.9093ZM21.2675 11.9239C21.2911 11.8085 21.4315 11.1248 21.4327 11.1248C21.4327 11.1248 21.5523 10.6232 21.5596 10.605C21.5596 10.605 21.5972 10.5528 21.6348 10.5321H21.6902C22.2123 10.5321 22.802 10.5321 23.2641 10.1921C23.5786 9.95892 23.7936 9.61459 23.8895 9.1961C23.9144 9.0935 23.9328 8.97147 23.9328 8.84944C23.9328 8.68916 23.9006 8.5306 23.8076 8.4067C23.5719 8.07698 23.1026 8.07092 22.5609 8.06843C22.5591 8.06843 22.2938 8.07092 22.2938 8.07092C21.6003 8.07947 21.3222 8.07698 21.2079 8.06299C21.1983 8.11351 21.1801 8.20336 21.1801 8.20336C21.1801 8.20336 20.9317 9.35466 20.9317 9.35653C20.9317 9.35653 20.3372 11.8043 20.3092 11.9197C20.9147 11.9124 21.163 11.9124 21.2675 11.9239ZM21.7278 9.8787C21.7278 9.8787 21.9919 8.72974 21.9907 8.73409L21.9992 8.67517L22.0029 8.63024L22.1085 8.64113C22.1085 8.64113 22.6532 8.68792 22.6659 8.68916C22.8809 8.77233 22.9696 8.9867 22.9077 9.26652C22.8512 9.52225 22.6854 9.73724 22.4722 9.84108C22.2967 9.92907 22.0817 9.93638 21.8602 9.93638H21.7169L21.7278 9.8787ZM23.3722 10.8692C23.3024 11.1667 23.2222 11.7102 23.7195 11.9039C23.8781 11.9713 24.0202 11.9914 24.1646 11.9841C24.3171 11.9758 24.4584 11.8994 24.5893 11.7893C24.5775 11.8345 24.5657 11.8798 24.5539 11.9252L24.5764 11.9542C24.9341 11.9392 25.0451 11.9392 25.4326 11.9421L25.4678 11.9154C25.5244 11.5827 25.5777 11.2597 25.7247 10.6232C25.7964 10.3184 25.8679 10.0165 25.9414 9.71288L25.9299 9.67946C25.5298 9.75361 25.4229 9.76947 25.0379 9.82403L25.0087 9.84782C25.0048 9.87875 25.0008 9.90844 24.9971 9.93813C24.9372 9.84144 24.8505 9.75889 24.7166 9.70744C24.5455 9.64013 24.1435 9.72687 23.7979 10.0415C23.5551 10.2661 23.4385 10.5739 23.3722 10.8692ZM24.2126 10.8873C24.2983 10.5206 24.3967 10.2103 24.6516 10.2103C24.8128 10.2103 24.8977 10.3591 24.8805 10.6128C24.8668 10.6761 24.852 10.7428 24.8345 10.8182C24.809 10.9271 24.7813 11.0352 24.7544 11.1434C24.727 11.2174 24.6952 11.2872 24.6602 11.3337C24.5946 11.4266 24.4385 11.4843 24.3487 11.4843C24.3232 11.4843 24.1658 11.4843 24.1604 11.2524C24.1592 11.1368 24.1829 11.0179 24.2126 10.8873ZM28.6012 9.67649L28.5703 9.6412C28.1743 9.72141 28.1027 9.73416 27.7389 9.78329L27.7122 9.81002C27.7109 9.81438 27.7098 9.82106 27.708 9.82712L27.7067 9.82106C27.4359 10.4458 27.4438 10.3111 27.2234 10.8029C27.2222 10.7805 27.2222 10.7665 27.2209 10.7428L27.1657 9.67649L27.1311 9.6412C26.7163 9.72141 26.7065 9.73416 26.3235 9.78329L26.2936 9.81002C26.2894 9.82277 26.2894 9.83676 26.2869 9.852L26.2894 9.85744C26.3373 10.1021 26.3258 10.0476 26.3738 10.4337C26.3962 10.6232 26.4261 10.8138 26.4485 11.001C26.4862 11.3142 26.5074 11.4684 26.5536 11.9464C26.2949 12.3733 26.2336 12.5348 25.9846 12.9095L25.9863 12.9132L25.8109 13.1906C25.7909 13.2198 25.7727 13.2398 25.7472 13.2484C25.7192 13.2622 25.6828 13.2647 25.6323 13.2647H25.5352L25.3908 13.7451L25.8862 13.7536C26.177 13.7524 26.3599 13.6163 26.4583 13.4335L26.7698 12.8997H26.7648L26.7976 12.8621C27.0072 12.4109 28.6012 9.67649 28.6012 9.67649ZM23.3722 15.9852H23.1621L23.9399 13.4123H24.198L24.2799 13.1473L24.2879 13.442C24.2782 13.6242 24.4216 13.7857 24.7981 13.759H25.2335L25.3834 13.2635H25.2195C25.1253 13.2635 25.0816 13.2398 25.0871 13.1888L25.0791 12.8889H24.2728V12.8904C24.0121 12.8959 23.2336 12.9155 23.0759 12.9574C22.8852 13.0066 22.6842 13.1511 22.6842 13.1511L22.7632 12.8858H22.0089L21.8517 13.4123L21.0634 16.0246H20.9104L20.7604 16.5164H22.2627L22.2124 16.6804H22.9527L23.0018 16.5164H23.2095L23.3722 15.9852ZM22.7558 13.9351C22.6351 13.9685 22.4103 14.0699 22.4103 14.0699L22.6102 13.4123H23.2095L23.0649 13.8914C23.0649 13.8914 22.8797 13.9023 22.7558 13.9351ZM22.7674 14.8745C22.7674 14.8745 22.5791 14.8981 22.4552 14.9261C22.3332 14.9631 22.1043 15.0797 22.1043 15.0797L22.3108 14.3954H22.9132L22.7674 14.8745ZM22.4316 15.9913H21.8304L22.0047 15.4138H22.604L22.4316 15.9913ZM23.8793 14.3954H24.7458L24.6212 14.7987H23.7432L23.6114 15.2395H24.3797L23.798 16.0586C23.7572 16.1188 23.7207 16.1401 23.6801 16.157C23.6394 16.1777 23.5859 16.202 23.524 16.202H23.3109L23.1645 16.6848H23.7219C24.0117 16.6848 24.1829 16.553 24.3092 16.3799L24.7081 15.834L24.7938 16.3883C24.812 16.4922 24.8866 16.553 24.9371 16.5766C24.9929 16.6046 25.0506 16.6526 25.1321 16.6598C25.2194 16.6635 25.2826 16.6665 25.3245 16.6665H25.5984L25.7629 16.1261H25.6549C25.5928 16.1261 25.486 16.1157 25.4679 16.0962C25.4497 16.0726 25.4497 16.0362 25.4399 15.9809L25.353 15.4253H24.9971L25.1532 15.2395H26.0295L26.1643 14.7987H25.353L25.4794 14.3954H26.2882L26.4382 13.8981H24.0268L23.8793 14.3954ZM16.5607 16.1036L16.763 15.4308H17.5942L17.7461 14.9304H16.9141L17.0411 14.5162H17.8541L18.0047 14.0317H15.9704L15.8229 14.5162H16.2851L16.1618 14.9304H15.6984L15.5448 15.4393H16.0068L15.7373 16.3295C15.7009 16.4473 15.7544 16.4922 15.7883 16.547C15.8229 16.6003 15.8581 16.6356 15.937 16.6556C16.0185 16.6738 16.0743 16.6847 16.1502 16.6847H17.0872L17.2542 16.1303L16.8388 16.1874C16.7586 16.1874 16.5365 16.1777 16.5607 16.1036ZM16.6561 12.8828L16.4454 13.2635C16.4003 13.3466 16.3598 13.3982 16.3232 13.422C16.291 13.4421 16.2273 13.4505 16.135 13.4505H16.0251L15.8782 13.9375H16.2432C16.4187 13.9375 16.5535 13.8732 16.6178 13.841C16.687 13.804 16.7052 13.8251 16.7587 13.7735L16.8819 13.6667H18.0217L18.173 13.1596H17.3387L17.4843 12.8828H16.6561ZM18.3388 16.1134C18.3193 16.0854 18.3333 16.0361 18.363 15.9335L18.6745 14.9024H19.7828C19.9443 14.9 20.0609 14.8982 20.1368 14.8927C20.2182 14.8842 20.3068 14.8551 20.4034 14.8029C20.503 14.7482 20.554 14.6905 20.5971 14.6243C20.6451 14.5582 20.7222 14.4136 20.7884 14.1907L21.18 12.8858L20.03 12.8925C20.03 12.8925 19.6758 12.9447 19.5199 13.0024C19.3626 13.0668 19.1378 13.2465 19.1378 13.2465L19.2416 12.8888H18.5312L17.5366 16.1874C17.5013 16.3155 17.4777 16.4084 17.4723 16.4642C17.4704 16.5244 17.5481 16.5839 17.5985 16.6289C17.658 16.6738 17.746 16.6665 17.8304 16.6738C17.9192 16.6805 18.0454 16.6847 18.2197 16.6847H18.7656L18.9332 16.1188L18.4445 16.165C18.3922 16.165 18.3545 16.137 18.3388 16.1134ZM18.8755 14.2059H20.0396L19.9656 14.4379C19.9552 14.4433 19.9303 14.4264 19.8119 14.4404H18.8039L18.8755 14.2059ZM19.1087 13.428H20.2826L20.1982 13.7074C20.1982 13.7074 19.6449 13.702 19.5563 13.7183C19.1664 13.7857 18.9387 13.9941 18.9387 13.9941L19.1087 13.428ZM19.9917 15.2146C19.982 15.2492 19.9668 15.2704 19.9455 15.2862C19.9219 15.3015 19.8836 15.3069 19.8266 15.3069H19.6607L19.6705 15.0245H18.9806L18.9526 16.4054C18.9515 16.505 18.9611 16.5627 19.034 16.6089C19.107 16.6665 19.3316 16.6738 19.634 16.6738H20.0663L20.2223 16.1569L19.846 16.1776L19.7208 16.1849C19.7037 16.1776 19.6874 16.1709 19.6692 16.1528C19.6534 16.137 19.6266 16.1467 19.631 16.047L19.634 15.6931L20.0287 15.6767C20.2418 15.6767 20.3329 15.6074 20.4106 15.5413C20.4848 15.4781 20.509 15.4053 20.537 15.3069L20.6032 14.9935H20.0608L19.9917 15.2146Z" fill="#FEFEFE"/>
</g>
<defs>
<clipPath id="clip0_1851:10858">
<rect width="25.6" height="16" fill="white" transform="translate(5 4)"/>
</clipPath>
</defs>
</svg>
