<svg width="35" height="24" viewBox="0 0 35 24" fill="none" xmlns="http://www.w3.org/2000/svg">
<rect x="0.5" y="0.5" width="34" height="23" rx="2.75" fill="white"/>
<path d="M4 9V14.3621L8.44365 15.8976L12.8752 14.3621V9H4Z" fill="#D62A43"/>
<path d="M8.43111 14.1889H7.07498V13.7058H7.06291C6.79654 14.0897 6.42118 14.2755 5.86421 14.2755C5.19827 14.2755 4.60498 13.8669 4.60498 13V10.4118H6.00951V12.3932C6.00951 12.8267 6.05794 13.1362 6.46961 13.1362C6.71178 13.1362 7.02656 13.0124 7.02656 12.4056V10.4118H8.43111V14.1889ZM11.0585 11.5139C11.0465 11.3901 10.9859 11.2911 10.889 11.2291C10.8043 11.1548 10.6953 11.1177 10.5742 11.1177C10.3805 11.1177 10.1505 11.1673 10.1505 11.4025C10.1505 11.5139 10.2352 11.5635 10.32 11.6006C10.55 11.6997 11.0827 11.7369 11.555 11.8854C12.0272 12.0341 12.4389 12.3189 12.4389 12.9381C12.4389 13.9907 11.4581 14.2631 10.5621 14.2631C9.69034 14.2631 8.7459 13.904 8.72169 12.9381H10.0657C10.0778 13.0743 10.1262 13.1733 10.2352 13.2725C10.3078 13.3343 10.441 13.3839 10.6106 13.3839C10.7922 13.3839 11.0827 13.3096 11.0827 13.0991C11.0827 12.8761 10.9617 12.8143 10.3078 12.7028C9.23022 12.517 8.80646 12.1703 8.80646 11.5139C8.80646 10.5604 9.81146 10.3127 10.55 10.3127C11.3491 10.3127 12.3057 10.5357 12.342 11.5016H11.0585V11.5139Z" fill="white"/>
<path d="M13.3828 9H14.7874V10.8328H14.7994C15.0174 10.5108 15.3927 10.3251 15.8044 10.3251C17.0394 10.3251 17.3784 11.4024 17.3784 12.2817C17.3784 13.2228 16.8699 14.2754 15.8286 14.2754C15.1385 14.2754 14.9205 14.003 14.751 13.7677H14.7389V14.1764H13.3828V9ZM15.3565 11.3653C14.8479 11.3653 14.7389 11.8482 14.7389 12.294C14.7389 12.7399 14.8479 13.2352 15.3565 13.2352C15.865 13.2352 15.974 12.7522 15.974 12.294C15.974 11.8606 15.8528 11.3653 15.3565 11.3653ZM21.3014 13.3467C21.3014 13.6315 21.3136 13.9534 21.471 14.1888H20.0301C19.9938 14.0897 19.9696 13.9287 19.9816 13.8296H19.9696C19.6669 14.1764 19.2431 14.2754 18.783 14.2754C18.0686 14.2754 17.4874 13.9287 17.4874 13.1361C17.4874 11.9473 18.8556 11.9845 19.57 11.8482C19.7638 11.8111 19.9574 11.7492 19.9574 11.5139C19.9574 11.2538 19.7274 11.1672 19.4974 11.1672C19.0615 11.1672 18.9767 11.39 18.9767 11.551H17.6691C17.7175 10.486 18.6982 10.3127 19.57 10.3127C21.3378 10.3127 21.3136 11.0557 21.3136 11.7864V13.3467H21.3014ZM19.9574 12.4922C19.788 12.5789 19.5942 12.6284 19.4005 12.6779C19.0857 12.7522 18.9283 12.8265 18.9283 13.0866C18.9283 13.26 19.1099 13.4334 19.3641 13.4334C19.679 13.4334 19.9332 13.2352 19.9574 12.8389V12.4922ZM21.81 10.4118H23.1661V10.8947H23.1782C23.4446 10.5108 23.82 10.3251 24.3769 10.3251C25.0428 10.3251 25.6483 10.7337 25.6483 11.6006V14.1888H24.2316V12.2073C24.2316 11.7739 24.1832 11.4643 23.7715 11.4643C23.5293 11.4643 23.2145 11.5882 23.2145 12.195V14.1888H21.81V10.4118ZM26.1447 9H27.5492V11.5015L28.4452 10.4118H30.0313L28.7115 11.8358L30.2372 14.1888H28.5421L27.7914 12.8265L27.5371 13.099V14.1888H26.1325V9H26.1447ZM30.8668 13.6686C30.9152 13.7182 30.9515 13.7924 30.9515 13.8667C30.9515 13.9411 30.9273 14.0154 30.8668 14.0649C30.8183 14.1144 30.7457 14.1516 30.673 14.1516C30.6004 14.1516 30.5278 14.1268 30.4794 14.0649C30.4309 14.0154 30.3946 13.9411 30.3946 13.8667C30.3946 13.7924 30.4188 13.7182 30.4794 13.6686C30.5278 13.6191 30.6004 13.5819 30.673 13.5819C30.7457 13.5943 30.8183 13.6191 30.8668 13.6686ZM30.9031 13.6439C30.8426 13.5819 30.7699 13.5448 30.673 13.5448C30.5883 13.5448 30.5156 13.5819 30.443 13.6439C30.3824 13.7057 30.3462 13.7801 30.3462 13.8791C30.3462 13.9658 30.3824 14.0525 30.443 14.1144C30.5036 14.1764 30.5762 14.2135 30.673 14.2135C30.7578 14.2135 30.8305 14.1764 30.9031 14.1144C30.9637 14.0525 31 13.9782 31 13.8791C30.9879 13.7801 30.9637 13.7057 30.9031 13.6439ZM30.7215 13.8544C30.7094 13.8544 30.6852 13.8667 30.661 13.8667H30.6004V13.7429H30.6488C30.6852 13.7429 30.7094 13.7429 30.7215 13.7553C30.7336 13.7677 30.7457 13.7801 30.7457 13.8049C30.7578 13.8296 30.7457 13.842 30.7215 13.8544ZM30.5398 14.0525H30.6004V13.9163H30.6488C30.6852 13.9163 30.7094 13.9163 30.7215 13.9287C30.7457 13.9411 30.7578 13.9658 30.7578 14.0154V14.0525H30.8183V13.9782C30.8183 13.9658 30.8062 13.9411 30.7941 13.9287C30.782 13.9039 30.7578 13.9039 30.7336 13.8916C30.7578 13.8916 30.7699 13.8791 30.782 13.8791C30.8063 13.8667 30.8183 13.842 30.8183 13.8049C30.8183 13.7553 30.8063 13.7306 30.7699 13.7182C30.7457 13.7057 30.7215 13.7057 30.673 13.7057H30.552V14.0525H30.5398Z" fill="#1B3281"/>
<rect x="0.5" y="0.5" width="34" height="23" rx="2.75" stroke="#F6F7F8"/>
</svg>
