<svg width="35" height="24" fill="none" xmlns="http://www.w3.org/2000/svg"><rect x=".416667" y=".416667" width="34.1667" height="23.1667" rx="2.2901" fill="#fff" stroke="#F6F7F8" stroke-width=".833333"/><path d="M22.6586 20H11.3414C10.0485 20 9 18.9515 9 17.6586V6.34138C9 5.04848 10.0485 4 11.3414 4h11.319c1.2929 0 2.3414 1.04848 2.3414 2.34138V17.6604C25 18.9515 23.9515 20 22.6586 20z" fill="url(#paint0_linear)"/><path d="M22.4107 19.6495H11.5894c-1.2363 0-2.23869-1.0025-2.23869-2.2387V6.58948c0-1.23621 1.00239-2.23865 2.23869-2.23865h10.8231c1.2362 0 2.2386 1.00244 2.2386 2.23865V17.4126c-.0017 1.2344-1.0042 2.2369-2.2404 2.2369z" fill="url(#paint1_linear)"/><path d="M24.6494 10.2007h-8.8803V4.35083h-3.5988v5.84987H9.35071v3.5989h2.81959v5.8499h3.5988v-5.8499h8.8803v-3.5989z" fill="#063982"/><defs><linearGradient id="paint0_linear" x1="9.68524" y1="19.3148" x2="24.3148" y2="4.68524" gradientUnits="userSpaceOnUse"><stop stop-color="#CBCECB"/><stop offset="1" stop-color="#FEFEFE"/></linearGradient><linearGradient id="paint1_linear" x1="22.6068" y1="3.99283" x2="11.3932" y2="20.0075" gradientUnits="userSpaceOnUse"><stop stop-color="#CBCECB"/><stop offset="1" stop-color="#FEFEFE"/></linearGradient></defs></svg>