<svg width="70" height="48" viewBox="0 0 70 48" fill="none" xmlns="http://www.w3.org/2000/svg">
<g clip-path="url(#clip0_3344_459)">
<rect x="1" y="1" width="68" height="46" rx="5.5" fill="white"/>
<rect x="1" y="1" width="68" height="46" rx="5.5" stroke="#F6F7F8" stroke-width="2"/>
<g clip-path="url(#clip1_3344_459)">
<path fill-rule="evenodd" clip-rule="evenodd" d="M8.67795 20.2249C8.50269 19.9138 8.39076 19.5701 8.34756 19.2141C8.30436 18.858 8.33087 18.4968 8.42611 18.1515C8.52134 17.8062 8.68286 17.4837 8.9018 17.2029C9.12026 16.9221 9.39173 16.6887 9.70002 16.5164L10.052 16.3192C10.6332 15.9944 11.3151 15.9137 11.9533 16.0944C12.592 16.275 13.1359 16.7027 13.4702 17.2866L16.7971 23.0988L20.1245 17.2852C20.2884 16.9991 20.5059 16.7488 20.7641 16.5487C21.0228 16.3484 21.3174 16.2022 21.6316 16.1184C21.9457 16.0346 22.2727 16.0148 22.5942 16.0602C22.9153 16.1055 23.2251 16.2151 23.5049 16.3827L23.9153 16.6283C24.5044 16.9812 24.9334 17.5563 25.1106 18.2297C25.2874 18.903 25.1975 19.6203 24.8608 20.2268L19.1053 30.5926C18.8751 31.0068 18.5423 31.3513 18.1392 31.5915C17.7367 31.8316 17.2792 31.9588 16.8128 31.96C16.3464 31.9613 15.8884 31.8366 15.4844 31.5986C15.0809 31.3606 14.7456 31.0177 14.5134 30.6048L8.67795 20.2249Z" fill="#ED2132"/>
<path fill-rule="evenodd" clip-rule="evenodd" d="M13.317 17.0188C13.317 17.0188 12.699 16.377 11.5748 16.377C10.4501 16.377 9.32546 17.7109 10.1359 19.146C10.9459 20.581 12.1703 22.7086 12.5173 23.2488C12.8644 23.7889 13.4766 24.4137 14.667 24.4137C15.858 24.4137 16.7966 23.1006 16.7966 23.1006L13.317 17.0188Z" fill="#A02C22"/>
<path fill-rule="evenodd" clip-rule="evenodd" d="M25.5122 22.9449V31.0795C25.5215 31.3171 25.6202 31.5417 25.7881 31.7065C25.956 31.8712 26.1798 31.9632 26.413 31.9632C26.6457 31.9632 26.8696 31.8712 27.0375 31.7065C27.2053 31.5417 27.3045 31.3171 27.3138 31.0795V22.9449C27.3045 22.7073 27.2053 22.4826 27.0375 22.3179C26.8696 22.1532 26.6457 22.0612 26.413 22.0612C26.1798 22.0612 25.956 22.1532 25.7881 22.3179C25.6202 22.4826 25.5215 22.7073 25.5122 22.9449ZM38.7378 23.8644V31.0795C38.7451 31.3183 38.8433 31.5447 39.0117 31.7108C39.1801 31.877 39.4049 31.9699 39.6386 31.9699C39.8728 31.9699 40.0976 31.877 40.266 31.7108C40.4339 31.5447 40.5321 31.3183 40.5399 31.0795V23.8644H42.183C42.4157 23.8548 42.6356 23.7537 42.7966 23.5824C42.9581 23.4109 43.0485 23.1823 43.0485 22.9446C43.0485 22.7068 42.9581 22.4783 42.7966 22.3069C42.6356 22.1354 42.4157 22.0344 42.183 22.0249H37.0412C36.8056 22.0304 36.5817 22.1298 36.4173 22.3017C36.2528 22.4735 36.1605 22.7043 36.1605 22.9446C36.1605 23.1849 36.2528 23.4157 36.4173 23.5876C36.5817 23.7595 36.8056 23.8588 37.0412 23.8644H38.7378ZM30.6417 27.9319H34.8989C35.1316 27.9224 35.3515 27.8213 35.513 27.6499C35.6745 27.4785 35.7644 27.2499 35.7644 27.0122C35.7644 26.7744 35.6745 26.5459 35.513 26.3745C35.3515 26.203 35.1316 26.102 34.8989 26.0925H30.6417V23.8644H34.917C35.1522 23.8588 35.376 23.7595 35.5405 23.5876C35.7049 23.4157 35.7972 23.1849 35.7972 22.9446C35.7972 22.7043 35.7049 22.4735 35.5405 22.3017C35.376 22.1298 35.1522 22.0304 34.917 22.0249H29.7409C29.5018 22.0249 29.2726 22.1218 29.1037 22.2943C28.9343 22.4668 28.8396 22.7009 28.8396 22.9449V31.0795C28.8396 31.5877 29.2431 31.9999 29.7409 31.9999H34.8989C35.1326 31.9922 35.3544 31.8918 35.5174 31.7201C35.6799 31.5485 35.7707 31.3189 35.7707 31.08C35.7707 30.8411 35.6799 30.6115 35.5174 30.4398C35.3544 30.2682 35.1326 30.1679 34.8989 30.16H30.6417V27.9319Z" fill="#ED2132"/>
<path fill-rule="evenodd" clip-rule="evenodd" d="M47.6296 30.0317L48.6267 31.8335C48.6267 31.8335 47.9183 31.912 47.3999 31.9249C45.7494 31.9678 42.2856 30.9206 42.2856 26.9287C42.2856 22.9372 45.9973 21.9511 47.4657 21.9511C48.9335 21.9511 52.6173 23.07 52.6173 26.9291C52.6173 29.3739 51.1764 30.4909 51.1764 30.4909L51.9162 31.7407H49.8559L47.2855 27.1602H49.3021L50.0218 28.4042C50.0218 28.4042 50.4204 27.9196 50.4204 26.9287C50.4204 25.9383 49.6566 23.8574 47.5069 23.8574C45.3577 23.8574 44.5271 25.6457 44.5271 26.9287C44.5271 30.1121 47.6296 30.0317 47.6296 30.0317ZM53.6025 22.1326H58.0094C59.5921 22.1326 61.757 23.1668 61.757 25.6226C61.757 28.0788 59.8199 28.7299 59.8199 28.7299L61.9597 31.7627H59.5538L55.9957 26.4758H58.3403L58.7438 27.0966C58.7438 27.0966 59.5572 26.7333 59.5572 25.6534C59.5572 24.5744 58.6152 23.9517 57.6815 23.9517H55.7679V31.7464H53.5893L53.6025 22.1326Z" fill="#1E427E"/>
</g>
</g>
<defs>
<clipPath id="clip0_3344_459">
<rect width="70" height="48" rx="6.5" fill="white"/>
</clipPath>
<clipPath id="clip1_3344_459">
<rect width="54" height="16" fill="white" transform="translate(8 16)"/>
</clipPath>
</defs>
</svg>
