<svg width="35" height="24" viewBox="0 0 35 24" fill="none" xmlns="http://www.w3.org/2000/svg">
    <path d="M0 3.25C0 1.45508 1.45507 0 3.25 0H31.75C33.5449 0 35 1.45507 35 3.25V20.75C35 22.5449 33.5449 24 31.75 24H3.25C1.45507 24 0 22.5449 0 20.75V3.25Z" fill="white" />
    <path fill-rule="evenodd" clip-rule="evenodd" d="M10.7503 16.568H8.41362L6.66139 9.86896C6.57822 9.5608 6.40163 9.28837 6.14187 9.15998C5.49361 8.8373 4.77928 8.58051 4 8.45099V8.19308H7.76422C8.28374 8.19308 8.67338 8.58051 8.73832 9.03046L9.64747 13.8627L11.983 8.19308H14.2548L10.7503 16.568ZM15.5533 16.568H13.3465L15.1637 8.19308H17.3705L15.5533 16.568ZM20.2257 10.5133C20.2906 10.0622 20.6803 9.80427 21.1349 9.80427C21.8492 9.73952 22.6273 9.86903 23.2767 10.1906L23.6664 8.38743C23.017 8.12951 22.3026 8 21.6544 8C19.5125 8 17.9539 9.16005 17.9539 10.7701C17.9539 11.9949 19.0579 12.638 19.8372 13.0254C20.6803 13.4117 21.005 13.6696 20.94 14.0559C20.94 14.6354 20.2906 14.8933 19.6424 14.8933C18.8631 14.8933 18.0838 14.7002 17.3706 14.3775L16.981 16.1818C17.7603 16.5033 18.6033 16.6328 19.3826 16.6328C21.7842 16.6965 23.2767 15.5375 23.2767 13.798C23.2767 11.6074 20.2257 11.479 20.2257 10.5133ZM31 16.568L29.2478 8.19308H27.3657C26.976 8.19308 26.5864 8.45099 26.4565 8.8373L23.2118 16.568H25.4836L25.937 15.3443H28.7283L28.988 16.568H31ZM27.6904 10.4487L28.3386 13.6051H26.5215L27.6904 10.4487Z" fill="#224DBA" />
    <path d="M3.25 1H31.75V-1H3.25V1ZM34 3.25V20.75H36V3.25H34ZM31.75 23H3.25V25H31.75V23ZM1 20.75V3.25H-1V20.75H1ZM3.25 23C2.00736 23 1 21.9926 1 20.75H-1C-1 23.0972 0.902789 25 3.25 25V23ZM34 20.75C34 21.9926 32.9926 23 31.75 23V25C34.0972 25 36 23.0972 36 20.75H34ZM31.75 1C32.9926 1 34 2.00736 34 3.25H36C36 0.90279 34.0972 -1 31.75 -1V1ZM3.25 -1C0.90279 -1 -1 0.90279 -1 3.25H1C1 2.00736 2.00736 1 3.25 1V-1Z" fill="#F6F7F8" />
</svg>
    