<svg width="35" height="24" viewBox="0 0 35 24" fill="none" xmlns="http://www.w3.org/2000/svg">
<rect x="0.5" y="0.5" width="34" height="23" rx="2.75" fill="white"/>
<path d="M4 7C4.38342 7.13748 4.63512 7.97841 4.63512 7.97841L7.01317 15.0026C7.28728 15.8817 8.15459 16.3447 9.1253 16.3447H14.3392C13.9658 16.2881 13.5564 15.3538 13.5564 15.3538L10.9125 8.36725C10.5319 7.30007 9.89039 7 8.91849 7H4ZM26.0668 7C25.0925 7 24.4621 7.30007 24.0876 8.36725L21.4289 15.3538C21.4289 15.3538 21.0236 16.2881 20.6461 16.3447H25.86C26.8354 16.3447 27.6945 15.8817 27.9721 15.0026L30.3502 7.97841C30.3502 7.97841 30.6095 7.13748 31 7H26.0668ZM14.605 7.05014V16.3447H20.4098V7.05014H14.605Z" fill="#ED1A3A"/>
<rect x="0.5" y="0.5" width="34" height="23" rx="2.75" stroke="#F6F7F8"/>
</svg>
