<svg xmlns="http://www.w3.org/2000/svg" width="35" height="24" viewBox="0 0 35 24">
    <g fill="none" fill-rule="evenodd">
        <path fill="#00C250" d="M0 3.25C0 1.454 1.46 0 3.246 0h28.508C33.547 0 35 1.447 35 3.25v17.5c0 1.795-1.46 3.25-3.246 3.25H3.246C1.453 24 0 22.553 0 20.75V3.25z"/>
        <path fill="#FFF" fill-rule="nonzero" d="M15.598 13.6c-.245.126-.544.034-.678-.207l-.033-.073-1.4-3.078c-.005-.037-.005-.075 0-.112 0-.068.028-.133.076-.18.049-.048.114-.074.182-.072.055-.002.108.016.151.05l1.679 1.176c.124.083.27.128.42.129.09 0 .18-.017.264-.051l7.736-3.465c-1.605-1.773-3.9-2.764-6.292-2.715-4.255 0-7.703 2.872-7.703 6.443.05 1.952 1.043 3.76 2.664 4.848.175.129.249.353.185.56l-.346 1.31c-.021.06-.035.122-.04.185-.001.069.025.135.074.183.049.049.115.076.184.074.051-.003.101-.018.146-.045l1.678-.974c.124-.075.265-.116.41-.117.076 0 .151.011.223.033.818.231 1.664.348 2.514.347 4.254 0 7.708-2.872 7.708-6.414.008-1.057-.285-2.094-.845-2.99l-8.895 5.122-.062.034z"/>
    </g>
</svg>
