<svg width="70" height="48" viewBox="0 0 70 48" fill="none" xmlns="http://www.w3.org/2000/svg">
<g clip-path="url(#clip0_2092_2009)">
<rect x="1" y="1" width="68" height="46" rx="5.5" fill="white"/>
<rect x="1" y="1" width="68" height="46" rx="5.5" stroke="#F6F7F8" stroke-width="2"/>
<g clip-path="url(#clip1_2092_2009)">
<path d="M26.4374 20.7626L28.1232 34.5524H44.6073L42.9215 20.7626H26.4374Z" fill="#AA8FFF"/>
<path d="M31.1399 15.5004C32.1913 16.4941 32.3354 18.0571 31.462 18.9915C30.5885 19.9258 29.0282 19.8777 27.9768 18.8839C26.9255 17.8902 26.7812 16.3272 27.6547 15.3928C28.5282 14.4585 30.0886 14.5067 31.1399 15.5004Z" fill="#1A0826"/>
<path fill-rule="evenodd" clip-rule="evenodd" d="M61.8829 25.7281C61.5034 22.6267 59.0804 20.7518 55.7901 20.7627H44.8296L46.5155 34.5525H51.4482L51.1121 31.7945H56.3322C60.4356 31.7945 62.3165 29.2219 61.8829 25.7281ZM55.7955 27.9301L50.6351 27.9355L50.2285 24.6271L55.4161 24.6325C56.6358 24.6488 57.2591 25.3357 57.3621 26.284C57.4271 26.889 57.1507 27.9301 55.7955 27.9301Z" fill="#1A0826"/>
<path d="M9.27038 30.699L9.74197 34.5525H26.2098L25.6677 30.143H17.9922L17.9216 29.5925L24.9956 24.6271L24.524 20.7626H8.05615L8.59279 25.1775H16.2846L16.3551 25.7281L9.27038 30.699Z" fill="#1A0826"/>
</g>
</g>
<defs>
<clipPath id="clip0_2092_2009">
<rect width="70" height="48" rx="6.5" fill="white"/>
</clipPath>
<clipPath id="clip1_2092_2009">
<rect width="54" height="20.7692" fill="white" transform="translate(8 14)"/>
</clipPath>
</defs>
</svg>
