<svg xmlns="http://www.w3.org/2000/svg" xmlns:xlink="http://www.w3.org/1999/xlink" width="524" height="225" viewBox="0 0 524 225">
    <defs>
        <linearGradient id="prefix__b" x1="0%" x2="100.759%" y1="79.805%" y2="21.479%">
            <stop offset="0%" stop-color="#C600AD"/>
            <stop offset="100%" stop-color="#FF135F"/>
        </linearGradient>
        <linearGradient id="prefix__d" x1="0%" x2="100.759%" y1="79.805%" y2="21.479%">
            <stop offset="0%" stop-color="#FF8439"/>
            <stop offset="100%" stop-color="#FFC94C"/>
        </linearGradient>
        <linearGradient id="prefix__e" x1="0%" x2="100.759%" y1="79.239%" y2="22.021%">
            <stop offset="0%" stop-color="#FF4244"/>
            <stop offset="100%" stop-color="#FF8E3C"/>
        </linearGradient>
        <linearGradient id="prefix__f" x1="0%" x2="100.759%" y1="79.805%" y2="21.479%">
            <stop offset="0%" stop-color="#FF4244"/>
            <stop offset="100%" stop-color="#FF8E3C"/>
        </linearGradient>
        <linearGradient id="prefix__g" x1="100%" x2="0%" y1="20.195%" y2="79.805%">
            <stop offset="0%" stop-color="#FB1C50"/>
            <stop offset="50.682%" stop-color="#C109AE"/>
            <stop offset="100%" stop-color="#612FFF"/>
        </linearGradient>
        <linearGradient id="prefix__h" x1="12.594%" x2="100.759%" y1="71.427%" y2="22.021%">
            <stop offset="0%" stop-color="#612FFF"/>
            <stop offset="100%" stop-color="#D200A3"/>
        </linearGradient>
        <linearGradient id="prefix__i" x1="0%" x2="100.759%" y1="68.567%" y2="32.233%">
            <stop offset="0%" stop-color="#FF8439"/>
            <stop offset="100%" stop-color="#FFC94C"/>
        </linearGradient>
        <linearGradient id="prefix__j" x1="0%" x2="100.759%" y1="61.653%" y2="38.849%">
            <stop offset="0%" stop-color="#FF8439"/>
            <stop offset="100%" stop-color="#FFC94C"/>
        </linearGradient>
        <linearGradient id="prefix__k" x1="0%" x2="100.759%" y1="61.437%" y2="39.056%">
            <stop offset="0%" stop-color="#FF8439"/>
            <stop offset="100%" stop-color="#FFC94C"/>
        </linearGradient>
        <linearGradient id="prefix__l" x1="0%" x2="100%" y1="38.563%" y2="61.437%">
            <stop offset="0%" stop-color="#612FFF"/>
            <stop offset="20.561%" stop-color="#D200A3"/>
            <stop offset="40.679%" stop-color="#FF135F"/>
            <stop offset="63.231%" stop-color="#FF4F42"/>
            <stop offset="81.777%" stop-color="#FF8E3C"/>
            <stop offset="100%" stop-color="#FFC94C"/>
        </linearGradient>
        <linearGradient id="prefix__m" x1="0%" x2="100%" y1="60.889%" y2="39.111%">
            <stop offset="0%" stop-color="#F80F6B"/>
            <stop offset="100%" stop-color="#FF4F42"/>
        </linearGradient>
        <linearGradient id="prefix__n" x1="0%" x2="100.759%" y1="61.437%" y2="39.056%">
            <stop offset="0%" stop-color="#C600AD"/>
            <stop offset="100%" stop-color="#FF135F"/>
        </linearGradient>
        <linearGradient id="prefix__o" x1="100%" x2="0%" y1="61.437%" y2="38.563%">
            <stop offset="0%" stop-color="#FFD44B"/>
            <stop offset="49.283%" stop-color="#FF7B34"/>
            <stop offset="100%" stop-color="#FB1C50"/>
        </linearGradient>
        <linearGradient id="prefix__p" x1="12.594%" x2="100.759%" y1="58.381%" y2="39.056%">
            <stop offset="0%" stop-color="#612FFF"/>
            <stop offset="100%" stop-color="#D200A3"/>
        </linearGradient>
        <linearGradient id="prefix__r" x1="0%" x2="100.759%" y1="61.653%" y2="38.849%">
            <stop offset="0%" stop-color="#FF4244"/>
            <stop offset="100%" stop-color="#FF8E3C"/>
        </linearGradient>
        <linearGradient id="prefix__s" x1="0%" x2="100%" y1="61.437%" y2="38.563%">
            <stop offset="0%" stop-color="#F80F6B"/>
            <stop offset="100%" stop-color="#FF4F42"/>
        </linearGradient>
        <linearGradient id="prefix__t" x1="0%" x2="100.759%" y1="61.437%" y2="39.056%">
            <stop offset="0%" stop-color="#FF4244"/>
            <stop offset="100%" stop-color="#FF8E3C"/>
        </linearGradient>
        <linearGradient id="prefix__u" x1="13.695%" x2="100%" y1="41.708%" y2="61.437%">
            <stop offset="0%" stop-color="#612FFF"/>
            <stop offset="100%" stop-color="#D200A3"/>
        </linearGradient>
        <linearGradient id="prefix__v" x1="13.695%" x2="100%" y1="42.186%" y2="60.778%">
            <stop offset="0%" stop-color="#612FFF"/>
            <stop offset="100%" stop-color="#D200A3"/>
        </linearGradient>
        <linearGradient id="prefix__w" x1="58.535%" x2="52.453%" y1="46.755%" y2="49.014%">
            <stop offset="0%" stop-color="#5A5A5A"/>
            <stop offset="100%" stop-color="#5A5A5A" stop-opacity="0"/>
        </linearGradient>
        <linearGradient id="prefix__x" x1="50.011%" x2="50.011%" y1="192.689%" y2="5.446%">
            <stop offset="0%" stop-color="#B3B3B3"/>
            <stop offset="100%" stop-color="#F2F2F2"/>
        </linearGradient>
        <linearGradient id="prefix__y" x1="-27.298%" x2="71.465%" y1="47.313%" y2="50.942%">
            <stop offset="0%" stop-color="#612FFF"/>
            <stop offset="100%" stop-color="#581AB4"/>
        </linearGradient>
        <linearGradient id="prefix__z" x1="51.086%" x2="57.31%" y1="26.803%" y2="101.787%">
            <stop offset="0%" stop-color="#ECB692"/>
            <stop offset="100%" stop-color="#FDC97E"/>
        </linearGradient>
        <linearGradient id="prefix__A" x1="3.257%" x2="96.293%" y1="42.898%" y2="57.629%">
            <stop offset="0%" stop-color="#FF4244"/>
            <stop offset="100%" stop-color="#FF8E3C"/>
        </linearGradient>
        <linearGradient id="prefix__B" x1="45.864%" x2="50.094%" y1="15.782%" y2="84.294%">
            <stop offset="0%" stop-color="#ECB692"/>
            <stop offset="100%" stop-color="#FDC97E"/>
        </linearGradient>
        <linearGradient id="prefix__C" x1="-44.107%" x2="231.788%" y1="28.044%" y2="105.26%">
            <stop offset="0%" stop-color="#612FFF"/>
            <stop offset="100%" stop-color="#581AB4"/>
        </linearGradient>
        <linearGradient id="prefix__D" x1="46.42%" x2="52.144%" y1="215.508%" y2=".579%">
            <stop offset="0%" stop-color="#ECB692"/>
            <stop offset="100%" stop-color="#FDC97E"/>
        </linearGradient>
        <linearGradient id="prefix__E" x1="-.185%" x2="100.052%" y1="49.833%" y2="49.833%">
            <stop offset="0%" stop-color="#FF4244"/>
            <stop offset="100%" stop-color="#FF8E3C"/>
        </linearGradient>
        <linearGradient id="prefix__F" x1=".854%" x2="99.883%" y1="44.852%" y2="54.293%">
            <stop offset="0%" stop-color="#ECB692"/>
            <stop offset="100%" stop-color="#FDC97E"/>
        </linearGradient>
        <linearGradient id="prefix__G" x1=".331%" x2="99.362%" y1="45.431%" y2="54.873%">
            <stop offset="0%" stop-color="#ECB692"/>
            <stop offset="100%" stop-color="#FDC97E"/>
        </linearGradient>
        <linearGradient id="prefix__H" x1="62.317%" x2="48.544%" y1="127.054%" y2="35.526%">
            <stop offset="0%" stop-color="#ECB692"/>
            <stop offset="100%" stop-color="#FDC97E"/>
        </linearGradient>
        <linearGradient id="prefix__I" x1="-.035%" x2="100.251%" y1="49.783%" y2="49.783%">
            <stop offset="0%" stop-color="#FF4244"/>
            <stop offset="100%" stop-color="#FF8E3C"/>
        </linearGradient>
        <linearGradient id="prefix__J" x1="50.008%" x2="50.008%" y1="159.895%" y2="48.441%">
            <stop offset="0%" stop-color="#FFF" stop-opacity=".2"/>
            <stop offset="3.404%" stop-color="#FFF" stop-opacity=".2"/>
            <stop offset="100%" stop-color="#FFF" stop-opacity="0"/>
        </linearGradient>
        <linearGradient id="prefix__K" x1="-39.846%" x2="145.585%" y1="88.058%" y2="-.215%">
            <stop offset="0%" stop-color="#612FFF"/>
            <stop offset="100%" stop-color="#581AB4"/>
        </linearGradient>
        <linearGradient id="prefix__L" x1="114.859%" x2="20.385%" y1="50.711%" y2="49.663%">
            <stop offset="0%" stop-color="#ECB692"/>
            <stop offset="100%" stop-color="#FDC97E"/>
        </linearGradient>
        <path id="prefix__a" d="M0 0H540V224H0z"/>
        <path id="prefix__q" d="M.703 62.203c5.333-.667 10.333-1 15-1 2.84 0 5.68.123 8.52.37 3.1.27 5.48 2.865 5.48 5.978v7.652c-6.293-.667-10.96-1-14-1-1.975 0-4.637.14-7.984.422-3.302.277-6.204-2.175-6.482-5.477l-.003-.042-.531-6.903z"/>
    </defs>
    <g fill="none" fill-rule="evenodd" transform="translate(-3)">
        <mask id="prefix__c" fill="#fff">
            <use xlink:href="#prefix__a"/>
        </mask>
        <path fill="url(#prefix__b)" fill-rule="nonzero" d="M216.685-9.458c2.885-.998 5.77-1.497 8.654-1.497 2.885 0 5.77.499 8.655 1.497.805.28 1.345 1.038 1.345 1.89v6.8c0 1.104-.895 2-2 2-.193 0-.385-.028-.57-.083-2.476-.736-4.953-1.104-7.43-1.104-2.476 0-4.953.368-7.43 1.104-1.059.314-2.172-.289-2.487-1.348-.055-.185-.083-.377-.083-.57v-6.799c0-.852.54-1.61 1.346-1.89z" mask="url(#prefix__c)" transform="rotate(23 225.068 -4.223)"/>
        <path fill="url(#prefix__d)" fill-rule="nonzero" d="M306.236-11.738c2.884-.998 5.77-1.498 8.654-1.498 2.885 0 5.77.5 8.654 1.498.806.28 1.346 1.038 1.346 1.89v6.8c0 1.104-.895 2-2 2-.193 0-.385-.028-.57-.083-2.477-.737-4.953-1.105-7.43-1.105-2.477 0-4.954.368-7.43 1.105-1.059.314-2.172-.289-2.487-1.348-.055-.185-.083-.377-.083-.57v-6.799c0-.852.54-1.61 1.346-1.89z" mask="url(#prefix__c)" transform="rotate(-173 314.619 -6.503)"/>
        <path fill="url(#prefix__e)" fill-rule="nonzero" d="M398.848 42.374c2.29-.783 4.578-1.175 6.868-1.175 2.289 0 4.578.392 6.867 1.175.647.222 1.082.83 1.082 1.514v5.304c0 .883-.716 1.6-1.6 1.6-.153 0-.305-.022-.451-.065-1.966-.578-3.932-.867-5.898-.867-1.967 0-3.933.289-5.899.867-.848.25-1.737-.236-1.986-1.084-.043-.146-.065-.298-.065-.451v-5.304c0-.684.435-1.292 1.082-1.514z" mask="url(#prefix__c)" transform="rotate(76 405.5 46.5)"/>
        <path fill="url(#prefix__f)" fill-rule="nonzero" d="M341.156 132.706c2.885-.998 5.77-1.498 8.654-1.498 2.885 0 5.77.5 8.654 1.498.806.279 1.346 1.038 1.346 1.89v6.8c0 1.104-.895 2-2 2-.193 0-.385-.029-.57-.084-2.476-.736-4.953-1.104-7.43-1.104-2.477 0-4.953.368-7.43 1.104-1.059.315-2.172-.288-2.487-1.347-.055-.185-.083-.377-.083-.57v-6.799c0-.852.54-1.611 1.346-1.89z" mask="url(#prefix__c)" transform="rotate(111 349.539 137.94)"/>
        <path fill="url(#prefix__g)" fill-rule="nonzero" d="M476.125 194.854c2.885-.999 5.77-1.498 8.654-1.498 2.885 0 5.77.5 8.655 1.498.805.279 1.345 1.037 1.345 1.89v6.799c0 1.104-.895 2-2 2-.192 0-.384-.028-.57-.083-2.476-.736-4.953-1.104-7.43-1.104-2.476 0-4.953.368-7.43 1.104-1.059.315-2.172-.289-2.487-1.347-.055-.185-.083-.377-.083-.57v-6.8c0-.852.54-1.61 1.346-1.89z" mask="url(#prefix__c)" transform="rotate(-38 484.508 200.088)"/>
        <path fill="url(#prefix__h)" fill-rule="nonzero" d="M272.848 55.374c2.29-.783 4.578-1.175 6.868-1.175 2.289 0 4.578.392 6.867 1.175.647.222 1.082.83 1.082 1.514v5.304c0 .883-.716 1.6-1.6 1.6-.153 0-.305-.022-.451-.065-1.966-.578-3.932-.867-5.898-.867-1.967 0-3.933.289-5.899.867-.848.25-1.737-.236-1.986-1.084-.043-.146-.065-.298-.065-.451v-5.304c0-.684.435-1.292 1.082-1.514z" mask="url(#prefix__c)" transform="rotate(138 279.5 59.5)"/>
        <path fill="url(#prefix__i)" fill-rule="nonzero" d="M419.055 151.871c2.885-.998 5.77-1.498 8.655-1.498 2.884 0 5.77.5 8.654 1.498.805.279 1.346 1.038 1.346 1.89v6.8c0 1.104-.896 2-2 2-.193 0-.385-.029-.57-.084-2.477-.736-4.954-1.104-7.43-1.104-2.477 0-4.954.368-7.43 1.104-1.06.315-2.173-.288-2.487-1.347-.055-.185-.083-.377-.083-.57v-6.799c0-.852.54-1.611 1.345-1.89z" mask="url(#prefix__c)" transform="rotate(32 427.71 156.467)"/>
        <path fill="url(#prefix__j)" fill-rule="nonzero" d="M225.96-13.35c5.333-.667 10.333-1 15-1 2.84 0 5.68.123 8.52.37 3.1.27 5.48 2.865 5.48 5.978V-.35c-6.294-.667-10.96-1-14-1-1.975 0-4.637.14-7.985.422-3.302.277-6.204-2.175-6.481-5.477l-.003-.042-.531-6.903z" mask="url(#prefix__c)" transform="rotate(-42 240.46 -7.35)"/>
        <path fill="url(#prefix__k)" fill-rule="nonzero" d="M471 22.786c4.23-.524 8.195-.786 11.897-.786 2.237 0 4.475.096 6.712.287 2.483.213 4.391 2.29 4.391 4.783V33c-4.991-.524-8.692-.786-11.103-.786-1.56 0-3.66.11-6.3.33-2.641.218-4.96-1.745-5.18-4.387l-.002-.026-.415-5.345z" mask="url(#prefix__c)" transform="rotate(-42 482.5 27.5)"/>
        <path fill="url(#prefix__l)" fill-rule="nonzero" d="M327 27.786c4.23-.524 8.195-.786 11.897-.786 2.237 0 4.475.096 6.712.287 2.483.213 4.391 2.29 4.391 4.783V38c-4.991-.524-8.692-.786-11.103-.786-1.56 0-3.66.11-6.3.33-2.641.218-4.96-1.745-5.18-4.387l-.002-.026-.415-5.345z" mask="url(#prefix__c)" transform="rotate(-113 338.5 32.5)"/>
        <path fill="url(#prefix__m)" fill-rule="nonzero" d="M386 79c5.517-.667 10.69-1 15.517-1 2.921 0 5.842.122 8.763.366 3.233.27 5.72 2.974 5.72 6.218V92c-6.51-.667-11.338-1-14.483-1-2.043 0-4.796.14-8.258.422-3.435.279-6.446-2.28-6.725-5.714l-.001-.01L386 79z" mask="url(#prefix__c)" transform="rotate(-14 401 85)"/>
        <path fill="url(#prefix__n)" fill-rule="nonzero" d="M163 113.786c4.23-.524 8.195-.786 11.897-.786 2.237 0 4.475.096 6.712.287 2.483.213 4.391 2.29 4.391 4.783V124c-4.991-.524-8.692-.786-11.103-.786-1.56 0-3.66.11-6.3.33-2.641.218-4.96-1.745-5.18-4.387l-.002-.026-.415-5.345z" mask="url(#prefix__c)" transform="rotate(-14 174.5 118.5)"/>
        <path fill="url(#prefix__k)" fill-rule="nonzero" d="M4 163.786c4.23-.524 8.195-.786 11.897-.786 2.237 0 4.475.096 6.712.287 2.483.213 4.391 2.29 4.391 4.783V174c-4.991-.524-8.692-.786-11.103-.786-1.56 0-3.66.11-6.3.33-2.641.218-4.96-1.745-5.18-4.387l-.002-.026L4 163.786z" mask="url(#prefix__c)" transform="rotate(-141 15.5 168.5)"/>
        <path fill="url(#prefix__o)" fill-rule="nonzero" d="M504 106.786c4.23-.524 8.195-.786 11.897-.786 2.237 0 4.475.096 6.712.287 2.483.213 4.391 2.29 4.391 4.783V117c-4.991-.524-8.692-.786-11.103-.786-1.56 0-3.66.11-6.3.33-2.641.218-4.96-1.745-5.18-4.387l-.002-.026-.415-5.345z" mask="url(#prefix__c)" transform="rotate(128 515.5 111.5)"/>
        <path fill="url(#prefix__p)" fill-rule="nonzero" d="M448 83.786c4.23-.524 8.195-.786 11.897-.786 2.237 0 4.475.096 6.712.287 2.483.213 4.391 2.29 4.391 4.783V94c-4.991-.524-8.692-.786-11.103-.786-1.56 0-3.66.11-6.3.33-2.641.218-4.96-1.745-5.18-4.387l-.002-.026-.415-5.345z" mask="url(#prefix__c)" transform="scale(-1 1) rotate(-42 0 1285.538)"/>
        <g fill-rule="nonzero" mask="url(#prefix__c)" transform="scale(1 -1) rotate(45 179.859 0)">
            <use fill="#FF8E3C" xlink:href="#prefix__q"/>
            <use fill="url(#prefix__r)" xlink:href="#prefix__q"/>
        </g>
        <path fill="url(#prefix__s)" fill-rule="nonzero" d="M188 40.786c4.23-.524 8.195-.786 11.897-.786 2.237 0 4.475.096 6.712.287 2.483.213 4.391 2.29 4.391 4.783V51c-4.991-.524-8.692-.786-11.103-.786-1.56 0-3.66.11-6.3.33-2.641.218-4.96-1.745-5.18-4.387l-.002-.026-.415-5.345z" mask="url(#prefix__c)" transform="scale(-1 1) rotate(-67 0 346.912)"/>
        <path fill="url(#prefix__t)" fill-rule="nonzero" d="M498 18.786c4.23-.524 8.195-.786 11.897-.786 2.237 0 4.475.096 6.712.287 2.483.213 4.391 2.29 4.391 4.783V29c-4.991-.524-8.692-.786-11.103-.786-1.56 0-3.66.11-6.3.33-2.641.218-4.96-1.745-5.18-4.387l-.002-.026-.415-5.345z" mask="url(#prefix__c)" transform="scale(1 -1) rotate(73 541.258 0)"/>
        <path fill="url(#prefix__u)" fill-rule="nonzero" d="M67 106.786c4.23-.524 8.195-.786 11.897-.786 2.237 0 4.475.096 6.712.287 2.483.213 4.391 2.29 4.391 4.783V117c-4.991-.524-8.692-.786-11.103-.786-1.56 0-3.66.11-6.3.33-2.641.218-4.96-1.745-5.18-4.387l-.002-.026-.415-5.345z" mask="url(#prefix__c)" transform="rotate(-42 78.5 111.5)"/>
        <path fill="url(#prefix__v)" fill-rule="nonzero" d="M123 167.929c5.15-.62 9.977-.929 14.483-.929 2.746 0 5.492.115 8.238.345 2.984.25 5.279 2.745 5.279 5.74V180c-6.076-.619-10.582-.929-13.517-.929-1.92 0-4.512.133-7.775.398-3.17.257-5.95-2.105-6.207-5.276v-.006l-.501-6.258z" mask="url(#prefix__c)" transform="rotate(128 137 173.5)"/>
        <path fill="url(#prefix__t)" fill-rule="nonzero" d="M119 80.786c4.23-.524 8.195-.786 11.897-.786 2.237 0 4.475.096 6.712.287 2.483.213 4.391 2.29 4.391 4.783V91c-4.991-.524-8.692-.786-11.103-.786-1.56 0-3.66.11-6.3.33-2.641.218-4.96-1.745-5.18-4.387l-.002-.026-.415-5.345z" mask="url(#prefix__c)" transform="scale(1 -1) rotate(73 246.047 0)"/>
        <g fill-rule="nonzero" transform="translate(197 55)">
            <circle cx="7.332" cy="54.833" r="1.547" fill="#E8E8E8"/>
            <path fill="#E8E8E8" d="M35.105 110.967L36.062 109.125 34.073 109.641 32.232 108.683 32.747 110.672 31.79 112.514 33.852 111.998 35.694 112.956z"/>
            <path fill="url(#prefix__w)" d="M118.348 161.502s4.936 1.105 13.407-.073c8.472-1.179 16.723 8.84-17.68 9.576-34.402.737-40.516-3.61-34.328-5.156 6.114-1.62 38.601-4.347 38.601-4.347z" opacity=".1"/>
            <path fill="url(#prefix__x)" d="M129.398 152.957c-10.682 1.99-24.089 3.315-39.854 3.389-5.156.073-10.534-.074-16.133-.295-33.665-1.473-88.105-5.599-68.73-18.122 17.164-11.124 58.27-13.113 62.395-13.26h.368c5.525-.295 11.566-.295 17.754 0 29.835 1.326 64.164 8.545 70.352 11.492 8.987 4.052-1.179 12.229-26.152 16.796z"/>
            <path fill="url(#prefix__y)" d="M68.918 106.4c-10.977-2.947-24.752-10.756-31.235-15.912-5.599-4.494-21.953-18.196-22.247-38.307 0-1.4-6.704-3.241-7.072-.663-2.21 18.564 9.65 39.19 16.648 47.147 7.81 8.84 17.312 19.742 31.456 30.13 3.02 2.21 12.45-22.395 12.45-22.395z"/>
            <path fill="url(#prefix__z)" d="M8.732 46.803c.516.737.516 2.579.516 4.052.073 2.505 4.125 2.063 4.272.81.295-1.694-.884-3.683 0-4.64.295-.443-5.82-1.842-4.788-.222z"/>
            <path fill="#54545E" d="M8.806 50.781c-.516-.147-.81-.589-.663-1.105L20.003 3.12c.147-.516.59-.81 1.105-.663.516.147.81.59.663 1.105L9.911 50.118c-.074.516-.59.81-1.105.663z"/>
            <path fill="url(#prefix__A)" d="M59.12 31.996c-12.965-10.755-24.973.221-43.758-10.976-1.179-.737 3.83-21.805 5.157-20.332 11.27 11.05 28.803.59 44.79 11.86 1.472 1.326-4.716 20.332-6.189 19.448z"/>
            <path fill="#FFF" d="M25.75 7.023c.81.737 1.62 1.326 2.43 1.842l1.326 5.304c1.179-.958 2.357-2.063 3.536-3.315.81.147 1.547.295 2.357.368-1.768 2.063-3.61 3.905-5.377 5.304-.369 1.4-.737 2.873-1.179 4.273-.663-.368-1.4-.81-2.063-1.4.369-1.326.737-2.652 1.18-3.978-.811-2.725-1.474-5.525-2.21-8.398zM39.893 20.062c-1.473.074-2.947.074-4.346 0L34 22.493c-.737-.147-1.474-.294-2.21-.515 2.283-3.094 4.567-6.851 6.85-10.682.811 0 1.621-.074 2.432-.147.442 3.83.884 7.587 1.4 11.418-.737.074-1.548.074-2.284.147-.148-.884-.221-1.768-.295-2.652zm-3.241-1.989h2.946c-.147-1.473-.294-2.873-.442-4.346-.81 1.473-1.62 2.947-2.504 4.346zM44.24 11.001c.81 0 1.62-.073 2.43 0l1.326 4.641c1.18-1.4 2.358-2.725 3.536-3.904.81.221 1.547.516 2.358.884-1.768 1.326-3.61 3.168-5.378 5.157-.368 1.547-.737 3.167-1.179 4.714-.663-.073-1.4-.073-2.062 0 .368-1.62.736-3.24 1.178-4.862-.736-2.283-1.473-4.42-2.21-6.63zM55.437 21.388c-.516-.294-.958-.589-1.474-.81.442-2.43.958-4.862 1.4-7.22.81.516 1.62 1.106 2.431 1.842-.81 1.916-1.62 4.052-2.357 6.188zm-1.032.442c.663.369 1.105 1.18.884 1.842-.147.59-.884.737-1.547.442-.663-.295-1.03-1.031-.884-1.694.221-.59.884-.884 1.547-.59z"/>
            <path fill="url(#prefix__B)" d="M91.828 113.62c-.295.073-.516.073-.81.146h-.148c-2.725.442-5.156 1.326-7.44 2.284-2.284.958-4.494 1.99-6.704 2.8l-.663.22h-.073c-.295.148-.59.221-.81.295-.074 0-.148.074-.222.074-.22.073-.515.22-.736.294-.074 0-.148.074-.221.074-.221.074-.516.221-.737.295h-.074c-.515.22-.957.368-1.4.59-.073.073-.147.073-.22.073l-.442.22c-.148.074-.221.148-.369.148-.147.074-.22.147-.368.147-.147.074-.295.148-.368.148-.148.073-.221.073-.369.147-.147.074-.294.147-.368.147-.074.074-.147.074-.295.148l-.442.22c-.073 0-.147.074-.22.074-.148.074-.369.148-.516.221-.148.074-.295.148-.516.221-.074 0-.074 0-.074.074-.147.074-.22.074-.294.147-.074 0-.074 0-.148.074-.073.074-.147.074-.22.074 0 0-.074 0-.074.073-.074 0-.148.074-.148.074h-.073c-.074 0-.074.074-.148.074l2.873-17.09s3.684-5.01 7.883-9.799c1.4-1.547 11.05.516 11.344 2.063.958 4.715.884 8.03 4.641 11.271-.073.295 1.99 3.389-1.03 3.978z"/>
            <path fill="url(#prefix__C)" d="M110.024 155.535c-6.262.516-13.113.81-20.48.884-5.156 0-10.534-.073-16.133-.294-8.913-.369-19.3-.958-29.393-1.842 3.831-9.135 8.398-18.711 13.997-28.95 3.241-6.042 6.925-12.303 10.83-18.86l-2.874 17.091c.368-.368 6.777-6.483 24.826-9.724h.147c.295-.074.516-.074.81-.147 2.652-.516 1.105-3.463.958-3.684 3.094 4.789 5.893 10.093 8.398 15.912 3.757 8.693 6.777 18.564 8.914 29.614z"/>
            <path fill="url(#prefix__D)" d="M9.542 38.037c-1.252-.22-2.357 4.052-2.578 5.083-.368 2.063-.59 2.8 1.4 3.315.884.221 2.873 1.105 3.462 1.105.663 0 1.179-.22 1.62-.59.737-.662 1.548-1.178 2.284-3.24.369-1.032.81-3.39-.663-4.2s-3.683-1.105-5.525-1.473z"/>
            <path fill="url(#prefix__E)" d="M88.366 59.327c1.915-.59 3.536 1.989 3.536 1.989s3.241-1.547 5.23-.516c1.99 1.031 2.136 2.873 2.136 2.873s1.842-.516 3.168 1.252.368 3.315.368 3.315 3.094.369 3.39 1.99c.294 1.62-1.106 4.346-1.106 4.346s1.031.81 1.915 2.062c.884 1.326-2.136 2.873-2.136 2.873s.295 1.105 1.031 3.315c.737 2.21-3.094 3.168-3.094 3.168s.442 2.431-.22 5.01c-.664 2.578-3.537.81-3.537.81s-1.326 3.315-2.578 5.01c-1.252 1.693-5.451-1.253-5.451-1.253-.958-.295-3.978-2.947-6.704-3.83-4.346-1.327-9.208-2.432-9.208-2.432s-2.063-.147-3.389-1.4c-1.4-1.252.884-4.935.884-4.935s-3.315-2.873-2.652-4.936c.663-1.989 2.8-3.094 2.8-3.094s-1.621-2.726-.81-3.757c.81-1.031 1.84-1.915 1.84-1.915s-.662-3.463.516-4.568c1.18-1.105 3.463-.294 3.463-.294s1.178-2.137 2.21-3.757c1.031-1.62 4.42.515 4.42.515s1.989-1.326 3.978-1.841z"/>
            <circle cx="101.11" cy="86.804" r="2.357" fill="url(#prefix__F)"/>
            <circle cx="73.485" cy="77.154" r="2.357" fill="url(#prefix__G)"/>
            <path fill="url(#prefix__H)" d="M92.638 63.526C82.693 60.21 75.4 66.693 72.085 76.565c-1.252 3.683-.442 8.692.369 12.228 1.326 5.894 2.283 9.209 7.956 11.05 5.598 1.916 8.398-.073 13.039-4.051 2.8-2.358 6.482-5.82 7.661-9.577 3.315-9.798 1.473-19.374-8.472-22.69z"/>
            <path fill="url(#prefix__I)" d="M72.675 74.944c1.031 1.62 2.873-3.683 2.873-3.683s-.074 1.547 1.989 1.989c2.136.442 7.145-1.179 7.145-1.179s1.916 3.168 4.568 4.346c2.652 1.18 3.094-1.178 3.094-1.178s.884 1.694 3.241 3.757c2.357 2.062 4.125-.148 4.125-.148s.074 5.452 1.916 5.673c1.841.22 1.989-5.23 1.989-5.82 0-.59-1.179-8.545-1.179-8.545l-3.094-4.347-5.23-2.283s-7.44-1.842-7.735-1.768c-.295.073-6.999 1.768-6.999 1.768l-3.536 3.536c0-.074-3.904 6.703-3.167 7.882z"/>
            <path fill="url(#prefix__J)" d="M129.398 152.957c-5.746 1.031-12.155 1.915-19.374 2.505-6.262.515-13.113.81-20.48.884-5.156 0-10.534-.074-16.133-.295-8.913-.368-19.3-.958-29.393-1.842-27.92-2.43-53.555-7.072-39.338-16.28 12.892-8.324 39.191-11.566 53.335-12.67 4.715-.369 8.03-.516 9.061-.59h.368c5.525-.295 11.566-.295 17.754 0 5.23.221 10.608.663 15.912 1.179 25.047 2.578 49.283 7.882 54.44 10.24 8.987 4.125-1.179 12.302-26.152 16.87z"/>
            <path fill="url(#prefix__K)" d="M92.786 109.936c7.293 5.893 43.39 33.592 42.58 45.673-.738 10.976-24.9 10.24-36.613 10.092-1.916 0-2.652-5.156 0-5.45 9.503-1.106 19.153-2.358 19.3-5.526.221-5.672-19.742-18.859-19.742-18.859s-1.547-18.343-5.525-25.93z"/>
            <path fill="url(#prefix__L)" d="M94.26 162.24c-1.622-.148-2.137-.148-3.316 0-1.4.146-3.83 1.251-5.01 1.988-1.03.59-.736 1.4.737 1.326 1.474-.074 3.094-.147 4.42-.147 2.063 0 2.8.147 3.978.147 2.21 0 3.463-.22 4.347-.516 1.62-.515 1.473-3.536-.295-3.536-2.43 0-3.683.884-4.862.737z"/>
        </g>
    </g>
</svg>
